<?xml version="1.0" standalone="no"?>
<!DOCTYPE svg PUBLIC "-//W3C//DTD SVG 1.1//EN"
 "http://www.w3.org/Graphics/SVG/1.1/DTD/svg11.dtd">
<!-- Created with svg_stack (http://github.com/astraw/svg_stack) -->
<svg xmlns:sodipodi="http://sodipodi.sourceforge.net/DTD/sodipodi-0.dtd" xmlns="http://www.w3.org/2000/svg" version="1.1" width="1695.0" height="1595.0">
  <defs/>
  <g id="id0:id0" transform="matrix(1.25,0,0,1.25,0.0,0.0)"><g transform="translate(0.000000,1276.000000) scale(0.100000,-0.100000)" fill="#000000" stroke="none">
<path d="M675 12624 c-66 -75 -139 -157 -163 -184 -38 -43 -56 -83 -143 -317 -208 -557 -201 -531 -269 -1003 -73 -514 -100 -856 -100 -1286 0 -262 3 -318 30 -545 38 -319 85 -551 151 -739 l50 -146 109 -134 110 -134 0 -4068 0 -4068 160 0 160 0 0 4068 0 4068 65 49 c35 27 66 54 69 60 105 265 464 1117 475 1128 5 5 177 -60 382 -143 340 -138 3221 -1329 3226 -1335 2 -1 -17 -69 -41 -151 -25 -82 -106 -356 -181 -609 -75 -253 -263 -874 -417 -1380 -154 -506 -606 -2000 -1004 -3320 -399 -1320 -727 -2408 -730 -2417 -5 -17 38 -18 800 -18 l805 0 16 53 c8 28 330 1078 714 2332 l698 2280 718 0 718 0 748 -2170 c412 -1194 774 -2243 805 -2332 l56 -163 800 0 799 0 -7 23 c-34 111 -1788 5337 -1972 5877 -132 388 -238 706 -237 708 3 3 2204 -905 2212 -912 2 -1 -128 -317 -287 -701 -159 -384 -289 -700 -287 -701 18 -16 2132 -883 2137 -877 5 4 65 145 135 313 175 420 717 1728 947 2285 104 253 237 573 295 710 131 309 334 808 330 810 -9 9 -2122 875 -2132 875 -7 0 -15 -6 -18 -12 -3 -7 -81 -197 -175 -423 -93 -225 -218 -529 -277 -675 -59 -146 -111 -269 -115 -273 -4 -5 -466 182 -1026 416 -1141 476 -3699 1534 -4274 1767 -206 84 -478 196 -605 250 -562 240 -2987 1240 -3006 1240 -5 0 -9 2 -9 3 0 9 232 575 345 842 70 165 129 305 131 311 3 6 -13 23 -35 37 -21 14 -200 151 -398 304 -197 154 -430 333 -518 400 l-160 121 -98 21 c-75 16 -131 21 -245 20 l-147 0 -120 -135z"/>
</g>
</g>
  <g id="id1:id1" transform="matrix(1.25,0,0,1.25,0.0,0.0)"><g transform="translate(0.000000,1276.000000) scale(0.100000,-0.100000)" fill="#ffffff" stroke="none">
</g>
</g>
</svg>
