<?xml version="1.0" encoding="UTF-8" standalone="no"?>
<svg
   xmlns:dc="http://purl.org/dc/elements/1.1/"
   xmlns:cc="http://creativecommons.org/ns#"
   xmlns:rdf="http://www.w3.org/1999/02/22-rdf-syntax-ns#"
   xmlns:svg="http://www.w3.org/2000/svg"
   xmlns="http://www.w3.org/2000/svg"
   xmlns:sodipodi="http://sodipodi.sourceforge.net/DTD/sodipodi-0.dtd"
   xmlns:inkscape="http://www.inkscape.org/namespaces/inkscape"
   viewBox="0 0 212.5 350.40625"
   version="1.1"
   xml:space="preserve"
   id="svg2"
   inkscape:version="0.48.3.1 r9886"
   width="100%"
   height="100%"
   sodipodi:docname="alkis3512.svg"
   style="fill-rule:evenodd;stroke-linecap:round;stroke-linejoin:round"><metadata
   id="metadata185"><rdf:RDF><cc:Work
       rdf:about=""><dc:format>image/svg+xml</dc:format><dc:type
         rdf:resource="http://purl.org/dc/dcmitype/StillImage" /></cc:Work></rdf:RDF></metadata><sodipodi:namedview
   pagecolor="#ffffff"
   bordercolor="#666666"
   borderopacity="1"
   objecttolerance="10"
   gridtolerance="10"
   guidetolerance="10"
   inkscape:pageopacity="0"
   inkscape:pageshadow="2"
   inkscape:window-width="1855"
   inkscape:window-height="1025"
   id="namedview183"
   showgrid="false"
   inkscape:zoom="1.5733333"
   inkscape:cx="-10.042904"
   inkscape:cy="175.5"
   inkscape:window-x="0"
   inkscape:window-y="33"
   inkscape:window-maximized="1"
   inkscape:current-layer="svg2" />
<defs
   id="defs4">
<clipPath
   id="clipId0">
<path
   d="M 0,600 800,600 800,0 0,0 z"
   id="path7"
   inkscape:connector-curvature="0" />
</clipPath>
</defs>
<g
   clip-path="url(#clipId0)"
   id="g9"
   style="fill:none;stroke:#000000;stroke-width:0.1"
   transform="translate(-293.09375,-125.09375)" />
<g
   clip-path="url(#clipId0)"
   id="g11"
   style="fill:#000000;stroke:none"
   transform="translate(-293.09375,-125.09375)">



















































































</g>
<g
   clip-path="url(#clipId0)"
   id="g179"
   style="fill:none;stroke:#000000;stroke-width:0.25"
   transform="translate(-293.09375,-125.09375)">
<path
   style="fill:#000000;fill-opacity:1"
   d="m 343.90625,125.21875 0,236.9375 -2.78125,0.34375 -4.375,0.875 -4.28125,1.1875 -4.1875,1.5625 -4.0625,1.875 -3.875,2.15625 -3.71875,2.5 -3.5,2.75 -3.28125,3.03125 -3.03125,3.28125 -2.75,3.5 -2.46875,3.6875 -2.1875,3.90625 -1.875,4.03125 -1.53125,4.1875 -1.21875,4.28125 -0.875,4.375 -0.5,4.4375 -0.1875,4.46875 0.1875,4.4375 0.5,4.4375 0.875,4.375 1.21875,4.28125 1.53125,4.1875 1.875,4.0625 2.1875,3.875 2.46875,3.71875 2.75,3.5 3.03125,3.28125 3.28125,3 3.5,2.78125 3.71875,2.46875 3.875,2.1875 4.0625,1.84375 4.1875,1.5625 4.28125,1.21875 4.375,0.84375 4.4375,0.53125 4.4375,0.1875 4.46875,-0.1875 4.40625,-0.53125 4.375,-0.84375 4.3125,-1.21875 4.1875,-1.5625 4.03125,-1.84375 3.90625,-2.1875 3.6875,-2.46875 3.5,-2.78125 3.28125,-3 3.03125,-3.28125 2.75,-3.5 2.46875,-3.71875 2.1875,-3.875 1.875,-4.0625 1.53125,-4.1875 1.21875,-4.28125 0.875,-4.375 0.53125,-4.4375 0.15625,-4.4375 -0.15625,-4.46875 -0.53125,-4.4375 -0.875,-4.375 -1.21875,-4.28125 -1.53125,-4.1875 -1.875,-4.03125 -2.1875,-3.90625 -2.46875,-3.6875 -2.75,-3.5 -3.03125,-3.28125 -3.28125,-3.03125 -3.5,-2.75 -3.6875,-2.5 L 375.78125,368 371.75,366.125 l -4.1875,-1.5625 -4.3125,-1.1875 -3.9375,-0.78125 109.40625,-225.1875 36.75,0 0,-12.1875 -161.5625,0 z m 12.1875,12.1875 99.09375,0 -99.09375,204 0,-204 z M 350,373.96875 l 3.5,0.15625 3.46875,0.40625 3.4375,0.6875 3.375,0.9375 3.28125,1.21875 3.1875,1.46875 3.0625,1.71875 2.90625,1.9375 2.75,2.15625 2.59375,2.375 2.375,2.59375 2.15625,2.75 1.9375,2.90625 1.71875,3.0625 1.46875,3.15625 1.21875,3.3125 0.9375,3.34375 0.6875,3.4375 0.40625,3.5 0.15625,3.5 -0.15625,3.5 -0.40625,3.46875 -0.6875,3.4375 -0.9375,3.375 -1.21875,3.28125 -1.46875,3.1875 -1.71875,3.03125 -1.9375,2.9375 -2.15625,2.75 -2.375,2.5625 -2.59375,2.375 -2.75,2.15625 -2.90625,1.96875 -3.0625,1.6875 -3.1875,1.46875 -3.28125,1.21875 -3.375,0.96875 -3.4375,0.6875 -3.46875,0.40625 -3.5,0.125 -3.5,-0.125 -3.46875,-0.40625 -3.4375,-0.6875 -3.375,-0.96875 -3.28125,-1.21875 -3.1875,-1.46875 -3.0625,-1.6875 -2.90625,-1.96875 -2.75,-2.15625 -2.5625,-2.375 -2.375,-2.5625 -2.1875,-2.75 -1.9375,-2.9375 -1.71875,-3.03125 -1.46875,-3.1875 -1.1875,-3.28125 -0.96875,-3.375 -0.6875,-3.4375 -0.40625,-3.46875 -0.125,-3.5 0.125,-3.5 0.40625,-3.5 0.6875,-3.4375 0.96875,-3.34375 1.1875,-3.3125 1.46875,-3.15625 1.71875,-3.0625 1.9375,-2.90625 2.1875,-2.75 2.375,-2.59375 2.5625,-2.375 2.75,-2.15625 2.90625,-1.9375 3.0625,-1.71875 3.1875,-1.46875 3.28125,-1.21875 3.375,-0.9375 3.4375,-0.6875 3.46875,-0.40625 3.5,-0.15625 z"
   id="polyline181"
   inkscape:connector-curvature="0" />
</g>
</svg>