<?xml version="1.0" standalone="no"?>
<!DOCTYPE svg PUBLIC "-//W3C//DTD SVG 1.1//EN"
 "http://www.w3.org/Graphics/SVG/1.1/DTD/svg11.dtd">
<!-- Created with svg_stack (http://github.com/astraw/svg_stack) -->
<svg xmlns:sodipodi="http://sodipodi.sourceforge.net/DTD/sodipodi-0.dtd" xmlns="http://www.w3.org/2000/svg" version="1.1" width="1658.75" height="1587.5">
  <defs/>
  <g id="id0:id0" transform="matrix(1.25,0,0,1.25,0.0,0.0)"><g transform="translate(0.000000,1270.000000) scale(0.100000,-0.100000)" fill="#000000" stroke="none">
<path d="M3605 12678 c-3 -13 -428 -2561 -945 -5663 -517 -3102 -943 -5652 -946 -5668 l-6 -27 -854 0 -854 0 0 -660 0 -660 1419 0 1419 0 5 28 c3 15 427 2563 941 5662 515 3099 939 5645 941 5658 l5 22 1900 0 1900 0 5 -22 c2 -13 428 -2559 945 -5658 517 -3099 943 -5647 946 -5663 l6 -27 1419 0 1419 0 0 660 0 660 -859 0 -858 0 -6 28 c-3 15 -427 2565 -941 5667 -515 3102 -939 5650 -941 5663 l-5 22 -3025 0 -3025 0 -5 -22z"/>
</g>
</g>
  <g id="id1:id1" transform="matrix(1.25,0,0,1.25,0.0,0.0)"><g transform="translate(0.000000,1270.000000) scale(0.100000,-0.100000)" fill="#ffffff" stroke="none">
</g>
</g>
</svg>
