<?xml version="1.0" standalone="no"?>
<!DOCTYPE svg PUBLIC "-//W3C//DTD SVG 1.1//EN"
 "http://www.w3.org/Graphics/SVG/1.1/DTD/svg11.dtd">
<!-- Created with svg_stack (http://github.com/astraw/svg_stack) -->
<svg xmlns:sodipodi="http://sodipodi.sourceforge.net/DTD/sodipodi-0.dtd" xmlns="http://www.w3.org/2000/svg" version="1.1" width="1597.5" height="1596.25">
  <defs/>
  <g id="id0:id0" transform="matrix(1.25,0,0,1.25,0.0,0.0)"><g transform="translate(0.000000,1277.000000) scale(0.100000,-0.100000)" fill="#00cccc" stroke="none">
<path d="M6000 12760 c-398 -21 -955 -114 -1347 -226 -680 -194 -1222 -446 -1823 -847 -955 -638 -1736 -1549 -2238 -2612 -200 -424 -382 -986 -466 -1440 -161 -870 -161 -1630 0 -2500 84 -454 266 -1017 466 -1440 503 -1063 1283 -1974 2238 -2612 601 -401 1143 -653 1823 -847 307 -87 617 -147 1027 -197 263 -32 269 -33 710 -33 441 0 447 1 710 33 416 51 721 110 1020 196 849 247 1513 586 2219 1134 1051 815 1815 1959 2191 3281 374 1314 321 2640 -159 3960 -158 435 -412 936 -672 1325 -371 556 -843 1065 -1359 1466 -706 548 -1371 887 -2220 1134 -299 86 -616 147 -1020 195 -228 28 -292 31 -605 34 -192 3 -415 1 -495 -4z"/>
</g>
</g>
  <g id="id1:id1" transform="matrix(1.25,0,0,1.25,0.0,0.0)"><g transform="translate(0.000000,1277.000000) scale(0.100000,-0.100000)" fill="#ffffff" stroke="none">
</g>
</g>
</svg>
