<?xml version="1.0" standalone="no"?>
<!DOCTYPE svg PUBLIC "-//W3C//DTD SVG 1.1//EN"
 "http://www.w3.org/Graphics/SVG/1.1/DTD/svg11.dtd">
<!-- Created with svg_stack (http://github.com/astraw/svg_stack) -->
<svg xmlns:sodipodi="http://sodipodi.sourceforge.net/DTD/sodipodi-0.dtd" xmlns="http://www.w3.org/2000/svg" version="1.1" width="1573.75" height="1573.75">
  <defs/>
  <g id="id0:id0" transform="matrix(1.25,0,0,1.25,0.0,0.0)"><g transform="translate(0.000000,1259.000000) scale(0.100000,-0.100000)" fill="#00ff00" stroke="none">
<path d="M5905 12580 c-712 -39 -1608 -267 -2250 -572 -1232 -586 -2200 -1483 -2844 -2635 -329 -589 -576 -1258 -685 -1848 -161 -873 -161 -1604 -1 -2460 170 -905 638 -1922 1228 -2663 622 -782 1380 -1381 2302 -1820 551 -262 1254 -459 1940 -543 257 -32 265 -33 700 -33 435 0 443 1 700 33 680 84 1357 274 1935 543 583 272 1181 673 1626 1089 386 362 660 683 971 1139 355 521 657 1177 818 1775 321 1196 321 2224 0 3420 -160 597 -463 1254 -818 1775 -312 458 -582 775 -971 1139 -699 654 -1643 1183 -2556 1430 -353 96 -692 164 -998 201 -225 27 -292 31 -600 34 -191 2 -414 1 -497 -4z m816 -2400 c468 -63 782 -151 1239 -348 295 -127 586 -324 980 -663 414 -356 828 -971 1016 -1507 185 -528 237 -823 237 -1357 1 -455 -34 -722 -143 -1085 -137 -456 -257 -716 -512 -1105 -442 -673 -1148 -1229 -1897 -1491 -84 -30 -155 -54 -157 -54 -2 0 -4 837 -4 1860 l0 1860 -1190 0 -1190 0 0 -1860 c0 -1023 -2 -1860 -4 -1860 -19 0 -330 121 -436 170 -750 344 -1324 874 -1763 1625 -253 432 -408 901 -488 1471 -19 136 -22 203 -22 459 0 256 3 323 22 459 94 673 274 1156 637 1711 271 415 628 773 1074 1080 152 104 355 221 475 273 488 211 776 294 1235 357 235 32 666 34 891 5z"/>
</g>
</g>
  <g id="id1:id1" transform="matrix(1.25,0,0,1.25,0.0,0.0)"><g transform="translate(0.000000,1259.000000) scale(0.100000,-0.100000)" fill="#ffffff" stroke="none">
</g>
</g>
</svg>
