<?xml version="1.0" encoding="UTF-8" standalone="no"?>
<!-- Created with Inkscape (http://www.inkscape.org/) -->

<svg
   xmlns:dc="http://purl.org/dc/elements/1.1/"
   xmlns:cc="http://creativecommons.org/ns#"
   xmlns:rdf="http://www.w3.org/1999/02/22-rdf-syntax-ns#"
   xmlns:svg="http://www.w3.org/2000/svg"
   xmlns="http://www.w3.org/2000/svg"
   xmlns:inkscape="http://www.inkscape.org/namespaces/inkscape"
   version="1.1"
   width="100%"
   height="100%"
   viewBox="0 0 403.375 403.375"
   id="svg10279"
   xml:space="preserve"
   style="fill-rule:evenodd;stroke-linecap:round;stroke-linejoin:round"><metadata
     id="metadata10614"><rdf:RDF><cc:Work
         rdf:about=""><dc:format>image/svg+xml</dc:format><dc:type
           rdf:resource="http://purl.org/dc/dcmitype/StillImage" /></cc:Work></rdf:RDF></metadata><defs
     id="defs10281"><clipPath
       id="clipId0"><path
         d="M 0,600 800,600 800,0 0,0 z"
         inkscape:connector-curvature="0"
         id="path10284" /></clipPath></defs><g
     transform="translate(-199.4375,-100.5625)"
     clip-path="url(#clipId0)"
     id="g10286"
     style="fill:none;stroke:#000000;stroke-width:0.1" /><g
     transform="translate(-199.4375,-100.5625)"
     clip-path="url(#clipId0)"
     id="g10288"
     style="fill:#ffffff;stroke:none"><path
       d="m 401.125,122.15625 -14.125,0.5625 -14.03125,1.65625 -13.875,2.75 -13.625,3.84375 -13.25,4.875 -12.84375,5.9375 -12.34375,6.90625 -11.75,7.84375 -11.09375,8.75 -10.40625,9.625 -9.59375,10.375 -8.75,11.09375 -7.84375,11.75 -6.90625,12.34375 -5.9375,12.84375 -4.875,13.25 -3.84375,13.625 -2.75,13.875 -1.6875,14.03125 -0.53125,14.125 0.53125,14.125 1.6875,14.0625 2.75,13.84375 3.84375,13.625 4.875,13.25 5.9375,12.84375 6.90625,12.34375 7.84375,11.75 8.75,11.125 9.59375,10.375 10.40625,9.59375 11.09375,8.75 11.75,7.84375 12.34375,6.9375 12.84375,5.90625 13.25,4.90625 13.625,3.8125 13.875,2.78125 L 387,481.75 l 14.125,0.5625 14.125,-0.5625 14.03125,-1.65625 13.875,-2.78125 13.625,-3.8125 13.25,-4.90625 12.84375,-5.90625 12.34375,-6.9375 11.75,-7.84375 11.09375,-8.75 10.40625,-9.59375 9.59375,-10.375 8.75,-11.125 7.84375,-11.75 6.90625,-12.34375 5.9375,-12.84375 4.875,-13.25 3.84375,-13.625 2.75,-13.84375 1.6875,-14.0625 0.53125,-14.125 -0.53125,-14.125 -1.6875,-14.03125 -2.75,-13.875 -3.84375,-13.625 -4.875,-13.25 -5.9375,-12.84375 -6.90625,-12.34375 -7.84375,-11.75 -8.75,-11.09375 -9.59375,-10.375 -10.40625,-9.625 -11.09375,-8.75 -11.75,-7.84375 -12.34375,-6.90625 -12.84375,-5.9375 -13.25,-4.875 -13.625,-3.84375 -13.875,-2.75 -14.03125,-1.65625 -14.125,-0.5625 z"
       inkscape:connector-curvature="0"
       id="path10444" /></g><g
     transform="translate(-199.4375,-100.5625)"
     clip-path="url(#clipId0)"
     id="g10446"
     style="fill:#cccccc;stroke:none"><path
       d="m 400.28125,100.5625 -14.96875,0.59375 -15.75,1.84375 -15.53125,3.09375 -15.21875,4.3125 -14.875,5.46875 -14.375,6.625 -13.8125,7.75 -13.1875,8.78125 -12.4375,9.8125 -11.625,10.75 -10.75,11.625 -9.8125,12.4375 -8.78125,13.1875 -7.75,13.8125 -6.625,14.375 -5.5,14.875 L 205,255.125 l -3.09375,15.53125 -1.875,15.75 -0.59375,15.8125 0.59375,15.84375 1.875,15.71875 3.09375,15.53125 4.28125,15.25 5.5,14.84375 6.625,14.375 7.75,13.84375 8.78125,13.15625 9.8125,12.4375 10.75,11.625 11.625,10.75 12.4375,9.8125 13.1875,8.78125 13.8125,7.75 14.375,6.625 14.875,5.5 15.21875,4.28125 15.53125,3.09375 15.75,1.875 15.8125,0.625 15.8125,-0.625 15.75,-1.875 15.53125,-3.09375 15.25,-4.28125 14.84375,-5.5 14.375,-6.625 13.8125,-7.75 13.1875,-8.78125 12.4375,-9.8125 11.625,-10.75 10.75,-11.625 9.8125,-12.4375 8.78125,-13.15625 7.75,-13.84375 6.625,-14.375 5.5,-14.84375 4.28125,-15.25 3.09375,-15.53125 1.875,-15.71875 0.59375,-15.84375 -0.59375,-15.8125 -1.875,-15.75 -3.09375,-15.53125 -4.28125,-15.21875 -5.5,-14.875 -6.625,-14.375 -7.75,-13.8125 -8.78125,-13.1875 -9.8125,-12.4375 -10.75,-11.625 -11.625,-10.75 -12.4375,-9.8125 L 506.5,130.25 l -13.8125,-7.75 -14.375,-6.625 -14.84375,-5.46875 -15.25,-4.3125 L 432.6875,103 l -15.75,-1.84375 -16.65625,-0.59375 z m 0.84375,43.21875 12.4375,0.46875 12.34375,1.46875 12.21875,2.4375 11.96875,3.375 11.65625,4.3125 11.3125,5.1875 10.84375,6.09375 10.34375,6.90625 9.78125,7.71875 9.125,8.4375 8.46875,9.125 7.6875,9.78125 6.90625,10.34375 6.09375,10.84375 5.1875,11.3125 4.3125,11.65625 3.375,12 2.4375,12.1875 1.46875,12.34375 0.46875,12.4375 -0.46875,12.4375 L 557.625,327 l -2.4375,12.21875 -3.375,11.96875 -4.3125,11.6875 -5.1875,11.28125 -6.09375,10.84375 -6.90625,10.34375 -7.6875,9.78125 -8.46875,9.125 -9.125,8.46875 -9.78125,7.6875 -10.34375,6.90625 -10.84375,6.09375 -11.3125,5.21875 -11.65625,4.28125 -11.96875,3.375 -12.21875,2.4375 -12.34375,1.46875 -12.4375,0.5 -12.4375,-0.5 -12.34375,-1.46875 -12.21875,-2.4375 -11.96875,-3.375 L 340.5,448.625 329.1875,443.40625 318.34375,437.3125 308,430.40625 l -9.78125,-7.6875 -9.125,-8.46875 -8.46875,-9.125 -7.6875,-9.78125 L 266.03125,385 259.9375,374.15625 254.75,362.875 250.4375,351.1875 247.0625,339.21875 244.625,327 l -1.46875,-12.34375 -0.46875,-12.4375 0.46875,-12.4375 1.46875,-12.34375 2.4375,-12.1875 3.375,-12 4.3125,-11.65625 5.1875,-11.3125 6.09375,-10.84375 6.90625,-10.34375 7.6875,-9.78125 8.46875,-9.125 9.125,-8.4375 9.78125,-7.71875 10.34375,-6.90625 10.84375,-6.09375 11.3125,-5.1875 11.65625,-4.3125 11.96875,-3.375 12.21875,-2.4375 12.34375,-1.46875 12.4375,-0.46875 z"
       inkscape:connector-curvature="0"
       id="path10606" /></g><g
     transform="translate(-199.4375,-100.5625)"
     clip-path="url(#clipId0)"
     id="g10608"
     style="fill:none;stroke:#cccccc;stroke-width:0.25"><polyline
       points="401.126,122.149 401.126,122.149 "
       id="polyline10610" /></g></svg>