<?xml version="1.0" standalone="no"?>
<!DOCTYPE svg PUBLIC "-//W3C//DTD SVG 1.1//EN"
 "http://www.w3.org/Graphics/SVG/1.1/DTD/svg11.dtd">
<!-- Created with svg_stack (http://github.com/astraw/svg_stack) -->
<svg xmlns:sodipodi="http://sodipodi.sourceforge.net/DTD/sodipodi-0.dtd" xmlns="http://www.w3.org/2000/svg" version="1.1" width="1596.25" height="1596.25">
  <defs/>
  <g id="id0:id0" transform="matrix(1.25,0,0,1.25,0.0,0.0)"><g transform="translate(0.000000,1277.000000) scale(0.100000,-0.100000)" fill="#00ffff" stroke="none">
<path d="M5985 12760 c-558 -31 -1307 -190 -1820 -388 -655 -253 -1206 -562 -1740 -976 -477 -370 -981 -917 -1344 -1461 -381 -569 -641 -1132 -841 -1820 -142 -487 -205 -896 -230 -1476 -21 -485 23 -1075 111 -1504 241 -1172 765 -2195 1578 -3084 352 -384 689 -673 1135 -970 418 -279 842 -495 1351 -689 418 -160 935 -283 1455 -349 l285 -36 455 0 455 0 285 36 c522 66 1053 192 1465 349 653 248 1269 592 1750 978 1079 863 1809 1960 2185 3280 327 1149 327 2341 0 3465 -393 1350 -1105 2421 -2185 3286 -478 382 -1079 719 -1730 970 -409 158 -967 292 -1480 355 -260 32 -306 34 -635 38 -195 2 -422 1 -505 -4z m395 -2355 l0 -315 -1531 0 -1531 0 6 28 c3 15 28 146 56 292 27 146 52 275 55 288 l5 22 1470 0 1470 0 0 -315z m0 -1085 l0 -380 -895 0 -895 0 0 -320 0 -320 895 0 895 0 0 -637 0 -638 -714 -540 c-452 -341 -712 -543 -708 -551 37 -61 370 -492 379 -489 18 6 968 715 1202 898 118 92 220 167 228 167 11 0 1212 -340 1220 -345 2 -1 -58 -222 -132 -490 -74 -269 -133 -490 -132 -491 21 -13 600 -164 606 -158 5 5 36 110 71 234 66 239 208 722 214 727 1 2 119 -30 262 -70 142 -41 445 -125 672 -188 l412 -114 0 -577 0 -578 -3861 0 -3861 0 5 23 c3 12 30 148 61 302 138 705 243 1248 326 1700 50 270 153 812 230 1205 76 393 160 825 185 960 59 315 194 1010 201 1033 5 16 88 17 1570 17 l1564 0 0 -380z m4282 -5748 l318 -507 -208 -3 -207 -2 3 -98 c7 -193 -52 -391 -163 -547 -104 -146 -276 -271 -460 -334 -90 -31 -113 -34 -240 -38 -137 -5 -143 -4 -263 31 -140 40 -241 93 -335 174 -153 133 -229 250 -287 444 -28 92 -32 118 -32 236 l-1 132 -171 0 -171 0 3 -98 c7 -193 -52 -390 -163 -547 -104 -146 -276 -271 -460 -334 -90 -31 -113 -34 -240 -38 -137 -5 -143 -4 -263 31 -141 40 -241 93 -337 176 -153 133 -227 248 -285 442 -28 92 -32 118 -32 236 l-1 132 -171 0 -171 0 3 -98 c7 -193 -52 -390 -163 -547 -104 -146 -276 -271 -460 -334 -90 -31 -113 -34 -240 -38 -137 -5 -143 -4 -263 31 -140 40 -241 93 -335 174 -153 133 -229 250 -287 444 -28 92 -32 118 -32 236 l-1 132 -171 0 -171 0 3 -98 c7 -193 -52 -390 -163 -547 -104 -146 -276 -271 -460 -334 -90 -31 -113 -34 -240 -38 -137 -5 -143 -4 -263 31 -140 40 -241 93 -335 174 -153 133 -229 250 -287 444 -28 92 -32 118 -32 236 l-1 132 -325 0 c-255 0 -323 3 -319 13 22 57 400 994 404 1000 2 4 1839 7 4081 7 l4077 0 317 -508z"/>
</g>
</g>
  <g id="id1:id1" transform="matrix(1.25,0,0,1.25,0.0,0.0)"><g transform="translate(0.000000,1277.000000) scale(0.100000,-0.100000)" fill="#ffffff" stroke="none">
<path d="M3435 10698 c-3 -13 -28 -142 -55 -288 -28 -146 -53 -277 -56 -292 l-6 -28 1531 0 1531 0 0 315 0 315 -1470 0 -1470 0 -5 -22z"/>
<path d="M3246 9683 c-7 -23 -142 -718 -201 -1033 -25 -135 -109 -567 -185 -960 -77 -393 -180 -935 -230 -1205 -83 -452 -188 -995 -326 -1700 -31 -154 -58 -290 -61 -302 l-5 -23 3861 0 3861 0 0 578 0 577 -412 114 c-227 63 -530 147 -672 188 -143 40 -261 72 -262 70 -6 -5 -148 -488 -214 -727 -35 -124 -66 -229 -71 -234 -6 -6 -585 145 -606 158 -1 1 58 222 132 491 74 268 134 489 132 490 -8 5 -1209 345 -1220 345 -8 0 -110 -75 -228 -167 -234 -183 -1184 -892 -1202 -898 -9 -3 -342 428 -379 489 -4 8 256 210 708 551 l714 540 0 638 0 637 -895 0 -895 0 0 320 0 320 895 0 895 0 0 380 0 380 -1564 0 c-1482 0 -1565 -1 -1570 -17z"/>
<path d="M2187 4073 c-4 -6 -382 -943 -404 -1000 -4 -10 64 -13 319 -13 l325 0 1 -132 c0 -118 4 -144 32 -236 58 -194 134 -311 287 -444 94 -81 195 -134 335 -174 120 -35 126 -36 263 -31 127 4 150 7 240 38 390 133 637 482 623 881 l-3 98 171 0 171 0 1 -132 c0 -118 4 -144 32 -236 58 -194 134 -311 287 -444 94 -81 195 -134 335 -174 120 -35 126 -36 263 -31 127 4 150 7 240 38 390 133 637 482 623 881 l-3 98 171 0 171 0 1 -132 c0 -118 4 -144 32 -236 58 -194 132 -309 285 -442 96 -83 196 -136 337 -176 120 -35 126 -36 263 -31 127 4 150 7 240 38 390 133 637 482 623 881 l-3 98 171 0 171 0 1 -132 c0 -118 4 -144 32 -236 58 -194 134 -311 287 -444 94 -81 195 -134 335 -174 120 -35 126 -36 263 -31 127 4 150 7 240 38 390 133 637 482 623 881 l-3 98 207 2 208 3 -318 507 -317 508 -4077 0 c-2242 0 -4079 -3 -4081 -7z"/>
</g>
</g>
</svg>
