<?xml version="1.0" standalone="no"?>
<!DOCTYPE svg PUBLIC "-//W3C//DTD SVG 1.1//EN"
 "http://www.w3.org/Graphics/SVG/1.1/DTD/svg11.dtd">
<!-- Created with svg_stack (http://github.com/astraw/svg_stack) -->
<svg xmlns:sodipodi="http://sodipodi.sourceforge.net/DTD/sodipodi-0.dtd" xmlns="http://www.w3.org/2000/svg" version="1.1" width="406.25" height="1591.25">
  <defs/>
  <g id="id0:id0" transform="matrix(1.25,0,0,1.25,0.0,0.0)"><g transform="translate(0.000000,1273.000000) scale(0.100000,-0.100000)" fill="#000000" stroke="none">
<path d="M1425 12720 c-195 -21 -489 -124 -656 -230 -245 -154 -445 -371 -595 -645 -52 -95 -129 -334 -153 -476 -43 -255 -20 -529 64 -789 59 -181 144 -332 299 -527 87 -110 216 -222 395 -342 148 -100 389 -187 599 -217 129 -19 159 -34 66 -34 -148 0 -503 -121 -675 -230 -205 -129 -382 -310 -535 -545 -72 -111 -87 -144 -143 -308 -119 -349 -121 -701 -6 -1057 85 -265 283 -554 495 -723 169 -135 281 -204 419 -261 145 -60 185 -72 336 -95 l110 -17 0 -1489 0 -1489 -110 -17 c-102 -16 -295 -75 -417 -128 -64 -27 -231 -141 -355 -243 -72 -58 -129 -116 -189 -193 -160 -202 -227 -324 -293 -530 -110 -342 -108 -687 5 -1026 57 -172 105 -266 219 -426 137 -194 300 -347 484 -456 117 -70 319 -150 472 -187 132 -33 138 -33 364 -33 229 0 230 0 370 35 300 75 544 208 752 411 324 316 503 734 503 1177 0 467 -213 932 -564 1229 -96 81 -296 213 -383 252 -95 43 -279 99 -373 115 -47 8 -95 17 -107 19 l-23 5 0 1485 0 1485 23 5 c12 2 51 9 87 15 145 24 221 45 335 95 204 87 442 256 575 406 343 385 488 866 410 1357 -55 347 -211 642 -485 918 -147 149 -285 240 -510 335 -115 49 -353 109 -431 109 -90 0 -61 14 69 34 126 19 319 75 429 125 88 39 287 170 385 252 209 178 406 476 487 739 151 490 79 971 -212 1420 -70 107 -297 338 -402 407 -181 120 -364 201 -565 250 -125 30 -158 34 -315 38 -96 2 -211 0 -255 -5z m490 -373 c199 -42 389 -142 562 -296 128 -114 192 -196 266 -340 127 -246 162 -394 154 -651 -7 -221 -30 -308 -139 -528 -95 -194 -168 -288 -322 -418 -151 -127 -365 -227 -591 -275 -81 -18 -373 -17 -445 0 -229 55 -349 106 -523 224 -89 61 -205 177 -293 294 -101 134 -198 375 -223 557 -14 97 -14 300 -1 386 16 100 78 296 122 384 51 101 164 250 259 342 100 95 270 207 393 258 89 38 245 77 356 90 83 10 318 -5 425 -27z m-45 -3252 c183 -39 378 -122 501 -215 216 -162 345 -333 449 -594 65 -164 75 -222 75 -441 0 -178 -3 -210 -24 -290 -48 -186 -178 -444 -279 -557 -74 -83 -250 -224 -343 -275 -98 -54 -251 -110 -379 -139 -96 -22 -389 -25 -470 -5 -107 26 -265 74 -318 98 -100 44 -284 177 -373 270 -91 94 -202 253 -244 347 -38 87 -92 272 -104 360 -14 97 -14 301 -1 383 17 105 79 301 122 386 51 102 164 251 259 343 81 77 258 200 342 238 93 41 306 99 407 110 71 8 307 -3 380 -19z m0 -6210 c183 -39 378 -122 501 -215 208 -156 326 -309 434 -563 77 -183 90 -249 90 -482 0 -187 -2 -206 -27 -295 -59 -206 -169 -423 -275 -541 -75 -84 -250 -224 -344 -276 -98 -54 -251 -110 -379 -139 -96 -22 -389 -25 -470 -5 -107 25 -265 74 -317 97 -84 38 -261 161 -342 238 -95 91 -208 241 -259 342 -22 43 -59 144 -82 224 -40 138 -42 153 -47 310 -4 126 -1 187 11 257 17 99 64 254 103 343 40 90 152 250 242 343 89 93 273 226 373 270 94 42 306 99 408 111 71 8 307 -3 380 -19z"/>
</g>
</g>
  <g id="id1:id1" transform="matrix(1.25,0,0,1.25,0.0,0.0)"><g transform="translate(0.000000,1273.000000) scale(0.100000,-0.100000)" fill="#ffffff" stroke="none">
</g>
</g>
</svg>
