<?xml version="1.0" standalone="no"?>
<!DOCTYPE svg PUBLIC "-//W3C//DTD SVG 1.1//EN"
 "http://www.w3.org/Graphics/SVG/1.1/DTD/svg11.dtd">
<!-- Created with svg_stack (http://github.com/astraw/svg_stack) -->
<svg xmlns:sodipodi="http://sodipodi.sourceforge.net/DTD/sodipodi-0.dtd" xmlns="http://www.w3.org/2000/svg" version="1.1" width="1843.75" height="1587.5">
  <defs/>
  <g id="id0:id0" transform="matrix(1.25,0,0,1.25,0.0,0.0)"><g transform="translate(0.000000,1270.000000) scale(0.100000,-0.100000)" fill="#999999" stroke="none">
<path d="M5955 12690 c-547 -30 -1301 -192 -1810 -389 -647 -249 -1178 -548 -1720 -965 -512 -396 -1021 -947 -1357 -1471 -417 -652 -632 -1116 -828 -1790 -121 -415 -208 -973 -230 -1474 -28 -630 61 -1396 231 -1980 192 -658 424 -1157 834 -1796 401 -625 1052 -1276 1750 -1750 774 -525 1840 -923 2735 -1021 487 -53 529 -54 5033 -54 l4157 0 0 660 0 660 -2266 2 -2266 3 124 98 c479 382 979 927 1283 1402 509 794 764 1409 944 2280 167 810 167 1680 0 2490 -181 878 -426 1471 -937 2270 -336 524 -845 1075 -1357 1471 -542 417 -1073 716 -1720 965 -412 159 -955 291 -1465 355 -257 32 -298 35 -630 38 -195 3 -422 1 -505 -4z m975 -1354 c265 -29 494 -75 780 -157 420 -120 734 -249 1095 -452 921 -516 1611 -1258 2088 -2246 218 -452 368 -975 443 -1542 25 -191 27 -228 27 -589 0 -360 -2 -398 -27 -589 -52 -393 -161 -848 -280 -1161 -118 -312 -346 -755 -537 -1040 -241 -361 -481 -641 -769 -899 -551 -492 -984 -756 -1660 -1014 -368 -140 -689 -216 -1190 -283 -189 -25 -232 -28 -545 -28 -313 0 -357 2 -555 28 -611 78 -998 186 -1557 435 -673 298 -1380 854 -1835 1443 -328 424 -580 873 -764 1358 -119 312 -228 768 -280 1161 -25 191 -27 229 -27 589 0 361 2 398 27 589 52 394 162 849 280 1161 156 412 289 670 537 1040 381 570 810 1000 1376 1378 463 309 888 505 1433 662 371 106 718 164 1105 184 185 10 617 -5 835 -28z"/>
</g>
</g>
  <g id="id1:id1" transform="matrix(1.25,0,0,1.25,0.0,0.0)"><g transform="translate(0.000000,1270.000000) scale(0.100000,-0.100000)" fill="#ffffff" stroke="none">
</g>
</g>
</svg>
