<?xml version="1.0" standalone="no"?>
<!DOCTYPE svg PUBLIC "-//W3C//DTD SVG 1.1//EN"
 "http://www.w3.org/Graphics/SVG/1.1/DTD/svg11.dtd">
<!-- Created with svg_stack (http://github.com/astraw/svg_stack) -->
<svg xmlns:sodipodi="http://sodipodi.sourceforge.net/DTD/sodipodi-0.dtd" xmlns="http://www.w3.org/2000/svg" version="1.1" width="1967.5" height="1333.75">
  <defs/>
  <g id="id0:id0" transform="matrix(1.25,0,0,1.25,0.0,0.0)"><g transform="translate(0.000000,1067.000000) scale(0.100000,-0.100000)" fill="#999999" stroke="none">
<path d="M7784 10594 c-39 -44 -96 -122 -127 -174 l-56 -95 -470 -5110 c-259 -2811 -474 -5134 -477 -5162 l-6 -53 1277 0 1277 0 -6 53 c-3 28 -213 2349 -466 5156 l-461 5104 -112 151 c-62 84 -119 162 -127 173 -12 18 -29 23 -95 29 l-81 6 -70 -78z"/>
<path d="M27 6512 c-24 -25 -27 -35 -27 -104 0 -111 19 -146 130 -248 50 -46 209 -219 352 -384 244 -282 272 -319 442 -576 345 -522 627 -1089 816 -1640 205 -599 315 -1075 395 -1710 55 -440 75 -763 82 -1342 l6 -508 1229 0 1228 0 0 248 c0 136 -5 366 -11 511 -10 249 -13 280 -60 535 -37 204 -69 340 -129 552 -71 248 -94 313 -200 559 -167 388 -364 737 -645 1140 -173 247 -238 330 -439 560 -197 225 -284 315 -523 539 -424 396 -853 754 -1341 1118 -227 170 -481 354 -564 409 -82 55 -222 152 -311 216 -179 128 -233 153 -337 153 -60 0 -69 -3 -93 -28z"/>
<path d="M15494 6523 c-37 -11 -108 -55 -240 -151 -104 -74 -256 -180 -339 -235 -236 -158 -858 -634 -1225 -938 -198 -164 -455 -389 -627 -551 -258 -240 -320 -305 -524 -543 -331 -386 -589 -749 -808 -1136 -142 -251 -176 -320 -276 -564 -151 -367 -251 -710 -324 -1112 -45 -243 -51 -299 -65 -546 -9 -151 -16 -380 -16 -511 l0 -236 1236 0 1236 0 -7 228 c-12 397 27 1189 81 1617 56 457 120 791 218 1145 179 647 371 1127 666 1670 112 207 194 341 330 540 157 231 213 302 442 568 144 167 305 343 357 391 113 104 130 136 131 244 0 74 -2 80 -29 108 -27 27 -35 29 -98 28 -37 -1 -91 -8 -119 -16z"/>
</g>
</g>
  <g id="id1:id1" transform="matrix(1.25,0,0,1.25,0.0,0.0)"><g transform="translate(0.000000,1067.000000) scale(0.100000,-0.100000)" fill="#ffffff" stroke="none">
</g>
</g>
</svg>
