<?xml version="1.0" standalone="no"?>
<!DOCTYPE svg PUBLIC "-//W3C//DTD SVG 1.1//EN"
 "http://www.w3.org/Graphics/SVG/1.1/DTD/svg11.dtd">
<!-- Created with svg_stack (http://github.com/astraw/svg_stack) -->
<svg xmlns:sodipodi="http://sodipodi.sourceforge.net/DTD/sodipodi-0.dtd" xmlns="http://www.w3.org/2000/svg" version="1.1" width="1390.0" height="1595.0">
  <defs/>
  <g id="id0:id0" transform="matrix(1.25,0,0,1.25,0.0,0.0)"><g transform="translate(0.000000,1276.000000) scale(0.100000,-0.100000)" fill="#000000" stroke="none">
<path d="M5270 12745 c-160 -19 -409 -79 -561 -136 -122 -44 -273 -121 -423 -213 -229 -141 -371 -265 -552 -476 -167 -196 -221 -276 -318 -470 -86 -172 -193 -468 -216 -598 -46 -264 -44 -109 -49 -3041 l-6 -2755 -216 720 -215 719 -819 0 -818 0 -533 -1775 c-293 -976 -535 -1785 -539 -1797 l-5 -23 1575 0 1575 0 0 -263 c0 -466 28 -689 122 -972 107 -324 233 -546 470 -832 200 -241 439 -424 753 -578 282 -138 378 -168 690 -220 295 -49 455 -49 750 0 244 40 337 65 495 129 239 98 368 170 580 323 151 109 246 199 368 346 238 286 362 506 470 832 66 197 93 340 112 574 6 89 10 1047 11 2805 l0 2671 178 -591 c154 -512 203 -672 252 -831 l11 -33 813 0 814 0 11 38 c5 20 248 829 538 1797 l528 1760 -1572 3 -1571 2 -6 353 c-8 478 -24 598 -119 887 -69 208 -188 461 -282 594 -129 185 -336 409 -512 554 -70 57 -374 248 -454 285 -214 97 -534 187 -755 212 -154 18 -428 17 -575 0z m505 -544 c194 -17 495 -110 675 -210 112 -61 340 -240 456 -355 256 -257 439 -635 499 -1031 17 -114 20 -378 5 -475 -22 -140 -53 -270 -65 -270 -7 0 -10 -11 -8 -27 6 -37 -52 -194 -123 -335 -194 -386 -531 -694 -945 -862 -307 -125 -649 -173 -932 -131 -221 33 -519 128 -666 212 -98 56 -280 185 -357 252 -93 81 -231 237 -302 344 -120 177 -227 438 -278 678 -32 152 -44 422 -24 576 14 115 66 324 109 441 46 123 152 324 228 432 92 130 251 286 418 411 166 124 229 160 395 227 284 113 569 152 915 123z m4595 -2918 c-7 -20 -621 -2071 -736 -2455 -5 -17 -33 -18 -409 -18 -376 0 -404 1 -409 18 -115 384 -729 2435 -736 2455 l-9 27 1154 0 1154 0 -9 -27z m-6434 -719 c208 -182 502 -360 789 -474 315 -126 741 -178 1117 -136 315 36 704 172 973 341 234 147 391 276 521 428 l84 98 0 -2436 0 -2436 -74 83 c-247 277 -573 501 -911 629 -157 58 -436 127 -590 144 -250 28 -558 15 -775 -34 -258 -59 -382 -101 -586 -201 -264 -130 -516 -320 -710 -537 l-74 -84 0 2436 0 2436 84 -98 c46 -54 115 -125 152 -159z m-1265 -3844 c202 -674 370 -1235 374 -1247 l5 -23 -1155 0 c-635 0 -1155 2 -1155 3 0 4 738 2467 745 2485 3 10 91 12 411 10 l408 -3 367 -1225z m3171 -465 c238 -41 482 -128 666 -238 129 -77 367 -271 450 -368 136 -159 272 -389 344 -583 42 -115 94 -324 108 -439 19 -153 8 -424 -24 -574 -134 -631 -538 -1122 -1117 -1357 -307 -125 -649 -173 -932 -131 -221 33 -519 128 -666 212 -95 55 -279 184 -355 250 -282 243 -496 621 -582 1026 -32 148 -44 429 -25 573 18 135 52 274 67 274 9 0 12 9 8 28 -8 38 50 192 130 349 66 127 141 241 246 369 89 109 340 308 511 407 129 74 400 165 599 202 107 19 462 19 572 0z"/>
</g>
</g>
  <g id="id1:id1" transform="matrix(1.25,0,0,1.25,0.0,0.0)"><g transform="translate(0.000000,1276.000000) scale(0.100000,-0.100000)" fill="#ffffff" stroke="none">
</g>
</g>
</svg>
