<?xml version="1.0" standalone="no"?>
<!DOCTYPE svg PUBLIC "-//W3C//DTD SVG 1.1//EN"
 "http://www.w3.org/Graphics/SVG/1.1/DTD/svg11.dtd">
<!-- Created with svg_stack (http://github.com/astraw/svg_stack) -->
<svg xmlns:sodipodi="http://sodipodi.sourceforge.net/DTD/sodipodi-0.dtd" xmlns="http://www.w3.org/2000/svg" version="1.1" width="1590.0" height="1591.25">
  <defs/>
  <g id="id0:id0" transform="matrix(1.25,0,0,1.25,0.0,0.0)"><g transform="translate(0.000000,1273.000000) scale(0.100000,-0.100000)" fill="#000000" stroke="none">
<path d="M0 6365 l0 -6365 6360 0 6360 0 0 6365 0 6365 -6360 0 -6360 0 0 -6365z m3112 5470 c-136 -76 -526 -346 -697 -482 -407 -326 -752 -674 -1048 -1058 -161 -209 -415 -574 -460 -660 -14 -27 -31 -57 -36 -65 -7 -10 -11 349 -11 1143 l0 1157 1158 0 1157 0 -63 -35z m8748 -1122 c0 -794 -4 -1153 -11 -1143 -5 8 -22 38 -36 65 -45 86 -300 451 -460 660 -272 352 -678 761 -1058 1065 -192 154 -508 374 -665 462 l-85 48 1158 0 1157 0 0 -1157z m-5930 -1818 l0 -2955 2961 0 2961 0 -5 -32 c-4 -18 -18 -116 -32 -218 -82 -604 -225 -1098 -472 -1640 -282 -619 -764 -1279 -1255 -1722 -575 -517 -1154 -872 -1826 -1119 -424 -156 -814 -247 -1297 -305 -213 -26 -257 -28 -605 -28 -347 0 -392 2 -605 28 -763 91 -1435 306 -2084 666 -462 255 -1002 684 -1352 1072 -511 567 -849 1120 -1111 1816 -148 395 -234 748 -309 1263 -31 214 -31 215 -31 649 0 434 0 435 31 649 75 515 161 868 309 1263 257 684 608 1258 1110 1815 353 392 890 818 1358 1076 620 343 1298 565 1989 652 99 12 199 23 223 24 l42 1 0 -2955z m1115 2930 c705 -86 1401 -314 2005 -658 767 -437 1397 -1020 1879 -1742 394 -589 694 -1312 821 -1981 31 -164 100 -608 100 -647 0 -4 -1138 -7 -2530 -7 l-2530 0 0 2530 0 2530 28 0 c15 0 117 -11 227 -25z m-6138 -8720 c45 -86 300 -452 461 -660 403 -523 904 -987 1472 -1365 133 -88 264 -172 291 -185 27 -14 49 -28 49 -30 0 -3 -522 -5 -1160 -5 l-1160 0 0 1163 c0 796 4 1157 11 1147 5 -8 22 -37 36 -65z m10950 -2242 c-2 -2 -525 -2 -1163 -1 l-1159 3 80 44 c148 82 489 317 680 471 379 303 785 713 1057 1065 169 218 415 572 469 675 l34 64 3 -1159 c1 -637 1 -1160 -1 -1162z"/>
</g>
</g>
  <g id="id1:id1" transform="matrix(1.25,0,0,1.25,0.0,0.0)"><g transform="translate(0.000000,1273.000000) scale(0.100000,-0.100000)" fill="#ffffff" stroke="none">
</g>
</g>
</svg>
