<?xml version="1.0" standalone="no"?>
<!DOCTYPE svg PUBLIC "-//W3C//DTD SVG 1.1//EN"
 "http://www.w3.org/Graphics/SVG/1.1/DTD/svg11.dtd">
<!-- Created with svg_stack (http://github.com/astraw/svg_stack) -->
<svg xmlns:sodipodi="http://sodipodi.sourceforge.net/DTD/sodipodi-0.dtd" xmlns="http://www.w3.org/2000/svg" version="1.1" width="1596.25" height="1596.25">
  <defs/>
  <g id="id0:id0" transform="matrix(1.25,0,0,1.25,0.0,0.0)"><g transform="translate(0.000000,1277.000000) scale(0.100000,-0.100000)" fill="#000000" stroke="none">
<path d="M5995 12760 c-558 -31 -1307 -190 -1820 -388 -680 -263 -1188 -547 -1735 -971 -523 -406 -1024 -950 -1362 -1476 -399 -623 -642 -1152 -828 -1805 -327 -1150 -327 -2341 1 -3467 198 -682 451 -1231 835 -1813 465 -706 1016 -1260 1759 -1764 785 -534 1826 -915 2835 -1037 262 -32 270 -33 710 -33 440 0 448 1 710 33 1009 122 2050 503 2835 1037 451 306 791 598 1135 974 362 396 627 760 885 1215 399 704 693 1609 769 2365 54 545 54 973 0 1513 -60 597 -275 1358 -546 1932 -214 454 -520 951 -774 1260 -484 588 -895 969 -1469 1360 -363 247 -823 481 -1330 677 -416 160 -958 291 -1470 354 -260 32 -305 34 -635 38 -195 2 -422 1 -505 -4z m1065 -640 c1370 -158 2656 -813 3568 -1819 324 -357 551 -669 795 -1092 286 -496 528 -1151 627 -1693 127 -697 147 -1222 69 -1809 -71 -542 -136 -812 -318 -1328 -280 -795 -858 -1657 -1500 -2237 -331 -300 -771 -621 -1091 -797 -691 -381 -1414 -613 -2185 -701 -222 -26 -269 -28 -635 -27 -364 0 -414 2 -635 27 -1087 124 -2097 538 -2930 1204 -324 258 -511 431 -684 627 -677 772 -1019 1386 -1306 2346 -162 538 -243 1216 -215 1788 25 519 89 918 217 1351 230 781 545 1399 1011 1985 336 422 580 669 962 975 431 346 981 654 1570 881 474 183 1120 319 1660 350 74 4 277 5 450 3 265 -3 355 -9 570 -34z"/>
<path d="M6515 11258 c-19 -51 -1802 -5544 -1800 -5546 1 -1 638 385 1415 858 777 473 1414 859 1415 858 6 -7 -1194 -3673 -1201 -3672 -5 1 -206 65 -447 144 -241 78 -440 140 -442 138 -2 -1 34 -174 80 -383 46 -209 160 -751 254 -1205 95 -454 175 -833 179 -843 6 -14 180 138 927 809 506 454 926 831 932 838 10 9 -84 43 -430 155 -243 79 -447 146 -453 150 -7 4 281 902 841 2621 469 1438 851 2616 850 2618 -1 1 -640 -385 -1420 -858 -780 -473 -1419 -859 -1420 -858 -1 2 292 905 651 2007 360 1103 653 2006 651 2007 -4 3 -562 174 -570 174 -4 0 -10 -6 -12 -12z"/>
</g>
</g>
  <g id="id1:id1" transform="matrix(1.25,0,0,1.25,0.0,0.0)"><g transform="translate(0.000000,1277.000000) scale(0.100000,-0.100000)" fill="#ffffff" stroke="none">
<path d="M6040 12151 c-540 -31 -1186 -167 -1660 -350 -589 -227 -1139 -535 -1570 -881 -382 -306 -626 -553 -962 -975 -466 -586 -781 -1204 -1011 -1985 -128 -433 -192 -832 -217 -1351 -20 -407 21 -931 105 -1351 79 -389 263 -954 424 -1298 261 -557 527 -954 992 -1485 337 -383 943 -862 1434 -1133 697 -384 1403 -610 2180 -698 221 -25 271 -27 635 -27 366 -1 413 1 635 27 771 88 1494 320 2185 701 320 176 760 497 1091 797 304 274 651 679 877 1023 372 564 566 983 767 1656 105 350 194 905 215 1340 27 544 -61 1273 -216 1799 -189 637 -393 1077 -760 1635 -312 476 -778 982 -1224 1331 -714 557 -1545 942 -2425 1120 -346 71 -660 103 -1045 108 -173 2 -376 1 -450 -3z m775 -967 c154 -48 281 -87 282 -88 2 -1 -291 -904 -651 -2007 -359 -1102 -652 -2005 -651 -2007 1 -1 640 385 1420 858 780 473 1419 859 1420 858 1 -2 -381 -1180 -850 -2618 -560 -1719 -848 -2617 -841 -2621 6 -4 210 -71 453 -150 346 -112 440 -146 430 -155 -6 -7 -426 -384 -932 -838 -747 -671 -921 -823 -927 -809 -4 10 -84 389 -179 843 -94 454 -208 996 -254 1205 -46 209 -82 382 -80 383 2 2 201 -60 442 -138 241 -79 442 -143 447 -144 7 -1 1207 3665 1201 3672 -1 1 -638 -385 -1415 -858 -777 -473 -1414 -859 -1415 -858 -2 2 1781 5495 1800 5546 2 6 8 12 12 12 4 0 134 -39 288 -86z"/>
</g>
</g>
</svg>
