<?xml version="1.0" standalone="no"?>
<!DOCTYPE svg PUBLIC "-//W3C//DTD SVG 1.1//EN"
 "http://www.w3.org/Graphics/SVG/1.1/DTD/svg11.dtd">
<!-- Created with svg_stack (http://github.com/astraw/svg_stack) -->
<svg xmlns:sodipodi="http://sodipodi.sourceforge.net/DTD/sodipodi-0.dtd" xmlns="http://www.w3.org/2000/svg" version="1.1" width="1991.25" height="1037.5">
  <defs/>
  <g id="id0:id0" transform="matrix(1.25,0,0,1.25,0.0,0.0)"><g transform="translate(0.000000,830.000000) scale(0.100000,-0.100000)" fill="#000000" stroke="none">
<path d="M0 4150 l0 -4150 7965 0 7965 0 0 4150 0 4150 -7965 0 -7965 0 0 -4150z m11038 1929 l-3078 -1539 -3078 1539 -3077 1540 6155 0 6155 0 -3077 -1540z m-3856 -1917 c4 -4 -1457 -740 -3247 -1635 l-3255 -1627 0 3254 0 3255 3248 -1620 c1786 -891 3250 -1623 3254 -1627z m8058 -7 c0 -1785 -3 -3245 -7 -3244 -5 0 -1468 731 -3253 1624 l-3245 1623 3245 1621 c1785 891 3248 1620 3253 1621 4 0 7 -1460 7 -3245z m-4189 -1924 l3084 -1540 -6175 0 -6175 -1 3080 1539 c1694 847 3085 1540 3091 1540 6 1 1399 -692 3095 -1538z"/>
</g>
</g>
  <g id="id1:id1" transform="matrix(1.25,0,0,1.25,0.0,0.0)"><g transform="translate(0.000000,830.000000) scale(0.100000,-0.100000)" fill="#ffffff" stroke="none">
</g>
</g>
</svg>
