<?xml version="1.0" standalone="no"?>
<!DOCTYPE svg PUBLIC "-//W3C//DTD SVG 1.1//EN"
 "http://www.w3.org/Graphics/SVG/1.1/DTD/svg11.dtd">
<!-- Created with svg_stack (http://github.com/astraw/svg_stack) -->
<svg xmlns:sodipodi="http://sodipodi.sourceforge.net/DTD/sodipodi-0.dtd" xmlns="http://www.w3.org/2000/svg" version="1.1" width="1638.75" height="1587.5">
  <defs/>
  <g id="id0:id0" transform="matrix(1.25,0,0,1.25,0.0,0.0)"><g transform="translate(0.000000,1270.000000) scale(0.100000,-0.100000)" fill="#181512" stroke="none">
<path d="M6010 6900 l0 -5800 -574 0 -574 0 -31 133 c-17 72 -472 2025 -1009 4339 -538 2314 -981 4211 -985 4214 -5 5 -1051 -232 -1064 -241 -2 -1 441 -1897 982 -4213 542 -2317 985 -4217 985 -4222 0 -7 -193 -9 -546 -8 l-545 3 -834 1660 c-459 913 -836 1665 -839 1670 -2 6 -222 -100 -489 -235 l-485 -245 714 -1427 714 -1428 -470 0 -470 0 0 -550 0 -550 6070 0 6070 0 0 550 0 550 -470 0 c-258 0 -470 2 -470 5 0 3 320 645 711 1426 390 782 709 1422 707 1424 -9 7 -957 485 -962 485 -3 0 -382 -752 -841 -1670 l-835 -1670 -550 0 c-350 0 -550 4 -550 10 0 5 443 1905 985 4222 541 2316 984 4212 982 4213 -13 9 -1059 246 -1064 241 -4 -3 -447 -1900 -985 -4214 -537 -2314 -992 -4267 -1009 -4340 l-31 -132 -574 0 -574 0 0 5800 0 5800 -545 0 -545 0 0 -5800z"/>
</g>
</g>
  <g id="id1:id1" transform="matrix(1.25,0,0,1.25,0.0,0.0)"><g transform="translate(0.000000,1270.000000) scale(0.100000,-0.100000)" fill="#ffffff" stroke="none">
</g>
</g>
</svg>
