<?xml version="1.0" standalone="no"?>
<!DOCTYPE svg PUBLIC "-//W3C//DTD SVG 1.1//EN"
 "http://www.w3.org/Graphics/SVG/1.1/DTD/svg11.dtd">
<!-- Created with svg_stack (http://github.com/astraw/svg_stack) -->
<svg xmlns:sodipodi="http://sodipodi.sourceforge.net/DTD/sodipodi-0.dtd" xmlns="http://www.w3.org/2000/svg" version="1.1" width="723.75" height="1593.75">
  <defs/>
  <g id="id0:id0" transform="matrix(1.25,0,0,1.25,0.0,0.0)"><g transform="translate(0.000000,1275.000000) scale(0.100000,-0.100000)" fill="#181512" stroke="none">
<path d="M1442 11303 l-1443 -1448 1336 -1330 1336 -1330 -1 -1447 0 -1448 -22 -4 c-13 -2 -75 -12 -138 -21 -244 -37 -601 -183 -830 -339 -207 -141 -458 -396 -582 -591 -208 -327 -316 -654 -349 -1054 -20 -241 15 -526 97 -788 47 -153 160 -394 250 -535 158 -246 484 -547 749 -692 476 -260 956 -334 1496 -231 152 28 472 149 611 230 353 206 691 551 848 865 120 242 209 520 239 749 14 109 14 424 0 532 -14 110 -90 413 -128 510 -205 529 -629 972 -1139 1191 -170 72 -361 133 -487 152 -60 10 -120 20 -132 22 l-23 4 0 1448 0 1447 1329 1329 1330 1330 -1441 1448 c-792 796 -1446 1448 -1452 1448 -6 0 -660 -651 -1454 -1447z m2581 -331 l1117 -1117 -1120 -1120 -1120 -1120 -1120 1120 -1120 1120 1117 1117 c615 615 1120 1118 1123 1118 3 0 508 -503 1123 -1118z m-885 -7143 c182 -27 380 -87 515 -156 102 -52 295 -181 361 -242 72 -66 253 -273 294 -336 139 -215 228 -456 272 -735 13 -85 13 -330 0 -406 -78 -443 -213 -711 -519 -1027 -98 -103 -349 -266 -505 -329 -168 -68 -259 -93 -418 -117 -182 -28 -311 -27 -500 4 -172 27 -224 42 -388 110 -296 122 -524 302 -716 565 -144 197 -228 385 -298 665 -27 108 -38 313 -26 469 12 153 22 199 80 382 135 425 445 790 841 989 313 157 668 215 1007 164z"/>
<path d="M2118 10953 c-423 -423 -842 -843 -929 -934 l-159 -167 936 -928 935 -928 929 929 929 929 -926 933 c-509 513 -930 933 -935 933 -5 0 -356 -345 -780 -767z m1390 -491 l601 -608 -604 -604 -604 -604 -611 604 -611 604 608 608 c334 334 611 608 614 608 4 0 277 -274 607 -608z"/>
</g>
</g>
  <g id="id1:id1" transform="matrix(1.25,0,0,1.25,0.0,0.0)"><g transform="translate(0.000000,1275.000000) scale(0.100000,-0.100000)" fill="#ffffff" stroke="none">
</g>
</g>
</svg>
