<?xml version="1.0" encoding="UTF-8" standalone="no"?>
<svg
   xmlns:dc="http://purl.org/dc/elements/1.1/"
   xmlns:cc="http://creativecommons.org/ns#"
   xmlns:rdf="http://www.w3.org/1999/02/22-rdf-syntax-ns#"
   xmlns:svg="http://www.w3.org/2000/svg"
   xmlns="http://www.w3.org/2000/svg"
   xmlns:sodipodi="http://sodipodi.sourceforge.net/DTD/sodipodi-0.dtd"
   xmlns:inkscape="http://www.inkscape.org/namespaces/inkscape"
   viewBox="0 0 248.8125 350.09375"
   version="1.1"
   xml:space="preserve"
   id="svg2"
   inkscape:version="0.48.3.1 r9886"
   width="100%"
   height="100%"
   sodipodi:docname="alkis3609.svg"
   style="fill-rule:evenodd;stroke-linecap:round;stroke-linejoin:round"><metadata
   id="metadata27"><rdf:RDF><cc:Work
       rdf:about=""><dc:format>image/svg+xml</dc:format><dc:type
         rdf:resource="http://purl.org/dc/dcmitype/StillImage" /></cc:Work></rdf:RDF></metadata><sodipodi:namedview
   pagecolor="#ffffff"
   bordercolor="#666666"
   borderopacity="1"
   objecttolerance="10"
   gridtolerance="10"
   guidetolerance="10"
   inkscape:pageopacity="0"
   inkscape:pageshadow="2"
   inkscape:window-width="640"
   inkscape:window-height="480"
   id="namedview25"
   showgrid="false"
   inkscape:zoom="0.39333333"
   inkscape:cx="124.03125"
   inkscape:cy="174.25"
   inkscape:window-x="0"
   inkscape:window-y="33"
   inkscape:window-maximized="0"
   inkscape:current-layer="svg2" />
<defs
   id="defs4">
<clipPath
   id="clipId0">
<path
   d="M 0,600 800,600 800,0 0,0 z"
   id="path7"
   inkscape:connector-curvature="0" />
</clipPath>
</defs>
<g
   clip-path="url(#clipId0)"
   id="g9"
   style="fill:none;stroke:#000000;stroke-width:0.1"
   transform="translate(-275.96875,-124.15625)" />
<g
   clip-path="url(#clipId0)"
   id="g11"
   style="fill:#00ff00;stroke:none"
   transform="translate(-275.96875,-124.15625)">
<path
   d="m 374.4375,124.15625 0,130.84375 13.9375,0 0,218.09375 15.71875,0 0,-218.09375 13.9375,0 0,-130.84375 -43.59375,0 z m 86.21875,109.625 -28.59375,238.375 15.59375,1.875 23.71875,-197.8125 40.5625,57.46875 12.84375,-9.0625 -64.125,-90.84375 z M 331.5,279.4375 275.96875,350.3125 288.3125,360 321.375,317.8125 344.84375,474.25 360.375,471.9375 331.5,279.4375 z"
   id="path13"
   inkscape:connector-curvature="0" />





</g>
</svg>