<?xml version="1.0" encoding="UTF-8" standalone="no"?>
<svg
   xmlns:dc="http://purl.org/dc/elements/1.1/"
   xmlns:cc="http://creativecommons.org/ns#"
   xmlns:rdf="http://www.w3.org/1999/02/22-rdf-syntax-ns#"
   xmlns:svg="http://www.w3.org/2000/svg"
   xmlns="http://www.w3.org/2000/svg"
   xmlns:sodipodi="http://sodipodi.sourceforge.net/DTD/sodipodi-0.dtd"
   xmlns:inkscape="http://www.inkscape.org/namespaces/inkscape"
   viewBox="0 0 368.71875 368.6875"
   version="1.1"
   xml:space="preserve"
   id="svg156922"
   inkscape:version="0.48.3.1 r9886"
   width="100%"
   height="100%"
   sodipodi:docname="alkis3342.svg"
   style="fill-rule:evenodd;stroke-linecap:round;stroke-linejoin:round"><metadata
   id="metadata158173"><rdf:RDF><cc:Work
       rdf:about=""><dc:format>image/svg+xml</dc:format><dc:type
         rdf:resource="http://purl.org/dc/dcmitype/StillImage" /></cc:Work></rdf:RDF></metadata><sodipodi:namedview
   pagecolor="#ffffff"
   bordercolor="#666666"
   borderopacity="1"
   objecttolerance="10"
   gridtolerance="10"
   guidetolerance="10"
   inkscape:pageopacity="0"
   inkscape:pageshadow="2"
   inkscape:window-width="1855"
   inkscape:window-height="1025"
   id="namedview158171"
   showgrid="false"
   inkscape:zoom="1.5733334"
   inkscape:cx="-14.629954"
   inkscape:cy="184"
   inkscape:window-x="0"
   inkscape:window-y="33"
   inkscape:window-maximized="1"
   inkscape:current-layer="svg156922" />
<defs
   id="defs156924">
<clipPath
   id="clipId0">
<path
   d="M 0,600 800,600 800,0 0,0 z"
   id="path156927"
   inkscape:connector-curvature="0" />
</clipPath>









































































































































































































































































































































































































































































































































































































































</defs>
<g
   clip-path="url(#clipId0)"
   id="g156929"
   style="fill:none;stroke:#000000;stroke-width:0.1"
   transform="translate(-147.875,-115.3125)" />
<g
   clip-path="url(#clipId0)"
   id="g156931"
   style="fill:#ffffff;stroke:none"
   transform="translate(-147.875,-115.3125)">
<path
   d="m 147.875,115.3125 0,368.6875 368.71875,0 0,-368.6875 -368.71875,0 z"
   id="path156933"
   inkscape:connector-curvature="0" />

</g>

<path
   style="fill:#000000;fill-rule:nonzero;stroke:#000000;stroke-opacity:1"
   d="m 177.71875,36.84375 c -0.0865,4.54894 0.17087,9.4417 -0.125,13.78125 -6.62145,0.24541 -13.32254,0.0298 -19.53125,2.71835 -4.26397,1.57412 -9.53811,1.56827 -11.82481,6.13006 -3.94455,3.9403 -6.65004,8.60384 -8.12155,13.98069 -3.26787,5.86793 -1.30968,12.63072 -0.99876,18.95634 1.6637,5.69712 2.60188,11.74917 6.93099,16.16156 4.18918,7.10246 11.11741,11.83228 17.26413,17.08385 5.46996,3.05796 10.98529,6.0389 16.40625,9.18735 -0.0837,14.83862 0.16712,29.88396 -0.125,44.59375 -8.91537,3.70579 -16.52205,9.94383 -23.59375,16.4062 -2.90402,5.29715 -7.59332,9.96629 -7.23094,16.41002 -0.74593,4.16187 -1.36422,8.30771 0.95893,12.11004 2.01843,7.41015 6.5123,13.67396 11.26597,19.5567 4.74252,5.42999 10.40987,9.72723 16.56854,13.42324 4.15388,1.72514 1.33762,7.14538 2.15625,10.63564 -0.0837,11.73089 0.16711,23.66849 -0.125,35.27056 -5.71451,2.90302 -10.71096,7.19947 -13.06022,13.30623 -2.5338,4.82759 -2.51454,10.84276 -0.0563,15.71405 1.2067,6.4777 2.51573,1.41767 3.80284,-2.24802 2.50753,-5.95359 2.90455,-14.02126 9.43869,-17.11601 0,6.30208 0,12.60417 0,18.90625 4.42708,0 8.85417,0 13.28125,0 0,-8.71875 0,-17.4375 0,-26.15625 4.51823,-2.30412 9.11588,-4.47757 11.95799,-8.90139 4.40971,-4.54416 4.60669,-11.52788 7.13576,-17.16111 0.0646,-8.26094 -2.83558,-16.15462 -7.68845,-22.79357 -2.31572,-5.13515 -8.57468,-7.33514 -11.4053,-11.67371 0,-16.50049 0,-33.00098 0,-49.50147 7.22526,-3.54324 14.56652,-7.38346 20.85725,-12.2974 3.56992,-4.26849 7.49028,-8.34912 8.33565,-14.08057 2.67035,-6.16054 2.37346,-13.05173 1.81058,-19.52742 -3.28207,-6.66155 -5.5801,-13.99228 -11.42006,-18.94725 -4.93052,-5.53242 -11.66379,-9.16744 -17.84087,-13.15418 -3.62659,-1.93646 -0.8942,-7.74689 -1.74255,-11.37588 0,-12.13283 0,-24.26567 0,-36.3985 6.03933,0.0414 12.18189,-0.0841 18.1562,0.0625 9.92007,15.26595 33.25737,17.19809 47.34375,6.7499 8.98685,-5.97999 11.91472,-19.53303 4.5625,-27.9375 -12.40523,-14.93902 -39.01895,-14.72123 -50.90625,0.7499 -2.38023,1.94664 -6.69991,0.26549 -9.8125,0.84375 -3.11458,0 -6.22917,0 -9.34375,0 0,-4.48958 0,-8.97917 0,-13.46875 -4.42678,5.4e-4 -8.85584,-0.001 -13.2812,8e-4 z m 0,34.15625 c -0.0839,12.8484 0.16737,26.23897 -0.125,38.75 -5.09067,-2.29915 -8.38168,-7.21082 -12.21875,-11.0625 -2.25119,-4.46903 -5.05995,-8.76916 -4.35678,-14.01068 0.0749,-3.4992 0.91238,-8.50615 4.12465,-10.22063 C 168.9907,71.94085 173.34871,71.86962 177.71875,71 z M 191,142.5 c 4.58717,1.68789 6.47677,6.71998 8.38731,10.71717 0.16885,4.23355 0.72788,8.56468 -2.23628,12.03198 -0.60769,2.35531 -5.25118,8.4861 -6.15103,5.59754 0,-9.4489 0,-18.89779 0,-28.34669 z m -13.28125,59.78125 c -0.0841,11.05062 0.16767,22.77272 -0.125,33.4063 -3.76909,-6.04987 -9.4154,-12.06087 -8.15625,-19.70553 -0.67427,-3.86793 0.46784,-7.1116 3.25,-9.82572 1.13096,-2.11927 2.91323,-2.93265 5.03125,-3.87505 z M 191,270.09375 c 3.44132,4.6382 6.71138,10.28882 4.46875,16.1875 -0.49739,2.86315 -1.62122,9.07189 -4.46875,8.00147 0,-8.06299 0,-16.12598 0,-24.18897 z"
   id="path158169"
   inkscape:connector-curvature="0" /></svg>