<?xml version="1.0" standalone="no"?>
<!DOCTYPE svg PUBLIC "-//W3C//DTD SVG 1.1//EN"
 "http://www.w3.org/Graphics/SVG/1.1/DTD/svg11.dtd">
<!-- Created with svg_stack (http://github.com/astraw/svg_stack) -->
<svg xmlns:sodipodi="http://sodipodi.sourceforge.net/DTD/sodipodi-0.dtd" xmlns="http://www.w3.org/2000/svg" version="1.1" width="1972.5" height="1067.5">
  <defs/>
  <g id="id0:id0" transform="matrix(1.25,0,0,1.25,0.0,0.0)"><g transform="translate(0.000000,854.000000) scale(0.100000,-0.100000)" fill="#000000" stroke="none">
<path d="M0 4270 l0 -4270 7890 0 7890 0 0 4270 0 4270 -7890 0 -7890 0 0 -4270z m3620 5 l0 -2965 -1155 0 -1155 0 0 2965 0 2965 1155 0 1155 0 0 -2965z m3620 0 l0 -2965 -1160 0 -1160 0 0 2965 0 2965 1160 0 1160 0 0 -2965z m3620 0 l0 -2965 -1160 0 -1160 0 0 2965 0 2965 1160 0 1160 0 0 -2965z m3620 0 l0 -2965 -1160 0 -1160 0 0 2965 0 2965 1160 0 1160 0 0 -2965z"/>
</g>
</g>
  <g id="id1:id1" transform="matrix(1.25,0,0,1.25,0.0,0.0)"><g transform="translate(0.000000,854.000000) scale(0.100000,-0.100000)" fill="#ffffff" stroke="none">
</g>
</g>
</svg>
