<?xml version="1.0" standalone="no"?>
<!DOCTYPE svg PUBLIC "-//W3C//DTD SVG 1.1//EN"
 "http://www.w3.org/Graphics/SVG/1.1/DTD/svg11.dtd">
<!-- Created with svg_stack (http://github.com/astraw/svg_stack) -->
<svg xmlns:sodipodi="http://sodipodi.sourceforge.net/DTD/sodipodi-0.dtd" xmlns="http://www.w3.org/2000/svg" version="1.1" width="1361.25" height="1593.75">
  <defs/>
  <g id="id0:id0" transform="matrix(1.25,0,0,1.25,0.0,0.0)"><g transform="translate(0.000000,1275.000000) scale(0.100000,-0.100000)" fill="#00ff00" stroke="none">
<path d="M3155 12730 c-239 -28 -595 -114 -820 -199 -331 -124 -714 -341 -965 -546 -477 -389 -745 -725 -1023 -1281 -140 -280 -285 -779 -323 -1109 -24 -207 -24 -643 0 -850 38 -331 183 -829 323 -1109 278 -556 546 -892 1023 -1281 323 -264 833 -526 1223 -630 129 -34 445 -105 468 -105 18 0 19 -78 19 -2810 l0 -2810 535 0 535 0 0 2813 0 2813 68 13 c161 32 468 115 595 162 339 125 732 345 987 554 475 387 744 723 1019 1273 125 249 196 464 285 858 43 191 59 380 59 684 0 305 -16 491 -59 683 -89 395 -160 610 -285 859 -276 550 -544 886 -1019 1273 -251 205 -634 422 -965 546 -235 89 -579 171 -830 199 -224 26 -632 25 -850 0z m790 -1070 c384 -65 702 -182 974 -360 373 -244 579 -448 791 -785 150 -239 245 -461 310 -730 48 -196 56 -248 71 -445 31 -426 -58 -888 -246 -1275 -131 -270 -371 -594 -559 -753 -431 -364 -792 -535 -1341 -633 -172 -31 -466 -37 -624 -14 -465 69 -794 189 -1120 407 -458 308 -783 715 -971 1213 -118 312 -175 717 -151 1055 15 197 23 249 71 445 163 673 587 1223 1225 1592 188 109 458 204 740 262 179 36 207 39 460 40 208 1 270 -2 370 -19z"/>
<path d="M7451 6118 c-618 -1668 -1126 -3039 -1128 -3045 -4 -10 189 -13 946 -13 l951 0 0 -1530 0 -1530 385 0 385 0 0 1530 0 1530 951 0 c902 0 951 1 944 18 -3 9 -522 1379 -1153 3045 -630 1665 -1149 3027 -1152 3027 -3 0 -511 -1365 -1129 -3032z"/>
</g>
</g>
  <g id="id1:id1" transform="matrix(1.25,0,0,1.25,0.0,0.0)"><g transform="translate(0.000000,1275.000000) scale(0.100000,-0.100000)" fill="#ffffff" stroke="none">
</g>
</g>
</svg>
