<?xml version="1.0" standalone="no"?>
<!DOCTYPE svg PUBLIC "-//W3C//DTD SVG 1.1//EN"
 "http://www.w3.org/Graphics/SVG/1.1/DTD/svg11.dtd">
<!-- Created with svg_stack (http://github.com/astraw/svg_stack) -->
<svg xmlns:sodipodi="http://sodipodi.sourceforge.net/DTD/sodipodi-0.dtd" xmlns="http://www.w3.org/2000/svg" version="1.1" width="1595.0" height="1595.0">
  <defs/>
  <g id="id0:id0" transform="matrix(1.25,0,0,1.25,0.0,0.0)"><g transform="translate(0.000000,1276.000000) scale(0.100000,-0.100000)" fill="#000000" stroke="none">
<path d="M5985 12750 c-1050 -58 -2282 -474 -3150 -1065 -574 -391 -985 -772 -1469 -1360 -254 -309 -560 -806 -774 -1260 -271 -574 -486 -1335 -546 -1932 -54 -540 -54 -968 0 -1513 75 -754 385 -1705 768 -2360 215 -367 388 -625 553 -826 360 -438 718 -797 1065 -1066 705 -547 1370 -886 2218 -1133 299 -86 604 -145 1020 -196 263 -32 269 -33 710 -33 441 0 447 1 705 33 597 74 1004 169 1510 355 908 332 1809 938 2471 1663 693 758 1149 1576 1443 2586 138 475 220 974 241 1483 64 1480 -444 3045 -1363 4202 -529 666 -1189 1230 -1886 1611 -772 423 -1560 678 -2411 781 -230 28 -290 31 -605 35 -192 2 -417 0 -500 -5z m1050 -540 c1019 -136 1820 -431 2610 -960 778 -522 1357 -1149 1850 -2005 211 -365 416 -864 525 -1274 172 -650 247 -1266 220 -1825 -28 -596 -166 -1279 -365 -1808 -392 -1045 -994 -1870 -1881 -2581 -451 -361 -978 -654 -1589 -882 -464 -173 -890 -275 -1380 -331 -222 -25 -270 -27 -640 -28 -370 0 -419 2 -650 28 -917 100 -1882 452 -2615 951 -659 450 -1169 960 -1627 1630 -208 305 -471 820 -618 1213 -258 685 -390 1529 -355 2266 39 839 220 1589 543 2257 217 449 376 708 699 1138 249 332 644 729 983 986 418 319 816 563 1182 728 547 247 1095 401 1733 489 294 40 428 47 820 42 293 -3 348 -7 555 -34z"/>
<path d="M2930 6370 l0 -3830 775 0 775 0 0 1600 0 1600 292 0 c477 0 686 -30 905 -131 208 -96 320 -200 568 -529 105 -140 225 -304 265 -365 40 -60 99 -144 130 -185 32 -42 90 -127 130 -190 40 -63 328 -494 639 -958 l565 -842 924 0 924 0 -19 33 c-11 17 -256 410 -545 872 -677 1082 -833 1318 -1107 1671 -179 231 -511 521 -808 707 l-163 102 77 11 c148 22 550 134 699 195 163 66 360 181 500 293 226 180 381 366 508 609 120 228 154 330 195 592 61 384 51 668 -34 1020 -52 215 -82 293 -182 483 -155 296 -354 514 -643 707 -190 127 -325 182 -590 240 -319 69 -476 89 -860 110 -211 12 -636 15 -2092 15 l-1828 0 0 -3830z m3408 2530 c453 -9 466 -10 558 -35 210 -57 305 -105 436 -218 153 -132 239 -320 268 -585 9 -85 8 -126 -5 -239 -9 -74 -28 -171 -41 -215 -90 -301 -345 -516 -684 -578 -247 -45 -870 -70 -1727 -70 l-663 0 0 975 0 975 698 0 c383 0 905 -5 1160 -10z"/>
</g>
</g>
  <g id="id1:id1" transform="matrix(1.25,0,0,1.25,0.0,0.0)"><g transform="translate(0.000000,1276.000000) scale(0.100000,-0.100000)" fill="#ffffff" stroke="none">
<path d="M6020 12240 c-318 -18 -837 -108 -1235 -215 -399 -106 -902 -312 -1254 -512 -221 -126 -537 -338 -786 -528 -339 -257 -734 -654 -983 -986 -323 -430 -482 -689 -699 -1138 -323 -668 -504 -1418 -543 -2257 -35 -737 97 -1581 355 -2266 147 -393 410 -908 618 -1213 458 -670 968 -1180 1627 -1630 733 -499 1698 -851 2615 -951 231 -26 280 -28 650 -28 370 1 418 3 640 28 132 15 346 48 475 72 707 135 1529 473 2135 877 612 409 1228 1026 1619 1622 518 788 822 1616 945 2568 96 742 40 1462 -179 2288 -109 410 -314 909 -525 1274 -493 856 -1072 1483 -1850 2005 -790 529 -1591 824 -2610 960 -207 27 -262 31 -555 34 -179 3 -386 1 -460 -4z m830 -2055 c384 -21 541 -41 860 -110 265 -58 400 -113 590 -240 289 -193 488 -411 643 -707 100 -190 130 -268 182 -483 85 -352 95 -636 34 -1020 -41 -262 -75 -364 -195 -592 -127 -243 -282 -429 -508 -609 -140 -112 -337 -227 -500 -293 -149 -61 -551 -173 -699 -195 l-77 -11 163 -102 c297 -186 629 -476 808 -707 274 -353 430 -589 1107 -1671 289 -462 534 -855 545 -872 l19 -33 -924 0 -924 0 -565 842 c-311 464 -599 895 -639 958 -40 63 -98 148 -130 190 -31 41 -90 125 -130 185 -40 61 -160 225 -265 365 -248 329 -360 433 -568 529 -219 101 -428 131 -905 131 l-292 0 0 -1600 0 -1600 -775 0 -775 0 0 3830 0 3830 1828 0 c1456 0 1881 -3 2092 -15z"/>
<path d="M4480 7935 l0 -975 663 0 c857 0 1480 25 1727 70 339 62 594 277 684 578 13 44 32 141 41 215 13 113 14 154 5 239 -29 265 -115 453 -268 585 -131 113 -226 161 -436 218 -92 25 -105 26 -558 35 -255 5 -777 10 -1160 10 l-698 0 0 -975z"/>
</g>
</g>
</svg>
