<?xml version="1.0" encoding="UTF-8" standalone="no"?>
<svg
   xmlns:dc="http://purl.org/dc/elements/1.1/"
   xmlns:cc="http://creativecommons.org/ns#"
   xmlns:rdf="http://www.w3.org/1999/02/22-rdf-syntax-ns#"
   xmlns:svg="http://www.w3.org/2000/svg"
   xmlns="http://www.w3.org/2000/svg"
   xmlns:sodipodi="http://sodipodi.sourceforge.net/DTD/sodipodi-0.dtd"
   xmlns:inkscape="http://www.inkscape.org/namespaces/inkscape"
   viewBox="0 0 367.9375 367.9375"
   version="1.1"
   xml:space="preserve"
   id="svg80315"
   inkscape:version="0.48.3.1 r9886"
   width="100%"
   height="100%"
   sodipodi:docname="alkis3306.svg"
   style="fill-rule:evenodd;stroke-linecap:round;stroke-linejoin:round"><metadata
   id="metadata80674"><rdf:RDF><cc:Work
       rdf:about=""><dc:format>image/svg+xml</dc:format><dc:type
         rdf:resource="http://purl.org/dc/dcmitype/StillImage" /></cc:Work></rdf:RDF></metadata><sodipodi:namedview
   pagecolor="#ffffff"
   bordercolor="#666666"
   borderopacity="1"
   objecttolerance="10"
   gridtolerance="10"
   guidetolerance="10"
   inkscape:pageopacity="0"
   inkscape:pageshadow="2"
   inkscape:window-width="1855"
   inkscape:window-height="1025"
   id="namedview80672"
   showgrid="false"
   inkscape:zoom="1.5733333"
   inkscape:cx="213.87077"
   inkscape:cy="181.94968"
   inkscape:window-x="0"
   inkscape:window-y="33"
   inkscape:window-maximized="1"
   inkscape:current-layer="svg80315" />
<defs
   id="defs80317">
<clipPath
   id="clipId0">
<path
   d="M 0,600 800,600 800,0 0,0 z"
   id="path80320"
   inkscape:connector-curvature="0" />
</clipPath>











































































































































































</defs>
<g
   clip-path="url(#clipId0)"
   id="g80322"
   style="fill:none;stroke:#000000;stroke-width:0.1"
   transform="translate(-187.40042,-114.01218)" />
<path
   style="fill:#ffffff;stroke:none"
   d="m 0,0 0,367.9375 367.9375,0 L 367.9375,0 0,0 z"
   id="path80326"
   inkscape:connector-curvature="0" />
<path
   style="fill:#000000;stroke:none"
   d="m 67.59958,44.36282 -4.15625,0.15625 -4.125,0.5 -4.09375,0.8125 -4,1.125 -3.90625,1.4375 -3.78125,1.75 -3.625,2.03125 -3.46875,2.3125 -3.25,2.5625 -3.0625,2.8125 -2.8125,3.0625 -2.59375,3.28125 -2.3125,3.4375 -2.03125,3.65625 -1.71875,3.75 -1.4375,3.90625 -1.15625,4.03125 -0.8125,4.0625 -0.46875,4.125 -0.15625,4.15625 0.15625,4.15625 0.46875,4.15625 0.8125,4.0625 1.15625,4 1.4375,3.90625 1.71875,3.78125 2.03125,3.625 2.3125,3.46875 2.59375,3.25 2.8125,3.0625 3.0625,2.8125 3.25,2.59375 3.46875,2.3125 3.625,2.03125 3.78125,1.75 3.90625,1.4375 4,1.125 4.09375,0.8125 4.125,0.46875 4.15625,0.1875 4.15625,-0.1875 4.125,-0.46875 4.09375,-0.8125 4,-1.125 3.90625,-1.4375 3.78125,-1.75 3.625,-2.03125 3.4375,-2.3125 3.28125,-2.59375 3.0625,-2.8125 2.8125,-3.0625 2.40625,-3 2.375,3 2.84375,3.0625 3.03125,2.8125 3.28125,2.59375 3.46875,2.3125 3.625,2.03125 3.78125,1.75 3.875,1.4375 4.03125,1.125 4.0625,0.8125 4.125,0.46875 4.15625,0.1875 4.15625,-0.1875 4.15625,-0.46875 4.0625,-0.8125 4,-1.125 3.90625,-1.4375 3.78125,-1.75 3.625,-2.03125 3.46875,-2.3125 3.25,-2.59375 3.0625,-2.8125 2.84375,-3.0625 2.5625,-3.25 2.3125,-3.46875 2.03125,-3.625 1.75,-3.78125 1.4375,-3.90625 1.125,-4 0.8125,-4.0625 0.5,-4.15625 0.15625,-4.15625 -0.15625,-4.15625 -0.5,-4.125 -0.8125,-4.0625 -1.125,-4.03125 -1.4375,-3.90625 -1.75,-3.75 -2.03125,-3.65625 -2.3125,-3.4375 -2.5625,-3.28125 -2.84375,-3.0625 -3.0625,-2.8125 -3.25,-2.5625 -3.46875,-2.3125 -3.625,-2.03125 -3.78125,-1.75 -3.90625,-1.4375 -4,-1.125 -4.0625,-0.8125 -4.15625,-0.5 -4.15625,-0.15625 -4.15625,0.15625 -4.125,0.5 -4.0625,0.8125 -4.03125,1.125 -3.875,1.4375 -3.78125,1.75 -3.625,2.03125 -3.46875,2.3125 -3.28125,2.5625 -3.03125,2.8125 -2.84375,3.0625 -2.375,3.03125 -2.40625,-3.03125 -2.8125,-3.0625 -3.0625,-2.8125 -3.28125,-2.5625 -3.4375,-2.3125 -3.625,-2.03125 -3.78125,-1.75 -3.90625,-1.4375 -4,-1.125 -4.09375,-0.8125 -4.125,-0.5 -4.15625,-0.15625 z"
   id="path80332"
   inkscape:connector-curvature="0" /><g
   clip-path="url(#clipId0)"
   id="g80648"
   style="fill:#ffffb2;stroke:none"
   transform="translate(-187.40042,-114.01218)">
<path
   d="m 541.25,204 -136.875,97.875 0,41.9375 136.875,95.65625 0,-235.46875 z"
   id="path80652"
   inkscape:connector-curvature="0" />

</g><path
   style="fill:#000000;stroke:none"
   d="m 349.97458,84.58157 -129.3125,92.5 0,-1.75 -14.71875,0 -14.71875,10.3125 -16.1875,0 0,-22.0625 -147.1875,0 0,88.28125 147.1875,0 0,-22.0625 16.1875,0 14.71875,11.75 14.71875,0 0,-1.125 129.375,90.46875 7.59375,-10.875 -136.875,-95.65625 -0.0937,0.125 0,-31.46875 0.15625,0.21875 136.875,-97.875 -7.71875,-10.78125 z"
   id="path80644"
   inkscape:connector-curvature="0" />


</svg>