<?xml version="1.0" standalone="no"?>
<!DOCTYPE svg PUBLIC "-//W3C//DTD SVG 1.1//EN"
 "http://www.w3.org/Graphics/SVG/1.1/DTD/svg11.dtd">
<!-- Created with svg_stack (http://github.com/astraw/svg_stack) -->
<svg xmlns:sodipodi="http://sodipodi.sourceforge.net/DTD/sodipodi-0.dtd" xmlns="http://www.w3.org/2000/svg" version="1.1" width="1597.5" height="1596.25">
  <defs/>
  <g id="id0:id0" transform="matrix(1.25,0,0,1.25,0.0,0.0)"><g transform="translate(0.000000,1277.000000) scale(0.100000,-0.100000)" fill="#000000" stroke="none">
<path d="M6000 12760 c-398 -21 -955 -114 -1347 -226 -680 -194 -1222 -446 -1823 -847 -955 -638 -1736 -1549 -2238 -2612 -200 -424 -382 -986 -466 -1440 -161 -870 -161 -1630 0 -2500 84 -454 266 -1017 466 -1440 503 -1063 1283 -1974 2238 -2612 601 -401 1143 -653 1823 -847 307 -87 617 -147 1027 -197 263 -32 269 -33 710 -33 441 0 447 1 710 33 416 51 721 110 1020 196 849 247 1513 586 2219 1134 1051 815 1815 1959 2191 3281 374 1314 321 2640 -159 3960 -158 435 -412 936 -672 1325 -371 556 -843 1065 -1359 1466 -706 548 -1371 887 -2220 1134 -299 86 -616 147 -1020 195 -228 28 -291 31 -605 35 -192 2 -415 0 -495 -5z m1040 -839 c434 -53 947 -176 1285 -310 478 -188 813 -359 1157 -589 600 -402 1174 -978 1544 -1552 274 -424 431 -733 584 -1148 151 -408 236 -759 311 -1284 l32 -223 0 -430 0 -430 -32 -223 c-74 -520 -156 -857 -310 -1287 -283 -789 -828 -1603 -1443 -2157 -578 -520 -1080 -828 -1843 -1129 -336 -133 -846 -256 -1290 -311 -242 -30 -263 -31 -645 -31 -382 0 -403 1 -645 31 -446 55 -970 181 -1300 311 -744 294 -1208 578 -1838 1129 -251 220 -580 605 -859 1007 -286 413 -595 1087 -724 1583 -85 328 -140 606 -168 848 -87 747 -40 1356 164 2149 93 359 286 830 501 1223 259 473 694 1026 1088 1380 583 527 1088 838 1833 1132 419 165 1097 309 1598 340 74 5 275 7 445 4 264 -3 347 -8 555 -33z"/>
<path d="M4073 7558 c4 -1589 12 -2216 31 -2246 3 -5 10 -57 16 -118 15 -146 65 -432 91 -518 50 -163 146 -345 273 -511 141 -186 377 -383 569 -474 236 -112 252 -118 452 -167 294 -73 737 -113 1090 -100 186 7 540 51 690 86 339 79 753 311 941 527 181 208 273 377 347 640 65 229 66 236 107 643 21 217 30 924 30 2423 l0 1587 -589 0 -590 0 -4 -1952 c-4 -1936 -7 -2061 -38 -2203 -20 -91 -61 -219 -86 -270 -56 -111 -205 -266 -321 -334 -296 -172 -838 -189 -1231 -37 -115 44 -192 97 -296 201 -191 191 -259 355 -289 702 -14 157 -16 431 -16 2037 l0 1856 -590 0 -591 0 4 -1772z"/>
</g>
</g>
  <g id="id1:id1" transform="matrix(1.25,0,0,1.25,0.0,0.0)"><g transform="translate(0.000000,1277.000000) scale(0.100000,-0.100000)" fill="#ffffff" stroke="none">
<path d="M6040 11950 c-501 -31 -1179 -175 -1598 -340 -452 -178 -853 -384 -1152 -591 -631 -435 -1114 -920 -1534 -1539 -225 -331 -408 -690 -592 -1160 -134 -342 -261 -866 -308 -1275 -87 -743 -38 -1372 168 -2167 129 -496 438 -1170 724 -1583 279 -402 608 -787 859 -1007 630 -551 1094 -835 1838 -1129 330 -130 854 -256 1300 -311 242 -30 263 -31 645 -31 382 0 403 1 645 31 444 55 954 178 1290 311 763 301 1265 609 1843 1129 615 554 1160 1368 1443 2157 154 430 236 767 310 1287 l32 223 0 430 0 430 -32 223 c-75 525 -160 876 -311 1284 -153 415 -310 724 -584 1148 -452 700 -1174 1370 -1924 1785 -359 198 -854 403 -1186 491 -559 147 -930 201 -1431 208 -170 3 -371 1 -445 -4z m-790 -4476 c0 -1606 2 -1880 16 -2037 30 -347 98 -511 289 -702 104 -104 181 -157 296 -201 292 -113 657 -135 979 -60 212 50 349 137 494 316 30 36 65 88 79 115 25 51 66 179 86 270 31 142 34 267 38 2203 l4 1952 590 0 589 0 0 -1587 c0 -1499 -9 -2206 -30 -2423 -41 -407 -42 -414 -107 -643 -74 -263 -166 -432 -347 -640 -188 -216 -602 -448 -941 -527 -150 -35 -504 -79 -690 -86 -509 -19 -1108 66 -1395 198 -237 109 -294 143 -440 262 -256 207 -462 505 -549 792 -26 86 -76 372 -91 518 -6 61 -13 113 -16 118 -19 30 -27 657 -31 2246 l-4 1772 591 0 590 0 0 -1856z"/>
</g>
</g>
</svg>
