<?xml version="1.0" standalone="no"?>
<!DOCTYPE svg PUBLIC "-//W3C//DTD SVG 1.1//EN"
 "http://www.w3.org/Graphics/SVG/1.1/DTD/svg11.dtd">
<!-- Created with svg_stack (http://github.com/astraw/svg_stack) -->
<svg xmlns:sodipodi="http://sodipodi.sourceforge.net/DTD/sodipodi-0.dtd" xmlns="http://www.w3.org/2000/svg" version="1.1" width="1596.25" height="1596.25">
  <defs/>
  <g id="id0:id0" transform="matrix(1.25,0,0,1.25,0.0,0.0)"><g transform="translate(0.000000,1277.000000) scale(0.100000,-0.100000)" fill="#000000" stroke="none">
<path d="M5995 12760 c-558 -31 -1307 -190 -1820 -388 -680 -263 -1188 -547 -1735 -971 -523 -406 -1024 -950 -1362 -1476 -399 -623 -642 -1152 -828 -1805 -327 -1150 -327 -2341 1 -3467 198 -682 451 -1231 835 -1813 465 -706 1016 -1260 1759 -1764 785 -534 1826 -915 2835 -1037 262 -32 270 -33 710 -33 440 0 448 1 710 33 1009 122 2050 503 2835 1037 451 306 791 598 1135 974 362 396 627 760 885 1215 399 704 693 1609 769 2365 54 545 54 973 0 1513 -60 597 -275 1358 -546 1932 -214 454 -520 951 -774 1260 -484 588 -895 969 -1469 1360 -363 247 -823 481 -1330 677 -416 160 -958 291 -1470 354 -260 32 -305 34 -635 38 -195 2 -422 1 -505 -4z m1065 -640 c1370 -158 2656 -813 3568 -1819 324 -357 551 -669 795 -1092 286 -496 528 -1151 627 -1693 127 -697 147 -1222 69 -1809 -71 -542 -136 -812 -318 -1328 -280 -795 -858 -1657 -1500 -2237 -331 -300 -771 -621 -1091 -797 -691 -381 -1414 -613 -2185 -701 -222 -26 -269 -28 -635 -27 -364 0 -414 2 -635 27 -1087 124 -2097 538 -2930 1204 -324 258 -511 431 -684 627 -677 772 -1019 1386 -1306 2346 -162 538 -243 1216 -215 1788 25 519 89 918 217 1351 230 781 545 1399 1011 1985 336 422 580 669 962 975 431 346 981 654 1570 881 474 183 1120 319 1660 350 74 4 277 5 450 3 265 -3 355 -9 570 -34z"/>
<path d="M2393 7188 l-213 -372 28 -17 c15 -9 352 -204 749 -433 l722 -416 2971 0 2971 0 489 282 489 282 -37 67 c-140 250 -388 678 -393 679 -4 0 -180 -99 -392 -220 l-384 -220 -2742 0 -2742 0 -645 370 c-355 204 -649 370 -652 370 -4 -1 -103 -168 -219 -372z"/>
<path d="M4403 5590 c-122 -25 -305 -131 -410 -239 -66 -68 -140 -190 -175 -291 -44 -126 -41 -368 6 -489 63 -158 148 -278 256 -360 78 -59 232 -141 266 -141 12 0 41 -7 64 -15 28 -10 81 -15 155 -15 74 0 127 5 155 15 23 8 53 15 66 15 33 0 187 81 264 139 156 117 273 331 290 529 22 250 -48 455 -210 620 -111 112 -279 207 -411 232 -61 12 -256 11 -316 0z"/>
<path d="M8680 5594 c-61 -12 -162 -51 -240 -93 -164 -89 -309 -271 -370 -466 -43 -140 -37 -333 15 -466 58 -147 163 -297 258 -368 74 -55 203 -119 262 -130 28 -5 63 -14 78 -20 42 -16 231 -14 294 4 29 8 77 22 106 30 73 20 210 104 275 168 196 191 276 449 227 728 -45 259 -245 483 -519 582 -73 27 -95 30 -221 33 -77 1 -151 0 -165 -2z"/>
</g>
</g>
  <g id="id1:id1" transform="matrix(1.25,0,0,1.25,0.0,0.0)"><g transform="translate(0.000000,1277.000000) scale(0.100000,-0.100000)" fill="#ffffff" stroke="none">
<path d="M6040 12151 c-540 -31 -1186 -167 -1660 -350 -589 -227 -1139 -535 -1570 -881 -382 -306 -626 -553 -962 -975 -466 -586 -781 -1204 -1011 -1985 -128 -433 -192 -832 -217 -1351 -20 -407 21 -931 105 -1351 79 -389 263 -954 424 -1298 261 -557 527 -954 992 -1485 337 -383 943 -862 1434 -1133 697 -384 1403 -610 2180 -698 221 -25 271 -27 635 -27 366 -1 413 1 635 27 771 88 1494 320 2185 701 320 176 760 497 1091 797 304 274 651 679 877 1023 372 564 566 983 767 1656 105 350 194 905 215 1340 27 544 -61 1273 -216 1799 -189 637 -393 1077 -760 1635 -312 476 -778 982 -1224 1331 -714 557 -1545 942 -2425 1120 -346 71 -660 103 -1045 108 -173 2 -376 1 -450 -3z m-2776 -4961 l645 -370 2742 0 2742 0 384 220 c212 121 388 220 392 220 5 -1 253 -429 393 -679 l37 -67 -489 -282 -489 -282 -2971 0 -2971 0 -722 416 c-397 229 -734 424 -749 433 l-28 17 213 372 c116 204 215 371 219 372 3 0 297 -166 652 -370z m1455 -1600 c132 -25 300 -120 411 -232 162 -165 232 -370 210 -620 -17 -198 -134 -412 -290 -529 -77 -58 -231 -139 -264 -139 -13 0 -43 -7 -66 -15 -28 -10 -81 -15 -155 -15 -74 0 -127 5 -155 15 -23 8 -52 15 -64 15 -34 0 -188 82 -266 141 -108 82 -193 202 -256 360 -47 121 -50 363 -6 489 35 101 109 223 175 291 105 108 288 214 410 239 60 11 255 12 316 0z m4347 -27 c274 -99 474 -323 519 -582 49 -279 -31 -537 -227 -728 -65 -64 -202 -148 -275 -168 -29 -8 -77 -22 -106 -30 -63 -18 -252 -20 -294 -4 -15 6 -50 15 -78 20 -59 11 -188 75 -262 130 -134 100 -265 324 -294 505 -59 367 177 744 541 862 93 30 100 31 255 28 126 -3 148 -6 221 -33z"/>
</g>
</g>
</svg>
