<?xml version="1.0" standalone="no"?>
<!DOCTYPE svg PUBLIC "-//W3C//DTD SVG 1.1//EN"
 "http://www.w3.org/Graphics/SVG/1.1/DTD/svg11.dtd">
<!-- Created with svg_stack (http://github.com/astraw/svg_stack) -->
<svg xmlns:sodipodi="http://sodipodi.sourceforge.net/DTD/sodipodi-0.dtd" xmlns="http://www.w3.org/2000/svg" version="1.1" width="1703.75" height="1582.5">
  <defs/>
  <g id="id0:id0" transform="matrix(1.25,0,0,1.25,0.0,0.0)"><g transform="translate(0.000000,1266.000000) scale(0.100000,-0.100000)" fill="#000000" stroke="none">
<path d="M3865 12638 c-2 -13 -437 -2631 -966 -5818 -528 -3187 -963 -5807 -966 -5822 l-5 -28 -964 0 -964 0 0 -485 0 -485 1374 0 1374 0 6 27 c3 16 64 380 136 810 l130 781 2972 4958 c1635 2727 2974 4951 2976 4943 6 -33 1912 -11513 1912 -11516 0 -2 619 -3 1375 -3 l1375 0 0 485 0 485 -959 0 -959 0 -6 28 c-3 15 -440 2635 -971 5822 -531 3187 -967 5805 -970 5818 l-5 22 -2945 0 -2945 0 -5 -22z"/>
</g>
</g>
  <g id="id1:id1" transform="matrix(1.25,0,0,1.25,0.0,0.0)"><g transform="translate(0.000000,1266.000000) scale(0.100000,-0.100000)" fill="#ffffff" stroke="none">
</g>
</g>
</svg>
