<?xml version="1.0" standalone="no"?>
<!DOCTYPE svg PUBLIC "-//W3C//DTD SVG 1.1//EN"
 "http://www.w3.org/Graphics/SVG/1.1/DTD/svg11.dtd">
<!-- Created with svg_stack (http://github.com/astraw/svg_stack) -->
<svg xmlns:sodipodi="http://sodipodi.sourceforge.net/DTD/sodipodi-0.dtd" xmlns="http://www.w3.org/2000/svg" version="1.1" width="548.75" height="1592.5">
  <defs/>
  <g id="id0:id0" transform="matrix(1.25,0,0,1.25,0.0,0.0)"><g transform="translate(0.000000,1274.000000) scale(0.100000,-0.100000)" fill="#000000" stroke="none">
<path d="M2126 12617 c-39 -67 -73 -124 -76 -127 -4 -3 -466 -801 -1028 -1775 l-1022 -1770 1015 -3 1015 -2 0 -2874 c0 -2729 -1 -2875 -17 -2880 -10 -2 -52 -10 -93 -16 -102 -15 -303 -82 -426 -140 -153 -74 -275 -160 -394 -279 -233 -234 -377 -482 -449 -776 -93 -375 -48 -741 136 -1110 51 -101 79 -142 204 -300 154 -194 344 -331 619 -448 161 -68 407 -117 586 -117 185 0 432 49 594 117 328 139 517 294 742 608 67 93 184 348 207 450 58 261 66 470 26 708 -32 184 -48 233 -134 412 -156 323 -418 587 -726 735 -122 58 -323 125 -425 140 -41 6 -83 14 -92 16 -17 5 -18 151 -18 2880 l0 2874 1010 2 1010 3 -1092 1897 c-601 1044 -1095 1897 -1098 1897 -3 0 -36 -55 -74 -122z m876 -1945 l798 -1387 -800 -3 c-440 -1 -1160 -1 -1600 0 l-800 3 798 1387 c438 763 799 1387 802 1387 3 0 364 -624 802 -1387z m-542 -7851 c230 -48 429 -152 593 -310 210 -203 335 -432 382 -700 18 -98 19 -287 4 -397 -13 -95 -76 -298 -117 -380 -70 -139 -286 -385 -414 -471 -133 -91 -319 -167 -493 -205 -80 -17 -363 -16 -435 1 -344 81 -575 225 -769 480 -49 65 -106 147 -126 183 -44 81 -110 288 -124 392 -15 110 -14 299 4 397 18 105 70 261 120 359 55 110 201 296 295 376 299 257 692 357 1080 275z"/>
</g>
</g>
  <g id="id1:id1" transform="matrix(1.25,0,0,1.25,0.0,0.0)"><g transform="translate(0.000000,1274.000000) scale(0.100000,-0.100000)" fill="#ffffff" stroke="none">
</g>
</g>
</svg>
