<?xml version="1.0" standalone="no"?>
<!DOCTYPE svg PUBLIC "-//W3C//DTD SVG 1.1//EN"
 "http://www.w3.org/Graphics/SVG/1.1/DTD/svg11.dtd">
<!-- Created with svg_stack (http://github.com/astraw/svg_stack) -->
<svg xmlns:sodipodi="http://sodipodi.sourceforge.net/DTD/sodipodi-0.dtd" xmlns="http://www.w3.org/2000/svg" version="1.1" width="546.25" height="1595.0">
  <defs/>
  <g id="id0:id0" transform="matrix(1.25,0,0,1.25,0.0,0.0)"><g transform="translate(0.000000,1276.000000) scale(0.100000,-0.100000)" fill="#000000" stroke="none">
<path d="M3 12747 c2 -7 457 -795 1011 -1750 l1006 -1738 0 -3034 c0 -2881 -1 -3034 -17 -3039 -10 -2 -52 -10 -93 -16 -102 -15 -303 -82 -425 -140 -255 -122 -432 -278 -627 -555 -82 -116 -175 -330 -217 -500 -112 -454 -14 -941 265 -1315 98 -131 265 -299 366 -368 253 -173 627 -292 914 -292 285 0 665 117 901 278 137 94 298 257 420 427 80 111 196 357 222 470 30 132 51 313 51 432 0 143 -34 375 -70 484 -30 91 -143 322 -186 383 -198 276 -377 435 -629 556 -121 58 -323 125 -425 140 -41 6 -83 14 -93 16 -16 5 -17 158 -17 3040 l0 3034 1001 1737 c551 955 1003 1743 1006 1750 4 11 -373 13 -2182 13 -1774 0 -2186 -2 -2182 -13z m3775 -338 c-7 -21 -1583 -2758 -1588 -2758 -5 0 -1581 2737 -1588 2758 -3 8 420 11 1588 11 1168 0 1591 -3 1588 -11z m-1284 -9588 c98 -27 307 -121 387 -173 139 -89 357 -335 433 -487 39 -76 101 -277 116 -371 13 -85 13 -279 -1 -376 -14 -105 -79 -308 -125 -391 -106 -193 -290 -388 -464 -489 -164 -96 -331 -163 -410 -164 -19 -1 -62 -7 -95 -15 -105 -25 -240 -17 -450 27 -63 13 -255 96 -346 149 -175 102 -371 315 -468 507 -51 102 -106 273 -120 376 -14 97 -14 291 -1 376 17 104 79 299 121 378 87 164 252 351 414 472 65 49 306 155 420 185 84 23 105 24 300 21 181 -2 221 -6 289 -25z"/>
</g>
</g>
  <g id="id1:id1" transform="matrix(1.25,0,0,1.25,0.0,0.0)"><g transform="translate(0.000000,1276.000000) scale(0.100000,-0.100000)" fill="#ffffff" stroke="none">
</g>
</g>
</svg>
