<?xml version="1.0" standalone="no"?>
<!DOCTYPE svg PUBLIC "-//W3C//DTD SVG 1.1//EN"
 "http://www.w3.org/Graphics/SVG/1.1/DTD/svg11.dtd">
<!-- Created with svg_stack (http://github.com/astraw/svg_stack) -->
<svg xmlns:sodipodi="http://sodipodi.sourceforge.net/DTD/sodipodi-0.dtd" xmlns="http://www.w3.org/2000/svg" version="1.1" width="1567.5" height="1567.5">
  <defs/>
  <g id="id0:id0" transform="matrix(1.25,0,0,1.25,0.0,0.0)"><g transform="translate(0.000000,1254.000000) scale(0.100000,-0.100000)" fill="#00cccc" stroke="none">
<path d="M5880 12530 c-763 -41 -1541 -237 -2240 -562 -753 -351 -1434 -849 -1979 -1447 -475 -521 -784 -980 -1078 -1603 -266 -564 -458 -1238 -544 -1908 l-33 -255 0 -485 1 -485 32 -255 c87 -673 290 -1380 553 -1920 310 -635 625 -1104 1072 -1593 338 -371 677 -661 1131 -969 388 -263 798 -470 1305 -658 506 -187 883 -277 1475 -351 257 -32 265 -32 695 -33 431 0 438 1 695 33 569 71 987 170 1477 352 660 244 1178 534 1708 954 775 614 1341 1328 1798 2265 263 540 466 1247 553 1920 l32 255 1 485 0 485 -33 255 c-61 479 -194 1027 -350 1445 -223 600 -591 1255 -955 1700 -445 544 -893 957 -1441 1330 -532 361 -1170 657 -1770 821 -603 164 -1001 221 -1605 228 -190 2 -415 1 -500 -4z"/>
</g>
</g>
  <g id="id1:id1" transform="matrix(1.25,0,0,1.25,0.0,0.0)"><g transform="translate(0.000000,1254.000000) scale(0.100000,-0.100000)" fill="#ffffff" stroke="none">
</g>
</g>
</svg>
