<?xml version="1.0" encoding="UTF-8" standalone="no"?>
<!-- Created with Inkscape (http://www.inkscape.org/) -->

<svg
   xmlns:dc="http://purl.org/dc/elements/1.1/"
   xmlns:cc="http://creativecommons.org/ns#"
   xmlns:rdf="http://www.w3.org/1999/02/22-rdf-syntax-ns#"
   xmlns:svg="http://www.w3.org/2000/svg"
   xmlns="http://www.w3.org/2000/svg"
   xmlns:inkscape="http://www.inkscape.org/namespaces/inkscape"
   version="1.1"
   width="100%"
   height="100%"
   viewBox="0 0 350.10724 350.35353"
   id="svg15917"
   xml:space="preserve"
   style="fill-rule:evenodd;stroke-linecap:round;stroke-linejoin:round"><metadata
     id="metadata16432"><rdf:RDF><cc:Work
         rdf:about=""><dc:format>image/svg+xml</dc:format><dc:type
           rdf:resource="http://purl.org/dc/dcmitype/StillImage" /></cc:Work></rdf:RDF></metadata><defs
     id="defs15919"><clipPath
       id="clipId0"><path
         d="M 0,600 800,600 800,0 0,0 z"
         inkscape:connector-curvature="0"
         id="path15922" /></clipPath></defs><g
     transform="translate(-224.86709,-125.12364)"
     clip-path="url(#clipId0)"
     id="g15924"
     style="fill:none;stroke:#000000;stroke-width:0.1" /><g
     transform="translate(-224.86709,-125.12364)"
     clip-path="url(#clipId0)"
     id="g15926"
     style="fill:#00ffff;stroke:none"><path
       d="m 399.90625,125.125 c -58.15977,-0.23665 -115.37618,30.52347 -146.68018,79.63052 -33.54409,50.35306 -37.6514,118.38885 -10.60793,172.49179 25.83373,53.95696 81.09817,92.2207 140.70949,97.36008 59.50549,6.17997 121.02012,-20.95858 156.54655,-69.10543 36.33676,-47.51472 45.35731,-114.12971 22.85265,-169.573 -21.50274,-55.81723 -73.60638,-98.2585 -132.60565,-108.08857 -9.96539,-1.83508 -20.09474,-2.49088 -30.21493,-2.71539 z"
       inkscape:connector-curvature="0"
       id="path16082" /></g><g
     transform="translate(-224.86709,-125.12364)"
     clip-path="url(#clipId0)"
     id="g16084"
     style="fill:#ffffff;stroke:none"><path
       d="m 372.1875,211.53125 c -7.39583,7.84375 -14.79167,15.6875 -22.1875,23.53125 5.39959,2.90723 -0.46946,8.10325 -0.70843,12.65036 -4.58678,14.6478 -9.17355,29.29559 -13.76032,43.94339 -16.15477,-2.44425 -34.0074,2.38503 -45.01443,14.97925 -19.65237,18.86549 -17.98112,53.90268 2.60946,71.46818 19.28714,18.38674 53.09101,16.75529 70.52997,-3.38493 18.10687,-18.8523 17.18594,-51.81944 -2.014,-69.58957 -2.79427,-6.13475 -16.61234,-6.37785 -12.8075,-13.79931 2.32086,-1.93867 7.2906,-0.27574 10.62974,-0.82987 29.40767,0 58.81534,0 88.22301,0 5.08108,6.70645 -2.42504,8.489 -7.07424,12.36688 -20.57844,16.69783 -23.49433,50.18752 -5.98104,70.11874 15.67037,19.67532 46.54268,23.88032 66.95446,9.20261 22.11994,-14.43164 28.41956,-47.21293 13.32577,-68.85864 -11.07361,-17.24492 -33.31729,-26.06176 -53.1937,-21.14209 -3.375,-9.09375 -6.75,-18.1875 -10.125,-27.28125 5.44803,1.75287 4.50357,-2.88675 4.375,-6.71048 -0.4176,-3.38226 0.82919,-8.42889 -0.61004,-10.78952 -9.60916,0 -19.21831,0 -28.82746,0 0,5.83333 0,11.66667 0,17.5 4.09375,0 8.1875,0 12.28125,0 1.38542,4.32292 2.77083,8.64583 4.15625,12.96875 -29.96875,0 -59.9375,0 -89.90625,0 3.36458,-10.73958 6.72917,-21.47917 10.09375,-32.21875 5.79167,4.66667 11.58333,9.33333 17.375,14 2.63542,-3.27083 5.27083,-6.54167 7.90625,-9.8125 -6.63542,-5.34375 -13.27083,-10.6875 -19.90625,-16.03125 4.28125,-4.54167 8.5625,-9.08333 12.84375,-13.625 -3.0625,-2.88542 -6.125,-5.77083 -9.1875,-8.65625 z m -45.5,91.9375 c 7.83847,-1.91446 3.2067,4.96449 2.29126,9.07456 -2.77417,8.83973 -5.54834,17.67946 -8.32251,26.51919 4.01042,1.26042 8.02083,2.52083 12.03125,3.78125 3.67708,-11.73958 7.35417,-23.47917 11.03125,-35.21875 18.97927,8.90667 26.24855,34.77208 15.20365,52.44926 -10.46571,18.85158 -38.09068,24.36413 -54.87549,10.74317 -16.84283,-12.09197 -19.81362,-38.40601 -6.06821,-53.93192 6.94963,-8.44551 17.79567,-13.40266 28.7088,-13.41676 z m 146.4375,0 c 20.86919,-0.53854 39.40429,19.01948 37.38267,39.88015 -0.66465,21.58977 -22.84143,38.86772 -43.93281,34.48201 -21.35281,-3.14836 -36.26125,-27.1015 -29.32045,-47.62262 2.67168,-9.05946 8.87262,-17.03121 17.12059,-21.67704 4.28125,11.54167 8.5625,23.08333 12.84375,34.625 3.9375,-1.46875 7.875,-2.9375 11.8125,-4.40625 -4.28125,-11.53125 -8.5625,-23.0625 -12.84375,-34.59375 2.28558,-0.43601 4.61011,-0.67592 6.9375,-0.6875 z"
       inkscape:connector-curvature="0"
       id="path16244" /></g><g
     transform="translate(-224.86709,-125.12364)"
     clip-path="url(#clipId0)"
     id="g16246"
     style="fill:none;stroke:#ffffff;stroke-width:0.25"><polyline
       points="326.677,297.153 326.677,297.153 "
       id="polyline16248" /></g><g
     transform="translate(-224.86709,-125.12364)"
     clip-path="url(#clipId0)"
     id="g16250"
     style="fill:#ffffff;stroke:none" /><g
     transform="translate(-224.86709,-125.12364)"
     clip-path="url(#clipId0)"
     id="g16412"
     style="fill:none;stroke:#ffffff;stroke-width:0.25"><polyline
       points="473.13,297.153 473.13,297.153 "
       id="polyline16414" /></g><g
     transform="translate(-224.86709,-125.12364)"
     clip-path="url(#clipId0)"
     id="g16416"
     style="fill:#ffffff;stroke:none" /></svg>