<?xml version="1.0" encoding="UTF-8" standalone="no"?>
<svg
   xmlns:dc="http://purl.org/dc/elements/1.1/"
   xmlns:cc="http://creativecommons.org/ns#"
   xmlns:rdf="http://www.w3.org/1999/02/22-rdf-syntax-ns#"
   xmlns:svg="http://www.w3.org/2000/svg"
   xmlns="http://www.w3.org/2000/svg"
   xmlns:sodipodi="http://sodipodi.sourceforge.net/DTD/sodipodi-0.dtd"
   xmlns:inkscape="http://www.inkscape.org/namespaces/inkscape"
   viewBox="0 0 345.46875 345.65625"
   version="1.1"
   xml:space="preserve"
   id="svg23906"
   inkscape:version="0.48.3.1 r9886"
   width="100%"
   height="100%"
   sodipodi:docname="alkis3642.svg"
   style="fill-rule:evenodd;stroke-linecap:round;stroke-linejoin:round"><metadata
   id="metadata24241"><rdf:RDF><cc:Work
       rdf:about=""><dc:format>image/svg+xml</dc:format><dc:type
         rdf:resource="http://purl.org/dc/dcmitype/StillImage" /></cc:Work></rdf:RDF></metadata><sodipodi:namedview
   pagecolor="#ffffff"
   bordercolor="#666666"
   borderopacity="1"
   objecttolerance="10"
   gridtolerance="10"
   guidetolerance="10"
   inkscape:pageopacity="0"
   inkscape:pageshadow="2"
   inkscape:window-width="1855"
   inkscape:window-height="1025"
   id="namedview24239"
   showgrid="false"
   inkscape:zoom="1.5733333"
   inkscape:cx="176.14619"
   inkscape:cy="320.15929"
   inkscape:window-x="0"
   inkscape:window-y="33"
   inkscape:window-maximized="1"
   inkscape:current-layer="svg23906" />
<defs
   id="defs23908">
<clipPath
   id="clipId0">
<path
   d="M 0,600 800,600 800,0 0,0 z"
   id="path23911"
   inkscape:connector-curvature="0" />
</clipPath>
</defs>
<g
   clip-path="url(#clipId0)"
   id="g23913"
   style="fill:none;stroke:#000000;stroke-width:0.1"
   transform="translate(-225.125,-125.4375)" />
<g
   clip-path="url(#clipId0)"
   id="g23915"
   style="fill:#ffffff;stroke:none"
   transform="translate(-225.125,-125.4375)">













































































<path
   d="m 397.84375,152 -11.46875,0.4375 -11.40625,1.34375 -11.28125,2.25 -11.0625,3.125 -10.78125,3.96875 -10.4375,4.8125 -10.03125,5.625 -9.5625,6.375 -9.03125,7.125 -8.4375,7.8125 -7.78125,8.4375 -7.125,9 -6.375,9.5625 -5.625,10.03125 -4.8125,10.4375 -3.96875,10.78125 -3.125,11.0625 -2.25,11.28125 -1.34375,11.40625 -0.4375,11.46875 0.4375,11.5 1.34375,11.40625 2.25,11.28125 3.125,11.0625 3.96875,10.78125 4.8125,10.4375 5.625,10.03125 6.375,9.53125 7.125,9.03125 7.78125,8.4375 8.4375,7.8125 9.03125,7.125 9.5625,6.375 10.03125,5.625 10.4375,4.8125 10.78125,3.96875 11.0625,3.125 11.28125,2.25 11.40625,1.34375 11.46875,0.4375 11.5,-0.4375 11.40625,-1.34375 11.28125,-2.25 11.0625,-3.125 10.78125,-3.96875 10.4375,-4.8125 10,-5.625 9.5625,-6.375 9.03125,-7.125 8.4375,-7.8125 7.8125,-8.4375 7.09375,-9.03125 6.40625,-9.53125 5.59375,-10.03125 4.8125,-10.4375 4,-10.78125 3.125,-11.0625 2.21875,-11.28125 1.34375,-11.40625 0.46875,-11.5 -0.46875,-11.46875 -1.34375,-11.40625 -2.21875,-11.28125 -3.125,-11.0625 -4,-10.78125 -4.8125,-10.4375 -5.59375,-10.03125 -6.40625,-9.5625 -7.09375,-9 -7.8125,-8.4375 -8.4375,-7.8125 -9.03125,-7.125 -9.5625,-6.375 -10,-5.625 -10.4375,-4.8125 -10.78125,-3.96875 -11.0625,-3.125 -11.28125,-2.25 -11.40625,-1.34375 -11.5,-0.4375 z"
   id="path24071"
   inkscape:connector-curvature="0" />
</g>
<g
   clip-path="url(#clipId0)"
   id="g24073"
   style="fill:#000000;stroke:none"
   transform="translate(-225.125,-125.4375)">















































































<path
   d="m 398.09375,125.4375 0.0625,52.875 9.125,0.40625 9.34375,1.125 9.25,1.84375 9.0625,2.53125 8.84375,3.28125 8.5625,3.9375 8.21875,4.59375 7.8125,5.25 7.40625,5.84375 6.90625,6.375 6.40625,6.9375 5.84375,7.375 5.21875,7.84375 4.625,8.21875 3.9375,8.5625 3.25,8.84375 2.5625,9.0625 1.84375,9.25 1.09375,9.34375 0.375,9.40625 -0.375,9.4375 -1.09375,9.34375 -1.84375,9.25 -2.5625,9.0625 -3.25,8.84375 -3.9375,8.5625 -4.625,8.21875 -5.21875,7.84375 -5.84375,7.375 -6.40625,6.9375 -6.90625,6.375 -7.40625,5.84375 -7.8125,5.25 -8.21875,4.59375 -8.5625,3.9375 -8.84375,3.28125 -9.0625,2.53125 -9.25,1.84375 -9.34375,1.125 -9.4375,0.34375 L 388.4375,418 l -9.34375,-1.125 -9.25,-1.84375 -9.0625,-2.53125 -8.84375,-3.28125 -8.5625,-3.9375 -8.21875,-4.59375 -7.84375,-5.25 -7.40625,-5.84375 -6.90625,-6.375 -6.40625,-6.9375 -5.8125,-7.375 -5.25,-7.84375 -4.59375,-8.21875 -3.9375,-8.5625 -3.28125,-8.84375 -2.5625,-9.0625 -1.8125,-9.25 -1.125,-9.34375 -0.375,-9.4375 0.375,-9.40625 1.125,-9.34375 1.8125,-9.25 2.5625,-9.0625 3.28125,-8.84375 3.9375,-8.5625 4.59375,-8.21875 5.25,-7.84375 5.8125,-7.375 L 313,213.5 l 6.90625,-6.375 7.40625,-5.84375 7.84375,-5.25 8.21875,-4.59375 8.5625,-3.9375 8.84375,-3.28125 9.0625,-2.53125 9.25,-1.84375 9.34375,-1.125 9.65625,-0.40625 -0.15625,-52.8125 -13.625,0.65625 -13.46875,1.59375 -13.3125,2.65625 -13.0625,3.6875 -12.71875,4.6875 -12.3125,5.6875 -11.84375,6.625 -11.28125,7.53125 -10.625,8.375 -9.96875,9.21875 -9.21875,9.96875 -8.40625,10.65625 -7.53125,11.25 -6.625,11.84375 -5.65625,12.3125 -4.71875,12.71875 -3.65625,13.0625 -2.65625,13.3125 -1.59375,13.46875 -0.53125,13.53125 0.53125,13.5625 1.59375,13.46875 2.65625,13.3125 3.65625,13.0625 4.71875,12.71875 5.65625,12.3125 6.625,11.84375 7.53125,11.25 8.40625,10.65625 9.21875,9.96875 9.96875,9.21875 10.625,8.375 11.28125,7.53125 11.84375,6.625 12.3125,5.6875 12.71875,4.6875 13.0625,3.6875 13.3125,2.65625 13.46875,1.59375 13.53125,0.53125 13.5625,-0.53125 13.46875,-1.59375 13.3125,-2.65625 13.03125,-3.6875 12.71875,-4.6875 12.34375,-5.6875 11.8125,-6.625 11.28125,-7.53125 10.65625,-8.375 L 520,420.5 l 9.1875,-9.96875 8.40625,-10.65625 7.53125,-11.25 6.625,-11.84375 5.6875,-12.3125 4.6875,-12.71875 3.6875,-13.0625 2.65625,-13.3125 1.59375,-13.46875 0.53125,-13.5625 -0.53125,-13.53125 -1.59375,-13.46875 -2.65625,-13.3125 -3.6875,-13.0625 -4.6875,-12.71875 -5.6875,-12.3125 -6.625,-11.84375 -7.53125,-11.25 L 529.1875,186.1875 520,176.21875 510.03125,167 499.375,158.625 l -11.28125,-7.53125 -11.8125,-6.625 -12.34375,-5.6875 -12.71875,-4.6875 -13.03125,-3.6875 -13.3125,-2.65625 -13.46875,-1.59375 -13.3125,-0.71875 z"
   id="path24233"
   inkscape:connector-curvature="0" />
</g>
<g
   clip-path="url(#clipId0)"
   id="g24235"
   style="fill:none;stroke:#000000;stroke-width:0.25"
   transform="translate(-225.125,-125.4375)">
<polyline
   points="397.851,151.994 397.851,151.994 "
   id="polyline24237" />
</g>
</svg>