<?xml version="1.0" encoding="UTF-8" standalone="no"?>
<svg
   xmlns:dc="http://purl.org/dc/elements/1.1/"
   xmlns:cc="http://creativecommons.org/ns#"
   xmlns:rdf="http://www.w3.org/1999/02/22-rdf-syntax-ns#"
   xmlns:svg="http://www.w3.org/2000/svg"
   xmlns="http://www.w3.org/2000/svg"
   xmlns:sodipodi="http://sodipodi.sourceforge.net/DTD/sodipodi-0.dtd"
   xmlns:inkscape="http://www.inkscape.org/namespaces/inkscape"
   viewBox="0 0 359.59375 359.59375"
   version="1.1"
   xml:space="preserve"
   id="svg9666"
   inkscape:version="0.48.3.1 r9886"
   width="100%"
   height="100%"
   sodipodi:docname="alkis3340.svg"
   style="fill-rule:evenodd;stroke-linecap:round;stroke-linejoin:round"><metadata
   id="metadata9917"><rdf:RDF><cc:Work
       rdf:about=""><dc:format>image/svg+xml</dc:format><dc:type
         rdf:resource="http://purl.org/dc/dcmitype/StillImage" /></cc:Work></rdf:RDF></metadata><sodipodi:namedview
   pagecolor="#ffffff"
   bordercolor="#666666"
   borderopacity="1"
   objecttolerance="10"
   gridtolerance="10"
   guidetolerance="10"
   inkscape:pageopacity="0"
   inkscape:pageshadow="2"
   inkscape:window-width="1855"
   inkscape:window-height="1025"
   id="namedview9915"
   showgrid="false"
   inkscape:zoom="0.55625736"
   inkscape:cx="250.38651"
   inkscape:cy="275.20317"
   inkscape:window-x="0"
   inkscape:window-y="33"
   inkscape:window-maximized="1"
   inkscape:current-layer="svg9666" />
<defs
   id="defs9668">
<clipPath
   id="clipId0">
<path
   d="M 0,600 800,600 800,0 0,0 z"
   id="path9671"
   inkscape:connector-curvature="0" />
</clipPath>















































































</defs>
<g
   clip-path="url(#clipId0)"
   id="g9673"
   style="fill:none;stroke:#000000;stroke-width:0.1"
   transform="translate(-221.03125,-119.875)" />
<g
   clip-path="url(#clipId0)"
   id="g9675"
   style="fill:#ffffff;stroke:none"
   transform="translate(-221.03125,-119.875)">
<path
   d="m 221.03125,119.875 0,359.59375 359.59375,0 0,-359.59375 -359.59375,0 z"
   id="path9677"
   inkscape:connector-curvature="0" />

</g>
<path
   style="fill:#ff0000;stroke:none"
   sodipodi:nodetypes="ccccccccccccccccccccc"
   inkscape:connector-curvature="0"
   id="path9837"
   d="m 178.78125,21.5625 c -19.36412,0.45509 -38.44284,15.33076 -40.84375,34.96875 0.39653,4.03699 -0.45506,-4.93617 -0.71875,2.78125 -1.29995,2.8428 -0.54811,16.96191 3.75838,24.14086 9.67093,21.8752 38.78486,31.03213 59.42275,19.20753 10.9245,-6.21472 20.39327,-17.44096 21.25647,-30.31714 1.65324,0.57474 2.17223,-17.13827 -2.625,-25.375 -6.80758,-15.60326 -23.36688,-25.72693 -40.2501,-25.40625 z m 15.40625,102.84375 c -17.4487,11.63274 -38.51196,16.41873 -59.28387,16.79799 -8.997,0.65354 -18.0163,0.41324 -27.02863,0.45201 0,12.70833 0,25.41667 0,38.125 14.38542,0 28.77083,0 43.15625,0 0,36.33333 0,71.65545 0,107.98878 -14.72594,-0.0309 -26.88649,-0.22614 -43.15625,-0.11378 0,11.98958 0,23.97917 0,35.96875 47.94792,0 95.89583,0 143.84375,0 0,-11.98958 0,-23.97917 0,-35.96875 -14.38542,0 -28.77083,0 -43.15625,0 0,-54.41667 0,-108.83333 0,-163.25 -4.79167,0 -9.58333,0 -14.375,0 z" />
<g
   clip-path="url(#clipId0)"
   id="g9839"
   style="fill:none;stroke:#ffffff;stroke-width:0.25"
   transform="translate(-221.03125,-119.875)">
<polyline
   points="400.823,141.445 400.823,141.445 "
   id="polyline9841" />

</g>
<g
   clip-path="url(#clipId0)"
   id="g9845"
   style="fill:#ff0000;stroke:none"
   transform="translate(-221.03125,-119.875)">
































</g>

</svg>