<?xml version="1.0" encoding="UTF-8" standalone="no"?>
<!-- Created with Inkscape (http://www.inkscape.org/) -->

<svg
   xmlns:dc="http://purl.org/dc/elements/1.1/"
   xmlns:cc="http://creativecommons.org/ns#"
   xmlns:rdf="http://www.w3.org/1999/02/22-rdf-syntax-ns#"
   xmlns:svg="http://www.w3.org/2000/svg"
   xmlns="http://www.w3.org/2000/svg"
   xmlns:inkscape="http://www.inkscape.org/namespaces/inkscape"
   version="1.1"
   width="100%"
   height="100%"
   viewBox="0 0 572.78125 351.24115"
   id="svg12165"
   xml:space="preserve"
   style="fill-rule:evenodd;stroke-linecap:round;stroke-linejoin:round"><metadata
     id="metadata12400"><rdf:RDF><cc:Work
         rdf:about=""><dc:format>image/svg+xml</dc:format><dc:type
           rdf:resource="http://purl.org/dc/dcmitype/StillImage" /></cc:Work></rdf:RDF></metadata><defs
     id="defs12167"><clipPath
       id="clipId0"><path
         d="M 0,600 800,600 800,0 0,0 z"
         inkscape:connector-curvature="0"
         id="path12170" /></clipPath></defs><g
     transform="translate(-114.84375,-124.3125)"
     clip-path="url(#clipId0)"
     id="g12172"
     style="fill:none;stroke:#000000;stroke-width:0.1" /><path
     d="m 0,0 0,28.625 572.78125,0 0,-28.625 z M 278.96875,61.8125 C 209.60076,63.29173 137.42417,58.95191 71.34375,83.96875 19.46931,104.05067 -11.48254,168.90429 11.75,220.78125 36.01076,280.19684 96.85473,312.84841 155.09375,330.75 c 120.6167,38.3576 261.86247,24.07809 364.46875,-53.125 31.54864,-22.87953 51.28397,-61.18074 48.0625,-100.4375 0.45509,-49.5127 -53.12751,-91.83127 -99.9375,-104.375 -61.01649,-15.30235 -133.9024,-9.40818 -188.71875,-11 z M 263.3125,90.625 c 76.32733,4.48463 124.18625,-5.20064 196.55244,7.61388 44.37626,14.4247 82.17299,49.67539 78.82256,96.54237 -10.24571,50.9417 -58.96481,81.3429 -103.9375,99.15625 -103.0847,42.01181 -224.08988,37.70383 -323.65625,-12.125 -37.54038,-19.56787 -75.52219,-51.69227 -78.25,-97 C 30.22618,145.46197 63.39011,113.1913 99.5625,104.03125 152.66592,88.57622 208.65841,92.42032 263.3125,90.625 z"
     inkscape:connector-curvature="0"
     id="path12176"
     style="fill:#000000;stroke:none" /></svg>