<?xml version="1.0" standalone="no"?>
<!DOCTYPE svg PUBLIC "-//W3C//DTD SVG 1.1//EN"
 "http://www.w3.org/Graphics/SVG/1.1/DTD/svg11.dtd">
<!-- Created with svg_stack (http://github.com/astraw/svg_stack) -->
<svg xmlns:sodipodi="http://sodipodi.sourceforge.net/DTD/sodipodi-0.dtd" xmlns="http://www.w3.org/2000/svg" version="1.1" width="1992.5" height="316.25">
  <defs/>
  <g id="id0:id0" transform="matrix(1.25,0,0,1.25,0.0,0.0)"><g transform="translate(0.000000,253.000000) scale(0.100000,-0.100000)" fill="#000000" stroke="none">
<path d="M2645 2319 c-286 -114 -998 -399 -1582 -631 l-1062 -423 1581 -630 c869 -347 1587 -631 1594 -633 12 -3 14 198 14 1262 0 1007 -3 1266 -12 1265 -7 0 -247 -95 -533 -210z"/>
<path d="M5310 1260 l0 -190 1065 0 1065 0 0 190 0 190 -1065 0 -1065 0 0 -190z"/>
<path d="M9560 1260 l0 -190 1065 0 1065 0 0 190 0 190 -1065 0 -1065 0 0 -190z"/>
<path d="M13810 1260 l0 -190 1065 0 1065 0 0 190 0 190 -1065 0 -1065 0 0 -190z"/>
</g>
</g>
  <g id="id1:id1" transform="matrix(1.25,0,0,1.25,0.0,0.0)"><g transform="translate(0.000000,253.000000) scale(0.100000,-0.100000)" fill="#ffffff" stroke="none">
</g>
</g>
</svg>
