<?xml version="1.0" encoding="UTF-8" standalone="no"?>
<!-- Created with Inkscape (http://www.inkscape.org/) -->

<svg
   xmlns:dc="http://purl.org/dc/elements/1.1/"
   xmlns:cc="http://creativecommons.org/ns#"
   xmlns:rdf="http://www.w3.org/1999/02/22-rdf-syntax-ns#"
   xmlns:svg="http://www.w3.org/2000/svg"
   xmlns="http://www.w3.org/2000/svg"
   xmlns:inkscape="http://www.inkscape.org/namespaces/inkscape"
   version="1.1"
   width="100%"
   height="100%"
   viewBox="0 0 290.25 359.9375"
   id="svg95178"
   xml:space="preserve"
   style="fill-rule:evenodd;stroke-linecap:round;stroke-linejoin:round"><metadata
     id="metadata95829"><rdf:RDF><cc:Work
         rdf:about=""><dc:format>image/svg+xml</dc:format><dc:type
           rdf:resource="http://purl.org/dc/dcmitype/StillImage" /></cc:Work></rdf:RDF></metadata><defs
     id="defs95180"><clipPath
       id="clipId0"><path
         d="M 0,600 800,600 800,0 0,0 z"
         inkscape:connector-curvature="0"
         id="path95183" /></clipPath></defs><g
     transform="translate(-255.53125,-119.78125)"
     clip-path="url(#clipId0)"
     id="g95185"
     style="fill:none;stroke:#000000;stroke-width:0.1" /><g
     transform="translate(-255.53125,-119.78125)"
     clip-path="url(#clipId0)"
     id="g95187"
     style="fill:#ffffff;stroke:none"><path
       d="m 400.65625,119.78125 -145.125,69.65625 0,290.28125 145.125,0 145.125,0 0,-290.28125 -145.125,-69.65625 z"
       inkscape:connector-curvature="0"
       id="path95189" /></g><g
     transform="translate(-255.53125,-119.78125)"
     clip-path="url(#clipId0)"
     id="g95197"
     style="fill:#000000;stroke:none" /><g
     transform="translate(-255.53125,-119.78125)"
     clip-path="url(#clipId0)"
     id="g95355"
     style="fill:none;stroke:#ffffff;stroke-width:0.25"><polyline
       points="400.664,224.859 400.664,224.859 "
       id="polyline95357" /><polyline
       points="400.664,224.859 402.372,224.926 404.07,225.127 405.746,225.46 407.391,225.924 408.995,226.516 410.547,227.231 412.039,228.066 413.46,229.016 414.802,230.074 416.058,231.235 417.218,232.49 418.276,233.832 419.226,235.253 420.061,236.745 420.777,238.297 421.368,239.901 421.832,241.546 422.166,243.222 422.366,244.92 422.434,246.628 422.366,248.336 422.166,250.033 421.832,251.71 421.368,253.355 420.777,254.959 420.061,256.511 419.226,258.002 418.276,259.424 417.218,260.766 416.058,262.021 414.802,263.181 413.46,264.24 412.039,265.189 410.547,266.025 408.995,266.74 407.391,267.332 405.746,267.796 404.07,268.129 402.372,268.33 400.664,268.397 398.956,268.33 397.259,268.129 395.582,267.796 393.937,267.332 392.333,266.74 390.781,266.025 389.29,265.189 387.869,264.24 386.526,263.181 385.271,262.021 384.111,260.766 383.052,259.424 382.103,258.002 381.268,256.511 380.552,254.959 379.96,253.355 379.496,251.71 379.163,250.033 378.962,248.336 378.895,246.628 378.962,244.92 379.163,243.222 379.496,241.546 379.96,239.901 380.552,238.297 381.268,236.745 382.103,235.253 383.052,233.832 384.111,232.49 385.271,231.235 386.526,230.074 387.869,229.016 389.29,228.066 390.781,227.231 392.333,226.516 393.937,225.924 395.582,225.46 397.259,225.127 398.956,224.926 400.664,224.859 "
       id="polyline95359" /></g><g
     transform="translate(-255.53125,-119.78125)"
     clip-path="url(#clipId0)"
     id="g95361"
     style="fill:#000000;stroke:none" /><g
     transform="translate(-255.53125,-119.78125)"
     clip-path="url(#clipId0)"
     id="g95423"
     style="fill:#000000;stroke:none" /><g
     transform="translate(-255.53125,-119.78125)"
     clip-path="url(#clipId0)"
     id="g95587"
     style="fill:#000000;stroke:none" /><g
     transform="translate(-255.53125,-119.78125)"
     clip-path="url(#clipId0)"
     id="g95751"
     style="fill:#000000;stroke:none" /><g
     transform="translate(-255.53125,-119.78125)"
     clip-path="url(#clipId0)"
     id="g95789"
     style="fill:#000000;stroke:none"><path
       d="m 400.65625,224.84375 c -13.33348,-0.37954 -24.49278,13.3593 -21.26846,26.32411 2.33866,13.14128 18.14115,21.17819 30.13913,15.33975 12.56702,-5.07817 17.04156,-22.67057 8.39459,-33.11882 -4.02064,-5.36665 -10.58883,-8.50246 -17.26526,-8.54504 z m -21.75,52.84375 c -7.24245,23.99502 -14.52567,47.9777 -21.78125,71.96875 3.875,0 7.75,0 11.625,0 6.96851,-20.50696 13.92578,-41.01774 20.875,-61.53125 -8.49121,44.70157 -16.98967,89.40177 -25.53125,134.09375 4.9375,0 9.875,0 14.8125,0 7.24372,-24.18938 14.49406,-48.37678 21.75,-72.5625 7.25159,24.19015 14.51152,48.3778 21.78125,72.5625 4.9375,0 9.875,0 14.8125,0 -8.53949,-44.69436 -17.03715,-89.39669 -25.5625,-134.09375 6.97307,20.50895 13.94232,41.01919 20.90625,61.53125 3.86458,0 7.72917,0 11.59375,0 -7.21175,-24.00114 -14.51177,-47.97559 -21.75,-71.96875 -14.51042,0 -29.02083,0 -43.53125,0 z m -50.8125,57.46875 c -10.41026,-0.43678 -18.03616,12.00924 -12.9375,21.0937 4.33642,9.48343 18.93563,10.63945 24.6875,1.9375 7.02032,-9.26165 -0.10412,-23.26065 -11.75,-23.0312 z m 145.125,0 c -10.39574,-0.43936 -18.06305,12.03183 -12.90625,21.0937 4.37647,9.71945 19.50349,10.60066 24.97798,1.45491 6.54669,-9.23358 -0.75116,-22.83983 -12.07173,-22.54861 z M 299.0625,357.8125 c -0.6463,2.76808 -6.30883,6.52604 -3.21944,8.55693 7.26166,5.2856 14.55314,10.53017 21.81319,15.81807 -3.875,13.34375 -7.75,26.6875 -11.625,40.03125 3.875,0 7.75,0 11.625,0 3.47917,-7.54167 6.95833,-15.08333 10.4375,-22.625 3.48958,7.54167 6.97917,15.08333 10.46875,22.625 3.86458,0 7.72917,0 11.59375,0 -3.86458,-13.34375 -7.72917,-26.6875 -11.59375,-40.03125 7.72247,-5.63819 15.4727,-11.23806 23.21875,-16.84375 -2.18887,-1.83943 -2.98897,-8.55241 -6.21395,-6.75589 -9.16646,4.55763 -18.30392,9.17331 -27.47355,13.72464 -9.67692,-4.83366 -19.34496,-9.68513 -29.03125,-14.5 z m 145.125,0 c -0.6463,2.76808 -6.30883,6.52604 -3.21944,8.55693 7.26166,5.2856 14.55314,10.53017 21.81319,15.81807 -3.875,13.34375 -7.75,26.6875 -11.625,40.03125 3.875,0 7.75,0 11.625,0 3.47917,-7.54167 6.95833,-15.08333 10.4375,-22.625 3.48958,7.54167 6.97917,15.08333 10.46875,22.625 3.86458,0 7.72917,0 11.59375,0 -3.86458,-13.34375 -7.72917,-26.6875 -11.59375,-40.03125 7.72247,-5.63819 15.4727,-11.23806 23.21875,-16.84375 -2.18887,-1.83943 -2.98897,-8.55241 -6.21395,-6.75589 -9.16646,4.55763 -18.30392,9.17331 -27.47355,13.72464 -9.67692,-4.83366 -19.34496,-9.68513 -29.03125,-14.5 z"
       inkscape:connector-curvature="0"
       id="path95821" /></g></svg>