<?xml version="1.0" standalone="no"?>
<!DOCTYPE svg PUBLIC "-//W3C//DTD SVG 1.1//EN"
 "http://www.w3.org/Graphics/SVG/1.1/DTD/svg11.dtd">
<!-- Created with svg_stack (http://github.com/astraw/svg_stack) -->
<svg xmlns:sodipodi="http://sodipodi.sourceforge.net/DTD/sodipodi-0.dtd" xmlns="http://www.w3.org/2000/svg" version="1.1" width="1590.0" height="1590.0">
  <defs/>
  <g id="id0:id0" transform="matrix(1.25,0,0,1.25,0.0,0.0)"><g transform="translate(0.000000,1272.000000) scale(0.100000,-0.100000)" fill="#000000" stroke="none">
<path d="M5970 12710 c-389 -20 -901 -111 -1330 -236 -1009 -292 -1829 -750 -2593 -1447 -341 -311 -661 -689 -974 -1147 -337 -495 -675 -1227 -828 -1795 -321 -1193 -321 -2257 0 -3450 153 -569 491 -1300 828 -1795 311 -456 634 -836 975 -1147 636 -581 1295 -985 2127 -1301 414 -158 931 -282 1450 -349 l280 -36 455 0 455 0 280 36 c519 67 1036 191 1450 349 1002 381 1753 883 2478 1656 313 334 670 825 877 1206 263 485 462 963 575 1381 321 1193 321 2257 0 3450 -153 568 -491 1300 -828 1795 -395 579 -831 1053 -1352 1470 -882 707 -2052 1189 -3225 1330 -228 27 -292 31 -605 34 -192 2 -415 1 -495 -4z m1030 -889 c322 -39 577 -88 837 -162 432 -122 850 -295 1213 -502 1022 -582 1795 -1418 2293 -2482 244 -521 383 -1007 479 -1670 31 -219 31 -221 31 -645 0 -424 0 -426 -31 -645 -95 -661 -228 -1125 -479 -1675 -282 -619 -764 -1279 -1255 -1722 -575 -517 -1154 -872 -1826 -1119 -424 -156 -814 -247 -1297 -305 -213 -26 -257 -28 -605 -28 -347 0 -392 2 -605 28 -763 91 -1435 306 -2084 666 -462 255 -1002 684 -1352 1072 -511 567 -849 1120 -1111 1816 -148 395 -234 748 -309 1263 -31 214 -31 215 -31 649 0 434 0 435 31 649 75 515 161 868 309 1263 204 543 495 1062 834 1490 283 357 552 626 918 918 774 619 1711 1010 2720 1136 286 36 430 43 775 38 253 -3 339 -9 545 -33z"/>
</g>
</g>
  <g id="id1:id1" transform="matrix(1.25,0,0,1.25,0.0,0.0)"><g transform="translate(0.000000,1272.000000) scale(0.100000,-0.100000)" fill="#ffffff" stroke="none">
<path d="M6020 11850 c-957 -58 -1949 -393 -2715 -915 -854 -582 -1495 -1334 -1928 -2260 -244 -522 -382 -1004 -478 -1666 -31 -214 -31 -215 -31 -649 0 -434 0 -435 31 -649 75 -515 161 -868 309 -1263 262 -696 600 -1249 1111 -1816 350 -388 890 -817 1352 -1072 649 -360 1321 -575 2084 -666 213 -26 258 -28 605 -28 348 0 392 2 605 28 483 58 873 149 1297 305 672 247 1251 602 1826 1119 491 443 973 1103 1255 1722 251 550 384 1014 479 1675 31 219 31 221 31 645 0 424 0 426 -31 645 -74 512 -165 886 -312 1274 -467 1235 -1313 2225 -2460 2878 -479 273 -1086 498 -1615 598 -340 65 -636 95 -980 99 -165 3 -361 1 -435 -4z"/>
</g>
</g>
</svg>
