<?xml version="1.0" encoding="UTF-8" standalone="no"?>
<!-- Created with Inkscape (http://www.inkscape.org/) -->

<svg
   xmlns:dc="http://purl.org/dc/elements/1.1/"
   xmlns:cc="http://creativecommons.org/ns#"
   xmlns:rdf="http://www.w3.org/1999/02/22-rdf-syntax-ns#"
   xmlns:svg="http://www.w3.org/2000/svg"
   xmlns="http://www.w3.org/2000/svg"
   xmlns:inkscape="http://www.inkscape.org/namespaces/inkscape"
   version="1.1"
   width="100%"
   height="100%"
   viewBox="0 0 189.65173 351.31505"
   id="svg7250"
   xml:space="preserve"
   style="fill-rule:evenodd;stroke-linecap:round;stroke-linejoin:round"><metadata
     id="metadata7599"><rdf:RDF><cc:Work
         rdf:about=""><dc:format>image/svg+xml</dc:format><dc:type
           rdf:resource="http://purl.org/dc/dcmitype/StillImage" /></cc:Work></rdf:RDF></metadata><defs
     id="defs7252"><clipPath
       id="clipId0"><path
         d="M 0,600 800,600 800,0 0,0 z"
         inkscape:connector-curvature="0"
         id="path7255" /></clipPath></defs><g
     transform="translate(-305.09375,-124.71875)"
     clip-path="url(#clipId0)"
     id="g7257"
     style="fill:none;stroke:#000000;stroke-width:0.1" /><g
     transform="translate(-305.09375,-124.71875)"
     clip-path="url(#clipId0)"
     id="g7425"
     style="fill:none;stroke:#000000;stroke-width:0.25" /><g
     transform="translate(-305.09375,-124.71875)"
     clip-path="url(#clipId0)"
     id="g7593"
     style="fill:none;stroke:#000000;stroke-width:0.25"><path
       d="m 466.4375,124.84375 -161.21875,93.09375 9.875,17.09375 58.40625,-33.71875 0,171.28125 c -25.95424,4.33146 -45.43602,30.77736 -41.9375,56.84375 2.20249,25.38682 25.4354,46.53444 50.90625,46.4375 25.76441,0.98974 49.95704,-19.88385 52.59375,-45.5625 3.77504,-25.19234 -16.00961,-53.08452 -43.1875,-58.3125 -1.38859,-53.5032 1.34375,-130.48461 1.34375,-182.0625 l 53.5,-30.90625 0,77.21875 c -21.05982,4.9753 -33.93458,29.96214 -25.75,50 6.85725,20.30466 32.47519,30.82001 51.625,21.21875 19.6982,-8.41949 28.18503,-34.82322 17.125,-53.15625 -4.90181,-8.83118 -13.49966,-15.52252 -23.28125,-18.0625 z m -9.84375,129.8125 c 13.45895,-0.5622 23.06933,15.88627 15.90625,27.3125 -6.16892,12.28415 -25.83567,12.21006 -31.90625,-0.125 -5.4015,-13.34562 -0.15503,-25.87331 16,-27.1875 z M 383.375,391.34375 c 18.82591,-0.53697 35.1035,17.90974 32.09375,36.53125 -1.79111,19.11643 -22.9517,32.95742 -41.1875,26.9375 -18.3129,-4.71324 -28.70377,-27.16074 -20.5,-44.1875 4.96887,-11.55783 17.02539,-19.37176 29.59375,-19.28125 z"
       inkscape:connector-curvature="0"
       id="polyline7595"
       style="fill:#000000;fill-opacity:1;fill-rule:nonzero" /></g></svg>