<?xml version="1.0" encoding="UTF-8" standalone="no"?>
<svg
   xmlns:dc="http://purl.org/dc/elements/1.1/"
   xmlns:cc="http://creativecommons.org/ns#"
   xmlns:rdf="http://www.w3.org/1999/02/22-rdf-syntax-ns#"
   xmlns:svg="http://www.w3.org/2000/svg"
   xmlns="http://www.w3.org/2000/svg"
   xmlns:sodipodi="http://sodipodi.sourceforge.net/DTD/sodipodi-0.dtd"
   xmlns:inkscape="http://www.inkscape.org/namespaces/inkscape"
   viewBox="0 0 351.53963 351.76367"
   version="1.1"
   xml:space="preserve"
   id="svg145627"
   inkscape:version="0.48.3.1 r9886"
   width="100%"
   height="100%"
   sodipodi:docname="alkis3439.svg"
   style="fill-rule:evenodd;stroke-linecap:round;stroke-linejoin:round"><metadata
   id="metadata146252"><rdf:RDF><cc:Work
       rdf:about=""><dc:format>image/svg+xml</dc:format><dc:type
         rdf:resource="http://purl.org/dc/dcmitype/StillImage" /></cc:Work></rdf:RDF></metadata><sodipodi:namedview
   pagecolor="#ffffff"
   bordercolor="#666666"
   borderopacity="1"
   objecttolerance="10"
   gridtolerance="10"
   guidetolerance="10"
   inkscape:pageopacity="0"
   inkscape:pageshadow="2"
   inkscape:window-width="1855"
   inkscape:window-height="1025"
   id="namedview146250"
   showgrid="false"
   inkscape:zoom="1.5733334"
   inkscape:cx="176.94255"
   inkscape:cy="175.85652"
   inkscape:window-x="0"
   inkscape:window-y="33"
   inkscape:window-maximized="1"
   inkscape:current-layer="svg145627" />
<defs
   id="defs145629">
<clipPath
   id="clipId0">
<path
   d="M 0,600 800,600 800,0 0,0 z"
   id="path145632"
   inkscape:connector-curvature="0" />
</clipPath>















































































</defs>
<g
   clip-path="url(#clipId0)"
   id="g145634"
   style="fill:none;stroke:#000000;stroke-width:0.1"
   transform="translate(-224.32863,-124.09285)" />
<path
   style="fill:#ffffff;stroke:none"
   d="M 175.76512,7.0008971 C 123.18328,6.8834671 71.372227,32.767447 40.254407,75.215027 5.9527969,120.73814 -2.6829131,184.0575 18.480887,237.02388 c 20.47934,54.25127 70.96667,95.56836 128.150983,105.09542 56.71718,10.41852 117.8726,-10.98601 155.66642,-54.55798 C 340.56581,244.88107 354.39207,182.0392 337.36707,127.2741 321.16482,71.601677 274.1282,26.388867 217.83752,12.438047 204.11153,8.8325071 189.94176,7.2230071 175.76512,7.0008971 z"
   id="path145638"
   inkscape:connector-curvature="0" />
<g
   clip-path="url(#clipId0)"
   id="g145794"
   style="fill:#000000;stroke:none"
   transform="translate(-224.32863,-124.09285)">















































































<path
   d="m 399.8125,124.09375 c -58.30848,-0.19286 -115.59741,30.72355 -147.00808,79.91377 -33.67578,50.56225 -37.80938,118.88656 -10.65675,173.21239 25.94446,54.17254 81.44061,92.58209 141.28706,97.7619 59.75327,6.21399 121.46471,-21.0727 157.19205,-69.35324 36.23375,-47.46394 45.47202,-113.85463 23.30626,-169.33961 -21.33229,-56.53238 -73.94409,-99.5381 -133.50864,-109.50277 -9.90952,-1.81267 -19.98724,-2.44781 -30.0494,-2.69244 -0.31842,4.77949 -0.14614,12.57765 -0.5625,0 z m 0.28125,14.03125 c 53.62766,-0.15018 106.37631,28.09763 135.33084,73.33605 32.97321,49.20301 35.16667,116.81429 5.45082,168.05219 -27.33505,49.59519 -82.43083,82.03895 -139.03102,82.19902 -55.25239,1.01948 -109.72422,-28.66891 -138.7407,-75.7173 -31.38413,-49.02297 -33.02695,-115.19037 -3.7916,-165.5707 27.30354,-49.62789 82.41652,-81.98896 138.99873,-82.22479 l 0.99416,-0.0415 0.78877,-0.0329 z"
   id="path145954"
   inkscape:connector-curvature="0" />
</g>
<g
   clip-path="url(#clipId0)"
   id="g145956"
   style="fill:none;stroke:#000000;stroke-width:0.25"
   transform="translate(-224.32863,-124.09285)">
<polyline
   points="400.086,131.109 400.086,131.109 "
   id="polyline145958" />
</g>
<g
   clip-path="url(#clipId0)"
   id="g145960"
   style="fill:#000000;stroke:none"
   transform="translate(-224.32863,-124.09285)">















































































































































<path
   d="m 500.28125,212.71875 c -5.99344,0.66716 -10.69922,5.42233 -16.13863,7.85043 -31.96457,18.11171 -63.90579,36.26466 -95.89262,54.33707 -7.01433,-8.99341 -15.74297,-16.81129 -20.62148,-27.26168 -5.27289,-8.90846 -14.81327,-14.28827 -24.0101,-18.33376 -15.23603,-4.99588 -30.85197,-9.51078 -46.899,-10.63118 -5.95769,-0.78719 -9.65981,5.81137 -7.384,10.93012 3.49715,6.27352 10.56081,9.65447 15.63794,14.62354 16.32028,13.51734 32.64845,27.02512 48.96414,40.54796 -29.46184,2.48299 -59.0362,4.46008 -88.42562,7.26958 -5.77875,1.8759 -7.27917,11.31706 -1.66139,14.42141 5.57878,3.24727 12.5459,0.96137 18.71591,1.63067 32.97634,-0.10525 65.95607,-0.15883 98.9336,-0.25891 37.66255,30.82504 75.11777,61.97166 112.9009,92.6067 5.98541,3.86313 12.07208,-2.66405 14.08869,-8.02003 6.83359,-13.34001 14.41038,-26.46598 20.80417,-39.93056 1.65009,-5.66076 -3.96174,-11.85558 -9.76869,-9.56594 -6.10241,2.57823 -9.25711,9.25725 -13.90007,13.78458 -5.08481,5.83498 -10.12099,11.71142 -15.1875,17.5625 -27.20833,-26.36458 -54.41667,-52.72917 -81.625,-79.09375 32.26794,-22.7123 64.57319,-45.37292 96.8125,-68.125 4.62017,-4.72764 1.57397,-14.25402 -5.34375,-14.34375 z"
   id="path146248"
   inkscape:connector-curvature="0" />
</g>
</svg>