<?xml version="1.0" standalone="no"?>
<!DOCTYPE svg PUBLIC "-//W3C//DTD SVG 1.1//EN"
 "http://www.w3.org/Graphics/SVG/1.1/DTD/svg11.dtd">
<!-- Created with svg_stack (http://github.com/astraw/svg_stack) -->
<svg xmlns:sodipodi="http://sodipodi.sourceforge.net/DTD/sodipodi-0.dtd" xmlns="http://www.w3.org/2000/svg" version="1.1" width="1642.5" height="1587.5">
  <defs/>
  <g id="id0:id0" transform="matrix(1.25,0,0,1.25,0.0,0.0)"><g transform="translate(0.000000,1270.000000) scale(0.100000,-0.100000)" fill="#00ff00" stroke="none">
<path d="M2805 12443 c-77 -141 -163 -299 -192 -352 l-52 -96 490 -275 489 -275 268 -285 c147 -157 434 -454 638 -660 l371 -375 212 -387 c117 -213 215 -396 218 -406 4 -16 -8 -22 -73 -42 -42 -12 -123 -43 -178 -67 -56 -25 -151 -65 -211 -88 -61 -24 -165 -75 -232 -114 l-123 -71 -242 151 c-225 140 -277 167 -698 364 l-455 212 -565 136 -565 136 -500 46 c-275 25 -518 45 -540 45 -30 0 -851 -147 -862 -155 -5 -3 144 -775 150 -782 4 -3 165 24 359 61 194 36 371 66 393 66 22 0 236 -23 475 -50 l435 -49 480 -114 480 -114 385 -183 c312 -148 620 -310 620 -326 0 -1 -17 -29 -38 -61 -123 -186 -166 -272 -229 -453 -30 -84 -42 -139 -47 -205 -4 -49 -12 -120 -17 -157 -12 -88 27 -341 73 -473 112 -326 354 -628 698 -875 191 -136 477 -292 663 -361 l117 -44 0 -2882 0 -2883 1570 0 1570 0 2 2916 3 2915 121 54 c365 161 706 400 943 659 121 132 139 158 276 401 41 72 124 326 134 410 23 184 23 237 1 397 -15 114 -28 173 -47 215 -14 32 -42 101 -62 154 -23 58 -59 127 -94 176 -31 45 -57 85 -57 90 0 22 291 178 630 339 l375 177 480 114 480 114 440 49 c242 27 458 50 480 50 22 0 196 -30 388 -66 191 -37 350 -64 354 -61 6 7 155 779 150 782 -11 8 -832 155 -862 155 -22 0 -265 -20 -540 -45 l-500 -46 -560 -136 -560 -136 -455 -212 c-407 -190 -480 -227 -690 -357 l-235 -144 -70 38 c-176 97 -344 176 -519 243 -251 96 -246 94 -246 101 0 3 97 180 217 393 l216 386 351 355 c194 195 479 492 634 660 l281 305 490 275 490 275 -52 96 c-283 522 -333 609 -347 605 -8 -2 -255 -138 -548 -303 l-533 -299 -350 -374 c-193 -206 -514 -539 -713 -740 l-363 -365 -267 -487 c-205 -373 -272 -504 -288 -561 l-21 -76 -51 7 c-59 8 -667 9 -865 2 l-134 -5 -26 80 c-18 54 -112 237 -290 560 l-264 480 -386 390 c-213 215 -532 548 -709 740 l-322 351 -541 299 c-297 165 -546 301 -552 302 -7 2 -75 -113 -152 -254z"/>
</g>
</g>
  <g id="id1:id1" transform="matrix(1.25,0,0,1.25,0.0,0.0)"><g transform="translate(0.000000,1270.000000) scale(0.100000,-0.100000)" fill="#ffffff" stroke="none">
</g>
</g>
</svg>
