<?xml version="1.0" standalone="no"?>
<!DOCTYPE svg PUBLIC "-//W3C//DTD SVG 1.1//EN"
 "http://www.w3.org/Graphics/SVG/1.1/DTD/svg11.dtd">
<!-- Created with svg_stack (http://github.com/astraw/svg_stack) -->
<svg xmlns:sodipodi="http://sodipodi.sourceforge.net/DTD/sodipodi-0.dtd" xmlns="http://www.w3.org/2000/svg" version="1.1" width="1786.25" height="1592.5">
  <defs/>
  <g id="id0:id0" transform="matrix(1.25,0,0,1.25,0.0,0.0)"><g transform="translate(0.000000,1274.000000) scale(0.100000,-0.100000)" fill="#00ff00" stroke="none">
<path d="M10476 7992 c-698 -2611 -1271 -4752 -1273 -4757 -4 -13 876 -250 886 -239 4 5 379 1398 832 3096 453 1698 826 3088 829 3088 3 0 374 -1390 824 -3088 451 -1698 823 -3091 827 -3096 10 -11 890 226 886 239 -2 5 -572 2146 -1268 4757 -695 2611 -1266 4748 -1269 4748 -3 0 -576 -2137 -1274 -4748z"/>
<path d="M3100 6544 c-195 -14 -520 -79 -735 -146 -307 -96 -726 -312 -962 -494 -369 -286 -533 -449 -751 -745 -238 -325 -471 -827 -561 -1209 -121 -516 -121 -1067 0 -1605 84 -374 319 -884 548 -1190 211 -283 365 -449 556 -604 306 -246 428 -327 705 -466 l170 -85 1340 0 1340 0 170 85 c228 114 392 218 595 377 208 163 355 304 489 468 336 412 468 647 655 1170 69 195 130 504 151 774 35 446 -24 960 -151 1316 -119 334 -207 526 -340 741 -220 359 -464 631 -804 897 -191 150 -362 260 -544 351 -380 191 -634 274 -1031 338 -137 22 -191 25 -470 28 -173 1 -340 1 -370 -1z m696 -932 c327 -54 723 -206 981 -375 128 -84 408 -330 520 -457 88 -101 264 -362 321 -475 133 -270 213 -505 259 -770 25 -146 25 -626 0 -775 -39 -230 -96 -408 -211 -664 -148 -327 -357 -602 -648 -851 -123 -106 -353 -265 -433 -301 l-56 -24 -1118 0 -1119 0 -56 25 c-31 14 -131 75 -223 137 -151 100 -185 129 -338 282 -233 233 -370 418 -490 655 -112 225 -199 491 -242 741 -25 148 -25 629 0 775 40 227 127 505 217 693 69 143 258 431 359 547 90 103 328 321 442 405 316 233 764 398 1229 454 19 2 136 3 260 1 168 -2 256 -8 346 -23z"/>
</g>
</g>
  <g id="id1:id1" transform="matrix(1.25,0,0,1.25,0.0,0.0)"><g transform="translate(0.000000,1274.000000) scale(0.100000,-0.100000)" fill="#ffffff" stroke="none">
</g>
</g>
</svg>
