<?xml version="1.0" encoding="UTF-8" standalone="no"?>
<svg
   xmlns:dc="http://purl.org/dc/elements/1.1/"
   xmlns:cc="http://creativecommons.org/ns#"
   xmlns:rdf="http://www.w3.org/1999/02/22-rdf-syntax-ns#"
   xmlns:svg="http://www.w3.org/2000/svg"
   xmlns="http://www.w3.org/2000/svg"
   xmlns:sodipodi="http://sodipodi.sourceforge.net/DTD/sodipodi-0.dtd"
   xmlns:inkscape="http://www.inkscape.org/namespaces/inkscape"
   viewBox="0 0 354.9375 350.53576"
   version="1.1"
   xml:space="preserve"
   id="svg300049"
   inkscape:version="0.48.3.1 r9886"
   width="100%"
   height="100%"
   sodipodi:docname="alkis3625.svg"
   style="fill-rule:evenodd;stroke-linecap:round;stroke-linejoin:round"><metadata
   id="metadata300186"><rdf:RDF><cc:Work
       rdf:about=""><dc:format>image/svg+xml</dc:format><dc:type
         rdf:resource="http://purl.org/dc/dcmitype/StillImage" /></cc:Work></rdf:RDF></metadata><sodipodi:namedview
   pagecolor="#ffffff"
   bordercolor="#666666"
   borderopacity="1"
   objecttolerance="10"
   gridtolerance="10"
   guidetolerance="10"
   inkscape:pageopacity="0"
   inkscape:pageshadow="2"
   inkscape:window-width="1855"
   inkscape:window-height="1025"
   id="namedview300184"
   showgrid="false"
   inkscape:zoom="1.5733333"
   inkscape:cx="178.67739"
   inkscape:cy="175.625"
   inkscape:window-x="0"
   inkscape:window-y="33"
   inkscape:window-maximized="1"
   inkscape:current-layer="svg300049" />
<defs
   id="defs300051">
<clipPath
   id="clipId0">
<path
   d="M 0,600 800,600 800,0 0,0 z"
   id="path300054"
   inkscape:connector-curvature="0" />
</clipPath>
</defs>
<g
   clip-path="url(#clipId0)"
   id="g300056"
   style="fill:none;stroke:#000000;stroke-width:0.1"
   transform="translate(-222.5938,-125.08924)" />
<g
   clip-path="url(#clipId0)"
   id="g300058"
   style="fill:#510000;stroke:none"
   transform="translate(-222.5938,-125.08924)">





























































<path
   style="fill-rule:nonzero"
   d="m 400.0625,125.09375 c -47.31848,-0.42588 -93.13659,29.37521 -111.64974,72.96412 -10.85122,22.78592 -10.87537,48.35844 -10.38146,73.012 0,57.83088 0,115.66175 0,173.49263 -18.47917,0 -36.95833,0 -55.4375,0 0,10.35417 0,20.70833 0,31.0625 28.83333,0 57.66667,0 86.5,0 -0.44561,-8.24343 7.12038,-14.26951 10.25942,-21.52083 51.81525,-86.24367 103.59617,-172.50797 155.39683,-258.76042 13.74625,18.91145 17.54522,42.8679 16.25,65.74909 0,71.51072 0,143.02144 0,214.53216 28.84375,0 57.6875,0 86.53125,0 0,-10.35417 0,-20.70833 0,-31.0625 -18.48958,0 -36.97917,0 -55.46875,0 -0.11931,-67.74275 0.23681,-135.91504 -0.17473,-203.38331 -1.7935,-48.19793 -35.10686,-93.23029 -80.75556,-108.87185 -13.12724,-4.8066 -27.11011,-7.06212 -41.06976,-7.21359 z"
   id="path300182"
   inkscape:connector-curvature="0" />
</g>
</svg>