<?xml version="1.0" standalone="no"?>
<!DOCTYPE svg PUBLIC "-//W3C//DTD SVG 1.1//EN"
 "http://www.w3.org/Graphics/SVG/1.1/DTD/svg11.dtd">
<!-- Created with svg_stack (http://github.com/astraw/svg_stack) -->
<svg xmlns:sodipodi="http://sodipodi.sourceforge.net/DTD/sodipodi-0.dtd" xmlns="http://www.w3.org/2000/svg" version="1.1" width="1590.0" height="1590.0">
  <defs/>
  <g id="id0:id0" transform="matrix(1.25,0,0,1.25,0.0,0.0)"><g transform="translate(0.000000,1272.000000) scale(0.100000,-0.100000)" fill="#000000" stroke="none">
<path d="M5970 12710 c-204 -10 -542 -54 -835 -106 -445 -81 -997 -258 -1440 -464 -272 -126 -613 -319 -890 -504 -802 -534 -1520 -1313 -1995 -2165 -398 -714 -689 -1613 -764 -2358 -55 -537 -54 -957 0 -1503 91 -909 491 -1998 1017 -2770 313 -459 608 -803 982 -1145 643 -587 1297 -990 2120 -1303 418 -160 935 -283 1455 -349 l285 -36 450 0 c446 -1 452 0 715 32 526 63 1100 201 1502 360 856 339 1469 716 2103 1296 374 342 669 686 982 1145 245 360 505 872 663 1308 193 529 309 1009 354 1462 54 545 54 965 0 1503 -75 745 -366 1644 -764 2358 -479 858 -1223 1663 -2007 2171 -498 322 -871 513 -1343 688 -495 183 -913 282 -1490 350 -228 28 -292 31 -605 34 -192 3 -415 1 -495 -4z"/>
</g>
</g>
  <g id="id1:id1" transform="matrix(1.25,0,0,1.25,0.0,0.0)"><g transform="translate(0.000000,1272.000000) scale(0.100000,-0.100000)" fill="#ffffff" stroke="none">
</g>
</g>
</svg>
