<?xml version="1.0" encoding="UTF-8" standalone="no"?>
<!-- Created with Inkscape (http://www.inkscape.org/) -->

<svg
   xmlns:dc="http://purl.org/dc/elements/1.1/"
   xmlns:cc="http://creativecommons.org/ns#"
   xmlns:rdf="http://www.w3.org/1999/02/22-rdf-syntax-ns#"
   xmlns:svg="http://www.w3.org/2000/svg"
   xmlns="http://www.w3.org/2000/svg"
   xmlns:inkscape="http://www.inkscape.org/namespaces/inkscape"
   version="1.1"
   width="100%"
   height="100%"
   viewBox="0 0 349.9375 349.9375"
   id="svg14992"
   xml:space="preserve"
   style="fill-rule:evenodd;stroke-linecap:round;stroke-linejoin:round"><metadata
     id="metadata15195"><rdf:RDF><cc:Work
         rdf:about=""><dc:format>image/svg+xml</dc:format><dc:type
           rdf:resource="http://purl.org/dc/dcmitype/StillImage" /></cc:Work></rdf:RDF></metadata><defs
     id="defs14994"><clipPath
       id="clipId0"><path
         d="M 0,600 800,600 800,0 0,0 z"
         inkscape:connector-curvature="0"
         id="path14997" /></clipPath></defs><g
     transform="translate(-223.59375,-124.875)"
     clip-path="url(#clipId0)"
     id="g14999"
     style="fill:none;stroke:#000000;stroke-width:0.1" /><path
     d="m 162.875,0 c 0,9.59375 0,19.1875 0,28.78125 -30.25171,2.52167 -59.51946,14.68332 -82.71875,34.25 C 73.375,56.25 66.59375,49.46875 59.8125,42.6875 c -5.70833,5.70833 -11.41667,11.41667 -17.125,17.125 6.78125,6.78125 13.5625,13.5625 20.34375,20.34375 -19.57326,23.19742 -31.72851,52.46572 -34.25,82.71875 -9.59375,0 -19.1875,0 -28.78125,0 0,8.07292 0,16.14583 0,24.21875 9.59375,0 19.1875,0 28.78125,0 2.53601,30.23661 14.66685,59.51149 34.25,82.6875 -6.78125,6.78125 -13.5625,13.5625 -20.34375,20.34375 5.70833,5.70833 11.41667,11.41667 17.125,17.125 6.79167,-6.78125 13.58333,-13.5625 20.375,-20.34375 23.16513,19.62165 52.45322,31.68972 82.6875,34.28125 0,9.58333 0,19.16667 0,28.75 8.07292,0 16.14583,0 24.21875,0 0,-9.58333 0,-19.16667 0,-28.75 30.23523,-2.59549 59.51417,-14.67063 82.6875,-34.28125 6.78125,6.78125 13.5625,13.5625 20.34375,20.34375 5.70833,-5.70833 11.41667,-11.41667 17.125,-17.125 -6.78125,-6.78125 -13.5625,-13.5625 -20.34375,-20.34375 19.61308,-23.17197 31.68322,-52.45327 34.28125,-82.6875 9.58333,0 19.16667,0 28.75,0 0,-8.07292 0,-16.14583 0,-24.21875 -9.58333,0 -19.16667,0 -28.75,0 -2.5865,-30.23735 -14.65764,-59.5219 -34.28125,-82.6875 6.78125,-6.79167 13.5625,-13.58333 20.34375,-20.375 -5.70833,-5.70833 -11.41667,-11.41667 -17.125,-17.125 -6.78125,6.78125 -13.5625,13.5625 -20.34375,20.34375 -23.17453,-19.58631 -52.45203,-31.71068 -82.6875,-34.25 0,-9.59375 0,-19.1875 0,-28.78125 -8.07292,0 -16.14583,0 -24.21875,0 z m 12.09375,52.5 c 47.46807,-0.43083 93.43827,29.44611 112.03269,73.16373 20.20936,44.3415 10.15417,100.16128 -24.28377,134.64964 -33.29967,35.14147 -88.27475,46.8282 -133.02659,28.3975 C 84.5172,271.34663 52.66793,225.07911 52.56673,176.68157 51.32912,128.63182 81.43712,81.7711 125.66373,62.93606 141.13725,56.05067 158.0496,52.63017 174.96875,52.5 z m -86.125,36.34375 c 0,53.38542 0.89886,118.68079 0.89886,172.06621 40.04098,-0.26413 117.96885,0.21504 171.38239,0.21504 0,-57.42708 0,-114.85417 0,-172.28125 -57.42708,0 -114.85417,0 -172.28125,0 z m 24.21875,24.21875 c 41.27083,0 82.54167,0 123.8125,0 0,41.27083 0,82.54167 0,123.8125 -41.27083,0 -82.54167,0 -123.8125,0 0,-41.27083 0,-82.54167 0,-123.8125 z"
     inkscape:connector-curvature="0"
     id="path15191"
     style="fill:#000000;fill-rule:nonzero;stroke:none" /></svg>