<?xml version="1.0" standalone="no"?>
<!DOCTYPE svg PUBLIC "-//W3C//DTD SVG 1.1//EN"
 "http://www.w3.org/Graphics/SVG/1.1/DTD/svg11.dtd">
<!-- Created with svg_stack (http://github.com/astraw/svg_stack) -->
<svg xmlns:sodipodi="http://sodipodi.sourceforge.net/DTD/sodipodi-0.dtd" xmlns="http://www.w3.org/2000/svg" version="1.1" width="1595.0" height="1593.75">
  <defs/>
  <g id="id0:id0" transform="matrix(1.25,0,0,1.25,0.0,0.0)"><g transform="translate(0.000000,1275.000000) scale(0.100000,-0.100000)" fill="#000000" stroke="none">
<path d="M5985 12740 c-558 -31 -1307 -190 -1820 -388 -315 -122 -653 -278 -900 -417 -1166 -654 -2107 -1669 -2663 -2874 -155 -337 -280 -670 -357 -956 -322 -1194 -321 -2265 0 -3460 155 -576 495 -1317 828 -1805 398 -583 785 -1002 1367 -1479 314 -258 863 -595 1269 -780 626 -286 1335 -483 1966 -547 249 -26 303 -28 705 -28 402 0 456 2 705 28 631 64 1340 261 1966 547 406 185 956 522 1269 779 581 477 969 897 1367 1480 333 488 673 1229 828 1805 321 1195 322 2266 0 3460 -77 286 -202 619 -357 956 -416 900 -1029 1676 -1833 2320 -490 391 -1063 713 -1730 971 -416 160 -958 291 -1470 354 -260 32 -305 34 -635 38 -195 2 -422 1 -505 -4z m1075 -579 c449 -52 852 -150 1360 -329 353 -125 859 -384 1215 -622 593 -397 1208 -1014 1590 -1595 249 -380 487 -848 615 -1210 231 -658 330 -1149 360 -1799 28 -589 -52 -1258 -217 -1816 -150 -511 -277 -815 -525 -1268 -348 -634 -896 -1281 -1460 -1721 -866 -676 -1823 -1070 -2962 -1221 -225 -29 -238 -30 -655 -30 l-426 0 -255 35 c-993 134 -1788 430 -2578 957 -501 334 -893 699 -1317 1223 -626 772 -1097 1912 -1209 2922 -54 489 -54 888 0 1376 95 855 439 1791 939 2552 382 582 997 1198 1590 1595 364 243 862 497 1230 626 489 172 926 279 1335 325 283 32 426 38 790 33 277 -3 362 -8 580 -33z"/>
</g>
</g>
  <g id="id1:id1" transform="matrix(1.25,0,0,1.25,0.0,0.0)"><g transform="translate(0.000000,1275.000000) scale(0.100000,-0.100000)" fill="#ffffff" stroke="none">
<path d="M6020 12191 c-541 -31 -1061 -142 -1665 -355 -368 -129 -866 -383 -1230 -626 -593 -397 -1208 -1013 -1590 -1595 -500 -761 -844 -1697 -939 -2552 -54 -488 -54 -887 0 -1376 95 -855 439 -1790 940 -2552 307 -468 791 -995 1226 -1334 352 -275 815 -558 1184 -724 565 -254 1095 -403 1754 -492 l255 -35 426 0 c417 0 430 1 655 30 996 132 1810 433 2602 962 501 334 893 699 1317 1223 341 420 706 1073 885 1580 232 659 330 1150 360 1801 20 420 -21 943 -106 1367 -85 429 -265 974 -437 1328 -300 621 -576 1031 -995 1482 -547 588 -1099 990 -1844 1343 -339 161 -878 337 -1283 420 -350 72 -658 103 -1055 108 -179 2 -386 1 -460 -3z"/>
</g>
</g>
</svg>
