<?xml version="1.0" standalone="no"?>
<!DOCTYPE svg PUBLIC "-//W3C//DTD SVG 1.1//EN"
 "http://www.w3.org/Graphics/SVG/1.1/DTD/svg11.dtd">
<!-- Created with svg_stack (http://github.com/astraw/svg_stack) -->
<svg xmlns:sodipodi="http://sodipodi.sourceforge.net/DTD/sodipodi-0.dtd" xmlns="http://www.w3.org/2000/svg" version="1.1" width="1595.0" height="1595.0">
  <defs/>
  <g id="id0:id0" transform="matrix(1.25,0,0,1.25,0.0,0.0)"><g transform="translate(0.000000,1276.000000) scale(0.100000,-0.100000)" fill="#000000" stroke="none">
<path d="M5625 12725 c-637 -79 -1319 -273 -1916 -546 -406 -185 -955 -522 -1269 -780 -438 -358 -803 -725 -1073 -1074 -549 -712 -878 -1356 -1127 -2208 -168 -577 -258 -1346 -230 -1983 21 -504 108 -1060 231 -1481 248 -851 577 -1496 1127 -2208 603 -781 1433 -1440 2335 -1852 613 -280 1300 -473 1967 -554 262 -32 270 -33 710 -33 440 0 448 1 710 33 1009 122 2050 503 2835 1037 876 595 1500 1271 2020 2189 393 694 674 1550 776 2370 l32 260 0 490 0 490 -32 260 c-103 821 -383 1676 -776 2370 -353 623 -735 1107 -1234 1564 -391 358 -748 617 -1206 878 -701 399 -1553 677 -2380 778 l-280 35 -480 -1 c-478 -1 -481 -2 -740 -34z m1405 -490 c334 -36 655 -98 950 -185 485 -143 917 -322 1284 -532 845 -484 1464 -1057 2018 -1866 214 -313 474 -822 624 -1220 141 -377 260 -872 325 -1360 32 -237 32 -237 32 -687 0 -449 0 -451 -32 -685 -92 -689 -264 -1295 -509 -1803 -298 -615 -568 -1016 -1015 -1509 -377 -416 -951 -869 -1447 -1143 -714 -394 -1348 -598 -2225 -716 -238 -32 -243 -32 -655 -32 -411 0 -417 0 -655 32 -697 93 -1279 257 -1804 506 -614 291 -1050 581 -1534 1019 -318 288 -691 725 -909 1066 -289 454 -456 784 -613 1211 -230 629 -333 1143 -365 1823 -28 591 51 1257 217 1831 352 1218 1049 2264 2012 3021 856 672 1946 1119 3001 1228 305 32 351 34 740 30 255 -2 362 -8 560 -29z"/>
</g>
</g>
  <g id="id1:id1" transform="matrix(1.25,0,0,1.25,0.0,0.0)"><g transform="translate(0.000000,1276.000000) scale(0.100000,-0.100000)" fill="#ffffff" stroke="none">
</g>
</g>
</svg>
