<?xml version="1.0" encoding="UTF-8" standalone="no"?>
<svg
   xmlns:dc="http://purl.org/dc/elements/1.1/"
   xmlns:cc="http://creativecommons.org/ns#"
   xmlns:rdf="http://www.w3.org/1999/02/22-rdf-syntax-ns#"
   xmlns:svg="http://www.w3.org/2000/svg"
   xmlns="http://www.w3.org/2000/svg"
   xmlns:sodipodi="http://sodipodi.sourceforge.net/DTD/sodipodi-0.dtd"
   xmlns:inkscape="http://www.inkscape.org/namespaces/inkscape"
   viewBox="0 0 120.6875 350.5917"
   version="1.1"
   xml:space="preserve"
   id="svg4796"
   inkscape:version="0.48.3.1 r9886"
   width="100%"
   height="100%"
   sodipodi:docname="alkis3553.svg"
   style="fill-rule:evenodd;stroke-linecap:round;stroke-linejoin:round"><metadata
   id="metadata4983"><rdf:RDF><cc:Work
       rdf:about=""><dc:format>image/svg+xml</dc:format><dc:type
         rdf:resource="http://purl.org/dc/dcmitype/StillImage" /></cc:Work></rdf:RDF></metadata><sodipodi:namedview
   pagecolor="#ffffff"
   bordercolor="#666666"
   borderopacity="1"
   objecttolerance="10"
   gridtolerance="10"
   guidetolerance="10"
   inkscape:pageopacity="0"
   inkscape:pageshadow="2"
   inkscape:window-width="1855"
   inkscape:window-height="1025"
   id="namedview4981"
   showgrid="false"
   inkscape:zoom="1.1125147"
   inkscape:cx="64.396779"
   inkscape:cy="61.55549"
   inkscape:window-x="0"
   inkscape:window-y="33"
   inkscape:window-maximized="1"
   inkscape:current-layer="svg4796" />
<defs
   id="defs4798">
<clipPath
   id="clipId0">
<path
   d="M 0,600 800,600 800,0 0,0 z"
   id="path4801"
   inkscape:connector-curvature="0" />
</clipPath>
























































































</defs>
<g
   clip-path="url(#clipId0)"
   id="g4803"
   style="fill:none;stroke:#000000;stroke-width:0.1"
   transform="translate(-337.71875,-124.46875)" />

<path
   style="fill:#000000;fill-opacity:1;fill-rule:nonzero;stroke:#000000;stroke-width:0.25"
   d="m 60.125,0.125 c 0.0845,2.14605 0.0421,4.32002 0,6.5 l 0,-6.5 z m 0,0 -56.375,97.625 -3.625,6.90625 8.5625,0.0312 c 0.67706,0.54761 1.75737,0.67421 3.53125,0.125 l 43.1875,0 0,158.5 c -8.73389,1.19881 -19.05759,4.90541 -25.5,11.53125 -18.46742,16.42707 -17.90739,48.11384 0.59375,64.28125 18.39426,17.73993 51.72614,14.20184 65.65625,-7.34375 14.5665,-19.64729 8.10976,-50.26908 -13,-62.53125 -6.8323,-4.505 -12.32222,-5.42831 -18.34375,-5.96875 l 0,-158.46875 55.75,0 L 60.125,0.12495 z m 0,15.125 c 0.0611,1.45405 0.17843,2.89473 0.375,4.3125 l 43.75,75.84375 -89.40625,0 45.28125,-76.46875 0,-3.6875 z m -0.1875,256.90625 c 21.79436,-0.7655 40.229,22.5524 33.46875,43.625 -5.15647,21.91431 -33.52667,32.70846 -52,19.9375 C 22.04093,324.2692 20.33665,293.81249 38.0625,280.125 c 6.08205,-5.12582 13.94704,-7.90657 21.875,-7.96875 z"
   id="polyline4969"
   inkscape:connector-curvature="0" />

</svg>