<?xml version="1.0" standalone="no"?>
<!DOCTYPE svg PUBLIC "-//W3C//DTD SVG 1.1//EN"
 "http://www.w3.org/Graphics/SVG/1.1/DTD/svg11.dtd">
<!-- Created with svg_stack (http://github.com/astraw/svg_stack) -->
<svg xmlns:sodipodi="http://sodipodi.sourceforge.net/DTD/sodipodi-0.dtd" xmlns="http://www.w3.org/2000/svg" version="1.1" width="805.0" height="1591.25">
  <defs/>
  <g id="id0:id0" transform="matrix(1.25,0,0,1.25,0.0,0.0)"><g transform="translate(0.000000,1273.000000) scale(0.100000,-0.100000)" fill="#181512" stroke="none">
<path d="M3000 12467 l0 -264 -87 -12 c-124 -17 -291 -48 -408 -77 -276 -68 -714 -290 -954 -483 -35 -28 -67 -51 -70 -51 -4 0 -91 82 -195 182 l-188 181 -154 -154 -154 -154 128 -130 c70 -71 153 -157 185 -190 l57 -61 -56 -74 c-180 -240 -308 -467 -412 -730 -44 -113 -136 -467 -146 -565 -4 -33 -9 -81 -12 -107 l-6 -48 -264 0 -264 0 0 -225 0 -225 265 0 264 0 5 -32 c3 -18 8 -62 11 -98 11 -109 102 -467 151 -590 94 -237 239 -495 401 -710 l64 -84 -185 -186 -185 -185 154 -160 154 -160 188 187 188 188 70 -57 c124 -99 298 -208 466 -291 295 -146 562 -227 902 -273 l87 -12 0 -1333 0 -1334 -22 -4 c-13 -2 -70 -12 -128 -22 -232 -38 -563 -168 -766 -302 -368 -243 -644 -588 -812 -1017 -91 -233 -145 -608 -123 -857 30 -330 85 -536 212 -788 181 -359 411 -618 734 -829 179 -117 497 -246 705 -287 289 -57 541 -58 835 -4 108 20 397 119 510 175 207 102 381 228 551 401 226 228 339 402 458 704 111 283 146 463 146 760 0 297 -35 477 -146 760 -94 237 -177 384 -308 540 -368 440 -790 676 -1373 766 l-33 5 0 1333 0 1333 88 12 c535 73 966 249 1366 560 l79 62 183 -188 182 -188 162 160 162 160 -187 182 c-130 126 -185 186 -179 195 4 7 33 47 64 88 72 96 244 377 304 498 103 206 211 575 231 787 3 39 8 85 11 103 l5 32 264 0 265 0 0 225 0 225 -265 0 c-205 0 -265 3 -265 13 -1 46 -32 260 -50 346 -31 152 -132 445 -199 579 -91 180 -198 357 -301 492 -31 41 -60 81 -64 89 -6 9 46 67 178 200 l187 187 -161 154 -161 154 -182 -182 c-100 -100 -186 -182 -190 -182 -5 0 -45 29 -90 63 -207 161 -447 295 -727 407 -128 51 -432 118 -652 145 l-58 7 0 264 0 264 -220 0 -220 0 0 -263z m450 -717 c267 -32 397 -64 640 -160 417 -165 806 -495 1043 -885 128 -211 222 -439 276 -665 51 -214 65 -328 64 -530 0 -206 -12 -309 -65 -530 -52 -221 -133 -418 -261 -632 -109 -185 -189 -290 -322 -423 -140 -141 -242 -220 -426 -330 -251 -151 -384 -207 -634 -266 -214 -51 -360 -69 -545 -69 -184 0 -321 18 -535 69 -244 58 -360 103 -580 229 -325 185 -569 418 -785 748 -162 248 -263 517 -320 856 -65 380 -28 743 117 1148 150 421 476 823 895 1103 259 173 591 289 963 336 99 12 375 13 475 1z m135 -8080 c192 -46 247 -66 391 -142 507 -268 826 -748 874 -1316 21 -251 -19 -512 -112 -737 -73 -175 -101 -227 -197 -359 -143 -198 -336 -363 -568 -485 -162 -86 -313 -136 -503 -167 -187 -31 -308 -31 -497 1 -184 30 -347 84 -502 166 -176 93 -253 151 -402 299 -202 201 -308 371 -394 629 -116 351 -114 706 7 1060 84 248 188 412 387 612 149 149 245 219 426 311 120 61 186 84 345 123 147 37 229 44 435 40 159 -4 195 -8 310 -35z"/>
<path d="M3070 10963 c-296 -22 -624 -172 -852 -392 -114 -109 -162 -168 -237 -293 -115 -193 -162 -316 -202 -537 -39 -214 -15 -476 63 -706 80 -234 239 -468 435 -636 167 -144 337 -230 608 -306 l130 -37 205 0 205 0 131 37 c298 84 415 142 603 300 84 71 134 123 215 229 136 175 197 301 268 555 33 117 33 120 33 338 0 218 0 221 -33 338 -18 64 -44 146 -57 182 -87 231 -246 452 -434 603 -318 256 -653 357 -1081 325z m413 -474 c100 -25 141 -41 226 -90 145 -83 220 -147 311 -265 128 -165 177 -284 205 -494 15 -116 15 -134 0 -250 -20 -160 -27 -184 -84 -305 -103 -217 -302 -411 -520 -505 -144 -62 -255 -85 -406 -84 -109 0 -145 4 -226 27 -182 51 -286 104 -420 215 -88 72 -163 165 -231 287 -92 164 -128 303 -128 493 1 234 69 425 229 641 105 141 307 272 506 326 109 30 133 33 268 34 134 1 160 -2 270 -30z"/>
</g>
</g>
  <g id="id1:id1" transform="matrix(1.25,0,0,1.25,0.0,0.0)"><g transform="translate(0.000000,1273.000000) scale(0.100000,-0.100000)" fill="#ffffff" stroke="none">
</g>
</g>
</svg>
