<?xml version="1.0" encoding="UTF-8" standalone="no"?>
<!-- Created with Inkscape (http://www.inkscape.org/) -->

<svg
   xmlns:dc="http://purl.org/dc/elements/1.1/"
   xmlns:cc="http://creativecommons.org/ns#"
   xmlns:rdf="http://www.w3.org/1999/02/22-rdf-syntax-ns#"
   xmlns:svg="http://www.w3.org/2000/svg"
   xmlns="http://www.w3.org/2000/svg"
   xmlns:inkscape="http://www.inkscape.org/namespaces/inkscape"
   version="1.1"
   width="100%"
   height="100%"
   viewBox="0 0 359.59375 359.59375"
   id="svg9666"
   xml:space="preserve"
   style="fill-rule:evenodd;stroke-linecap:round;stroke-linejoin:round"><metadata
     id="metadata9917"><rdf:RDF><cc:Work
         rdf:about=""><dc:format>image/svg+xml</dc:format><dc:type
           rdf:resource="http://purl.org/dc/dcmitype/StillImage" /></cc:Work></rdf:RDF></metadata><defs
     id="defs9668"><clipPath
       id="clipId0"><path
         d="M 0,600 800,600 800,0 0,0 z"
         inkscape:connector-curvature="0"
         id="path9671" /></clipPath></defs><g
     transform="translate(-221.03125,-119.875)"
     clip-path="url(#clipId0)"
     id="g9673"
     style="fill:none;stroke:#000000;stroke-width:0.1" /><g
     transform="translate(-221.03125,-119.875)"
     clip-path="url(#clipId0)"
     id="g9675"
     style="fill:#ffffff;stroke:none"><path
       d="m 221.03125,119.875 0,359.59375 359.59375,0 0,-359.59375 -359.59375,0 z"
       inkscape:connector-curvature="0"
       id="path9677" /></g><path
     d="m 178.78125,21.5625 c -19.36412,0.45509 -38.44284,15.33076 -40.84375,34.96875 0.39653,4.03699 -0.45506,-4.93617 -0.71875,2.78125 -1.29995,2.8428 -0.54811,16.96191 3.75838,24.14086 9.67093,21.8752 38.78486,31.03213 59.42275,19.20753 10.9245,-6.21472 20.39327,-17.44096 21.25647,-30.31714 1.65324,0.57474 2.17223,-17.13827 -2.625,-25.375 -6.80758,-15.60326 -23.36688,-25.72693 -40.2501,-25.40625 z m 15.40625,102.84375 c -17.4487,11.63274 -38.51196,16.41873 -59.28387,16.79799 -8.997,0.65354 -18.0163,0.41324 -27.02863,0.45201 0,12.70833 0,25.41667 0,38.125 14.38542,0 28.77083,0 43.15625,0 0,36.33333 0,71.65545 0,107.98878 -14.72594,-0.0309 -26.88649,-0.22614 -43.15625,-0.11378 0,11.98958 0,23.97917 0,35.96875 47.94792,0 95.89583,0 143.84375,0 0,-11.98958 0,-23.97917 0,-35.96875 -14.38542,0 -28.77083,0 -43.15625,0 0,-54.41667 0,-108.83333 0,-163.25 -4.79167,0 -9.58333,0 -14.375,0 z"
     inkscape:connector-curvature="0"
     id="path9837"
     style="fill:#ff0000;stroke:none" /><g
     transform="translate(-221.03125,-119.875)"
     clip-path="url(#clipId0)"
     id="g9839"
     style="fill:none;stroke:#ffffff;stroke-width:0.25"><polyline
       points="400.823,141.445 400.823,141.445 "
       id="polyline9841" /></g><g
     transform="translate(-221.03125,-119.875)"
     clip-path="url(#clipId0)"
     id="g9845"
     style="fill:#ff0000;stroke:none" /></svg>