<?xml version="1.0" encoding="UTF-8" standalone="no"?>
<!-- Created with Inkscape (http://www.inkscape.org/) -->

<svg
   xmlns:dc="http://purl.org/dc/elements/1.1/"
   xmlns:cc="http://creativecommons.org/ns#"
   xmlns:rdf="http://www.w3.org/1999/02/22-rdf-syntax-ns#"
   xmlns:svg="http://www.w3.org/2000/svg"
   xmlns="http://www.w3.org/2000/svg"
   xmlns:inkscape="http://www.inkscape.org/namespaces/inkscape"
   version="1.1"
   width="100%"
   height="100%"
   viewBox="0 0 127.15625 351.78195"
   id="svg11709"
   xml:space="preserve"
   style="fill-rule:evenodd;stroke-linecap:round;stroke-linejoin:round"><metadata
     id="metadata12070"><rdf:RDF><cc:Work
         rdf:about=""><dc:format>image/svg+xml</dc:format><dc:type
           rdf:resource="http://purl.org/dc/dcmitype/StillImage" /></cc:Work></rdf:RDF></metadata><defs
     id="defs11711"><clipPath
       id="clipId0"><path
         d="M 0,600 800,600 800,0 0,0 z"
         inkscape:connector-curvature="0"
         id="path11714" /></clipPath></defs><g
     transform="translate(-335.90625,-124.3125)"
     clip-path="url(#clipId0)"
     id="g11716"
     style="fill:none;stroke:#000000;stroke-width:0.1" /><path
     d="m 67.97575,273.8865 -8.803,0 0,-161.393 8.803,0 z"
     inkscape:connector-curvature="0"
     id="path11886"
     style="fill:#000000;stroke:none" /><path
     d="m 63.40625,269.5 c -12.73713,-0.0252 -25.25472,6.30679 -32.7965,16.56954 -8.45597,11.19378 -10.4694,26.82734 -5.13656,39.8026 5.41918,13.86178 18.9297,24.14085 33.76641,25.52916 14.0149,1.63575 28.58034,-4.68163 37.0179,-15.98018 8.64217,-11.1503 10.80884,-26.87699 5.50666,-39.94985 C 96.72319,282.37428 84.48719,272.4131 70.64121,270.12692 68.36831,269.70141 66.06166,269.51102 63.75,269.5 c -0.0467,1.8909 -0.17704,6.07898 -0.27073,1.76712 -0.0236,-0.58907 -0.0478,-1.17812 -0.073,-1.76712 z m 0,8.78125 c 12.40705,-0.14359 24.5029,7.52589 29.52137,18.89577 5.13708,10.97398 3.3166,24.76317 -4.53157,34.00728 -7.99229,9.82637 -22.07407,14.09566 -34.15942,10.24702 -12.17401,-3.48969 -21.55177,-14.82456 -22.72931,-27.4279 -1.41282,-11.87849 4.48704,-24.23124 14.64141,-30.5637 5.09315,-3.33505 11.18256,-5.08209 17.25752,-5.15847 z"
     inkscape:connector-curvature="0"
     id="polyline11882"
     style="fill:#000000;fill-opacity:1;stroke:#000000;stroke-width:0.25" /><g
     transform="translate(-335.90625,-124.3125)"
     clip-path="url(#clipId0)"
     id="g12048"
     style="fill:none;stroke:#000000;stroke-width:0.25" /><path
     d="m 59.1875,0 c 0,3.48958 0,6.97917 0,10.46875 C 48.19085,11.38249 37.53433,15.78974 29.125,22.9375 26.65625,20.46875 24.1875,18 21.71875,15.53125 19.64583,17.60417 17.57292,19.67708 15.5,21.75 c 2.46875,2.46875 4.9375,4.9375 7.40625,7.40625 -7.15437,8.38517 -11.53582,19.05331 -12.4375,30.03125 -3.48958,0 -6.97917,0 -10.46875,0 0,2.9375 0,5.875 0,8.8125 3.48958,0 6.97917,0 10.46875,0 0.89881,10.98074 5.30274,21.63345 12.4375,30.03125 -2.46875,2.46875 -4.9375,4.9375 -7.40625,7.40625 2.07292,2.07292 4.14583,4.14583 6.21875,6.21875 2.46875,-2.46875 4.9375,-4.9375 7.40625,-7.40625 13.66146,11.74139 33.42902,15.70678 50.55904,10.1398 C 86.37888,112.25592 92.6429,108.79994 98,104.25 c 2.46875,2.46875 4.9375,4.9375 7.40625,7.40625 2.08333,-2.07292 4.16667,-4.14583 6.25,-6.21875 C 109.1875,102.96875 106.71875,100.5 104.25,98.03125 111.36961,89.6244 115.76362,78.97639 116.6875,68 c 3.48958,0 6.97917,0 10.46875,0 0,-2.9375 0,-5.875 0,-8.8125 -3.48958,0 -6.97917,0 -10.46875,0 -0.92869,-10.97281 -5.29635,-21.63802 -12.4375,-30.03125 2.46875,-2.46875 4.9375,-4.9375 7.40625,-7.40625 -2.08333,-2.07292 -4.16667,-4.14583 -6.25,-6.21875 C 102.9375,18 100.46875,20.46875 98,22.9375 89.62077,15.76494 78.95044,11.39009 67.96875,10.46875 c 0,-3.48958 0,-6.97917 0,-10.46875 -2.92708,0 -5.85417,0 -8.78125,0 z m 4.21875,19.0625 c 16.32452,-0.14971 32.22046,9.44922 39.63731,23.99781 8.16626,15.29717 6.16265,35.28121 -4.97318,48.59268 C 87.16407,105.43948 67.63182,111.43511 50.8575,106.19653 34.05243,101.45089 21.07568,85.8757 19.38602,68.50356 17.17242,50.94458 26.74133,32.67578 42.42131,24.47273 48.81364,20.92291 56.11627,19.18586 63.40625,19.0625 z"
     inkscape:connector-curvature="0"
     id="path12066"
     style="fill:#000000;fill-rule:nonzero;stroke:none" /></svg>