<?xml version="1.0" encoding="UTF-8" standalone="no"?>
<!-- Created with Inkscape (http://www.inkscape.org/) -->

<svg
   xmlns:dc="http://purl.org/dc/elements/1.1/"
   xmlns:cc="http://creativecommons.org/ns#"
   xmlns:rdf="http://www.w3.org/1999/02/22-rdf-syntax-ns#"
   xmlns:svg="http://www.w3.org/2000/svg"
   xmlns="http://www.w3.org/2000/svg"
   xmlns:inkscape="http://www.inkscape.org/namespaces/inkscape"
   version="1.1"
   width="100%"
   height="100%"
   viewBox="0 0 284.5625 351"
   id="svg9627"
   xml:space="preserve"
   style="fill-rule:evenodd;stroke-linecap:round;stroke-linejoin:round"><metadata
     id="metadata10130"><rdf:RDF><cc:Work
         rdf:about=""><dc:format>image/svg+xml</dc:format><dc:type
           rdf:resource="http://purl.org/dc/dcmitype/StillImage" /></cc:Work></rdf:RDF></metadata><defs
     id="defs9629"><clipPath
       id="clipId0"><path
         d="M 0,600 800,600 800,0 0,0 z"
         inkscape:connector-curvature="0"
         id="path9632" /></clipPath></defs><g
     transform="translate(-257.25,-124.625)"
     clip-path="url(#clipId0)"
     id="g9634"
     style="fill:none;stroke:#000000;stroke-width:0.1" /><g
     transform="translate(-257.25,-124.625)"
     clip-path="url(#clipId0)"
     id="g9636"
     style="fill:#ffffff;stroke:none"><path
       d="m 399.53125,130.125 -137.34375,65.90625 0,274.65625 137.34375,0 137.3125,0 0,-274.65625 -137.3125,-65.90625 z"
       inkscape:connector-curvature="0"
       id="path9644" /></g><g
     transform="translate(-257.25,-124.625)"
     clip-path="url(#clipId0)"
     id="g9646"
     style="fill:#000000;stroke:none"><path
       d="m 399.53125,124.625 c -35.23339,14.69854 -136.60306,66.38154 -142.05653,67.81079 L 257.25,475.625 l 284.5625,0 0,-282.71875 z m 0,10.96875 132.375,63.53125 0,266.625 -264.75,0 0,-266.625 z"
       inkscape:connector-curvature="0"
       id="path9648" /></g><path
     d="m 142.28125,118.15625 c -11.98588,-0.42201 -21.9021,12.17049 -18.6875,23.71875 2.38982,11.74603 16.92803,18.41 27.40625,12.625 10.87647,-5.0695 13.93999,-20.75604 5.90625,-29.625 -3.6253,-4.1978 -9.06893,-6.74021 -14.625,-6.71875 z M 59.875,260.875 c -11.96381,-0.41796 -21.88297,12.14517 -18.6875,23.68745 2.39538,11.73753 16.91846,18.44042 27.40625,12.65625 11.05657,-5.13415 14.04262,-21.29257 5.5327,-30.02119 -3.56739,-4.00844 -8.89207,-6.3488 -14.25145,-6.32251 z m 164.8125,0 c -11.9754,-0.43729 -21.89953,12.13386 -18.71875,23.68745 2.389,11.57546 16.57813,18.32999 27.05394,12.83064 10.95665,-4.82297 14.45671,-20.47783 6.52123,-29.46662 -3.55617,-4.42489 -9.18305,-7.0865 -14.85642,-7.05147 z"
     inkscape:connector-curvature="0"
     id="path9660"
     style="fill:#00ff00;stroke:none" /></svg>