<?xml version="1.0" standalone="no"?>
<!DOCTYPE svg PUBLIC "-//W3C//DTD SVG 1.1//EN"
 "http://www.w3.org/Graphics/SVG/1.1/DTD/svg11.dtd">
<!-- Created with svg_stack (http://github.com/astraw/svg_stack) -->
<svg xmlns:sodipodi="http://sodipodi.sourceforge.net/DTD/sodipodi-0.dtd" xmlns="http://www.w3.org/2000/svg" version="1.1" width="1675.0" height="1592.5">
  <defs/>
  <g id="id0:id0" transform="matrix(1.25,0,0,1.25,0.0,0.0)"><g transform="translate(0.000000,1274.000000) scale(0.100000,-0.100000)" fill="#000000" stroke="none">
<path d="M5370 11596 l0 -1144 -32 -7 c-36 -8 -297 -111 -538 -212 -218 -91 -593 -322 -905 -557 -268 -201 -646 -599 -885 -932 -15 -21 -24 -18 -1100 332 -597 195 -1089 353 -1094 351 -9 -3 -819 -2508 -813 -2512 2 -2 1897 -617 2068 -671 l106 -34 7 -222 c16 -509 96 -917 281 -1437 130 -365 379 -825 597 -1103 l28 -36 -670 -922 c-369 -507 -672 -926 -673 -930 -2 -8 2120 -1560 2132 -1560 3 0 308 417 676 925 474 654 674 924 685 921 244 -78 619 -161 929 -206 192 -28 221 -30 525 -30 301 0 334 2 531 29 283 40 708 134 935 206 11 4 211 -265 685 -920 369 -508 673 -925 676 -925 12 0 2134 1552 2132 1560 -1 4 -304 423 -673 930 l-670 922 29 36 c107 137 345 536 454 762 143 297 286 740 337 1041 62 368 79 509 86 737 l7 222 106 34 c166 53 2066 669 2068 670 4 4 -809 2501 -817 2510 -5 4 -493 -150 -1087 -343 -593 -193 -1084 -351 -1090 -351 -7 0 -13 3 -13 8 0 4 -53 76 -118 159 -302 387 -651 713 -1052 982 -211 142 -454 279 -625 354 -216 94 -495 204 -538 212 l-37 7 0 1144 0 1144 -1325 0 -1325 0 0 -1144z m1725 -2076 c403 -49 670 -124 1036 -290 218 -99 492 -267 709 -434 146 -113 426 -395 537 -542 307 -407 513 -823 622 -1254 159 -634 156 -1138 -10 -1775 -107 -414 -313 -822 -612 -1219 -111 -147 -391 -429 -537 -542 -652 -502 -1348 -744 -2140 -744 -439 0 -839 69 -1175 202 -525 208 -883 436 -1235 788 -193 193 -321 346 -435 520 -159 244 -259 443 -356 710 -160 439 -212 732 -212 1190 0 460 51 750 212 1190 97 267 197 466 356 710 223 342 583 698 955 947 354 236 816 427 1220 504 323 61 754 77 1065 39z"/>
</g>
</g>
  <g id="id1:id1" transform="matrix(1.25,0,0,1.25,0.0,0.0)"><g transform="translate(0.000000,1274.000000) scale(0.100000,-0.100000)" fill="#ffffff" stroke="none">
<path d="M6290 9520 c-388 -47 -648 -121 -1024 -292 -372 -170 -684 -386 -976 -678 -193 -193 -321 -346 -435 -520 -159 -244 -259 -443 -356 -710 -161 -440 -212 -730 -212 -1190 0 -458 52 -751 212 -1190 97 -267 197 -466 356 -710 114 -174 242 -327 435 -520 352 -352 710 -580 1235 -788 599 -237 1433 -269 2100 -82 413 117 843 337 1215 624 146 113 426 395 537 542 221 293 422 650 524 934 116 319 202 751 214 1080 20 501 -115 1141 -330 1570 -207 412 -394 680 -669 955 -348 347 -731 593 -1225 786 -242 94 -477 150 -796 189 -210 26 -592 26 -805 0z"/>
</g>
</g>
</svg>
