<?xml version="1.0" encoding="UTF-8" standalone="no"?>
<svg
   xmlns:dc="http://purl.org/dc/elements/1.1/"
   xmlns:cc="http://creativecommons.org/ns#"
   xmlns:rdf="http://www.w3.org/1999/02/22-rdf-syntax-ns#"
   xmlns:svg="http://www.w3.org/2000/svg"
   xmlns="http://www.w3.org/2000/svg"
   xmlns:sodipodi="http://sodipodi.sourceforge.net/DTD/sodipodi-0.dtd"
   xmlns:inkscape="http://www.inkscape.org/namespaces/inkscape"
   viewBox="0 0 348.53142 348.53125"
   version="1.1"
   xml:space="preserve"
   id="svg2"
   inkscape:version="0.48.3.1 r9886"
   width="100%"
   height="100%"
   sodipodi:docname="alkis3569.svg"
   style="fill-rule:evenodd;stroke-linecap:round;stroke-linejoin:round"><metadata
   id="metadata193"><rdf:RDF><cc:Work
       rdf:about=""><dc:format>image/svg+xml</dc:format><dc:type
         rdf:resource="http://purl.org/dc/dcmitype/StillImage" /></cc:Work></rdf:RDF></metadata><sodipodi:namedview
   pagecolor="#ffffff"
   bordercolor="#666666"
   borderopacity="1"
   objecttolerance="10"
   gridtolerance="10"
   guidetolerance="10"
   inkscape:pageopacity="0"
   inkscape:pageshadow="2"
   inkscape:window-width="1855"
   inkscape:window-height="1025"
   id="namedview191"
   showgrid="false"
   inkscape:zoom="0.78666667"
   inkscape:cx="181.22087"
   inkscape:cy="174.15625"
   inkscape:window-x="0"
   inkscape:window-y="33"
   inkscape:window-maximized="1"
   inkscape:current-layer="svg2" />
<defs
   id="defs4">
<clipPath
   id="clipId0">
<path
   d="M 0,600 800,600 800,0 0,0 z"
   id="path7"
   inkscape:connector-curvature="0" />
</clipPath>
</defs>
<g
   clip-path="url(#clipId0)"
   id="g9"
   style="fill:none;stroke:#000000;stroke-width:0.1"
   transform="translate(-226.40625,-125.625)" />
<g
   clip-path="url(#clipId0)"
   id="g11"
   style="fill:#000000;stroke:none"
   transform="translate(-226.40625,-125.625)">




















































































</g>
<g
   clip-path="url(#clipId0)"
   id="g181"
   style="fill:none;stroke:#000000;stroke-width:0.25"
   transform="translate(-226.40625,-125.625)">

</g>
<g
   clip-path="url(#clipId0)"
   id="g185"
   style="fill:#000000;stroke:none"
   transform="translate(-226.40625,-125.625)">

<path
   d="m 226.40625,125.625 c 1.72678,70.60585 0.1589,-1.21155 1.70121,347.63239 107.67112,3.6e-4 239.15869,0.89897 346.83004,0.89886 2.2e-4,-116.17841 2.2e-4,-232.35284 0,-348.53125 -116.17708,0 -232.35417,0 -348.53125,0 z m 23.40625,23.4375 c 21.28125,0 42.5625,0 63.84375,0 -26.43381,15.10845 -48.71471,37.42593 -63.84375,63.84375 0,-21.28125 0,-42.5625 0,-63.84375 z m 237.90625,0 c 21.27083,0 42.54167,0 63.8125,0 0,21.27083 0,42.54167 0,63.8125 -15.11231,-26.3761 -37.41822,-48.72543 -63.8125,-63.8125 z m -98.875,0.46875 c 0.29166,53.78126 0.0417,108.10416 0.125,162.09375 53.98954,0.0834 108.31256,-0.16673 162.09375,0.125 -3.8653,53.7031 -38.82647,103.77666 -88.17065,125.45796 -50.60261,23.66687 -114.05866,15.5163 -157.06379,-20.14142 -43.28462,-34.25162 -64.53217,-93.58061 -52.79412,-147.52261 10.60579,-54.85402 54.49295,-101.40278 108.61919,-115.24844 8.86346,-2.5409 18.03296,-3.83822 27.19062,-4.76424 z m 23.53125,0 c 51.12308,3.63885 98.97319,35.35432 122.22843,81.02897 9.23132,17.87847 14.81292,37.57741 16.45907,57.62728 -46.22917,0 -92.45833,0 -138.6875,0 0,-46.21875 0,-92.4375 0,-138.65625 z m -162.5625,237.375 c 15.12833,26.41856 37.41065,48.73448 63.84375,63.84375 -21.28125,0 -42.5625,0 -63.84375,0 0,-21.28125 0,-42.5625 0,-63.84375 z m 301.71875,0.0312 c 0,21.27083 0,42.54167 0,63.8125 -21.27083,0 -42.54167,0 -63.8125,0 26.40005,-15.09006 48.69759,-37.43615 63.8125,-63.8125 z"
   id="path189"
   inkscape:connector-curvature="0"
   sodipodi:nodetypes="cccccccccccccccccccccccccccccccccc" />
</g>
</svg>