<?xml version="1.0" standalone="no"?>
<!DOCTYPE svg PUBLIC "-//W3C//DTD SVG 1.1//EN"
 "http://www.w3.org/Graphics/SVG/1.1/DTD/svg11.dtd">
<!-- Created with svg_stack (http://github.com/astraw/svg_stack) -->
<svg xmlns:sodipodi="http://sodipodi.sourceforge.net/DTD/sodipodi-0.dtd" xmlns="http://www.w3.org/2000/svg" version="1.1" width="1596.25" height="1596.25">
  <defs/>
  <g id="id0:id0" transform="matrix(1.25,0,0,1.25,0.0,0.0)"><g transform="translate(0.000000,1277.000000) scale(0.100000,-0.100000)" fill="#000000" stroke="none">
<path d="M5995 12760 c-558 -31 -1307 -190 -1820 -388 -680 -263 -1188 -547 -1735 -971 -523 -406 -1024 -950 -1362 -1476 -399 -623 -642 -1152 -828 -1805 -327 -1150 -327 -2341 1 -3467 198 -682 451 -1231 835 -1813 465 -706 1016 -1260 1759 -1764 785 -534 1826 -915 2835 -1037 262 -32 270 -33 710 -33 440 0 448 1 710 33 1009 122 2050 503 2835 1037 451 306 791 598 1135 974 362 396 627 760 885 1215 399 704 693 1609 769 2365 54 545 54 973 0 1513 -60 597 -275 1358 -546 1932 -214 454 -520 951 -774 1260 -484 588 -895 969 -1469 1360 -363 247 -823 481 -1330 677 -416 160 -958 291 -1470 354 -260 32 -305 34 -635 38 -195 2 -422 1 -505 -4z m1065 -640 c1370 -158 2656 -813 3568 -1819 324 -357 551 -669 795 -1092 286 -496 528 -1151 627 -1693 127 -697 147 -1222 69 -1809 -71 -542 -136 -812 -318 -1328 -280 -795 -858 -1657 -1500 -2237 -331 -300 -771 -621 -1091 -797 -691 -381 -1414 -613 -2185 -701 -222 -26 -269 -28 -635 -27 -364 0 -414 2 -635 27 -1087 124 -2097 538 -2930 1204 -324 258 -511 431 -684 627 -677 772 -1019 1386 -1306 2346 -162 538 -243 1216 -215 1788 25 519 89 918 217 1351 230 781 545 1399 1011 1985 336 422 580 669 962 975 431 346 981 654 1570 881 474 183 1120 319 1660 350 74 4 277 5 450 3 265 -3 355 -9 570 -34z"/>
</g>
</g>
  <g id="id1:id1" transform="matrix(1.25,0,0,1.25,0.0,0.0)"><g transform="translate(0.000000,1277.000000) scale(0.100000,-0.100000)" fill="#ffffff" stroke="none">
<path d="M6040 12151 c-540 -31 -1186 -167 -1660 -350 -589 -227 -1139 -535 -1570 -881 -382 -306 -626 -553 -962 -975 -466 -586 -781 -1204 -1011 -1985 -128 -433 -192 -832 -217 -1351 -20 -407 21 -931 105 -1351 79 -389 263 -954 424 -1298 261 -557 527 -954 992 -1485 337 -383 943 -862 1434 -1133 697 -384 1403 -610 2180 -698 221 -25 271 -27 635 -27 366 -1 413 1 635 27 771 88 1494 320 2185 701 320 176 760 497 1091 797 304 274 651 679 877 1023 372 564 566 983 767 1656 105 350 194 905 215 1340 27 544 -61 1273 -216 1799 -189 637 -393 1077 -760 1635 -312 476 -778 982 -1224 1331 -714 557 -1545 942 -2425 1120 -346 71 -660 103 -1045 108 -173 2 -376 1 -450 -3z m2550 -1436 c175 -15 196 -19 397 -78 l212 -62 -147 -51 c-81 -28 -235 -81 -342 -118 l-195 -67 -228 -162 -228 -162 201 -50 200 -50 -375 -270 -376 -270 263 -15 263 -15 -385 -197 -385 -197 249 -1 249 0 -159 -113 c-88 -62 -204 -147 -259 -188 -55 -42 -136 -101 -179 -132 -43 -32 -75 -57 -70 -57 19 0 422 90 546 122 l127 33 293 -29 293 -29 95 -50 c516 -272 800 -444 1304 -791 l140 -96 173 -268 c177 -272 252 -408 386 -702 l76 -165 11 -398 c6 -219 10 -401 7 -403 -2 -2 -102 180 -222 406 l-218 410 -261 211 c-143 116 -262 207 -264 201 -2 -6 31 -165 72 -354 42 -189 76 -350 76 -359 0 -11 -24 7 -62 46 -97 97 -571 548 -694 659 -60 55 -159 149 -221 209 l-111 110 109 -434 c59 -239 109 -443 109 -453 0 -18 -2 -18 -27 6 -16 14 -251 185 -523 380 -272 195 -549 393 -615 441 -66 48 -123 87 -126 87 -3 0 10 -66 28 -147 100 -453 192 -877 189 -880 -7 -7 -617 547 -1222 1111 -139 130 -159 145 -162 125 -2 -21 287 -5108 304 -5332 l6 -87 -522 0 -522 0 6 87 c4 49 67 1146 141 2438 74 1293 137 2386 140 2430 l5 80 -41 -95 c-23 -52 -75 -180 -115 -285 -41 -104 -86 -221 -101 -258 -14 -37 -29 -64 -33 -60 -7 8 -74 254 -112 411 -12 50 -25 92 -28 92 -3 0 -45 -123 -93 -273 -182 -564 -230 -706 -237 -702 -4 2 -10 26 -14 52 -5 41 -81 484 -104 607 -8 41 -27 -28 -238 -849 -47 -181 -88 -337 -91 -345 -3 -9 -42 58 -93 160 -54 108 -90 169 -94 160 -3 -8 -35 -118 -70 -245 l-63 -230 9 -209 c5 -115 8 -229 6 -253 l-3 -43 -160 210 c-98 128 -163 222 -167 242 -4 18 -32 151 -63 294 l-55 261 20 319 c20 309 22 323 56 434 96 310 171 500 316 805 l147 310 157 151 157 152 209 83 209 83 -463 78 c-255 43 -509 86 -566 95 l-102 18 287 112 c159 61 343 131 411 155 93 32 117 44 95 46 -15 2 -360 42 -766 90 l-738 87 338 104 c186 58 354 110 373 118 29 11 -70 12 -622 7 -362 -4 -658 -4 -658 -2 0 3 77 74 170 159 94 85 167 155 163 156 -5 2 -111 34 -237 73 -125 38 -241 70 -256 70 -14 0 -170 -20 -345 -45 -175 -25 -320 -44 -321 -42 -4 3 128 113 421 350 121 99 238 196 260 217 33 32 83 56 280 134 229 91 254 98 532 161 160 36 303 65 318 65 14 0 200 -31 413 -69 l387 -70 280 -99 c154 -55 305 -110 335 -122 75 -30 482 -357 501 -403 7 -17 43 -77 80 -132 36 -55 103 -167 148 -248 46 -81 87 -149 91 -152 4 -3 11 79 15 181 7 171 9 187 30 212 12 15 103 149 203 298 99 149 186 274 194 276 7 3 123 88 258 188 200 149 289 208 485 320 132 75 260 147 285 160 50 26 522 126 605 129 28 0 133 -6 235 -14z"/>
</g>
</g>
  <g id="id2:id2" transform="matrix(1.25,0,0,1.25,0.0,0.0)"><g transform="translate(0.000000,1277.000000) scale(0.100000,-0.100000)" fill="#00ff00" stroke="none">
<path d="M8050 10675 c-161 -33 -272 -60 -300 -75 -25 -13 -153 -85 -285 -160 -196 -112 -285 -171 -485 -320 -135 -100 -251 -185 -258 -188 -8 -2 -95 -127 -194 -276 -100 -149 -191 -283 -203 -298 -21 -25 -23 -41 -30 -212 -4 -102 -11 -184 -15 -181 -4 3 -45 71 -91 152 -45 81 -112 193 -148 248 -37 55 -73 115 -80 132 -19 46 -426 373 -501 403 -30 12 -181 67 -335 122 l-280 99 -387 70 c-213 38 -399 69 -413 69 -15 0 -158 -29 -318 -65 -278 -63 -303 -70 -532 -161 -197 -78 -247 -102 -280 -134 -22 -21 -139 -118 -260 -217 -293 -237 -425 -347 -421 -350 1 -2 146 17 321 42 175 25 331 45 345 45 15 0 131 -32 256 -70 126 -39 232 -71 237 -73 4 -1 -69 -71 -163 -156 -93 -85 -170 -156 -170 -159 0 -2 296 -2 658 2 552 5 651 4 622 -7 -19 -8 -187 -60 -373 -118 l-338 -104 738 -87 c406 -48 751 -88 766 -90 22 -2 -2 -14 -95 -46 -68 -24 -252 -94 -411 -155 l-287 -112 102 -18 c57 -9 311 -52 566 -95 l463 -78 -209 -83 -209 -83 -157 -152 -157 -151 -147 -310 c-145 -305 -220 -495 -316 -805 -34 -111 -36 -125 -56 -434 l-20 -319 55 -261 c31 -143 59 -276 63 -294 4 -20 69 -114 167 -242 l160 -210 3 43 c2 24 -1 138 -6 253 l-9 209 63 230 c35 127 67 237 70 245 4 9 40 -52 94 -160 51 -102 90 -169 93 -160 3 8 44 164 91 345 211 821 230 890 238 849 23 -123 99 -566 104 -607 4 -26 10 -50 14 -52 7 -4 55 138 237 702 48 150 90 273 94 273 3 0 16 -44 28 -97 25 -104 98 -378 107 -403 8 -19 22 15 110 247 37 98 86 221 109 273 34 77 122 298 296 748 12 31 3 38 291 -229 856 -793 1307 -1204 1314 -1196 3 3 -89 427 -189 880 -18 81 -31 147 -28 147 3 0 60 -39 126 -87 66 -48 343 -246 615 -441 272 -195 507 -366 523 -380 25 -24 27 -24 27 -6 0 10 -50 214 -109 453 l-109 434 111 -110 c62 -60 161 -154 221 -209 123 -111 597 -562 694 -659 38 -39 62 -57 62 -46 0 9 -34 170 -76 359 -41 189 -74 348 -72 354 2 6 121 -85 264 -201 l261 -211 218 -410 c120 -226 220 -408 222 -406 3 2 -1 184 -7 403 l-11 398 -76 165 c-134 294 -209 430 -386 702 l-173 268 -140 96 c-504 347 -788 519 -1304 791 l-95 50 -293 29 -293 29 -127 -33 c-124 -32 -527 -122 -546 -122 -5 0 27 25 70 57 43 31 124 90 179 132 55 41 171 126 259 188 l159 113 -249 0 -249 1 385 197 385 197 -263 15 -263 15 376 270 375 270 -200 50 -201 50 228 162 228 162 195 67 c107 37 261 90 342 118 l147 51 -212 62 c-201 59 -222 63 -397 78 -102 8 -207 14 -235 14 -27 -1 -165 -25 -305 -54z"/>
</g>
</g>
  <g id="id3:id3" transform="matrix(1.25,0,0,1.25,0.0,0.0)"><g transform="translate(0.000000,1277.000000) scale(0.100000,-0.100000)" fill="#510000" stroke="none">
<path d="M6381 7648 c-5 -13 -57 -146 -115 -296 l-106 -273 -145 -2516 c-80 -1384 -145 -2518 -145 -2520 0 -2 235 -3 521 -3 l522 0 -7 78 c-3 42 -74 1267 -157 2722 l-151 2645 -76 73 c-42 40 -89 82 -104 93 l-28 20 -9 -23z"/>
</g>
</g>
</svg>
