<?xml version="1.0" encoding="UTF-8" standalone="no"?>
<svg
   xmlns:dc="http://purl.org/dc/elements/1.1/"
   xmlns:cc="http://creativecommons.org/ns#"
   xmlns:rdf="http://www.w3.org/1999/02/22-rdf-syntax-ns#"
   xmlns:svg="http://www.w3.org/2000/svg"
   xmlns="http://www.w3.org/2000/svg"
   xmlns:sodipodi="http://sodipodi.sourceforge.net/DTD/sodipodi-0.dtd"
   xmlns:inkscape="http://www.inkscape.org/namespaces/inkscape"
   viewBox="0 0 406.5942 406.69515"
   version="1.1"
   xml:space="preserve"
   id="svg12739"
   inkscape:version="0.48.3.1 r9886"
   width="100%"
   height="100%"
   sodipodi:docname="alkis3332.svg"
   style="fill-rule:evenodd;stroke-linecap:round;stroke-linejoin:round"><metadata
   id="metadata13078"><rdf:RDF><cc:Work
       rdf:about=""><dc:format>image/svg+xml</dc:format><dc:type
         rdf:resource="http://purl.org/dc/dcmitype/StillImage" /></cc:Work></rdf:RDF></metadata><sodipodi:namedview
   pagecolor="#ffffff"
   bordercolor="#666666"
   borderopacity="1"
   objecttolerance="10"
   gridtolerance="10"
   guidetolerance="10"
   inkscape:pageopacity="0"
   inkscape:pageshadow="2"
   inkscape:window-width="1855"
   inkscape:window-height="1025"
   id="namedview13076"
   showgrid="false"
   inkscape:zoom="0.78666667"
   inkscape:cx="205.70733"
   inkscape:cy="434.9772"
   inkscape:window-x="0"
   inkscape:window-y="33"
   inkscape:window-maximized="1"
   inkscape:current-layer="svg12739" />
<defs
   id="defs12741">
<clipPath
   id="clipId0">
<path
   d="M 0,600 800,600 800,0 0,0 z"
   id="path12744"
   inkscape:connector-curvature="0" />
</clipPath>
</defs>
<g
   clip-path="url(#clipId0)"
   id="g12746"
   style="fill:none;stroke:#000000;stroke-width:0.1"
   transform="translate(-196.83504,-96.375)" />
<g
   clip-path="url(#clipId0)"
   id="g12748"
   style="fill:#ffffb2;stroke:none"
   transform="translate(-196.83504,-96.375)">













































































<path
   d="m 400.15625,122.4375 c -55.26357,-0.1486 -109.68089,27.09323 -142.39643,71.67753 -36.04011,47.85159 -45.11601,114.38333 -22.88329,170.05431 21.41852,56.69176 73.99905,99.97904 133.71419,110.24982 59.86137,11.39602 124.62439,-11.13407 164.55722,-57.15602 C 573.6318,372.16811 587.9865,305.6253 569.72126,247.84129 552.49151,190.10764 503.75007,143.23858 445.33867,128.40001 c -14.71141,-4.01443 -29.95784,-5.69655 -45.18242,-5.96251 z"
   id="path12904"
   inkscape:connector-curvature="0" />
</g>
<g
   clip-path="url(#clipId0)"
   id="g12906"
   style="fill:#00ff00;stroke:none"
   transform="translate(-196.83504,-96.375)">















































































<path
   d="m 398.9375,96.375 c -39.87037,0.802742 -80.55848,12.75088 -113.65022,35.89547 -58.30165,39.13737 -92.95941,110.24267 -87.97884,180.28212 3.72106,69.34547 46.02059,134.89378 107.63777,166.91698 61.06616,33.04395 139.07644,31.26636 198.5625,-4.56414 C 563.61479,440.10699 602.8595,372.65791 603.37094,303.19741 605.1036,233.77798 568.08933,165.09056 509.15321,128.3604 476.41561,107.31128 437.75353,96.732146 398.9375,96.375 z m 1.25,51.96875 c 55.28051,-0.37728 109.12824,32.11457 134.24863,81.40884 27.76008,51.7073 21.3158,119.27225 -15.93189,164.66616 -36.72597,47.26166 -103.08264,68.41755 -160.36342,50.9756 -57.35865,-15.72279 -102.0856,-68.33656 -108.35035,-127.48198 -8.01883,-59.73442 24.03268,-122.22392 77.20084,-150.59895 22.23117,-12.50189 47.73946,-18.77947 73.19619,-18.96967 z"
   id="path13066"
   inkscape:connector-curvature="0" />
</g>
<g
   clip-path="url(#clipId0)"
   id="g13068"
   style="fill:none;stroke:#00ff00;stroke-width:0.25"
   transform="translate(-196.83504,-96.375)">
<polyline
   points="400.163,122.449 400.163,122.449 "
   id="polyline13070" />
</g>
<g
   clip-path="url(#clipId0)"
   id="g13072"
   style="fill:#00ff00;stroke:none"
   transform="translate(-196.83504,-96.375)">
<g
   transform="matrix(147.878,0,0,147.878,299.368,380.138)"
   style="font-size:1.39636004px;font-weight:bold;font-family:'Arial,\'sans-serif\''"
   id="text13074"><path
     id="path13087"
     style="font-size:1.39636004px;font-weight:bold;font-family:'Arial,\'sans-serif\''"
     d="m 1.3315874,-0.60818025 0,0.60818025 -0.1909086,0 0,-0.60818025 -0.1077269,0 0,-0.12954512 0.1077269,0 0,-0.0770453 c -1e-7,-0.0281809 0.00341,-0.0540899 0.010227,-0.0777271 0.00682,-0.0240899 0.018409,-0.044999 0.034773,-0.0627271 0.016363,-0.0177263 0.038409,-0.0315898 0.066136,-0.0415908 0.027727,-0.009999 0.062272,-0.014999 0.1036361,-0.015 0.021818,1e-6 0.043181,0.00114 0.064091,0.00341 0.021363,0.00227 0.040454,0.00477 0.057273,0.0075 l 0,0.12340888 c -0.00818,-0.001817 -0.0175,-0.003181 -0.027954,-0.004091 -0.01,-0.001363 -0.019319,-0.002045 -0.027954,-0.002045 -0.017728,8.9e-7 -0.0325,0.001819 -0.044318,0.005455 -0.011364,0.003637 -0.020455,0.009092 -0.027273,0.0163636 -0.00636,0.007274 -0.010909,0.0165917 -0.013636,0.0279545 -0.00273,0.0109099 -0.00409,0.0236371 -0.00409,0.0381817 l 0,0.0579544 0.1452269,0 0,0.12954512 -0.1452269,0 m -0.38659233,0.3340883 c -9.5e-7,0.0486365 -0.009774,0.0904545 -0.0293181,0.12545422 -0.0195463,0.0345455 -0.0463644,0.06295447 -0.0804543,0.08522705 C 0.80158804,-0.04159076 0.76227,-0.02545445 0.71727088,-0.01499996 0.67227032,-0.00499998 0.62454322,0 0.57408943,0 l -0.48068058,0 0,-0.96067934 0.43977159,0 c 0.0568175,9.6e-7 0.10727182,0.005001 0.15136325,0.015 0.0445446,0.009546 0.0820445,0.024319 0.11249971,0.0443181 0.0304536,0.0200008 0.0534081,0.045228 0.0688635,0.0756816 0.0159082,0.0300007 0.0238627,0.0654551 0.0238636,0.10636336 -8.9e-7,0.054546 -0.0152281,0.10068218 -0.0456817,0.13840874 -0.0300007,0.0372732 -0.0759097,0.0625003 -0.13772691,0.0756816 0.0777263,0.009091 0.13681698,0.0336368 0.17727227,0.0736362 0.0409081,0.0395458 0.0613625,0.0920456 0.0613635,0.1574996 m -0.2577267,-0.41795353 c -6.9e-7,-0.043181 -0.0138643,-0.0738627 -0.0415908,-0.0920452 -0.0272733,-0.018181 -0.0679549,-0.0272718 -0.12204515,-0.0272727 l -0.22909031,0 0,0.23795394 0.23045395,0 c 0.0568174,5.7e-7 0.0979537,-0.009772 0.12340877,-0.0293181 0.0259084,-0.0199993 0.0388629,-0.049772 0.0388635,-0.0893179 m 0.0559089,0.40227169 c -7.4e-7,-0.0254542 -0.005001,-0.0468177 -0.015,-0.0640907 -0.0100007,-0.0172723 -0.0238643,-0.0311359 -0.0415908,-0.0415908 -0.0172734,-0.0104541 -0.0377278,-0.0179541 -0.0613635,-0.0224999 -0.0231824,-0.004545 -0.0484095,-0.006818 -0.0756816,-0.006818 l -0.25499934,0 0,0.27545383 0.26249932,0 c 0.026363,1.5e-7 0.0509084,-0.002045 0.0736362,-0.006136 0.0227266,-0.004545 0.042272,-0.0120452 0.0586362,-0.0224999 0.0168174,-0.0109089 0.0299992,-0.0254543 0.0395454,-0.0436362 0.009545,-0.0181815 0.0143174,-0.0409087 0.0143181,-0.0681816"
     inkscape:connector-curvature="0" /></g>
</g>
</svg>