<?xml version="1.0" standalone="no"?>
<!DOCTYPE svg PUBLIC "-//W3C//DTD SVG 1.1//EN"
 "http://www.w3.org/Graphics/SVG/1.1/DTD/svg11.dtd">
<!-- Created with svg_stack (http://github.com/astraw/svg_stack) -->
<svg xmlns:sodipodi="http://sodipodi.sourceforge.net/DTD/sodipodi-0.dtd" xmlns="http://www.w3.org/2000/svg" version="1.1" width="1581.25" height="1581.25">
  <defs/>
  <g id="id0:id0" transform="matrix(1.25,0,0,1.25,0.0,0.0)"><g transform="translate(0.000000,1265.000000) scale(0.100000,-0.100000)" fill="#000000" stroke="none">
<path d="M5935 12640 c-529 -29 -1275 -186 -1765 -371 -545 -206 -915 -395 -1375 -702 -801 -535 -1510 -1304 -1984 -2154 -325 -583 -578 -1267 -685 -1850 -161 -876 -161 -1604 0 -2478 136 -738 506 -1633 937 -2265 295 -433 673 -875 976 -1144 559 -495 1047 -822 1631 -1094 568 -264 1265 -458 1955 -543 257 -32 266 -33 700 -33 435 0 443 1 705 33 676 82 1381 279 1950 543 585 273 1072 599 1633 1096 332 294 649 666 974 1142 431 632 801 1527 937 2265 161 874 161 1602 0 2478 -53 288 -133 570 -271 952 -208 577 -548 1185 -963 1725 -355 463 -913 979 -1435 1327 -457 304 -770 467 -1305 674 -439 171 -970 301 -1485 365 -259 31 -306 34 -630 38 -192 2 -417 1 -500 -4z m970 -1384 c763 -84 1534 -368 2190 -806 400 -268 866 -700 1147 -1065 216 -280 364 -526 580 -960 157 -315 309 -781 378 -1157 22 -121 40 -230 40 -244 l0 -24 -4915 0 -4915 0 0 24 c0 14 18 123 40 244 69 376 221 842 378 1157 216 435 341 637 602 975 457 592 1120 1117 1808 1432 383 175 691 274 1142 367 180 37 485 74 695 85 188 10 617 -5 830 -28z m4335 -5635 c0 -11 -18 -117 -40 -238 -115 -625 -372 -1251 -752 -1828 -286 -434 -608 -780 -1068 -1147 -469 -373 -1088 -688 -1715 -871 -210 -61 -424 -102 -757 -147 -211 -29 -239 -30 -578 -30 -337 0 -367 2 -580 30 -594 78 -992 191 -1512 428 -564 258 -1172 700 -1561 1136 -549 614 -911 1261 -1131 2019 -48 165 -136 585 -136 648 0 19 85 19 4915 19 4830 0 4915 0 4915 -19z"/>
</g>
</g>
  <g id="id1:id1" transform="matrix(1.25,0,0,1.25,0.0,0.0)"><g transform="translate(0.000000,1265.000000) scale(0.100000,-0.100000)" fill="#ffffff" stroke="none">
</g>
</g>
</svg>
