<?xml version="1.0" standalone="no"?>
<!DOCTYPE svg PUBLIC "-//W3C//DTD SVG 1.1//EN"
 "http://www.w3.org/Graphics/SVG/1.1/DTD/svg11.dtd">
<!-- Created with svg_stack (http://github.com/astraw/svg_stack) -->
<svg xmlns:sodipodi="http://sodipodi.sourceforge.net/DTD/sodipodi-0.dtd" xmlns="http://www.w3.org/2000/svg" version="1.1" width="1675.0" height="1593.75">
  <defs/>
  <g id="id0:id0" transform="matrix(1.25,0,0,1.25,0.0,0.0)"><g transform="translate(0.000000,1275.000000) scale(0.100000,-0.100000)" fill="#ff0000" stroke="none">
<path d="M2570 12702 c10 -26 313 -814 673 -1752 360 -938 780 -2035 933 -2437 153 -403 281 -733 284 -733 3 0 17 33 29 73 30 91 184 399 249 495 76 113 288 356 387 444 235 209 514 369 845 483 353 121 729 147 1165 79 126 -19 439 -125 590 -199 385 -189 689 -453 924 -805 74 -109 209 -370 252 -482 18 -49 35 -88 39 -88 3 0 131 330 284 733 153 402 573 1499 933 2437 360 938 663 1726 673 1752 10 27 14 45 9 42 -5 -3 -937 -757 -2071 -1675 -1134 -918 -2065 -1669 -2068 -1669 -3 0 -934 751 -2068 1669 -1134 918 -2066 1672 -2071 1675 -5 3 -1 -15 9 -42z"/>
<path d="M3085 6874 c-748 -487 -1749 -1138 -2225 -1447 -790 -513 -862 -562 -830 -565 19 -1 1196 58 2615 133 1419 75 2600 134 2624 133 l44 -3 41 -145 c23 -80 334 -1233 691 -2562 358 -1330 652 -2418 655 -2418 4 0 1224 4526 1337 4959 23 90 45 166 48 169 3 4 1190 -56 2638 -131 1448 -76 2643 -138 2657 -137 19 0 -11 24 -120 97 -171 114 -4311 2803 -4316 2803 -2 0 4 -21 12 -47 65 -206 104 -585 85 -828 -30 -371 -87 -579 -244 -890 -128 -255 -250 -427 -432 -610 -327 -329 -657 -512 -1144 -636 -294 -75 -698 -78 -1001 -9 -424 96 -738 250 -1049 515 -160 136 -344 342 -437 490 -89 141 -199 359 -242 480 -51 143 -118 413 -133 540 -16 130 -16 423 0 550 12 100 57 308 85 398 8 26 12 47 8 46 -4 -1 -619 -399 -1367 -885z"/>
</g>
</g>
  <g id="id1:id1" transform="matrix(1.25,0,0,1.25,0.0,0.0)"><g transform="translate(0.000000,1275.000000) scale(0.100000,-0.100000)" fill="#ffffff" stroke="none">
<path d="M6445 9379 c-279 -33 -518 -102 -759 -219 -332 -161 -547 -326 -775 -594 -159 -187 -203 -252 -311 -467 -124 -246 -208 -518 -241 -784 -16 -127 -16 -419 0 -550 15 -127 82 -397 133 -540 43 -121 153 -339 242 -480 93 -148 277 -354 437 -490 311 -265 625 -419 1049 -515 303 -69 707 -66 1001 9 487 124 817 307 1144 636 182 183 304 355 432 610 124 245 176 399 212 625 51 313 49 554 -5 885 -51 310 -242 717 -472 1006 -217 273 -482 485 -807 644 -151 74 -464 180 -590 199 -231 36 -513 46 -690 25z"/>
</g>
</g>
</svg>
