<?xml version="1.0" standalone="no"?>
<!DOCTYPE svg PUBLIC "-//W3C//DTD SVG 1.1//EN"
 "http://www.w3.org/Graphics/SVG/1.1/DTD/svg11.dtd">
<!-- Created with svg_stack (http://github.com/astraw/svg_stack) -->
<svg xmlns:sodipodi="http://sodipodi.sourceforge.net/DTD/sodipodi-0.dtd" xmlns="http://www.w3.org/2000/svg" version="1.1" width="967.5" height="1596.25">
  <defs/>
  <g id="id0:id0" transform="matrix(1.25,0,0,1.25,0.0,0.0)"><g transform="translate(0.000000,1277.000000) scale(0.100000,-0.100000)" fill="#000000" stroke="none">
<path d="M1850 8450 l0 -4320 -22 -4 c-13 -2 -70 -12 -128 -22 -134 -22 -386 -102 -515 -164 -408 -196 -750 -532 -952 -933 -170 -340 -253 -737 -224 -1069 34 -378 137 -693 327 -993 220 -348 591 -648 1004 -813 407 -161 948 -174 1382 -31 115 37 366 159 473 229 410 269 698 642 844 1093 143 444 143 839 1 1287 -199 627 -694 1121 -1328 1325 -92 30 -197 59 -234 65 -58 10 -66 14 -60 28 5 10 901 1856 1992 4105 l1984 4087 673 0 673 0 0 225 0 225 -2945 0 -2945 0 0 -4320z m4046 3838 c-8 -18 -791 -1633 -1741 -3588 -950 -1955 -1755 -3613 -1790 -3685 l-63 -130 -1 3718 -1 3717 1805 0 1805 0 -14 -32z m-3541 -8617 c223 -39 433 -127 655 -274 104 -69 332 -300 402 -407 92 -141 174 -308 212 -430 156 -495 66 -1040 -238 -1446 -249 -332 -550 -534 -941 -632 -140 -35 -141 -35 -370 -35 -227 0 -232 0 -365 33 -209 51 -423 147 -568 256 -166 124 -205 159 -281 254 -126 155 -175 228 -238 355 -191 383 -225 809 -97 1215 35 114 117 282 200 411 99 155 279 337 444 448 174 118 427 220 620 252 152 24 422 25 565 0z"/>
</g>
</g>
  <g id="id1:id1" transform="matrix(1.25,0,0,1.25,0.0,0.0)"><g transform="translate(0.000000,1277.000000) scale(0.100000,-0.100000)" fill="#ffffff" stroke="none">
</g>
</g>
</svg>
