<?xml version="1.0" encoding="UTF-8" standalone="no"?>
<!-- Created with Inkscape (http://www.inkscape.org/) -->

<svg
   xmlns:dc="http://purl.org/dc/elements/1.1/"
   xmlns:cc="http://creativecommons.org/ns#"
   xmlns:rdf="http://www.w3.org/1999/02/22-rdf-syntax-ns#"
   xmlns:svg="http://www.w3.org/2000/svg"
   xmlns="http://www.w3.org/2000/svg"
   xmlns:inkscape="http://www.inkscape.org/namespaces/inkscape"
   version="1.1"
   width="100%"
   height="100%"
   viewBox="0 0 789.44592 218.77875"
   id="svg205591"
   xml:space="preserve"
   style="fill-rule:evenodd;stroke-linecap:round;stroke-linejoin:round"><metadata
     id="metadata205744"><rdf:RDF><cc:Work
         rdf:about=""><dc:format>image/svg+xml</dc:format><dc:type
           rdf:resource="http://purl.org/dc/dcmitype/StillImage" /></cc:Work></rdf:RDF></metadata><defs
     id="defs205593"><clipPath
       id="clipId0"><path
         d="M 0,600 800,600 800,0 0,0 z"
         inkscape:connector-curvature="0"
         id="path205596" /></clipPath></defs><g
     transform="translate(-2.174085,-189.04303)"
     clip-path="url(#clipId0)"
     id="g205598"
     style="fill:none;stroke:#000000;stroke-width:0.1" /><g
     transform="translate(-2.174085,-189.04303)"
     clip-path="url(#clipId0)"
     id="g205600"
     style="fill:#000000;stroke:none"><path
       d="M 166.375,189.34375 C 126.87434,199.10078 84.309087,210.08037 54.416401,239.13074 27.71698,268.84848 7.1950701,305.2042 4.3164502,345.7191 c -1.2310678,20.01271 -4.10457038,44.60116 -0.054132,61.9684 56.0583938,0 112.1167918,0 168.1751818,0 0.26939,-30.23039 -4.93684,-69.64866 25.18076,-88.06969 22.06901,-11.58303 49.35244,-7.65383 73.76965,-9.17326 95.46848,0.89772 190.95097,-0.55674 286.42185,0.61891 32.01761,-2.8924 62.69117,19.50651 62.8138,53.06871 6.38332,13.08373 -10.40797,46.05136 10.4816,43.55533 53.33995,0 106.67989,0 160.01984,0 2.31143,-53.36248 -2.26384,-112.07945 -39.99979,-153.54249 -24.17858,-37.06458 -69.52357,-50.50082 -110.07875,-61.57779 -30.23803,-6.30048 -61.38844,-1.96765 -92.08453,-3.22347 -127.52897,0 -255.05795,0 -382.58693,0 z"
       inkscape:connector-curvature="0"
       id="path205736" /></g><g
     transform="translate(-2.174085,-189.04303)"
     clip-path="url(#clipId0)"
     id="g205738"
     style="fill:none;stroke:#000000;stroke-width:0.25" /></svg>