<?xml version="1.0" standalone="no"?>
<!DOCTYPE svg PUBLIC "-//W3C//DTD SVG 1.1//EN"
 "http://www.w3.org/Graphics/SVG/1.1/DTD/svg11.dtd">
<!-- Created with svg_stack (http://github.com/astraw/svg_stack) -->
<svg xmlns:sodipodi="http://sodipodi.sourceforge.net/DTD/sodipodi-0.dtd" xmlns="http://www.w3.org/2000/svg" version="1.1" width="1837.5" height="1590.0">
  <defs/>
  <g id="id0:id0" transform="matrix(1.25,0,0,1.25,0.0,0.0)"><g transform="translate(0.000000,1272.000000) scale(0.100000,-0.100000)" fill="#000000" stroke="none">
<path d="M5260 9107 c-1147 -1986 -2799 -4847 -3672 -6357 l-1588 -2745 3675 -3 c2021 -1 5329 -1 7350 0 l3675 3 -3672 6357 c-2020 3497 -3675 6357 -3678 6357 -3 0 -943 -1625 -2090 -3612z m5504 -3007 l3316 -5735 -3359 -3 c-1848 -1 -4874 -1 -6725 0 l-3366 3 3336 5775 c1834 3176 3347 5795 3361 5818 l25 44 48 -84 c27 -45 1541 -2664 3364 -5818z"/>
<path d="M5340 4245 l0 -2515 510 0 510 0 0 1100 0 1100 995 0 995 0 0 -1100 0 -1100 505 0 505 0 0 2515 0 2515 -505 0 -505 0 0 -990 0 -990 -995 0 -995 0 0 990 0 990 -510 0 -510 0 0 -2515z"/>
</g>
</g>
  <g id="id1:id1" transform="matrix(1.25,0,0,1.25,0.0,0.0)"><g transform="translate(0.000000,1272.000000) scale(0.100000,-0.100000)" fill="#ffffff" stroke="none">
</g>
</g>
</svg>
