<?xml version="1.0" encoding="UTF-8" standalone="no"?>
<!-- Created with Inkscape (http://www.inkscape.org/) -->

<svg
   xmlns:dc="http://purl.org/dc/elements/1.1/"
   xmlns:cc="http://creativecommons.org/ns#"
   xmlns:rdf="http://www.w3.org/1999/02/22-rdf-syntax-ns#"
   xmlns:svg="http://www.w3.org/2000/svg"
   xmlns="http://www.w3.org/2000/svg"
   xmlns:inkscape="http://www.inkscape.org/namespaces/inkscape"
   version="1.1"
   width="100%"
   height="100%"
   viewBox="0 0 197.21875 350.4375"
   id="svg17946"
   xml:space="preserve"
   style="fill-rule:evenodd;stroke-linecap:round;stroke-linejoin:round"><metadata
     id="metadata18129"><rdf:RDF><cc:Work
         rdf:about=""><dc:format>image/svg+xml</dc:format><dc:type
           rdf:resource="http://purl.org/dc/dcmitype/StillImage" /></cc:Work></rdf:RDF></metadata><defs
     id="defs17948"><clipPath
       id="clipId0"><path
         d="M 0,600 800,600 800,0 0,0 z"
         inkscape:connector-curvature="0"
         id="path17951" /></clipPath></defs><g
     transform="translate(-300.5625,-124.65625)"
     clip-path="url(#clipId0)"
     id="g17953"
     style="fill:none;stroke:#000000;stroke-width:0.1" /><g
     transform="translate(-300.5625,-124.65625)"
     clip-path="url(#clipId0)"
     id="g17955"
     style="fill:#00ff00;stroke:none"><path
       d="m 398.46875,124.65625 0,0.0937 -7.03125,0.28125 -7.6875,0.90625 -7.59375,1.5 -7.46875,2.09375 -7.25,2.6875 -7.03125,3.25 -6.75,3.78125 -6.4375,4.3125 -6.09375,4.78125 -5.6875,5.25 -5.25,5.6875 -4.8125,6.09375 -4.28125,6.4375 -3.78125,6.75 -3.25,7.03125 -2.6875,7.28125 -2.09375,7.4375 -1.5,7.59375 -0.9375,7.6875 -0.28125,7.75 0.28125,7.71875 0.9375,7.6875 1.5,7.625 2.09375,7.4375 2.6875,7.25 3.25,7.0625 3.78125,6.75 4.28125,6.4375 4.8125,6.0625 5.25,5.6875 5.6875,5.28125 6.09375,4.78125 6.4375,4.3125 6.75,3.78125 7.03125,3.21875 7.25,2.6875 7.46875,2.09375 7.59375,1.53125 0.75,0.0937 0,154.25 29.375,0 0,-154.25 0.71875,-0.0937 7.59375,-1.53125 7.46875,-2.09375 7.25,-2.6875 7.03125,-3.21875 6.75,-3.78125 6.46875,-4.3125 6.0625,-4.78125 5.6875,-5.28125 5.25,-5.6875 4.8125,-6.0625 4.28125,-6.4375 3.78125,-6.75 3.25,-7.0625 2.6875,-7.25 2.09375,-7.4375 1.53125,-7.625 0.90625,-7.6875 0.28125,-7.71875 -0.28125,-7.75 -0.90625,-7.6875 -1.53125,-7.59375 -2.09375,-7.4375 -2.6875,-7.28125 -3.25,-7.03125 -3.78125,-6.75 -4.28125,-6.4375 -4.8125,-6.09375 -5.25,-5.6875 -5.6875,-5.25 -6.0625,-4.78125 -6.46875,-4.3125 -6.75,-3.78125 -7.03125,-3.25 -7.25,-2.6875 -7.46875,-2.09375 -7.59375,-1.5 -7.6875,-0.90625 -8.4375,-0.375 z m 0.71875,29.46875 5.40625,0.1875 5.40625,0.65625 5.34375,1.0625 5.21875,1.46875 5.09375,1.875 4.9375,2.28125 4.75,2.65625 4.53125,3.03125 4.25,3.34375 4,3.6875 3.6875,4 3.375,4.28125 3,4.5 2.65625,4.75 2.28125,4.9375 1.875,5.09375 1.5,5.25 1.03125,5.3125 0.65625,5.40625 0.21875,5.4375 -0.21875,5.4375 -0.65625,5.375 L 466.5,239.5 l -1.5,5.21875 -1.875,5.125 -2.28125,4.90625 -2.65625,4.75 -3,4.53125 -3.375,4.25 -3.6875,4 -4,3.6875 -4.25,3.375 -4.53125,3.03125 -4.75,2.65625 -4.9375,2.25 -5.09375,1.90625 -5.21875,1.46875 -5.34375,1.0625 -5.40625,0.625 -5.40625,0.21875 -5.4375,-0.21875 -5.40625,-0.625 -5.34375,-1.0625 -5.21875,-1.46875 -5.09375,-1.90625 -4.9375,-2.25 -4.75,-2.65625 -4.53125,-3.03125 -4.25,-3.375 -4,-3.6875 -3.6875,-4 -3.375,-4.25 -3,-4.53125 -2.65625,-4.75 -2.28125,-4.90625 -1.875,-5.125 -1.46875,-5.21875 -1.0625,-5.34375 -0.65625,-5.375 -0.21875,-5.4375 0.21875,-5.4375 0.65625,-5.40625 1.0625,-5.3125 1.46875,-5.25 1.875,-5.09375 2.28125,-4.9375 2.65625,-4.75 3,-4.5 3.375,-4.28125 3.6875,-4 4,-3.6875 4.25,-3.34375 4.53125,-3.03125 4.75,-2.65625 4.9375,-2.28125 5.09375,-1.875 5.21875,-1.46875 5.34375,-1.0625 5.40625,-0.65625 5.4375,-0.1875 z m -73.4375,186.71875 0,134.25 20.96875,0 0,-134.25 -20.96875,0 z"
       inkscape:connector-curvature="0"
       id="path18115" /></g><g
     transform="translate(-300.5625,-124.65625)"
     clip-path="url(#clipId0)"
     id="g18117"
     style="fill:none;stroke:#00ff00;stroke-width:0.25"><polyline
       points="399.174,139.415 399.174,139.415 "
       id="polyline18119" /></g><g
     transform="translate(-300.5625,-124.65625)"
     clip-path="url(#clipId0)"
     id="g18121"
     style="fill:#00ff00;stroke:none" /></svg>