<?xml version="1.0" standalone="no"?>
<!DOCTYPE svg PUBLIC "-//W3C//DTD SVG 1.1//EN"
 "http://www.w3.org/Graphics/SVG/1.1/DTD/svg11.dtd">
<!-- Created with svg_stack (http://github.com/astraw/svg_stack) -->
<svg xmlns:sodipodi="http://sodipodi.sourceforge.net/DTD/sodipodi-0.dtd" xmlns="http://www.w3.org/2000/svg" version="1.1" width="1595.0" height="1593.75">
  <defs/>
  <g id="id0:id0" transform="matrix(1.25,0,0,1.25,0.0,0.0)"><g transform="translate(0.000000,1275.000000) scale(0.100000,-0.100000)" fill="#000000" stroke="none">
<path d="M5985 12740 c-402 -22 -923 -114 -1350 -239 -1321 -386 -2418 -1121 -3262 -2183 -702 -884 -1185 -2050 -1322 -3188 -122 -1013 -6 -1967 359 -2972 450 -1239 1313 -2336 2420 -3075 834 -557 1825 -921 2840 -1044 262 -32 270 -33 710 -33 440 0 448 1 710 33 840 102 1688 376 2410 779 863 482 1625 1187 2179 2017 366 548 632 1127 830 1808 234 804 301 1642 200 2487 -137 1138 -620 2304 -1322 3188 -742 935 -1697 1628 -2791 2028 -500 183 -972 298 -1471 360 -260 32 -305 34 -635 38 -195 2 -422 1 -505 -4z m1045 -869 c469 -57 836 -144 1262 -300 689 -253 1261 -602 1846 -1129 388 -349 727 -781 1072 -1362 256 -431 497 -1082 600 -1623 81 -428 119 -917 100 -1301 -37 -766 -198 -1437 -507 -2117 -275 -603 -779 -1293 -1265 -1731 -600 -540 -1140 -870 -1846 -1129 -425 -156 -815 -248 -1297 -305 -213 -26 -258 -28 -610 -28 -351 0 -398 2 -615 28 -910 107 -1730 405 -2462 894 -723 484 -1302 1109 -1758 1896 -262 453 -498 1093 -600 1629 -81 429 -119 916 -100 1298 38 770 199 1444 507 2119 147 322 437 790 679 1095 466 588 944 995 1640 1398 597 345 1299 576 2019 663 294 36 435 43 785 38 258 -3 343 -9 550 -33z"/>
<path d="M5115 9053 c-176 -185 -346 -364 -377 -398 l-57 -62 124 -99 c68 -54 123 -100 121 -101 -1 -1 -40 9 -85 23 -46 14 -87 22 -91 17 -4 -4 -131 -403 -281 -886 l-274 -877 -50 7 c-27 5 -149 8 -270 8 -215 0 -223 -1 -365 -34 -368 -87 -688 -281 -922 -561 -195 -233 -334 -536 -377 -825 -74 -492 45 -940 358 -1350 174 -229 498 -447 806 -544 232 -72 253 -75 520 -75 265 1 297 6 527 80 298 96 619 315 789 539 313 410 432 858 358 1350 -43 289 -182 591 -378 826 -132 159 -326 314 -516 414 -38 20 -71 38 -72 39 -2 1 9 37 23 79 l26 77 1676 0 1677 0 36 -98 c26 -69 34 -99 25 -105 -6 -4 -53 -33 -103 -64 -127 -78 -217 -156 -356 -308 -172 -188 -254 -328 -350 -595 -105 -292 -115 -702 -26 -1004 107 -361 343 -696 639 -910 144 -105 318 -192 485 -245 232 -72 253 -75 520 -75 265 1 297 6 527 80 298 96 619 315 789 539 56 73 200 297 233 362 38 77 104 307 127 448 43 264 21 534 -67 810 -61 193 -170 387 -317 561 -230 274 -552 469 -917 555 -143 34 -148 34 -380 34 -192 0 -249 -3 -309 -18 -40 -10 -75 -17 -76 -15 -4 5 -335 904 -335 911 0 4 32 7 70 7 l70 0 0 300 0 300 -500 0 -500 0 0 -300 0 -300 278 -1 277 0 -70 -26 c-38 -14 -71 -26 -73 -28 -1 -1 29 -86 68 -188 38 -103 70 -189 70 -192 0 -3 -686 -5 -1525 -5 -839 0 -1525 3 -1525 7 0 3 77 251 172 550 154 488 173 542 187 529 77 -67 567 -456 572 -454 6 2 146 177 260 323 5 7 -122 114 -331 280 l-339 269 110 116 c60 63 159 167 219 231 l110 117 -154 146 c-84 80 -155 146 -157 146 -3 0 -148 -151 -324 -337z m-1236 -3395 c-104 -331 -187 -603 -186 -604 13 -12 391 -123 397 -117 4 4 89 269 190 588 100 319 186 584 190 589 9 9 103 -44 195 -109 129 -93 290 -287 373 -451 34 -68 96 -271 112 -367 13 -82 13 -286 -1 -383 -15 -108 -71 -289 -120 -387 -103 -205 -321 -430 -529 -545 -96 -53 -221 -99 -335 -123 -159 -33 -395 -33 -550 1 -117 25 -284 89 -369 141 -201 124 -397 332 -495 526 -49 98 -105 279 -120 387 -14 97 -14 301 -1 383 15 93 77 298 110 363 178 353 506 606 900 695 32 8 133 13 241 14 l186 1 -188 -602z m5238 588 c249 -53 491 -185 665 -363 138 -143 243 -312 291 -473 71 -235 85 -358 63 -546 -36 -305 -142 -535 -346 -748 -186 -194 -405 -319 -645 -367 -169 -34 -392 -33 -550 1 -116 25 -283 89 -369 141 -144 89 -293 227 -393 364 -106 146 -198 372 -222 550 -14 96 -14 301 -1 380 44 271 187 544 381 731 79 76 228 180 240 167 4 -4 102 -264 219 -578 117 -313 216 -574 220 -579 6 -6 378 124 397 139 2 1 -95 267 -215 591 -206 555 -217 589 -198 596 43 13 393 8 463 -6z"/>
</g>
</g>
  <g id="id1:id1" transform="matrix(1.25,0,0,1.25,0.0,0.0)"><g transform="translate(0.000000,1275.000000) scale(0.100000,-0.100000)" fill="#ffffff" stroke="none">
<path d="M6040 11900 c-832 -51 -1677 -300 -2364 -697 -696 -403 -1174 -810 -1640 -1398 -242 -305 -532 -773 -679 -1095 -308 -675 -469 -1349 -507 -2119 -27 -530 51 -1194 200 -1718 243 -851 644 -1569 1259 -2251 355 -395 888 -815 1374 -1084 650 -359 1327 -575 2087 -664 217 -26 264 -28 615 -28 352 0 397 2 610 28 482 57 872 149 1297 305 706 259 1246 589 1846 1129 486 438 990 1128 1265 1731 309 680 470 1351 507 2117 19 384 -19 873 -100 1301 -103 541 -344 1192 -600 1623 -428 721 -808 1167 -1400 1641 -319 255 -762 528 -1110 684 -398 179 -863 329 -1235 400 -341 65 -636 94 -985 99 -168 3 -366 1 -440 -4z m-444 -2656 l154 -146 -110 -117 c-60 -64 -159 -168 -219 -231 l-110 -116 339 -269 c209 -166 336 -273 331 -280 -114 -146 -254 -321 -260 -323 -5 -2 -495 387 -572 454 -14 13 -33 -41 -187 -529 -95 -299 -172 -547 -172 -550 0 -4 686 -7 1525 -7 839 0 1525 2 1525 5 0 3 -32 89 -70 192 -39 102 -69 187 -68 188 2 2 35 14 73 28 l70 26 -277 0 -278 1 0 300 0 300 500 0 500 0 0 -300 0 -300 -70 0 c-38 0 -70 -3 -70 -7 0 -7 331 -906 335 -911 1 -2 36 5 76 15 60 15 117 18 309 18 232 0 237 0 380 -34 365 -86 687 -281 917 -555 147 -174 256 -368 317 -561 88 -276 110 -546 67 -810 -23 -141 -89 -371 -127 -448 -33 -65 -177 -289 -233 -362 -170 -224 -491 -443 -789 -539 -230 -74 -262 -79 -527 -80 -267 0 -288 3 -520 75 -535 168 -960 605 -1124 1155 -89 302 -79 712 26 1004 96 267 178 407 350 595 139 152 229 230 356 308 50 31 97 60 103 64 9 6 1 36 -25 105 l-36 98 -1677 0 -1676 0 -26 -77 c-14 -42 -25 -78 -23 -79 1 -1 34 -19 72 -39 108 -57 251 -156 348 -241 281 -246 490 -629 546 -999 74 -492 -45 -940 -358 -1350 -170 -224 -491 -443 -789 -539 -230 -74 -262 -79 -527 -80 -267 0 -288 3 -520 75 -308 97 -632 315 -806 544 -313 410 -432 858 -358 1350 43 289 182 592 377 825 234 280 554 474 922 561 142 33 150 34 365 34 121 0 243 -3 270 -8 l50 -7 274 877 c150 483 277 882 281 886 4 5 45 -3 91 -17 45 -14 84 -24 85 -23 2 1 -53 47 -121 101 l-124 99 57 62 c112 122 697 735 701 735 2 0 73 -66 157 -146z"/>
<path d="M3640 6245 c-254 -57 -494 -189 -662 -363 -85 -89 -187 -230 -238 -332 -33 -65 -95 -270 -110 -363 -13 -82 -13 -286 1 -383 15 -108 71 -289 120 -387 98 -194 294 -402 495 -526 85 -52 252 -116 369 -141 155 -34 391 -34 550 -1 114 24 239 70 335 123 208 115 426 340 529 545 49 98 105 279 120 387 14 97 14 301 1 383 -16 96 -78 299 -112 367 -83 164 -244 358 -373 451 -92 65 -186 118 -195 109 -4 -5 -90 -270 -190 -589 -101 -319 -186 -584 -190 -588 -6 -6 -384 105 -397 117 -1 1 82 273 186 604 l188 602 -186 -1 c-108 -1 -209 -6 -241 -14z"/>
<path d="M8654 6252 c-19 -7 -8 -41 198 -596 120 -324 217 -590 215 -591 -19 -15 -391 -145 -397 -139 -4 5 -103 266 -220 579 -117 314 -215 574 -219 578 -12 13 -161 -91 -240 -167 -194 -187 -337 -460 -381 -731 -13 -79 -13 -284 1 -380 24 -178 116 -404 222 -550 100 -137 249 -275 393 -364 86 -52 253 -116 369 -141 158 -34 381 -35 550 -1 240 48 459 173 645 367 151 158 234 297 295 500 50 163 70 343 55 484 -16 153 -69 347 -123 455 -175 349 -514 609 -900 691 -70 14 -420 19 -463 6z"/>
</g>
</g>
</svg>
