<?xml version="1.0" standalone="no"?>
<!DOCTYPE svg PUBLIC "-//W3C//DTD SVG 1.1//EN"
 "http://www.w3.org/Graphics/SVG/1.1/DTD/svg11.dtd">
<!-- Created with svg_stack (http://github.com/astraw/svg_stack) -->
<svg xmlns:sodipodi="http://sodipodi.sourceforge.net/DTD/sodipodi-0.dtd" xmlns="http://www.w3.org/2000/svg" version="1.1" width="476.25" height="1593.75">
  <defs/>
  <g id="id0:id0" transform="matrix(1.25,0,0,1.25,0.0,0.0)"><g transform="translate(0.000000,1275.000000) scale(0.100000,-0.100000)" fill="#000000" stroke="none">
<path d="M0 12575 l0 -175 295 0 295 0 0 -1588 0 -1589 570 -281 570 -281 -2 -2732 -3 -2733 -105 -17 c-146 -24 -190 -36 -310 -86 -303 -128 -493 -277 -698 -548 -111 -147 -211 -357 -256 -540 -70 -281 -69 -518 4 -805 72 -284 212 -523 440 -750 58 -58 140 -129 182 -158 256 -174 627 -292 922 -292 286 0 668 118 903 278 177 121 412 381 498 552 158 313 221 605 195 907 -13 151 -57 342 -100 438 -130 287 -208 405 -384 578 -163 160 -292 245 -516 340 -121 51 -165 63 -310 86 l-105 16 -2 2735 -3 2735 570 280 570 279 0 1588 0 1588 295 0 295 0 0 175 0 175 -1905 0 -1905 0 0 -175z m2880 -1653 l0 -1477 -491 -245 -490 -245 -484 245 -485 245 0 1478 0 1477 975 0 975 0 0 -1478z m-733 -8076 c148 -32 364 -126 476 -208 165 -120 325 -304 405 -463 51 -104 107 -278 123 -384 7 -53 10 -141 6 -240 -5 -141 -9 -168 -41 -281 -48 -164 -105 -283 -192 -400 -137 -184 -326 -334 -529 -423 -146 -63 -288 -90 -485 -91 -202 0 -336 24 -480 86 -226 97 -381 216 -520 398 -108 142 -166 257 -216 430 -32 113 -36 141 -41 281 -7 187 5 282 54 434 49 152 101 251 203 385 141 184 268 285 482 381 109 50 189 77 303 102 52 12 387 6 452 -7z"/>
</g>
</g>
  <g id="id1:id1" transform="matrix(1.25,0,0,1.25,0.0,0.0)"><g transform="translate(0.000000,1275.000000) scale(0.100000,-0.100000)" fill="#ffffff" stroke="none">
</g>
</g>
</svg>
