<?xml version="1.0" encoding="UTF-8" standalone="no"?>
<svg
   xmlns:dc="http://purl.org/dc/elements/1.1/"
   xmlns:cc="http://creativecommons.org/ns#"
   xmlns:rdf="http://www.w3.org/1999/02/22-rdf-syntax-ns#"
   xmlns:svg="http://www.w3.org/2000/svg"
   xmlns="http://www.w3.org/2000/svg"
   xmlns:sodipodi="http://sodipodi.sourceforge.net/DTD/sodipodi-0.dtd"
   xmlns:inkscape="http://www.inkscape.org/namespaces/inkscape"
   viewBox="0 0 350.42785 350.68493"
   version="1.1"
   xml:space="preserve"
   id="svg41431"
   inkscape:version="0.48.3.1 r9886"
   width="100%"
   height="100%"
   sodipodi:docname="alkis3640.svg"
   style="fill-rule:evenodd;stroke-linecap:round;stroke-linejoin:round"><metadata
   id="metadata41766"><rdf:RDF><cc:Work
       rdf:about=""><dc:format>image/svg+xml</dc:format><dc:type
         rdf:resource="http://purl.org/dc/dcmitype/StillImage" /></cc:Work></rdf:RDF></metadata><sodipodi:namedview
   pagecolor="#ffffff"
   bordercolor="#666666"
   borderopacity="1"
   objecttolerance="10"
   gridtolerance="10"
   guidetolerance="10"
   inkscape:pageopacity="0"
   inkscape:pageshadow="2"
   inkscape:window-width="1855"
   inkscape:window-height="1025"
   id="namedview41764"
   showgrid="false"
   inkscape:zoom="1.5733333"
   inkscape:cx="176.53128"
   inkscape:cy="175.05906"
   inkscape:window-x="0"
   inkscape:window-y="33"
   inkscape:window-maximized="1"
   inkscape:current-layer="svg41431" />
<defs
   id="defs41433">
<clipPath
   id="clipId0">
<path
   d="M 0,600 800,600 800,0 0,0 z"
   id="path41436"
   inkscape:connector-curvature="0" />
</clipPath>
</defs>
<g
   clip-path="url(#clipId0)"
   id="g41438"
   style="fill:none;stroke:#000000;stroke-width:0.1"
   transform="translate(-224.73991,-124.37413)" />
<g
   clip-path="url(#clipId0)"
   id="g41440"
   style="fill:#ffffff;stroke:none"
   transform="translate(-224.73991,-124.37413)">













































































<path
   d="m 399.9375,131.90625 c -52.24581,-0.13596 -103.72097,25.59412 -134.63339,67.76713 -34.12288,45.22565 -42.67688,108.15208 -21.66952,160.79243 20.28468,53.58079 69.95106,94.56144 126.42655,104.25343 56.61605,10.76874 117.86051,-10.49755 155.62498,-54.03823 38.25224,-42.64646 51.86616,-105.56572 34.56209,-160.19576 C 543.83127,195.24572 496.81459,150.62911 440.81492,137.04578 427.44843,133.6425 413.71654,132.126 399.9375,131.90625 z"
   id="path41596"
   inkscape:connector-curvature="0" />
</g>
<g
   clip-path="url(#clipId0)"
   id="g41598"
   style="fill:#000000;stroke:none"
   transform="translate(-224.73991,-124.37413)">















































































<path
   d="m 399.625,124.375 c -58.45146,-0.19117 -115.86287,31.01101 -147.05415,80.50998 -33.07263,50.32757 -36.97224,117.9769 -10.07365,171.83991 25.87005,54.00245 81.1795,92.27965 140.83755,97.46768 59.56291,6.17127 121.11155,-21.00891 156.68964,-69.17649 36.16625,-47.28909 45.32465,-113.49045 23.2445,-168.79603 -21.27312,-56.34815 -73.71283,-99.23665 -133.09475,-109.16281 -9.88034,-1.79677 -19.9243,-2.44091 -29.95539,-2.68224 -0.3135,4.84517 -0.0617,13.74418 -0.59375,0 z m 0.3125,15.09375 c 53.47529,-0.22642 106.00428,28.21784 134.59731,73.47656 31.90459,48.38818 34.06041,114.36024 5.27743,164.68555 -26.9136,49.60289 -81.81857,82.11442 -138.21444,82.24056 -57.27485,1.08896 -113.65009,-31.3524 -141.19181,-81.62728 C 232.1712,329.3822 233.14463,265.6036 262.48485,217.4476 290.26271,170.27899 343.52202,139.67868 398.2772,139.53483 l 0.99111,-0.0394 0.66919,-0.0266 z"
   id="path41758"
   inkscape:connector-curvature="0" />
</g>
<g
   clip-path="url(#clipId0)"
   id="g41760"
   style="fill:none;stroke:#000000;stroke-width:0.25"
   transform="translate(-224.73991,-124.37413)">
<polyline
   points="399.933,131.912 399.933,131.912 "
   id="polyline41762" />
</g>
</svg>