<?xml version="1.0" standalone="no"?>
<!DOCTYPE svg PUBLIC "-//W3C//DTD SVG 1.1//EN"
 "http://www.w3.org/Graphics/SVG/1.1/DTD/svg11.dtd">
<!-- Created with svg_stack (http://github.com/astraw/svg_stack) -->
<svg xmlns:sodipodi="http://sodipodi.sourceforge.net/DTD/sodipodi-0.dtd" xmlns="http://www.w3.org/2000/svg" version="1.1" width="1477.5" height="1595.0">
  <defs/>
  <g id="id0:id0" transform="matrix(1.25,0,0,1.25,0.0,0.0)"><g transform="translate(0.000000,1276.000000) scale(0.100000,-0.100000)" fill="#000000" stroke="none">
<path d="M0 12754 c0 -5 1807 -2962 1817 -2974 2 -2 8 2 13 10 7 11 10 8 10 -12 l0 -28 1940 0 1940 0 0 -3175 0 -3175 -29 0 c-48 0 -320 -67 -390 -95 -121 -50 -296 -143 -366 -195 -115 -86 -232 -188 -283 -248 -205 -239 -340 -493 -400 -752 -47 -204 -52 -241 -52 -399 0 -163 7 -216 51 -411 27 -118 42 -158 118 -315 123 -253 252 -427 426 -573 178 -150 380 -263 572 -323 257 -80 273 -82 533 -83 265 -1 294 4 533 79 310 98 635 323 816 565 120 161 247 410 301 591 78 260 78 669 0 929 -60 200 -184 441 -315 610 -68 88 -231 240 -340 317 -102 72 -267 160 -398 212 -78 31 -326 91 -376 91 l-31 0 0 3175 0 3175 1939 0 c1877 0 1939 1 1944 18 2 11 419 685 926 1500 506 814 921 1483 921 1486 0 3 -830 6 -1845 6 -1015 0 -1845 -3 -1845 -6 0 -3 365 -595 811 -1316 446 -720 809 -1312 806 -1314 -2 -2 -1737 -3 -3855 -2 l-3852 3 825 1312 c454 722 825 1315 825 1318 0 3 -830 5 -1845 5 -1015 0 -1845 -3 -1845 -6z m3028 -373 c-6 -18 -1203 -1910 -1208 -1910 -5 0 -1162 1891 -1168 1909 -2 7 427 10 1188 10 745 0 1190 -4 1188 -9z m8130 -1 c-6 -18 -1183 -1909 -1188 -1909 -5 0 -1172 1891 -1178 1909 -3 7 411 10 1183 10 766 0 1185 -3 1183 -10z m-4925 -9369 c344 -97 610 -288 793 -571 145 -223 217 -462 217 -725 0 -152 -14 -248 -59 -405 -77 -266 -258 -524 -480 -682 -177 -126 -358 -200 -607 -247 -142 -27 -244 -26 -397 4 -242 47 -361 95 -545 218 -180 120 -346 300 -428 464 -44 86 -103 243 -128 338 -21 81 -24 112 -24 300 0 196 2 217 27 315 28 110 105 296 161 388 80 134 291 348 407 414 30 17 74 44 96 59 23 16 91 48 150 73 100 40 130 49 249 76 22 5 141 8 265 6 196 -2 235 -5 303 -25z"/>
</g>
</g>
  <g id="id1:id1" transform="matrix(1.25,0,0,1.25,0.0,0.0)"><g transform="translate(0.000000,1276.000000) scale(0.100000,-0.100000)" fill="#ffffff" stroke="none">
</g>
</g>
</svg>
