<?xml version="1.0" encoding="UTF-8" standalone="no"?>
<svg
   xmlns:dc="http://purl.org/dc/elements/1.1/"
   xmlns:cc="http://creativecommons.org/ns#"
   xmlns:rdf="http://www.w3.org/1999/02/22-rdf-syntax-ns#"
   xmlns:svg="http://www.w3.org/2000/svg"
   xmlns="http://www.w3.org/2000/svg"
   xmlns:sodipodi="http://sodipodi.sourceforge.net/DTD/sodipodi-0.dtd"
   xmlns:inkscape="http://www.inkscape.org/namespaces/inkscape"
   viewBox="0 0 304.8125 377.9375"
   version="1.1"
   xml:space="preserve"
   id="svg22030"
   inkscape:version="0.48.3.1 r9886"
   width="100%"
   height="100%"
   sodipodi:docname="alkis3336.svg"
   style="fill-rule:evenodd;stroke-linecap:round;stroke-linejoin:round"><metadata
   id="metadata22055"><rdf:RDF><cc:Work
       rdf:about=""><dc:format>image/svg+xml</dc:format><dc:type
         rdf:resource="http://purl.org/dc/dcmitype/StillImage" /></cc:Work></rdf:RDF></metadata><sodipodi:namedview
   pagecolor="#ffffff"
   bordercolor="#666666"
   borderopacity="1"
   objecttolerance="10"
   gridtolerance="10"
   guidetolerance="10"
   inkscape:pageopacity="0"
   inkscape:pageshadow="2"
   inkscape:window-width="1855"
   inkscape:window-height="1025"
   id="namedview22053"
   showgrid="false"
   inkscape:zoom="1.5733333"
   inkscape:cx="152.98994"
   inkscape:cy="192.1875"
   inkscape:window-x="0"
   inkscape:window-y="33"
   inkscape:window-maximized="1"
   inkscape:current-layer="svg22030" />
<defs
   id="defs22032">
<clipPath
   id="clipId0">
<path
   d="M 0,600 800,600 800,0 0,0 z"
   id="path22035"
   inkscape:connector-curvature="0" />
</clipPath>
</defs>
<g
   clip-path="url(#clipId0)"
   id="g22037"
   style="fill:none;stroke:#000000;stroke-width:0.1"
   transform="translate(-248.28125,-114.25)" />
<g
   clip-path="url(#clipId0)"
   id="g22039"
   style="fill:#00ffff;stroke:none"
   transform="translate(-248.28125,-114.25)">
<path
   d="m 248.28125,114.25 0,304.8125 152.40625,73.125 152.40625,-73.125 0,-304.8125 -152.40625,0 -152.40625,0 z"
   id="path22041"
   inkscape:connector-curvature="0" />



</g>
<g
   clip-path="url(#clipId0)"
   id="g22049"
   style="fill:#ffffff;stroke:none"
   transform="translate(-248.28125,-114.25)">
<g
   transform="matrix(182.883,0,0,182.883,311.463,338.597)"
   style="font-size:1.39636004px;font-weight:bold;font-family:'Arial,\'sans-serif\''"
   id="text22051"><path
     style="font-size:1.39636004px;font-weight:bold;font-family:'Arial,\'sans-serif\''"
     d="m 0.88363409,-0.65658922 c 0.001649,0.1100406 -0.0543828,0.22307068 -0.15456505,0.27414907 -0.0899211,0.0524079 -0.19561097,0.0437148 -0.29540293,0.0442592 -0.0463738,0 -0.0927476,0 -0.13912137,0 0,0.11272698 0,0.22545397 0,0.33818095 -0.0670453,0 -0.13409057,0 -0.20113585,0 0,-0.32022645 0,-0.64045289 0,-0.96067934 0.1568896,6.3987e-4 0.31382792,-0.001329 0.47068474,0.001077 0.10829073,0.004854 0.22739991,0.0459453 0.28224783,0.14619302 0.0262091,0.0477293 0.0374339,0.10265739 0.0372927,0.15681989 z m -0.20249944,0.003409 c 0.003753,-0.0603401 -0.0326225,-0.12213532 -0.0923919,-0.13906597 -0.0650947,-0.0196783 -0.13373128,-0.009932 -0.20068553,-0.0122972 -0.0311708,0 -0.0623417,0 -0.0935125,0 0,0.10386337 0,0.20772673 0,0.3115901 0.081767,-8.5969e-4 0.16366082,0.001856 0.24533635,-0.00163 0.0678363,-0.00345 0.13240768,-0.0545806 0.13869615,-0.12450598 0.001762,-0.0112719 0.002558,-0.0226858 0.002558,-0.0340913 z"
     id="path5434"
     inkscape:connector-curvature="0" /></g>

</g>
</svg>