<?xml version="1.0" encoding="UTF-8" standalone="no"?>
<!-- Created with Inkscape (http://www.inkscape.org/) -->

<svg
   xmlns:dc="http://purl.org/dc/elements/1.1/"
   xmlns:cc="http://creativecommons.org/ns#"
   xmlns:rdf="http://www.w3.org/1999/02/22-rdf-syntax-ns#"
   xmlns:svg="http://www.w3.org/2000/svg"
   xmlns="http://www.w3.org/2000/svg"
   xmlns:inkscape="http://www.inkscape.org/namespaces/inkscape"
   version="1.1"
   width="100%"
   height="100%"
   viewBox="0 0 353.641 349.186"
   id="svg2"
   xml:space="preserve"
   style="fill-rule:evenodd;stroke-linecap:round;stroke-linejoin:round"><metadata
     id="metadata41"><rdf:RDF><cc:Work
         rdf:about=""><dc:format>image/svg+xml</dc:format><dc:type
           rdf:resource="http://purl.org/dc/dcmitype/StillImage" /></cc:Work></rdf:RDF></metadata><defs
     id="defs4"><clipPath
       id="clipId0"><path
         d="M 0,600 800,600 800,0 0,0 z"
         inkscape:connector-curvature="0"
         id="path7" /></clipPath></defs><g
     transform="translate(-224.203,-125.624)"
     clip-path="url(#clipId0)"
     id="g9"
     style="fill:none;stroke:#000000;stroke-width:0.1" /><g
     transform="translate(-224.203,-125.624)"
     clip-path="url(#clipId0)"
     id="g11"
     style="fill:#999999;stroke:none"><path
       d="m 232.579,142.376 0,-16.752 345.265,0 -20.463,16.752 z"
       inkscape:connector-curvature="0"
       id="path13" /><path
       d="m 557.381,142.376 20.463,-16.752 -28.366,140.815 -15.847,-6.158 z"
       inkscape:connector-curvature="0"
       id="path15" /><path
       d="m 533.631,260.281 15.847,6.158 -42.387,70.325 -12.97,-10.933 z"
       inkscape:connector-curvature="0"
       id="path17" /><path
       d="m 494.121,325.831 12.97,10.933 -42.505,36.709 -9.857,-13.621 z"
       inkscape:connector-curvature="0"
       id="path19" /><path
       d="m 454.729,359.852 9.857,13.621 -19.232,11.539 -8.619,-14.364 z"
       inkscape:connector-curvature="0"
       id="path21" /><path
       d="m 264.018,244.125 15.296,6.829 -22.905,51.308 -16.018,-5.213 z"
       inkscape:connector-curvature="0"
       id="path23" /><path
       d="m 240.391,297.049 16.018,5.213 -15.454,72.726 -16.752,-1.761 z"
       inkscape:connector-curvature="0"
       id="path25" /><path
       d="m 224.203,373.227 16.752,1.761 0,32.065 -16.752,6.7 z"
       inkscape:connector-curvature="0"
       id="path27" /><path
       d="m 224.203,413.753 16.752,-6.7 53.528,56.204 -12.13,11.553 z"
       inkscape:connector-curvature="0"
       id="path29" /><path
       d="m 383.141,244.125 15.297,6.829 -22.906,51.308 -16.018,-5.213 z"
       inkscape:connector-curvature="0"
       id="path31" /><path
       d="m 359.514,297.049 16.018,5.213 -15.454,72.726 -16.752,-1.761 z"
       inkscape:connector-curvature="0"
       id="path33" /><path
       d="m 343.326,373.227 16.752,1.761 0,32.065 -16.752,6.7 z"
       inkscape:connector-curvature="0"
       id="path35" /><path
       d="m 343.326,413.753 16.752,-6.7 53.528,56.204 -12.13,11.553 z"
       inkscape:connector-curvature="0"
       id="path37" /></g></svg>