<?xml version="1.0" standalone="no"?>
<!DOCTYPE svg PUBLIC "-//W3C//DTD SVG 1.1//EN"
 "http://www.w3.org/Graphics/SVG/1.1/DTD/svg11.dtd">
<!-- Created with svg_stack (http://github.com/astraw/svg_stack) -->
<svg xmlns:sodipodi="http://sodipodi.sourceforge.net/DTD/sodipodi-0.dtd" xmlns="http://www.w3.org/2000/svg" version="1.1" width="1591.25" height="1592.5">
  <defs/>
  <g id="id0:id0" transform="matrix(1.25,0,0,1.25,0.0,0.0)"><g transform="translate(0.000000,1274.000000) scale(0.100000,-0.100000)" fill="#181512" stroke="none">
<path d="M0 6370 l0 -6370 6365 0 6365 0 0 6370 0 6370 -6365 0 -6365 0 0 -6370z m12010 -5 l0 -5645 -5645 0 -5645 0 0 5645 0 5645 5645 0 5645 0 0 -5645z"/>
<path d="M2000 6365 l0 -4365 4365 0 4365 0 0 4365 0 4365 -4365 0 -4365 0 0 -4365z m5922 2083 l-1562 -1563 -1562 1563 -1563 1562 3125 0 3125 0 -1563 -1562z m2088 -2333 l0 -3395 -3645 0 -3645 0 0 3392 0 3393 1820 -1820 1820 -1820 1823 1823 c1002 1002 1823 1822 1824 1822 2 0 3 -1528 3 -3395z"/>
</g>
</g>
  <g id="id1:id1" transform="matrix(1.25,0,0,1.25,0.0,0.0)"><g transform="translate(0.000000,1274.000000) scale(0.100000,-0.100000)" fill="#ffffff" stroke="none">
</g>
</g>
</svg>
