<?xml version="1.0" standalone="no"?>
<!DOCTYPE svg PUBLIC "-//W3C//DTD SVG 1.1//EN"
 "http://www.w3.org/Graphics/SVG/1.1/DTD/svg11.dtd">
<!-- Created with svg_stack (http://github.com/astraw/svg_stack) -->
<svg xmlns:sodipodi="http://sodipodi.sourceforge.net/DTD/sodipodi-0.dtd" xmlns="http://www.w3.org/2000/svg" version="1.1" width="1970.0" height="327.5">
  <defs/>
  <g id="id0:id0" transform="matrix(1.25,0,0,1.25,0.0,0.0)"><g transform="translate(0.000000,262.000000) scale(0.100000,-0.100000)" fill="#00ff00" stroke="none">
<path d="M1030 2591 c-467 -97 -818 -422 -979 -906 -37 -113 -51 -213 -51 -368 0 -223 39 -386 143 -592 141 -281 367 -494 652 -614 94 -39 155 -57 279 -81 201 -38 268 -38 475 2 256 48 400 115 608 282 168 136 302 334 397 589 45 120 66 252 66 414 0 219 -31 353 -129 559 -113 237 -253 396 -484 551 -253 169 -638 234 -977 164z"/>
<path d="M14170 2591 c-467 -97 -818 -422 -979 -906 -37 -113 -51 -213 -51 -368 0 -223 39 -386 143 -592 141 -281 367 -494 652 -614 94 -39 155 -57 279 -81 201 -38 268 -38 475 2 256 48 400 115 608 282 168 136 302 334 397 589 45 120 66 252 66 414 0 219 -31 353 -129 559 -113 237 -253 396 -484 551 -253 169 -638 234 -977 164z"/>
</g>
</g>
  <g id="id1:id1" transform="matrix(1.25,0,0,1.25,0.0,0.0)"><g transform="translate(0.000000,262.000000) scale(0.100000,-0.100000)" fill="#ffffff" stroke="none">
</g>
</g>
</svg>
