<?xml version="1.0" encoding="UTF-8" standalone="no"?>
<!-- Created with Inkscape (http://www.inkscape.org/) -->

<svg
   xmlns:dc="http://purl.org/dc/elements/1.1/"
   xmlns:cc="http://creativecommons.org/ns#"
   xmlns:rdf="http://www.w3.org/1999/02/22-rdf-syntax-ns#"
   xmlns:svg="http://www.w3.org/2000/svg"
   xmlns="http://www.w3.org/2000/svg"
   xmlns:inkscape="http://www.inkscape.org/namespaces/inkscape"
   version="1.1"
   width="100%"
   height="100%"
   viewBox="0 0 423 384.53125"
   id="svg2"
   xml:space="preserve"
   style="fill-rule:evenodd;stroke-linecap:round;stroke-linejoin:round"><metadata
     id="metadata53"><rdf:RDF><cc:Work
         rdf:about=""><dc:format>image/svg+xml</dc:format><dc:type
           rdf:resource="http://purl.org/dc/dcmitype/StillImage" /></cc:Work></rdf:RDF></metadata><defs
     id="defs4"><clipPath
       id="clipId0"><path
         d="M 0,600 800,600 800,0 0,0 z"
         inkscape:connector-curvature="0"
         id="path7" /></clipPath></defs><g
     transform="translate(-188.8125,-107.25)"
     clip-path="url(#clipId0)"
     id="g9"
     style="fill:none;stroke:#000000;stroke-width:0.1" /><g
     transform="translate(-188.8125,-107.25)"
     clip-path="url(#clipId0)"
     id="g11"
     style="fill:#000000;stroke:none" /><g
     transform="translate(-188.8125,-107.25)"
     clip-path="url(#clipId0)"
     id="g21"
     style="fill:none;stroke:#000000;stroke-width:0.25" /><g
     transform="translate(-188.8125,-107.25)"
     clip-path="url(#clipId0)"
     id="g25"
     style="fill:#000000;stroke:none" /><g
     transform="translate(-188.8125,-107.25)"
     clip-path="url(#clipId0)"
     id="g39"
     style="fill:none;stroke:#000000;stroke-width:0.25" /><g
     transform="translate(-188.8125,-107.25)"
     clip-path="url(#clipId0)"
     id="g43"
     style="fill:#000000;stroke:none"><path
       d="m 400.3125,107.25 -211.5,57.6875 0,23.0625 76.9375,0 0,226.875 -38.46875,0 0,38.46875 -38.46875,0 0,38.4375 38.46875,0 346.09375,0 38.4375,0 0,-38.4375 -38.4375,0 0,-38.46875 -38.46875,0 0,-226.875 76.90625,0 0,-23.0625 -211.5,-57.6875 z m -96.125,80.75 76.90625,0 0,226.875 -76.90625,0 0,-226.875 z m 115.375,0 76.90625,0 0,226.875 -76.90625,0 0,-226.875 z"
       inkscape:connector-curvature="0"
       id="path49" /></g></svg>