<?xml version="1.0" encoding="UTF-8" standalone="no"?>
<svg
   xmlns:dc="http://purl.org/dc/elements/1.1/"
   xmlns:cc="http://creativecommons.org/ns#"
   xmlns:rdf="http://www.w3.org/1999/02/22-rdf-syntax-ns#"
   xmlns:svg="http://www.w3.org/2000/svg"
   xmlns="http://www.w3.org/2000/svg"
   xmlns:sodipodi="http://sodipodi.sourceforge.net/DTD/sodipodi-0.dtd"
   xmlns:inkscape="http://www.inkscape.org/namespaces/inkscape"
   viewBox="0 0 791.25825 130.786"
   version="1.1"
   xml:space="preserve"
   id="svg2"
   inkscape:version="0.48.3.1 r9886"
   width="100%"
   height="100%"
   sodipodi:docname="alkis3619.svg"
   style="fill-rule:evenodd;stroke-linecap:round;stroke-linejoin:round"><metadata
   id="metadata33"><rdf:RDF><cc:Work
       rdf:about=""><dc:format>image/svg+xml</dc:format><dc:type
         rdf:resource="http://purl.org/dc/dcmitype/StillImage" /></cc:Work></rdf:RDF></metadata><sodipodi:namedview
   pagecolor="#ffffff"
   bordercolor="#666666"
   borderopacity="1"
   objecttolerance="10"
   gridtolerance="10"
   guidetolerance="10"
   inkscape:pageopacity="0"
   inkscape:pageshadow="2"
   inkscape:window-width="640"
   inkscape:window-height="480"
   id="namedview31"
   showgrid="false"
   inkscape:zoom="0.39333333"
   inkscape:cx="396.64025"
   inkscape:cy="65.824"
   inkscape:window-x="0"
   inkscape:window-y="33"
   inkscape:window-maximized="0"
   inkscape:current-layer="svg2" />
<defs
   id="defs4">
<clipPath
   id="clipId0">
<path
   d="M 0,600 800,600 800,0 0,0 z"
   id="path7"
   inkscape:connector-curvature="0" />
</clipPath>
</defs>
<g
   clip-path="url(#clipId0)"
   id="g9"
   style="fill:none;stroke:#000000;stroke-width:0.1"
   transform="translate(-3.35975,-235.038)" />
<g
   clip-path="url(#clipId0)"
   id="g11"
   style="fill:#00cccc;stroke:none"
   transform="translate(-3.35975,-235.038)">
<path
   d="M 166.843,365.824 3.35975,300.431 166.843,235.038 z"
   id="path13"
   inkscape:connector-curvature="0" />
<path
   d="m 206.079,310.24 0,-19.618 39.236,0 0,19.618 z"
   id="path15"
   inkscape:connector-curvature="0" />
<path
   d="m 284.551,310.24 0,-19.618 39.236,0 0,19.618 z"
   id="path17"
   inkscape:connector-curvature="0" />
<path
   d="m 363.023,310.24 0,-19.618 39.235,0 0,19.618 z"
   id="path19"
   inkscape:connector-curvature="0" />
<path
   d="m 441.494,310.24 0,-19.618 39.236,0 0,19.618 z"
   id="path21"
   inkscape:connector-curvature="0" />
<path
   d="m 519.966,310.24 0,-19.618 39.236,0 0,19.618 z"
   id="path23"
   inkscape:connector-curvature="0" />
<path
   d="m 598.438,310.24 0,-19.618 39.236,0 0,19.618 z"
   id="path25"
   inkscape:connector-curvature="0" />
<path
   d="m 676.91,310.24 0,-19.618 39.236,0 0,19.618 z"
   id="path27"
   inkscape:connector-curvature="0" />
<path
   d="m 755.382,310.24 0,-19.618 39.236,0 0,19.618 z"
   id="path29"
   inkscape:connector-curvature="0" />
</g>
</svg>