<?xml version="1.0" encoding="UTF-8" standalone="no"?>
<svg
   xmlns:dc="http://purl.org/dc/elements/1.1/"
   xmlns:cc="http://creativecommons.org/ns#"
   xmlns:rdf="http://www.w3.org/1999/02/22-rdf-syntax-ns#"
   xmlns:svg="http://www.w3.org/2000/svg"
   xmlns="http://www.w3.org/2000/svg"
   xmlns:sodipodi="http://sodipodi.sourceforge.net/DTD/sodipodi-0.dtd"
   xmlns:inkscape="http://www.inkscape.org/namespaces/inkscape"
   viewBox="0 0 105.53125 351.92442"
   version="1.1"
   xml:space="preserve"
   id="svg2"
   inkscape:version="0.48.3.1 r9886"
   width="100%"
   height="100%"
   sodipodi:docname="alkis3557.svg"
   style="fill-rule:evenodd;stroke-linecap:round;stroke-linejoin:round"><metadata
   id="metadata193"><rdf:RDF><cc:Work
       rdf:about=""><dc:format>image/svg+xml</dc:format><dc:type
         rdf:resource="http://purl.org/dc/dcmitype/StillImage" /></cc:Work></rdf:RDF></metadata><sodipodi:namedview
   pagecolor="#ffffff"
   bordercolor="#666666"
   borderopacity="1"
   objecttolerance="10"
   gridtolerance="10"
   guidetolerance="10"
   inkscape:pageopacity="0"
   inkscape:pageshadow="2"
   inkscape:window-width="1855"
   inkscape:window-height="1025"
   id="namedview191"
   showgrid="false"
   inkscape:zoom="2.2250293"
   inkscape:cx="-28.831255"
   inkscape:cy="175.79942"
   inkscape:window-x="0"
   inkscape:window-y="33"
   inkscape:window-maximized="1"
   inkscape:current-layer="svg2" />
<defs
   id="defs4">
<clipPath
   id="clipId0">
<path
   d="M 0,600 800,600 800,0 0,0 z"
   id="path7"
   inkscape:connector-curvature="0" />
</clipPath>
</defs>
<g
   clip-path="url(#clipId0)"
   id="g9"
   style="fill:none;stroke:#000000;stroke-width:0.1"
   transform="translate(-347.625,-123.875)" />
<g
   clip-path="url(#clipId0)"
   id="g11"
   style="fill:#000000;stroke:none"
   transform="translate(-347.625,-123.875)">
















































































</g>
<g
   clip-path="url(#clipId0)"
   id="g173"
   style="fill:none;stroke:#000000;stroke-width:0.25"
   transform="translate(-347.625,-123.875)">
<path
   style="fill:#000000;fill-opacity:1;fill-rule:nonzero"
   d="m 347.75,124 0,9.46875 16.3125,0 0,87.6875 31.59375,15.78125 0,150.5625 c -13.80652,1.50095 -26.81133,9.7419 -33.59375,21.9375 -7.335,12.45011 -7.8052,28.51221 -1.375,41.4375 6.43189,13.37741 20.00933,22.98353 34.78125,24.5 14.98527,1.81953 30.6353,-4.76236 39.78125,-16.78125 10.0005,-12.51248 12.15185,-30.64471 5.46875,-45.1875 -5.78063,-13.23891 -18.48136,-23.09697 -32.71875,-25.5 -0.95755,-0.17509 -1.90755,-0.30632 -2.875,-0.40625 l 0,-150.5625 31.59375,-15.78125 0,-87.6875 16.3125,0 0,-9.46875 -105.28125,0 z m 25.78125,9.46875 53.6875,0 0,81.84375 -26.84375,13.40625 -26.84375,-13.40625 0,-81.84375 z M 400.1875,396.6875 c 12.52095,-0.12265 24.79599,7.0553 30.6875,18.125 6.21819,11.17874 5.49006,25.75869 -1.84375,36.25 -7.12016,10.62412 -20.45593,16.61002 -33.125,14.8125 -12.87838,-1.50421 -24.35386,-10.94332 -28.40625,-23.25 -4.25667,-12.07692 -1.01165,-26.31797 8,-35.40625 6.41517,-6.63323 15.47108,-10.44026 24.6875,-10.53125 z"
   id="polyline175"
   inkscape:connector-curvature="0" />
</g>
<g
   clip-path="url(#clipId0)"
   id="g177"
   style="fill:#000000;stroke:none"
   transform="translate(-347.625,-123.875)">






</g>
</svg>