<?xml version="1.0" standalone="no"?>
<!DOCTYPE svg PUBLIC "-//W3C//DTD SVG 1.1//EN"
 "http://www.w3.org/Graphics/SVG/1.1/DTD/svg11.dtd">
<!-- Created with svg_stack (http://github.com/astraw/svg_stack) -->
<svg xmlns:sodipodi="http://sodipodi.sourceforge.net/DTD/sodipodi-0.dtd" xmlns="http://www.w3.org/2000/svg" version="1.1" width="835.0" height="1595.0">
  <defs/>
  <g id="id0:id0" transform="matrix(1.25,0,0,1.25,0.0,0.0)"><g transform="translate(0.000000,1276.000000) scale(0.100000,-0.100000)" fill="#181512" stroke="none">
<path d="M1810 10093 c-976 -1466 -1783 -2678 -1793 -2693 l-17 -27 230 -153 c127 -84 232 -151 234 -149 2 2 580 868 1286 1924 706 1056 1284 1922 1286 1924 2 2 4 -1292 4 -2876 l0 -2881 -57 -7 c-71 -8 -261 -47 -374 -75 -176 -44 -349 -117 -574 -243 -200 -112 -349 -225 -549 -418 -193 -185 -323 -365 -472 -654 -132 -254 -201 -467 -254 -779 -61 -359 -46 -638 57 -1061 62 -258 151 -462 312 -718 117 -186 221 -318 357 -453 284 -284 516 -431 974 -617 197 -80 550 -137 855 -137 370 0 670 58 975 187 367 156 596 308 861 574 141 140 228 252 348 442 192 307 283 534 350 877 71 363 76 582 21 906 -31 182 -78 366 -127 499 -80 217 -253 528 -403 725 -67 89 -287 303 -415 405 -263 210 -622 395 -904 465 -113 28 -303 67 -373 75 l-58 7 0 2429 0 2429 1265 0 1265 0 0 -635 0 -635 280 0 280 0 0 915 0 915 -1545 0 -1545 0 -2 1089 -3 1090 -1775 -2666z m1736 -5488 c237 -31 351 -61 556 -144 285 -115 494 -264 720 -515 132 -146 222 -274 303 -428 74 -141 108 -235 165 -453 75 -286 77 -649 4 -940 -70 -282 -125 -411 -276 -650 -133 -209 -365 -445 -583 -592 -103 -69 -365 -194 -503 -239 -248 -81 -594 -113 -848 -79 -286 38 -402 73 -680 205 -267 127 -443 269 -672 542 -86 103 -164 227 -246 388 -71 139 -87 186 -145 410 -77 299 -77 645 -1 950 55 217 89 313 165 458 80 154 171 282 302 427 165 183 281 280 482 400 100 61 350 165 481 201 251 68 543 91 776 59z"/>
</g>
</g>
  <g id="id1:id1" transform="matrix(1.25,0,0,1.25,0.0,0.0)"><g transform="translate(0.000000,1276.000000) scale(0.100000,-0.100000)" fill="#ffffff" stroke="none">
</g>
</g>
</svg>
