<?xml version="1.0" standalone="no"?>
<!DOCTYPE svg PUBLIC "-//W3C//DTD SVG 1.1//EN"
 "http://www.w3.org/Graphics/SVG/1.1/DTD/svg11.dtd">
<!-- Created with svg_stack (http://github.com/astraw/svg_stack) -->
<svg xmlns:sodipodi="http://sodipodi.sourceforge.net/DTD/sodipodi-0.dtd" xmlns="http://www.w3.org/2000/svg" version="1.1" width="1283.75" height="1591.25">
  <defs/>
  <g id="id0:id0" transform="matrix(1.25,0,0,1.25,0.0,0.0)"><g transform="translate(0.000000,1273.000000) scale(0.100000,-0.100000)" fill="#00ffff" stroke="none">
<path d="M0 7597 l0 -5132 2562 -1234 c2238 -1077 2566 -1232 2588 -1224 14 5 1171 560 2572 1234 l2548 1224 0 5132 0 5133 -5135 0 -5135 0 0 -5133z m5800 3054 c329 -27 509 -69 724 -167 180 -83 300 -167 447 -314 234 -234 358 -447 444 -763 63 -233 92 -534 75 -791 -14 -227 -26 -298 -70 -449 -60 -203 -99 -292 -201 -459 -85 -139 -107 -166 -234 -294 -103 -104 -169 -160 -250 -214 -199 -133 -481 -252 -672 -284 -333 -55 -662 -74 -1423 -83 l-620 -6 0 -1159 0 -1158 -620 0 -620 0 0 3081 0 3081 1443 -5 c951 -3 1488 -8 1577 -16z"/>
<path d="M4020 8756 l0 -876 406 0 c901 0 1236 49 1455 211 157 116 253 255 301 431 30 111 32 351 4 473 -60 263 -280 481 -581 577 -132 42 -274 50 -947 55 l-638 5 0 -876z"/>
</g>
</g>
  <g id="id1:id1" transform="matrix(1.25,0,0,1.25,0.0,0.0)"><g transform="translate(0.000000,1273.000000) scale(0.100000,-0.100000)" fill="#ffffff" stroke="none">
<path d="M2780 7591 l0 -3081 620 0 620 0 0 1158 0 1159 620 6 c761 9 1090 28 1423 83 191 32 473 151 672 284 81 54 147 110 250 214 127 128 149 155 234 294 102 167 141 256 201 459 44 151 56 222 70 449 12 175 -5 461 -35 619 -53 281 -160 541 -298 725 -96 128 -281 312 -397 392 -189 133 -461 236 -715 272 -249 36 -371 39 -1822 43 l-1443 5 0 -3081z m2640 2016 c69 -9 152 -25 185 -35 301 -96 521 -314 581 -577 28 -122 26 -362 -4 -473 -48 -176 -144 -315 -301 -431 -219 -162 -554 -211 -1455 -211 l-406 0 0 876 0 876 638 -5 c496 -4 665 -8 762 -20z"/>
</g>
</g>
</svg>
