<?xml version="1.0" standalone="no"?>
<!DOCTYPE svg PUBLIC "-//W3C//DTD SVG 1.1//EN"
 "http://www.w3.org/Graphics/SVG/1.1/DTD/svg11.dtd">
<!-- Created with svg_stack (http://github.com/astraw/svg_stack) -->
<svg xmlns:sodipodi="http://sodipodi.sourceforge.net/DTD/sodipodi-0.dtd" xmlns="http://www.w3.org/2000/svg" version="1.1" width="1765.0" height="1575.0">
  <defs/>
  <g id="id0:id0" transform="matrix(1.25,0,0,1.25,0.0,0.0)"><g transform="translate(0.000000,1260.000000) scale(0.100000,-0.100000)" fill="#999999" stroke="none">
<path d="M6680 12551 c-218 -62 -328 -118 -491 -249 -68 -55 -145 -122 -170 -148 -80 -86 -168 -219 -238 -364 -100 -204 -131 -344 -131 -595 0 -251 31 -391 131 -595 133 -274 267 -425 524 -593 92 -60 242 -129 357 -163 93 -28 315 -64 398 -64 217 0 543 93 726 207 120 75 291 221 359 308 219 278 318 559 318 900 0 341 -99 621 -318 900 -39 50 -110 118 -199 192 -178 147 -276 197 -511 264 l-170 49 -210 -1 -210 0 -165 -48z"/>
<path d="M1265 2813 c-61 -5 -205 -32 -255 -47 -261 -80 -512 -242 -663 -430 -224 -275 -332 -555 -344 -884 -9 -245 64 -536 187 -743 106 -178 275 -366 414 -459 92 -61 293 -160 386 -189 229 -72 542 -78 787 -15 128 32 371 150 479 232 187 141 362 372 454 597 140 344 145 685 14 1040 -47 127 -139 288 -217 380 -24 28 -56 67 -72 88 -38 51 -201 181 -305 244 -243 147 -551 213 -865 186z"/>
<path d="M12560 2814 c-356 -33 -686 -207 -928 -488 -114 -132 -214 -310 -273 -486 -76 -229 -83 -534 -17 -798 27 -110 157 -373 235 -477 205 -275 520 -475 854 -542 121 -24 432 -24 548 1 179 38 367 117 516 217 106 71 277 238 355 346 66 92 165 286 199 388 92 281 86 631 -15 915 -50 139 -163 330 -259 440 -144 165 -350 315 -528 384 -231 89 -452 121 -687 100z"/>
</g>
</g>
  <g id="id1:id1" transform="matrix(1.25,0,0,1.25,0.0,0.0)"><g transform="translate(0.000000,1260.000000) scale(0.100000,-0.100000)" fill="#ffffff" stroke="none">
</g>
</g>
</svg>
