<?xml version="1.0" encoding="UTF-8" standalone="no"?>
<!-- Created with Inkscape (http://www.inkscape.org/) -->

<svg
   xmlns:dc="http://purl.org/dc/elements/1.1/"
   xmlns:cc="http://creativecommons.org/ns#"
   xmlns:rdf="http://www.w3.org/1999/02/22-rdf-syntax-ns#"
   xmlns:svg="http://www.w3.org/2000/svg"
   xmlns="http://www.w3.org/2000/svg"
   xmlns:inkscape="http://www.inkscape.org/namespaces/inkscape"
   version="1.1"
   width="100%"
   height="100%"
   viewBox="0 0 360.15625 359.80511"
   id="svg110238"
   xml:space="preserve"
   style="fill-rule:evenodd;stroke-linecap:round;stroke-linejoin:round"><metadata
     id="metadata112017"><rdf:RDF><cc:Work
         rdf:about=""><dc:format>image/svg+xml</dc:format><dc:type
           rdf:resource="http://purl.org/dc/dcmitype/StillImage" /></cc:Work></rdf:RDF></metadata><defs
     id="defs110240"><clipPath
       id="clipId0"><path
         d="M 0,600 800,600 800,0 0,0 z"
         inkscape:connector-curvature="0"
         id="path110243" /></clipPath></defs><g
     transform="translate(-185.3125,-125.06245)"
     clip-path="url(#clipId0)"
     id="g110245"
     style="fill:none;stroke:#000000;stroke-width:0.1" /><g
     transform="translate(-185.3125,-125.06245)"
     clip-path="url(#clipId0)"
     id="g110247"
     style="fill:#ffffff;stroke:none"><path
       d="M 303.46875,131.65625 193.15625,242 l 0,235.34375 235.34375,0 110.34375,-110.3125 0,-235.375 -110.34375,0 -125.03125,0 z"
       inkscape:connector-curvature="0"
       id="path110249" /></g><g
     transform="translate(-185.3125,-125.06245)"
     clip-path="url(#clipId0)"
     id="g110253"
     style="fill:#000000;stroke:none"><path
       d="M 300.75,125.0625 185.3125,242.59375 c 0.7468,118.89464 0.24345,118.64127 0.59375,241.4375 l 7.25,-0.15625 0,0.0937 239.27216,0.89886 c 28.6958,-28.95948 92.83986,-93.69829 113.04034,-115.08636 l -1.90625,-244.5625 -11.34375,22.4375 0,216.625 -97.09375,97.125 0,-216.65625 97.09375,-97.09375 11.1875,-22.28125 c 0.0525,-0.0525 0.10376,-0.10373 0.15625,-0.15625 0.0473,-0.0473 0.0777,-0.10893 0.125,-0.15625 z m 5.46875,13.21875 216.625,0 -97.0625,97.09375 -216.625,0 z m 135.65625,16.5625 c -8.75252,0.47821 -19.04195,0.35957 -25.90625,6.5625 -2.51178,5.79671 6.51817,7.66619 10.5625,8.78125 13.25179,2.24874 28.15991,3.0066 40.3125,-3.59375 5.05612,-3.2324 -0.5632,-8.17426 -4.46875,-8.84375 -6.55719,-2.28955 -13.59794,-2.8646 -20.5,-2.90625 z M 365.90625,178 c -8.82671,0.45071 -19.22363,0.42915 -26.03125,6.8125 -2.67354,5.53576 5.6899,7.908 9.65625,8.96875 13.23529,2.73829 28.07416,3.20058 40.4375,-2.96875 4.38879,-1.89319 2.94138,-7.41825 -1.125,-8.625 -7.07456,-3.4134 -15.18513,-4.06547 -22.9375,-4.1875 z m 140.125,23.1875 c -6.27576,2.47775 -6.57046,11.0559 -7.75,16.8125 -0.92204,11.78857 -1.64139,25.21299 5.15625,35.46875 4.26041,4.24092 7.89977,-3.02247 8.71875,-6.65625 3.39479,-13.84097 3.90346,-29.41423 -2.125,-42.59375 -0.91923,-1.38437 -2.1429,-3.06899 -4,-3.03125 z M 285.4375,204.125 c -8.33978,0.74659 -18.68761,0.47081 -24.6875,7.1875 -0.99587,5.64453 6.93724,6.91468 10.96875,8.15625 13.23768,2.25069 28.14073,2.99818 40.28125,-3.59375 5.08186,-3.18747 -0.51309,-8.19477 -4.4375,-8.84375 -7.07678,-2.46512 -14.68539,-2.95059 -22.125,-2.90625 z m -85.65625,44.5 222.125,0 0,222.09375 0,0.21875 -221.96875,-0.21875 z M 309.25,333.9375 c -16.42092,0.52257 -28.93485,19.14518 -22.59375,34.5625 5.24675,16.47608 28.21484,22.46226 40.90625,10.75 13.48817,-10.66547 11.23591,-34.13903 -4.09375,-41.96875 -3.80736,-2.19912 -8.23669,-3.33007 -12.625,-3.34375 -0.53738,-0.0215 -1.06404,-0.0169 -1.59375,0 z M 456.90625,355.25 c -6.32832,2.17511 -6.58919,10.76684 -7.875,16.375 -0.94887,11.94001 -1.73579,25.5177 5.125,35.9375 4.2551,4.21807 7.91971,-3.02298 8.71875,-6.65625 3.40749,-13.85364 3.89924,-29.42824 -2.125,-42.625 -0.90863,-1.36154 -2.06474,-2.89306 -3.84375,-3.03125 z"
       inkscape:connector-curvature="0"
       id="path110255" /></g><g
     transform="translate(-185.3125,-125.06245)"
     clip-path="url(#clipId0)"
     id="g110263"
     style="fill:#ffffff;stroke:none" /><g
     transform="translate(-185.3125,-125.06245)"
     clip-path="url(#clipId0)"
     id="g110269"
     style="fill:#000000;stroke:none" /><g
     transform="translate(-185.3125,-125.06245)"
     clip-path="url(#clipId0)"
     id="g110279"
     style="fill:#ffffff;stroke:none" /><g
     transform="translate(-185.3125,-125.06245)"
     clip-path="url(#clipId0)"
     id="g110289"
     style="fill:#000000;fill-rule:nonzero;stroke:none" /></svg>