<?xml version="1.0" standalone="no"?>
<!DOCTYPE svg PUBLIC "-//W3C//DTD SVG 1.1//EN"
 "http://www.w3.org/Graphics/SVG/1.1/DTD/svg11.dtd">
<!-- Created with svg_stack (http://github.com/astraw/svg_stack) -->
<svg xmlns:sodipodi="http://sodipodi.sourceforge.net/DTD/sodipodi-0.dtd" xmlns="http://www.w3.org/2000/svg" version="1.1" width="1596.25" height="1596.25">
  <defs/>
  <g id="id0:id0" transform="matrix(1.25,0,0,1.25,0.0,0.0)"><g transform="translate(0.000000,1277.000000) scale(0.100000,-0.100000)" fill="#00ffff" stroke="none">
<path d="M5985 12760 c-558 -31 -1307 -190 -1820 -388 -655 -253 -1206 -562 -1740 -976 -477 -370 -981 -917 -1344 -1461 -381 -569 -641 -1132 -841 -1820 -142 -487 -205 -896 -230 -1476 -21 -485 23 -1075 111 -1504 241 -1172 765 -2195 1578 -3084 352 -384 689 -673 1135 -970 418 -279 842 -495 1351 -689 418 -160 935 -283 1455 -349 l285 -36 455 0 455 0 285 36 c522 66 1053 192 1465 349 653 248 1269 592 1750 978 1079 863 1809 1960 2185 3280 327 1149 327 2341 0 3465 -393 1350 -1105 2421 -2185 3286 -478 382 -1079 719 -1730 970 -409 158 -967 292 -1480 355 -260 32 -306 34 -635 38 -195 2 -422 1 -505 -4z m-440 -3299 l166 -155 -39 -40 c-21 -23 -110 -117 -197 -211 -88 -93 -176 -188 -197 -210 l-38 -41 360 -289 359 -289 -26 -35 c-93 -122 -246 -316 -252 -319 -3 -1 -149 112 -322 252 l-317 253 -184 -586 -184 -586 1635 -3 c899 -1 1636 -1 1637 1 2 2 -30 92 -71 202 -42 109 -74 199 -73 200 2 1 39 16 83 33 l80 31 -307 0 -308 1 0 320 0 320 540 0 540 0 0 -320 0 -320 -81 0 c-63 0 -80 -3 -77 -14 2 -7 84 -230 183 -495 l180 -482 30 6 c174 34 215 37 435 32 244 -5 278 -11 525 -83 488 -143 951 -585 1134 -1083 151 -407 151 -905 2 -1292 -42 -110 -136 -292 -193 -377 -65 -97 -211 -265 -284 -327 -307 -265 -634 -416 -1016 -470 -313 -44 -685 19 -1004 171 -110 52 -328 196 -432 285 -85 73 -229 236 -300 341 -57 84 -157 280 -195 383 -46 121 -100 397 -112 570 -12 157 41 494 107 690 84 247 269 523 496 736 56 54 263 201 357 255 18 10 16 16 -21 117 l-39 107 -1800 -3 -1799 -2 -23 -75 c-13 -41 -23 -79 -23 -85 0 -5 53 -38 118 -73 190 -101 320 -209 495 -411 200 -232 314 -451 392 -756 85 -333 62 -745 -59 -1063 -128 -334 -309 -581 -601 -818 -165 -134 -451 -271 -685 -328 -362 -88 -662 -72 -1035 56 -361 123 -755 433 -923 726 -157 274 -242 506 -281 769 -16 105 -13 362 4 473 30 182 98 406 166 542 161 324 352 544 642 738 158 107 256 152 438 204 278 80 288 81 549 81 129 0 257 -2 284 -5 l49 -5 296 942 c163 518 299 944 303 948 3 4 49 -7 102 -23 53 -17 96 -29 96 -27 0 2 -61 52 -135 111 l-134 107 52 57 c174 191 753 800 759 797 4 -1 82 -71 173 -156z"/>
<path d="M3439 6245 c-231 -47 -516 -204 -691 -382 -110 -112 -185 -218 -259 -365 -115 -230 -144 -367 -136 -648 7 -241 30 -331 134 -538 96 -189 177 -299 308 -416 221 -198 397 -283 710 -341 159 -30 261 -31 402 -4 300 57 497 145 681 305 185 159 280 286 368 488 101 235 137 467 110 705 -19 159 -34 221 -87 355 -51 128 -97 215 -153 289 -78 104 -209 239 -290 300 -97 71 -196 123 -205 108 -4 -6 -94 -289 -200 -628 -107 -340 -197 -622 -201 -626 -6 -7 -422 115 -437 127 -1 1 87 289 197 639 110 350 200 638 200 641 0 12 -386 3 -451 -9z"/>
<path d="M8823 6253 c-13 -2 -23 -6 -23 -9 0 -2 106 -286 235 -631 129 -344 234 -627 233 -628 -17 -14 -422 -155 -428 -149 -4 5 -110 284 -235 619 -126 336 -231 613 -234 617 -10 12 -221 -134 -272 -188 -126 -133 -249 -314 -307 -454 -59 -144 -79 -220 -98 -381 -36 -316 35 -614 211 -884 119 -184 226 -291 405 -407 169 -110 288 -156 530 -203 154 -31 258 -32 404 -4 291 54 468 133 674 299 176 141 289 289 377 494 102 235 139 467 111 705 -19 159 -34 221 -87 355 -78 194 -130 276 -286 444 -168 182 -473 350 -721 398 -69 13 -430 18 -489 7z"/>
</g>
</g>
  <g id="id1:id1" transform="matrix(1.25,0,0,1.25,0.0,0.0)"><g transform="translate(0.000000,1277.000000) scale(0.100000,-0.100000)" fill="#ffffff" stroke="none">
<path d="M5015 9249 c-192 -205 -373 -398 -402 -429 l-52 -57 134 -107 c74 -59 135 -109 135 -111 0 -2 -43 10 -96 27 -53 16 -99 27 -102 23 -4 -4 -140 -430 -303 -948 l-296 -942 -49 5 c-27 3 -155 5 -284 5 -261 0 -271 -1 -549 -81 -182 -52 -280 -97 -438 -204 -290 -194 -481 -414 -642 -738 -68 -136 -136 -360 -166 -542 -17 -111 -20 -368 -4 -473 39 -263 124 -495 281 -769 168 -293 562 -603 923 -726 373 -128 673 -144 1035 -56 234 57 520 194 685 328 167 135 304 281 403 428 60 89 152 271 198 390 121 318 144 730 59 1063 -78 305 -192 524 -392 756 -175 202 -305 310 -495 411 -65 35 -118 68 -118 73 0 6 10 44 23 85 l23 75 1799 2 1800 3 39 -107 c37 -101 39 -107 21 -117 -94 -54 -301 -201 -357 -255 -227 -213 -412 -489 -496 -736 -66 -196 -119 -533 -107 -690 12 -173 66 -449 112 -570 38 -103 138 -299 195 -383 71 -105 215 -268 300 -341 104 -89 322 -233 432 -285 241 -115 543 -186 788 -186 510 1 1042 247 1378 636 112 130 173 220 245 363 104 208 143 328 176 546 58 380 -1 777 -164 1101 -219 435 -632 792 -1062 918 -247 72 -281 78 -525 83 -220 5 -261 2 -435 -32 l-30 -6 -180 482 c-99 265 -181 488 -183 495 -3 11 14 14 77 14 l81 0 0 320 0 320 -540 0 -540 0 0 -320 0 -320 308 -1 307 0 -80 -31 c-44 -17 -81 -32 -83 -33 -1 -1 31 -91 73 -200 41 -110 73 -200 71 -202 -1 -2 -738 -2 -1637 -1 l-1635 3 184 586 184 586 317 -253 c173 -140 319 -253 322 -252 6 3 159 197 252 319 l26 35 -359 289 -360 289 38 41 c21 22 109 117 197 210 87 94 176 188 197 211 l39 40 -166 155 c-91 85 -169 155 -173 156 -4 2 -164 -164 -357 -368z m-1125 -2995 c0 -3 -90 -291 -200 -641 -110 -350 -198 -638 -197 -639 15 -12 431 -134 437 -127 4 4 94 286 201 626 106 339 196 622 200 628 9 15 108 -37 205 -108 81 -61 212 -196 290 -300 56 -74 102 -161 153 -289 53 -134 68 -196 87 -355 27 -238 -9 -470 -110 -705 -88 -202 -183 -329 -368 -488 -184 -160 -381 -248 -681 -305 -141 -27 -243 -26 -402 4 -313 58 -489 143 -710 341 -131 117 -212 227 -308 416 -104 207 -127 297 -134 538 -8 281 21 418 136 648 74 147 149 253 259 365 175 178 460 335 691 382 65 12 451 21 451 9z m5422 -8 c165 -32 341 -110 533 -236 72 -48 126 -94 188 -162 156 -168 208 -250 286 -444 53 -134 68 -196 87 -355 18 -158 8 -309 -31 -476 -29 -121 -118 -332 -179 -423 -135 -200 -331 -368 -571 -487 -128 -64 -427 -133 -576 -133 -152 0 -455 72 -589 140 -170 85 -348 222 -443 340 -204 253 -298 477 -327 783 -9 97 -9 141 4 256 19 161 39 237 98 381 58 140 181 321 307 454 51 54 262 200 272 188 3 -4 108 -281 234 -617 125 -335 231 -614 235 -619 6 -6 411 135 428 149 1 1 -104 284 -233 628 -129 345 -235 629 -235 631 0 19 414 21 512 2z"/>
</g>
</g>
</svg>
