<?xml version="1.0" encoding="UTF-8" standalone="no"?>
<!-- Created with Inkscape (http://www.inkscape.org/) -->

<svg
   xmlns:dc="http://purl.org/dc/elements/1.1/"
   xmlns:cc="http://creativecommons.org/ns#"
   xmlns:rdf="http://www.w3.org/1999/02/22-rdf-syntax-ns#"
   xmlns:svg="http://www.w3.org/2000/svg"
   xmlns="http://www.w3.org/2000/svg"
   xmlns:inkscape="http://www.inkscape.org/namespaces/inkscape"
   version="1.1"
   width="100%"
   height="100%"
   viewBox="0 0 445.03125 445.03125"
   id="svg128794"
   xml:space="preserve"
   style="fill-rule:evenodd;stroke-linecap:round;stroke-linejoin:round"><metadata
     id="metadata129251"><rdf:RDF><cc:Work
         rdf:about=""><dc:format>image/svg+xml</dc:format><dc:type
           rdf:resource="http://purl.org/dc/dcmitype/StillImage" /></cc:Work></rdf:RDF></metadata><defs
     id="defs128796"><clipPath
       id="clipId0"><path
         d="M 0,600 800,600 800,0 0,0 z"
         inkscape:connector-curvature="0"
         id="path128799" /></clipPath></defs><g
     transform="translate(-178.5,-77.0625)"
     clip-path="url(#clipId0)"
     id="g128801"
     style="fill:none;stroke:#000000;stroke-width:0.1" /><g
     transform="translate(-178.5,-77.0625)"
     clip-path="url(#clipId0)"
     id="g128803"
     style="fill:#b2ff7f;stroke:none"><path
       d="m 178.5,77.0625 0,445.03125 445.03125,0 0,-445.03125 -445.03125,0 z"
       inkscape:connector-curvature="0"
       id="path128807" /></g><g
     transform="translate(-178.5,-77.0625)"
     clip-path="url(#clipId0)"
     id="g128809"
     style="fill:#ffffff;stroke:none"><path
       d="M 401.03125,121.5625 365.0625,165.46875 312,145.40625 l -9.15625,56 -35.9375,5.875 -20.0625,3.28125 20.0625,53.0625 -20.0625,16.4375 L 223,299.59375 l 23.84375,19.5 20.0625,16.4375 -20.0625,53.0625 20.0625,3.28125 35.9375,5.90625 L 312,453.75 l 53.0625,-20.0625 35.96875,43.90625 35.9375,-43.90625 53.0625,20.0625 9.1875,-55.96875 L 535.125,391.875 555.1875,388.59375 535.125,335.5 l 20.0625,-16.40625 23.84375,-19.5 -23.84375,-19.53125 -20.0625,-16.4375 20.0625,-53.0625 -20.0625,-3.28125 -35.90625,-5.875 -9.1875,-56 -53.0625,20.0625 -35.9375,-43.90625 z"
       inkscape:connector-curvature="0"
       id="path128861" /></g><g
     transform="translate(-178.5,-77.0625)"
     clip-path="url(#clipId0)"
     id="g128863"
     style="fill:#7f7f7f;stroke:none"><path
       d="m 401,108.96875 -6.1875,7.53125 -32.28125,39.4375 -56.84375,-21.46875 -9.84375,59.9375 -59.9375,9.84375 21.46875,56.84375 -47.03125,38.5 47.03125,38.46875 -21.46875,56.84375 59.9375,9.84375 9.84375,59.96875 56.84375,-21.5 38.5,47.03125 38.46875,-47.03125 56.84375,21.5 9.84375,-59.96875 59.96875,-9.84375 -21.5,-56.84375 47.03125,-38.46875 -47.03125,-38.5 21.5,-56.84375 -59.96875,-9.84375 -9.84375,-59.9375 L 439.5,155.9375 407.21875,116.5 401,108.96875 z"
       inkscape:connector-curvature="0"
       id="path5528" /><path
       d="m 393,144 -25.375,31 -37.46875,-14.15625 38.6875,66.96875 C 376.70878,224.13381 384.9693,221.61571 393,220.53125 L 393,144 z m 16.03125,0.0312 0,76.40625 c 1.92231,0.27132 3.80631,0.65861 5.625,1.15625 6.50833,1.07653 12.83334,3.04226 18.8125,5.75 l 38.40625,-66.5 -37.46875,14.1563 -25.375,-30.96875 z m 76.71875,24.8125 -38.4375,66.5625 c 6.86448,4.96656 12.95956,10.9916 17.9375,17.84375 l 66.5,-38.4062 L 492.21875,208.375 485.75,168.84375 z m -169.46875,0.0312 -6.46875,39.5 -39.5,6.46875 66.5,38.40625 c 4.83679,-6.57754 11.10085,-12.46524 18.15625,-17.40625 L 316.28125,168.875 z m 223.5,59.8125 -66.53125,38.40625 c 0.55418,1.2464 1.07766,2.50326 1.5625,3.78125 2.64654,6.62936 4.27373,13.61449 4.96875,20.6875 l 76.8125,0 -30.96875,-25.375 14.15625,-37.5 z m -277.5,0.0312 14.15625,37.46875 -30.96875,25.375 76.78125,0 c 0.84856,-8.43369 3.0261,-16.73795 6.5,-24.46875 l -66.46875,-38.375 z m 138.75,7.65625 c -16.89506,0.023 -33.59886,7.01733 -45.3125,19.21875 -16.40691,16.50915 -22.22725,42.43118 -14.5,64.375 7.3905,22.38131 28.28835,39.53292 51.71875,42.25 22.75729,3.21071 46.66221,-7.39452 59.71875,-26.28125 13.75276,-19.1306 15.35449,-46.08236 3.78125,-66.625 -10.6243,-20.0186 -32.7716,-33.06248 -55.40625,-32.9375 z m -155.59375,71.21875 31,25.375 -14.15625,37.46875 66.46875,-38.375 c -3.52547,-7.73657 -5.66932,-16.02881 -6.5,-24.46875 l -76.8125,0 z m 234.3125,0 c -0.86625,8.4278 -3.05223,16.70484 -6.5,24.4375 l 66.53125,38.40625 -14.15625,-37.46875 31,-25.375 -76.875,0 z m -142.96875,38.3125 -66.5,38.40625 39.53125,6.46875 6.46875,39.53125 38.40625,-66.53125 c -6.86714,-4.9581 -12.93727,-11.01698 -17.90625,-17.875 z m 128.46875,0 c -0.48774,0.66687 -0.98918,1.31799 -1.5,1.96875 -4.6312,6.12355 -10.19158,11.48228 -16.40625,15.9375 l 38.40625,66.53125 6.46875,-39.5625 39.5625,-6.46875 -66.53125,-38.4061 z m -31.78125,25.875 c -7.73214,3.47839 -16.0098,5.74673 -24.4375,6.625 l 0,76.78125 25.375,-31 37.46875,14.15625 -38.40625,-66.5625 z m -64.9375,0.0312 -38.40625,66.53125 37.5,-14.15625 25.375,30.96875 0,-76.78125 c -8.48006,-0.78083 -16.75195,-3.05672 -24.46875,-6.5625 z"
       inkscape:connector-curvature="0"
       id="path5526"
       style="fill:#ffffff;fill-opacity:1" /></g><g
     transform="translate(-178.5,-77.0625)"
     clip-path="url(#clipId0)"
     id="g129083"
     style="fill:#7f7f7f;stroke:none" /><g
     transform="translate(-178.5,-77.0625)"
     clip-path="url(#clipId0)"
     id="g129245"
     style="fill:none;stroke:#7f7f7f;stroke-width:0.25"><polyline
       points="401.018,228.374 401.018,228.374 "
       id="polyline129247" /></g></svg>