<?xml version="1.0" standalone="no"?>
<!DOCTYPE svg PUBLIC "-//W3C//DTD SVG 1.1//EN"
 "http://www.w3.org/Graphics/SVG/1.1/DTD/svg11.dtd">
<!-- Created with svg_stack (http://github.com/astraw/svg_stack) -->
<svg xmlns:sodipodi="http://sodipodi.sourceforge.net/DTD/sodipodi-0.dtd" xmlns="http://www.w3.org/2000/svg" version="1.1" width="1586.25" height="1593.75">
  <defs/>
  <g id="id0:id0" transform="matrix(1.25,0,0,1.25,0.0,0.0)"><g transform="translate(0.000000,1275.000000) scale(0.100000,-0.100000)" fill="#000000" stroke="none">
<path d="M1525 11890 c-814 -472 -1490 -865 -1502 -872 -21 -12 78 -71 1478 -878 826 -476 1505 -866 1510 -868 5 -2 9 247 9 602 l0 606 1400 0 1400 0 0 -1805 0 -1805 -2910 0 -2910 0 0 -3435 0 -3435 6345 0 6345 0 0 3435 0 3435 -2910 0 -2910 0 0 1805 0 1805 1395 0 1395 0 0 -606 c0 -352 4 -604 9 -602 16 5 3020 1732 3018 1734 -6 6 -3019 1744 -3023 1744 -2 0 -4 -274 -4 -610 l0 -610 -3320 0 -3320 0 0 610 c0 336 -3 610 -7 609 -5 0 -674 -387 -1488 -859z m10115 -8455 l0 -2385 -5300 0 -5300 0 0 2385 0 2385 5300 0 5300 0 0 -2385z"/>
</g>
</g>
  <g id="id1:id1" transform="matrix(1.25,0,0,1.25,0.0,0.0)"><g transform="translate(0.000000,1275.000000) scale(0.100000,-0.100000)" fill="#ffffff" stroke="none">
</g>
</g>
</svg>
