<?xml version="1.0" standalone="no"?>
<!DOCTYPE svg PUBLIC "-//W3C//DTD SVG 1.1//EN"
 "http://www.w3.org/Graphics/SVG/1.1/DTD/svg11.dtd">
<!-- Created with svg_stack (http://github.com/astraw/svg_stack) -->
<svg xmlns:sodipodi="http://sodipodi.sourceforge.net/DTD/sodipodi-0.dtd" xmlns="http://www.w3.org/2000/svg" version="1.1" width="1995.0" height="1130.0">
  <defs/>
  <g id="id0:id0" transform="matrix(1.25,0,0,1.25,0.0,0.0)"><g transform="translate(0.000000,904.000000) scale(0.100000,-0.100000)" fill="#00ff00" stroke="none">
<path d="M7181 6167 c-421 -1579 -766 -2877 -768 -2882 -4 -13 526 -160 536 -149 4 5 234 861 512 1901 277 1041 506 1893 509 1893 3 0 237 -809 520 -1798 282 -988 520 -1818 528 -1844 l14 -48 744 0 744 0 0 280 0 280 -534 0 -534 0 -14 47 c-8 27 -345 1206 -749 2620 -403 1415 -736 2573 -739 2573 -3 0 -349 -1293 -769 -2873z"/>
<path d="M1855 3870 c-132 -10 -220 -29 -395 -85 -181 -59 -416 -171 -551 -263 -186 -127 -366 -303 -517 -506 -168 -224 -312 -562 -356 -836 -63 -384 -38 -708 81 -1075 43 -132 200 -428 292 -550 129 -171 342 -369 518 -481 l106 -68 801 17 c441 10 892 21 1004 24 l202 6 0 -26 0 -27 880 0 880 0 0 280 0 280 -525 0 c-289 0 -525 2 -525 4 0 2 34 55 76 117 133 199 203 359 264 599 53 214 64 297 63 505 -1 392 -46 583 -226 955 -96 201 -209 354 -401 546 -156 155 -268 236 -501 362 -128 69 -264 120 -478 178 -185 50 -410 64 -692 44z m459 -570 c221 -37 425 -117 605 -237 158 -104 335 -280 416 -413 130 -212 191 -356 228 -540 22 -107 39 -325 32 -395 -45 -424 -202 -759 -474 -1011 l-109 -100 -903 -19 c-826 -17 -907 -17 -934 -3 -75 39 -316 294 -382 405 -168 277 -233 512 -233 833 0 286 98 606 253 828 200 286 473 490 806 601 204 68 473 88 695 51z"/>
<path d="M12375 3831 c-90 -17 -149 -59 -212 -155 -36 -54 -49 -125 -39 -210 12 -90 96 -199 185 -239 67 -30 197 -29 265 2 105 49 186 178 186 295 0 109 -85 241 -182 284 -51 22 -146 33 -203 23z"/>
<path d="M15575 3831 c-83 -15 -134 -49 -195 -129 -40 -53 -53 -98 -53 -182 0 -84 13 -129 53 -182 75 -98 138 -131 255 -132 119 -1 193 35 263 128 59 78 75 179 46 291 -9 37 -73 123 -112 152 -64 47 -171 70 -257 54z"/>
<path d="M6605 631 c-99 -26 -168 -80 -212 -164 -24 -46 -27 -63 -27 -147 0 -111 16 -153 90 -226 65 -66 121 -87 224 -88 74 0 92 3 139 28 112 58 174 160 175 286 1 175 -120 305 -294 315 -36 2 -78 1 -95 -4z"/>
<path d="M9485 631 c-170 -46 -263 -187 -241 -365 12 -90 96 -198 185 -239 66 -30 198 -29 264 2 154 72 226 269 154 425 -35 76 -79 121 -147 152 -59 27 -163 39 -215 25z"/>
</g>
</g>
  <g id="id1:id1" transform="matrix(1.25,0,0,1.25,0.0,0.0)"><g transform="translate(0.000000,904.000000) scale(0.100000,-0.100000)" fill="#ffffff" stroke="none">
</g>
</g>
</svg>
