<?xml version="1.0" standalone="no"?>
<!DOCTYPE svg PUBLIC "-//W3C//DTD SVG 1.1//EN"
 "http://www.w3.org/Graphics/SVG/1.1/DTD/svg11.dtd">
<!-- Created with svg_stack (http://github.com/astraw/svg_stack) -->
<svg xmlns:sodipodi="http://sodipodi.sourceforge.net/DTD/sodipodi-0.dtd" xmlns="http://www.w3.org/2000/svg" version="1.1" width="1592.5" height="1591.25">
  <defs/>
  <g id="id0:id0" transform="matrix(1.25,0,0,1.25,0.0,0.0)"><g transform="translate(0.000000,1273.000000) scale(0.100000,-0.100000)" fill="#000000" stroke="none">
<path d="M5975 12720 c-542 -30 -1238 -180 -1808 -391 -1577 -583 -2864 -1769 -3565 -3288 -271 -587 -472 -1289 -551 -1921 -123 -996 -6 -1968 359 -2972 509 -1401 1533 -2601 2855 -3343 714 -401 1577 -680 2370 -767 269 -29 298 -31 725 -31 415 -1 463 1 715 27 961 97 2028 486 2830 1032 451 306 791 598 1136 975 340 372 619 754 884 1209 208 357 454 955 570 1385 321 1195 321 2256 0 3450 -116 430 -362 1029 -570 1385 -164 283 -385 610 -559 829 -851 1072 -1929 1796 -3251 2182 -326 95 -653 162 -1000 205 -260 32 -305 34 -635 38 -195 2 -422 1 -505 -4z m1035 -751 c700 -94 1084 -202 1730 -486 219 -96 495 -251 781 -439 689 -451 1398 -1219 1772 -1920 252 -471 387 -799 507 -1233 126 -456 187 -834 210 -1300 35 -702 -87 -1467 -349 -2196 -136 -379 -383 -862 -597 -1170 -291 -419 -536 -706 -868 -1014 -405 -376 -993 -770 -1453 -972 -646 -285 -1032 -394 -1733 -488 -221 -30 -235 -31 -635 -31 l-410 0 -250 35 c-698 96 -1103 211 -1705 480 -632 283 -1315 781 -1784 1300 -528 584 -862 1127 -1142 1860 -148 386 -240 765 -315 1300 l-32 230 0 435 0 435 32 228 c75 534 167 916 315 1302 168 440 340 780 593 1170 352 544 997 1191 1543 1550 389 255 746 436 1198 609 390 149 739 233 1287 311 229 33 232 33 655 34 420 1 426 1 650 -30z"/>
</g>
</g>
  <g id="id1:id1" transform="matrix(1.25,0,0,1.25,0.0,0.0)"><g transform="translate(0.000000,1273.000000) scale(0.100000,-0.100000)" fill="#ffffff" stroke="none">
<path d="M5705 11965 c-694 -98 -1099 -213 -1695 -480 -378 -169 -845 -454 -1130 -689 -380 -314 -624 -558 -944 -946 -231 -280 -510 -736 -683 -1117 -259 -571 -388 -1027 -484 -1710 l-32 -228 0 -435 0 -435 32 -230 c60 -424 163 -909 197 -922 13 -5 10907 367 10912 372 14 13 75 362 96 546 55 479 55 868 0 1344 -64 551 -259 1237 -488 1709 -228 471 -411 770 -679 1109 -248 314 -616 682 -941 942 -302 243 -790 541 -1126 688 -646 284 -1030 392 -1730 486 -224 31 -230 31 -650 30 -423 -1 -426 -1 -655 -34z"/>
</g>
</g>
  <g id="id2:id2" transform="matrix(1.25,0,0,1.25,0.0,0.0)"><g transform="translate(0.000000,1273.000000) scale(0.100000,-0.100000)" fill="#cccccc" stroke="none">
<path d="M6325 4953 c-2948 -102 -5361 -186 -5363 -188 -16 -16 170 -511 295 -785 414 -908 1126 -1740 1978 -2310 376 -251 723 -429 1183 -604 397 -151 743 -235 1297 -311 l250 -35 410 0 c400 0 414 1 635 31 701 94 1087 203 1733 488 460 202 1048 596 1453 972 332 308 577 595 868 1014 214 308 461 791 597 1170 64 177 183 576 213 718 l6 27 -97 -1 c-54 -1 -2510 -84 -5458 -186z"/>
</g>
</g>
</svg>
