<?xml version="1.0" encoding="UTF-8" standalone="no"?>
<!-- Created with Inkscape (http://www.inkscape.org/) -->

<svg
   xmlns:dc="http://purl.org/dc/elements/1.1/"
   xmlns:cc="http://creativecommons.org/ns#"
   xmlns:rdf="http://www.w3.org/1999/02/22-rdf-syntax-ns#"
   xmlns:svg="http://www.w3.org/2000/svg"
   xmlns="http://www.w3.org/2000/svg"
   xmlns:sodipodi="http://sodipodi.sourceforge.net/DTD/sodipodi-0.dtd"
   xmlns:inkscape="http://www.inkscape.org/namespaces/inkscape"
   version="1.1"
   width="100%"
   height="100%"
   viewBox="0 0 350.34927 350.67397"
   id="svg116277"
   xml:space="preserve"
   style="fill-rule:evenodd;stroke-linecap:round;stroke-linejoin:round"
   inkscape:version="0.48.3.1 r9886"
   sodipodi:docname="alkis3428.svg"><sodipodi:namedview
   pagecolor="#ffffff"
   bordercolor="#666666"
   borderopacity="1"
   objecttolerance="10"
   gridtolerance="10"
   guidetolerance="10"
   inkscape:pageopacity="0"
   inkscape:pageshadow="2"
   inkscape:window-width="1855"
   inkscape:window-height="1025"
   id="namedview28"
   showgrid="false"
   inkscape:zoom="1.5733333"
   inkscape:cx="104.28434"
   inkscape:cy="128.63644"
   inkscape:window-x="0"
   inkscape:window-y="33"
   inkscape:window-maximized="1"
   inkscape:current-layer="svg116277"
   inkscape:snap-global="false" /><metadata
   id="metadata117510"><rdf:RDF><cc:Work
       rdf:about=""><dc:format>image/svg+xml</dc:format><dc:type
         rdf:resource="http://purl.org/dc/dcmitype/StillImage" /><dc:title /></cc:Work></rdf:RDF></metadata>
<defs
   id="defs116279">
<clipPath
   id="clipId0">
<path
   d="M 0,600 800,600 800,0 0,0 z"
   id="path116282"
   inkscape:connector-curvature="0" />
</clipPath>





















































































































































</defs>
<path
   sodipodi:type="arc"
   style="fill:#ffffff;fill-opacity:1;fill-rule:evenodd;stroke:none"
   id="path3001"
   sodipodi:cx="404.87289"
   sodipodi:cy="299.0466"
   sodipodi:rx="174.78813"
   sodipodi:ry="177.64832"
   d="m 579.66103,299.0466 a 174.78813,177.64832 0 1 1 -349.57627,0 174.78813,177.64832 0 1 1 349.57627,0 z"
   transform="matrix(1.0018182,0,0,0.98568873,-230.36569,-119.66092)" /><g
   clip-path="url(#clipId0)"
   id="g116284"
   style="fill:none;stroke:#000000;stroke-width:0.1"
   transform="translate(-224.86261,-124.57625)" />
<g
   clip-path="url(#clipId0)"
   id="g116286"
   style="fill:#ffffff;stroke:none"
   transform="translate(-224.86261,-124.57625)">














































































</g>
<path
   style="fill:#00ffff;stroke:none"
   inkscape:connector-curvature="0"
   id="path116740"
   d="M 183.79364,0.76749902 193.76239,349.92375 c 49.95568,-5.31922 96.87638,-33.11318 125.3125,-74.5625 31.52419,-45.09902 39.75475,-105.23831 21.40625,-157.125 C 321.78537,63.450579 274.24132,19.640339 217.91864,6.017499 206.77757,3.022839 195.28472,1.563979 183.79364,0.76749902 z M 156.32489,1.548749 c -54.24307,5.6478 -104.801369,38.14037 -132.187499,85.34375 -30.3199704,50.625581 -32.2691604,116.733351 -4.75,168.968751 26.92201,53.4843 83.071809,90.65913 142.843749,94.46875 7.77461,2.47996 2.30299,-9.11555 3.65625,-13.46875 L 156.32489,1.548749 z M 78.324891,106.36125 c 2.55053,-0.019 5.05374,0.95121 6.96875,2.625 5.04714,4.18334 4.59069,12.91256 -0.9375,16.46875 -5.40551,4.12035 -14.15844,1.1917 -16,-5.34375 -2.39416,-6.42834 3.11674,-14.01082 9.96875,-13.75 z m 172.812499,16.375 4.78125,5.09375 -8.28125,7.78125 12.3125,10.09375 -4.4375,5.40625 -10.875,-8.9375 -6.0625,20.25 52.3125,0 c 3.44031,0.86185 0.29064,-2.77875 0.0937,-4.40625 -2.15268,-2.66601 1.65206,-2.71204 3.40625,-3.65625 l -11.4375,0 0,-10.5 17.53125,0 0,7.25 c 0.70276,2.92629 -0.57754,3.85518 -3.40625,3.25 l 6.46875,16.625 c 0.69392,-0.11614 8.96316,-2.05487 17.8125,1.15625 12.89305,4.67553 21.10819,19.11899 18.65625,32.59375 -1.95572,13.38261 -14.0512,24.28428 -27.5625,24.875 -13.36643,1.05216 -26.55833,-8.13877 -30.28125,-21 -4.05402,-12.58035 1.51833,-27.36925 12.90625,-34.09375 3.09741,-0.64699 0.91662,-3.15363 0.34375,-5.09375 l -55.6875,0 c -2.66414,-0.64131 -4.02996,0.43818 -4.1875,3.15625 4.21651,1.79569 7.95873,4.61948 10.9375,8.09375 8.89362,10.18916 9.38641,26.50355 1.03125,37.15625 -7.80797,10.73574 -23.16025,14.8731 -35.3125,9.53125 -12.90828,-5.1549 -20.77231,-20.14703 -17.5625,-33.6875 4.13343,-17.1838 22.20988,-25.54897 34.1875,-23.09375 l 8.7188,-29.15625 c -0.0845,-3.41019 2.4452,-1.958 4.5625,-1.28125 l -5.09375,-4.1875 14.125,-13.21875 z M 88.512391,130.1425 c 1.89883,-0.0369 3.35795,1.83201 5,2.65625 7.475839,7.48932 14.812369,15.14634 22.218749,22.71875 2.15452,2.4664 4.97295,4.4963 6.625,7.3125 0.33187,4.29695 0.0282,8.74242 0.125,13.09375 0.56862,2.42718 -1.32813,4.39784 -3.5625,4.90625 -2.66066,1.05099 -6.22637,-0.15529 -7.5,-2.71875 -0.33976,-3.52471 -0.0589,-7.19816 -0.15625,-10.78125 -3.25125,-3.29027 -6.53199,-6.55094 -9.8125,-9.8125 l -4.187499,11.90625 c 8.094319,21.52286 16.200529,43.0471 24.312499,64.5625 0.36656,1.91335 0.41298,4.15189 -0.0312,6.03125 -0.69583,2.65747 -3.33759,3.62202 -5.375,5.09375 -3.05423,0.3159 -6.24294,-0.8706 -8.1875,-3.28125 -7.54751,-19.40166 -15.096659,-38.9405 -22.624999,-58.40625 -8.15043,16.90896 -16.28374,33.84264 -24.4375,50.75 -1.94715,3.4464 -2.91316,8.19453 -6.9375,9.78125 -2.82158,1.10045 -6.2621,0.33915 -8.5625,-1.65625 -0.98479,-2.1779 -2.81847,-4.71775 -1.625,-7.125 10.40284,-21.52551 21.19727,-42.88127 31.75,-64.34375 l -3.5,-10.53125 c -5.71414,6.34303 -11.29361,12.84786 -17.09375,19.09375 -2.23484,2.33083 -5.69929,1.07892 -7.875,-0.6875 -1.48423,-1.96539 -2.57635,-5.28683 -0.625,-7.34375 9.42573,-11.00623 19.11004,-21.80543 28.65625,-32.71875 3.0981,-4.41281 8.51155,-5.95037 13.03125,-8.46875 0.13093,-0.0204 0.24841,-0.0288 0.375,-0.0312 z m 136.093749,46.875 c -0.30079,0.01 -0.63022,0.0586 -1,0.125 -10.37389,-0.0688 -19.93321,7.59523 -22.0625,17.75 -2.74469,11.05906 4.23261,23.37835 15.15625,26.65625 10.97747,3.85444 24.13927,-2.30733 28.1875,-13.21875 4.52469,-10.69234 -0.7391,-24.25711 -11.375,-28.96875 l -6.40625,21.53125 -6.71875,-2 5.5,-18.40625 c 1.24498,-2.24824 0.82429,-3.53896 -1.28125,-3.46875 z m 85.875,0.125 c -1.46882,0.0237 -2.93665,0.16507 -4.375,0.46875 l 8.15625,21.03125 -6.53125,2.53125 -8.1875,-21.125 c -8.86943,4.73437 -13.62146,15.80621 -10.96875,25.5 2.59856,10.95545 14.12529,18.71114 25.25,16.875 11.69388,-1.36051 20.85218,-12.98077 19.46875,-24.65625 -0.8201,-11.41141 -11.36444,-20.96288 -22.8125,-20.625 z" />
<g
   clip-path="url(#clipId0)"
   id="g116742"
   style="fill:#ffffff;stroke:none"
   transform="translate(-224.86261,-124.57625)">














































































</g>

<g
   clip-path="url(#clipId0)"
   id="g116906"
   style="fill:#ffffff;stroke:none"
   transform="translate(-224.86261,-124.57625)">





























































































































</g>
<g
   clip-path="url(#clipId0)"
   id="g117158"
   style="fill:none;stroke:#ffffff;stroke-width:0.25"
   transform="translate(-224.86261,-124.57625)">
<polyline
   points="302.502,260.364 306.005,258.262 310.21,256.16 313.013,254.758 314.414,254.758 316.516,256.16 318.619,257.561 345.246,284.89 346.648,286.291 347.349,287.693 347.349,301.007 347.349,302.408 346.648,303.81 344.546,305.211 341.743,305.912 338.94,305.211 336.838,303.81 336.137,302.408 336.137,301.007 336.137,291.897 326.327,282.087 322.122,293.999 346.648,359.167 346.648,361.27 346.648,364.073 345.246,366.876 343.144,368.277 341.042,369.678 338.239,369.678 334.735,368.277 332.633,366.175 331.933,364.073 310.21,308.014 282.881,364.773 280.779,367.576 277.976,368.978 274.472,368.978 272.37,368.277 270.268,366.876 268.867,364.073 268.166,361.27 268.867,359.167 300.4,295.401 296.896,284.89 280.078,303.81 277.976,305.211 275.874,305.211 273.772,304.51 271.669,303.109 270.969,301.707 270.268,299.605 270.268,297.503 271.669,295.401 302.502,260.364 "
   id="polyline117160" />
</g>
<g
   clip-path="url(#clipId0)"
   id="g117162"
   style="fill:#ffffff;stroke:none"
   transform="translate(-224.86261,-124.57625)">
















































































</g>
<g
   clip-path="url(#clipId0)"
   id="g117324"
   style="fill:none;stroke:#ffffff;stroke-width:0.25"
   transform="translate(-224.86261,-124.57625)">
<polyline
   points="448.605,298.204 448.605,298.204 "
   id="polyline117326" />
</g>
<g
   clip-path="url(#clipId0)"
   id="g117328"
   style="fill:#ffffff;stroke:none"
   transform="translate(-224.86261,-124.57625)">
















































































</g>
<g
   clip-path="url(#clipId0)"
   id="g117490"
   style="fill:none;stroke:#ffffff;stroke-width:0.25"
   transform="translate(-224.86261,-124.57625)">
<polyline
   points="535.496,298.204 535.496,298.204 "
   id="polyline117492" />
</g>
<g
   clip-path="url(#clipId0)"
   id="g117494"
   style="fill:#ffffff;stroke:none"
   transform="translate(-224.86261,-124.57625)">






</g>
<path
   id="path3785"
   style="fill:#ffffff;fill-opacity:1;fill-rule:evenodd;stroke:none"
   d="m 213.87297,227.51433 c -10.44231,-3.96902 -17.8189,-13.18709 -19.17123,-23.95708 -2.12866,-16.95272 10.75196,-31.47013 29.19225,-32.90182 l 5.39354,-0.41875 4.56288,-15.25424 4.56289,-15.25424 2.00197,0.20506 2.00198,0.20505 -2.34002,-2.14447 -2.34003,-2.14447 6.5346,-6.1644 c 3.59402,-3.39041 6.75914,-6.16439 7.03359,-6.16439 0.27445,0 1.28379,1.0289 2.24296,2.28644 l 1.74396,2.28644 -4.09509,3.70016 c -3.5921,3.24568 -3.97798,3.80986 -3.14169,4.59327 0.52436,0.4912 3.31034,2.82497 6.19106,5.18614 l 5.23767,4.29303 -2.02882,2.41656 -2.02883,2.41656 -5.29488,-4.45878 c -2.91218,-2.45233 -5.42841,-4.32524 -5.59162,-4.16203 -0.40872,0.40872 -6.00198,19.06915 -6.01111,20.0545 -0.006,0.62324 5.81497,0.79449 27.00534,0.79449 29.88336,0 27.95354,0.3041 26.10755,-4.11397 -0.96083,-2.29961 -0.76859,-2.70209 1.85856,-3.89118 0.89535,-0.40525 -0.46706,-0.62939 -4.60806,-0.75811 l -5.87923,-0.18275 0,-5.06089 0,-5.0609 8.58051,0 8.5805,0 0,5.08475 c 0,5 -0.0265,5.08474 -1.58898,5.08474 -0.87394,0 -1.58898,0.23732 -1.58898,0.52737 0,0.29005 1.39762,4.07977 3.10582,8.42161 l 3.10584,7.89424 4.38495,-0.21159 c 16.25833,-0.78451 29.43731,9.41814 32.02356,24.79135 2.07516,12.33525 -4.71192,25.0798 -16.44412,30.87816 -4.76058,2.35282 -4.90865,2.38107 -12.47784,2.38107 -7.54376,0 -7.73317,-0.0357 -12.47354,-2.35331 -11.98719,-5.86055 -18.75217,-18.54155 -16.52872,-30.98322 1.49156,-8.34628 6.11409,-15.34708 13.67594,-20.71216 1.63667,-1.1612 1.75985,-1.48832 1.19673,-3.17796 l -0.62773,-1.88352 -29.42938,-0.16531 c -21.20046,-0.11908 -29.67191,0.036 -30.29672,0.55452 -1.58723,1.31728 -0.91151,2.7675 2.01218,4.31852 3.81742,2.02513 10.28689,9.02302 12.05997,13.045 6.73829,15.28486 0.7188,31.92467 -14.09937,38.97528 -4.63051,2.20323 -5.42919,2.37702 -11.6452,2.53398 -5.75208,0.14525 -7.22501,-0.041 -10.66561,-1.34875 l 0,0 z m 18.40612,-6.35583 c 4.61516,-1.89822 8.16546,-4.72256 10.64828,-8.47092 2.6967,-4.07128 3.54001,-7.24714 3.5087,-13.21361 -0.0319,-6.09001 -1.83845,-10.65757 -6.00131,-15.17373 -3.19268,-3.46365 -6.91506,-5.84694 -7.3106,-4.68068 -0.14672,0.43264 -1.6116,5.2855 -3.25527,10.78414 -2.96393,9.91533 -3.00205,9.99427 -4.6361,9.59974 -4.83354,-1.16703 -4.71392,-0.32046 -1.52861,-10.81879 3.89332,-12.83177 3.99452,-11.96403 -1.39018,-11.92036 -18.13014,0.14702 -28.11108,22.63478 -16.41649,36.98751 1.21068,1.48587 3.15227,3.42696 4.31464,4.31355 5.52618,4.21502 15.32426,5.36642 22.06694,2.59315 l 0,0 z m 88.81147,-0.73963 c 9.26946,-5.04507 14.35238,-16.00878 11.88571,-25.63714 -2.70446,-10.5565 -10.62749,-17.11892 -21.42279,-17.74385 -2.96331,-0.17155 -5.01168,-0.025 -5.25969,0.37628 -0.22341,0.36149 1.31372,5.0438 3.41583,10.40514 2.10213,5.36134 3.7128,10.03493 3.57928,10.38575 -0.35686,0.93767 -4.89661,2.44128 -5.46358,1.80959 -0.26691,-0.29737 -2.15189,-4.90243 -4.18885,-10.23347 -2.32153,-6.07578 -4.0333,-9.6928 -4.58718,-9.6928 -0.48597,0 -2.5303,1.64671 -4.54294,3.65935 -5.86246,5.86246 -8.15758,13.89116 -6.17888,21.61476 1.26366,4.93256 3.18448,7.99948 7.36306,11.75638 4.90125,4.40665 8.52564,5.62021 15.96824,5.34669 5.24845,-0.19288 6.54116,-0.4734 9.43179,-2.04668 l 0,0 z M 74.220781,126.09937 c -2.14535,-0.87521 -4.73114,-3.90079 -5.48543,-6.41836 -1.06226,-3.5455 -0.21381,-6.69667 2.62148,-9.73625 2.42649,-2.60132 2.50651,-2.63181 6.90796,-2.63181 4.07368,0 4.62569,0.16244 6.47982,1.90678 3.8285,3.60179 4.66904,7.62344 2.51526,12.0345 -1.76601,3.61688 -4.70029,5.45446 -8.62927,5.40403 -1.72625,-0.0222 -3.71067,-0.27366 -4.40982,-0.55889 z m 37.422649,117.90622 c -1.09127,-0.47495 -2.39622,-1.45188 -2.89988,-2.17097 -0.50367,-0.71908 -5.90319,-14.19036 -11.998929,-29.93618 -6.09574,-15.74583 -11.22617,-28.62678 -11.40096,-28.62434 -0.17479,0.002 -6.46259,12.77596 -13.97289,28.38561 -7.5103,15.60965 -14.16467,29.029 -14.78748,29.82077 -3.89067,4.94619 -12.542,1.98659 -12.55081,-4.29359 -10e-4,-0.93361 7.13198,-16.17084 15.89314,-33.94891 l 15.89553,-32.25505 -1.72568,-5.29897 c -0.94913,-2.91444 -1.91208,-5.29898 -2.1399,-5.29898 -0.22782,0 -3.81558,3.78973 -7.97281,8.42162 -10.10838,11.26252 -10.12877,11.28177 -11.94895,11.28177 -3.62835,0 -6.09693,-2.45613 -6.09693,-6.06618 0,-1.1259 4.28572,-6.45267 15.47322,-19.23183 8.51028,-9.72104 16.28359,-18.31204 17.27402,-19.09112 0.99044,-0.77908 3.6587,-2.3032 5.92948,-3.38694 l 4.12868,-1.97044 2.16945,1.16833 c 1.1932,0.64258 8.72301,7.95388 16.732899,16.24732 l 14.56344,15.079 0,7.62641 c 0,7.4819 -0.0317,7.65137 -1.6747,8.94373 -2.32494,1.82879 -5.60388,1.72364 -7.57029,-0.24277 -1.40635,-1.40635 -1.5601,-2.08117 -1.5601,-6.84754 l 0,-5.28745 -5.05918,-5.02952 c -3.49281,-3.47231 -5.16034,-4.74681 -5.38587,-4.11644 -0.17967,0.50219 -1.164029,3.30889 -2.187459,6.23712 l -1.86078,5.32404 12.331389,32.71417 c 8.61792,22.86262 12.3314,33.4909 12.3314,35.29344 0,2.18681 -0.39092,2.95114 -2.56914,5.02323 -2.74512,2.61136 -4.18754,2.91134 -7.35991,1.53066 l 0,0 z M 155.85774,1.271199 183.82384,9.0208047e-6 192.72214,348.9407 l -27.3305,0.63559 z"
   inkscape:connector-curvature="0" /></svg>