<?xml version="1.0" standalone="no"?>
<!DOCTYPE svg PUBLIC "-//W3C//DTD SVG 1.1//EN"
 "http://www.w3.org/Graphics/SVG/1.1/DTD/svg11.dtd">
<!-- Created with svg_stack (http://github.com/astraw/svg_stack) -->
<svg xmlns:sodipodi="http://sodipodi.sourceforge.net/DTD/sodipodi-0.dtd" xmlns="http://www.w3.org/2000/svg" version="1.1" width="1596.25" height="1597.5">
  <defs/>
  <g id="id0:id0" transform="matrix(1.25,0,0,1.25,0.0,0.0)"><g transform="translate(0.000000,1278.000000) scale(0.100000,-0.100000)" fill="#000000" stroke="none">
<path d="M4027 11580 c-75 -134 -147 -276 -172 -342 -24 -62 -64 -160 -90 -218 -92 -208 -161 -419 -200 -612 -51 -249 -54 -274 -63 -426 l-7 -132 -65 52 c-220 177 -274 230 -333 327 -32 53 -72 115 -89 139 -18 25 -48 100 -75 185 -45 144 -56 200 -68 338 l-6 76 -240 13 c-132 7 -242 10 -246 7 -3 -4 1 -82 10 -174 34 -373 115 -576 347 -878 218 -283 322 -391 500 -524 94 -70 181 -127 222 -144 36 -16 69 -35 72 -44 3 -8 20 -96 36 -196 47 -280 58 -329 101 -434 22 -54 50 -133 64 -176 15 -50 52 -125 103 -210 167 -277 269 -449 332 -558 35 -62 98 -156 140 -209 42 -52 89 -112 105 -134 l29 -39 -169 7 -170 7 -169 66 c-129 51 -170 63 -176 53 -4 -7 -11 -43 -14 -79 -4 -36 -13 -118 -21 -181 -14 -112 -28 -290 -41 -495 l-6 -100 679 -279 c373 -153 679 -279 681 -281 1 -1 -15 -51 -37 -111 -49 -137 -87 -310 -106 -484 -21 -193 -21 -1090 0 -1313 l15 -158 69 -138 c74 -146 169 -279 292 -406 52 -54 80 -95 122 -181 54 -107 56 -115 67 -230 26 -284 69 -427 165 -544 47 -58 64 -89 105 -204 41 -112 51 -154 59 -248 14 -145 14 -412 1 -533 -10 -85 -9 -106 14 -226 14 -73 32 -139 39 -148 123 -148 141 -159 349 -211 154 -40 237 -40 400 -1 172 42 232 68 275 122 84 105 82 102 109 238 23 120 24 141 14 226 -13 121 -13 388 1 531 9 98 17 129 63 248 38 95 69 156 104 204 28 38 69 107 91 154 36 80 41 99 65 295 25 207 26 210 78 327 47 106 58 123 111 169 105 92 232 265 303 414 l63 132 15 164 c22 230 23 1122 1 1317 -17 156 -51 317 -100 480 -19 63 -33 115 -32 116 1 1 304 126 672 279 369 153 671 279 673 280 7 6 -21 425 -38 565 -10 85 -22 182 -25 216 -4 33 -10 66 -15 74 -6 10 -43 -1 -171 -52 l-164 -66 -173 -7 c-204 -9 -198 -22 -67 130 48 55 96 118 107 140 11 22 55 96 97 165 43 69 97 161 121 205 24 44 77 131 117 194 100 153 135 226 205 421 49 139 67 208 111 437 l52 271 69 29 c44 17 123 67 211 133 176 130 345 308 522 550 153 210 225 349 281 550 35 126 42 168 52 314 6 92 9 171 6 174 -8 8 -476 -20 -476 -29 0 -4 -9 -72 -19 -151 -28 -211 -87 -368 -205 -550 -48 -75 -97 -143 -109 -151 -12 -8 -85 -69 -162 -136 -76 -66 -140 -119 -142 -117 -1 1 -10 83 -18 182 -8 98 -31 264 -50 367 -35 184 -38 195 -159 500 -68 172 -140 347 -160 391 -29 63 -267 497 -283 516 -3 3 -15 -7 -26 -21 -12 -15 -133 -154 -269 -310 -135 -156 -255 -296 -266 -310 l-21 -25 77 -132 c111 -190 196 -351 300 -567 82 -172 94 -203 121 -330 27 -127 39 -217 56 -435 15 -195 -68 -837 -122 -943 -14 -29 -45 -97 -68 -153 -45 -109 -123 -240 -361 -599 -146 -222 -156 -235 -300 -375 -85 -82 -246 -222 -374 -323 -225 -178 -226 -179 -396 -256 l-170 -78 -202 -23 -202 -24 -203 24 c-199 22 -203 24 -290 67 -48 24 -121 57 -163 73 -57 23 -110 57 -207 133 -392 307 -561 465 -678 633 -233 337 -347 520 -434 699 -98 203 -112 245 -155 464 -54 280 -65 444 -52 742 11 224 13 241 51 384 31 115 61 196 129 346 49 108 107 227 129 265 22 38 54 96 71 129 17 33 62 109 101 170 59 92 68 112 58 125 -120 143 -564 644 -575 647 -4 1 -65 -101 -135 -227z"/>
</g>
</g>
  <g id="id1:id1" transform="matrix(1.25,0,0,1.25,0.0,0.0)"><g transform="translate(0.000000,1278.000000) scale(0.100000,-0.100000)" fill="#ffffff" stroke="none">
<path d="M0 6390 l0 -6390 6385 0 6385 0 0 6390 0 6390 -6385 0 -6385 0 0 -6390z m4321 5245 c125 -140 363 -412 416 -475 10 -13 1 -33 -58 -125 -39 -61 -84 -137 -101 -170 -17 -33 -49 -91 -71 -129 -22 -38 -80 -157 -129 -265 -68 -150 -98 -231 -129 -346 -38 -143 -40 -160 -51 -384 -13 -298 -2 -462 52 -742 43 -219 57 -261 155 -464 87 -179 201 -362 434 -699 117 -168 286 -326 678 -633 97 -76 150 -110 207 -133 42 -16 115 -49 163 -73 87 -43 91 -45 290 -67 l203 -24 202 24 202 23 170 78 c170 77 171 78 396 256 128 101 289 241 374 323 144 140 154 153 300 375 238 359 316 490 361 599 23 56 54 124 68 153 54 106 137 748 122 943 -17 218 -29 308 -56 435 -27 127 -39 158 -121 330 -104 216 -189 377 -300 567 l-77 132 21 25 c11 14 131 154 266 310 136 156 257 295 269 310 11 14 23 24 26 21 16 -19 254 -453 283 -516 20 -44 92 -219 160 -391 121 -305 124 -316 159 -500 19 -103 42 -269 50 -367 8 -99 17 -181 18 -182 2 -2 66 51 142 117 77 67 150 128 162 136 12 8 61 76 109 151 118 182 177 339 205 550 10 79 19 147 19 151 0 9 468 37 476 29 3 -3 0 -82 -6 -174 -10 -146 -17 -188 -52 -314 -56 -201 -128 -340 -281 -550 -177 -242 -346 -420 -522 -550 -88 -66 -167 -116 -211 -133 l-69 -29 -52 -271 c-44 -229 -62 -298 -111 -437 -70 -195 -105 -268 -205 -421 -40 -63 -93 -150 -117 -194 -24 -44 -78 -136 -121 -205 -42 -69 -86 -143 -97 -165 -11 -22 -59 -85 -107 -140 -131 -152 -137 -139 67 -130 l173 7 164 66 c128 51 165 62 171 52 5 -8 11 -41 15 -74 3 -34 15 -131 25 -216 17 -140 45 -559 38 -565 -2 -1 -304 -127 -673 -280 -368 -153 -671 -278 -672 -279 -1 -1 13 -53 32 -116 49 -163 83 -324 100 -480 22 -195 21 -1087 -1 -1317 l-15 -164 -63 -132 c-71 -149 -198 -322 -303 -414 -53 -46 -64 -63 -111 -169 -52 -117 -53 -120 -78 -327 -24 -196 -29 -215 -65 -295 -22 -47 -63 -116 -91 -154 -35 -48 -66 -109 -104 -204 -46 -119 -54 -150 -63 -248 -14 -143 -14 -410 -1 -531 10 -85 9 -106 -14 -226 -27 -136 -25 -133 -109 -238 -43 -54 -103 -80 -275 -122 -163 -39 -246 -39 -400 1 -208 52 -226 63 -349 211 -7 9 -25 75 -39 148 -23 120 -24 141 -14 226 13 121 13 388 -1 533 -8 94 -18 136 -59 248 -41 115 -58 146 -105 204 -96 117 -139 260 -165 544 -11 115 -13 123 -67 230 -42 86 -70 127 -122 181 -123 127 -218 260 -292 406 l-69 138 -15 158 c-21 223 -21 1120 0 1313 19 174 57 347 106 484 22 60 38 110 37 111 -2 2 -308 128 -681 281 l-679 279 6 100 c13 205 27 383 41 495 8 63 17 145 21 181 3 36 10 72 14 79 6 10 47 -2 176 -53 l169 -66 170 -7 169 -7 -29 39 c-16 22 -63 82 -105 134 -42 53 -105 147 -140 209 -63 109 -165 281 -332 558 -51 85 -88 160 -103 210 -14 43 -42 122 -64 176 -43 105 -54 154 -101 434 -16 100 -33 188 -36 196 -3 9 -36 28 -72 44 -41 17 -128 74 -222 144 -178 133 -282 241 -500 524 -232 302 -313 505 -347 878 -9 92 -13 170 -10 174 4 3 114 0 246 -7 l240 -13 6 -76 c12 -138 23 -194 68 -338 27 -85 57 -160 75 -185 17 -24 57 -86 89 -139 59 -97 113 -150 333 -327 l65 -52 7 132 c9 152 12 177 63 426 39 193 108 404 200 612 26 58 66 156 90 218 42 110 292 574 307 569 4 -1 75 -78 159 -172z"/>
</g>
</g>
</svg>
