<?xml version="1.0" encoding="UTF-8" standalone="no"?>
<!-- Created with Inkscape (http://www.inkscape.org/) -->

<svg
   xmlns:dc="http://purl.org/dc/elements/1.1/"
   xmlns:cc="http://creativecommons.org/ns#"
   xmlns:rdf="http://www.w3.org/1999/02/22-rdf-syntax-ns#"
   xmlns:svg="http://www.w3.org/2000/svg"
   xmlns="http://www.w3.org/2000/svg"
   xmlns:inkscape="http://www.inkscape.org/namespaces/inkscape"
   version="1.1"
   width="100%"
   height="100%"
   viewBox="0 0 90.679074 351.82388"
   id="svg13104"
   xml:space="preserve"
   style="fill-rule:evenodd;stroke-linecap:round;stroke-linejoin:round"><metadata
     id="metadata13615"><rdf:RDF><cc:Work
         rdf:about=""><dc:format>image/svg+xml</dc:format><dc:type
           rdf:resource="http://purl.org/dc/dcmitype/StillImage" /></cc:Work></rdf:RDF></metadata><defs
     id="defs13106"><clipPath
       id="clipId0"><path
         d="M 0,600 800,600 800,0 0,0 z"
         inkscape:connector-curvature="0"
         id="path13109" /></clipPath></defs><g
     transform="translate(-355.06963,-124.51207)"
     clip-path="url(#clipId0)"
     id="g13111"
     style="fill:none;stroke:#000000;stroke-width:0.1" /><g
     transform="translate(-355.06963,-124.51207)"
     clip-path="url(#clipId0)"
     id="g13113"
     style="fill:#000000;stroke:none" /><g
     transform="translate(-355.06963,-124.51207)"
     clip-path="url(#clipId0)"
     id="g13275"
     style="fill:none;stroke:#000000;stroke-width:0.25" /><g
     transform="translate(-355.06963,-124.51207)"
     clip-path="url(#clipId0)"
     id="g13279"
     style="fill:#000000;stroke:none" /><g
     transform="translate(-355.06963,-124.51207)"
     clip-path="url(#clipId0)"
     id="g13443"
     style="fill:none;stroke:#000000;stroke-width:0.25" /><g
     transform="translate(-355.06963,-124.51207)"
     clip-path="url(#clipId0)"
     id="g13447"
     style="fill:#000000;stroke:none" /><g
     transform="translate(-355.06963,-124.51207)"
     clip-path="url(#clipId0)"
     id="g13609"
     style="fill:#000000;fill-opacity:1;fill-rule:nonzero;stroke:#000000;stroke-width:0.25"><path
       d="m 400.25,124.65625 c -27.61701,-0.87122 -50.80285,28.09546 -43.79043,54.87779 4.26767,18.88464 21.59388,34.23979 41.13418,35.02846 -26.48547,1.19778 -47.74865,28.92795 -41.17308,54.83032 4.06463,18.2345 20.36306,33.42214 39.17308,34.95093 0,27.34375 0,54.6875 0,82.03125 -27.70896,1.94131 -47.74678,33.47769 -37.77153,59.42307 7.84007,23.90311 37.40994,37.4805 60.38726,26.62223 23.161,-9.38984 34.56033,-39.50582 22.35545,-61.56545 -6.5892,-12.89346 -19.52876,-22.84635 -34.12612,-24.28538 -2.77382,-5.39071 -0.4577,-12.77797 -1.18881,-19.06546 0,-21.05342 0,-42.10684 0,-63.16026 27.6662,-1.93045 47.69899,-33.36984 37.80795,-59.29929 C 437.14434,227.82751 420.0117,214.88923 401.75,214.6563 427.50814,214.42969 449.52016,188.98439 445.04119,163.38167 442.0872,141.74401 422.28275,124.01854 400.25,124.65625 z m 0,9.625 c 22.8851,-0.97273 41.61261,24.17015 34.02707,45.84545 -5.91663,20.33093 -31.61706,31.48232 -50.23819,20.91226 -18.53472,-9.29615 -25.15207,-35.61219 -12.25381,-52.11983 6.53057,-8.93214 17.33741,-14.72054 28.46493,-14.63788 z m 0,90 c 22.88466,-0.97275 41.61263,24.16971 34.02703,45.84472 -6.05724,20.99436 -33.21523,31.98421 -51.81226,20.00198 -17.97324,-10.15265 -23.27699,-36.55092 -9.76463,-52.40137 6.58717,-8.25285 16.93265,-13.5238 27.54986,-13.44533 z m 0,171.4375 c 23.1712,-1.00862 41.96355,24.78901 33.80545,46.56249 -6.49249,20.86199 -33.86841,31.25756 -52.20978,18.91401 -17.6662,-10.47343 -22.49059,-36.78408 -8.84447,-52.37737 6.59318,-8.04307 16.7853,-13.18927 27.2488,-13.09913 z"
       inkscape:connector-curvature="0"
       id="polyline13611"
       style="fill:#000000;fill-opacity:1;fill-rule:nonzero" /></g></svg>