<?xml version="1.0" standalone="no"?>
<!DOCTYPE svg PUBLIC "-//W3C//DTD SVG 1.1//EN"
 "http://www.w3.org/Graphics/SVG/1.1/DTD/svg11.dtd">
<!-- Created with svg_stack (http://github.com/astraw/svg_stack) -->
<svg xmlns:sodipodi="http://sodipodi.sourceforge.net/DTD/sodipodi-0.dtd" xmlns="http://www.w3.org/2000/svg" version="1.1" width="1593.75" height="1595.0">
  <defs/>
  <g id="id0:id0" transform="matrix(1.25,0,0,1.25,0.0,0.0)"><g transform="translate(0.000000,1276.000000) scale(0.100000,-0.100000)" fill="#000000" stroke="none">
<path d="M0 6380 l0 -6380 6375 0 6375 0 0 6380 0 6380 -6375 0 -6375 0 0 -6380z m11910 0 l0 -5540 -5540 0 -5540 0 0 5540 0 5540 5540 0 5540 0 0 -5540z"/>
<path d="M4177 11216 c-118 -213 -208 -414 -339 -751 -54 -139 -74 -206 -89 -295 -11 -63 -26 -144 -34 -180 -8 -36 -19 -134 -24 -219 -6 -84 -12 -155 -14 -157 -1 -2 -60 46 -129 105 -70 60 -140 119 -156 132 -17 13 -66 79 -110 146 -71 107 -86 138 -122 255 -37 116 -51 184 -75 364 l-6 42 -220 7 c-121 4 -222 5 -224 3 -3 -3 0 -76 6 -164 22 -303 108 -543 269 -749 39 -49 97 -124 129 -165 134 -172 247 -286 389 -388 75 -55 167 -115 204 -133 37 -18 69 -38 72 -45 3 -7 23 -113 46 -236 44 -242 91 -415 144 -530 18 -41 127 -235 241 -433 149 -255 232 -388 291 -462 46 -57 93 -117 105 -134 l22 -31 -154 7 -154 7 -135 53 c-171 68 -186 72 -194 48 -3 -10 -12 -76 -21 -148 -9 -71 -18 -136 -21 -144 -5 -16 -36 -492 -32 -496 2 -1 287 -118 633 -260 347 -142 631 -258 632 -259 1 -1 -11 -44 -28 -96 -52 -164 -87 -321 -103 -455 -23 -186 -23 -1018 -1 -1230 l16 -147 65 -130 c74 -148 205 -332 279 -392 40 -33 57 -59 100 -151 48 -102 54 -122 64 -221 27 -253 68 -390 150 -499 49 -65 51 -69 105 -210 34 -91 48 -144 56 -217 13 -124 13 -382 0 -501 -10 -85 -8 -103 15 -211 14 -65 33 -128 43 -140 106 -134 137 -153 329 -201 171 -42 305 -29 515 52 61 23 73 33 122 97 52 68 56 78 81 191 23 109 25 127 15 212 -13 121 -13 376 1 503 14 127 86 322 150 407 89 119 132 259 160 517 10 98 16 119 63 220 44 93 61 118 104 154 72 60 219 265 285 397 l55 111 16 154 c22 217 23 1049 1 1230 -25 200 -53 331 -95 446 -22 59 -39 108 -38 109 2 2 287 118 633 260 347 142 631 259 633 260 7 6 -21 397 -38 525 -10 80 -22 175 -26 213 -3 37 -9 67 -13 67 -19 0 -138 -43 -216 -77 -90 -40 -92 -41 -254 -48 -137 -6 -162 -5 -155 6 4 8 51 68 104 135 72 90 140 196 270 420 96 164 195 331 220 370 65 99 136 324 200 628 27 132 50 247 50 256 0 9 26 29 68 49 123 61 332 222 434 335 170 188 362 444 421 563 77 153 121 326 136 537 6 88 9 161 7 164 -3 2 -104 1 -225 -3 l-220 -8 -6 -66 c-13 -141 -26 -201 -72 -337 -42 -123 -60 -159 -133 -269 -81 -122 -90 -132 -235 -251 l-150 -124 -2 42 c-16 304 -66 571 -147 781 -120 314 -238 574 -353 783 -65 117 -121 212 -125 211 -12 -4 -349 -388 -524 -597 -11 -13 -4 -31 43 -110 204 -349 352 -664 406 -870 32 -120 38 -158 48 -340 8 -152 8 -230 0 -302 -6 -54 -11 -122 -11 -151 0 -53 -63 -370 -96 -483 -27 -95 -98 -246 -142 -306 -23 -31 -66 -96 -95 -145 -249 -412 -350 -533 -658 -795 -221 -188 -329 -262 -505 -347 l-160 -78 -184 -18 c-178 -18 -189 -18 -374 0 l-190 18 -161 78 c-179 87 -293 165 -507 349 -328 283 -386 354 -718 894 -114 185 -179 353 -229 586 -22 106 -41 217 -41 247 0 29 -5 97 -11 151 -8 72 -8 150 0 302 11 189 15 217 52 353 59 217 205 526 388 821 l80 129 -27 32 c-77 91 -514 580 -520 582 -4 1 -60 -94 -125 -211z"/>
</g>
</g>
  <g id="id1:id1" transform="matrix(1.25,0,0,1.25,0.0,0.0)"><g transform="translate(0.000000,1276.000000) scale(0.100000,-0.100000)" fill="#ffffff" stroke="none">
<path d="M830 6380 l0 -5540 5540 0 5540 0 0 5540 0 5540 -5540 0 -5540 0 0 -5540z m3722 4771 c134 -151 255 -288 270 -306 l27 -32 -80 -129 c-183 -295 -329 -604 -388 -821 -37 -136 -41 -164 -52 -353 -8 -152 -8 -230 0 -302 6 -54 11 -122 11 -151 0 -30 19 -141 41 -247 50 -233 115 -401 229 -586 332 -540 390 -611 718 -894 214 -184 328 -262 507 -349 l161 -78 190 -18 c185 -18 196 -18 374 0 l184 18 160 78 c176 85 284 159 505 347 308 262 409 383 658 795 29 49 72 114 95 145 44 60 115 211 142 306 33 113 96 430 96 483 0 29 5 97 11 151 8 72 8 150 0 302 -10 182 -16 220 -48 340 -54 206 -202 521 -406 870 -47 79 -54 97 -43 110 175 209 512 593 524 597 4 1 60 -94 125 -211 115 -209 233 -469 353 -783 81 -210 131 -477 147 -781 l2 -42 150 124 c145 119 154 129 235 251 73 110 91 146 133 269 46 136 59 196 72 337 l6 66 220 8 c121 4 222 5 225 3 2 -3 -1 -76 -7 -164 -15 -211 -59 -384 -136 -537 -59 -119 -251 -375 -421 -563 -102 -113 -311 -274 -434 -335 -42 -20 -68 -40 -68 -49 0 -9 -23 -124 -50 -256 -64 -304 -135 -529 -200 -628 -25 -39 -124 -206 -220 -370 -130 -224 -198 -330 -270 -420 -53 -67 -100 -127 -104 -135 -7 -11 18 -12 155 -6 162 7 164 8 254 48 78 34 197 77 216 77 4 0 10 -30 13 -67 4 -38 16 -133 26 -213 17 -128 45 -519 38 -525 -2 -1 -286 -118 -633 -260 -346 -142 -631 -258 -633 -260 -1 -1 16 -50 38 -109 42 -115 70 -246 95 -446 22 -181 21 -1013 -1 -1230 l-16 -154 -55 -111 c-66 -132 -213 -337 -285 -397 -43 -36 -60 -61 -104 -154 -47 -101 -53 -122 -63 -220 -28 -258 -71 -398 -160 -517 -64 -85 -136 -280 -150 -407 -14 -127 -14 -382 -1 -503 10 -85 8 -103 -15 -212 -25 -113 -29 -123 -81 -191 -49 -64 -61 -74 -122 -97 -210 -81 -344 -94 -515 -52 -192 48 -223 67 -329 201 -10 12 -29 75 -43 140 -23 108 -25 126 -15 211 13 119 13 377 0 501 -8 73 -22 126 -56 217 -54 141 -56 145 -105 210 -82 109 -123 246 -150 499 -10 99 -16 119 -64 221 -43 92 -60 118 -100 151 -74 60 -205 244 -279 392 l-65 130 -16 147 c-22 212 -22 1044 1 1230 16 134 51 291 103 455 17 52 29 95 28 96 -1 1 -285 117 -632 259 -346 142 -631 259 -633 260 -4 4 27 480 32 496 3 8 12 73 21 144 9 72 18 138 21 148 8 24 23 20 194 -48 l135 -53 154 -7 154 -7 -22 31 c-12 17 -59 77 -105 134 -59 74 -142 207 -291 462 -114 198 -223 392 -241 433 -53 115 -100 288 -144 530 -23 123 -43 229 -46 236 -3 7 -35 27 -72 45 -37 18 -129 78 -204 133 -142 102 -255 216 -389 388 -32 41 -90 116 -129 165 -161 206 -247 446 -269 749 -6 88 -9 161 -6 164 2 2 103 1 224 -3 l220 -7 6 -42 c24 -180 38 -248 75 -364 36 -117 51 -148 122 -255 44 -67 93 -133 110 -146 16 -13 86 -72 156 -132 69 -59 128 -107 129 -105 2 2 8 73 14 157 5 85 16 183 24 219 8 36 23 117 34 180 20 123 80 290 234 654 72 169 304 608 319 603 4 -1 116 -125 250 -276z"/>
</g>
</g>
</svg>
