<?xml version="1.0" encoding="UTF-8" standalone="no"?>
<!-- Created with Inkscape (http://www.inkscape.org/) -->

<svg
   xmlns:dc="http://purl.org/dc/elements/1.1/"
   xmlns:cc="http://creativecommons.org/ns#"
   xmlns:rdf="http://www.w3.org/1999/02/22-rdf-syntax-ns#"
   xmlns:svg="http://www.w3.org/2000/svg"
   xmlns="http://www.w3.org/2000/svg"
   xmlns:inkscape="http://www.inkscape.org/namespaces/inkscape"
   version="1.1"
   width="100%"
   height="100%"
   viewBox="0 0 366.47558 349.15628"
   id="svg37657"
   xml:space="preserve"
   style="fill-rule:evenodd;stroke-linecap:round;stroke-linejoin:round"><metadata
     id="metadata37720"><rdf:RDF><cc:Work
         rdf:about=""><dc:format>image/svg+xml</dc:format><dc:type
           rdf:resource="http://purl.org/dc/dcmitype/StillImage" /></cc:Work></rdf:RDF></metadata><defs
     id="defs37659"><clipPath
       id="clipId0"><path
         d="M 0,600 800,600 800,0 0,0 z"
         inkscape:connector-curvature="0"
         id="path37662" /></clipPath></defs><g
     transform="translate(-213.80567,-125.46875)"
     clip-path="url(#clipId0)"
     id="g37664"
     style="fill:none;stroke:#000000;stroke-width:0.1" /><g
     transform="translate(-213.80567,-125.46875)"
     clip-path="url(#clipId0)"
     id="g37666"
     style="fill:#ededed;stroke:none"><path
       d="m 463.8125,149.59375 -65.21875,178.8125 -37.875,-83.09375 -57.84375,142 -33.65625,-14.71875 -41.03125,92.5625 41.03125,0 33.65625,0 57.84375,0 37.875,0 65.21875,0 27.34375,0 31.5625,0 46.28125,0 -46.28125,-262.96875 -31.5625,3.15625 -27.34375,-55.75 z"
       inkscape:connector-curvature="0"
       id="path37694" /></g><g
     transform="translate(-213.80567,-125.46875)"
     clip-path="url(#clipId0)"
     id="g37696"
     style="fill:#510000;stroke:none"><path
       d="M 462.53125,125.46875 397.625,303.4375 360.25,221.40625 297.75,374.75 l -33.375,-14.625 -44.84375,101.1875 -5.72558,13.28183 14.38183,0.0307 352.09375,0 L 530.5,191.875 496.75,195.25 z m 2.5625,48.21875 20.46875,41.71875 29.34375,-2.9375 42.8125,243.21875 -89.9375,0 -58.96875,-127.71875 z m -103.875,95.53125 38.34375,84.15625 0.0625,-0.15625 47.28125,102.46875 -204.15625,0 31.28125,-70.65625 33.9375,14.84375 z"
       inkscape:connector-curvature="0"
       id="path37698" /></g></svg>