<?xml version="1.0" standalone="no"?>
<!DOCTYPE svg PUBLIC "-//W3C//DTD SVG 1.1//EN"
 "http://www.w3.org/Graphics/SVG/1.1/DTD/svg11.dtd">
<!-- Created with svg_stack (http://github.com/astraw/svg_stack) -->
<svg xmlns:sodipodi="http://sodipodi.sourceforge.net/DTD/sodipodi-0.dtd" xmlns="http://www.w3.org/2000/svg" version="1.1" width="1596.25" height="1597.5">
  <defs/>
  <g id="id0:id0" transform="matrix(1.25,0,0,1.25,0.0,0.0)"><g transform="translate(0.000000,1278.000000) scale(0.100000,-0.100000)" fill="#ffffff" stroke="none">
<path d="M0 6390 l0 -6390 6385 0 6385 0 0 6390 0 6390 -6385 0 -6385 0 0 -6390z m2939 4885 c454 -66 805 -265 1127 -640 38 -44 70 -79 71 -78 2 2 43 49 93 106 212 246 419 397 695 505 207 82 469 132 690 132 138 0 417 -39 531 -75 351 -109 634 -292 847 -549 131 -158 189 -246 267 -408 129 -268 179 -468 187 -755 6 -203 -2 -281 -48 -470 -105 -432 -304 -744 -664 -1039 -213 -175 -562 -318 -902 -369 -394 -59 -881 61 -1249 306 -112 76 -318 266 -405 374 l-43 54 -30 -37 c-17 -20 -77 -86 -135 -146 -294 -303 -656 -484 -1098 -551 -433 -64 -946 76 -1331 365 -126 94 -336 308 -409 415 -71 105 -161 281 -203 397 -107 293 -138 615 -92 933 34 227 71 344 177 556 194 385 525 690 937 863 148 62 230 84 408 111 213 31 364 31 579 0z m9641 -1552 c69 -97 128 -182 132 -188 5 -8 -16 -28 -57 -56 l-65 -44 0 -3810 0 -3810 65 -44 65 -44 -18 -27 c-64 -100 -238 -349 -243 -350 -3 0 -1014 706 -2245 1570 -1834 1285 -2240 1566 -2242 1550 -3 -19 -12 -20 -260 -20 l-257 1 -255 204 -255 205 -282 0 -283 0 0 -385 0 -385 -2555 0 -2555 0 0 1535 0 1535 2555 0 2555 0 0 -385 0 -385 276 0 276 0 255 180 256 180 263 0 263 0 3 -24 c3 -22 220 131 2237 1575 1229 879 2237 1599 2240 1599 3 0 62 -80 131 -177z"/>
</g>
</g>
  <g id="id1:id1" transform="matrix(1.25,0,0,1.25,0.0,0.0)"><g transform="translate(0.000000,1278.000000) scale(0.100000,-0.100000)" fill="#000000" stroke="none">
<path d="M2360 11275 c-178 -27 -260 -49 -408 -111 -274 -115 -500 -278 -691 -499 -113 -131 -174 -221 -246 -364 -106 -212 -143 -329 -177 -556 -46 -318 -15 -640 92 -933 42 -116 132 -292 203 -397 73 -107 283 -321 409 -415 385 -289 898 -429 1331 -365 442 67 804 248 1098 551 58 60 118 126 135 146 l30 37 43 -54 c87 -108 293 -298 405 -374 368 -245 855 -365 1249 -306 281 43 575 149 787 286 181 116 393 326 518 512 111 163 208 390 261 610 46 189 54 267 48 470 -8 287 -58 487 -187 755 -169 349 -431 631 -745 801 -214 116 -379 171 -618 206 -207 31 -347 32 -539 5 -302 -43 -549 -137 -792 -303 -108 -74 -219 -177 -336 -314 -50 -57 -91 -104 -93 -106 -1 -1 -33 34 -71 78 -119 138 -198 215 -300 292 -264 198 -511 302 -827 348 -215 31 -366 31 -579 0z"/>
<path d="M10209 8301 c-2017 -1444 -2234 -1597 -2237 -1575 l-3 24 -263 0 -263 0 -256 -180 -255 -180 -276 0 -276 0 0 385 0 385 -2555 0 -2555 0 0 -1535 0 -1535 2555 0 2555 0 0 385 0 385 283 0 282 0 255 -205 255 -204 257 -1 c248 0 257 1 260 20 2 16 408 -265 2242 -1550 1231 -864 2242 -1570 2245 -1570 12 1 261 374 253 381 -4 3 -1072 750 -2374 1660 l-2368 1654 0 545 0 545 2361 1685 c1299 927 2368 1690 2375 1695 11 8 -14 49 -118 197 -73 103 -136 188 -139 188 -3 0 -1011 -720 -2240 -1599z"/>
</g>
</g>
  <g id="id2:id2" transform="matrix(1.25,0,0,1.25,0.0,0.0)"><g transform="translate(0.000000,1278.000000) scale(0.100000,-0.100000)" fill="#ffffb2" stroke="none">
<path d="M10280 7784 l-2305 -1645 0 -549 0 -549 2305 -1611 2305 -1611 3 1907 c1 1048 1 2760 0 3804 l-3 1898 -2305 -1644z"/>
</g>
</g>
</svg>
