<?xml version="1.0" encoding="UTF-8" standalone="no"?>
<svg
   xmlns:dc="http://purl.org/dc/elements/1.1/"
   xmlns:cc="http://creativecommons.org/ns#"
   xmlns:rdf="http://www.w3.org/1999/02/22-rdf-syntax-ns#"
   xmlns:svg="http://www.w3.org/2000/svg"
   xmlns="http://www.w3.org/2000/svg"
   xmlns:sodipodi="http://sodipodi.sourceforge.net/DTD/sodipodi-0.dtd"
   xmlns:inkscape="http://www.inkscape.org/namespaces/inkscape"
   viewBox="0 0 371.77595 350.87499"
   version="1.1"
   xml:space="preserve"
   id="svg23290"
   inkscape:version="0.48.3.1 r9886"
   width="100%"
   height="100%"
   sodipodi:docname="alkis3627.svg"
   style="fill-rule:evenodd;stroke-linecap:round;stroke-linejoin:round"><metadata
   id="metadata23353"><rdf:RDF><cc:Work
       rdf:about=""><dc:format>image/svg+xml</dc:format><dc:type
         rdf:resource="http://purl.org/dc/dcmitype/StillImage" /></cc:Work></rdf:RDF></metadata><sodipodi:namedview
   pagecolor="#ffffff"
   bordercolor="#666666"
   borderopacity="1"
   objecttolerance="10"
   gridtolerance="10"
   guidetolerance="10"
   inkscape:pageopacity="0"
   inkscape:pageshadow="2"
   inkscape:window-width="1855"
   inkscape:window-height="1025"
   id="namedview23351"
   showgrid="false"
   inkscape:zoom="6.2933332"
   inkscape:cx="-27.896083"
   inkscape:cy="45.35208"
   inkscape:window-x="0"
   inkscape:window-y="33"
   inkscape:window-maximized="1"
   inkscape:current-layer="svg23290" />
<defs
   id="defs23292">
<clipPath
   id="clipId0">
<path
   d="M 0,600 800,600 800,0 0,0 z"
   id="path23295"
   inkscape:connector-curvature="0" />
</clipPath>
</defs>
<g
   clip-path="url(#clipId0)"
   id="g23297"
   style="fill:none;stroke:#000000;stroke-width:0.1"
   transform="translate(-212.53655,-124.5)" />
<g
   clip-path="url(#clipId0)"
   id="g23299"
   transform="translate(-212.98598,-124.05057)"
   style="fill:#ededed;stroke:none">













<path
   d="m 467.4375,140.59375 -65.1875,187.0625 -40.84375,-86.9375 -62.5625,148.1875 -34.90625,-15.8125 -42.8125,96.8125 42.8125,0 34.90625,0 62.5625,0 40.84375,0 65.1875,0 27.6875,0 32.90625,0 48.75,0 -48.75,-275.3125 -32.90625,4.625 -27.6875,-58.625 z"
   transform="translate(0.44943228,-0.44943228)"
   id="path23327"
   inkscape:connector-curvature="0" />
</g>
<g
   clip-path="url(#clipId0)"
   id="g23329"
   style="fill:#510000;stroke:none"
   transform="translate(-212.53655,-124.5)">
<path
   d="m 467.0625,124.5 -65.1875,187.03125 -40.3125,-85.84375 -65.34375,154.84375 -34.84375,-15.75 -45.21875,102.28125 -3.6197,8.28549 9.0572,0.027 362.71875,0 -50.96875,-287.875 -34.28125,4.78125 z m 1.65625,31.28125 23.34375,49.46875 31.59375,-4.4375 46.5,262.71875 -96.875,0 -64.1875,-136.65625 z m -106.5625,99.03125 41.34375,88.03125 0,0.0312 56.6875,120.65625 -229.5,0 36.71875,-83.03125 35,15.84375 z"
   id="path23331"
   inkscape:connector-curvature="0"
   sodipodi:nodetypes="ccccccccccccccccccccccccccc" />









</g>
</svg>