<?xml version="1.0" standalone="no"?>
<!DOCTYPE svg PUBLIC "-//W3C//DTD SVG 1.1//EN"
 "http://www.w3.org/Graphics/SVG/1.1/DTD/svg11.dtd">
<!-- Created with svg_stack (http://github.com/astraw/svg_stack) -->
<svg xmlns:sodipodi="http://sodipodi.sourceforge.net/DTD/sodipodi-0.dtd" xmlns="http://www.w3.org/2000/svg" version="1.1" width="1980.0" height="388.75">
  <defs/>
  <g id="id0:id0" transform="matrix(1.25,0,0,1.25,0.0,0.0)"><g transform="translate(0.000000,311.000000) scale(0.100000,-0.100000)" fill="#000000" stroke="none">
<path d="M1080 2450 l0 -660 -540 0 -540 0 0 -235 0 -235 540 0 540 0 0 -660 0 -660 1560 0 1560 0 0 660 0 660 1080 0 1080 0 0 -660 0 -660 1560 0 1560 0 0 660 0 660 1080 0 1080 0 0 -660 0 -660 1560 0 1560 0 0 660 0 660 540 0 540 0 0 235 0 235 -540 0 -540 0 0 660 0 660 -1560 0 -1560 0 0 -660 0 -660 -1080 0 -1080 0 0 660 0 660 -1560 0 -1560 0 0 -660 0 -660 -1080 0 -1080 0 0 660 0 660 -1560 0 -1560 0 0 -660z m2640 -235 l0 -425 -1080 0 -1080 0 0 425 0 425 1080 0 1080 0 0 -425z m5280 0 l0 -425 -1080 0 -1080 0 0 425 0 425 1080 0 1080 0 0 -425z m5280 0 l0 -425 -1080 0 -1080 0 0 425 0 425 1080 0 1080 0 0 -425z m-10560 -1320 l0 -425 -1080 0 -1080 0 0 425 0 425 1080 0 1080 0 0 -425z m5280 0 l0 -425 -1080 0 -1080 0 0 425 0 425 1080 0 1080 0 0 -425z m5280 0 l0 -425 -1080 0 -1080 0 0 425 0 425 1080 0 1080 0 0 -425z"/>
</g>
</g>
  <g id="id1:id1" transform="matrix(1.25,0,0,1.25,0.0,0.0)"><g transform="translate(0.000000,311.000000) scale(0.100000,-0.100000)" fill="#ffffff" stroke="none">
</g>
</g>
</svg>
