<?xml version="1.0" standalone="no"?>
<!DOCTYPE svg PUBLIC "-//W3C//DTD SVG 1.1//EN"
 "http://www.w3.org/Graphics/SVG/1.1/DTD/svg11.dtd">
<!-- Created with svg_stack (http://github.com/astraw/svg_stack) -->
<svg xmlns:sodipodi="http://sodipodi.sourceforge.net/DTD/sodipodi-0.dtd" xmlns="http://www.w3.org/2000/svg" version="1.1" width="1595.0" height="1596.25">
  <defs/>
  <g id="id0:id0" transform="matrix(1.25,0,0,1.25,0.0,0.0)"><g transform="translate(0.000000,1277.000000) scale(0.100000,-0.100000)" fill="#00ffff" stroke="none">
<path d="M0 6385 l0 -6385 6380 0 6380 0 0 6385 0 6385 -6380 0 -6380 0 0 -6385z m4813 1518 c4 -2214 6 -2576 20 -2760 18 -238 28 -308 64 -441 74 -279 279 -557 540 -733 237 -160 583 -250 966 -250 391 -1 593 37 869 164 95 44 152 82 246 166 313 279 399 557 422 1361 5 162 9 1363 9 2668 l1 2372 805 0 806 0 -5 -2487 c-2 -1395 -9 -2582 -14 -2703 -16 -352 -43 -616 -93 -920 -36 -217 -140 -533 -242 -735 -130 -258 -440 -594 -722 -782 -98 -65 -259 -147 -445 -226 -151 -64 -209 -82 -425 -135 -137 -33 -284 -64 -325 -67 -41 -4 -115 -13 -165 -22 -49 -8 -200 -20 -335 -28 -203 -10 -301 -10 -570 1 -179 7 -381 18 -450 24 -314 28 -733 117 -934 200 -129 52 -419 202 -532 275 -315 204 -619 554 -799 920 -80 165 -149 391 -185 610 -11 66 -27 157 -35 203 -13 74 -25 194 -55 577 -23 282 -30 959 -30 3063 l0 2232 804 0 805 0 4 -2547z"/>
</g>
</g>
  <g id="id1:id1" transform="matrix(1.25,0,0,1.25,0.0,0.0)"><g transform="translate(0.000000,1277.000000) scale(0.100000,-0.100000)" fill="#ffffff" stroke="none">
<path d="M3200 8218 c0 -2104 7 -2781 30 -3063 30 -383 42 -503 55 -577 8 -46 24 -137 35 -203 36 -219 105 -445 185 -610 180 -366 484 -716 799 -920 113 -73 403 -223 532 -275 201 -83 620 -172 934 -200 69 -6 271 -17 450 -24 269 -11 367 -11 570 -1 135 8 286 20 335 28 50 9 124 18 165 22 41 3 188 34 325 67 216 53 274 71 425 135 186 79 347 161 445 226 282 188 592 524 722 782 102 202 206 518 242 735 50 304 77 568 93 920 5 121 12 1308 14 2703 l5 2487 -806 0 -805 0 -1 -2372 c0 -1305 -4 -2506 -9 -2668 -16 -558 -62 -833 -178 -1065 -58 -117 -229 -301 -365 -394 -101 -69 -325 -159 -472 -189 -216 -45 -612 -58 -810 -27 -526 83 -812 254 -1074 643 -84 125 -150 302 -181 485 -6 38 -18 164 -27 280 -14 184 -16 546 -20 2760 l-4 2547 -805 0 -804 0 0 -2232z"/>
</g>
</g>
</svg>
