<?xml version="1.0" standalone="no"?>
<!DOCTYPE svg PUBLIC "-//W3C//DTD SVG 1.1//EN"
 "http://www.w3.org/Graphics/SVG/1.1/DTD/svg11.dtd">
<!-- Created with svg_stack (http://github.com/astraw/svg_stack) -->
<svg xmlns:sodipodi="http://sodipodi.sourceforge.net/DTD/sodipodi-0.dtd" xmlns="http://www.w3.org/2000/svg" version="1.1" width="1596.25" height="1597.5">
  <defs/>
  <g id="id0:id0" transform="matrix(1.25,0,0,1.25,0.0,0.0)"><g transform="translate(0.000000,1278.000000) scale(0.100000,-0.100000)" fill="#000000" stroke="none">
<path d="M9354 11458 c-203 -205 -637 -645 -964 -978 -327 -333 -658 -670 -737 -750 l-143 -145 85 -475 c46 -261 109 -599 140 -749 30 -151 52 -278 48 -281 -5 -4 -197 -137 -428 -295 -231 -158 -530 -367 -663 -463 l-244 -175 -156 164 c-201 212 -1140 1151 -2706 2706 l-1250 1240 -145 21 c-80 12 -158 22 -172 22 -19 0 -194 -63 -207 -74 -5 -6 -104 -470 -127 -602 l-25 -140 75 -370 75 -369 126 -325 c69 -179 189 -464 267 -635 l142 -310 239 -360 239 -360 241 -250 c133 -137 268 -278 301 -312 54 -55 101 -84 440 -274 l380 -212 396 -81 397 -81 171 -163 c94 -90 171 -169 171 -175 0 -6 -711 -723 -1579 -1592 l-1579 -1580 -194 -280 c-107 -154 -197 -286 -202 -293 -9 -15 -107 -512 -102 -521 1 -3 42 -74 90 -157 l88 -152 121 -52 c67 -29 140 -54 162 -56 22 -3 145 10 273 28 l233 33 286 210 286 210 726 720 c940 932 2451 2419 2461 2423 5 2 721 -708 1592 -1577 l1583 -1580 230 -168 c127 -93 270 -199 319 -237 l90 -69 195 8 196 7 152 81 152 81 62 141 c62 140 62 140 90 344 16 113 25 209 20 215 -4 6 -125 164 -269 351 l-260 340 -1611 1593 -1611 1594 95 136 c100 145 495 730 705 1044 73 109 132 187 141 188 13 0 757 -152 1330 -271 l155 -33 1126 1125 1126 1126 -229 229 -229 229 -162 -170 c-89 -94 -358 -368 -598 -610 -240 -242 -669 -676 -954 -963 l-518 -524 -81 79 c-45 43 -153 146 -240 229 l-158 151 565 558 c311 307 820 816 1130 1130 l566 573 -226 218 -227 219 -720 -730 c-397 -401 -898 -908 -1114 -1125 l-393 -395 -224 224 -225 225 219 225 c121 124 620 631 1109 1126 l890 900 -222 223 c-122 122 -224 222 -227 222 -3 0 -172 -168 -376 -372z"/>
</g>
</g>
  <g id="id1:id1" transform="matrix(1.25,0,0,1.25,0.0,0.0)"><g transform="translate(0.000000,1278.000000) scale(0.100000,-0.100000)" fill="#ffffff" stroke="none">
<path d="M0 6390 l0 -6390 6385 0 6385 0 0 6390 0 6390 -6385 0 -6385 0 0 -6390z m9957 5218 l222 -223 -890 -900 c-489 -495 -988 -1002 -1109 -1126 l-219 -225 225 -225 224 -224 393 395 c216 217 717 724 1114 1125 l720 730 227 -219 226 -218 -566 -573 c-310 -314 -819 -823 -1130 -1130 l-565 -558 158 -151 c87 -83 195 -186 240 -229 l81 -79 518 524 c285 287 714 721 954 963 240 242 509 516 598 610 l162 170 229 -229 229 -229 -1126 -1126 -1126 -1125 -155 33 c-573 119 -1317 271 -1330 271 -9 -1 -68 -79 -141 -188 -210 -314 -605 -899 -705 -1044 l-95 -136 1611 -1594 1611 -1593 260 -340 c144 -187 265 -345 269 -351 5 -6 -4 -102 -20 -215 -28 -204 -28 -204 -90 -344 l-62 -141 -152 -81 -152 -81 -196 -7 -195 -8 -90 69 c-49 38 -192 144 -319 237 l-230 168 -1583 1580 c-871 869 -1587 1579 -1592 1577 -10 -4 -1521 -1491 -2461 -2423 l-726 -720 -286 -210 -286 -210 -233 -33 c-128 -18 -251 -31 -273 -28 -22 2 -95 27 -162 56 l-121 52 -88 152 c-48 83 -89 154 -90 157 -5 9 93 506 102 521 5 7 95 139 202 293 l194 280 1579 1580 c868 869 1579 1586 1579 1592 0 6 -77 85 -171 175 l-171 163 -397 81 -396 81 -380 212 c-339 190 -386 219 -440 274 -33 34 -168 175 -301 312 l-241 250 -239 360 -239 360 -142 310 c-78 171 -198 456 -267 635 l-126 325 -75 369 -75 370 25 140 c23 132 122 596 127 602 13 11 188 74 207 74 14 0 92 -10 172 -22 l145 -21 1250 -1240 c1566 -1555 2505 -2494 2706 -2706 l156 -164 244 175 c133 96 432 305 663 463 231 158 423 291 428 295 4 3 -18 130 -48 281 -31 150 -94 488 -140 749 l-85 475 143 145 c79 80 410 417 737 750 673 686 1332 1350 1340 1350 3 0 105 -100 227 -222z"/>
</g>
</g>
</svg>
