<?xml version="1.0" encoding="UTF-8" standalone="no"?>
<svg
   xmlns:dc="http://purl.org/dc/elements/1.1/"
   xmlns:cc="http://creativecommons.org/ns#"
   xmlns:rdf="http://www.w3.org/1999/02/22-rdf-syntax-ns#"
   xmlns:svg="http://www.w3.org/2000/svg"
   xmlns="http://www.w3.org/2000/svg"
   xmlns:sodipodi="http://sodipodi.sourceforge.net/DTD/sodipodi-0.dtd"
   xmlns:inkscape="http://www.inkscape.org/namespaces/inkscape"
   viewBox="0 0 350.97748 351.24455"
   version="1.1"
   xml:space="preserve"
   id="svg72008"
   inkscape:version="0.48.3.1 r9886"
   width="100%"
   height="100%"
   sodipodi:docname="alkis3522.svg"
   style="fill-rule:evenodd;stroke-linecap:round;stroke-linejoin:round"><metadata
   id="metadata72501"><rdf:RDF><cc:Work
       rdf:about=""><dc:format>image/svg+xml</dc:format><dc:type
         rdf:resource="http://purl.org/dc/dcmitype/StillImage" /></cc:Work></rdf:RDF></metadata><sodipodi:namedview
   pagecolor="#ffffff"
   bordercolor="#666666"
   borderopacity="1"
   objecttolerance="10"
   gridtolerance="10"
   guidetolerance="10"
   inkscape:pageopacity="0"
   inkscape:pageshadow="2"
   inkscape:window-width="1855"
   inkscape:window-height="1025"
   id="namedview72499"
   showgrid="false"
   inkscape:zoom="1.1125146"
   inkscape:cx="180.16338"
   inkscape:cy="297.94854"
   inkscape:window-x="0"
   inkscape:window-y="33"
   inkscape:window-maximized="1"
   inkscape:current-layer="svg72008" />
<defs
   id="defs72010">
<clipPath
   id="clipId0">
<path
   d="M 0,600 800,600 800,0 0,0 z"
   id="path72013"
   inkscape:connector-curvature="0" />
</clipPath>















































































</defs>
<g
   clip-path="url(#clipId0)"
   id="g72015"
   style="fill:none;stroke:#000000;stroke-width:0.1"
   transform="translate(-224.33336,-123.87492)" />
<path
   style="fill:#ffffff;fill-rule:nonzero;stroke:none"
   d="M 175.47914,9.9375795 C 123.88859,9.8237195 73.049121,35.21968 42.529491,76.87389 8.8655614,121.52318 0.37092143,183.64842 21.155641,235.60736 c 20.09546,53.22487 69.63682,93.78783 125.748129,103.11903 55.64334,10.23712 115.64073,-10.7842 152.71816,-53.5262 37.81668,-42.0949 51.19552,-104.23502 34.14822,-158.18381 C 317.62405,72.80132 271.65541,28.88896 216.74362,15.26632 203.28086,11.73819 189.38083,10.17403 175.47914,9.9375795 z"
   id="path72173"
   inkscape:connector-curvature="0" />
<g
   clip-path="url(#clipId0)"
   id="g72175"
   style="fill:#000000;stroke:none"
   transform="translate(-224.33336,-123.87492)">















































































<path
   d="m 399.28125,123.875 c -58.12879,-0.0572 -115.25683,30.74221 -146.52695,79.8428 -33.62447,50.4831 -37.7308,118.68945 -10.62479,172.92924 25.76973,53.77335 80.6845,92.04324 140.07981,97.49296 60.28126,6.64962 122.74327,-20.9843 158.50595,-69.94716 35.73234,-47.32491 44.65947,-113.19911 22.68456,-168.29293 -21.12375,-55.75775 -72.6377,-98.51144 -131.35739,-108.92302 -10.7784,-2.19905 -21.7825,-2.86482 -32.76119,-3.10189 z m 0.53125,19.875 c 52.05876,-0.19047 103.17788,27.54013 130.9496,71.64433 31.10637,47.34019 32.92903,111.89977 4.40949,160.86485 -27.70385,50.18136 -85.06355,81.9465 -142.30837,78.69297 C 335.22483,453.0806 280.61565,415.91044 257.7293,362.97234 233.86714,311.22228 242.09359,246.65594 278.11771,202.50718 306.96991,165.66597 353.09644,143.73675 399.8125,143.75 z"
   id="path72335"
   inkscape:connector-curvature="0" />
</g>
<g
   clip-path="url(#clipId0)"
   id="g72337"
   style="fill:none;stroke:#000000;stroke-width:0.25"
   transform="translate(-224.33336,-123.87492)">
<polyline
   points="399.803,133.822 399.803,133.822 "
   id="polyline72339" />
</g>
<g
   clip-path="url(#clipId0)"
   id="g72341"
   style="fill:#000000;stroke:none"
   transform="translate(-224.33336,-123.87492)">













































































<path
   d="m 234.125,299.5 c -0.005,46.37547 20.27858,92.41584 55.06934,123.18155 38.33672,34.97897 93.80572,49.90804 144.51853,38.85638 50.8931,-10.19985 95.72356,-46.13387 116.82274,-93.54957 9.89022,-21.39063 14.74313,-44.95587 14.93314,-68.48836 -110.44792,0 -220.89583,0 -331.34375,0 z"
   id="path72497"
   inkscape:connector-curvature="0" />
</g>
</svg>