<?xml version="1.0" encoding="UTF-8" standalone="no"?>
<svg
   xmlns:dc="http://purl.org/dc/elements/1.1/"
   xmlns:cc="http://creativecommons.org/ns#"
   xmlns:rdf="http://www.w3.org/1999/02/22-rdf-syntax-ns#"
   xmlns:svg="http://www.w3.org/2000/svg"
   xmlns="http://www.w3.org/2000/svg"
   xmlns:sodipodi="http://sodipodi.sourceforge.net/DTD/sodipodi-0.dtd"
   xmlns:inkscape="http://www.inkscape.org/namespaces/inkscape"
   viewBox="0 0 413.6875 413.65625"
   version="1.1"
   xml:space="preserve"
   id="svg5156"
   inkscape:version="0.48.3.1 r9886"
   width="100%"
   height="100%"
   sodipodi:docname="alkis3020.svg"
   style="fill-rule:evenodd;stroke-linecap:round;stroke-linejoin:round"><metadata
   id="metadata5491"><rdf:RDF><cc:Work
       rdf:about=""><dc:format>image/svg+xml</dc:format><dc:type
         rdf:resource="http://purl.org/dc/dcmitype/StillImage" /></cc:Work></rdf:RDF></metadata><sodipodi:namedview
   pagecolor="#ffffff"
   bordercolor="#666666"
   borderopacity="1"
   objecttolerance="10"
   gridtolerance="10"
   guidetolerance="10"
   inkscape:pageopacity="0"
   inkscape:pageshadow="2"
   inkscape:window-width="1855"
   inkscape:window-height="1025"
   id="namedview5489"
   showgrid="false"
   inkscape:zoom="1.5733333"
   inkscape:cx="206.95869"
   inkscape:cy="193.05041"
   inkscape:window-x="0"
   inkscape:window-y="33"
   inkscape:window-maximized="1"
   inkscape:current-layer="svg5156" />
<defs
   id="defs5158">
<clipPath
   id="clipId0">
<path
   d="M 0,600 800,600 800,0 0,0 z"
   id="path5161"
   inkscape:connector-curvature="0" />
</clipPath>
</defs>
<g
   clip-path="url(#clipId0)"
   id="g5163"
   style="fill:none;stroke:#000000;stroke-width:0.1"
   transform="translate(-194.3125,-95.46875)" />
<g
   clip-path="url(#clipId0)"
   id="g5165"
   style="fill:#ffffff;stroke:none"
   transform="translate(-194.3125,-95.46875)">













































































<path
   d="m 401.15625,117.59375 -14.5,0.5625 -14.40625,1.71875 -14.21875,2.84375 -13.9375,3.9375 -13.625,5 -13.15625,6.0625 -12.65625,7.09375 -12.0625,8.0625 -11.375,8.96875 -10.65625,9.84375 -9.84375,10.65625 -8.96875,11.375 -8.0625,12.0625 -7.09375,12.65625 -6.0625,13.15625 -5.03125,13.625 -3.9375,13.9375 -2.8125,14.25 -1.71875,14.375 -0.5625,14.5 0.5625,14.5 1.71875,14.375 2.8125,14.25 3.9375,13.9375 5.03125,13.625 6.0625,13.15625 7.09375,12.65625 8.0625,12.0625 8.96875,11.375 9.84375,10.65625 10.65625,9.84375 11.375,8.96875 12.0625,8.0625 12.65625,7.09375 13.15625,6.0625 13.625,5 13.9375,3.9375 14.21875,2.84375 14.40625,1.71875 14.5,0.5625 14.5,-0.5625 14.375,-1.71875 14.25,-2.84375 13.9375,-3.9375 13.59375,-5 13.1875,-6.0625 12.65625,-7.09375 12.0625,-8.0625 11.375,-8.96875 10.65625,-9.84375 9.84375,-10.65625 8.96875,-11.375 8.0625,-12.0625 7.09375,-12.65625 6.0625,-13.15625 5,-13.625 3.9375,-13.9375 2.84375,-14.25 1.6875,-14.375 0.59375,-14.5 -0.59375,-14.5 -1.6875,-14.375 -2.84375,-14.25 -3.9375,-13.9375 -5,-13.625 -6.0625,-13.15625 -7.09375,-12.65625 -8.0625,-12.0625 -8.96875,-11.375 -9.84375,-10.65625 -10.65625,-9.84375 -11.375,-8.96875 -12.0625,-8.0625 L 485,137.71875 l -13.1875,-6.0625 -13.59375,-5 -13.9375,-3.9375 -14.25,-2.84375 -14.375,-1.71875 -14.5,-0.5625 z"
   id="path5321"
   inkscape:connector-curvature="0" />
</g>
<g
   clip-path="url(#clipId0)"
   id="g5323"
   style="fill:#000000;stroke:none"
   transform="translate(-194.3125,-95.46875)">















































































<path
   d="m 396.9375,95.46875 0,0.125 -12,0.46875 -16.15625,1.90625 -15.90625,3.15625 -15.65625,4.4375 -15.21875,5.59375 -14.75,6.8125 -14.1875,7.9375 -13.5,9.03125 -12.75,10.0625 -11.9375,11 -11.03125,11.9375 -10.03125,12.75 -9.03125,13.5 -7.9375,14.1875 -6.8125,14.75 -5.625,15.21875 L 200,254 l -3.15625,15.90625 -1.90625,16.15625 -0.625,16.21875 0.625,16.21875 1.90625,16.15625 3.15625,15.90625 4.40625,15.65625 5.625,15.21875 6.8125,14.75 7.9375,14.1875 9.03125,13.5 10.03125,12.75 11.03125,11.9375 11.9375,11 12.75,10.0625 13.5,9.03125 14.1875,7.9375 14.75,6.8125 15.21875,5.59375 15.65625,4.4375 15.90625,3.15625 16.15625,1.90625 16.21875,0.625 16.21875,-0.625 16.125,-1.90625 15.9375,-3.15625 15.625,-4.4375 15.25,-5.59375 14.75,-6.8125 14.1875,-7.9375 13.5,-9.03125 12.75,-10.0625 11.9375,-11 11,-11.9375 10.0625,-12.75 9.03125,-13.5 7.9375,-14.1875 6.8125,-14.75 5.59375,-15.21875 4.4375,-15.65625 3.15625,-15.90625 L 607.375,318.5 608,302.28125 607.375,286.0625 605.46875,269.90625 602.3125,254 597.875,238.34375 592.28125,223.125 l -6.8125,-14.75 -7.9375,-14.1875 -9.03125,-13.5 -10.0625,-12.75 -11,-11.9375 -11.9375,-11 -12.75,-10.0625 -13.5,-9.03125 -14.1875,-7.9375 -14.75,-6.8125 -15.25,-5.59375 -15.625,-4.4375 -15.9375,-3.15625 -16.125,-1.90625 -17.09375,-0.5 0,-0.09375 -1.4375,0.0625 -1.90625,-0.0625 z m 4.21875,44.3125 12.75,0.5 12.65625,1.5 12.53125,2.5 12.28125,3.4375 11.96875,4.4375 11.59375,5.34375 11.125,6.21875 10.59375,7.09375 10.03125,7.90625 9.375,8.65625 8.65625,9.375 7.90625,10.03125 7.09375,10.59375 6.21875,11.125 5.34375,11.59375 4.40625,11.96875 3.46875,12.28125 2.5,12.53125 1.5,12.65625 0.5,12.75 -0.5,12.75 -1.5,12.65625 -2.5,12.53125 -3.46875,12.28125 -4.40625,11.96875 -5.34375,11.59375 -6.21875,11.125 -7.09375,10.59375 -7.90625,10.03125 -8.65625,9.375 -9.375,8.65625 -10.03125,7.90625 -10.59375,7.09375 -11.125,6.21875 -11.59375,5.34375 -11.96875,4.40625 -12.28125,3.46875 -12.53125,2.5 -12.65625,1.5 -12.75,0.5 -12.75,-0.5 -12.6875,-1.5 -12.5,-2.5 -12.28125,-3.46875 -11.96875,-4.40625 -11.59375,-5.34375 -11.125,-6.21875 -10.625,-7.09375 -10,-7.90625 -9.375,-8.65625 -8.65625,-9.375 -7.90625,-10.03125 -7.09375,-10.59375 -6.21875,-11.125 -5.34375,-11.59375 -4.4375,-11.96875 -3.4375,-12.28125 -2.5,-12.53125 -1.5,-12.65625 -0.5,-12.75 0.5,-12.75 1.5,-12.65625 2.5,-12.53125 3.4375,-12.28125 4.4375,-11.96875 5.34375,-11.59375 6.21875,-11.125 7.09375,-10.59375 7.90625,-10.03125 8.65625,-9.375 9.375,-8.65625 10,-7.90625 10.625,-7.09375 11.125,-6.21875 11.59375,-5.34375 11.96875,-4.4375 12.28125,-3.4375 12.5,-2.5 12.6875,-1.5 12.75,-0.5 z"
   id="path5483"
   inkscape:connector-curvature="0" />
</g>
<g
   clip-path="url(#clipId0)"
   id="g5485"
   style="fill:none;stroke:#000000;stroke-width:0.25"
   transform="translate(-194.3125,-95.46875)">
<polyline
   points="401.155,117.602 401.155,117.602 "
   id="polyline5487" />
</g>
</svg>