<?xml version="1.0" encoding="UTF-8" standalone="no"?>
<!-- Created with Inkscape (http://www.inkscape.org/) -->

<svg
   xmlns:dc="http://purl.org/dc/elements/1.1/"
   xmlns:cc="http://creativecommons.org/ns#"
   xmlns:rdf="http://www.w3.org/1999/02/22-rdf-syntax-ns#"
   xmlns:svg="http://www.w3.org/2000/svg"
   xmlns="http://www.w3.org/2000/svg"
   xmlns:inkscape="http://www.inkscape.org/namespaces/inkscape"
   version="1.1"
   width="100%"
   height="100%"
   viewBox="0 0 325.14221 351.35343"
   id="svg5944"
   xml:space="preserve"
   style="fill-rule:evenodd;stroke-linecap:round;stroke-linejoin:round"><metadata
     id="metadata6139"><rdf:RDF><cc:Work
         rdf:about=""><dc:format>image/svg+xml</dc:format><dc:type
           rdf:resource="http://purl.org/dc/dcmitype/StillImage" /></cc:Work></rdf:RDF></metadata><defs
     id="defs5946"><clipPath
       id="clipId0"><path
         d="M 0,600 800,600 800,0 0,0 z"
         inkscape:connector-curvature="0"
         id="path5949" /></clipPath></defs><g
     transform="translate(-235.07654,-124.57495)"
     clip-path="url(#clipId0)"
     id="g5951"
     style="fill:none;stroke:#000000;stroke-width:0.1" /><path
     d="m 0,0.25823 c 14.32775,24.81737 36.40821,62.72445 50.73596,87.54182 1.47104,-7.39893 8.85361,-4.5562 14.32115,-5.03125 30.83045,0 61.6609,0 92.49135,0 0,58.27083 0,116.54167 0,174.8125 -25.89451,2.06268 -46.0925,28.50239 -41.375,54.03125 3.40844,25.56682 30.47403,44.48844 55.64679,38.68939 26.07877,-4.41687 43.91643,-33.61007 35.94921,-58.82935 -4.83502,-18.09483 -21.51836,-32.14433 -40.1585,-33.89129 0,-58.27083 0,-116.54167 0,-174.8125 34.64583,0 69.29167,0 103.9375,0 2.87233,9.82621 5.74305,-0.83183 8.61429,-4.854 C 295.1559,51.94946 310.14906,25.98413 325.14221,0.0188 222.32284,0.36623 324.64784,0.37773 222.57403,0 c 11.42121,19.77587 31.74072,52.8992 43.16193,72.67507 -68.76042,0 -137.52083,0 -206.28125,0 C 73.43388,48.45632 87.41304,24.23757 101.39221,0.01882 -0.07971,0.45255 101.72576,-0.04418 0,0.25825 z m 17.51721,9.85432 c 22.14583,0 44.29167,0 66.4375,0 C 72.88179,29.28963 61.80888,48.46672 50.73596,67.6438 39.66304,48.46672 28.59013,29.28963 17.51721,10.11255 z m 223.71875,0 c 22.15625,0 44.3125,0 66.46875,0 -11.08333,19.17708 -22.16667,38.35417 -33.25,57.53125 C 263.38179,48.46672 252.30888,29.28963 241.23596,10.11255 z m -78.625,257.21875 c 21.47728,-0.59711 40.02811,20.47131 36.55778,41.70181 -2.0828,21.78786 -26.25642,37.49348 -47.01586,30.6015 -21.18731,-5.47311 -32.92046,-31.78814 -22.86576,-51.21638 5.86937,-12.71287 19.33373,-21.17669 33.32384,-21.08693 z"
     inkscape:connector-curvature="0"
     id="path6135"
     style="fill:#000000;stroke:none" /></svg>