<?xml version="1.0" encoding="UTF-8" standalone="no"?>
<svg
   xmlns:dc="http://purl.org/dc/elements/1.1/"
   xmlns:cc="http://creativecommons.org/ns#"
   xmlns:rdf="http://www.w3.org/1999/02/22-rdf-syntax-ns#"
   xmlns:svg="http://www.w3.org/2000/svg"
   xmlns="http://www.w3.org/2000/svg"
   xmlns:sodipodi="http://sodipodi.sourceforge.net/DTD/sodipodi-0.dtd"
   xmlns:inkscape="http://www.inkscape.org/namespaces/inkscape"
   viewBox="0 0 444.52802 444.74045"
   version="1.1"
   xml:space="preserve"
   id="svg99332"
   inkscape:version="0.48.3.1 r9886"
   width="100%"
   height="100%"
   sodipodi:docname="alkis3300.svg"
   style="fill-rule:evenodd;stroke-linecap:round;stroke-linejoin:round"><metadata
   id="metadata99837"><rdf:RDF><cc:Work
       rdf:about=""><dc:format>image/svg+xml</dc:format><dc:type
         rdf:resource="http://purl.org/dc/dcmitype/StillImage" /></cc:Work></rdf:RDF></metadata><sodipodi:namedview
   pagecolor="#ffffff"
   bordercolor="#666666"
   borderopacity="1"
   objecttolerance="10"
   gridtolerance="10"
   guidetolerance="10"
   inkscape:pageopacity="0"
   inkscape:pageshadow="2"
   inkscape:window-width="1855"
   inkscape:window-height="1025"
   id="namedview99835"
   showgrid="false"
   inkscape:zoom="1.1125147"
   inkscape:cx="224.94457"
   inkscape:cy="407.52321"
   inkscape:window-x="0"
   inkscape:window-y="33"
   inkscape:window-maximized="1"
   inkscape:current-layer="svg99332" />
<defs
   id="defs99334">
<clipPath
   id="clipId0">
<path
   d="M 0,600 800,600 800,0 0,0 z"
   id="path99337"
   inkscape:connector-curvature="0" />
</clipPath>
</defs>
<g
   clip-path="url(#clipId0)"
   id="g99339"
   style="fill:none;stroke:#000000;stroke-width:0.1"
   transform="translate(-178.12435,-77.405741)" />
<g
   clip-path="url(#clipId0)"
   id="g99341"
   style="fill:#ffe500;stroke:none"
   transform="translate(-178.12435,-77.405741)">













































































<path
   d="m 400.375,85.125 c -66.84676,-0.198409 -132.67522,32.7591 -172.24868,86.68611 -43.61559,57.85904 -54.6061,138.34511 -27.69827,205.67251 26.06034,68.94975 90.20504,121.54396 162.92343,133.61686 72.09338,13.27902 149.82274,-13.98433 197.87078,-69.3471 48.94729,-54.55891 66.35836,-135.0533 44.23146,-204.94865 C 584.55382,166.54168 524.97252,109.67357 453.8295,92.007915 436.38675,87.459193 418.3864,85.373315 400.375,85.125 z"
   id="path99497"
   inkscape:connector-curvature="0" />
</g>
<g
   clip-path="url(#clipId0)"
   id="g99499"
   style="fill:#000000;stroke:none"
   transform="translate(-178.12435,-77.405741)">















































































<path
   d="m 400.0625,77.40625 c -69.16105,-0.152663 -137.20282,34.03204 -178.15692,89.79357 -45.15999,59.96798 -56.56608,143.34 -28.68269,213.1048 26.98126,71.45067 93.47725,125.85884 168.7866,138.42617 74.27607,13.60776 154.35677,-14.13541 204.15474,-70.93722 51.05845,-56.19397 69.55215,-139.51028 47.0301,-212.03043 C 591.86474,162.43251 529.89394,102.92824 455.77717,84.518944 429.62513,77.160033 414.75952,77.870932 400.0625,77.40625 z m 0.3125,15.4375 c 68.96307,-0.243327 136.76725,36.34477 173.67032,94.72281 41.31277,62.45698 44.17788,147.71742 6.98814,212.73928 -34.68369,64.03834 -105.49493,106.04255 -178.26731,106.28952 -70.66111,1.37712 -140.31854,-36.57658 -177.49169,-96.6906 -40.18252,-62.6662 -42.33814,-147.2978 -4.97496,-211.74595 49.89257,-69.55178 93.70034,-99.05364 180.0755,-105.31506 z"
   id="path99659"
   inkscape:connector-curvature="0"
   sodipodi:nodetypes="ccccccccccccccc" />
</g>
<g
   clip-path="url(#clipId0)"
   id="g99661"
   style="fill:none;stroke:#000000;stroke-width:0.25"
   transform="translate(-178.12435,-77.405741)">
<polyline
   points="400.365,85.1268 400.365,85.1268 "
   id="polyline99663" />
</g>
<g
   clip-path="url(#clipId0)"
   id="g99665"
   style="fill:#000000;stroke:none"
   transform="translate(-178.12435,-77.405741)">















































































<path
   d="m 400.0625,111.75 c -58.82617,-0.11748 -116.65843,29.15958 -151.23993,76.77252 -37.67247,50.6496 -47.02712,120.66986 -23.62549,179.33794 22.83962,60.40019 79.06077,106.43648 142.74811,117.04495 63.15434,11.62234 131.24028,-12.26456 173.33086,-60.757 C 584.17229,376.3666 599.3989,305.84301 580.02717,244.61788 561.79732,183.43389 510.14005,133.73937 448.22912,118.0569 428.5231,112.1136 420.65769,111.97792 400.0625,111.75 z m 0.3125,15.4375 c 57.56536,-0.1891 114.15104,30.35454 144.9194,79.11158 34.81344,52.70026 36.73362,124.81355 4.66796,179.24798 -30.77135,55.15481 -93.96114,89.97559 -157.02762,86.50525 C 329.07113,470.077 268.50856,428.98935 243.0414,370.39225 216.65519,313.39063 225.37982,242.29753 264.69375,193.32577 296.67616,151.87081 348.10486,127.18935 400.375,127.1875 z"
   id="path99825"
   inkscape:connector-curvature="0"
   sodipodi:nodetypes="ccccccccccccccc" />
</g>
<g
   clip-path="url(#clipId0)"
   id="g99827"
   style="fill:none;stroke:#000000;stroke-width:0.25"
   transform="translate(-178.12435,-77.405741)">
<polyline
   points="400.365,119.471 400.365,119.471 "
   id="polyline99829" />
</g>
<g
   clip-path="url(#clipId0)"
   id="g99831"
   style="fill:#000000;stroke:none"
   transform="translate(-178.12435,-77.405741)">
<g
   transform="matrix(257.581,0,0,257.581,305.952,429.042)"
   style="font-size:1.39636004px;font-weight:bold;font-family:'Arial,\'sans-serif\''"
   id="text99833"><path
     style="font-size:1.39636004px;font-weight:bold;font-family:'Arial,\'sans-serif\''"
     d="m 0.44863521,-0.13568147 c 0.0543688,0.003667 0.10006145,-0.0407484 0.10972955,-0.0922155 -0.004736,-0.0325121 0.0197813,-0.0261795 0.0418952,-0.0242787 0.0505945,0.002922 0.10118905,0.005845 0.15178358,0.008767 -0.0132536,0.0906888 -0.0599767,0.1835255 -0.14663619,0.22351595 -0.0872861,0.04227393 -0.19120365,0.04203304 -0.28314002,0.01597473 -0.10253549,-0.03069139 -0.1757851,-0.12247408 -0.2031892,-0.22338798 -0.01950063,-0.035086 -0.008137,-0.10044155 -0.03421,-0.12042062 -0.02601665,0 -0.0520333,0 -0.07804995,0 0.00909089,-0.0338636 0.01818177,-0.0677271 0.02727266,-0.10159064 0.01749996,0 0.03499991,0 0.05249987,0 -0.0020882,-0.0241867 -0.002076,-0.0487619 0,-0.0729544 -0.02659084,0 -0.05318169,0 -0.07977253,0 0.00909089,-0.0338635 0.01818177,-0.0677271 0.02727266,-0.10159065 0.01977268,0 0.03954535,0 0.05931803,0 0.01358469,-0.11509198 0.05505261,-0.24056505 0.15969938,-0.30349284 0.0893346,-0.0525036 0.20144165,-0.0594135 0.30026024,-0.0330257 0.0885372,0.0242774 0.15741173,0.0985345 0.18149057,0.18625054 0.0110143,0.0265623 0.0164026,0.0528369 -0.0192984,0.0455998 -0.053748,0.003071 -0.10749593,0.006143 -0.16124389,0.009214 -0.003808,-0.0515521 -0.0418846,-0.10262891 -0.0963921,-0.10538022 -0.0555192,-0.008707 -0.11480277,0.0196811 -0.13661904,0.0728241 -0.0196289,0.039815 -0.0261863,0.0843342 -0.0308519,0.12801051 0.074318,0 0.14863598,0 0.22295397,0 -0.006591,0.0338635 -0.0131818,0.0677271 -0.0197727,0.10159065 -0.0688635,0 -0.13772691,0 -0.20659037,0 -0.002363,0.0242564 -0.001605,0.0487197 6.8182e-4,0.0729543 0.0772725,0 0.15454506,0 0.23181759,0 -0.006818,0.0338636 -0.0136363,0.0677271 -0.0204545,0.10159064 -0.0690907,0 -0.13818146,0 -0.20727219,0 0.007451,0.0742369 0.0236645,0.16332354 0.0971587,0.20003857 0.0185714,0.008715 0.0392659,0.0120234 0.0596591,0.0120063 z"
     id="path3395"
     inkscape:connector-curvature="0" /></g>



</g>
</svg>