<?xml version="1.0" standalone="no"?>
<!DOCTYPE svg PUBLIC "-//W3C//DTD SVG 1.1//EN"
 "http://www.w3.org/Graphics/SVG/1.1/DTD/svg11.dtd">
<!-- Created with svg_stack (http://github.com/astraw/svg_stack) -->
<svg xmlns:sodipodi="http://sodipodi.sourceforge.net/DTD/sodipodi-0.dtd" xmlns="http://www.w3.org/2000/svg" version="1.1" width="1595.0" height="1593.75">
  <defs/>
  <g id="id0:id0" transform="matrix(1.25,0,0,1.25,0.0,0.0)"><g transform="translate(0.000000,1275.000000) scale(0.100000,-0.100000)" fill="#000000" stroke="none">
<path d="M5985 12740 c-402 -22 -923 -114 -1350 -239 -1321 -386 -2418 -1121 -3262 -2183 -702 -884 -1185 -2050 -1322 -3188 -122 -1013 -6 -1967 359 -2972 450 -1239 1313 -2336 2420 -3075 834 -557 1825 -921 2840 -1044 262 -32 270 -33 710 -33 440 0 448 1 710 33 840 102 1688 376 2410 779 863 482 1625 1187 2179 2017 366 548 632 1127 830 1808 234 804 301 1642 200 2487 -137 1138 -620 2304 -1322 3188 -742 935 -1697 1628 -2791 2028 -500 183 -972 298 -1471 360 -260 32 -305 34 -635 38 -195 2 -422 1 -505 -4z m1045 -869 c469 -57 836 -144 1262 -300 689 -253 1261 -602 1846 -1129 388 -349 727 -781 1072 -1362 256 -431 497 -1082 600 -1623 81 -428 119 -917 100 -1301 -37 -766 -198 -1437 -507 -2117 -275 -603 -779 -1293 -1265 -1731 -600 -540 -1140 -870 -1846 -1129 -425 -156 -815 -248 -1297 -305 -213 -26 -258 -28 -610 -28 -351 0 -398 2 -615 28 -910 107 -1730 405 -2462 894 -723 484 -1302 1109 -1758 1896 -262 453 -498 1093 -600 1629 -81 429 -119 916 -100 1298 38 770 199 1444 507 2119 147 322 437 790 679 1095 466 588 944 995 1640 1398 597 345 1299 576 2019 663 294 36 435 43 785 38 258 -3 343 -9 550 -33z"/>
<path d="M5979 10071 c-93 -25 -156 -63 -236 -140 -80 -77 -123 -152 -152 -268 -26 -102 -26 -150 -1 -258 23 -98 26 -105 86 -195 66 -100 127 -144 304 -217 33 -13 70 -18 150 -18 111 0 121 3 259 67 141 65 243 193 280 351 12 49 21 112 21 140 0 71 -35 209 -68 271 -34 64 -155 184 -223 221 -116 63 -286 81 -420 46z"/>
<path d="M6555 8775 c-68 -26 -208 -105 -373 -209 l-112 -71 -608 -700 c-334 -384 -690 -792 -791 -905 -101 -113 -208 -237 -237 -276 -52 -69 -54 -73 -54 -135 1 -142 33 -218 130 -305 37 -33 56 -42 111 -52 113 -20 147 -16 218 26 46 26 88 65 150 136 47 55 122 141 166 190 44 50 107 122 140 160 33 39 139 156 235 261 96 105 198 217 227 249 35 40 54 55 57 45 3 -8 35 -113 71 -234 36 -121 72 -236 80 -255 l16 -35 -297 -600 c-830 -1680 -1144 -2316 -1275 -2584 l-143 -294 -1 -96 c0 -95 1 -100 42 -182 40 -80 46 -87 122 -136 132 -86 250 -111 380 -81 44 10 61 22 123 87 40 42 83 91 96 110 46 67 378 744 577 1176 112 242 275 586 362 765 88 179 242 504 343 723 101 218 187 397 190 397 12 0 44 -79 210 -525 93 -247 203 -538 245 -645 42 -107 193 -505 335 -885 142 -379 274 -726 293 -770 19 -44 40 -98 46 -120 6 -22 30 -62 54 -90 24 -27 51 -64 59 -80 25 -47 87 -108 132 -128 23 -10 51 -27 63 -39 19 -18 32 -20 120 -16 83 3 107 8 156 32 70 34 138 98 193 181 39 59 39 61 43 171 1 62 -2 136 -8 165 -18 84 -162 461 -276 719 -83 189 -129 315 -235 645 -73 226 -171 507 -218 625 -46 118 -122 325 -167 460 -45 135 -110 313 -144 395 -34 83 -93 238 -131 345 -39 107 -84 229 -100 271 l-30 76 75 209 c41 115 88 247 105 294 17 47 33 91 35 98 3 7 116 -99 265 -248 l260 -261 0 -288 c0 -339 -4 -325 121 -390 149 -77 209 -76 361 2 69 36 87 50 108 87 l25 45 3 377 c3 371 3 378 -19 420 -34 66 -162 197 -872 889 -362 353 -685 674 -718 714 -49 60 -69 76 -115 94 -72 27 -143 26 -219 -4z"/>
</g>
</g>
  <g id="id1:id1" transform="matrix(1.25,0,0,1.25,0.0,0.0)"><g transform="translate(0.000000,1275.000000) scale(0.100000,-0.100000)" fill="#ffffff" stroke="none">
<path d="M6040 11900 c-832 -51 -1677 -300 -2364 -697 -696 -403 -1174 -810 -1640 -1398 -242 -305 -532 -773 -679 -1095 -308 -675 -469 -1349 -507 -2119 -27 -530 51 -1194 200 -1718 243 -851 644 -1569 1259 -2251 355 -395 888 -815 1374 -1084 650 -359 1327 -575 2087 -664 217 -26 264 -28 615 -28 352 0 397 2 610 28 482 57 872 149 1297 305 706 259 1246 589 1846 1129 486 438 990 1128 1265 1731 309 680 470 1351 507 2117 19 384 -19 873 -100 1301 -103 541 -344 1192 -600 1623 -428 721 -808 1167 -1400 1641 -319 255 -762 528 -1110 684 -398 179 -863 329 -1235 400 -341 65 -636 94 -985 99 -168 3 -366 1 -440 -4z m236 -1829 c99 -26 162 -63 247 -145 86 -84 120 -144 147 -257 25 -107 25 -166 -1 -276 -37 -158 -139 -286 -280 -351 -138 -64 -148 -67 -259 -67 -80 0 -117 5 -150 18 -107 44 -175 80 -217 115 -39 33 -109 125 -142 189 -18 35 -51 190 -51 239 0 65 36 199 73 269 37 71 146 181 220 220 114 63 279 81 413 46z m498 -1292 c46 -18 66 -34 115 -94 33 -40 356 -361 718 -714 710 -692 838 -823 872 -889 22 -42 22 -49 19 -420 l-3 -377 -25 -45 c-21 -37 -39 -51 -108 -87 -152 -78 -212 -79 -361 -2 -125 65 -121 51 -121 390 l0 288 -260 261 c-149 149 -262 255 -265 248 -2 -7 -18 -51 -35 -98 -17 -47 -64 -179 -105 -294 l-75 -209 30 -76 c16 -42 61 -164 100 -271 38 -107 97 -262 131 -345 34 -82 99 -260 144 -395 45 -135 121 -342 167 -460 47 -118 145 -399 218 -625 106 -330 152 -456 235 -645 114 -258 258 -635 276 -719 6 -29 9 -103 8 -165 -4 -110 -4 -112 -43 -171 -55 -83 -123 -147 -193 -181 -49 -24 -73 -29 -156 -32 -88 -4 -101 -2 -120 16 -12 12 -40 29 -63 39 -45 20 -107 81 -132 128 -8 16 -35 53 -59 80 -24 28 -48 68 -54 90 -6 22 -27 76 -46 120 -19 44 -151 391 -293 770 -142 380 -293 778 -335 885 -42 107 -152 398 -245 645 -166 446 -198 525 -210 525 -3 0 -89 -179 -190 -397 -101 -219 -255 -544 -343 -723 -87 -179 -250 -523 -362 -765 -199 -432 -531 -1109 -577 -1176 -13 -19 -56 -68 -96 -110 -62 -65 -79 -77 -123 -87 -130 -30 -248 -5 -380 81 -76 49 -82 56 -122 136 -41 82 -42 87 -42 182 l1 96 143 294 c131 268 445 904 1275 2584 l297 600 -16 35 c-8 19 -44 134 -80 255 -36 121 -68 226 -71 234 -3 10 -22 -5 -57 -45 -29 -32 -131 -144 -227 -249 -96 -105 -202 -222 -235 -261 -33 -38 -96 -110 -140 -160 -44 -49 -119 -135 -166 -190 -62 -71 -104 -110 -150 -136 -71 -42 -105 -46 -218 -26 -55 10 -74 19 -111 52 -97 87 -129 163 -130 305 0 62 2 66 54 135 29 39 136 163 237 276 101 113 457 521 791 905 l608 700 112 71 c358 227 460 263 592 213z"/>
</g>
</g>
</svg>
