<?xml version="1.0" standalone="no"?>
<!DOCTYPE svg PUBLIC "-//W3C//DTD SVG 1.1//EN"
 "http://www.w3.org/Graphics/SVG/1.1/DTD/svg11.dtd">
<!-- Created with svg_stack (http://github.com/astraw/svg_stack) -->
<svg xmlns:sodipodi="http://sodipodi.sourceforge.net/DTD/sodipodi-0.dtd" xmlns="http://www.w3.org/2000/svg" version="1.1" width="1595.0" height="1595.0">
  <defs/>
  <g id="id0:id0" transform="matrix(1.25,0,0,1.25,0.0,0.0)"><g transform="translate(0.000000,1276.000000) scale(0.100000,-0.100000)" fill="#000000" stroke="none">
<path d="M5985 12750 c-1050 -58 -2282 -474 -3150 -1065 -574 -391 -985 -772 -1469 -1360 -254 -309 -560 -806 -774 -1260 -271 -574 -486 -1335 -546 -1932 -54 -540 -54 -968 0 -1513 75 -754 385 -1705 768 -2360 215 -367 388 -625 553 -826 360 -438 718 -797 1065 -1066 705 -547 1370 -886 2218 -1133 299 -86 604 -145 1020 -196 263 -32 269 -33 710 -33 441 0 447 1 705 33 597 74 1004 169 1510 355 908 332 1809 938 2471 1663 693 758 1149 1576 1443 2586 138 475 220 974 241 1483 64 1480 -444 3045 -1363 4202 -529 666 -1189 1230 -1886 1611 -772 423 -1560 678 -2411 781 -230 28 -290 31 -605 35 -192 2 -417 0 -500 -5z m1050 -540 c1019 -136 1820 -431 2610 -960 778 -522 1357 -1149 1850 -2005 211 -365 416 -864 525 -1274 172 -650 247 -1266 220 -1825 -28 -596 -166 -1279 -365 -1808 -392 -1045 -994 -1870 -1881 -2581 -451 -361 -978 -654 -1589 -882 -464 -173 -890 -275 -1380 -331 -222 -25 -270 -27 -640 -28 -370 0 -419 2 -650 28 -917 100 -1882 452 -2615 951 -659 450 -1169 960 -1627 1630 -208 305 -471 820 -618 1213 -258 685 -390 1529 -355 2266 39 839 220 1589 543 2257 217 449 376 708 699 1138 249 332 644 729 983 986 418 319 816 563 1182 728 547 247 1095 401 1733 489 294 40 428 47 820 42 293 -3 348 -7 555 -34z"/>
<path d="M9760 9455 c-85 -48 -204 -117 -265 -155 -60 -37 -211 -124 -335 -193 -310 -171 -1748 -986 -2545 -1442 -362 -206 -662 -374 -666 -373 -4 2 -138 160 -297 352 -245 293 -302 368 -363 475 -136 237 -210 340 -295 417 -84 75 -225 171 -452 306 -146 87 -169 95 -687 248 -242 72 -813 192 -1013 214 -211 24 -288 21 -360 -10 -47 -20 -65 -35 -93 -77 -33 -49 -66 -158 -54 -178 3 -4 10 -34 16 -66 19 -100 72 -159 329 -366 124 -100 275 -225 335 -277 61 -53 173 -147 250 -209 429 -348 1434 -1196 1418 -1198 -10 -1 -722 -57 -1583 -124 -1765 -137 -1648 -122 -1716 -212 -20 -27 -47 -75 -61 -106 -22 -48 -24 -64 -18 -120 10 -96 47 -163 113 -207 104 -69 -65 -64 2222 -64 l2075 0 930 -771 c512 -424 1112 -920 1335 -1102 899 -736 1688 -1383 1730 -1420 70 -61 169 -107 231 -107 67 0 151 47 239 132 63 62 73 80 471 842 l407 779 7 81 c8 98 -9 148 -80 230 -57 65 -108 82 -222 71 -63 -6 -85 -13 -132 -43 -61 -39 -87 -67 -242 -252 -119 -143 -727 -834 -737 -838 -9 -3 -725 687 -1617 1559 -380 371 -838 815 -1018 987 l-327 314 183 125 c241 166 478 333 1097 772 283 201 900 637 1370 969 944 666 931 655 944 766 16 124 -27 227 -130 311 -45 37 -48 38 -143 42 l-96 4 -155 -86z"/>
</g>
</g>
  <g id="id1:id1" transform="matrix(1.25,0,0,1.25,0.0,0.0)"><g transform="translate(0.000000,1276.000000) scale(0.100000,-0.100000)" fill="#ffffff" stroke="none">
<path d="M6020 12240 c-318 -18 -837 -108 -1235 -215 -399 -106 -902 -312 -1254 -512 -221 -126 -537 -338 -786 -528 -339 -257 -734 -654 -983 -986 -323 -430 -482 -689 -699 -1138 -323 -668 -504 -1418 -543 -2257 -35 -737 97 -1581 355 -2266 147 -393 410 -908 618 -1213 458 -670 968 -1180 1627 -1630 733 -499 1698 -851 2615 -951 231 -26 280 -28 650 -28 370 1 418 3 640 28 132 15 346 48 475 72 707 135 1529 473 2135 877 612 409 1228 1026 1619 1622 518 788 822 1616 945 2568 96 742 40 1462 -179 2288 -109 410 -314 909 -525 1274 -493 856 -1072 1483 -1850 2005 -790 529 -1591 824 -2610 960 -207 27 -262 31 -555 34 -179 3 -386 1 -460 -4z m4134 -2745 c103 -84 146 -187 130 -311 -13 -111 0 -100 -944 -766 -470 -332 -1087 -768 -1370 -969 -619 -439 -856 -606 -1097 -772 l-183 -125 327 -314 c180 -172 638 -616 1018 -987 892 -872 1608 -1562 1617 -1559 10 4 618 695 737 838 155 185 181 213 242 252 47 30 69 37 132 43 114 11 165 -6 222 -71 71 -82 88 -132 80 -230 l-7 -81 -407 -779 c-398 -762 -408 -780 -471 -842 -88 -85 -172 -132 -239 -132 -62 0 -161 46 -231 107 -42 37 -831 684 -1730 1420 -223 182 -823 678 -1335 1102 l-930 771 -2075 0 c-2287 0 -2118 -5 -2222 64 -66 44 -103 111 -113 207 -6 56 -4 72 18 120 14 31 41 79 61 106 68 90 -49 75 1716 212 861 67 1573 123 1583 124 16 2 -989 850 -1418 1198 -77 62 -189 156 -250 209 -60 52 -211 177 -335 277 -257 207 -310 266 -329 366 -6 32 -13 62 -16 66 -12 20 21 129 54 178 28 42 46 57 93 77 72 31 149 34 360 10 200 -22 771 -142 1013 -214 518 -153 541 -161 687 -248 227 -135 368 -231 452 -306 85 -77 159 -180 295 -417 61 -107 118 -182 363 -475 159 -192 293 -350 297 -352 4 -1 304 167 666 373 797 456 2235 1271 2545 1442 124 69 275 156 335 193 61 38 180 107 265 155 l155 86 96 -4 c95 -4 98 -5 143 -42z"/>
</g>
</g>
</svg>
