<?xml version="1.0" encoding="UTF-8" standalone="no"?>
<svg
   xmlns:dc="http://purl.org/dc/elements/1.1/"
   xmlns:cc="http://creativecommons.org/ns#"
   xmlns:rdf="http://www.w3.org/1999/02/22-rdf-syntax-ns#"
   xmlns:svg="http://www.w3.org/2000/svg"
   xmlns="http://www.w3.org/2000/svg"
   xmlns:sodipodi="http://sodipodi.sourceforge.net/DTD/sodipodi-0.dtd"
   xmlns:inkscape="http://www.inkscape.org/namespaces/inkscape"
   viewBox="0 0 351.43822 351.58897"
   version="1.1"
   xml:space="preserve"
   id="svg108517"
   inkscape:version="0.48.3.1 r9886"
   width="100%"
   height="100%"
   sodipodi:docname="alkis3423.svg"
   style="fill-rule:evenodd;stroke-linecap:round;stroke-linejoin:round"><metadata
   id="metadata109504"><rdf:RDF><cc:Work
       rdf:about=""><dc:format>image/svg+xml</dc:format><dc:type
         rdf:resource="http://purl.org/dc/dcmitype/StillImage" /></cc:Work></rdf:RDF></metadata><sodipodi:namedview
   pagecolor="#ffffff"
   bordercolor="#666666"
   borderopacity="1"
   objecttolerance="10"
   gridtolerance="10"
   guidetolerance="10"
   inkscape:pageopacity="0"
   inkscape:pageshadow="2"
   inkscape:window-width="1855"
   inkscape:window-height="1025"
   id="namedview109502"
   showgrid="false"
   inkscape:zoom="0.78666665"
   inkscape:cx="178.10137"
   inkscape:cy="276.3148"
   inkscape:window-x="0"
   inkscape:window-y="33"
   inkscape:window-maximized="1"
   inkscape:current-layer="svg108517"
   showguides="true"
   inkscape:guide-bbox="true" />
<defs
   id="defs108519">
<clipPath
   id="clipId0">
<path
   d="M 0,600 800,600 800,0 0,0 z"
   id="path108522"
   inkscape:connector-curvature="0" />
</clipPath>

















































































</defs>
<g
   clip-path="url(#clipId0)"
   id="g108524"
   style="fill:none;stroke:#000000;stroke-width:0.1"
   transform="translate(-224.441,-124.09357)" />
<g
   clip-path="url(#clipId0)"
   id="g108526"
   style="fill:#ffffff;stroke:none"
   transform="translate(-224.441,-124.09357)">













































































<path
   d="m 400.15625,132.4375 c -51.81502,-0.12988 -102.90021,25.22161 -133.77571,66.89063 -34.52164,45.1624 -43.26312,108.37147 -22.1905,161.18111 20.33768,53.7769 70.37667,94.78155 127.09184,104.20729 56.23317,10.37192 116.83099,-10.93014 154.32655,-54.0816 38.19847,-42.54901 51.79298,-105.35562 34.50787,-159.87447 -16.30724,-54.80279 -62.78253,-99.14709 -118.26209,-112.95666 -13.59911,-3.58622 -27.65253,-5.12271 -41.69796,-5.3663 z"
   id="path108682"
   inkscape:connector-curvature="0" />
</g>
<path
   style="fill:#000000;stroke:none"
   d="M 175.3715,1.7911502e-4 C 120.74039,-0.08022088 66.9749,26.911409 34.6215,70.968929 -1.09792,118.37654 -10.10238,184.31082 11.934,239.46893 c 21.35865,56.46066 73.89307,99.49695 133.4375,109.40625 59.0577,10.86337 122.73709,-11.45323 162.09375,-56.8125 C 347.55942,247.38766 361.79543,181.45793 343.684,124.21893 326.58282,66.660709 277.77733,20.077709 219.4965,5.6251791 c -14.14051,-3.69944 -29.51696,-5.36468998 -44.125,-5.59374998 -4.1e-4,-0.0119 4.2e-4,-0.0193 0,-0.031200005 z M 175.684,16.718929 c 53.11838,-0.21484 105.30977,28.05413 133.6875,73.03125 31.46662,47.768721 33.71334,112.757991 5.625,162.593751 -26.62493,49.68072 -81.41649,82.33321 -137.75,82.4375 C 122.91986,335.70199 69.44435,306.44738 40.934,260.18768 11.78277,214.34097 8.77926,153.4357 33.3715,104.96893 58.2531,53.857719 112.32772,18.673319 169.184,16.968929 c 2.16884,-0.087 4.33116,-0.16303 6.5,-0.25 z"
   id="path108844"
   inkscape:connector-curvature="0" />
<g
   clip-path="url(#clipId0)"
   id="g108846"
   style="fill:none;stroke:#000000;stroke-width:0.25"
   transform="translate(-224.441,-124.09357)">
<polyline
   points="400.15,132.449 400.15,132.449 "
   id="polyline108848" />
</g>
<g
   clip-path="url(#clipId0)"
   id="g108850"
   style="fill:#000000;stroke:none"
   transform="translate(-224.441,-124.09357)">


































































































































































































































































































































<path
   d="m 399.96875,209.46875 c -20.87384,-0.64394 -38.03701,21.94927 -31.66341,41.90009 4.87444,18.64876 27.57866,29.8618 45.12373,21.32865 14.71445,-6.31675 23.68772,-24.14286 17.80614,-39.48571 -3.40367,-14.38011 -16.98555,-23.16381 -31.26646,-23.74303 z m 0,8.59375 c 16.71976,-0.80787 29.86015,18.62732 22.74519,33.85015 -5.74881,14.59497 -26.37527,20.01236 -38.16952,9.35561 -11.72337,-9.39787 -11.7294,-29.41093 0.81262,-38.16274 4.17469,-3.16238 9.362,-5.016 14.61171,-5.04302 z M 315,240.5625 c -16.35654,-0.72431 -29.06536,18.34391 -22.11474,33.19611 5.65184,14.29688 25.89675,19.61346 37.43806,9.12444 11.5054,-9.25047 11.46564,-28.91013 -0.89936,-37.46201 C 325.3077,242.30967 320.17619,240.49917 315,240.5625 z m 170.3125,0 c -16.59808,-0.75566 -29.34958,18.86856 -21.88491,33.75519 6.01823,14.14942 26.36961,18.92828 37.65529,8.18116 8.75307,-7.63664 10.84234,-21.7346 4.19347,-31.27556 8.66656,-7.72941 9.39736,12.4851 8.51164,18.02435 -0.43039,12.47969 -6.27804,25.05154 -2.44006,37.37141 5.73884,9.40067 23.6352,6.05389 17.49204,-5.65095 -4.78473,-9.12157 -4.02379,-19.92456 -5.33144,-29.93555 -1.37059,-8.29814 0.22012,-18.043 -4.88587,-25.07562 -8.45841,-8.14792 -19.86228,2.66892 -29.08828,-5.01657 -1.39231,-0.25109 -2.80701,-0.37924 -4.22188,-0.37786 z m -122.96875,36.84375 c -16.16307,8.21487 -32.16068,17.08855 -48.42407,24.89805 -3.94197,0.14857 -7.88395,0.29713 -11.82593,0.4457 -3.38336,9.29955 -4.91122,19.17435 -8.04516,28.5868 -4.97453,17.41898 -9.94906,34.83797 -14.92359,52.25695 6.375,0 12.75,0 19.125,0 5.44854,-12.75128 10.85777,-25.5193 16.28125,-38.28125 5.57292,12.76042 11.14583,25.52083 16.71875,38.28125 6.21875,0 12.4375,0 18.65625,0 -6.21875,-22.32292 -12.4375,-44.64583 -18.65625,-66.96875 12.75122,-9.26269 25.52737,-18.49099 38.28125,-27.75 -2.39583,-3.82292 -4.79167,-7.64583 -7.1875,-11.46875 z m 75.59375,0 c -2.38542,3.82292 -4.77083,7.64583 -7.15625,11.46875 12.72269,9.28761 25.51236,18.48297 38.25,27.75 -6.33986,9.02384 -21.32109,22.03301 -22.57025,28.6875 4.33592,0 8.67183,0 13.00775,0 -3.03125,12.76042 -6.0625,25.52083 -9.09375,38.28125 6.21875,0 12.4375,0 18.65625,0 5.58333,-12.76042 11.16667,-25.52083 16.75,-38.28125 5.41687,12.76033 10.84631,25.51533 16.25,38.28125 6.38542,0 12.77083,0 19.15625,0 -3.03125,-12.76042 -6.0625,-25.52083 -9.09375,-38.28125 4.9375,0 9.875,0 14.8125,0 -7.03996,-10.3759 -19.84715,-17.94241 -21.66809,-30.97006 -0.5725,-7.67263 -1.95156,-14.34941 -11.16434,-11.70436 -11.69595,0.85047 -20.73975,-7.91588 -31.00482,-12.1727 -8.37685,-4.35365 -16.7549,-8.705 -25.1315,-13.05913 z"
   id="path109496"
   inkscape:connector-curvature="0" />
</g>
<g
   clip-path="url(#clipId0)"
   id="g109498"
   style="fill:none;stroke:#000000;stroke-width:0.25"
   transform="translate(-224.441,-124.09357)">
<polyline
   points="400.15,213.773 400.15,213.773 "
   id="polyline109500" />
</g>
</svg>