<?xml version="1.0" standalone="no"?>
<!DOCTYPE svg PUBLIC "-//W3C//DTD SVG 1.1//EN"
 "http://www.w3.org/Graphics/SVG/1.1/DTD/svg11.dtd">
<!-- Created with svg_stack (http://github.com/astraw/svg_stack) -->
<svg xmlns:sodipodi="http://sodipodi.sourceforge.net/DTD/sodipodi-0.dtd" xmlns="http://www.w3.org/2000/svg" version="1.1" width="1986.25" height="1417.5">
  <defs/>
  <g id="id0:id0" transform="matrix(1.25,0,0,1.25,0.0,0.0)"><g transform="translate(0.000000,1134.000000) scale(0.100000,-0.100000)" fill="#999999" stroke="none">
<path d="M7775 11311 c-389 -82 -709 -331 -899 -701 -116 -227 -161 -476 -132 -725 30 -252 109 -452 259 -655 88 -119 171 -200 284 -277 192 -131 322 -188 538 -234 77 -17 378 -17 465 0 197 37 408 130 568 251 86 65 250 238 317 335 19 28 59 106 89 175 69 161 116 377 116 539 0 203 -57 432 -157 636 -72 144 -322 409 -470 497 -289 172 -643 229 -978 159z"/>
<path d="M12590 9050 c-269 -51 -428 -121 -644 -284 -186 -141 -338 -326 -446 -548 -98 -199 -150 -427 -150 -653 0 -146 36 -366 81 -500 106 -309 360 -622 647 -795 130 -78 251 -128 428 -176 l139 -37 215 0 215 -1 150 41 c83 23 188 58 234 77 362 156 678 485 815 851 14 36 40 118 58 182 33 118 33 118 33 353 0 232 -1 236 -32 355 -51 192 -94 292 -209 483 -49 83 -197 245 -297 326 -237 191 -416 274 -701 326 -145 26 -398 26 -536 0z"/>
<path d="M4555 7661 c-94 -8 -341 -66 -435 -103 -355 -138 -645 -330 -854 -564 -205 -230 -342 -466 -432 -745 -62 -192 -88 -321 -105 -523 -19 -232 15 -498 100 -766 137 -440 425 -826 801 -1076 202 -135 444 -248 625 -293 388 -95 724 -94 1115 4 232 59 556 230 750 395 340 291 544 590 660 963 76 246 90 334 97 587 7 290 -12 432 -96 694 -89 281 -237 541 -416 735 -186 200 -425 381 -649 491 -180 87 -234 106 -430 156 l-179 45 -231 4 c-127 2 -271 0 -321 -4z"/>
<path d="M14325 4519 c-111 -23 -150 -36 -267 -85 -69 -29 -146 -65 -170 -80 -138 -86 -344 -281 -426 -401 -133 -196 -222 -495 -222 -744 0 -118 43 -361 82 -459 67 -170 134 -278 265 -425 186 -208 445 -355 728 -413 100 -20 392 -22 480 -3 363 78 656 265 842 537 144 212 211 387 239 629 29 246 -22 528 -133 735 -107 198 -209 317 -413 481 -107 86 -339 188 -510 224 -79 17 -424 20 -495 4z"/>
<path d="M1195 3014 c-201 -27 -334 -67 -473 -140 -150 -79 -216 -126 -312 -223 -232 -235 -320 -396 -380 -695 -41 -201 -41 -311 0 -512 46 -226 107 -368 225 -524 180 -237 417 -405 685 -484 107 -32 306 -66 386 -66 126 0 413 65 549 125 94 41 230 133 334 227 179 160 311 366 375 588 84 287 81 516 -10 820 -64 212 -252 471 -458 629 -131 102 -357 199 -556 241 -56 11 -311 22 -365 14z"/>
<path d="M8985 2611 c-389 -82 -709 -331 -899 -701 -116 -227 -161 -476 -132 -725 30 -252 109 -452 259 -655 88 -119 171 -200 284 -277 192 -131 322 -188 538 -234 77 -17 378 -17 465 0 197 37 408 130 568 251 86 65 250 238 317 335 53 77 138 286 171 420 27 110 29 135 29 300 0 163 -3 191 -28 295 -27 109 -69 222 -124 335 -72 144 -322 409 -470 497 -289 172 -643 229 -978 159z"/>
</g>
</g>
  <g id="id1:id1" transform="matrix(1.25,0,0,1.25,0.0,0.0)"><g transform="translate(0.000000,1134.000000) scale(0.100000,-0.100000)" fill="#ffffff" stroke="none">
</g>
</g>
</svg>
