<?xml version="1.0" standalone="no"?>
<!DOCTYPE svg PUBLIC "-//W3C//DTD SVG 1.1//EN"
 "http://www.w3.org/Graphics/SVG/1.1/DTD/svg11.dtd">
<!-- Created with svg_stack (http://github.com/astraw/svg_stack) -->
<svg xmlns:sodipodi="http://sodipodi.sourceforge.net/DTD/sodipodi-0.dtd" xmlns="http://www.w3.org/2000/svg" version="1.1" width="1595.0" height="1595.0">
  <defs/>
  <g id="id0:id0" transform="matrix(1.25,0,0,1.25,0.0,0.0)"><g transform="translate(0.000000,1276.000000) scale(0.100000,-0.100000)" fill="#000000" stroke="none">
<path d="M5985 12750 c-1050 -58 -2282 -474 -3150 -1065 -574 -391 -985 -772 -1469 -1360 -254 -309 -560 -806 -774 -1260 -271 -574 -486 -1335 -546 -1932 -54 -540 -54 -968 0 -1513 75 -754 385 -1705 768 -2360 215 -367 388 -625 553 -826 360 -438 718 -797 1065 -1066 705 -547 1370 -886 2218 -1133 299 -86 604 -145 1020 -196 263 -32 269 -33 710 -33 441 0 447 1 705 33 597 74 1004 169 1510 355 908 332 1809 938 2471 1663 693 758 1149 1576 1443 2586 138 475 220 974 241 1483 64 1480 -444 3045 -1363 4202 -529 666 -1189 1230 -1886 1611 -772 423 -1560 678 -2411 781 -230 28 -290 31 -605 35 -192 2 -417 0 -500 -5z m1050 -540 c1019 -136 1820 -431 2610 -960 778 -522 1357 -1149 1850 -2005 211 -365 416 -864 525 -1274 172 -650 247 -1266 220 -1825 -28 -596 -166 -1279 -365 -1808 -392 -1045 -994 -1870 -1881 -2581 -451 -361 -978 -654 -1589 -882 -464 -173 -890 -275 -1380 -331 -222 -25 -270 -27 -640 -28 -370 0 -419 2 -650 28 -917 100 -1882 452 -2615 951 -659 450 -1169 960 -1627 1630 -208 305 -471 820 -618 1213 -258 685 -390 1529 -355 2266 39 839 220 1589 543 2257 217 449 376 708 699 1138 249 332 644 729 983 986 418 319 816 563 1182 728 547 247 1095 401 1733 489 294 40 428 47 820 42 293 -3 348 -7 555 -34z"/>
<path d="M1780 8930 l0 -180 1955 0 1955 0 0 -425 c0 -422 0 -425 -21 -425 -41 0 -296 -70 -384 -105 -110 -45 -147 -65 -304 -173 -151 -104 -251 -203 -353 -349 -137 -197 -186 -300 -246 -528 l-37 -140 0 -230 c1 -226 1 -232 32 -350 72 -271 172 -463 352 -674 107 -125 352 -300 517 -370 124 -53 268 -98 354 -112 110 -18 439 -18 540 0 150 27 377 117 547 217 149 88 375 309 461 451 84 141 197 403 216 506 l7 37 342 0 c341 -1 342 -1 524 32 l183 32 87 98 c126 142 191 240 238 353 l42 100 763 0 763 0 12 -40 c34 -116 137 -248 251 -326 40 -26 114 -65 165 -86 93 -38 95 -38 234 -38 135 1 143 2 220 34 184 75 314 190 393 346 94 189 94 426 -1 610 -126 243 -346 376 -620 375 -155 -1 -266 -35 -390 -119 -118 -80 -228 -228 -258 -344 l-11 -47 -1537 0 -1536 1 -62 107 c-151 262 -394 479 -675 604 -104 46 -380 128 -432 128 l-26 0 0 425 0 425 1955 0 1955 0 0 180 0 180 -4085 0 -4085 0 0 -180z m4090 -2145 l0 -765 -560 0 c-308 0 -560 2 -560 3 0 2 -14 71 -30 153 l-31 149 16 160 c15 148 19 170 66 294 61 164 54 151 161 297 80 108 100 128 215 216 100 75 157 110 263 159 124 57 145 64 260 79 69 10 142 18 163 19 l37 1 0 -765z m5248 400 c57 -26 107 -75 150 -145 25 -41 27 -53 27 -150 0 -97 -2 -109 -27 -150 -73 -120 -182 -186 -303 -184 -138 3 -277 109 -310 239 -36 138 3 263 107 347 56 46 81 58 137 68 68 12 159 2 219 -25z"/>
<path d="M3664 4433 c-44 -49 -97 -106 -117 -129 l-36 -40 165 -150 c158 -143 173 -153 352 -253 l187 -104 230 -58 230 -58 1928 -1 1927 0 0 180 0 180 -1907 0 -1908 0 -185 49 c-171 45 -196 54 -332 127 -132 71 -163 94 -293 209 -80 72 -148 131 -153 133 -4 1 -43 -37 -88 -85z"/>
</g>
</g>
  <g id="id1:id1" transform="matrix(1.25,0,0,1.25,0.0,0.0)"><g transform="translate(0.000000,1276.000000) scale(0.100000,-0.100000)" fill="#ffffff" stroke="none">
<path d="M6020 12240 c-318 -18 -837 -108 -1235 -215 -399 -106 -902 -312 -1254 -512 -221 -126 -537 -338 -786 -528 -339 -257 -734 -654 -983 -986 -323 -430 -482 -689 -699 -1138 -323 -668 -504 -1418 -543 -2257 -35 -737 97 -1581 355 -2266 147 -393 410 -908 618 -1213 458 -670 968 -1180 1627 -1630 733 -499 1698 -851 2615 -951 231 -26 280 -28 650 -28 370 1 418 3 640 28 132 15 346 48 475 72 707 135 1529 473 2135 877 612 409 1228 1026 1619 1622 518 788 822 1616 945 2568 96 742 40 1462 -179 2288 -109 410 -314 909 -525 1274 -493 856 -1072 1483 -1850 2005 -790 529 -1591 824 -2610 960 -207 27 -262 31 -555 34 -179 3 -386 1 -460 -4z m3930 -3310 l0 -180 -1955 0 -1955 0 0 -425 0 -425 26 0 c52 0 328 -82 432 -128 281 -125 524 -342 675 -604 l62 -107 1536 -1 1537 0 11 47 c30 116 140 264 258 344 124 84 235 118 390 119 274 1 494 -132 620 -375 69 -133 88 -281 57 -444 -43 -228 -204 -411 -449 -512 -77 -32 -85 -33 -220 -34 -139 0 -141 0 -234 38 -207 84 -365 240 -416 412 l-12 40 -763 0 -763 0 -42 -100 c-47 -113 -112 -211 -238 -353 l-87 -98 -183 -32 c-182 -33 -183 -33 -524 -32 l-342 0 -7 -37 c-19 -103 -132 -365 -216 -506 -86 -142 -312 -363 -461 -451 -170 -100 -397 -190 -547 -217 -101 -18 -430 -18 -540 0 -86 14 -230 59 -354 112 -165 70 -410 245 -517 370 -180 211 -280 403 -352 674 -31 118 -31 124 -32 350 l0 230 37 140 c60 228 109 331 246 528 102 146 202 245 353 349 157 108 194 128 304 173 88 35 343 105 384 105 21 0 21 3 21 425 l0 425 -1955 0 -1955 0 0 180 0 180 4085 0 4085 0 0 -180z m-6045 -4545 c130 -115 161 -138 293 -209 136 -73 161 -82 332 -127 l185 -49 1908 0 1907 0 0 -180 0 -180 -1927 0 -1928 1 -230 58 -230 58 -187 104 c-179 100 -194 110 -352 253 l-165 150 36 40 c121 135 199 216 205 214 5 -2 73 -61 153 -133z"/>
<path d="M5670 7530 c-115 -15 -136 -22 -260 -79 -106 -49 -163 -84 -263 -159 -115 -88 -135 -108 -215 -216 -107 -146 -100 -133 -161 -297 -47 -124 -51 -146 -66 -294 l-16 -160 31 -149 c16 -82 30 -151 30 -153 0 -1 252 -3 560 -3 l560 0 0 765 0 765 -37 -1 c-21 -1 -94 -9 -163 -19z"/>
<path d="M10899 7210 c-56 -10 -81 -22 -137 -68 -194 -156 -150 -453 83 -558 85 -38 158 -38 250 0 75 31 123 74 173 156 25 41 27 53 27 150 0 97 -2 109 -27 150 -83 137 -214 197 -369 170z"/>
</g>
</g>
</svg>
