<?xml version="1.0" standalone="no"?>
<!DOCTYPE svg PUBLIC "-//W3C//DTD SVG 1.1//EN"
 "http://www.w3.org/Graphics/SVG/1.1/DTD/svg11.dtd">
<!-- Created with svg_stack (http://github.com/astraw/svg_stack) -->
<svg xmlns:sodipodi="http://sodipodi.sourceforge.net/DTD/sodipodi-0.dtd" xmlns="http://www.w3.org/2000/svg" version="1.1" width="1596.25" height="1596.25">
  <defs/>
  <g id="id0:id0" transform="matrix(1.25,0,0,1.25,0.0,0.0)"><g transform="translate(0.000000,1277.000000) scale(0.100000,-0.100000)" fill="#000000" stroke="none">
<path d="M5995 12760 c-558 -31 -1307 -190 -1820 -388 -680 -263 -1188 -547 -1735 -971 -523 -406 -1024 -950 -1362 -1476 -399 -623 -642 -1152 -828 -1805 -327 -1150 -327 -2341 1 -3467 198 -682 451 -1231 835 -1813 465 -706 1016 -1260 1759 -1764 785 -534 1826 -915 2835 -1037 262 -32 270 -33 710 -33 440 0 448 1 710 33 1009 122 2050 503 2835 1037 451 306 791 598 1135 974 362 396 627 760 885 1215 399 704 693 1609 769 2365 54 545 54 973 0 1513 -60 597 -275 1358 -546 1932 -214 454 -520 951 -774 1260 -484 588 -895 969 -1469 1360 -363 247 -823 481 -1330 677 -416 160 -958 291 -1470 354 -260 32 -305 34 -635 38 -195 2 -422 1 -505 -4z m1065 -640 c1370 -158 2656 -813 3568 -1819 324 -357 551 -669 795 -1092 286 -496 528 -1151 627 -1693 127 -697 147 -1222 69 -1809 -71 -542 -136 -812 -318 -1328 -280 -795 -858 -1657 -1500 -2237 -331 -300 -771 -621 -1091 -797 -691 -381 -1414 -613 -2185 -701 -222 -26 -269 -28 -635 -27 -364 0 -414 2 -635 27 -1087 124 -2097 538 -2930 1204 -324 258 -511 431 -684 627 -677 772 -1019 1386 -1306 2346 -162 538 -243 1216 -215 1788 25 519 89 918 217 1351 230 781 545 1399 1011 1985 336 422 580 669 962 975 431 346 981 654 1570 881 474 183 1120 319 1660 350 74 4 277 5 450 3 265 -3 355 -9 570 -34z"/>
<path d="M8375 10956 c-258 -102 -332 -173 -402 -385 -21 -67 -25 -100 -30 -271 -5 -194 -5 -196 26 -321 25 -103 111 -383 160 -523 6 -16 9 -31 7 -34 -2 -2 -21 8 -43 22 -21 14 -108 55 -193 92 -145 63 -161 68 -243 72 l-87 4 19 -44 c62 -142 138 -290 174 -338 86 -115 152 -182 219 -221 68 -40 273 -124 318 -131 41 -5 43 -48 10 -163 -16 -55 -40 -145 -54 -200 -36 -147 -201 -557 -251 -625 -90 -122 -135 -142 -365 -159 -80 -7 -167 -14 -195 -16 -93 -8 -1375 -34 -2250 -45 -826 -10 -881 -12 -1090 -36 -212 -25 -225 -27 -375 -81 -87 -31 -205 -83 -270 -118 -63 -34 -131 -70 -150 -78 -19 -8 -66 -41 -104 -73 -93 -80 -131 -155 -139 -274 -19 -292 -50 -609 -68 -698 -11 -56 -38 -144 -60 -194 -21 -50 -39 -93 -39 -95 0 -10 65 0 102 16 104 45 312 302 357 442 l21 64 -4 -100 c-13 -335 -29 -506 -63 -685 -20 -102 -41 -201 -49 -220 -7 -19 -21 -62 -30 -95 -16 -58 -23 -66 -226 -267 -125 -124 -253 -240 -319 -290 l-111 -83 6 -310 c7 -368 20 -766 35 -1035 6 -107 15 -321 21 -475 6 -153 12 -280 13 -281 1 -1 41 -5 90 -9 l87 -7 0 33 c0 19 -5 140 -11 269 -10 240 0 629 22 884 10 109 64 424 90 521 16 56 113 247 170 332 41 60 68 86 170 160 172 125 411 317 428 345 8 13 37 52 66 88 92 116 149 232 202 410 2 8 26 -26 53 -76 40 -74 54 -115 76 -215 34 -163 45 -406 20 -488 -22 -74 -20 -177 5 -274 33 -129 134 -459 151 -492 9 -17 56 -127 106 -245 94 -224 171 -390 389 -845 110 -228 232 -476 237 -481 0 -1 63 -5 139 -9 l138 -7 -85 169 c-46 94 -108 226 -136 293 -28 68 -76 171 -105 230 -78 156 -193 446 -275 695 -40 121 -90 265 -111 320 -35 93 -39 114 -55 301 -20 227 -12 320 30 372 44 53 193 268 241 347 27 44 60 96 75 115 15 19 46 70 71 112 30 53 50 78 63 78 10 0 64 -11 120 -24 172 -42 229 -46 628 -46 l383 0 204 35 c112 19 211 35 219 35 12 0 13 -24 8 -162 -7 -162 -18 -328 -36 -528 -5 -58 -16 -213 -25 -345 -34 -535 -78 -1101 -120 -1525 -14 -140 -25 -258 -25 -262 0 -5 52 -8 115 -8 63 0 115 2 115 5 0 101 49 699 70 855 82 610 121 820 196 1075 63 210 75 239 139 326 24 33 47 69 50 80 4 11 11 19 16 17 4 -2 44 -45 88 -97 97 -113 166 -233 433 -750 168 -326 206 -409 254 -550 32 -91 84 -222 117 -291 46 -97 70 -166 107 -310 26 -102 51 -203 54 -225 7 -38 12 -43 90 -88 97 -55 152 -64 142 -23 -3 13 -17 84 -31 157 -23 125 -125 461 -188 619 -14 36 -42 124 -62 195 -92 329 -204 675 -415 1280 -70 201 -184 512 -196 536 -13 25 -11 28 77 100 105 87 279 283 439 496 114 151 158 220 293 463 39 69 104 178 144 244 71 113 103 175 178 346 85 195 187 416 196 425 5 5 9 16 9 25 0 8 16 53 36 100 60 141 93 228 145 378 27 78 58 166 69 196 l21 54 378 7 378 7 47 96 c56 113 71 90 -129 199 -77 42 -171 97 -210 123 -38 25 -97 61 -130 80 -33 18 -166 97 -295 174 l-235 141 60 6 c90 10 143 31 227 87 94 63 137 116 154 190 8 32 14 59 14 62 0 3 -25 19 -55 35 l-55 30 -41 -48 c-117 -136 -272 -207 -454 -207 -129 0 -176 13 -265 76 -109 76 -180 180 -269 395 -31 74 -31 79 -21 145 19 121 109 221 250 278 87 36 334 70 445 62 44 -3 101 -13 127 -23 56 -20 63 -15 71 43 l5 41 -52 21 c-28 12 -71 26 -96 32 -62 15 -262 8 -390 -14 -153 -26 -237 -66 -355 -170 -41 -35 -45 -37 -52 -20 -5 11 -8 57 -8 104 0 100 16 140 93 246 55 75 133 137 209 166 81 31 285 87 346 94 l57 6 0 49 0 49 -157 -1 -158 0 -110 -43z"/>
</g>
</g>
  <g id="id1:id1" transform="matrix(1.25,0,0,1.25,0.0,0.0)"><g transform="translate(0.000000,1277.000000) scale(0.100000,-0.100000)" fill="#ffffff" stroke="none">
<path d="M6040 12151 c-540 -31 -1186 -167 -1660 -350 -589 -227 -1139 -535 -1570 -881 -382 -306 -626 -553 -962 -975 -466 -586 -781 -1204 -1011 -1985 -128 -433 -192 -832 -217 -1351 -20 -407 21 -931 105 -1351 79 -389 263 -954 424 -1298 261 -557 527 -954 992 -1485 337 -383 943 -862 1434 -1133 697 -384 1403 -610 2180 -698 221 -25 271 -27 635 -27 366 -1 413 1 635 27 771 88 1494 320 2185 701 320 176 760 497 1091 797 304 274 651 679 877 1023 372 564 566 983 767 1656 105 350 194 905 215 1340 27 544 -61 1273 -216 1799 -189 637 -393 1077 -760 1635 -312 476 -778 982 -1224 1331 -714 557 -1545 942 -2425 1120 -346 71 -660 103 -1045 108 -173 2 -376 1 -450 -3z m2760 -1200 l0 -49 -57 -6 c-61 -7 -265 -63 -346 -94 -76 -29 -154 -91 -209 -166 -77 -106 -93 -146 -93 -246 0 -47 3 -93 8 -104 7 -17 11 -15 52 20 118 104 202 144 355 170 128 22 328 29 390 14 25 -6 68 -20 96 -32 l52 -21 -5 -41 c-8 -58 -15 -63 -71 -43 -26 10 -83 20 -127 23 -111 8 -358 -26 -445 -62 -141 -57 -231 -157 -250 -278 -10 -66 -10 -71 21 -145 89 -215 160 -319 269 -395 89 -63 136 -76 265 -76 182 0 337 71 454 207 l41 48 55 -30 c30 -16 55 -32 55 -35 0 -3 -6 -30 -14 -62 -17 -74 -60 -127 -154 -190 -84 -56 -137 -77 -227 -87 l-60 -6 235 -141 c129 -77 262 -156 295 -174 33 -19 92 -55 130 -80 39 -26 133 -81 210 -123 200 -109 185 -86 129 -199 l-47 -96 -378 -7 -378 -7 -21 -54 c-11 -30 -42 -118 -69 -196 -52 -150 -85 -237 -145 -378 -20 -47 -36 -92 -36 -100 0 -9 -4 -20 -9 -25 -9 -9 -111 -230 -196 -425 -75 -171 -107 -233 -178 -346 -40 -66 -105 -175 -144 -244 -135 -243 -179 -312 -293 -463 -160 -213 -334 -409 -439 -496 -88 -72 -90 -75 -77 -100 12 -24 126 -335 196 -536 211 -605 323 -951 415 -1280 20 -71 48 -159 62 -195 63 -158 165 -494 188 -619 14 -73 28 -144 31 -157 10 -41 -45 -32 -142 23 -78 45 -83 50 -90 88 -3 22 -28 123 -54 225 -37 144 -61 213 -107 310 -33 69 -85 200 -117 291 -48 141 -86 224 -254 550 -267 517 -336 637 -433 750 -44 52 -84 95 -88 97 -5 2 -12 -6 -16 -17 -3 -11 -26 -47 -50 -80 -64 -87 -76 -116 -139 -326 -75 -255 -114 -465 -196 -1075 -21 -156 -70 -754 -70 -855 0 -3 -52 -5 -115 -5 -63 0 -115 3 -115 8 0 4 11 122 25 262 42 424 86 990 120 1525 9 132 20 287 25 345 18 200 29 366 36 528 5 138 4 162 -8 162 -8 0 -107 -16 -219 -35 l-204 -35 -383 0 c-399 0 -456 4 -628 46 -56 13 -110 24 -120 24 -13 0 -33 -25 -63 -78 -25 -42 -56 -93 -71 -112 -15 -19 -48 -71 -75 -115 -48 -79 -197 -294 -241 -347 -42 -52 -50 -145 -30 -372 16 -187 20 -208 55 -301 21 -55 71 -199 111 -320 82 -249 197 -539 275 -695 29 -59 77 -162 105 -230 28 -67 90 -199 136 -293 l85 -169 -138 7 c-76 4 -139 8 -139 9 -5 5 -127 253 -237 481 -218 455 -295 621 -389 845 -50 118 -97 228 -106 245 -17 33 -118 363 -151 492 -25 97 -27 200 -5 274 25 82 14 325 -20 488 -22 100 -36 141 -76 215 -27 50 -51 84 -53 76 -53 -178 -110 -294 -202 -410 -29 -36 -58 -75 -66 -88 -17 -28 -256 -220 -428 -345 -102 -74 -129 -100 -170 -160 -57 -85 -154 -276 -170 -332 -26 -97 -80 -412 -90 -521 -22 -255 -32 -644 -22 -884 6 -129 11 -250 11 -269 l0 -33 -87 7 c-49 4 -89 8 -90 9 -1 1 -7 128 -13 281 -6 154 -15 368 -21 475 -15 269 -28 667 -35 1035 l-6 310 111 83 c66 50 194 166 319 290 203 201 210 209 226 267 9 33 23 76 30 95 8 19 29 118 49 220 34 179 50 350 63 685 l4 100 -21 -64 c-45 -140 -253 -397 -357 -442 -37 -16 -102 -26 -102 -16 0 2 18 45 39 95 22 50 49 138 60 194 18 89 49 406 68 698 8 119 46 194 139 274 38 32 85 65 104 73 19 8 87 44 150 78 65 35 183 87 270 118 150 54 163 56 375 81 209 24 264 26 1090 36 875 11 2157 37 2250 45 28 2 115 9 195 16 230 17 275 37 365 159 50 68 215 478 251 625 14 55 38 145 54 200 33 115 31 158 -10 163 -45 7 -250 91 -318 131 -67 39 -133 106 -219 221 -36 48 -112 196 -174 338 l-19 44 87 -4 c82 -4 98 -9 243 -72 85 -37 172 -78 193 -92 22 -14 41 -24 43 -22 2 3 -1 18 -7 34 -49 140 -135 420 -160 523 -31 125 -31 127 -26 321 5 171 9 204 30 271 70 212 144 283 402 385 l110 43 158 0 157 1 0 -49z"/>
</g>
</g>
</svg>
