<?xml version="1.0" encoding="UTF-8" standalone="no"?>
<!-- Created with Inkscape (http://www.inkscape.org/) -->

<svg
   xmlns:dc="http://purl.org/dc/elements/1.1/"
   xmlns:cc="http://creativecommons.org/ns#"
   xmlns:rdf="http://www.w3.org/1999/02/22-rdf-syntax-ns#"
   xmlns:svg="http://www.w3.org/2000/svg"
   xmlns="http://www.w3.org/2000/svg"
   xmlns:inkscape="http://www.inkscape.org/namespaces/inkscape"
   version="1.1"
   width="100%"
   height="100%"
   viewBox="0 0 351.14495 351.30028"
   id="svg21348"
   xml:space="preserve"
   style="fill-rule:evenodd;stroke-linecap:round;stroke-linejoin:round"><metadata
     id="metadata21687"><rdf:RDF><cc:Work
         rdf:about=""><dc:format>image/svg+xml</dc:format><dc:type
           rdf:resource="http://purl.org/dc/dcmitype/StillImage" /></cc:Work></rdf:RDF></metadata><defs
     id="defs21350"><clipPath
       id="clipId0"><path
         d="M 0,600 800,600 800,0 0,0 z"
         inkscape:connector-curvature="0"
         id="path21353" /></clipPath></defs><g
     transform="translate(-223.86218,-123.78125)"
     clip-path="url(#clipId0)"
     id="g21355"
     style="fill:none;stroke:#000000;stroke-width:0.1" /><g
     transform="translate(-223.86218,-123.78125)"
     clip-path="url(#clipId0)"
     id="g21357"
     style="fill:#ffffff;stroke:none"><path
       d="m 399.40625,133.8125 c -51.25548,-0.088 -101.8228,24.93933 -132.35456,66.18739 -34.39479,44.92358 -42.85803,107.92043 -21.64504,160.36187 20.3587,52.78747 69.6266,92.97669 125.45548,102.23955 55.3234,10.17886 114.95848,-10.54769 152.06392,-52.82579 38.25751,-42.09959 51.99213,-104.64543 34.77121,-158.88422 -16.11995,-54.22348 -62.10797,-98.09805 -116.99528,-111.75006 -13.47261,-3.53257 -27.38402,-5.08913 -41.29573,-5.32874 z"
       inkscape:connector-curvature="0"
       id="path21513" /></g><g
     transform="translate(-223.86218,-123.78125)"
     clip-path="url(#clipId0)"
     id="g21515"
     style="fill:#000000;stroke:none"><path
       d="m 399.03125,123.78125 c -49.36504,0.25835 -98.6673,22.09169 -131.22493,59.5634 -39.82369,44.38618 -54.16331,109.76058 -36.47098,166.72348 16.7659,57.58111 65.25082,104.40278 123.38156,119.16891 58.17421,15.9014 123.82132,-1.30079 166.78405,-43.61827 43.44221,-41.3406 62.78446,-105.88234 49.24483,-164.30791 -12.50922,-58.29576 -56.9432,-108.36092 -113.44086,-127.50524 -18.66764,-6.68615 -38.48598,-9.68061 -58.27367,-10.02437 z m 0.375,19.96875 c 52.40487,-0.20354 103.84248,27.90863 131.51747,72.48223 30.56527,47.28023 32.21979,111.35922 3.84117,160.02776 -27.8212,50.5202 -85.75054,82.27315 -143.30174,78.65404 -56.94701,-2.25077 -110.744,-38.89017 -133.72384,-91.04064 C 233.415,311.9713 241.45903,246.8906 277.74329,202.50645 306.58334,165.65538 352.69469,143.74471 399.40625,143.75 z"
       inkscape:connector-curvature="0"
       id="path21675" /></g><g
     transform="translate(-223.86218,-123.78125)"
     clip-path="url(#clipId0)"
     id="g21677"
     style="fill:none;stroke:#000000;stroke-width:0.25"><polyline
       points="399.414,133.822 399.414,133.822 "
       id="polyline21679" /></g><g
     transform="translate(-223.86218,-123.78125)"
     clip-path="url(#clipId0)"
     id="g21681"
     style="fill:#000000;stroke:none"><g
       transform="matrix(138.064,0,0,138.064,259.93,368.588)"
       id="text21683"
       style="font-size:1.39636004px;font-family:'Arial,\'sans-serif\''"><path
         d="m 0.76431621,0 0,-0.44522613 -0.51954411,0 0,0.44522613 -0.13022694,0 0,-0.96067934 0.13022694,0 0,0.40636259 0.51954411,0 0,-0.40636259 0.13022694,0 0,0.96067934 -0.13022694,0"
         inkscape:connector-curvature="0"
         id="path2993"
         style="font-size:1.39636004px;font-family:'Arial,\'sans-serif\''" /><path
         d="m 1.8668133,-0.67158918 c 0.00226,0.10207302 -0.049401,0.20732777 -0.1425738,0.25440308 -0.083069,0.047995 -0.18065,0.0431256 -0.2731276,0.042869 -0.06575,0 -0.1315006,0 -0.1972509,0 0,0.12477241 0,0.24954481 0,0.37431722 -0.043409,0 -0.086818,0 -0.130227,0 0,-0.32022645 0,-0.64045289 0,-0.96067934 0.146848,6.0487e-4 0.2937427,-0.001254 0.4405595,0.001012 0.1065944,0.004216 0.2240235,0.0489297 0.2728145,0.15050089 0.021005,0.0425639 0.029919,0.0903219 0.029806,0.1375774 z m -0.1309083,0.001364 c 0.00304,-0.0689539 -0.033443,-0.14127929 -0.1009531,-0.16558096 -0.076156,-0.0303214 -0.1593862,-0.0179018 -0.239283,-0.0205549 -0.047269,0 -0.094539,0 -0.1418081,0 0,0.12636331 0,0.25272662 0,0.37908993 0.1013037,-8.9495e-4 0.2027203,0.001953 0.3039406,-0.00175 0.068885,-0.003655 0.1420762,-0.0391668 0.1648078,-0.10870424 0.00976,-0.0263159 0.013286,-0.0545539 0.013296,-0.0825002 z"
         inkscape:connector-curvature="0"
         id="path2995"
         style="font-size:1.39636004px;font-family:'Arial,\'sans-serif\''" /></g></g></svg>