<?xml version="1.0" encoding="UTF-8" standalone="no"?>
<!-- Created with Inkscape (http://www.inkscape.org/) -->

<svg
   xmlns:dc="http://purl.org/dc/elements/1.1/"
   xmlns:cc="http://creativecommons.org/ns#"
   xmlns:rdf="http://www.w3.org/1999/02/22-rdf-syntax-ns#"
   xmlns:svg="http://www.w3.org/2000/svg"
   xmlns="http://www.w3.org/2000/svg"
   xmlns:sodipodi="http://sodipodi.sourceforge.net/DTD/sodipodi-0.dtd"
   xmlns:inkscape="http://www.inkscape.org/namespaces/inkscape"
   version="1.1"
   width="100%"
   height="100%"
   viewBox="0 0 796.03653 163.44352"
   id="svg242497"
   xml:space="preserve"
   style="fill-rule:evenodd;stroke-linecap:round;stroke-linejoin:round"
   inkscape:version="0.48.3.1 r9886"
   sodipodi:docname="alkis3573.svg"><sodipodi:namedview
   pagecolor="#ffffff"
   bordercolor="#666666"
   borderopacity="1"
   objecttolerance="10"
   gridtolerance="10"
   guidetolerance="10"
   inkscape:pageopacity="0"
   inkscape:pageshadow="2"
   inkscape:window-width="1855"
   inkscape:window-height="1025"
   id="namedview13"
   showgrid="false"
   inkscape:zoom="1.5733333"
   inkscape:cx="405.65838"
   inkscape:cy="81.912275"
   inkscape:window-x="0"
   inkscape:window-y="33"
   inkscape:window-maximized="1"
   inkscape:current-layer="svg242497" /><metadata
   id="metadata244544"><rdf:RDF><cc:Work
       rdf:about=""><dc:format>image/svg+xml</dc:format><dc:type
         rdf:resource="http://purl.org/dc/dcmitype/StillImage" /><dc:title /></cc:Work></rdf:RDF></metadata>
<defs
   id="defs242499">
<clipPath
   id="clipId0">
<path
   d="M 0,600 800,600 800,0 0,0 z"
   id="path242502"
   inkscape:connector-curvature="0" />
</clipPath>


























































































































































































































































































































































































































































































































































































































































































































































































































































































































































































































































</defs>
<g
   clip-path="url(#clipId0)"
   id="g242504"
   style="fill:none;stroke:#000000;stroke-width:0.1"
   transform="translate(-1.96875,-218.46875)" />





<path
   id="polyline243352"
   style="fill:#000000;fill-opacity:1;fill-rule:nonzero;stroke:#000000;stroke-width:0.25"
   d="m 409.15625,40.21875 c -4.89362,-0.24823 -9.90157,1.85167 -12.83961,5.83599 -3.77382,4.86573 -3.9069,12.12229 -0.3085,17.12194 2.65654,3.84404 7.23077,6.21362 11.89811,6.22957 -0.71683,-1.80325 1.50786,-0.61775 1.2499,-1.92248 7e-5,-9.08831 -1.3e-4,-18.17688 10e-5,-27.26502 z m -1.25,53.53125 c -6.84971,-0.14523 -13.23849,5.26197 -14.2929,12.0197 -1.34452,6.70177 2.81017,13.93901 9.25464,16.2 5.90747,2.3081 13.13484,0.14928 16.81921,-5.01551 3.91917,-5.17254 3.72498,-12.9457 -0.48382,-17.89341 -2.70005,-3.31439 -6.91648,-5.3582 -11.20338,-5.31073 -0.0372,1.2708 -0.0148,1.61724 -0.0937,-5e-5 z m 0,2.40625 c 6.01703,-0.17512 11.55326,4.80285 12.13221,10.77307 0.82498,6.03478 -3.62318,12.16547 -9.60229,13.29584 -5.71205,1.2962 -12.03347,-2.18442 -13.90466,-7.75 -2.11518,-5.41343 0.37692,-12.08984 5.52357,-14.79408 1.76972,-1.00423 3.81641,-1.53384 5.85117,-1.52483 z M 65.78125,53.625 c 0.860011,0.76912 1.613953,1.79431 2.53907,2.40625 1.38281,0 2.76562,0 4.14843,0 0,17.02083 0,34.04167 0,51.0625 -1.833333,0 -3.666667,0 -5.5,0 0,0.8125 0,1.625 0,2.4375 2.635417,0 5.270833,0 7.90625,0 0,-6.65625 0,-13.3125 0,-19.96875 3.129612,4.98483 9.497588,7.55111 15.219769,6.25414 C 96.130502,94.61222 101.00946,89.19201 101.52551,83.0517 102.20631,77.29135 99.01436,71.33449 93.845912,68.70043 91.786274,67.58658 89.43,67.03041 87.09375,67 c -0.04718,1.26825 -0.07888,1.32693 -0.09314,0.0238 -4.74935,-0.0607 -9.580605,2.49399 -12.125609,6.56999 0,-6.65625 0,-13.3125 0,-19.96875 -3.03125,0 -6.0625,0 -9.09375,0 z M 87,69.40625 c 4.718388,-0.0529 9.293185,2.87963 11.15466,7.22729 1.99276,4.34077 1.06135,9.77458 -2.222024,13.23607 -3.063238,3.3415 -8.052194,4.69277 -12.385323,3.35999 C 78.935175,91.88453 75.355429,87.61543 74.94348,82.81048 74.392239,78.02788 76.991449,73.08787 81.262734,70.85563 83.025879,69.93578 85.007989,69.41867 87,69.40625 z M 707.59375,0.125 l 0,26.75 -65.65625,0 c -0.42726,5.09033 8.15135,1.18558 11.59375,2.40625 l 54.0625,0 0,51.09375 -65.65625,0 c -0.42726,5.09033 8.15135,1.18558 11.59375,2.40625 l 54.0625,0 0,51.0625 -65.65625,0 c -0.42726,5.09033 8.15135,1.18558 11.59375,2.40625 l 54.0625,0 0,25.5625 c 1.33955,1.05445 10.72936,3.58258 9.09375,-1.90625 l 0,-16.9375 c 2.05521,3.17968 5.27006,5.61097 9.09375,6.3125 8.06629,2.02309 16.86625,-4.27526 17.5625,-12.5625 1.12061,-7.8713 -5.33763,-15.74725 -13.28125,-16.1875 l 0,-0.0937 c -5.19391,-0.35894 -10.48412,2.27229 -13.375,6.59375 l 0,-37.53125 c 2.17772,3.35734 5.64855,5.86306 9.71875,6.4375 7.938,1.59348 16.24222,-4.65982 16.9375,-12.71875 1.11591,-7.88661 -5.35005,-15.69154 -13.28125,-16.1875 l 0,-0.0937 c -5.2572,-0.33125 -10.48565,2.3202 -13.375,6.625 l 0,-37.5 c 1.64319,2.80784 4.16232,4.67413 7,5.65625 1.02953,0.39188 2.09449,0.66387 3.21875,0.78125 0.53678,0.14466 0.96537,0.13788 1.3125,0.0312 5.9034,0.17472 11.97035,-2.91157 14.125,-8.875 3.98722,-8.71828 -2.8863,-19.632 -12.28125,-20.15625 0,-0.0104 0,-0.0208 0,-0.0312 -1.93099,-0.1401 -3.84778,0.13595 -5.65625,0.75 -1.47882,0.3034 -2.96402,0.81935 -3.8125,1.84375 -0.0786,0.0917 -0.14304,0.13172 -0.21875,0.21875 -1.02735,0.73667 -1.97117,1.59669 -2.78125,2.5625 -1.24167,0.43903 -1.11899,-1.80431 -0.90625,-5.6875 -0.91784,-3.93661 1.92073,-11.62878 -1.53125,-13.03125 l -7.5625,0 z m 4.53125,2.0625 c 3.96339,0.21322 1.50349,6.85115 2.15625,10.375 l 0,14.9375 c -0.0148,0.33445 -0.0105,0.66676 0,1 l 0,25.125 C 707.43399,55.69899 710.74601,47.62101 710,43.59375 l 0,-41.0625 c 0.85591,-0.25925 1.5588,-0.37421 2.125,-0.34375 z m 17.9375,13.75 c 9.26033,0.58238 14.63634,13.07149 8.0625,20.0625 -2.05417,2.64476 -5.008,3.92394 -8.0625,4.125 6e-5,-8.05813 -1.4e-4,-16.1296 0,-24.1875 z m 52.0625,0.3125 -26.75,5.34375 c -0.30575,2.95586 1.88279,2.18911 3.90625,1.65625 L 782.59375,18.625 782.125,16.25 z M 393.21875,26.59375 c -0.51059,-0.004 -1.11037,0.0941 -1.8125,0.28125 l -4.71875,0 0,26.75 -65.65625,0 c 0.32665,5.12969 9.76762,1.15104 13.96875,2.40625 l 51.6875,0 0,51.0625 -65.65625,0 c 0.28987,5.17689 9.76012,1.17938 13.96875,2.4375 l 51.6875,0 0,25.53125 c 1.89833,1.41635 11.69278,3.53202 9.09375,-3.1875 l 0,-15.53125 c 2.63682,3.99384 7.30898,6.60512 12.125,6.53125 2.2757,-2.45965 0.87104,-8.47636 1.25,-12.78125 3e-5,-5.47225 -1.2e-4,-10.93436 0,-16.40625 -5.54747,-0.60832 -10.53409,2.42009 -13.375,6.8125 l 0,-37.6875 c 5.91916,10.15795 22.94904,7.86361 26.03125,-3.46875 3.26496,-8.94399 -4.29754,-19.4 -13.8125,-19.09375 0.69977,0.5232 -6.12304,-0.13102 -8.375,2.625 -4.70586,5.78608 -3.96359,1.72456 -3.84375,-3.875 -0.97584,-4.0019 2.37318,-12.36419 -2.5625,-12.40625 z m 400.5625,0.1875 c -0.49413,0.003 -1.03683,0.0595 -1.5625,0.0937 l -36.625,0 c -0.87485,2.84039 1.39731,2.54341 3.5,2.40625 l 36.625,0 c 0.65614,-2.13029 -0.45511,-2.50825 -1.9375,-2.5 z m -402.90625,2.25 c 4.88278,0.1012 1.49507,8.4897 2.5,12.46875 l 0,38.875 c -7.42913,1.92957 -3.17236,-7.82807 -4.28125,-12.21875 l 0,-38.875 c 0.69648,-0.1809 1.27614,-0.26047 1.78125,-0.25 z m 364.96875,3.1875 c -1.40405,2.61764 0.86582,2.79268 2.96875,3.0625 l 23.3125,4.625 c 1.40405,-2.61764 -0.86582,-2.79268 -2.96875,-3.0625 l -23.3125,-4.625 z m -347.9375,10.4375 c 10.39151,-0.56647 16.4163,13.68277 8.71875,20.71875 -6.96239,7.83081 -21.41011,1.89935 -20.84375,-8.5625 -0.10011,-6.56591 5.56985,-12.21364 12.125,-12.15625 z M 461.1875,43 434.46875,48.34375 c 0.58953,5.05254 8.23433,-0.43446 11.84375,0.0937 l 15.34375,-3.0625 -0.46875,-2.375 z m 10.1875,10.34375 c -2.66663,0.0437 -6.2199,0.96788 -8.15625,0.28125 l -28.53125,0 c -0.42726,5.09033 8.15135,1.18558 11.59375,2.40625 l 28.53125,0 c 0.18693,-2.22702 -1.36345,-2.72146 -3.4375,-2.6875 z M 65.78125,53.625 l 0,26.75 -65.65625,0 c 0.326651,5.12969 9.76762,1.15104 13.96875,2.40625 l 51.6875,0 0,25.53125 c 5.129693,-0.32665 1.151035,-9.76762 2.40625,-13.96875 l 0,-38.3125 L 65.78125,53.625 z M 712.125,55.6875 c 3.96339,0.21322 1.50349,6.85115 2.15625,10.375 l 0,14.59375 c -0.0388,0.60528 -0.0428,1.21072 0,1.8125 l 0,24.625 C 707.43399,109.16774 710.74601,101.08976 710,97.0625 l 0,-41.03125 c 0.85591,-0.25925 1.5588,-0.37421 2.125,-0.34375 z m -277.1875,3.28125 c -1.39919,4.89108 7.74563,2.75296 10.875,4.625 l 15.375,3.0625 c 1.421,-4.9257 -7.76013,-2.75611 -10.90625,-4.625 L 434.9375,58.96875 z M 86.15625,66.875 C 75.838407,67.39892 68.54812,80.2439 74.625,89.1875 c 2.547643,4.27804 7.409645,6.96861 12.375,6.96875 2.411212,-2.90079 0.779566,-9.57379 1.25,-14.3125 l 0,-14.90625 C 87.538227,66.8581 86.844106,66.8401 86.15625,66.875 z m 643.90625,2.59375 c 7.10994,0.48161 12.51124,8.06278 10.625,14.9375 -1.08502,4.92464 -5.60091,8.85851 -10.625,9.25 l 0,-24.1875 z M 140.28125,69.75 l -26.75,5.3125 c 1.3011,4.99393 9.78887,-0.75752 14.15625,-0.34375 3.20659,-1.97988 14.24831,0.0534 12.59375,-4.96875 z m 641.84375,0 -26.75,5.3125 c -0.30382,2.95682 1.85947,2.24181 3.90625,1.6875 L 782.59375,72.125 782.125,69.75 z M 149.4375,80.0625 c -3.12259,0.0534 -7.13686,1.01856 -9.5,0.3125 l -26.15625,0 c 0.32665,5.12969 9.76762,1.15104 13.96875,2.40625 l 26.15625,0 c -0.14291,-2.24424 -2.04007,-2.76028 -4.46875,-2.71875 z m 644.34375,0.21875 c -0.49413,0.003 -1.03683,0.0595 -1.5625,0.0937 l -36.625,0 c -0.87485,2.84039 1.39731,2.54341 3.5,2.40625 l 36.625,0 c 0.65614,-2.13029 -0.45511,-2.50825 -1.9375,-2.5 z m -402.90625,2.25 c 4.88278,0.1012 1.49507,8.4897 2.5,12.46875 l 0,12.15625 c -0.0983,0.92525 -0.0959,1.84883 0,2.78125 l 0,23.90625 c -7.42913,1.92957 -3.17236,-7.82807 -4.28125,-12.21875 l 0,-38.84375 c 0.69648,-0.1809 1.27614,-0.26047 1.78125,-0.25 z M 114,85.71875 c -0.69392,5.11416 9.33708,3.04655 13.21875,5.09375 4.10416,-0.52468 12.47764,5.307 13.53125,0.21875 L 114,85.71875 z m 641.84375,0 c -1.41957,2.61321 0.89489,2.75039 2.96875,3.03125 l 23.3125,4.625 c 1.41957,-2.61321 -0.89489,-2.75039 -2.96875,-3.03125 l -23.3125,-4.625 z M 461.1875,96.5 l -26.71875,5.3125 c 0.55735,5.09792 8.19488,-0.42634 11.8125,0.0937 l 15.375,-3.0625 -0.46875,-2.34375 z m 10.21875,10.3125 c -2.6672,0.0384 -6.24383,0.96641 -8.1875,0.28125 l -28.53125,0 c -0.45525,5.12873 8.13834,1.21943 11.59375,2.4375 l 28.53125,0 c 0.19917,-2.24382 -1.33176,-2.74859 -3.40625,-2.71875 z m 240.71875,2.375 c 3.96339,0.21322 1.50349,6.85115 2.15625,10.375 l 0,15.03125 c -0.0107,0.37716 -0.0206,0.74902 0,1.125 l 0,24.875 C 707.43399,162.66774 710.74601,154.58976 710,150.5625 l 0,-41.03125 c 0.85591,-0.25925 1.5588,-0.37421 2.125,-0.34375 z m -277.1875,3.25 c -1.421,4.9257 7.76013,2.75611 10.90625,4.625 l 15.34375,3.0625 c 1.39919,-4.89108 -7.74563,-2.75296 -10.875,-4.625 l -15.375,-3.0625 z m 295.125,10.53125 c 7.22991,0.44189 12.65287,8.32855 10.53125,15.25 -1.18323,4.80606 -5.6199,8.50434 -10.53125,8.9375 l 0,-24.1875 z m 52.0625,0.28125 -26.75,5.3125 c -0.30575,2.95586 1.88279,2.18911 3.90625,1.65625 l 23.3125,-4.625 L 782.125,123.25 z m 11.65625,10.5 c -0.49413,0.003 -1.03683,0.0595 -1.5625,0.0937 l -36.625,0 c -0.87485,2.84039 1.39731,2.54341 3.5,2.40625 l 36.625,0 c 0.65614,-2.13029 -0.45511,-2.50825 -1.9375,-2.5 z m -37.9375,5.4375 c -1.40405,2.61764 0.86582,2.79268 2.96875,3.0625 l 23.3125,4.625 c 1.40405,-2.61764 -0.86582,-2.79268 -2.96875,-3.0625 l -23.3125,-4.625 z"
   inkscape:connector-curvature="0" />







</svg>