<?xml version="1.0" encoding="UTF-8" standalone="no"?>
<svg
   xmlns:dc="http://purl.org/dc/elements/1.1/"
   xmlns:cc="http://creativecommons.org/ns#"
   xmlns:rdf="http://www.w3.org/1999/02/22-rdf-syntax-ns#"
   xmlns:svg="http://www.w3.org/2000/svg"
   xmlns="http://www.w3.org/2000/svg"
   xmlns:sodipodi="http://sodipodi.sourceforge.net/DTD/sodipodi-0.dtd"
   xmlns:inkscape="http://www.inkscape.org/namespaces/inkscape"
   viewBox="0 0 348.28402 348.52069"
   version="1.1"
   xml:space="preserve"
   id="svg174701"
   inkscape:version="0.48.3.1 r9886"
   width="100%"
   height="100%"
   sodipodi:docname="alkis3529.svg"
   style="fill-rule:evenodd;stroke-linecap:round;stroke-linejoin:round"><metadata
   id="metadata175036"><rdf:RDF><cc:Work
       rdf:about=""><dc:format>image/svg+xml</dc:format><dc:type
         rdf:resource="http://purl.org/dc/dcmitype/StillImage" /></cc:Work></rdf:RDF></metadata><sodipodi:namedview
   pagecolor="#ffffff"
   bordercolor="#666666"
   borderopacity="1"
   objecttolerance="10"
   gridtolerance="10"
   guidetolerance="10"
   inkscape:pageopacity="0"
   inkscape:pageshadow="2"
   inkscape:window-width="1855"
   inkscape:window-height="1025"
   id="namedview175034"
   showgrid="false"
   inkscape:zoom="1.1125147"
   inkscape:cx="180.32888"
   inkscape:cy="339.59677"
   inkscape:window-x="0"
   inkscape:window-y="33"
   inkscape:window-maximized="1"
   inkscape:current-layer="svg174701" />
<defs
   id="defs174703">
<clipPath
   id="clipId0">
<path
   d="M 0,600 800,600 800,0 0,0 z"
   id="path174706"
   inkscape:connector-curvature="0" />
</clipPath>

















































































</defs>
<g
   clip-path="url(#clipId0)"
   id="g174708"
   style="fill:none;stroke:#000000;stroke-width:0.1"
   transform="translate(-226.55359,-125.65574)" />
<g
   clip-path="url(#clipId0)"
   id="g174710"
   style="fill:#e2ffff;stroke:none"
   transform="translate(-226.55359,-125.65574)">













































































<path
   d="m 413.4375,137.84375 c 50.46821,3.83525 98.20848,32.61997 124.8774,75.67761 29.53427,46.27233 32.99378,107.70423 8.71076,156.95514 -23.80796,50.48492 -75.3362,86.35206 -130.94621,91.1799 -54.91318,5.68365 -111.67299,-19.1696 -144.72027,-63.40133 -34.1951,-44.12446 -42.7266,-106.3475 -21.78019,-158.08344 19.96263,-51.79391 68.31161,-91.17505 123.05979,-100.30694 13.44763,-2.42376 27.17483,-2.88704 40.79872,-2.02094 z"
   id="path174866"
   inkscape:connector-curvature="0" />
</g>
<path
   style="fill:#00cccc;stroke:none"
   d="M 173.66516,5.0872814e-4 C 115.62254,-0.14483127 58.639551,30.861899 27.660261,80.012219 -4.9824595,129.7631 -9.0959295,196.52896 17.252301,249.89495 c 25.46596,54.16566 80.76304,92.57357 140.367929,97.76772 58.85623,6.08022 119.71822,-20.52741 155.12821,-67.95774 C 349.42595,232.41647 358.59358,165.69526 336.12239,110.2358 314.73165,54.698899 262.89565,12.440229 204.18303,2.6788187 194.11923,0.90512873 183.88471,0.04724873 173.66516,5.0872814e-4 z M 174.13391,23.406759 c 50.85616,-0.27515 100.70385,27.13421 127.51769,70.37816 29.71745,46.102531 31.02451,108.608311 3.04079,155.818741 C 277.4723,298.00626 221.69,328.35503 166.25336,324.78237 110.75638,322.54863 58.432131,286.54284 36.418711,235.56027 13.246451,185.09587 21.537421,122.14906 56.973401,79.391349 84.998071,44.260219 129.23869,23.334669 174.13391,23.406759 z"
   id="path175028"
   inkscape:connector-curvature="0" />
<g
   clip-path="url(#clipId0)"
   id="g175030"
   style="fill:none;stroke:#00cccc;stroke-width:0.25"
   transform="translate(-226.55359,-125.65574)">
<polyline
   points="400.682,137.345 400.682,137.345 "
   id="polyline175032" />
</g>
</svg>