<?xml version="1.0" encoding="UTF-8" standalone="no"?>
<svg
   xmlns:dc="http://purl.org/dc/elements/1.1/"
   xmlns:cc="http://creativecommons.org/ns#"
   xmlns:rdf="http://www.w3.org/1999/02/22-rdf-syntax-ns#"
   xmlns:svg="http://www.w3.org/2000/svg"
   xmlns="http://www.w3.org/2000/svg"
   xmlns:sodipodi="http://sodipodi.sourceforge.net/DTD/sodipodi-0.dtd"
   xmlns:inkscape="http://www.inkscape.org/namespaces/inkscape"
   viewBox="0 0 445.49941 419.15961"
   version="1.1"
   xml:space="preserve"
   id="svg18458"
   inkscape:version="0.48.3.1 r9886"
   width="100%"
   height="100%"
   sodipodi:docname="alkis3402.svg"
   style="fill-rule:evenodd;stroke-linecap:round;stroke-linejoin:round"><metadata
   id="metadata18625"><rdf:RDF><cc:Work
       rdf:about=""><dc:format>image/svg+xml</dc:format><dc:type
         rdf:resource="http://purl.org/dc/dcmitype/StillImage" /></cc:Work></rdf:RDF></metadata><sodipodi:namedview
   pagecolor="#ffffff"
   bordercolor="#666666"
   borderopacity="1"
   objecttolerance="10"
   gridtolerance="10"
   guidetolerance="10"
   inkscape:pageopacity="0"
   inkscape:pageshadow="2"
   inkscape:window-width="1855"
   inkscape:window-height="1025"
   id="namedview18623"
   showgrid="false"
   inkscape:zoom="0.39333333"
   inkscape:cx="-218.88029"
   inkscape:cy="209.104"
   inkscape:window-x="0"
   inkscape:window-y="33"
   inkscape:window-maximized="1"
   inkscape:current-layer="svg18458" />
<defs
   id="defs18460">
<clipPath
   id="clipId0">
<path
   d="M 0,600 800,600 800,0 0,0 z"
   id="path18463"
   inkscape:connector-curvature="0" />
</clipPath>
</defs>
<g
   clip-path="url(#clipId0)"
   id="g18465"
   style="fill:none;stroke:#000000;stroke-width:0.1"
   transform="translate(-177.77859,-89.944389)" />
<g
   clip-path="url(#clipId0)"
   id="g18467"
   style="fill:#000000;fill-rule:nonzero;stroke:none"
   transform="translate(-177.77859,-89.944389)">








































































<path
   style="fill-rule:nonzero"
   d="m 211.375,90.15625 c -8.91679,-1.682203 -12.70012,7.044401 -18.1875,12.34375 -6.31403,15.73327 -11.77882,31.78529 -12.99374,48.81105 -3.07853,27.17703 -4.9078,56.04114 5.36874,81.9702 3.90017,6.90282 9.2339,10.80763 17.40496,8.8125 8.17309,-4.91098 8.48969,-16.34944 13.09057,-24.19867 3.83988,-4.22281 3.33042,-18.92339 10.3619,-15.42996 38.44335,15.89272 76.86677,31.8336 115.29882,47.75363 -26.0715,86.24099 -52.08922,172.49822 -78.125,258.75 17.59375,0 35.1875,0 52.78125,0 15.65507,-51.02842 31.30431,-102.05862 46.9375,-153.09375 15.63542,0 31.27083,0 46.90625,0 17.60614,51.03057 35.2136,102.06068 52.8125,153.09375 17.59375,0 35.1875,0 52.78125,0 -24.3314,-72.28798 -48.63886,-144.58582 -72.96875,-216.875 24.26612,10.07386 48.5451,20.11671 72.8125,30.1875 -6.35417,15.35417 -12.70833,30.70833 -19.0625,46.0625 23.47172,9.73427 46.96118,19.42468 70.4375,29.1562 18.70833,-45.15625 37.41667,-90.3125 56.125,-135.46875 -23.47901,-9.72955 -46.96314,-19.44675 -70.4375,-29.1875 -6.36458,15.35417 -12.72917,30.70833 -19.09375,46.0625 C 436.08486,238.4963 338.52392,198.13655 241,157.6875 c 5.23958,-12.63542 10.47917,-25.27083 15.71875,-37.90625 -12.64892,-9.19394 -24.67989,-19.75605 -37.72951,-28.085952 -2.53808,-0.513016 -5.07616,-1.026032 -7.61424,-1.539048 z"
   id="path18613"
   inkscape:connector-curvature="0" />
</g>
<g
   clip-path="url(#clipId0)"
   id="g18615"
   style="fill:none;stroke:#000000;stroke-width:0.25"
   transform="translate(-177.77859,-89.944389)">
<polyline
   points="256.709,119.77 240.994,157.703 533.626,278.917 552.707,232.854 623.153,262.035 567.037,397.514 496.59,368.333 515.671,322.27 442.837,292.103 515.812,508.979 463.021,508.979 410.23,355.886 363.305,355.886 316.38,508.979 263.589,508.979 341.708,250.21 223.034,201.056 207.32,238.989 203.173,242.092 192.615,242.092 185.576,233.294 182.056,223.908 179.71,212.764 177.95,196.34 177.95,176.983 179.124,158.8 180.883,146.482 183.229,130.645 187.335,118.327 193.201,102.489 203.759,90.7582 211.385,90.1716 220.183,91.9313 256.709,119.77 "
   id="polyline18617" />
</g>
<g
   clip-path="url(#clipId0)"
   id="g18619"
   style="fill:#000000;stroke:none"
   transform="translate(-177.77859,-89.944389)">
<path
   d="m 192.615,242.092 10.558,0 0,266.887 -10.558,0 z"
   id="path18621"
   inkscape:connector-curvature="0" />
</g>
</svg>