<?xml version="1.0" standalone="no"?>
<!DOCTYPE svg PUBLIC "-//W3C//DTD SVG 1.1//EN"
 "http://www.w3.org/Graphics/SVG/1.1/DTD/svg11.dtd">
<!-- Created with svg_stack (http://github.com/astraw/svg_stack) -->
<svg xmlns:sodipodi="http://sodipodi.sourceforge.net/DTD/sodipodi-0.dtd" xmlns="http://www.w3.org/2000/svg" version="1.1" width="1595.0" height="1593.75">
  <defs/>
  <g id="id0:id0" transform="matrix(1.25,0,0,1.25,0.0,0.0)"><g transform="translate(0.000000,1275.000000) scale(0.100000,-0.100000)" fill="#000000" stroke="none">
<path d="M0 6375 l0 -6375 6380 0 6380 0 0 6375 0 6375 -6380 0 -6380 0 0 -6375z m12130 0 l0 -5755 -5750 0 -5750 0 0 5755 0 5755 5750 0 5750 0 0 -5755z"/>
<path d="M6495 11248 c-19 -51 -1802 -5554 -1800 -5556 1 -1 636 382 1410 853 774 471 1409 854 1410 853 6 -7 -1173 -3632 -1182 -3635 -6 -2 -207 60 -447 138 -241 77 -439 139 -441 138 -1 -2 35 -175 81 -384 46 -209 161 -749 254 -1200 94 -451 174 -828 178 -838 6 -14 180 139 922 809 503 454 921 831 927 838 10 9 -86 43 -436 156 -374 121 -447 147 -439 160 10 18 1696 5214 1693 5218 -1 1 -636 -382 -1410 -853 -774 -471 -1409 -854 -1410 -853 -1 2 287 896 641 1987 354 1092 642 1985 641 1986 -7 5 -573 195 -580 195 -4 0 -10 -6 -12 -12z"/>
</g>
</g>
  <g id="id1:id1" transform="matrix(1.25,0,0,1.25,0.0,0.0)"><g transform="translate(0.000000,1275.000000) scale(0.100000,-0.100000)" fill="#ffffff" stroke="none">
</g>
</g>
</svg>
