<?xml version="1.0" encoding="UTF-8" standalone="no"?>
<svg
   xmlns:dc="http://purl.org/dc/elements/1.1/"
   xmlns:cc="http://creativecommons.org/ns#"
   xmlns:rdf="http://www.w3.org/1999/02/22-rdf-syntax-ns#"
   xmlns:svg="http://www.w3.org/2000/svg"
   xmlns="http://www.w3.org/2000/svg"
   xmlns:sodipodi="http://sodipodi.sourceforge.net/DTD/sodipodi-0.dtd"
   xmlns:inkscape="http://www.inkscape.org/namespaces/inkscape"
   viewBox="0 0 194.22834 351.3674"
   version="1.1"
   xml:space="preserve"
   id="svg6011"
   inkscape:version="0.48.3.1 r9886"
   width="100%"
   height="100%"
   sodipodi:docname="alkis3584.svg"
   style="fill-rule:evenodd;stroke-linecap:round;stroke-linejoin:round"><metadata
   id="metadata6272"><rdf:RDF><cc:Work
       rdf:about=""><dc:format>image/svg+xml</dc:format><dc:type
         rdf:resource="http://purl.org/dc/dcmitype/StillImage" /></cc:Work></rdf:RDF></metadata><sodipodi:namedview
   pagecolor="#ffffff"
   bordercolor="#666666"
   borderopacity="1"
   objecttolerance="10"
   gridtolerance="10"
   guidetolerance="10"
   inkscape:pageopacity="0"
   inkscape:pageshadow="2"
   inkscape:window-width="1855"
   inkscape:window-height="1025"
   id="namedview6270"
   showgrid="false"
   inkscape:zoom="1.4365217"
   inkscape:cx="-41.785569"
   inkscape:cy="218.16932"
   inkscape:window-x="0"
   inkscape:window-y="33"
   inkscape:window-maximized="1"
   inkscape:current-layer="svg6011" />
<defs
   id="defs6013">
<clipPath
   id="clipId0">
<path
   d="M 0,600 800,600 800,0 0,0 z"
   id="path6016"
   inkscape:connector-curvature="0" />
</clipPath>










































</defs>
<g
   clip-path="url(#clipId0)"
   id="g6018"
   style="fill:none;stroke:#000000;stroke-width:0.1"
   transform="translate(-302.80291,-124.25)" />
<g
   clip-path="url(#clipId0)"
   id="g6020"
   style="fill:#000000;stroke:none"
   transform="translate(-302.80291,-124.25)">
















































































</g>
<g
   clip-path="url(#clipId0)"
   id="g6182"
   style="fill:none;stroke:#000000;stroke-width:0.25"
   transform="translate(-302.80291,-124.25)">
<path
   style="fill:#000000;fill-opacity:1;fill-rule:nonzero"
   d="m 392.40625,124.375 -12.25,1.84375 9.1875,61.28125 c -18.0334,-1.49046 -35.26263,-9.62745 -48.3125,-22.09375 l -8.21875,9.21875 c 15.42013,14.9577 36.25494,23.88715 57.59375,25.40625 l 0,97.75 c -27.99629,-1.37941 -55.54142,-11.73884 -77.125,-29.71875 -2.82476,-4.17461 -4.84526,-0.87838 -6.90625,2.03125 -2.06611,2.64167 -5.96122,5.50437 -1.125,7.40625 23.80076,19.84402 54.25066,31.28671 85.15625,32.65625 l 0,84.65625 c -10.39819,1.63709 -20.13354,7.38219 -26.375,15.90625 -8.26513,10.9359 -10.34874,26.13983 -5.25,38.875 4.82819,12.74536 16.54495,22.56002 29.9375,25.09375 13.94946,2.92827 29.18586,-2.29066 38.46875,-13.09375 9.19736,-10.37098 12.41996,-25.6136 8.15625,-38.8125 -4.02224,-13.18851 -15.23585,-23.87486 -28.625,-27.1875 -1.28507,-0.33284 -2.59541,-0.58094 -3.90625,-0.78125 l 0,-84.625 c 4.08717,-0.18049 8.15897,-0.54747 12.21875,-1.09375 30.62455,-3.82819 59.72942,-18.00745 81.875,-39.46875 -1.93918,-3.05822 -5.56515,-6.2902 -8.125,-9.375 -19.35592,18.90043 -44.51181,31.74596 -71.25,36 -4.87089,0.80651 -9.79392,1.30144 -14.71875,1.53125 l 0,-97.71875 c 5.10209,-0.33655 10.1705,-1.10954 15.15625,-2.34375 16.9747,-3.97756 32.68435,-12.99339 44.84375,-25.46875 l -8.5625,-8.9375 c -13.67014,14.17658 -32.64628,23.20184 -52.34375,24.34375 l -9.5,-63.28125 z m 4.21875,282.3125 c 10.83686,-0.0436 21.39462,6.66727 25.6875,16.65625 4.74857,10.17026 2.51572,23.05792 -5.34375,31.0625 -7.5095,8.0115 -19.90102,10.88702 -30.15625,6.9375 -10.57587,-3.75008 -18.20568,-14.3694 -18.375,-25.59375 -0.48295,-11.05825 6.27594,-21.99795 16.40625,-26.46875 3.67205,-1.71657 7.73629,-2.53555 11.78125,-2.59375 z"
   id="polyline6184"
   inkscape:connector-curvature="0" />
</g>

</svg>