<?xml version="1.0" standalone="no"?>
<!DOCTYPE svg PUBLIC "-//W3C//DTD SVG 1.1//EN"
 "http://www.w3.org/Graphics/SVG/1.1/DTD/svg11.dtd">
<!-- Created with svg_stack (http://github.com/astraw/svg_stack) -->
<svg xmlns:sodipodi="http://sodipodi.sourceforge.net/DTD/sodipodi-0.dtd" xmlns="http://www.w3.org/2000/svg" version="1.1" width="1496.25" height="1593.75">
  <defs/>
  <g id="id0:id0" transform="matrix(1.25,0,0,1.25,0.0,0.0)"><g transform="translate(0.000000,1275.000000) scale(0.100000,-0.100000)" fill="#000000" stroke="none">
<path d="M5880 12730 c-822 -71 -1604 -284 -2330 -637 -697 -339 -1413 -888 -1937 -1487 -468 -533 -819 -1082 -1094 -1711 -246 -565 -440 -1331 -488 -1935 -60 -752 -18 -1399 130 -1995 110 -442 191 -702 303 -972 318 -765 745 -1424 1330 -2051 523 -562 1335 -1121 2063 -1421 509 -209 1021 -360 1463 -430 575 -91 910 -107 1465 -71 689 45 1301 182 1950 437 401 158 927 443 1300 706 554 389 1011 836 1439 1407 88 118 163 217 167 220 5 5 272 430 309 493 20 34 20 36 -65 3237 -71 2680 -87 3207 -100 3226 -109 167 -402 568 -515 704 -519 630 -1229 1206 -1930 1567 -802 413 -1498 615 -2431 708 -315 31 -703 33 -1029 5z m960 -1165 c500 -50 731 -99 1195 -252 529 -175 970 -406 1468 -771 384 -280 868 -772 1084 -1103 l63 -95 75 -2854 75 -2855 -59 -97 c-143 -234 -448 -607 -719 -881 -355 -358 -795 -672 -1342 -955 -570 -295 -1299 -489 -1975 -527 -370 -21 -522 -19 -805 10 -1008 102 -1909 450 -2665 1029 -431 330 -860 770 -1111 1138 -412 604 -649 1137 -833 1873 -79 319 -131 797 -131 1218 0 505 101 1090 278 1617 160 472 478 1076 758 1435 380 488 701 801 1179 1147 627 454 1418 769 2245 893 401 61 815 71 1220 30z"/>
<path d="M4298 7567 l-2068 -3582 2070 -3 c1139 -1 3001 -1 4140 0 l2070 3 -2068 3582 c-1137 1970 -2069 3582 -2072 3582 -3 0 -935 -1612 -2072 -3582z"/>
</g>
</g>
  <g id="id1:id1" transform="matrix(1.25,0,0,1.25,0.0,0.0)"><g transform="translate(0.000000,1275.000000) scale(0.100000,-0.100000)" fill="#ffffff" stroke="none">
</g>
</g>
</svg>
