<?xml version="1.0" standalone="no"?>
<!DOCTYPE svg PUBLIC "-//W3C//DTD SVG 1.1//EN"
 "http://www.w3.org/Graphics/SVG/1.1/DTD/svg11.dtd">
<!-- Created with svg_stack (http://github.com/astraw/svg_stack) -->
<svg xmlns:sodipodi="http://sodipodi.sourceforge.net/DTD/sodipodi-0.dtd" xmlns="http://www.w3.org/2000/svg" version="1.1" width="1845.0" height="1598.75">
  <defs/>
  <g id="id0:id0" transform="matrix(1.25,0,0,1.25,0.0,0.0)"><g transform="translate(0.000000,1279.000000) scale(0.100000,-0.100000)" fill="#ffffff" stroke="none">
<path d="M3720 6454 c-2010 -3485 -3670 -6362 -3688 -6395 l-34 -59 2611 0 2611 0 0 925 c0 733 -3 925 -12 925 -7 0 -435 -79 -951 -176 -516 -96 -941 -173 -944 -170 -3 2 58 119 135 258 77 139 384 701 682 1248 298 547 574 1050 612 1118 39 68 68 125 66 128 -3 2 -148 -41 -323 -96 -175 -55 -322 -100 -325 -100 -4 0 190 524 431 1165 240 641 435 1165 432 1165 -2 0 -110 -45 -238 -100 -128 -55 -236 -100 -239 -100 -4 0 13 39 37 88 24 48 270 570 547 1160 277 589 506 1072 510 1072 4 0 233 -483 510 -1072 277 -590 523 -1112 547 -1160 24 -49 41 -88 37 -88 -3 0 -111 45 -239 100 -128 55 -235 100 -238 100 -6 0 803 -2150 845 -2247 20 -46 33 -83 29 -83 -4 0 -151 45 -326 100 -175 55 -320 98 -322 96 -3 -2 12 -37 33 -77 31 -63 1242 -2268 1410 -2568 31 -56 54 -104 51 -107 -3 -3 -428 74 -944 170 -516 97 -944 176 -950 176 -10 0 -13 -192 -13 -925 l0 -925 1150 0 1150 0 0 1065 0 1065 -215 2 -215 3 956 1220 c526 671 960 1220 964 1220 4 0 438 -549 964 -1220 l956 -1220 -215 -3 -215 -2 0 -1065 0 -1065 1706 0 1706 0 -34 59 c-175 311 -7344 12730 -7348 12730 -3 0 -1650 -2851 -3660 -6335z"/>
<path d="M9220 745 l0 -745 640 0 640 0 0 745 0 745 -640 0 -640 0 0 -745z"/>
</g>
</g>
  <g id="id1:id1" transform="matrix(1.25,0,0,1.25,0.0,0.0)"><g transform="translate(0.000000,1279.000000) scale(0.100000,-0.100000)" fill="#000000" stroke="none">
<path d="M5130 7438 c-277 -590 -523 -1112 -547 -1160 -24 -49 -41 -88 -37 -88 3 0 111 45 239 100 128 55 236 100 238 100 3 0 -192 -524 -432 -1165 -241 -641 -435 -1165 -431 -1165 3 0 150 45 325 100 175 55 320 98 323 96 2 -3 -27 -60 -66 -128 -38 -68 -314 -571 -612 -1118 -298 -547 -605 -1109 -682 -1248 -77 -139 -138 -256 -135 -258 3 -3 428 74 944 170 516 97 944 176 951 176 9 0 12 -192 12 -925 l0 -925 425 0 425 0 0 925 c0 733 3 925 13 925 6 0 434 -79 950 -176 516 -96 941 -173 944 -170 3 3 -20 51 -51 107 -168 300 -1379 2505 -1410 2568 -21 40 -36 75 -33 77 2 2 147 -41 322 -96 175 -55 322 -100 326 -100 4 0 -9 37 -29 83 -42 97 -851 2247 -845 2247 3 0 110 -45 238 -100 128 -55 236 -100 239 -100 4 0 -13 39 -37 88 -24 48 -270 570 -547 1160 -277 589 -506 1072 -510 1072 -4 0 -233 -483 -510 -1072z"/>
<path d="M8898 3357 l-958 -1222 215 -3 215 -2 0 -1065 0 -1065 425 0 425 0 0 745 0 745 640 0 640 0 0 -745 0 -745 425 0 425 0 0 1065 0 1065 215 2 215 3 -956 1220 c-526 671 -959 1221 -962 1222 -4 2 -438 -547 -964 -1220z"/>
</g>
</g>
</svg>
