<?xml version="1.0" encoding="UTF-8" standalone="no"?>
<!-- Created with Inkscape (http://www.inkscape.org/) -->

<svg
   xmlns:dc="http://purl.org/dc/elements/1.1/"
   xmlns:cc="http://creativecommons.org/ns#"
   xmlns:rdf="http://www.w3.org/1999/02/22-rdf-syntax-ns#"
   xmlns:svg="http://www.w3.org/2000/svg"
   xmlns="http://www.w3.org/2000/svg"
   xmlns:inkscape="http://www.inkscape.org/namespaces/inkscape"
   version="1.1"
   width="100%"
   height="100%"
   viewBox="0 0 304.71875 304.69856"
   id="svg2"
   xml:space="preserve"
   style="fill-rule:evenodd;stroke-linecap:round;stroke-linejoin:round"><metadata
     id="metadata45"><rdf:RDF><cc:Work
         rdf:about=""><dc:format>image/svg+xml</dc:format><dc:type
           rdf:resource="http://purl.org/dc/dcmitype/StillImage" /></cc:Work></rdf:RDF></metadata><defs
     id="defs4"><clipPath
       id="clipId0"><path
         d="M 0,600 800,600 800,0 0,0 z"
         inkscape:connector-curvature="0"
         id="path7" /></clipPath></defs><g
     transform="translate(-247.90625,-147.9375)"
     clip-path="url(#clipId0)"
     id="g9"
     style="fill:none;stroke:#000000;stroke-width:0.1" /><g
     transform="translate(-247.90625,-147.9375)"
     clip-path="url(#clipId0)"
     id="g11"
     style="fill:#ffffff;stroke:none"><path
       d="m 255.1875,155.1875 0,290.1875 290.15625,0 0,-290.1875 -290.15625,0 z"
       inkscape:connector-curvature="0"
       id="path13" /></g><g
     transform="translate(-247.90625,-147.9375)"
     clip-path="url(#clipId0)"
     id="g17"
     style="fill:#000000;stroke:none"><path
       d="m 247.90625,147.9375 0.44943,303.72955 c 73.30025,-0.0147 201.06442,1.09062 304.26932,0.95795 l 0,-304.6875 z m 14.53125,14.5 275.65625,0 0,275.6875 -275.65625,0 z"
       inkscape:connector-curvature="0"
       id="path19" /><path
       d="M 403.3125,183.5625 360.125,316.5 428,275.34375 l -26.3125,80.96875 -21.5625,-7 -11.7839,-3.61229 2.44015,12.01854 15.0625,70.8125 63.125,-56.84375 -33.5,-10.90625 38.375,-118.09375 L 386,283.84375 417.125,188.0625 z"
       inkscape:connector-curvature="0"
       id="path27" /></g></svg>