<?xml version="1.0" encoding="UTF-8" standalone="no"?>
<!-- Created with Inkscape (http://www.inkscape.org/) -->

<svg
   xmlns:dc="http://purl.org/dc/elements/1.1/"
   xmlns:cc="http://creativecommons.org/ns#"
   xmlns:rdf="http://www.w3.org/1999/02/22-rdf-syntax-ns#"
   xmlns:svg="http://www.w3.org/2000/svg"
   xmlns="http://www.w3.org/2000/svg"
   xmlns:inkscape="http://www.inkscape.org/namespaces/inkscape"
   version="1.1"
   width="100%"
   height="100%"
   viewBox="0 0 788.34448 301.051"
   id="svg2"
   xml:space="preserve"
   style="fill-rule:evenodd;stroke-linecap:round;stroke-linejoin:round"><metadata
     id="metadata27"><rdf:RDF><cc:Work
         rdf:about=""><dc:format>image/svg+xml</dc:format><dc:type
           rdf:resource="http://purl.org/dc/dcmitype/StillImage" /></cc:Work></rdf:RDF></metadata><defs
     id="defs4"><clipPath
       id="clipId0"><path
         d="M 0,600 800,600 800,0 0,0 z"
         inkscape:connector-curvature="0"
         id="path7" /></clipPath></defs><g
     transform="translate(-5.50752,-148.681)"
     clip-path="url(#clipId0)"
     id="g9"
     style="fill:none;stroke:#000000;stroke-width:0.1" /><g
     transform="translate(-5.50752,-148.681)"
     clip-path="url(#clipId0)"
     id="g11"
     style="fill:#000000;stroke:none"><path
       d="M 28.4692,438.251 5.50752,415.289 272.116,148.681 l 0,45.924 z"
       inkscape:connector-curvature="0"
       id="path13" /><path
       d="m 272.116,194.605 0,-45.924 255.127,255.128 0,45.923 z"
       inkscape:connector-curvature="0"
       id="path15" /><path
       d="m 527.243,449.732 0,-45.923 243.647,-243.647 22.962,22.962 z"
       inkscape:connector-curvature="0"
       id="path17" /><path
       d="m 5.50752,183.124 22.96168,-22.962 243.6468,243.647 0,45.923 z"
       inkscape:connector-curvature="0"
       id="path19" /><path
       d="m 272.116,449.732 0,-45.923 255.127,-255.128 0,45.924 z"
       inkscape:connector-curvature="0"
       id="path21" /><path
       d="m 527.243,194.605 0,-45.924 266.609,266.608 -22.962,22.962 z"
       inkscape:connector-curvature="0"
       id="path23" /></g></svg>