<?xml version="1.0" standalone="no"?>
<!DOCTYPE svg PUBLIC "-//W3C//DTD SVG 1.1//EN"
 "http://www.w3.org/Graphics/SVG/1.1/DTD/svg11.dtd">
<!-- Created with svg_stack (http://github.com/astraw/svg_stack) -->
<svg xmlns:sodipodi="http://sodipodi.sourceforge.net/DTD/sodipodi-0.dtd" xmlns="http://www.w3.org/2000/svg" version="1.1" width="790.0" height="1591.25">
  <defs/>
  <g id="id0:id0" transform="matrix(1.25,0,0,1.25,0.0,0.0)"><g transform="translate(0.000000,1273.000000) scale(0.100000,-0.100000)" fill="#181512" stroke="none">
<path d="M1581 8008 c-866 -2598 -1576 -4727 -1577 -4733 -5 -13 485 -180 496 -169 4 5 603 1799 1331 3987 728 2187 1326 3977 1329 3977 3 0 601 -1790 1329 -3977 728 -2188 1327 -3982 1331 -3987 11 -11 501 156 496 169 -1 6 -711 2135 -1577 4733 -866 2597 -1576 4722 -1579 4722 -3 0 -713 -2125 -1579 -4722z"/>
<path d="M3147 6672 c-142 -46 -236 -81 -233 -87 2 -6 196 -592 431 -1301 235 -709 431 -1293 435 -1298 6 -6 482 136 497 148 1 1 -193 589 -430 1306 -301 906 -437 1305 -447 1307 -8 1 -122 -33 -253 -75z"/>
<path d="M2900 1855 l0 -1325 -1325 0 -1325 0 0 -265 0 -265 2910 0 2910 0 0 265 0 265 -1325 0 -1325 0 0 1325 0 1325 -260 0 -260 0 0 -1325z"/>
</g>
</g>
  <g id="id1:id1" transform="matrix(1.25,0,0,1.25,0.0,0.0)"><g transform="translate(0.000000,1273.000000) scale(0.100000,-0.100000)" fill="#ffffff" stroke="none">
</g>
</g>
</svg>
