<?xml version="1.0" encoding="UTF-8" standalone="no"?>
<!-- Created with Inkscape (http://www.inkscape.org/) -->

<svg
   xmlns:dc="http://purl.org/dc/elements/1.1/"
   xmlns:cc="http://creativecommons.org/ns#"
   xmlns:rdf="http://www.w3.org/1999/02/22-rdf-syntax-ns#"
   xmlns:svg="http://www.w3.org/2000/svg"
   xmlns="http://www.w3.org/2000/svg"
   xmlns:inkscape="http://www.inkscape.org/namespaces/inkscape"
   version="1.1"
   width="100%"
   height="100%"
   viewBox="0 0 350.42785 350.68493"
   id="svg41431"
   xml:space="preserve"
   style="fill-rule:evenodd;stroke-linecap:round;stroke-linejoin:round"><metadata
     id="metadata41766"><rdf:RDF><cc:Work
         rdf:about=""><dc:format>image/svg+xml</dc:format><dc:type
           rdf:resource="http://purl.org/dc/dcmitype/StillImage" /></cc:Work></rdf:RDF></metadata><defs
     id="defs41433"><clipPath
       id="clipId0"><path
         d="M 0,600 800,600 800,0 0,0 z"
         inkscape:connector-curvature="0"
         id="path41436" /></clipPath></defs><g
     transform="translate(-224.73991,-124.37413)"
     clip-path="url(#clipId0)"
     id="g41438"
     style="fill:none;stroke:#000000;stroke-width:0.1" /><g
     transform="translate(-224.73991,-124.37413)"
     clip-path="url(#clipId0)"
     id="g41440"
     style="fill:#ffffff;stroke:none"><path
       d="m 399.9375,131.90625 c -52.24581,-0.13596 -103.72097,25.59412 -134.63339,67.76713 -34.12288,45.22565 -42.67688,108.15208 -21.66952,160.79243 20.28468,53.58079 69.95106,94.56144 126.42655,104.25343 56.61605,10.76874 117.86051,-10.49755 155.62498,-54.03823 38.25224,-42.64646 51.86616,-105.56572 34.56209,-160.19576 C 543.83127,195.24572 496.81459,150.62911 440.81492,137.04578 427.44843,133.6425 413.71654,132.126 399.9375,131.90625 z"
       inkscape:connector-curvature="0"
       id="path41596" /></g><g
     transform="translate(-224.73991,-124.37413)"
     clip-path="url(#clipId0)"
     id="g41598"
     style="fill:#000000;stroke:none"><path
       d="m 399.625,124.375 c -58.45146,-0.19117 -115.86287,31.01101 -147.05415,80.50998 -33.07263,50.32757 -36.97224,117.9769 -10.07365,171.83991 25.87005,54.00245 81.1795,92.27965 140.83755,97.46768 59.56291,6.17127 121.11155,-21.00891 156.68964,-69.17649 36.16625,-47.28909 45.32465,-113.49045 23.2445,-168.79603 -21.27312,-56.34815 -73.71283,-99.23665 -133.09475,-109.16281 -9.88034,-1.79677 -19.9243,-2.44091 -29.95539,-2.68224 -0.3135,4.84517 -0.0617,13.74418 -0.59375,0 z m 0.3125,15.09375 c 53.47529,-0.22642 106.00428,28.21784 134.59731,73.47656 31.90459,48.38818 34.06041,114.36024 5.27743,164.68555 -26.9136,49.60289 -81.81857,82.11442 -138.21444,82.24056 -57.27485,1.08896 -113.65009,-31.3524 -141.19181,-81.62728 C 232.1712,329.3822 233.14463,265.6036 262.48485,217.4476 290.26271,170.27899 343.52202,139.67868 398.2772,139.53483 l 0.99111,-0.0394 0.66919,-0.0266 z"
       inkscape:connector-curvature="0"
       id="path41758" /></g><g
     transform="translate(-224.73991,-124.37413)"
     clip-path="url(#clipId0)"
     id="g41760"
     style="fill:none;stroke:#000000;stroke-width:0.25"><polyline
       points="399.933,131.912 399.933,131.912 "
       id="polyline41762" /></g></svg>