<?xml version="1.0" encoding="UTF-8" standalone="no"?>
<svg
   xmlns:dc="http://purl.org/dc/elements/1.1/"
   xmlns:cc="http://creativecommons.org/ns#"
   xmlns:rdf="http://www.w3.org/1999/02/22-rdf-syntax-ns#"
   xmlns:svg="http://www.w3.org/2000/svg"
   xmlns="http://www.w3.org/2000/svg"
   xmlns:sodipodi="http://sodipodi.sourceforge.net/DTD/sodipodi-0.dtd"
   xmlns:inkscape="http://www.inkscape.org/namespaces/inkscape"
   viewBox="0 0 788.51133 223.33096"
   version="1.1"
   xml:space="preserve"
   id="svg2"
   inkscape:version="0.48.3.1 r9886"
   width="100%"
   height="100%"
   sodipodi:docname="alkis3562.svg"
   style="fill-rule:evenodd;stroke-linecap:round;stroke-linejoin:round"><metadata
   id="metadata131"><rdf:RDF><cc:Work
       rdf:about=""><dc:format>image/svg+xml</dc:format><dc:type
         rdf:resource="http://purl.org/dc/dcmitype/StillImage" /></cc:Work></rdf:RDF></metadata><sodipodi:namedview
   pagecolor="#ffffff"
   bordercolor="#666666"
   borderopacity="1"
   objecttolerance="10"
   gridtolerance="10"
   guidetolerance="10"
   inkscape:pageopacity="0"
   inkscape:pageshadow="2"
   inkscape:window-width="1855"
   inkscape:window-height="1025"
   id="namedview129"
   showgrid="false"
   inkscape:zoom="0.78666667"
   inkscape:cx="734.26824"
   inkscape:cy="242.69383"
   inkscape:window-x="0"
   inkscape:window-y="33"
   inkscape:window-maximized="1"
   inkscape:current-layer="svg2" />
<defs
   id="defs4">
<clipPath
   id="clipId0">
<path
   d="M 0,600 800,600 800,0 0,0 z"
   id="path7"
   inkscape:connector-curvature="0" />
</clipPath>
</defs>
<g
   clip-path="url(#clipId0)"
   id="g9"
   style="fill:none;stroke:#000000;stroke-width:0.1"
   transform="translate(-7.9500436,-189.89439)" />
<g
   clip-path="url(#clipId0)"
   id="g11"
   style="fill:#000000;stroke:none"
   transform="translate(-7.9500436,-189.89439)">

























































<path
   d="m 60.90625,190.25 c -29.593065,15.91479 -43.057881,49.88021 -50.037046,81.10358 -9.6294694,48.59239 4.795398,102.40264 39.858341,137.73728 17.550114,7.19257 37.368855,2.5235 56.073675,3.84664 212.27459,0 424.54919,0 636.82378,0 14.01778,-2.57255 20.56209,-15.90447 28.39711,-26.65505 37.71898,-57.42071 31.08212,-138.8409 -15.1037,-189.63411 -15.06077,-11.28872 -35.08154,-4.58663 -52.63195,-6.39834 -214.46007,0 -428.92014,0 -643.38021,0 z M 41.9375,301.59375 c 240.22917,0 480.45833,0 720.6875,0 0.08,27.85745 -9.63794,55.57771 -26.96875,77.375 -222.25,0 -444.5,0 -666.75,0 -17.382785,-21.76608 -27.06569,-49.52033 -26.96875,-77.375 z"
   id="path127"
   inkscape:connector-curvature="0" />
</g>
</svg>