<?xml version="1.0" encoding="UTF-8" standalone="no"?>
<svg
   xmlns:dc="http://purl.org/dc/elements/1.1/"
   xmlns:cc="http://creativecommons.org/ns#"
   xmlns:rdf="http://www.w3.org/1999/02/22-rdf-syntax-ns#"
   xmlns:svg="http://www.w3.org/2000/svg"
   xmlns="http://www.w3.org/2000/svg"
   xmlns:sodipodi="http://sodipodi.sourceforge.net/DTD/sodipodi-0.dtd"
   xmlns:inkscape="http://www.inkscape.org/namespaces/inkscape"
   viewBox="0 0 380.85173 381.10843"
   version="1.1"
   xml:space="preserve"
   id="svg69299"
   inkscape:version="0.48.3.1 r9886"
   width="100%"
   height="100%"
   sodipodi:docname="alkis3023.svg"
   style="fill-rule:evenodd;stroke-linecap:round;stroke-linejoin:round"><metadata
   id="metadata69792"><rdf:RDF><cc:Work
       rdf:about=""><dc:format>image/svg+xml</dc:format><dc:type
         rdf:resource="http://purl.org/dc/dcmitype/StillImage" /></cc:Work></rdf:RDF></metadata><sodipodi:namedview
   pagecolor="#ffffff"
   bordercolor="#666666"
   borderopacity="1"
   objecttolerance="10"
   gridtolerance="10"
   guidetolerance="10"
   inkscape:pageopacity="0"
   inkscape:pageshadow="2"
   inkscape:window-width="1855"
   inkscape:window-height="1025"
   id="namedview69790"
   showgrid="false"
   inkscape:zoom="1.1125147"
   inkscape:cx="192.46962"
   inkscape:cy="350.0467"
   inkscape:window-x="0"
   inkscape:window-y="33"
   inkscape:window-maximized="1"
   inkscape:current-layer="svg69299" />
<defs
   id="defs69301">
<clipPath
   id="clipId0">
<path
   d="M 0,600 800,600 800,0 0,0 z"
   id="path69304"
   inkscape:connector-curvature="0" />
</clipPath>
</defs>
<g
   clip-path="url(#clipId0)"
   id="g69306"
   style="fill:none;stroke:#000000;stroke-width:0.1"
   transform="translate(-209.32811,-108.06247)" />
<g
   clip-path="url(#clipId0)"
   id="g69308"
   style="fill:#ffffff;stroke:none"
   transform="translate(-209.32811,-108.06247)">













































































<path
   d="m 399.71875,128.46875 c -53.30765,-0.1385 -105.78003,26.31725 -137.10518,69.49466 -34.31851,46.07121 -42.58242,109.89059 -21.04158,163.15628 20.89306,54.21275 71.49245,95.47285 128.81421,104.99532 57.14418,10.53467 118.73975,-11.07818 156.84144,-54.94269 C 565.83073,368.178 579.6822,304.83166 562.57908,249.64185 546.2577,193.54385 498.82867,148.0102 442.12165,133.94323 c -13.83093,-3.65578 -28.11391,-5.25434 -42.4029,-5.47448 z"
   id="path69464"
   inkscape:connector-curvature="0" />
</g>
<g
   clip-path="url(#clipId0)"
   id="g69466"
   style="fill:#cccccc;stroke:none"
   transform="translate(-209.32811,-108.06247)">















































































<path
   d="m 398.9375,108.0625 c -63.3686,-0.038 -125.53538,33.83241 -159.36522,87.49405 -36.16222,55.00848 -40.19702,129.03192 -10.47952,187.74449 28.1864,57.81938 87.41418,98.96723 151.51994,104.80229 65.05957,7.18709 132.52554,-22.36523 171.37862,-75.04586 39.30688,-51.398 49.2479,-123.34691 25.25898,-183.4574 -23.02597,-60.86643 -79.46939,-107.37503 -143.60249,-118.40176 -11.39198,-2.3561 -23.32507,-2.73274 -34.71031,-3.13581 z m 0.8125,40.84375 c 54.43589,-0.37508 107.46456,31.51426 132.37184,79.96176 27.82226,51.33447 21.3495,118.7129 -15.95535,163.67884 -36.26908,46.24129 -101.34031,66.84317 -157.61099,49.88643 -56.71803,-15.39689 -101.02276,-67.32451 -107.3261,-125.75337 -7.5662,-56.11816 20.43797,-114.84579 68.58142,-144.57963 23.7856,-15.09509 51.78827,-23.06656 79.93918,-23.19403 z"
   id="path69626"
   inkscape:connector-curvature="0" />
</g>
<g
   clip-path="url(#clipId0)"
   id="g69628"
   style="fill:none;stroke:#cccccc;stroke-width:0.25"
   transform="translate(-209.32811,-108.06247)">
<polyline
   points="399.733,128.474 399.733,128.474 "
   id="polyline69630" />
</g>
<g
   clip-path="url(#clipId0)"
   id="g69632"
   style="fill:#cccccc;stroke:none"
   transform="translate(-209.32811,-108.06247)">













































































<path
   d="m 399.71875,241.90625 c -19.04454,-0.0899 -37.74325,10.14259 -47.83819,26.30736 -10.44886,16.17241 -11.71511,37.74121 -3.211,55.02017 8.25275,17.52785 26.10319,29.9971 45.39043,31.77523 19.24277,2.11301 39.19726,-6.56953 50.79056,-22.07438 11.93443,-15.38629 14.90993,-37.10174 7.60329,-55.14708 -6.95089,-18.08735 -23.8477,-31.80653 -42.94542,-35.01087 -3.22848,-0.60297 -6.50929,-0.81582 -9.78967,-0.87043 z"
   id="path69788"
   inkscape:connector-curvature="0" />
</g>
</svg>