<?xml version="1.0" encoding="UTF-8" standalone="no"?>
<!-- Created with Inkscape (http://www.inkscape.org/) -->

<svg
   xmlns:dc="http://purl.org/dc/elements/1.1/"
   xmlns:cc="http://creativecommons.org/ns#"
   xmlns:rdf="http://www.w3.org/1999/02/22-rdf-syntax-ns#"
   xmlns:svg="http://www.w3.org/2000/svg"
   xmlns="http://www.w3.org/2000/svg"
   xmlns:inkscape="http://www.inkscape.org/namespaces/inkscape"
   version="1.1"
   width="100%"
   height="100%"
   viewBox="0 0 112.53125 350.95887"
   id="svg2"
   xml:space="preserve"
   style="fill-rule:evenodd;stroke-linecap:round;stroke-linejoin:round"><metadata
     id="metadata207"><rdf:RDF><cc:Work
         rdf:about=""><dc:format>image/svg+xml</dc:format><dc:type
           rdf:resource="http://purl.org/dc/dcmitype/StillImage" /></cc:Work></rdf:RDF></metadata><defs
     id="defs4"><clipPath
       id="clipId0"><path
         d="M 0,600 800,600 800,0 0,0 z"
         inkscape:connector-curvature="0"
         id="path7" /></clipPath></defs><g
     transform="translate(-343.09375,-124.28125)"
     clip-path="url(#clipId0)"
     id="g9"
     style="fill:none;stroke:#000000;stroke-width:0.1" /><g
     transform="translate(-343.09375,-124.28125)"
     clip-path="url(#clipId0)"
     id="g11"
     style="fill:#000000;stroke:none"><path
       d="m 343.09375,124.28125 0,294.6875 0.0312,0 c -0.002,9.79786 2.50624,19.58739 7.5,28.0625 9.95501,17.7848 30.2654,29.07932 50.625,28.15625 19.75965,-0.45071 38.71701,-12.3337 47.8125,-29.875 4.35732,-8.07185 6.50458,-17.20448 6.5,-26.34375 l 0.0625,0 0,-294.6875 -112.53125,0 z m 17.15625,17.15625 39.09375,0 0,39.125 39.125,0 0,47.6875 -39.125,0 0,47.6875 39.125,0 0,47.6875 -39.125,0 0,39.15625 c -1.47112,0.005 -2.93623,0.0383 -4.40625,0.0937 -12.93529,0.9843 -25.36589,6.73303 -34.6875,15.6875 l 0,-54.9375 39.09375,0 0,-47.6875 -39.09375,0 0,-47.6875 39.09375,0 0,-47.6875 -39.09375,0 0,-39.125 z m 68.90625,229.875 9.3125,0 0,7.21875 c -2.83727,-2.72447 -5.97258,-5.13521 -9.3125,-7.21875 z m -29.8125,8.5625 c 14.82534,-0.0744 29.26786,8.9741 35.375,22.53125 6.87921,14.07944 3.93901,32.12121 -6.9375,43.375 -10.5829,11.53839 -28.40633,15.52151 -42.875,9.5 -14.43405,-5.51933 -24.58407,-20.30779 -24.625,-35.75 -0.38199,-15.43806 9.34545,-30.52545 23.625,-36.4375 4.8623,-2.10764 10.14269,-3.1619 15.4375,-3.21875 z"
       inkscape:connector-curvature="0"
       id="path171" /></g><g
     transform="translate(-343.09375,-124.28125)"
     clip-path="url(#clipId0)"
     id="g173"
     style="fill:none;stroke:#000000;stroke-width:0.25"><polyline
       points="399.354,371.298 399.354,371.298 "
       id="polyline175" /></g><g
     transform="translate(-343.09375,-124.28125)"
     clip-path="url(#clipId0)"
     id="g177"
     style="fill:#000000;stroke:none" /></svg>