<?xml version="1.0" encoding="UTF-8" standalone="no"?>
<!-- Created with Inkscape (http://www.inkscape.org/) -->

<svg
   xmlns:dc="http://purl.org/dc/elements/1.1/"
   xmlns:cc="http://creativecommons.org/ns#"
   xmlns:rdf="http://www.w3.org/1999/02/22-rdf-syntax-ns#"
   xmlns:svg="http://www.w3.org/2000/svg"
   xmlns="http://www.w3.org/2000/svg"
   xmlns:inkscape="http://www.inkscape.org/namespaces/inkscape"
   version="1.1"
   width="100%"
   height="100%"
   viewBox="0 0 788.51133 223.33096"
   id="svg2"
   xml:space="preserve"
   style="fill-rule:evenodd;stroke-linecap:round;stroke-linejoin:round"><metadata
     id="metadata131"><rdf:RDF><cc:Work
         rdf:about=""><dc:format>image/svg+xml</dc:format><dc:type
           rdf:resource="http://purl.org/dc/dcmitype/StillImage" /></cc:Work></rdf:RDF></metadata><defs
     id="defs4"><clipPath
       id="clipId0"><path
         d="M 0,600 800,600 800,0 0,0 z"
         inkscape:connector-curvature="0"
         id="path7" /></clipPath></defs><g
     transform="translate(-7.9500436,-189.89439)"
     clip-path="url(#clipId0)"
     id="g9"
     style="fill:none;stroke:#000000;stroke-width:0.1" /><g
     transform="translate(-7.9500436,-189.89439)"
     clip-path="url(#clipId0)"
     id="g11"
     style="fill:#000000;stroke:none"><path
       d="m 60.90625,190.25 c -29.593065,15.91479 -43.057881,49.88021 -50.037046,81.10358 -9.6294694,48.59239 4.795398,102.40264 39.858341,137.73728 17.550114,7.19257 37.368855,2.5235 56.073675,3.84664 212.27459,0 424.54919,0 636.82378,0 14.01778,-2.57255 20.56209,-15.90447 28.39711,-26.65505 37.71898,-57.42071 31.08212,-138.8409 -15.1037,-189.63411 -15.06077,-11.28872 -35.08154,-4.58663 -52.63195,-6.39834 -214.46007,0 -428.92014,0 -643.38021,0 z M 41.9375,301.59375 c 240.22917,0 480.45833,0 720.6875,0 0.08,27.85745 -9.63794,55.57771 -26.96875,77.375 -222.25,0 -444.5,0 -666.75,0 -17.382785,-21.76608 -27.06569,-49.52033 -26.96875,-77.375 z"
       inkscape:connector-curvature="0"
       id="path127" /></g></svg>