<?xml version="1.0" standalone="no"?>
<!DOCTYPE svg PUBLIC "-//W3C//DTD SVG 1.1//EN"
 "http://www.w3.org/Graphics/SVG/1.1/DTD/svg11.dtd">
<!-- Created with svg_stack (http://github.com/astraw/svg_stack) -->
<svg xmlns:sodipodi="http://sodipodi.sourceforge.net/DTD/sodipodi-0.dtd" xmlns="http://www.w3.org/2000/svg" version="1.1" width="1992.5" height="1070.0">
  <defs/>
  <g id="id0:id0" transform="matrix(1.25,0,0,1.25,0.0,0.0)"><g transform="translate(0.000000,856.000000) scale(0.100000,-0.100000)" fill="#999999" stroke="none">
<path d="M7150 8549 c-622 -28 -1094 -104 -1517 -245 -239 -79 -330 -131 -460 -260 -137 -137 -178 -278 -133 -455 27 -106 72 -180 157 -259 90 -84 174 -137 318 -198 135 -58 208 -82 345 -112 296 -66 496 -100 765 -129 452 -48 487 -50 875 -62 330 -10 399 -9 725 10 828 47 1431 154 1771 316 226 107 329 193 394 330 68 145 63 297 -17 444 -74 138 -150 202 -356 301 -198 95 -527 187 -807 226 -58 8 -128 19 -155 24 -110 22 -383 51 -615 65 -260 15 -989 18 -1290 4z m1235 -704 c365 -23 618 -49 713 -74 20 -6 71 -15 112 -21 83 -13 190 -39 203 -50 24 -21 -439 -101 -753 -130 -63 -6 -182 -17 -265 -25 -252 -25 -814 -30 -1155 -11 -385 21 -805 72 -1095 132 l-139 29 59 16 c243 67 806 135 1227 149 442 14 682 10 1093 -15z m-2930 -65 c38 -38 67 -70 64 -70 -2 0 -36 32 -74 70 -38 39 -67 70 -64 70 2 0 36 -31 74 -70z m4535 -44 c0 -2 -8 -10 -17 -17 -16 -13 -17 -12 -4 4 13 16 21 21 21 13z"/>
<path d="M3160 3734 c-182 -15 -632 -80 -845 -123 -490 -98 -875 -224 -1265 -414 -205 -100 -504 -310 -650 -457 -262 -265 -415 -614 -395 -900 22 -303 167 -606 398 -826 98 -94 265 -225 396 -312 189 -125 635 -324 906 -405 334 -99 391 -113 739 -176 403 -74 627 -97 1071 -111 712 -23 1341 35 1934 176 603 144 1139 373 1489 636 184 138 413 398 495 563 67 136 117 358 117 522 0 253 -142 568 -360 797 -222 233 -539 441 -915 599 -175 73 -490 180 -639 217 -67 17 -130 35 -141 40 -24 11 -434 92 -613 120 -70 11 -273 31 -452 45 -275 21 -386 25 -720 23 -223 0 -463 -6 -550 -14z m1465 -727 c426 -56 593 -89 923 -183 406 -116 714 -258 962 -445 136 -102 230 -206 292 -324 42 -78 43 -83 42 -170 -1 -145 -40 -223 -186 -380 -146 -156 -480 -357 -763 -459 -120 -43 -306 -99 -550 -165 -168 -46 -467 -102 -730 -137 -137 -18 -674 -43 -935 -44 -381 0 -967 65 -1349 151 -138 30 -499 134 -616 176 -117 41 -405 179 -520 247 -106 63 -275 197 -340 269 -96 106 -161 259 -152 356 15 158 111 294 337 476 71 58 271 173 420 243 471 219 1021 350 1750 417 103 9 290 12 640 11 l495 -3 280 -36z"/>
<path d="M12005 3735 c-696 -37 -1371 -147 -1798 -294 -33 -11 -99 -43 -147 -71 -188 -108 -278 -200 -330 -336 -30 -80 -31 -88 -24 -176 12 -162 82 -269 264 -402 151 -112 433 -208 820 -280 271 -50 293 -53 670 -92 611 -62 1342 -87 1850 -64 467 21 1042 71 1275 111 523 90 660 124 885 221 251 107 376 217 441 385 29 74 30 83 24 173 -6 83 -12 105 -47 173 -69 139 -220 265 -401 337 -246 97 -662 193 -1014 235 -70 8 -168 22 -218 30 -49 8 -121 15 -160 15 -38 0 -108 5 -155 10 -318 38 -1415 52 -1935 25z m1880 -714 c405 -44 553 -63 630 -77 44 -8 125 -21 180 -29 159 -22 164 -28 44 -53 -57 -11 -129 -24 -159 -27 -30 -4 -102 -15 -160 -25 -58 -11 -163 -24 -235 -30 -71 -6 -204 -17 -295 -25 -91 -8 -336 -22 -545 -32 -333 -15 -437 -15 -845 -5 -507 13 -550 16 -1030 67 -307 34 -496 60 -620 89 l-55 12 115 22 c623 116 1018 142 2075 137 641 -2 728 -5 900 -24z m-3705 -116 c7 -8 8 -15 3 -15 -4 0 -42 35 -83 77 l-75 77 71 -62 c39 -34 77 -68 84 -77z m5390 122 c0 -2 -10 -12 -22 -23 l-23 -19 19 23 c18 21 26 27 26 19z m-5563 -123 c-3 -3 -12 -4 -19 -1 -8 3 -5 6 6 6 11 1 17 -2 13 -5z m60 -10 c-3 -3 -12 -4 -19 -1 -8 3 -5 6 6 6 11 1 17 -2 13 -5z m56 -11 c-7 -2 -19 -2 -25 0 -7 3 -2 5 12 5 14 0 19 -2 13 -5z"/>
</g>
</g>
  <g id="id1:id1" transform="matrix(1.25,0,0,1.25,0.0,0.0)"><g transform="translate(0.000000,856.000000) scale(0.100000,-0.100000)" fill="#ffffff" stroke="none">
</g>
</g>
</svg>
