<?xml version="1.0" standalone="no"?>
<!DOCTYPE svg PUBLIC "-//W3C//DTD SVG 1.1//EN"
 "http://www.w3.org/Graphics/SVG/1.1/DTD/svg11.dtd">
<!-- Created with svg_stack (http://github.com/astraw/svg_stack) -->
<svg xmlns:sodipodi="http://sodipodi.sourceforge.net/DTD/sodipodi-0.dtd" xmlns="http://www.w3.org/2000/svg" version="1.1" width="1965.0" height="1065.0">
  <defs/>
  <g id="id0:id0" transform="matrix(1.25,0,0,1.25,0.0,0.0)"><g transform="translate(0.000000,852.000000) scale(0.100000,-0.100000)" fill="#000000" stroke="none">
<path d="M3927 4597 l-3928 -3922 340 -340 341 -340 1803 1800 c991 990 2606 2603 3590 3585 l1787 1785 3584 -3584 3585 -3585 347 340 347 339 -3929 3922 c-2161 2157 -3931 3922 -3934 3922 -3 0 -1773 -1765 -3933 -3922z"/>
</g>
</g>
  <g id="id1:id1" transform="matrix(1.25,0,0,1.25,0.0,0.0)"><g transform="translate(0.000000,852.000000) scale(0.100000,-0.100000)" fill="#ffffff" stroke="none">
</g>
</g>
</svg>
