<?xml version="1.0" standalone="no"?>
<!DOCTYPE svg PUBLIC "-//W3C//DTD SVG 1.1//EN"
 "http://www.w3.org/Graphics/SVG/1.1/DTD/svg11.dtd">
<!-- Created with svg_stack (http://github.com/astraw/svg_stack) -->
<svg xmlns:sodipodi="http://sodipodi.sourceforge.net/DTD/sodipodi-0.dtd" xmlns="http://www.w3.org/2000/svg" version="1.1" width="980.0" height="1596.25">
  <defs/>
  <g id="id0:id0" transform="matrix(1.25,0,0,1.25,0.0,0.0)"><g transform="translate(0.000000,1277.000000) scale(0.100000,-0.100000)" fill="#000000" stroke="none">
<path d="M0 10695 l0 -2075 1850 0 1850 0 0 -2245 0 -2244 -32 -5 c-267 -41 -499 -113 -695 -216 -74 -39 -167 -92 -207 -119 -395 -267 -675 -642 -821 -1100 -77 -242 -90 -335 -90 -626 0 -287 16 -390 96 -640 142 -444 422 -811 826 -1083 84 -57 310 -174 408 -212 344 -131 743 -163 1140 -90 244 45 486 143 695 280 398 262 664 587 838 1025 108 272 154 704 108 1010 -41 266 -100 449 -217 671 -208 394 -545 722 -934 909 -138 66 -387 147 -525 169 -58 10 -115 20 -127 22 l-23 4 0 2245 0 2245 1850 0 1850 0 0 2075 0 2075 -3920 0 -3920 0 0 -2075z m7390 0 l0 -1625 -3475 0 -3475 0 0 1625 0 1625 3475 0 3475 0 0 -1625z m-3190 -7024 c571 -96 1083 -541 1259 -1096 108 -339 108 -688 -1 -1015 -75 -226 -126 -317 -309 -545 -91 -113 -122 -143 -279 -264 -153 -118 -366 -216 -591 -271 -132 -33 -138 -33 -364 -33 -229 0 -230 0 -370 35 -144 36 -290 92 -405 156 -436 240 -753 689 -830 1174 -80 504 80 1010 435 1376 135 141 238 219 414 316 153 84 303 137 471 166 149 26 416 26 570 1z"/>
</g>
</g>
  <g id="id1:id1" transform="matrix(1.25,0,0,1.25,0.0,0.0)"><g transform="translate(0.000000,1277.000000) scale(0.100000,-0.100000)" fill="#ffffff" stroke="none">
</g>
</g>
</svg>
