<?xml version="1.0" standalone="no"?>
<!DOCTYPE svg PUBLIC "-//W3C//DTD SVG 1.1//EN"
 "http://www.w3.org/Graphics/SVG/1.1/DTD/svg11.dtd">
<!-- Created with svg_stack (http://github.com/astraw/svg_stack) -->
<svg xmlns:sodipodi="http://sodipodi.sourceforge.net/DTD/sodipodi-0.dtd" xmlns="http://www.w3.org/2000/svg" version="1.1" width="587.5" height="1595.0">
  <defs/>
  <g id="id0:id0" transform="matrix(1.25,0,0,1.25,0.0,0.0)"><g transform="translate(0.000000,1276.000000) scale(0.100000,-0.100000)" fill="#000000" stroke="none">
<path d="M1720 8295 l0 -4465 -22 -4 c-13 -2 -66 -11 -118 -21 -196 -34 -356 -89 -545 -189 -213 -112 -269 -154 -483 -360 -122 -117 -289 -352 -359 -503 -117 -253 -184 -552 -186 -823 -1 -178 10 -268 58 -465 59 -246 122 -392 248 -583 118 -176 161 -227 322 -375 153 -142 216 -186 400 -283 144 -76 213 -104 350 -143 394 -114 755 -107 1140 21 116 38 345 149 460 223 82 52 311 253 378 332 79 91 240 335 282 425 77 168 147 410 176 608 46 316 -23 737 -176 1066 -72 157 -302 473 -397 547 -18 13 -67 55 -108 92 -97 86 -174 137 -351 229 -165 85 -333 145 -499 176 -63 12 -125 23 -137 26 l-23 4 0 3206 c0 2561 3 3204 13 3198 6 -4 524 -383 1150 -841 626 -459 1144 -836 1150 -839 11 -4 247 300 248 319 0 5 -493 370 -1096 812 -603 442 -1095 807 -1094 812 2 4 494 364 1094 798 600 435 1093 795 1094 800 4 10 -219 324 -230 325 -3 0 -528 -377 -1165 -838 l-1159 -838 -3 1008 -2 1008 -205 0 -205 0 0 -4465z m466 -4895 c160 -29 247 -55 362 -110 202 -96 336 -198 492 -373 172 -193 269 -375 339 -639 124 -466 -5 -980 -339 -1355 -156 -175 -277 -267 -485 -369 -127 -61 -205 -85 -400 -119 -180 -32 -291 -32 -470 0 -307 55 -463 126 -743 341 -65 50 -243 260 -296 349 -102 171 -138 256 -189 450 -31 118 -31 125 -32 345 0 222 1 227 32 345 52 194 87 279 189 450 53 89 231 299 296 349 265 204 431 283 703 335 143 27 394 28 541 1z"/>
</g>
</g>
  <g id="id1:id1" transform="matrix(1.25,0,0,1.25,0.0,0.0)"><g transform="translate(0.000000,1276.000000) scale(0.100000,-0.100000)" fill="#ffffff" stroke="none">
</g>
</g>
</svg>
