<?xml version="1.0" standalone="no"?>
<!DOCTYPE svg PUBLIC "-//W3C//DTD SVG 1.1//EN"
 "http://www.w3.org/Graphics/SVG/1.1/DTD/svg11.dtd">
<!-- Created with svg_stack (http://github.com/astraw/svg_stack) -->
<svg xmlns:sodipodi="http://sodipodi.sourceforge.net/DTD/sodipodi-0.dtd" xmlns="http://www.w3.org/2000/svg" version="1.1" width="1975.0" height="1595.0">
  <defs/>
  <g id="id0:id0" transform="matrix(1.25,0,0,1.25,0.0,0.0)"><g transform="translate(0.000000,1276.000000) scale(0.100000,-0.100000)" fill="#999999" stroke="none">
<path d="M10360 12754 c-329 -28 -428 -40 -560 -65 -392 -77 -789 -223 -1185 -436 -319 -172 -756 -514 -998 -781 -184 -204 -426 -540 -545 -757 -256 -467 -405 -939 -478 -1515 -25 -191 -25 -671 0 -860 74 -579 222 -1048 478 -1515 119 -217 361 -552 545 -757 163 -179 497 -467 708 -608 226 -151 622 -355 838 -431 317 -112 585 -177 927 -226 l185 -27 2763 -3 2762 -4 0 415 0 416 -1406 2 -1406 3 69 54 c384 306 736 723 977 1159 194 351 368 817 437 1175 60 312 72 443 72 777 0 334 -12 465 -73 780 -69 357 -237 809 -432 1165 -253 460 -607 874 -1014 1186 -373 286 -650 440 -1089 609 -317 121 -586 186 -915 221 -174 18 -560 32 -660 23z m560 -854 c250 -31 552 -102 740 -174 409 -156 669 -316 1026 -629 277 -242 572 -646 728 -995 214 -478 290 -829 289 -1337 0 -244 -8 -336 -54 -610 -60 -359 -260 -842 -480 -1155 -166 -236 -215 -296 -378 -459 -266 -267 -584 -489 -911 -636 -461 -208 -820 -285 -1325 -285 -517 1 -810 64 -1325 287 -190 82 -462 251 -655 407 -222 178 -502 487 -647 711 -171 266 -259 442 -331 660 -149 455 -191 691 -191 1085 0 329 32 554 120 860 96 329 179 519 344 786 122 197 176 269 338 454 214 243 515 487 812 657 120 69 143 80 375 174 224 92 502 163 780 198 201 26 541 27 745 1z"/>
<path d="M1586 5772 c-869 -3161 -1581 -5753 -1584 -5759 -3 -10 841 -13 4202 -13 l4206 0 0 420 0 420 -1152 0 -1153 0 -1465 5340 c-806 2937 -1467 5340 -1470 5340 -3 0 -716 -2587 -1584 -5748z m2622 -1160 c568 -2066 1033 -3760 1032 -3764 0 -5 -932 -8 -2071 -8 -1653 0 -2070 3 -2067 13 3 6 468 1701 1034 3764 566 2064 1031 3753 1034 3753 3 0 470 -1691 1038 -3758z"/>
</g>
</g>
  <g id="id1:id1" transform="matrix(1.25,0,0,1.25,0.0,0.0)"><g transform="translate(0.000000,1276.000000) scale(0.100000,-0.100000)" fill="#ffffff" stroke="none">
</g>
</g>
</svg>
