<?xml version="1.0" encoding="UTF-8" standalone="no"?>
<svg
   xmlns:dc="http://purl.org/dc/elements/1.1/"
   xmlns:cc="http://creativecommons.org/ns#"
   xmlns:rdf="http://www.w3.org/1999/02/22-rdf-syntax-ns#"
   xmlns:svg="http://www.w3.org/2000/svg"
   xmlns="http://www.w3.org/2000/svg"
   xmlns:sodipodi="http://sodipodi.sourceforge.net/DTD/sodipodi-0.dtd"
   xmlns:inkscape="http://www.inkscape.org/namespaces/inkscape"
   viewBox="0 0 346.58899 346.77579"
   version="1.1"
   xml:space="preserve"
   id="svg17088"
   inkscape:version="0.48.3.1 r9886"
   width="100%"
   height="100%"
   sodipodi:docname="alkis3436.svg"
   style="fill-rule:evenodd;stroke-linecap:round;stroke-linejoin:round"><metadata
   id="metadata17261"><rdf:RDF><cc:Work
       rdf:about=""><dc:format>image/svg+xml</dc:format><dc:type
         rdf:resource="http://purl.org/dc/dcmitype/StillImage" /></cc:Work></rdf:RDF></metadata><sodipodi:namedview
   pagecolor="#ffffff"
   bordercolor="#666666"
   borderopacity="1"
   objecttolerance="10"
   gridtolerance="10"
   guidetolerance="10"
   inkscape:pageopacity="0"
   inkscape:pageshadow="2"
   inkscape:window-width="1855"
   inkscape:window-height="1025"
   id="namedview17259"
   showgrid="false"
   inkscape:zoom="1.5733333"
   inkscape:cx="177.07996"
   inkscape:cy="170.7129"
   inkscape:window-x="0"
   inkscape:window-y="33"
   inkscape:window-maximized="1"
   inkscape:current-layer="svg17088" />
<defs
   id="defs17090">
<clipPath
   id="clipId0">
<path
   d="M 0,600 800,600 800,0 0,0 z"
   id="path17093"
   inkscape:connector-curvature="0" />
</clipPath>
</defs>
<g
   clip-path="url(#clipId0)"
   id="g17095"
   style="fill:none;stroke:#000000;stroke-width:0.1"
   transform="translate(-226.7336,-123.93712)" />
<g
   clip-path="url(#clipId0)"
   id="g17097"
   style="fill:#00ffff;stroke:none"
   transform="translate(-226.7336,-123.93712)">













































































<path
   d="m 400,123.9375 c -53.97801,-0.11699 -107.17784,26.4568 -139.12038,70.03258 -35.253,46.7296 -44.08834,111.74859 -22.38878,166.13756 21.06487,55.69641 72.8854,98.16082 131.62209,107.93628 58.2375,10.69092 121.03197,-11.2873 159.82509,-56.03919 C 569.49167,367.94739 583.5454,302.9145 565.66901,246.45843 548.85605,190.05246 501.22827,144.24034 444.1509,129.78451 429.77042,125.89535 414.88106,124.14805 400,123.9375 z"
   id="path17253"
   inkscape:connector-curvature="0" />
</g>
<g
   clip-path="url(#clipId0)"
   id="g17255"
   style="fill:#ffffff;stroke:none"
   transform="translate(-226.7336,-123.93712)">
<g
   transform="matrix(216.733,0,0,216.733,292.341,411.7)"
   style="font-size:1.39636004px;font-weight:bold;font-family:'Arial,\'sans-serif\''"
   id="text17257"><path
     style="font-size:1.39636004px;font-weight:bold;font-family:'Arial,\'sans-serif\''"
     d="m 0.75340715,0 c -0.074318,-0.1215906 -0.14863598,-0.24318119 -0.22295397,-0.36477179 -0.0786362,0 -0.15727232,0 -0.23590848,0 0,0.1215906 0,0.24318119 0,0.36477179 -0.0670453,0 -0.13409057,0 -0.20113585,0 0,-0.32022645 0,-0.64045289 0,-0.96067934 0.17274998,5.951e-4 0.34554181,-0.001227 0.51826404,9.7926e-4 0.10985187,0.004837 0.23452319,0.0434739 0.28887303,0.14738014 0.0609072,0.11864183 0.034275,0.28239824 -0.0772531,0.36198051 -0.0306547,0.0226013 -0.0663722,0.0378152 -0.10329468,0.0467042 C 0.8065888,-0.26909019 0.8931795,-0.13454509 0.9797702,0 0.90431585,0 0.8288615,0 0.75340715,0 z m -0.0238636,-0.66613465 c 0.003777,-0.055586 -0.0320644,-0.10980222 -0.0861863,-0.12509143 -0.0684346,-0.0211849 -0.14083382,-0.0108116 -0.21134028,-0.0133173 -0.0458241,0 -0.0916482,0 -0.13747231,0 0,0.0945452 0,0.18909042 0,0.28363563 0.0983593,-8.0719e-4 0.19682085,0.001707 0.2951089,-0.001438 0.064171,-0.002071 0.12915029,-0.0462004 0.13733247,-0.11310674 0.001767,-0.0101247 0.002558,-0.0204085 0.002558,-0.0306822 z"
     id="path3946"
     inkscape:connector-curvature="0" /></g>


</g>
</svg>