<?xml version="1.0" standalone="no"?>
<!DOCTYPE svg PUBLIC "-//W3C//DTD SVG 1.1//EN"
 "http://www.w3.org/Graphics/SVG/1.1/DTD/svg11.dtd">
<!-- Created with svg_stack (http://github.com/astraw/svg_stack) -->
<svg xmlns:sodipodi="http://sodipodi.sourceforge.net/DTD/sodipodi-0.dtd" xmlns="http://www.w3.org/2000/svg" version="1.1" width="1582.5" height="1581.25">
  <defs/>
  <g id="id0:id0" transform="matrix(1.25,0,0,1.25,0.0,0.0)"><g transform="translate(0.000000,1265.000000) scale(0.100000,-0.100000)" fill="#000000" stroke="none">
<path d="M3158 9488 l-3157 -3163 3164 -3165 3165 -3165 3165 3165 3165 3165 -3162 3162 c-1740 1740 -3167 3163 -3173 3163 -5 0 -1431 -1423 -3167 -3162z m5660 -676 l2481 -2488 -2485 -2485 -2484 -2484 -2484 2484 -2485 2485 2481 2488 c1365 1368 2484 2488 2488 2488 4 0 1124 -1120 2488 -2488z"/>
</g>
</g>
  <g id="id1:id1" transform="matrix(1.25,0,0,1.25,0.0,0.0)"><g transform="translate(0.000000,1265.000000) scale(0.100000,-0.100000)" fill="#ffffff" stroke="none">
</g>
</g>
</svg>
