<?xml version="1.0" standalone="no"?>
<!DOCTYPE svg PUBLIC "-//W3C//DTD SVG 1.1//EN"
 "http://www.w3.org/Graphics/SVG/1.1/DTD/svg11.dtd">
<!-- Created with svg_stack (http://github.com/astraw/svg_stack) -->
<svg xmlns:sodipodi="http://sodipodi.sourceforge.net/DTD/sodipodi-0.dtd" xmlns="http://www.w3.org/2000/svg" version="1.1" width="883.75" height="1595.0">
  <defs/>
  <g id="id0:id0" transform="matrix(1.25,0,0,1.25,0.0,0.0)"><g transform="translate(0.000000,1276.000000) scale(0.100000,-0.100000)" fill="#000000" stroke="none">
<path d="M3025 12727 c-104 -16 -191 -31 -192 -32 -2 -1 71 -498 162 -1106 91 -607 165 -1108 165 -1113 0 -30 -511 74 -690 140 -394 145 -700 326 -975 578 -84 78 -86 79 -104 60 -10 -10 -69 -77 -131 -149 -63 -71 -122 -139 -132 -151 -18 -20 -17 -22 84 -110 326 -285 683 -495 1102 -650 187 -69 533 -147 779 -175 l107 -12 0 -1771 0 -1771 -67 3 c-38 1 -162 12 -278 23 -573 58 -1284 292 -1785 587 -220 130 -459 292 -624 425 -82 66 -154 120 -161 121 -7 0 -74 -75 -149 -169 -105 -131 -133 -172 -123 -181 6 -6 80 -65 162 -131 290 -231 696 -484 1010 -628 433 -199 825 -333 1185 -404 226 -44 588 -91 708 -91 42 0 87 -3 100 -6 l22 -6 -2 -1536 -3 -1536 -85 -17 c-229 -45 -420 -140 -632 -314 -175 -143 -288 -295 -403 -537 -175 -370 -163 -865 30 -1248 46 -92 176 -284 228 -338 118 -122 328 -275 464 -338 176 -81 450 -144 628 -144 98 0 321 36 438 71 153 45 378 171 526 294 153 127 320 356 381 523 94 256 99 274 115 432 14 129 15 175 5 280 -17 178 -23 207 -86 377 -61 167 -146 321 -227 416 -27 32 -64 75 -81 97 -78 97 -306 258 -481 341 -91 42 -227 84 -309 94 l-56 7 0 1539 0 1539 48 0 c26 0 153 11 282 25 513 52 990 182 1580 430 440 185 915 497 1357 892 l152 136 -32 37 c-76 88 -262 290 -267 290 -3 0 -63 -52 -135 -116 -316 -283 -534 -438 -920 -656 -532 -300 -1169 -499 -1815 -567 -107 -12 -207 -21 -222 -21 l-28 0 0 1775 0 1775 36 0 c170 0 730 132 954 225 308 128 437 196 675 356 133 89 233 170 412 337 l103 95 -151 158 c-83 88 -154 159 -158 159 -3 0 -82 -68 -176 -151 -224 -198 -427 -335 -663 -446 -206 -96 -451 -181 -657 -226 -129 -29 -392 -64 -402 -53 -5 5 -113 707 -353 2294 -1 6 -71 -3 -245 -31z m650 -10256 c275 -72 527 -269 654 -511 58 -110 87 -209 106 -356 15 -120 15 -140 0 -255 -28 -211 -85 -346 -214 -507 -44 -54 -97 -114 -118 -133 -109 -99 -280 -183 -463 -230 -138 -35 -317 -34 -450 4 -227 63 -347 131 -495 281 -94 96 -117 126 -161 211 -102 196 -140 353 -131 539 12 259 113 505 271 661 187 185 390 292 596 315 110 12 323 2 405 -19z"/>
</g>
</g>
  <g id="id1:id1" transform="matrix(1.25,0,0,1.25,0.0,0.0)"><g transform="translate(0.000000,1276.000000) scale(0.100000,-0.100000)" fill="#ffffff" stroke="none">
</g>
</g>
</svg>
