<?xml version="1.0" standalone="no"?>
<!DOCTYPE svg PUBLIC "-//W3C//DTD SVG 1.1//EN"
 "http://www.w3.org/Graphics/SVG/1.1/DTD/svg11.dtd">
<!-- Created with svg_stack (http://github.com/astraw/svg_stack) -->
<svg xmlns:sodipodi="http://sodipodi.sourceforge.net/DTD/sodipodi-0.dtd" xmlns="http://www.w3.org/2000/svg" version="1.1" width="1595.0" height="1596.25">
  <defs/>
  <g id="id0:id0" transform="matrix(1.25,0,0,1.25,0.0,0.0)"><g transform="translate(0.000000,1277.000000) scale(0.100000,-0.100000)" fill="#000000" stroke="none">
<path d="M5940 12245 c0 -374 -3 -525 -11 -525 -6 0 -90 -9 -187 -21 -407 -47 -897 -164 -1227 -293 -533 -207 -1066 -506 -1454 -814 l-144 -114 -368 368 -368 368 -316 -309 -316 -309 258 -260 c142 -144 309 -313 372 -377 l113 -117 -124 -158 c-269 -343 -423 -594 -635 -1032 -224 -464 -401 -1075 -463 -1600 -11 -97 -23 -187 -26 -199 l-4 -23 -520 0 -520 0 0 -445 0 -445 520 0 520 0 4 -22 c3 -13 15 -102 27 -198 49 -400 131 -737 295 -1200 167 -473 447 -972 801 -1422 67 -87 123 -161 123 -165 0 -4 -167 -175 -371 -379 l-370 -370 316 -309 316 -309 368 368 369 368 144 -115 c302 -239 745 -509 1078 -657 453 -201 779 -305 1215 -389 167 -32 516 -81 574 -81 8 0 11 -152 11 -530 l0 -530 440 0 440 0 0 530 c0 378 3 530 11 530 58 0 407 49 574 81 407 78 791 200 1215 389 312 139 768 419 1066 656 79 63 147 114 151 114 4 0 173 -165 375 -367 l368 -368 310 310 310 310 -370 370 -371 371 122 154 c233 296 509 743 650 1055 236 523 381 1035 448 1585 12 96 24 185 27 198 l4 22 525 0 525 0 0 445 0 445 -525 0 -525 0 -4 23 c-3 12 -15 101 -26 197 -28 238 -79 501 -150 770 -166 629 -520 1333 -936 1862 -68 87 -124 161 -124 166 0 4 164 175 364 378 l364 371 -309 309 -309 309 -368 -368 c-202 -202 -370 -367 -375 -367 -4 0 -71 51 -150 113 -396 316 -942 622 -1447 813 -359 136 -819 247 -1222 293 -97 12 -181 21 -187 21 -8 0 -11 151 -11 525 l0 525 -440 0 -440 0 0 -525z m960 -1419 c343 -41 681 -124 1035 -254 362 -133 581 -246 939 -485 386 -257 727 -574 1016 -945 231 -295 369 -519 536 -867 240 -501 375 -1059 414 -1711 31 -507 -79 -1204 -274 -1734 -186 -510 -473 -974 -903 -1465 -249 -285 -707 -648 -1101 -874 -488 -280 -1051 -462 -1667 -538 -185 -23 -246 -26 -515 -26 -267 0 -331 3 -515 26 -486 60 -955 191 -1355 377 -441 206 -726 398 -1155 776 -483 425 -926 1083 -1160 1721 -130 355 -181 562 -251 1034 -26 173 -27 205 -27 524 0 371 0 375 78 845 105 626 448 1384 870 1920 258 327 671 710 1015 940 327 218 584 349 952 484 355 129 686 211 1018 251 154 19 240 23 515 24 291 1 354 -2 535 -23z"/>
<path d="M3240 6385 l0 -3145 3140 0 3140 0 0 3145 0 3145 -3140 0 -3140 0 0 -3145z m5400 -5 l0 -2260 -2260 0 -2260 0 0 2260 0 2260 2260 0 2260 0 0 -2260z"/>
</g>
</g>
  <g id="id1:id1" transform="matrix(1.25,0,0,1.25,0.0,0.0)"><g transform="translate(0.000000,1277.000000) scale(0.100000,-0.100000)" fill="#ffffff" stroke="none">
</g>
</g>
</svg>
