<?xml version="1.0" standalone="no"?>
<!DOCTYPE svg PUBLIC "-//W3C//DTD SVG 1.1//EN"
 "http://www.w3.org/Graphics/SVG/1.1/DTD/svg11.dtd">
<!-- Created with svg_stack (http://github.com/astraw/svg_stack) -->
<svg xmlns:sodipodi="http://sodipodi.sourceforge.net/DTD/sodipodi-0.dtd" xmlns="http://www.w3.org/2000/svg" version="1.1" width="1031.25" height="1588.75">
  <defs/>
  <g id="id0:id0" transform="matrix(1.25,0,0,1.25,0.0,0.0)"><g transform="translate(0.000000,1271.000000) scale(0.100000,-0.100000)" fill="#000000" stroke="none">
<path d="M3635 12685 c-694 -92 -1238 -295 -1805 -675 -539 -362 -972 -829 -1299 -1403 -143 -251 -312 -664 -376 -917 -66 -262 -102 -437 -127 -615 l-23 -160 -2 -4457 -3 -4458 4125 0 4125 0 -3 4463 -2 4462 -23 158 c-78 543 -187 897 -419 1366 -211 426 -406 694 -768 1056 -277 278 -533 473 -885 675 -295 170 -555 279 -905 379 -198 57 -375 92 -640 126 -168 22 -225 25 -495 24 -255 -1 -333 -5 -475 -24z m790 -1550 c179 -19 300 -46 477 -106 430 -145 747 -336 1038 -629 135 -135 210 -228 312 -385 234 -363 307 -536 387 -920 46 -221 45 -83 48 -3902 l3 -3633 -2565 0 -2565 0 3 3623 2 3622 33 190 c35 208 61 307 129 490 95 256 238 506 418 727 213 262 402 421 725 610 164 96 535 236 738 279 224 47 567 62 817 34z"/>
</g>
</g>
  <g id="id1:id1" transform="matrix(1.25,0,0,1.25,0.0,0.0)"><g transform="translate(0.000000,1271.000000) scale(0.100000,-0.100000)" fill="#ffffff" stroke="none">
</g>
</g>
</svg>
