<?xml version="1.0" encoding="UTF-8" standalone="no"?>
<!-- Created with Inkscape (http://www.inkscape.org/) -->

<svg
   xmlns:dc="http://purl.org/dc/elements/1.1/"
   xmlns:cc="http://creativecommons.org/ns#"
   xmlns:rdf="http://www.w3.org/1999/02/22-rdf-syntax-ns#"
   xmlns:svg="http://www.w3.org/2000/svg"
   xmlns="http://www.w3.org/2000/svg"
   xmlns:inkscape="http://www.inkscape.org/namespaces/inkscape"
   version="1.1"
   width="100%"
   height="100%"
   viewBox="0 0 230.48524 351.50294"
   id="svg2"
   xml:space="preserve"
   style="fill-rule:evenodd;stroke-linecap:round;stroke-linejoin:round"><metadata
     id="metadata111"><rdf:RDF><cc:Work
         rdf:about=""><dc:format>image/svg+xml</dc:format><dc:type
           rdf:resource="http://purl.org/dc/dcmitype/StillImage" /></cc:Work></rdf:RDF></metadata><defs
     id="defs4"><clipPath
       id="clipId0"><path
         d="M 0,600 800,600 800,0 0,0 z"
         inkscape:connector-curvature="0"
         id="path7" /></clipPath></defs><g
     transform="translate(-283.93678,-123.90331)"
     clip-path="url(#clipId0)"
     id="g9"
     style="fill:none;stroke:#000000;stroke-width:0.1" /><path
     d="M 115.34447,0.00294295 C 73.439176,-0.30944705 32.615166,24.273513 13.474276,61.579643 2.3008761,81.987993 -0.85716387,105.62912 0.18821613,128.60784 c 0,74.29836 0,148.59673 0,222.8951 76.76041987,0 153.52083387,0 230.28125387,0 -0.0627,-81.15518 0.12576,-162.33052 -0.0949,-243.47294 C 227.93718,70.072443 205.86088,33.945013 172.57156,15.321153 155.29738,5.2655229 135.3,0.12723295 115.34445,0.00294295 z m 0,28.28125005 c 35.46789,-0.36128 69.59754,23.27403 81.38748,56.77749 8.43005,21.663107 4.5735,45.280157 5.45627,67.921827 0,56.74606 0,113.49212 0,170.23818 -57.90625,0 -115.812504,0 -173.718754,0 0.14861,-71.1355 -0.2982,-142.2824 0.22517,-213.41072 1.7043,-36.539837 29.132,-69.916267 64.66134,-78.640877 7.163064,-1.91324 14.584134,-2.75842 21.988494,-2.8859 z M 79.781966,233.12794 c -0.0163,23.70726 0.0341,47.41465 -0.0281,71.12182 23.707174,-0.0624 47.414564,-0.0117 71.121824,-0.0281 0,-23.69792 0,-47.39583 0,-71.09375 -23.69791,10e-6 -47.39581,2e-5 -71.093724,3e-5 z m 14.5625,14.53125 c 4.06121,1.07207 12.449724,-2.18317 13.718754,1.68108 0,13.45006 0,26.90011 0,40.35017 -4.06121,-1.07207 -12.449724,2.18317 -13.718754,-1.68108 0,-13.45006 0,-26.90011 0,-40.35017 z m 28.250004,0 c 4.07696,1.06673 12.46285,-2.17546 13.75,1.68108 0,13.45006 0,26.90011 0,40.35017 -4.07696,-1.06673 -12.46285,2.17546 -13.75,-1.68108 0,-13.45006 0,-26.90011 0,-40.35017 z"
     inkscape:connector-curvature="0"
     id="path13"
     style="fill:#000000;stroke:none" /></svg>