<?xml version="1.0" standalone="no"?>
<!DOCTYPE svg PUBLIC "-//W3C//DTD SVG 1.1//EN"
 "http://www.w3.org/Graphics/SVG/1.1/DTD/svg11.dtd">
<!-- Created with svg_stack (http://github.com/astraw/svg_stack) -->
<svg xmlns:sodipodi="http://sodipodi.sourceforge.net/DTD/sodipodi-0.dtd" xmlns="http://www.w3.org/2000/svg" version="1.1" width="1592.5" height="1591.25">
  <defs/>
  <g id="id0:id0" transform="matrix(1.25,0,0,1.25,0.0,0.0)"><g transform="translate(0.000000,1273.000000) scale(0.100000,-0.100000)" fill="#000000" stroke="none">
<path d="M5975 12720 c-542 -30 -1238 -180 -1808 -391 -1577 -583 -2864 -1769 -3565 -3288 -271 -587 -472 -1289 -551 -1921 -123 -996 -6 -1968 359 -2972 509 -1401 1533 -2601 2855 -3343 714 -401 1577 -680 2370 -767 269 -29 298 -31 725 -31 415 -1 463 1 715 27 961 97 2028 486 2830 1032 451 306 791 598 1136 975 340 372 619 754 884 1209 208 357 454 955 570 1385 321 1195 321 2256 0 3450 -116 430 -362 1029 -570 1385 -164 283 -385 610 -559 829 -851 1072 -1929 1796 -3251 2182 -326 95 -653 162 -1000 205 -260 32 -305 34 -635 38 -195 2 -422 1 -505 -4z m1035 -751 c700 -94 1084 -202 1730 -486 219 -96 495 -251 781 -439 689 -451 1398 -1219 1772 -1920 252 -471 387 -799 507 -1233 126 -456 187 -834 210 -1300 35 -702 -87 -1467 -349 -2196 -136 -379 -383 -862 -597 -1170 -291 -419 -536 -706 -868 -1014 -405 -376 -993 -770 -1453 -972 -646 -285 -1032 -394 -1733 -488 -221 -30 -235 -31 -635 -31 l-410 0 -250 35 c-698 96 -1103 211 -1705 480 -632 283 -1315 781 -1784 1300 -528 584 -862 1127 -1142 1860 -148 386 -240 765 -315 1300 l-32 230 0 435 0 435 32 228 c75 534 167 916 315 1302 168 440 340 780 593 1170 352 544 997 1191 1543 1550 389 255 746 436 1198 609 390 149 739 233 1287 311 229 33 232 33 655 34 420 1 426 1 650 -30z"/>
<path d="M5777 9853 c-3 -5 -606 -1574 -1340 -3488 -735 -1914 -1339 -3488 -1342 -3497 -7 -17 20 -18 483 -18 l490 0 41 113 c23 61 196 537 384 1057 l343 945 1469 0 1469 0 367 -950 c203 -522 387 -998 409 -1058 l42 -107 529 0 c291 0 529 1 529 3 0 1 -645 1577 -1433 3502 l-1433 3500 -501 3 c-276 1 -504 -1 -506 -5z m527 -893 c20 -69 68 -215 107 -325 39 -110 88 -254 109 -320 20 -66 50 -149 65 -185 15 -36 47 -121 70 -190 24 -69 63 -179 88 -245 33 -89 702 -1842 742 -1947 7 -17 -54 -18 -1184 -18 -655 0 -1191 1 -1191 3 0 2 193 519 429 1148 388 1039 498 1346 546 1539 9 36 32 117 51 180 19 63 48 178 64 255 42 204 53 246 61 238 4 -5 23 -64 43 -133z"/>
</g>
</g>
  <g id="id1:id1" transform="matrix(1.25,0,0,1.25,0.0,0.0)"><g transform="translate(0.000000,1273.000000) scale(0.100000,-0.100000)" fill="#ffffff" stroke="none">
</g>
</g>
</svg>
