<?xml version="1.0" standalone="no"?>
<!DOCTYPE svg PUBLIC "-//W3C//DTD SVG 1.1//EN"
 "http://www.w3.org/Graphics/SVG/1.1/DTD/svg11.dtd">
<!-- Created with svg_stack (http://github.com/astraw/svg_stack) -->
<svg xmlns:sodipodi="http://sodipodi.sourceforge.net/DTD/sodipodi-0.dtd" xmlns="http://www.w3.org/2000/svg" version="1.1" width="763.75" height="1596.25">
  <defs/>
  <g id="id0:id0" transform="matrix(1.25,0,0,1.25,0.0,0.0)"><g transform="translate(0.000000,1277.000000) scale(0.100000,-0.100000)" fill="#181512" stroke="none">
<path d="M2745 12755 c-127 -14 -228 -35 -375 -77 -375 -110 -668 -265 -967 -513 -140 -116 -187 -163 -313 -315 -178 -216 -302 -422 -404 -676 -120 -299 -164 -484 -186 -784 -14 -198 -14 -4714 0 -4930 20 -298 50 -435 157 -725 127 -348 351 -689 627 -959 220 -214 606 -456 891 -559 139 -50 458 -127 528 -127 18 0 42 -3 55 -6 l22 -6 0 -1264 0 -1264 -1390 0 -1390 0 0 -275 0 -275 3055 0 3055 0 0 275 0 275 -1390 0 -1390 0 0 1265 0 1264 33 5 c307 43 563 115 762 214 270 134 532 313 701 478 278 272 499 609 627 959 104 283 133 414 157 715 14 174 14 4722 0 4930 -21 304 -64 490 -186 794 -102 254 -227 463 -404 676 -127 152 -174 200 -313 315 -171 142 -395 288 -547 358 -168 76 -426 163 -600 202 -192 43 -575 57 -815 30z m541 -550 c241 -32 363 -64 555 -145 437 -185 780 -503 1004 -933 97 -185 150 -348 193 -594 l9 -53 -398 0 -399 0 0 245 0 245 -275 0 -275 0 0 -245 0 -245 -1316 0 -1317 0 6 53 c10 81 72 324 106 412 50 130 149 306 251 447 305 424 755 703 1285 798 184 33 398 38 571 15z m2211 -1811 c-3 -3 -12 -4 -19 -1 -8 3 -5 6 6 6 11 1 17 -2 13 -5z m-114 -11 c-7 -2 -21 -2 -30 0 -10 3 -4 5 12 5 17 0 24 -2 18 -5z m-120 -10 c-13 -2 -33 -2 -45 0 -13 2 -3 4 22 4 25 0 35 -2 23 -4z m-1563 -2458 l0 -2015 -1330 0 -1330 0 0 2015 0 2015 1330 0 1330 0 0 -2015z m1370 0 l0 -2015 -410 0 -410 0 0 2015 0 2015 410 0 410 0 0 -2015z m-4139 -2442 c13 -16 12 -17 -3 -4 -10 7 -18 15 -18 17 0 8 8 3 21 -13z m2769 -368 l0 -245 275 0 275 0 0 245 0 245 396 0 396 0 -7 -56 c-10 -81 -50 -243 -90 -365 -70 -211 -290 -555 -458 -715 -116 -112 -242 -218 -322 -271 -161 -108 -530 -260 -710 -293 -296 -53 -546 -52 -810 4 -211 45 -537 179 -700 289 -80 53 -206 159 -322 271 -162 155 -386 505 -459 718 -40 118 -94 347 -94 401 0 16 69 17 1315 17 l1315 0 0 -245z"/>
</g>
</g>
  <g id="id1:id1" transform="matrix(1.25,0,0,1.25,0.0,0.0)"><g transform="translate(0.000000,1277.000000) scale(0.100000,-0.100000)" fill="#ffffff" stroke="none">
</g>
</g>
</svg>
