<?xml version="1.0" standalone="no"?>
<!DOCTYPE svg PUBLIC "-//W3C//DTD SVG 1.1//EN"
 "http://www.w3.org/Graphics/SVG/1.1/DTD/svg11.dtd">
<!-- Created with svg_stack (http://github.com/astraw/svg_stack) -->
<svg xmlns:sodipodi="http://sodipodi.sourceforge.net/DTD/sodipodi-0.dtd" xmlns="http://www.w3.org/2000/svg" version="1.1" width="575.0" height="1591.25">
  <defs/>
  <g id="id0:id0" transform="matrix(1.25,0,0,1.25,0.0,0.0)"><g transform="translate(0.000000,1273.000000) scale(0.100000,-0.100000)" fill="#000000" stroke="none">
<path d="M2140 12541 l0 -189 -62 -7 c-152 -17 -408 -85 -553 -146 -123 -53 -313 -169 -420 -258 l-49 -41 -132 138 -132 137 -117 -115 -117 -115 138 -132 c125 -120 136 -134 123 -150 -8 -10 -30 -38 -50 -63 -53 -66 -174 -267 -215 -356 -75 -164 -143 -414 -169 -616 l-6 -48 -190 0 -189 0 0 -155 0 -155 190 0 189 0 6 -37 c34 -232 96 -456 171 -621 44 -96 164 -291 226 -366 l49 -59 -136 -137 -136 -136 116 -109 116 -108 132 131 132 132 50 -41 c245 -203 639 -367 973 -404 l62 -7 0 -2769 c0 -2207 -3 -2770 -12 -2773 -7 -2 -65 -14 -128 -26 -260 -48 -475 -159 -693 -356 -130 -116 -184 -180 -259 -306 -98 -162 -135 -250 -190 -445 -33 -118 -33 -119 -33 -343 l0 -225 39 -140 c72 -264 213 -514 392 -691 104 -103 234 -197 364 -263 132 -66 188 -87 355 -132 117 -32 125 -32 330 -33 l210 0 148 42 c152 43 325 114 423 174 178 107 379 316 500 519 121 204 162 333 190 593 13 123 13 172 4 275 -24 273 -74 426 -218 671 -46 78 -84 123 -212 251 -135 135 -170 165 -266 222 -174 104 -343 169 -514 197 -36 6 -75 13 -87 15 l-23 5 0 2769 0 2768 63 7 c102 12 295 55 407 93 166 55 455 211 568 306 24 21 47 37 51 37 4 0 67 -57 140 -127 l133 -126 109 109 109 109 -88 90 c-48 49 -106 110 -129 135 l-42 45 85 120 c171 239 302 556 344 830 6 39 13 85 16 103 l5 32 184 0 185 0 0 155 0 155 -185 0 c-102 0 -185 3 -185 8 0 33 -35 227 -56 312 -48 196 -178 474 -303 648 -44 62 -83 117 -87 123 -4 6 50 68 124 143 l131 131 -109 115 -109 115 -134 -134 c-96 -95 -139 -131 -148 -125 -8 4 -36 26 -64 49 -95 76 -301 195 -429 245 -168 67 -462 140 -563 140 l-23 0 0 190 0 190 -160 0 -160 0 0 -189z m520 -542 c196 -46 393 -133 570 -252 100 -68 285 -249 376 -370 93 -124 150 -237 215 -424 117 -345 120 -681 7 -1023 -90 -276 -200 -452 -409 -656 -210 -204 -463 -342 -759 -414 -131 -33 -141 -33 -355 -34 -218 -1 -221 0 -355 33 -155 39 -356 119 -471 188 -171 101 -343 259 -475 436 -221 295 -337 708 -304 1079 46 512 322 962 759 1238 164 104 469 212 651 231 41 4 152 6 245 4 149 -3 187 -8 305 -36z m-20 -9395 c261 -93 406 -189 558 -370 91 -108 158 -230 212 -386 52 -152 64 -232 57 -408 -6 -167 -26 -251 -106 -437 -87 -200 -229 -365 -420 -489 -139 -89 -205 -119 -347 -156 -107 -27 -135 -31 -279 -32 -141 0 -174 3 -276 26 -151 36 -253 80 -385 169 -132 88 -228 183 -312 309 -101 150 -136 228 -171 380 -50 217 -47 369 9 587 62 238 223 475 425 626 89 66 148 97 282 151 172 69 214 75 438 73 l200 -3 115 -40z"/>
</g>
</g>
  <g id="id1:id1" transform="matrix(1.25,0,0,1.25,0.0,0.0)"><g transform="translate(0.000000,1273.000000) scale(0.100000,-0.100000)" fill="#ffffff" stroke="none">
</g>
</g>
</svg>
