<?xml version="1.0" standalone="no"?>
<!DOCTYPE svg PUBLIC "-//W3C//DTD SVG 1.1//EN"
 "http://www.w3.org/Graphics/SVG/1.1/DTD/svg11.dtd">
<!-- Created with svg_stack (http://github.com/astraw/svg_stack) -->
<svg xmlns:sodipodi="http://sodipodi.sourceforge.net/DTD/sodipodi-0.dtd" xmlns="http://www.w3.org/2000/svg" version="1.1" width="1590.0" height="1590.0">
  <defs/>
  <g id="id0:id0" transform="matrix(1.25,0,0,1.25,0.0,0.0)"><g transform="translate(0.000000,1272.000000) scale(0.100000,-0.100000)" fill="#181512" stroke="none">
<path d="M5970 12710 c-389 -20 -901 -111 -1330 -236 -1009 -292 -1829 -750 -2593 -1447 -341 -311 -661 -689 -974 -1147 -337 -495 -675 -1227 -828 -1795 -321 -1193 -321 -2257 0 -3450 153 -569 491 -1300 828 -1795 311 -456 634 -836 975 -1147 636 -581 1295 -985 2127 -1301 414 -158 931 -282 1450 -349 l280 -36 455 0 455 0 280 36 c519 67 1036 191 1450 349 1002 381 1753 883 2478 1656 313 334 670 825 877 1206 263 485 462 963 575 1381 321 1193 321 2257 0 3450 -153 568 -491 1300 -828 1795 -395 579 -831 1053 -1352 1470 -882 707 -2052 1189 -3225 1330 -228 27 -292 31 -605 34 -192 2 -415 1 -495 -4z m1030 -889 c322 -39 577 -88 837 -162 432 -122 850 -295 1213 -502 1022 -582 1795 -1418 2293 -2482 244 -521 383 -1007 479 -1670 31 -219 31 -221 31 -645 0 -424 0 -426 -31 -645 -95 -661 -228 -1125 -479 -1675 -282 -619 -764 -1279 -1255 -1722 -575 -517 -1154 -872 -1826 -1119 -424 -156 -814 -247 -1297 -305 -213 -26 -257 -28 -605 -28 -347 0 -392 2 -605 28 -763 91 -1435 306 -2084 666 -462 255 -1002 684 -1352 1072 -511 567 -849 1120 -1111 1816 -148 395 -234 748 -309 1263 -31 214 -31 215 -31 649 0 434 0 435 31 649 75 515 161 868 309 1263 204 543 495 1062 834 1490 283 357 552 626 918 918 774 619 1711 1010 2720 1136 286 36 430 43 775 38 253 -3 339 -9 545 -33z"/>
<path d="M5890 10315 c-708 -97 -1185 -276 -1760 -658 -426 -284 -748 -607 -1083 -1087 -130 -186 -322 -563 -420 -825 -160 -428 -212 -686 -247 -1226 -16 -244 14 -645 70 -939 89 -465 332 -1048 594 -1425 354 -512 613 -772 1106 -1110 414 -284 899 -485 1415 -586 311 -61 493 -79 796 -79 303 0 482 18 794 79 505 98 1008 307 1415 586 493 339 751 598 1107 1110 209 301 416 755 513 1120 121 461 144 628 144 1085 0 452 -22 616 -140 1070 -89 344 -325 860 -521 1140 -263 377 -560 699 -843 916 -528 405 -1090 664 -1690 779 -311 59 -479 75 -794 74 -243 -1 -318 -5 -456 -24z m40 -2195 l0 -1340 -1335 0 -1334 0 5 33 c62 359 136 603 278 911 210 457 618 926 1086 1248 295 203 683 362 1120 459 69 15 137 28 153 28 l27 1 0 -1340z m1037 1310 c662 -141 1148 -403 1608 -865 208 -208 372 -423 513 -671 107 -189 238 -509 287 -704 27 -109 85 -384 85 -405 0 -3 -601 -5 -1335 -5 l-1335 0 0 1340 c0 1325 0 1340 20 1340 10 0 81 -13 157 -30z m-1037 -4835 c0 -1320 0 -1335 -20 -1335 -26 0 -274 53 -419 90 -109 27 -309 103 -481 183 -301 139 -593 348 -865 622 -478 480 -761 1041 -879 1743 l-5 32 1334 0 1335 0 0 -1335z m3524 1303 c-54 -323 -141 -605 -278 -902 -210 -457 -621 -929 -1086 -1248 -229 -157 -616 -336 -861 -398 -145 -37 -393 -90 -419 -90 -20 0 -20 15 -20 1335 l0 1335 1335 0 1335 0 -6 -32z"/>
</g>
</g>
  <g id="id1:id1" transform="matrix(1.25,0,0,1.25,0.0,0.0)"><g transform="translate(0.000000,1272.000000) scale(0.100000,-0.100000)" fill="#ffffff" stroke="none">
</g>
</g>
</svg>
