<?xml version="1.0" encoding="UTF-8" standalone="no"?>
<svg
   xmlns:dc="http://purl.org/dc/elements/1.1/"
   xmlns:cc="http://creativecommons.org/ns#"
   xmlns:rdf="http://www.w3.org/1999/02/22-rdf-syntax-ns#"
   xmlns:svg="http://www.w3.org/2000/svg"
   xmlns="http://www.w3.org/2000/svg"
   xmlns:sodipodi="http://sodipodi.sourceforge.net/DTD/sodipodi-0.dtd"
   xmlns:inkscape="http://www.inkscape.org/namespaces/inkscape"
   viewBox="0 0 350.10723 350.35351"
   version="1.1"
   xml:space="preserve"
   id="svg127486"
   inkscape:version="0.48.3.1 r9886"
   width="100%"
   height="100%"
   sodipodi:docname="alkis3424.svg"
   style="fill-rule:evenodd;stroke-linecap:round;stroke-linejoin:round"><metadata
   id="metadata128217"><rdf:RDF><cc:Work
       rdf:about=""><dc:format>image/svg+xml</dc:format><dc:type
         rdf:resource="http://purl.org/dc/dcmitype/StillImage" /><dc:title /></cc:Work></rdf:RDF></metadata><sodipodi:namedview
   pagecolor="#ffffff"
   bordercolor="#666666"
   borderopacity="1"
   objecttolerance="10"
   gridtolerance="10"
   guidetolerance="10"
   inkscape:pageopacity="0"
   inkscape:pageshadow="2"
   inkscape:window-width="1855"
   inkscape:window-height="1025"
   id="namedview128215"
   showgrid="false"
   inkscape:zoom="2.2250293"
   inkscape:cx="176.93063"
   inkscape:cy="175.47716"
   inkscape:window-x="0"
   inkscape:window-y="33"
   inkscape:window-maximized="1"
   inkscape:current-layer="svg127486"
   fit-margin-top="0"
   fit-margin-left="0"
   fit-margin-right="0"
   fit-margin-bottom="0" />
<defs
   id="defs127488">
<clipPath
   id="clipId0">
<path
   d="M 0,600 800,600 800,0 0,0 z"
   id="path127491"
   inkscape:connector-curvature="0" />
</clipPath>
</defs>
<g
   clip-path="url(#clipId0)"
   id="g127493"
   style="fill:none;stroke:#000000;stroke-width:0.1"
   transform="translate(-224.8671,-125.12364)" />
<g
   clip-path="url(#clipId0)"
   id="g127495"
   style="fill:#00ffff;stroke:none"
   transform="translate(-224.8671,-125.12364)">













































































<path
   d="m 399.90625,125.125 c -58.15977,-0.23665 -115.37618,30.52347 -146.68018,79.63052 -33.54409,50.35306 -37.6514,118.38885 -10.60793,172.49179 25.83373,53.95696 81.09817,92.2207 140.70949,97.36008 59.50549,6.17997 121.02012,-20.95858 156.54655,-69.10543 36.33676,-47.51472 45.35731,-114.12971 22.85265,-169.573 -21.50274,-55.81723 -73.60638,-98.2585 -132.60565,-108.08857 -9.96539,-1.83508 -20.09474,-2.49088 -30.21493,-2.71539 z"
   id="path127651"
   inkscape:connector-curvature="0" />
</g>
<g
   clip-path="url(#clipId0)"
   id="g127653"
   style="fill:#ffffff;stroke:none"
   transform="translate(-224.8671,-125.12364)">























































































































































































































































































<path
   d="m 391.5625,191 c -10.00113,0.32113 -17.92209,11.14406 -14.90625,20.8125 2.40146,10.17523 15.43677,15.45615 24.25,9.8125 9.28823,-5.03263 10.88024,-19.21557 2.90625,-26.15625 -2.99158,-2.86469 -7.14558,-4.48758 -11.28125,-4.46875 -0.32668,-0.0119 -0.64613,-0.0104 -0.96875,0 z m 16.0625,37.84375 c -6.44859,1.90164 -12.2859,5.7292 -17.5,9.84375 -16.31393,18.94371 -33.00309,37.58858 -49.09375,56.71875 -0.54543,4.43935 0.94188,8.81204 4.5625,11.5625 3.72234,1.69573 8.75871,1.60213 11.5625,-1.84375 8.64866,-9.77866 17.2724,-19.5801 25.9375,-29.34375 L 388,291.90625 c -16.59857,33.62805 -33.19194,67.25919 -49.75,100.90625 -1.46951,4.1983 -0.53795,9.37714 2.78125,12.375 3.7908,3.25611 9.04079,4.90704 13.84375,3.09375 6.7343,-5.11843 8.96122,-13.69307 13,-20.78125 8.83934,-17.89123 17.08128,-36.08508 25.875,-54 3.20837,-7.10356 6.4293,-14.18612 9.65625,-21.28125 11.37682,29.52816 22.36296,59.27044 33.9375,88.6875 2.29403,3.17771 4.38272,6.59863 8.09375,8.25 3.81432,1.18387 8.83672,0.69236 11.59375,-2.6875 5.19071,-3.94584 4.5596,-11.3541 2.25,-16.71875 -2.78245,-8.82029 -7.01235,-17.08506 -10.3125,-25.6875 -4.17287,-12.63373 -8.34431,-25.25631 -13.25,-37.625 -3.87946,-12.4275 -9.10238,-24.37668 -13.40625,-36.65625 2.10415,-6.07292 4.21069,-12.14502 6.3125,-18.21875 5.12308,5.16926 10.29047,10.29279 15.4375,15.4375 0.15208,5.73679 -0.30356,11.59887 0.21875,17.25 1.81197,2.98689 6.05481,4.19938 9.375,4.34375 3.83406,-0.8783 8.52354,-2.77168 8.625,-7.375 -0.15382,-6.97338 0.31732,-14.08739 -0.21875,-20.96875 -2.42387,-4.93015 -7.48211,-7.9786 -11.03125,-12.09375 -11.93862,-11.90384 -24.23685,-23.47293 -35.9375,-35.59375 -1.48482,-2.6236 -4.51562,-3.95156 -7.46875,-3.71875 z"
   id="path128213"
   inkscape:connector-curvature="0" />
</g>
</svg>