<?xml version="1.0" standalone="no"?>
<!DOCTYPE svg PUBLIC "-//W3C//DTD SVG 1.1//EN"
 "http://www.w3.org/Graphics/SVG/1.1/DTD/svg11.dtd">
<!-- Created with svg_stack (http://github.com/astraw/svg_stack) -->
<svg xmlns:sodipodi="http://sodipodi.sourceforge.net/DTD/sodipodi-0.dtd" xmlns="http://www.w3.org/2000/svg" version="1.1" width="1596.25" height="1596.25">
  <defs/>
  <g id="id0:id0" transform="matrix(1.25,0,0,1.25,0.0,0.0)"><g transform="translate(0.000000,1277.000000) scale(0.100000,-0.100000)" fill="#000000" stroke="none">
<path d="M5995 12760 c-556 -31 -1324 -194 -1830 -389 -646 -249 -1258 -593 -1740 -978 -533 -427 -943 -873 -1352 -1473 -333 -489 -673 -1229 -828 -1805 -321 -1193 -321 -2268 -1 -3457 204 -756 633 -1601 1129 -2226 739 -931 1669 -1606 2812 -2040 412 -157 943 -283 1465 -349 l285 -36 455 0 455 0 285 36 c520 66 1037 189 1455 349 1005 382 1809 919 2486 1659 580 635 1037 1376 1299 2109 195 549 309 1020 354 1470 54 545 54 973 0 1513 -75 750 -371 1659 -769 2362 -224 397 -566 867 -885 1215 -672 734 -1466 1266 -2465 1652 -416 160 -958 291 -1470 354 -260 32 -305 34 -635 38 -195 2 -422 1 -505 -4z m1060 -471 c635 -80 1227 -246 1820 -509 515 -228 1101 -620 1541 -1031 361 -337 595 -613 910 -1074 417 -609 747 -1400 889 -2131 86 -438 125 -964 105 -1398 -31 -673 -137 -1207 -362 -1826 -142 -392 -396 -883 -638 -1235 -314 -457 -547 -731 -904 -1064 -440 -411 -1026 -803 -1541 -1031 -595 -264 -1175 -426 -1830 -511 -248 -33 -253 -33 -665 -33 -410 1 -418 1 -655 33 -525 71 -941 171 -1392 335 -460 168 -847 364 -1250 634 -636 426 -1173 965 -1635 1640 -584 855 -948 1970 -998 3058 -34 749 100 1575 376 2309 236 630 490 1083 896 1602 384 489 850 923 1361 1265 403 270 790 466 1250 634 446 163 846 260 1352 329 240 33 241 33 685 34 440 1 448 1 685 -30z"/>
<path d="M5745 11750 c-369 -46 -896 -175 -1235 -304 -665 -252 -1281 -630 -1780 -1091 -316 -293 -547 -565 -829 -975 -204 -296 -431 -739 -573 -1118 -133 -355 -255 -854 -304 -1247 -25 -198 -27 -235 -27 -630 0 -392 2 -434 27 -635 47 -380 170 -885 304 -1242 249 -663 632 -1287 1094 -1785 495 -532 1024 -916 1708 -1238 484 -229 1079 -399 1625 -465 228 -28 260 -30 630 -30 370 0 402 2 630 30 407 49 914 173 1250 304 708 275 1230 596 1783 1094 290 261 638 670 836 982 350 550 524 931 696 1521 149 509 227 1161 200 1678 -30 595 -130 1090 -335 1671 -257 726 -815 1557 -1397 2082 -553 499 -1076 820 -1782 1094 -338 132 -844 255 -1251 304 -231 29 -255 30 -645 29 -377 -1 -420 -3 -625 -29z m1220 -444 c365 -41 769 -140 1170 -289 396 -147 691 -298 1005 -512 574 -393 1006 -825 1358 -1360 220 -333 429 -739 532 -1030 152 -432 218 -705 276 -1148 25 -188 27 -228 27 -582 0 -354 -2 -394 -26 -580 -59 -444 -125 -720 -277 -1150 -141 -397 -449 -947 -749 -1334 -375 -485 -918 -950 -1471 -1261 -310 -175 -760 -360 -1080 -445 -524 -138 -831 -179 -1340 -179 -517 0 -840 43 -1345 180 -592 160 -1240 490 -1730 884 -435 348 -704 641 -1044 1135 -422 612 -727 1437 -800 2162 -47 463 -47 713 0 1176 73 725 379 1551 800 2162 258 375 516 679 758 894 531 471 1055 791 1636 998 527 187 978 282 1470 307 190 10 616 -5 830 -28z"/>
<path d="M7050 10186 c-230 -28 -281 -38 -505 -91 -380 -91 -637 -199 -931 -390 -167 -109 -362 -259 -478 -366 -224 -208 -514 -596 -653 -874 -112 -224 -232 -546 -293 -787 l-43 -168 -298 0 -299 0 -5 -22 c-8 -33 -155 -759 -155 -764 0 -2 149 -4 332 -4 l331 0 -6 -97 c-4 -54 -7 -203 -7 -330 l0 -233 -245 0 -245 0 -5 -22 c-8 -33 -155 -759 -155 -764 0 -2 168 -4 373 -4 l372 0 18 -76 c31 -129 125 -443 169 -564 67 -184 231 -497 344 -656 131 -186 313 -403 443 -526 116 -109 351 -296 500 -395 111 -75 367 -204 512 -260 255 -98 552 -172 839 -208 170 -22 472 -30 680 -19 298 17 416 34 700 103 192 46 326 92 486 163 l114 51 0 770 0 769 -61 -54 c-214 -187 -390 -299 -576 -367 -323 -118 -471 -148 -771 -157 -524 -16 -857 79 -1189 342 -210 166 -344 330 -453 556 -81 168 -121 273 -160 421 l-28 107 1149 0 c632 0 1149 2 1149 4 0 5 147 731 155 764 l5 22 -1283 0 -1284 0 -6 83 c-4 45 -7 193 -7 330 l0 247 1360 0 c748 0 1360 2 1360 4 0 5 147 731 155 764 l5 22 -1385 0 c-1316 0 -1386 1 -1381 18 3 9 19 67 36 129 31 113 117 316 184 437 183 328 573 642 928 750 217 65 360 86 593 86 252 0 489 -33 681 -96 200 -64 368 -156 501 -272 60 -52 62 -53 68 -30 18 72 294 1372 292 1374 -1 1 -63 27 -137 57 -422 172 -757 234 -1300 242 -274 4 -324 2 -490 -19z"/>
</g>
</g>
  <g id="id1:id1" transform="matrix(1.25,0,0,1.25,0.0,0.0)"><g transform="translate(0.000000,1277.000000) scale(0.100000,-0.100000)" fill="#ffe500" stroke="none">
<path d="M5685 12285 c-652 -89 -1214 -248 -1785 -505 -821 -369 -1600 -986 -2178 -1723 -406 -519 -660 -972 -896 -1602 -276 -734 -410 -1560 -376 -2309 50 -1088 414 -2203 998 -3058 282 -412 599 -783 916 -1072 612 -556 1225 -930 1969 -1202 451 -164 867 -264 1392 -335 237 -32 245 -32 655 -33 412 0 417 0 665 33 655 85 1235 247 1830 511 515 228 1101 620 1541 1031 357 333 590 607 904 1064 242 352 496 843 638 1235 225 619 331 1153 362 1826 20 434 -19 960 -105 1398 -142 731 -472 1522 -889 2131 -315 461 -549 737 -910 1074 -440 411 -1026 803 -1541 1031 -593 263 -1185 429 -1820 509 -237 31 -245 31 -685 30 -444 -1 -445 -1 -685 -34z m1330 -535 c407 -49 913 -172 1251 -304 420 -163 819 -367 1119 -571 729 -497 1280 -1095 1709 -1854 218 -384 348 -698 485 -1167 148 -507 228 -1171 201 -1680 -23 -452 -92 -884 -200 -1253 -172 -590 -346 -971 -696 -1521 -198 -312 -546 -721 -836 -982 -553 -498 -1075 -819 -1783 -1094 -336 -131 -843 -255 -1250 -304 -228 -28 -260 -30 -630 -30 -370 0 -402 2 -630 30 -546 66 -1141 236 -1625 465 -684 322 -1213 706 -1708 1238 -462 498 -845 1122 -1094 1785 -134 357 -257 862 -304 1242 -25 201 -27 243 -27 635 0 395 2 432 27 630 49 393 171 892 304 1247 142 379 369 822 573 1118 282 410 513 682 829 975 499 461 1115 839 1780 1091 339 129 866 258 1235 304 205 26 248 28 625 29 390 1 414 0 645 -29z"/>
<path d="M6135 11334 c-492 -25 -943 -120 -1470 -307 -581 -207 -1105 -527 -1636 -998 -242 -215 -500 -519 -758 -894 -421 -611 -727 -1437 -800 -2162 -47 -463 -47 -713 0 -1176 73 -725 378 -1550 800 -2162 340 -494 609 -787 1044 -1135 707 -567 1630 -946 2535 -1041 308 -33 775 -33 1075 -1 390 42 876 159 1210 291 433 171 699 308 995 509 577 394 1016 832 1368 1367 219 333 429 740 532 1030 152 430 218 706 277 1150 24 186 26 226 26 580 0 354 -2 394 -27 582 -58 443 -124 716 -276 1148 -103 291 -312 697 -532 1030 -352 535 -784 967 -1358 1360 -409 279 -870 490 -1410 645 -448 128 -782 177 -1255 184 -148 2 -301 2 -340 0z m1830 -1148 c334 -41 585 -105 875 -223 74 -30 136 -56 137 -57 2 -2 -274 -1302 -292 -1374 -6 -23 -8 -22 -68 30 -172 150 -440 275 -691 323 -234 45 -542 57 -761 30 -311 -38 -582 -150 -817 -337 -200 -160 -339 -315 -434 -484 -67 -121 -153 -324 -184 -437 -17 -62 -33 -120 -36 -129 -5 -17 65 -18 1381 -18 l1385 0 -5 -22 c-8 -33 -155 -759 -155 -764 0 -2 -612 -4 -1360 -4 l-1360 0 0 -247 c0 -137 3 -285 7 -330 l6 -83 1284 0 1283 0 -5 -22 c-8 -33 -155 -759 -155 -764 0 -2 -517 -4 -1149 -4 l-1149 0 28 -107 c39 -148 79 -253 160 -421 109 -226 243 -390 453 -556 332 -263 665 -358 1189 -342 300 9 448 39 771 157 186 68 362 180 576 367 l61 54 0 -769 0 -770 -114 -51 c-160 -71 -294 -117 -486 -163 -284 -69 -402 -86 -700 -103 -208 -11 -510 -3 -680 19 -287 36 -584 110 -839 208 -145 56 -401 185 -512 260 -149 99 -384 286 -500 395 -130 123 -312 340 -443 526 -113 159 -277 472 -344 656 -44 121 -138 435 -169 564 l-18 76 -372 0 c-205 0 -373 2 -373 4 0 5 147 731 155 764 l5 22 245 0 245 0 0 233 c0 127 3 276 7 330 l6 97 -331 0 c-183 0 -332 2 -332 4 0 5 147 731 155 764 l5 22 299 0 298 0 43 168 c61 241 181 563 293 787 139 278 429 666 653 874 116 107 311 257 478 366 294 191 551 299 931 390 224 53 275 63 505 91 166 21 216 23 490 19 179 -3 355 -10 425 -19z"/>
</g>
</g>
  <g id="id2:id2" transform="matrix(1.25,0,0,1.25,0.0,0.0)"><g transform="translate(0.000000,1277.000000) scale(0.100000,-0.100000)" fill="#ffffff" stroke="none">
</g>
</g>
</svg>
