<?xml version="1.0" standalone="no"?>
<!DOCTYPE svg PUBLIC "-//W3C//DTD SVG 1.1//EN"
 "http://www.w3.org/Graphics/SVG/1.1/DTD/svg11.dtd">
<!-- Created with svg_stack (http://github.com/astraw/svg_stack) -->
<svg xmlns:sodipodi="http://sodipodi.sourceforge.net/DTD/sodipodi-0.dtd" xmlns="http://www.w3.org/2000/svg" version="1.1" width="1596.25" height="1597.5">
  <defs/>
  <g id="id0:id0" transform="matrix(1.25,0,0,1.25,0.0,0.0)"><g transform="translate(0.000000,1278.000000) scale(0.100000,-0.100000)" fill="#000000" stroke="none">
<path d="M6150 11266 l0 -233 -77 -7 c-42 -3 -135 -6 -207 -6 l-131 0 -287 -88 -288 -87 -139 -169 c-149 -181 -154 -188 -238 -431 -13 -38 -35 -97 -49 -130 l-25 -60 20 -245 c19 -234 22 -253 69 -423 55 -197 44 -176 239 -442 80 -110 120 -154 185 -207 46 -36 139 -117 208 -178 129 -114 152 -129 510 -328 80 -44 160 -88 177 -98 l33 -19 0 -773 0 -773 -96 -45 c-133 -62 -441 -269 -539 -363 -44 -42 -103 -96 -132 -120 -41 -34 -76 -82 -157 -218 -58 -96 -110 -191 -115 -211 -5 -21 -21 -127 -35 -237 l-26 -200 89 -233 c51 -133 102 -248 118 -270 16 -20 69 -95 118 -167 93 -136 337 -405 405 -447 19 -12 110 -71 203 -131 l167 -109 0 -772 0 -773 -22 -10 c-13 -6 -76 -49 -141 -95 -136 -98 -201 -176 -285 -345 -49 -97 -51 -102 -62 -232 l-11 -133 53 -159 c29 -87 55 -159 59 -159 12 0 132 325 164 447 27 100 42 138 76 187 69 99 79 110 125 139 l44 27 0 -330 0 -330 230 0 230 0 2 457 3 457 133 71 133 72 114 129 114 129 76 228 c42 125 79 249 82 276 3 27 0 108 -6 181 -10 105 -17 143 -36 180 -14 27 -43 95 -66 152 -57 143 -204 374 -267 419 -26 18 -100 78 -164 133 l-118 101 0 867 0 868 143 71 c78 39 161 85 185 101 24 16 116 72 205 124 93 55 173 109 187 127 14 17 69 87 123 154 107 136 120 164 206 444 l41 135 0 211 0 210 -119 244 c-115 235 -123 247 -206 339 -206 225 -213 231 -430 377 -115 77 -238 155 -272 172 l-63 31 0 810 0 810 485 0 485 0 0 335 0 335 -485 0 -485 0 0 235 0 235 -230 0 -230 0 0 -234z m0 -1616 c0 -368 -3 -670 -7 -670 -5 1 -31 13 -60 28 -36 19 -97 74 -201 183 l-150 155 -75 155 -75 155 -7 134 -6 135 40 126 41 126 102 48 c79 36 131 53 223 70 66 13 132 23 148 24 l27 1 0 -670z m574 -1866 c11 -7 54 -72 96 -143 l77 -130 8 -149 7 -148 -85 -158 c-83 -155 -86 -159 -151 -202 l-66 -44 0 520 0 521 48 -27 c26 -15 56 -33 66 -40z m-574 -2590 l0 -577 -34 44 c-60 79 -125 187 -186 309 l-60 120 0 197 0 198 81 115 c68 98 88 119 132 142 29 15 55 27 60 28 4 0 7 -259 7 -576z m545 -1903 c76 -119 76 -120 86 -213 10 -90 9 -98 -31 -273 -43 -189 -42 -188 -112 -229 l-28 -17 0 425 c0 234 2 426 4 426 2 0 38 -54 81 -119z"/>
</g>
</g>
  <g id="id1:id1" transform="matrix(1.25,0,0,1.25,0.0,0.0)"><g transform="translate(0.000000,1278.000000) scale(0.100000,-0.100000)" fill="#ffffff" stroke="none">
<path d="M0 6390 l0 -6390 6385 0 6385 0 0 6390 0 6390 -6385 0 -6385 0 0 -6390z m6610 4875 l0 -235 485 0 485 0 0 -335 0 -335 -485 0 -485 0 0 -810 0 -810 63 -31 c34 -17 157 -95 272 -172 217 -146 224 -152 430 -377 83 -92 91 -104 206 -339 l119 -244 0 -210 0 -211 -41 -135 c-86 -280 -99 -308 -206 -444 -54 -67 -109 -137 -123 -154 -14 -18 -94 -72 -187 -127 -89 -52 -181 -108 -205 -124 -24 -16 -107 -62 -185 -101 l-143 -71 0 -868 0 -867 118 -101 c64 -55 138 -115 164 -133 63 -45 210 -276 267 -419 23 -57 52 -125 66 -152 19 -37 26 -75 36 -180 6 -73 9 -154 6 -181 -3 -27 -40 -151 -82 -276 l-76 -228 -114 -129 -114 -129 -133 -72 -133 -71 -3 -457 -2 -457 -230 0 -230 0 0 330 0 330 -44 -27 c-46 -29 -56 -40 -125 -139 -34 -49 -49 -87 -76 -187 -32 -122 -152 -447 -164 -447 -4 0 -30 72 -59 159 l-53 159 11 133 c11 130 13 135 62 232 84 169 149 247 285 345 65 46 128 89 141 95 l22 10 0 773 0 772 -167 109 c-93 60 -184 119 -203 131 -68 42 -312 311 -405 447 -49 72 -102 147 -118 167 -16 22 -67 137 -118 270 l-89 233 26 200 c14 110 30 216 35 237 5 20 57 115 115 211 81 136 116 184 157 218 29 24 88 78 132 120 98 94 406 301 539 363 l96 45 0 773 0 773 -33 19 c-17 10 -97 54 -177 98 -358 199 -381 214 -510 328 -69 61 -162 142 -208 178 -65 53 -105 97 -185 207 -195 266 -184 245 -239 442 -47 170 -50 189 -69 423 l-20 245 25 60 c14 33 36 92 49 130 84 243 89 250 238 431 l139 169 288 87 287 88 131 0 c72 0 165 3 207 6 l77 7 0 233 0 234 230 0 230 0 0 -235z"/>
<path d="M5975 10295 c-92 -17 -144 -34 -223 -70 l-102 -48 -41 -126 -40 -126 6 -135 7 -134 75 -155 75 -155 150 -155 c104 -109 165 -164 201 -183 29 -15 55 -27 60 -28 4 0 7 302 7 670 l0 670 -27 -1 c-16 -1 -82 -11 -148 -24z"/>
<path d="M6610 7330 l0 -520 66 44 c65 43 68 47 151 202 l85 158 -7 148 -8 149 -77 130 c-42 71 -85 136 -96 143 -10 7 -40 25 -66 40 l-48 27 0 -521z"/>
<path d="M6083 5742 c-44 -23 -64 -44 -132 -142 l-81 -115 0 -198 0 -197 60 -120 c61 -122 126 -230 186 -309 l34 -44 0 577 c0 317 -3 576 -7 576 -5 -1 -31 -13 -60 -28z"/>
<path d="M6610 2984 l0 -425 28 17 c70 41 69 40 112 229 40 175 41 183 31 273 -10 93 -10 94 -86 213 -43 65 -79 119 -81 119 -2 0 -4 -192 -4 -426z"/>
</g>
</g>
</svg>
