<?xml version="1.0" encoding="UTF-8" standalone="no"?>
<!-- Created with Inkscape (http://www.inkscape.org/) -->

<svg
   xmlns:dc="http://purl.org/dc/elements/1.1/"
   xmlns:cc="http://creativecommons.org/ns#"
   xmlns:rdf="http://www.w3.org/1999/02/22-rdf-syntax-ns#"
   xmlns:svg="http://www.w3.org/2000/svg"
   xmlns="http://www.w3.org/2000/svg"
   xmlns:inkscape="http://www.inkscape.org/namespaces/inkscape"
   version="1.1"
   width="100%"
   height="100%"
   viewBox="0 0 121.03125 351.18972"
   id="svg2"
   xml:space="preserve"
   style="fill-rule:evenodd;stroke-linecap:round;stroke-linejoin:round"><metadata
     id="metadata189"><rdf:RDF><cc:Work
         rdf:about=""><dc:format>image/svg+xml</dc:format><dc:type
           rdf:resource="http://purl.org/dc/dcmitype/StillImage" /></cc:Work></rdf:RDF></metadata><defs
     id="defs4"><clipPath
       id="clipId0"><path
         d="M 0,600 800,600 800,0 0,0 z"
         inkscape:connector-curvature="0"
         id="path7" /></clipPath></defs><g
     transform="translate(-337.375,-124.25)"
     clip-path="url(#clipId0)"
     id="g9"
     style="fill:none;stroke:#000000;stroke-width:0.1" /><g
     transform="translate(-337.375,-124.25)"
     clip-path="url(#clipId0)"
     id="g11"
     style="fill:#000000;stroke:none" /><g
     transform="translate(-337.375,-124.25)"
     clip-path="url(#clipId0)"
     id="g173"
     style="fill:none;stroke:#000000;stroke-width:0.25"><path
       d="M 458.28125,124.375 C 432.81638,124.59228 378.932,124.26709 337.5,124.5 c 18.12956,30.49756 37.7668,65.70965 55.625,96.375 l 0,166.875 c -22.48028,1.86576 -40.81189,23.35131 -39.125,45.84375 0.59573,22.91388 21.68824,42.64525 44.59375,41.6875 22.73713,0.16458 43.04843,-19.92232 43.125,-42.65625 1.1513,-22.16825 -17.05903,-43.03614 -39.1875,-44.875 l 0,-166.84375 55.75,-96.53125 z m -104.5625,9.40625 88.25,0 -44.125,76.4375 -44.125,-76.4375 z m 43.9375,263.09375 c 19.31218,-0.59941 36.39474,17.46596 34.59375,36.71875 -0.67932,19.43629 -20.18826,35.25051 -39.34375,31.9375 -19.29958,-2.22876 -33.5316,-22.89237 -28.71875,-41.71875 3.21843,-15.38089 17.76848,-27.03738 33.46875,-26.9375 z"
       inkscape:connector-curvature="0"
       id="polyline175"
       style="fill:#000000;fill-opacity:1" /></g><g
     transform="translate(-337.375,-124.25)"
     clip-path="url(#clipId0)"
     id="g177"
     style="fill:#000000;stroke:none" /></svg>