<?xml version="1.0" encoding="UTF-8" standalone="no"?>
<!-- Created with Inkscape (http://www.inkscape.org/) -->

<svg
   xmlns:dc="http://purl.org/dc/elements/1.1/"
   xmlns:cc="http://creativecommons.org/ns#"
   xmlns:rdf="http://www.w3.org/1999/02/22-rdf-syntax-ns#"
   xmlns:svg="http://www.w3.org/2000/svg"
   xmlns="http://www.w3.org/2000/svg"
   xmlns:inkscape="http://www.inkscape.org/namespaces/inkscape"
   version="1.1"
   width="100%"
   height="100%"
   viewBox="0 0 791.25781 198.758"
   id="svg2"
   xml:space="preserve"
   style="fill-rule:evenodd;stroke-linecap:round;stroke-linejoin:round"><metadata
     id="metadata27"><rdf:RDF><cc:Work
         rdf:about=""><dc:format>image/svg+xml</dc:format><dc:type
           rdf:resource="http://purl.org/dc/dcmitype/StillImage" /></cc:Work></rdf:RDF></metadata><defs
     id="defs4"><clipPath
       id="clipId0"><path
         d="M 0,600 800,600 800,0 0,0 z"
         inkscape:connector-curvature="0"
         id="path7" /></clipPath></defs><g
     transform="translate(-4.27519,-200.1)"
     clip-path="url(#clipId0)"
     id="g9"
     style="fill:none;stroke:#000000;stroke-width:0.1" /><g
     transform="translate(-4.27519,-200.1)"
     clip-path="url(#clipId0)"
     id="g11"
     style="fill:#000000;stroke:none"><path
       d="M 19.3578,398.858 4.27519,383.775 187.95,200.1 l 15.083,15.083 z"
       inkscape:connector-curvature="0"
       id="path13" /><path
       d="M 4.27519,215.183 19.3578,200.1 203.033,383.775 187.95,398.858 z"
       inkscape:connector-curvature="0"
       id="path15" /><path
       d="M 315.608,398.858 300.525,383.775 484.2,200.1 l 15.083,15.083 z"
       inkscape:connector-curvature="0"
       id="path17" /><path
       d="M 300.525,215.183 315.608,200.1 499.283,383.775 484.2,398.858 z"
       inkscape:connector-curvature="0"
       id="path19" /><path
       d="M 611.858,398.858 596.775,383.775 780.451,200.1 l 15.082,15.083 z"
       inkscape:connector-curvature="0"
       id="path21" /><path
       d="M 596.775,215.183 611.858,200.1 795.533,383.775 780.451,398.858 z"
       inkscape:connector-curvature="0"
       id="path23" /></g></svg>