<?xml version="1.0" standalone="no"?>
<!DOCTYPE svg PUBLIC "-//W3C//DTD SVG 1.1//EN"
 "http://www.w3.org/Graphics/SVG/1.1/DTD/svg11.dtd">
<!-- Created with svg_stack (http://github.com/astraw/svg_stack) -->
<svg xmlns:sodipodi="http://sodipodi.sourceforge.net/DTD/sodipodi-0.dtd" xmlns="http://www.w3.org/2000/svg" version="1.1" width="1716.25" height="1592.5">
  <defs/>
  <g id="id0:id0" transform="matrix(1.25,0,0,1.25,0.0,0.0)"><g transform="translate(0.000000,1274.000000) scale(0.100000,-0.100000)" fill="#000000" stroke="none">
<path d="M1533 12438 l-302 -302 2421 -2424 2421 -2424 -1462 -1462 -1461 -1461 -1177 1184 c-985 990 -1178 1180 -1185 1165 -5 -11 -184 -734 -398 -1608 l-390 -1589 756 -763 c415 -419 1208 -1212 1760 -1760 l1005 -998 1000 1000 999 999 -880 880 -880 880 1460 1460 1460 1460 1460 -1460 1460 -1460 -754 -755 -755 -755 999 -1005 998 -1005 1820 1825 1820 1825 -999 1000 -999 1000 -760 -760 -760 -760 -1462 1462 -1461 1461 2420 2424 2421 2423 -298 305 -299 305 -2424 -2424 -2424 -2423 -2418 2421 c-1330 1331 -2421 2421 -2424 2421 -3 0 -142 -136 -308 -302z"/>
</g>
</g>
  <g id="id1:id1" transform="matrix(1.25,0,0,1.25,0.0,0.0)"><g transform="translate(0.000000,1274.000000) scale(0.100000,-0.100000)" fill="#ffffff" stroke="none">
</g>
</g>
</svg>
