<?xml version="1.0" encoding="UTF-8" standalone="no"?>
<!-- Created with Inkscape (http://www.inkscape.org/) -->

<svg
   xmlns:dc="http://purl.org/dc/elements/1.1/"
   xmlns:cc="http://creativecommons.org/ns#"
   xmlns:rdf="http://www.w3.org/1999/02/22-rdf-syntax-ns#"
   xmlns:svg="http://www.w3.org/2000/svg"
   xmlns="http://www.w3.org/2000/svg"
   xmlns:inkscape="http://www.inkscape.org/namespaces/inkscape"
   version="1.1"
   width="100%"
   height="100%"
   viewBox="0 0 197.17378 350.34458"
   id="svg38634"
   xml:space="preserve"
   style="fill-rule:evenodd;stroke-linecap:round;stroke-linejoin:round"><metadata
     id="metadata38815"><rdf:RDF><cc:Work
         rdf:about=""><dc:format>image/svg+xml</dc:format><dc:type
           rdf:resource="http://purl.org/dc/dcmitype/StillImage" /></cc:Work></rdf:RDF></metadata><defs
     id="defs38636"><clipPath
       id="clipId0"><path
         d="M 0,600 800,600 800,0 0,0 z"
         inkscape:connector-curvature="0"
         id="path38639" /></clipPath></defs><g
     transform="translate(-300.63514,-124.74917)"
     clip-path="url(#clipId0)"
     id="g38641"
     style="fill:none;stroke:#000000;stroke-width:0.1" /><g
     transform="translate(-300.63514,-124.74917)"
     clip-path="url(#clipId0)"
     id="g38643"
     style="fill:#00ff00;stroke:none" /><g
     transform="translate(-300.63514,-124.74917)"
     clip-path="url(#clipId0)"
     id="g38805"
     style="fill:none;stroke:#00ff00;stroke-width:0.25"><polyline
       points="399.174,139.415 399.174,139.415 "
       id="polyline38807" /></g><g
     transform="translate(-300.63514,-124.74917)"
     clip-path="url(#clipId0)"
     id="g38809"
     style="fill:#00ff00;stroke:none"><path
       d="m 398.53125,124.75 c -38.3057,-0.16548 -75.18572,24.28265 -89.90625,59.65625 -15.82844,35.61465 -7.60504,80.10228 19.9375,107.6875 14.84407,15.37016 34.83688,25.52368 55.9375,28.75 l 0,154.25 29.375,0 0,-154.25 c 37.84041,-5.34424 70.87294,-34.6407 80.40625,-71.6875 10.92368,-37.99772 -4.18729,-81.52309 -36.125,-104.78125 -16.71518,-12.53422 -38.67017,-19.49408 -59.5625,-19.625 -0.0207,-1.3e-4 -0.0418,1.2e-4 -0.0625,0 z m 0.65625,29.375 c 30.63213,-0.45175 59.63726,21.90794 66.90625,51.6875 8.51114,30.2638 -6.87218,64.84399 -34.96875,78.90625 -27.39117,14.8138 -64.15611,7.86576 -84.1875,-16 -20.61452,-22.95901 -22.62235,-59.87452 -4.5625,-84.90625 12.61364,-18.42693 34.50066,-29.77734 56.8125,-29.6875 z"
       inkscape:connector-curvature="0"
       id="path38811" /></g></svg>