<?xml version="1.0" standalone="no"?>
<!DOCTYPE svg PUBLIC "-//W3C//DTD SVG 1.1//EN"
 "http://www.w3.org/Graphics/SVG/1.1/DTD/svg11.dtd">
<!-- Created with svg_stack (http://github.com/astraw/svg_stack) -->
<svg xmlns:sodipodi="http://sodipodi.sourceforge.net/DTD/sodipodi-0.dtd" xmlns="http://www.w3.org/2000/svg" version="1.1" width="1595.0" height="1593.75">
  <defs/>
  <g id="id0:id0" transform="matrix(1.25,0,0,1.25,0.0,0.0)"><g transform="translate(0.000000,1275.000000) scale(0.100000,-0.100000)" fill="#000000" stroke="none">
<path d="M5985 12740 c-402 -22 -923 -114 -1350 -239 -1321 -386 -2418 -1121 -3262 -2183 -702 -884 -1185 -2050 -1322 -3188 -122 -1013 -6 -1967 359 -2972 450 -1239 1313 -2336 2420 -3075 834 -557 1825 -921 2840 -1044 262 -32 270 -33 710 -33 440 0 448 1 710 33 840 102 1688 376 2410 779 863 482 1625 1187 2179 2017 366 548 632 1127 830 1808 234 804 301 1642 200 2487 -137 1138 -620 2304 -1322 3188 -742 935 -1697 1628 -2791 2028 -500 183 -972 298 -1471 360 -260 32 -305 34 -635 38 -195 2 -422 1 -505 -4z m1045 -869 c469 -57 836 -144 1262 -300 689 -253 1261 -602 1846 -1129 388 -349 727 -781 1072 -1362 256 -431 497 -1082 600 -1623 81 -428 119 -917 100 -1301 -37 -766 -198 -1437 -507 -2117 -275 -603 -779 -1293 -1265 -1731 -600 -540 -1140 -870 -1846 -1129 -425 -156 -815 -248 -1297 -305 -213 -26 -258 -28 -610 -28 -351 0 -398 2 -615 28 -910 107 -1730 405 -2462 894 -723 484 -1302 1109 -1758 1896 -262 453 -498 1093 -600 1629 -81 429 -119 916 -100 1298 38 770 199 1444 507 2119 147 322 437 790 679 1095 466 588 944 995 1640 1398 597 345 1299 576 2019 663 294 36 435 43 785 38 258 -3 343 -9 550 -33z"/>
<path d="M3635 10398 c-6 -27 -105 -559 -105 -564 0 -2 641 -4 1425 -4 l1425 0 0 295 0 295 -1370 0 -1370 0 -5 -22z"/>
<path d="M3456 9453 c-6 -20 -123 -627 -191 -993 -77 -411 -239 -1249 -380 -1965 -158 -801 -197 -1006 -225 -1175 -19 -112 -124 -662 -137 -717 l-5 -23 3601 0 3601 0 0 538 0 537 -517 144 c-285 79 -567 160 -626 178 -60 19 -111 33 -113 31 -2 -3 -61 -204 -130 -449 -70 -244 -131 -448 -135 -453 -6 -6 -549 136 -567 149 -1 1 11 48 28 104 47 158 230 815 227 816 -16 12 -1141 316 -1151 312 -9 -4 -309 -225 -667 -492 -359 -268 -657 -489 -663 -491 -8 -2 -314 392 -348 450 -4 8 237 197 658 516 l664 505 0 592 0 593 -835 0 -835 0 0 295 0 295 835 0 835 0 0 360 0 360 -1459 0 c-1382 0 -1460 -1 -1465 -17z"/>
<path d="M2467 4213 c-4 -6 -304 -754 -374 -930 -4 -10 60 -13 298 -13 l304 0 -3 -93 c-9 -255 110 -510 312 -670 133 -105 249 -153 430 -178 318 -44 667 142 820 436 66 129 88 221 90 377 l1 128 161 0 161 0 0 -118 c1 -103 5 -131 32 -218 32 -104 122 -277 168 -327 52 -54 198 -164 258 -194 148 -74 312 -103 463 -84 53 7 126 22 162 33 150 46 308 157 405 286 126 168 167 288 169 494 l1 128 161 0 161 0 0 -114 c1 -200 48 -339 178 -519 42 -57 196 -181 275 -221 149 -76 314 -107 463 -87 243 31 438 140 572 319 126 168 167 288 169 494 l1 128 160 0 160 0 -3 -93 c-15 -425 301 -788 738 -848 228 -31 487 55 661 219 185 174 277 395 267 639 l-3 83 192 2 193 3 -298 472 -297 472 -3802 1 c-2091 0 -3804 -3 -3806 -7z"/>
</g>
</g>
  <g id="id1:id1" transform="matrix(1.25,0,0,1.25,0.0,0.0)"><g transform="translate(0.000000,1275.000000) scale(0.100000,-0.100000)" fill="#ffffff" stroke="none">
<path d="M6040 11900 c-832 -51 -1677 -300 -2364 -697 -696 -403 -1174 -810 -1640 -1398 -242 -305 -532 -773 -679 -1095 -308 -675 -469 -1349 -507 -2119 -27 -530 51 -1194 200 -1718 243 -851 644 -1569 1259 -2251 355 -395 888 -815 1374 -1084 650 -359 1327 -575 2087 -664 217 -26 264 -28 615 -28 352 0 397 2 610 28 482 57 872 149 1297 305 706 259 1246 589 1846 1129 486 438 990 1128 1265 1731 309 680 470 1351 507 2117 19 384 -19 873 -100 1301 -103 541 -344 1192 -600 1623 -428 721 -808 1167 -1400 1641 -319 255 -762 528 -1110 684 -398 179 -863 329 -1235 400 -341 65 -636 94 -985 99 -168 3 -366 1 -440 -4z m340 -1775 l0 -295 -1425 0 c-784 0 -1425 2 -1425 4 0 5 99 537 105 564 l5 22 1370 0 1370 0 0 -295z m0 -1015 l0 -360 -835 0 -835 0 0 -295 0 -295 835 0 835 0 0 -593 0 -592 -664 -505 c-421 -319 -662 -508 -658 -516 34 -58 340 -452 348 -450 6 2 304 223 663 491 358 267 658 488 667 492 10 4 1135 -300 1151 -312 3 -1 -180 -658 -227 -816 -17 -56 -29 -103 -28 -104 18 -13 561 -155 567 -149 4 5 65 209 135 453 69 245 128 446 130 449 2 2 53 -12 113 -31 59 -18 341 -99 626 -178 l517 -144 0 -537 0 -538 -3601 0 -3601 0 5 23 c13 55 118 605 137 717 28 169 67 374 225 1175 141 716 303 1554 380 1965 68 366 185 973 191 993 5 16 83 17 1465 17 l1459 0 0 -360z m3992 -5363 l298 -472 -193 -3 -192 -2 3 -83 c10 -244 -82 -465 -267 -639 -174 -164 -433 -250 -661 -219 -437 60 -753 423 -738 848 l3 93 -160 0 -160 0 -1 -128 c-2 -206 -43 -326 -169 -494 -134 -179 -329 -288 -572 -319 -149 -20 -314 11 -463 87 -79 40 -233 164 -275 221 -130 180 -177 319 -178 519 l0 114 -161 0 -161 0 -1 -128 c-2 -206 -43 -326 -169 -494 -97 -129 -255 -240 -405 -286 -36 -11 -109 -26 -162 -33 -151 -19 -315 10 -463 84 -60 30 -206 140 -258 194 -46 50 -136 223 -168 327 -27 87 -31 115 -32 218 l0 118 -161 0 -161 0 -1 -128 c-2 -156 -24 -248 -90 -377 -153 -294 -502 -480 -820 -436 -181 25 -297 73 -430 178 -202 160 -321 415 -312 670 l3 93 -304 0 c-238 0 -302 3 -298 13 70 176 370 924 374 930 2 4 1715 7 3806 7 l3802 -1 297 -472z"/>
</g>
</g>
</svg>
