<?xml version="1.0" standalone="no"?>
<!DOCTYPE svg PUBLIC "-//W3C//DTD SVG 1.1//EN"
 "http://www.w3.org/Graphics/SVG/1.1/DTD/svg11.dtd">
<!-- Created with svg_stack (http://github.com/astraw/svg_stack) -->
<svg xmlns:sodipodi="http://sodipodi.sourceforge.net/DTD/sodipodi-0.dtd" xmlns="http://www.w3.org/2000/svg" version="1.1" width="1337.5" height="1588.75">
  <defs/>
  <g id="id0:id0" transform="matrix(1.25,0,0,1.25,0.0,0.0)"><g transform="translate(0.000000,1271.000000) scale(0.100000,-0.100000)" fill="#000000" stroke="none">
<path d="M5090 12576 l-635 -133 -610 -267 -610 -268 -550 -394 -550 -393 -453 -493 -452 -494 -335 -584 -336 -585 -209 -637 -210 -636 -70 -669 -70 -668 70 -669 70 -669 206 -631 c114 -347 215 -647 225 -666 9 -19 162 -284 338 -589 l320 -555 453 -493 453 -494 548 -397 547 -397 618 -266 617 -265 640 -132 640 -132 675 0 675 0 665 152 665 151 610 280 c335 154 621 287 635 296 22 14 1003 753 1023 770 4 4 -22 47 -58 96 -51 70 -72 110 -96 185 -17 52 -35 99 -40 104 -4 5 -190 -53 -421 -132 l-413 -141 -409 -57 -409 -58 -416 18 -416 17 -420 91 -420 92 -396 167 -396 167 -359 240 -359 240 -303 284 -302 283 -242 340 -241 340 -188 382 -187 382 -116 413 -116 413 -40 420 -40 420 40 420 40 420 116 413 116 413 187 382 188 382 241 340 242 340 302 283 303 284 359 240 359 240 396 167 396 167 420 92 420 91 420 12 420 12 405 -57 405 -58 414 -135 c227 -74 417 -131 421 -126 4 4 22 51 39 104 25 75 46 115 96 185 36 48 61 91 57 95 -4 3 -241 182 -527 397 l-520 390 -610 280 -610 279 -665 152 -665 151 -685 -1 -685 -1 -635 -132z m2585 -455 l620 -138 560 -258 c513 -236 623 -290 612 -301 -2 -2 -139 15 -305 38 l-300 42 -449 -18 -448 -17 -465 -101 -465 -102 -430 -181 -430 -182 -387 -254 -387 -254 -331 -315 -332 -315 -276 -375 -276 -375 -203 -418 -203 -419 -125 -451 -125 -452 -40 -460 -40 -460 40 -459 40 -460 126 -453 126 -454 202 -417 202 -417 272 -370 272 -370 332 -318 333 -318 395 -258 395 -259 420 -178 420 -177 465 -102 465 -103 453 -18 454 -18 276 38 c153 21 291 41 307 43 78 14 -84 -70 -600 -307 l-550 -253 -620 -138 -620 -137 -630 -7 -630 -6 -605 124 -605 124 -565 247 -565 248 -515 369 -515 368 -418 463 -417 464 -316 541 -315 541 -189 593 -190 593 -70 621 -70 621 70 619 70 620 187 585 c102 322 194 601 204 620 9 19 152 266 317 549 l300 513 418 464 419 465 515 368 515 369 565 248 565 247 595 123 595 123 640 -5 640 -6 620 -137z"/>
</g>
</g>
  <g id="id1:id1" transform="matrix(1.25,0,0,1.25,0.0,0.0)"><g transform="translate(0.000000,1271.000000) scale(0.100000,-0.100000)" fill="#ffffff" stroke="none">
<path d="M5180 12146 l-595 -123 -565 -247 -565 -248 -515 -369 -515 -368 -419 -465 -418 -464 -300 -513 c-165 -283 -308 -530 -317 -549 -10 -19 -102 -298 -204 -620 l-187 -585 -70 -620 -70 -619 70 -621 70 -621 190 -593 189 -593 315 -541 316 -541 417 -464 418 -463 515 -368 515 -369 565 -248 565 -247 605 -124 605 -124 630 6 630 7 620 137 620 138 550 253 c516 237 678 321 600 307 -16 -2 -154 -22 -307 -43 l-276 -38 -454 18 -453 18 -465 103 -465 102 -420 177 -420 178 -395 259 -395 258 -333 318 -332 318 -272 370 -272 370 -202 417 -202 417 -126 454 -126 453 -40 460 -40 459 40 460 40 460 125 452 125 451 203 419 203 418 276 375 276 375 332 315 331 315 387 254 387 254 430 182 430 181 465 102 465 101 448 17 449 18 300 -42 c166 -23 303 -40 305 -38 11 11 -99 65 -612 301 l-560 258 -620 138 -620 137 -640 6 -640 5 -595 -123z"/>
</g>
</g>
</svg>
