<?xml version="1.0" encoding="UTF-8" standalone="no"?>
<!-- Created with Inkscape (http://www.inkscape.org/) -->

<svg
   xmlns:dc="http://purl.org/dc/elements/1.1/"
   xmlns:cc="http://creativecommons.org/ns#"
   xmlns:rdf="http://www.w3.org/1999/02/22-rdf-syntax-ns#"
   xmlns:svg="http://www.w3.org/2000/svg"
   xmlns="http://www.w3.org/2000/svg"
   xmlns:inkscape="http://www.inkscape.org/namespaces/inkscape"
   version="1.1"
   width="100%"
   height="100%"
   viewBox="0 0 413.78375 445.54252"
   id="svg11533"
   xml:space="preserve"
   style="fill-rule:evenodd;stroke-linecap:round;stroke-linejoin:round"><metadata
     id="metadata13440"><rdf:RDF><cc:Work
         rdf:about=""><dc:format>image/svg+xml</dc:format><dc:type
           rdf:resource="http://purl.org/dc/dcmitype/StillImage" /></cc:Work></rdf:RDF></metadata><defs
     id="defs11535"><clipPath
       id="clipId0"><path
         d="M 0,600 800,600 800,0 0,0 z"
         inkscape:connector-curvature="0"
         id="path11538" /></clipPath></defs><g
     transform="translate(-192.81014,-77.4375)"
     clip-path="url(#clipId0)"
     id="g11540"
     style="fill:none;stroke:#000000;stroke-width:0.1" /><path
     d="m 53.346109,0.0625 c -10.67468,17.446086 -23.25249,33.99978 -28.48903,54.16556 -8.46734,18.7048 -7.39278,40.9533 -13.2632,59.1079 -13.7248402,23.537 -11.39322016,52.3109 -11.36466016,78.56505 2.09834996,31.41195 5.62485996,62.71898 7.73823996,94.11712 1.2024,19.83551 14.6786302,36.21107 32.2194102,44.47018 17.13019,12.83073 38.81753,15.68096 58.66326,7.54167 30.822841,-10.17843 55.534321,-32.81862 74.850111,-58.27566 10.76288,15.13267 15.93906,48.65028 27.86553,69.1684 15.44772,33.44489 38.83242,65.83887 72.14065,83.02254 22.00594,6.83632 45.2101,16.32462 68.53599,12.75796 33.88257,-6.50313 56.8314,-38.73777 66.04329,-70.21136 10.27337,-33.0747 4.39922,-67.91094 -4.53341,-100.50231 -12.83309,-56.22659 -31.78072,-110.85989 -50.28118,-165.42705 -10.36528,18.5889 -23.30396,36.22935 -42.45662,46.47261 -26.46875,16.83448 -56.90162,31.01276 -88.30877,32.1359 -25.09773,1.50286 -1.5381,-32.16341 -4.06854,-47.81218 4.75935,-27.38847 7.52083,-55.11775 10.56713,-82.6769 -12.19606,1.32495 -27.47678,14.30298 -42.16612,17.0966 -33.45041,9.89763 -69.75375,8.28666 -103.495451,0.60367 -23.47409,-1.84245 -37.22685,-24.74008 -35.89736,-46.93507 -0.23013,-9.525648 3.63885,-18.274651 5.70073,-27.38463 z m 160.031251,77.625 c -3.72548,35.88995 -8.74881,71.72928 -17.4375,106.78125 -15.04362,2.35319 -41.81693,-10.14893 -47.78836,-5.6818 5.97638,28.32149 11.81022,56.95654 20.69461,84.4318 -20.92618,31.03424 -50.991,59.95187 -89.548571,65.35531 -27.58559,7.72411 -54.4166,-29.35952 -32.7685,-48.89184 9.91427,-0.34544 21.15776,16.62923 10.40283,-0.31436 -4.85727,-9.37861 -30.70515,-11.2251 -16.17951,-24.58661 26.24752,-3.94002 38.95809,23.17314 58.14304,30.34431 28.880751,1.30253 4.161741,-33.78892 -8.84831,-40.49501 -13.70178,-14.39887 -47.96132,-5.79097 -42.36171,-32.62671 -24.43312,-5.94947 -4.27848,-37.31843 -0.44049,-53.57019 8.62974,-15.50652 19.43667,-34.10178 2.75747,-48.5899 1.05483,-14.09224 7.47296,-38.58916 25.29271,-23.79443 44.992081,11.2216 95.598411,12.45182 138.082291,-8.36182 z M 113.31486,100.75 c -19.317541,11.45303 12.85878,19.41073 22.20551,20.9409 9.31191,1.86846 24.43932,29.29494 25.87545,22.35898 -9.09028,-16.98719 -19.72205,-35.48213 -39.82396,-40.72917 -2.71313,-0.977 -5.47203,-1.82411 -8.257,-2.57071 z m -81.437501,14.09375 c 6.54669,0.41218 17.01841,1.63002 16.54352,10.0636 4.0404,11.0981 -2.26709,5.72037 -9.16852,5.53015 -7.53213,1.10011 -15.66356,1.04618 -21.46875,-4.5 -5.96038,-4.62743 5.14666,-9.3533 9.44578,-9.7942 1.54413,-0.4515 3.09933,-0.864 4.64797,-1.29955 z m 73.250001,17.75 c -8.638381,4.15786 -23.965321,21.5642 -4.3887,19.72471 9.72567,10.92191 53.24178,21.19996 35.62794,-3.17402 -6.80211,-10.9062 -18.4406,-16.75056 -31.23924,-16.55069 z m 245.875,4.6875 c 2.0697,17.52025 11.05219,36.00263 15.65714,53.92833 14.22014,44.07984 27.33938,88.94066 33.54268,134.89106 2.48776,39.74888 -12.93457,85.38127 -51.28173,102.9907 -21.98759,13.70188 -21.54879,-14.87779 -19.74878,-27.74601 -6.58986,2.57314 -25.73194,-0.0786 -16.38196,-9.19486 23.86491,-2.56578 49.68057,-17.41636 51.9314,-43.68172 9.68938,-15.94708 -8.24771,-39.47981 -21.125,-19.65625 -2.10015,19.25752 -36.95041,45.97027 -42.60569,16.24721 -11.41897,-1.68874 -32.20363,5.04972 -28.89273,-16.15967 -2.73809,-24.57758 -6.54491,-49.06085 -5.11525,-73.86394 -0.8661,-17.7828 -27.28278,-18.08949 -24.94932,-39.73646 -5.87706,-26.60676 29.82577,-17.18585 43.04842,-30.91655 23.98306,-11.89128 49.76805,-25.01389 65.92082,-47.10184 z M 337.25236,177 c -22.09066,0.25541 -28.95099,28.86762 -50.58012,32.50883 -2.59555,23.08469 31.2078,0.25936 35.73839,-11.14047 5.72115,-16.72871 32.73349,-9.59734 33.79316,-10.35316 C 351.13095,182.72066 345.00171,177.25921 337.25236,177 z M 94.064859,208.875 c 0.11597,6.50965 0.57894,6.40605 0,0 z m 0.28125,4.96875 c -3.37902,27.21863 35.890421,41.1413 26.729901,69.24217 0.20163,9.52781 11.30278,-12.29796 2.39857,-18.3742 -8.06579,-17.89785 -25.757351,-30.95717 -29.128471,-50.86797 z m 238.875001,7.625 c -15.55968,-1.77617 -45.05783,32.85507 -20.49444,35.50426 15.57877,-8.0098 32.49442,-16.53208 47.23534,-24.44589 -2.70858,-12.36199 -18.4956,-6.81789 -26.7409,-11.05837 z m -117,33.3125 c 15.76402,-3.66366 39.79666,17.44032 12.40625,19.96875 -11.49916,-3.43739 -48.58546,11.57662 -31.03935,-11.04236 4.92054,-5.12485 12.065,-6.95012 18.6331,-8.92639 z m 140.6875,52.5625 c -11.39514,-0.21347 -25.2087,12.74363 -34.21982,7.67278 16.35662,17.09398 31.2214,-14.82406 50.00107,2.76462 6.25895,4.42103 14.81703,13.83181 5.54307,0.19348 -5.26822,-6.29008 -13.2909,-9.74994 -21.32432,-10.63088 z"
     inkscape:connector-curvature="0"
     id="path3788"
     style="fill:#000000;fill-rule:nonzero;stroke:#000000;stroke-width:0.1;stroke-opacity:1" /><g
     transform="translate(-192.81014,-77.4375)"
     clip-path="url(#clipId0)"
     id="g12412"
     style="fill:#ffffff;stroke:none" /><g
     transform="translate(-192.81014,-77.4375)"
     clip-path="url(#clipId0)"
     id="g12784"
     style="fill:#000000;fill-rule:nonzero;stroke:#000000;stroke-width:0.1;stroke-miterlimit:4;stroke-opacity:1;stroke-dasharray:none" /><g
     transform="translate(-192.81014,-77.4375)"
     clip-path="url(#clipId0)"
     id="g13186"
     style="fill:#ffffff;stroke:none" /><g
     transform="translate(-192.81014,-77.4375)"
     clip-path="url(#clipId0)"
     id="g13234"
     style="fill:#000000;stroke:none" /><path
     d="m 212.84611,78.4375 c -42.71123,19.80419 -92.2742,19.31561 -137.157421,7.76781 -15.93182,-13.86092 -25.78866,10.00847 -25.37383,23.38844 13.70197,11.37649 8.10361,31.05402 -0.0711,44.01901 -5.56131,16.63256 -19.09739,35.52936 -11.15628,53.16009 13.16296,6.65807 8.1384,29.00544 29.91489,27.97715 20.31936,4.32002 39.100881,20.51715 43.576161,41.13674 -10.51785,24.07457 -34.081801,-6.82823 -46.789011,-14.6287 -8.18692,-11.40559 -41.6885,-6.19521 -22.51282,7.93238 10.07705,1.82512 27.41032,26.63784 8.02781,11.86489 -12.53297,-3.79415 -15.10104,20.05259 -9.51285,28.00172 7.58655,16.89332 27.83639,24.52899 44.93435,17.8457 34.954291,-8.07602 62.196111,-34.7648 81.745111,-63.62148 -8.40334,-27.65445 -14.81307,-55.87084 -20.375,-84.21875 14.5578,-6.30008 39.21894,14.15863 48.74225,0.42444 7.87061,-33.21525 12.81978,-67.08468 16.00775,-101.04944 z m -99.59375,22 c 17.80186,3.60354 32.83454,15.20047 41.40759,31.20145 7.00468,7.43359 8.49889,20.75484 -1.53259,6.9548 -8.87868,-18.92883 -31.21799,-15.98922 -45.02026,-27.90909 -3.37206,-4.28442 2.02815,-8.05225 5.14526,-10.24716 z m -80.437501,14.90625 c -18.11626,-1.74261 -19.29961,17.59213 -0.37171,15.18345 9.2471,0.3486 22.67476,3.73269 14.43341,-10.22338 -3.51771,-3.83767 -9.09463,-4.82974 -14.0617,-4.96007 z M 107.40861,132.5 c 14.45989,-1.08232 40.10647,17.32625 29.34375,31.0625 -16.32725,2.47264 -34.41105,-7.48856 -45.711531,-15.52027 2.11859,-6.90555 8.87133,-14.66626 16.367781,-15.54223 z m 243.4375,6.125 c -17.51033,21.88122 -43.10639,34.22115 -67.15625,47.3125 -12.23615,10.97547 -41.69518,3.88747 -41.82548,25.66166 -4.28565,20.16782 20.4751,25.17532 24.90106,41.28624 -0.17979,28.76415 3.25375,57.51656 6.42442,85.95835 5.67303,12.91523 27.25464,-2.00111 29.65569,11.25228 9.35072,18.03353 31.40102,0.0601 37.3122,-12.15011 0.67187,-22.02772 31.36056,-20.08949 27.29394,2.50425 -2.53039,18.74755 -12.16046,37.2987 -30.40214,44.97042 -7.48742,4.67352 -39.28873,7.46198 -18.43187,16.08436 22.35321,-7.44129 0.48035,25.41808 18.13468,30.62005 18.34121,-1.97337 33.74756,-16.61566 44.28597,-31.15391 20.96485,-30.49427 22.61318,-69.95189 13.78871,-104.9135 -9.82754,-51.932 -28.31982,-101.61599 -42.95686,-152.23245 -1.15692,-1.04435 0.73453,-4.69355 -1.02407,-5.20014 z m -13.1875,38.3125 c 10.51559,0.36567 28.5483,16.40318 7.24152,10.7058 -20.91424,-3.87742 -23.84448,21.82551 -40.5161,28.11318 -11.42553,13.07675 -28.36429,-8.70357 -9.06337,-9.757 15.0069,-8.19796 23.25843,-29.18395 42.33795,-29.06198 z M 93.939859,208.625 c 1.89325,24.61046 24.346731,40.15701 32.960081,61.87424 3.42637,7.46926 -9.2556,23.45527 -4.90733,6.83096 1.44274,-25.72933 -31.582371,-38.66758 -27.986291,-65.14945 -0.0222,-1.18525 -0.0443,-2.3705 -0.0665,-3.55575 z m 238.156251,12.5 c 12.26607,-0.62881 41.59758,9.66867 16.57915,17.60706 -13.57726,2.88548 -37.4298,30.29219 -45.57763,9.8257 2.47248,-13.3644 15.68123,-25.3815 28.99848,-27.43276 z m -111.59375,33.5625 c -14.08333,-3.86353 -41.24866,24.34101 -14.74743,21.11236 10.69263,-2.17597 46.57419,1.86473 29.01644,-16.18025 -4.19047,-2.84097 -9.17967,-4.7489 -14.26901,-4.93211 z m 136.125,52.59375 c 9.96113,-0.67106 25.35203,10.0099 24.66018,17.53796 -12.69519,-17.20171 -31.49592,-10.28382 -47.94143,-4.53796 -8.56117,-0.796 -14.6911,-7.07911 -2.17542,-4.9148 8.65421,-2.12743 16.36781,-7.75745 25.45667,-8.0852 z"
     inkscape:connector-curvature="0"
     id="path3826"
     style="fill:#ffffff;fill-opacity:1;fill-rule:nonzero;stroke:none" /></svg>