<?xml version="1.0" standalone="no"?>
<!DOCTYPE svg PUBLIC "-//W3C//DTD SVG 1.1//EN"
 "http://www.w3.org/Graphics/SVG/1.1/DTD/svg11.dtd">
<!-- Created with svg_stack (http://github.com/astraw/svg_stack) -->
<svg xmlns:sodipodi="http://sodipodi.sourceforge.net/DTD/sodipodi-0.dtd" xmlns="http://www.w3.org/2000/svg" version="1.1" width="1988.75" height="1220.0">
  <defs/>
  <g id="id0:id0" transform="matrix(1.25,0,0,1.25,0.0,0.0)"><g transform="translate(0.000000,976.000000) scale(0.100000,-0.100000)" fill="#000000" stroke="none">
<path d="M7550 9750 c-69 -5 -280 -18 -470 -30 -379 -23 -650 -53 -925 -105 -99 -18 -245 -43 -325 -55 -80 -11 -244 -45 -365 -75 -121 -29 -341 -81 -490 -115 -294 -66 -610 -159 -830 -244 -77 -29 -205 -75 -285 -101 -191 -63 -807 -323 -1033 -436 -98 -50 -225 -118 -281 -153 -55 -34 -141 -84 -191 -111 -188 -102 -500 -304 -600 -388 -33 -28 -100 -88 -150 -132 -49 -44 -115 -101 -145 -125 -165 -134 -420 -391 -549 -557 -34 -43 -120 -161 -192 -263 -155 -218 -231 -363 -403 -770 l-116 -275 -39 -275 c-29 -207 -41 -325 -46 -475 -7 -197 -6 -203 25 -365 57 -300 122 -526 215 -756 159 -389 297 -586 674 -963 192 -191 232 -227 355 -308 76 -51 199 -123 274 -159 74 -37 166 -86 203 -110 109 -70 578 -255 729 -288 69 -15 222 -52 340 -81 293 -73 538 -121 705 -140 77 -9 223 -31 325 -50 108 -20 239 -36 315 -40 72 -4 220 -15 330 -26 134 -13 277 -19 435 -19 129 1 837 -9 1572 -22 l1338 -22 1337 22 c736 13 1446 23 1578 22 163 0 304 6 440 19 110 11 259 22 330 26 76 4 207 20 315 40 102 19 250 41 330 50 165 19 428 72 717 144 109 27 254 61 321 76 154 34 619 217 727 286 39 25 131 75 206 112 75 37 199 109 275 159 123 83 163 118 355 309 377 377 515 574 674 963 93 230 158 456 215 756 31 162 32 168 25 365 -5 150 -17 269 -46 475 l-39 275 -131 310 c-163 385 -222 503 -314 630 -40 55 -111 156 -159 224 -48 68 -121 164 -164 215 -100 119 -376 394 -477 475 -44 36 -118 99 -165 141 -47 41 -114 101 -150 132 -98 84 -440 303 -600 383 -49 25 -135 74 -190 110 -56 36 -181 106 -279 155 -224 112 -840 372 -1031 435 -80 26 -212 74 -295 105 -172 66 -499 167 -660 205 -60 14 -211 48 -335 76 -124 27 -286 66 -360 86 -74 19 -218 48 -320 63 -102 15 -257 42 -345 58 -262 50 -535 80 -975 108 -446 28 -990 39 -1210 24z m832 -795 c738 -44 974 -66 1248 -120 96 -19 236 -44 310 -55 130 -19 350 -69 828 -187 436 -107 1032 -308 1493 -503 350 -148 530 -237 714 -353 60 -38 145 -85 188 -104 83 -37 397 -237 487 -312 30 -25 93 -79 140 -121 47 -42 105 -91 130 -110 65 -49 361 -342 434 -430 100 -120 283 -385 328 -474 23 -44 90 -196 150 -336 l108 -255 24 -195 c38 -307 42 -442 16 -580 -53 -281 -89 -414 -160 -580 -38 -89 -88 -194 -111 -234 -73 -123 -197 -274 -370 -447 -186 -188 -262 -243 -481 -354 -72 -37 -155 -83 -185 -101 -29 -19 -88 -47 -130 -63 -43 -16 -139 -54 -213 -85 -108 -44 -188 -68 -395 -117 -329 -77 -633 -136 -995 -193 -338 -54 -752 -86 -1105 -86 -121 1 -819 -9 -1551 -22 l-1331 -22 -1329 22 c-731 13 -1426 23 -1544 22 -349 -1 -773 32 -1110 86 -446 71 -604 103 -1169 235 -52 12 -142 42 -200 66 -58 25 -152 63 -208 84 -56 21 -126 54 -155 72 -29 19 -113 64 -186 101 -219 112 -294 167 -481 355 -173 173 -297 324 -370 447 -23 40 -73 145 -111 234 -71 166 -107 298 -160 580 -26 138 -23 261 16 575 l25 200 106 250 c58 138 125 289 149 336 46 93 228 357 330 479 81 97 359 372 449 443 39 30 117 99 175 152 58 53 132 112 165 132 33 20 119 76 190 123 72 48 166 103 210 122 44 20 130 67 190 105 178 112 361 203 690 343 535 229 1233 456 1748 571 100 22 243 55 317 74 74 18 198 43 275 54 77 12 219 37 315 56 277 54 452 70 1305 124 215 13 528 12 797 -4z"/>
<path d="M0 400 l0 -400 7955 0 7955 0 0 400 0 400 -7955 0 -7955 0 0 -400z"/>
</g>
</g>
  <g id="id1:id1" transform="matrix(1.25,0,0,1.25,0.0,0.0)"><g transform="translate(0.000000,976.000000) scale(0.100000,-0.100000)" fill="#ffffff" stroke="none">
</g>
</g>
</svg>
