<?xml version="1.0" encoding="UTF-8" standalone="no"?>
<!-- Created with Inkscape (http://www.inkscape.org/) -->

<svg
   xmlns:dc="http://purl.org/dc/elements/1.1/"
   xmlns:cc="http://creativecommons.org/ns#"
   xmlns:rdf="http://www.w3.org/1999/02/22-rdf-syntax-ns#"
   xmlns:svg="http://www.w3.org/2000/svg"
   xmlns="http://www.w3.org/2000/svg"
   xmlns:inkscape="http://www.inkscape.org/namespaces/inkscape"
   version="1.1"
   width="100%"
   height="100%"
   viewBox="0 0 494.4375 428.35575"
   id="svg75316"
   xml:space="preserve"
   style="fill-rule:evenodd;stroke-linecap:round;stroke-linejoin:round"><metadata
     id="metadata75433"><rdf:RDF><cc:Work
         rdf:about=""><dc:format>image/svg+xml</dc:format><dc:type
           rdf:resource="http://purl.org/dc/dcmitype/StillImage" /></cc:Work></rdf:RDF></metadata><defs
     id="defs75318"><clipPath
       id="clipId0"><path
         d="M 0,600 800,600 800,0 0,0 z"
         inkscape:connector-curvature="0"
         id="path75321" /></clipPath></defs><g
     transform="translate(-152.8125,-85.28125)"
     clip-path="url(#clipId0)"
     id="g75323"
     style="fill:none;stroke:#000000;stroke-width:0.1" /><g
     transform="translate(-152.8125,-85.28125)"
     clip-path="url(#clipId0)"
     id="g75325"
     style="fill:#7fffff;stroke:none"><path
       d="M 400.03125,85.28125 152.8125,513.5 l 247.21875,0 247.21875,0 L 400.03125,85.28125 z"
       inkscape:connector-curvature="0"
       id="path75329" /></g><g
     transform="translate(-152.8125,-85.28125)"
     clip-path="url(#clipId0)"
     id="g75331"
     style="fill:#ffffff;stroke:none"><path
       d="m 341.9375,228.03125 c -12.28609,26.15951 -24.53542,52.33626 -36.8125,78.5 5.4686,-2.37535 10.93724,-4.7506 16.40625,-7.125 -9.82289,26.17844 -19.70765,52.33359 -29.5625,78.5 7.47724,-2.38107 14.95438,-4.76247 22.4375,-7.125 -17.01963,30.91058 -34.00261,61.84128 -50.96875,92.78125 21.40136,-4.07807 42.82013,-8.06411 64.21875,-12.15625 0,20.69792 0,41.39583 0,62.09375 9.52083,0 19.04167,0 28.5625,0 0,-20.69792 0,-41.39583 0,-62.09375 21.40119,4.07863 42.81639,8.08355 64.21875,12.15625 -16.96212,-30.93645 -33.95285,-61.85718 -50.9375,-92.78125 7.46688,2.38089 14.93663,4.75274 22.40625,7.125 -9.85675,-26.16569 -19.68681,-52.34144 -29.5625,-78.5 5.43026,2.36774 10.85612,4.74553 16.28125,7.125 -12.23928,-26.16197 -24.44291,-52.34052 -36.6875,-78.5 z"
       inkscape:connector-curvature="0"
       id="path75399" /></g><g
     transform="translate(-152.8125,-85.28125)"
     clip-path="url(#clipId0)"
     id="g75401"
     style="fill:none;stroke:#7fffff;stroke-width:0.25"><path
       d="m 327.666,513.512 0,-62.093 -64.234,12.133 50.959,-92.782 -22.411,7.137 29.548,-78.508 -16.416,7.137 36.828,-78.508 36.685,78.508 -16.273,-7.137 29.548,78.508 -22.411,-7.137 50.959,92.782 -64.234,-12.133 0,62.093 -28.548,0"
       inkscape:connector-curvature="0"
       id="polyline75403" /></g><g
     transform="translate(-152.8125,-85.28125)"
     clip-path="url(#clipId0)"
     id="g75405"
     style="fill:#ffffff;stroke:none"><path
       d="m 533.071,442.141 0,-18.239 14.275,18.239 z m 0,71.371 -28.548,-126.089 28.548,36.479 z m -28.548,0 0,-126.089 28.548,126.089 z m 0,-49.96 -21.411,-103.488 21.411,27.359 z m -21.411,0 0,-103.488 21.411,103.488 z m 0,0 -21.412,-76.129 21.412,-27.359 z m -21.412,0 0,-76.129 21.412,76.129 z m 0,49.96 -28.548,-89.61 28.548,-36.479 z m -28.548,0 0,-89.61 28.548,89.61 z m 0,-71.371 -14.274,0 14.274,-18.239 z"
       inkscape:connector-curvature="0"
       id="path75425" /></g><g
     transform="translate(-152.8125,-85.28125)"
     clip-path="url(#clipId0)"
     id="g75427"
     style="fill:none;stroke:#ffffff;stroke-width:0.25"><path
       d="m 483.125,360.0625 -64.25,82.09375 14.28125,0 0,71.34375 28.53125,0 0,-49.9375 42.84375,0 0,49.9375 28.53125,0 0,-71.34375 14.28125,0 L 483.125,360.0625 z"
       inkscape:connector-curvature="0"
       id="polyline75429" /></g></svg>