<?xml version="1.0" encoding="UTF-8" standalone="no"?>
<!-- Created with Inkscape (http://www.inkscape.org/) -->

<svg
   xmlns:dc="http://purl.org/dc/elements/1.1/"
   xmlns:cc="http://creativecommons.org/ns#"
   xmlns:rdf="http://www.w3.org/1999/02/22-rdf-syntax-ns#"
   xmlns:svg="http://www.w3.org/2000/svg"
   xmlns="http://www.w3.org/2000/svg"
   xmlns:inkscape="http://www.inkscape.org/namespaces/inkscape"
   version="1.1"
   width="100%"
   height="100%"
   viewBox="0 0 496.7716 347.93113"
   id="svg35254"
   xml:space="preserve"
   style="fill-rule:evenodd;stroke-linecap:round;stroke-linejoin:round"><metadata
     id="metadata35515"><rdf:RDF><cc:Work
         rdf:about=""><dc:format>image/svg+xml</dc:format><dc:type
           rdf:resource="http://purl.org/dc/dcmitype/StillImage" /></cc:Work></rdf:RDF></metadata><defs
     id="defs35256"><clipPath
       id="clipId0"><path
         d="M 0,600 800,600 800,0 0,0 z"
         inkscape:connector-curvature="0"
         id="path35259" /></clipPath></defs><g
     transform="translate(-150.76556,-126.78125)"
     clip-path="url(#clipId0)"
     id="g35261"
     style="fill:none;stroke:#000000;stroke-width:0.1" /><g
     transform="translate(-150.76556,-126.78125)"
     clip-path="url(#clipId0)"
     id="g35263"
     style="fill:#898989;stroke:none"><path
       d="m 397,126.78125 c -30.46963,0.62127 -65.02725,7.84411 -83.69109,34.22616 -11.75137,16.38036 -5.14251,39.70291 10.43348,51.09959 25.10155,20.90019 60.06041,24.50517 91.51688,21.53729 26.20524,-3.24805 55.37356,-13.34934 68.24664,-38.21026 8.68274,-17.47558 -1.01987,-37.88761 -16.02193,-48.33552 C 447.53635,131.82518 421.5425,127.38094 397,126.78125 z M 397,151 c 22.85949,0.83511 49.76152,4.39377 64.1875,24.3125 5.33294,11.7473 -8.30741,20.80454 -17.24031,25.44162 -27.03968,12.52297 -59.26932,12.46633 -87.23981,3.02637 -10.26173,-4.44569 -23.41778,-10.77846 -25.26988,-22.99924 2.18856,-13.02571 16.47704,-19.42091 27.53815,-23.84515 C 371.20661,152.74045 384.13801,151.38479 397,151 z m 116.96875,135.6875 c -18.63379,-0.47565 -42.56913,4.08388 -49.06133,24.34619 -5.81902,19.89543 7.06689,39.6629 20.11463,53.70242 13.49798,15.03227 31.76721,24.61176 48.75922,35.0164 21.45524,8.82443 43.1711,19.06176 66.92051,18.49301 17.99494,0.18069 40.16168,-5.79823 45.79822,-25.24552 5.08507,-21.42955 -9.45342,-41.38363 -23.4688,-56.09375 -13.41556,-12.94833 -29.94186,-22.1258 -45.78076,-31.65978 -20.1784,-8.21694 -40.2897,-17.86871 -62.50275,-18.47278 l -0.77894,-0.0862 z m -225.1875,2.40625 c -29.62655,1.17371 -57.9929,12.9972 -81.74491,30.32191 -27.77052,20.34866 -51.34189,49.90127 -55.69259,84.95934 -3.4166,24.47724 8.472,50.9557 31.33073,61.66896 30.16046,14.92526 66.23861,8.88833 95.4947,-5.3288 28.18888,-13.6977 53.35233,-34.98133 69.25156,-62.18361 14.36598,-24.3413 20.20195,-57.29977 3.67301,-82.0628 -13.94951,-19.9938 -38.94012,-27.4142 -62.3125,-27.375 z M 512.75,310.875 c 20.508,0.78781 39.28474,9.89145 57.63507,18.09321 20.23382,12.77071 43.65321,25.77075 51.94197,49.75945 4.39871,7.01216 -2.42286,13.83495 -9.51712,13.96916 -24.94274,5.48672 -48.87407,-6.51935 -71.17484,-16.0395 -20.23188,-12.83705 -43.66517,-25.50877 -52.56852,-49.23731 -4.40485,-6.46778 0.31269,-14.69306 7.96046,-14.7712 5.08913,-1.50557 10.44059,-1.81739 15.72298,-1.77381 z m -223.375,2.4375 c 18.52084,-0.32162 41.30854,6.80935 46.31594,26.94783 5.6665,27.36419 -10.80026,53.86179 -29.86927,72.11711 -24.56297,23.26547 -57.89802,40.38446 -92.47792,37.87256 -16.59493,-1.6021 -34.70583,-11.08529 -37.53296,-29.01546 -4.05534,-30.10093 15.5466,-57.54471 37.52394,-75.96766 21.29156,-17.88163 47.93571,-30.7741 76.04027,-31.95438 z"
       inkscape:connector-curvature="0"
       id="polygon35511" /></g></svg>