<?xml version="1.0" standalone="no"?>
<!DOCTYPE svg PUBLIC "-//W3C//DTD SVG 1.1//EN"
 "http://www.w3.org/Graphics/SVG/1.1/DTD/svg11.dtd">
<!-- Created with svg_stack (http://github.com/astraw/svg_stack) -->
<svg xmlns:sodipodi="http://sodipodi.sourceforge.net/DTD/sodipodi-0.dtd" xmlns="http://www.w3.org/2000/svg" version="1.1" width="1996.25" height="412.5">
  <defs/>
  <g id="id0:id0" transform="matrix(1.25,0,0,1.25,0.0,0.0)"><g transform="translate(0.000000,330.000000) scale(0.100000,-0.100000)" fill="#000000" stroke="none">
<path d="M0 1650 l0 -1650 860 0 860 0 0 155 0 155 6260 0 6260 0 0 -155 0 -155 865 0 865 0 0 1650 0 1650 -865 0 -865 0 0 -160 0 -160 -6260 0 -6260 0 0 160 0 160 -860 0 -860 0 0 -1650z m1580 0 l0 -1510 -720 0 -720 0 0 1510 0 1510 720 0 720 0 0 -1510z m14240 0 l0 -1510 -720 0 -720 0 0 1510 0 1510 720 0 720 0 0 -1510z m-5050 630 l-2785 -558 -2785 558 -2785 558 5570 0 5570 0 -2785 -558z m-6088 -41 c1615 -321 2935 -585 2934 -587 -2 -1 -1319 -265 -2927 -587 -1608 -321 -2934 -587 -2946 -590 l-23 -5 0 1181 c0 941 3 1180 13 1177 6 -3 1334 -268 2949 -589z m9558 -588 l0 -1178 -2941 588 c-1618 324 -2943 590 -2945 591 -1 2 1321 267 2939 590 1618 322 2943 586 2945 587 1 1 2 -529 2 -1178z m-3449 -628 l2806 -558 -2803 -3 c-1541 -1 -4067 -1 -5612 0 l-2809 3 2791 556 c1535 307 2798 558 2806 558 8 1 1278 -249 2821 -556z"/>
</g>
</g>
  <g id="id1:id1" transform="matrix(1.25,0,0,1.25,0.0,0.0)"><g transform="translate(0.000000,330.000000) scale(0.100000,-0.100000)" fill="#ffffff" stroke="none">
</g>
</g>
</svg>
