<?xml version="1.0" encoding="UTF-8" standalone="no"?>
<!-- Created with Inkscape (http://www.inkscape.org/) -->

<svg
   xmlns:dc="http://purl.org/dc/elements/1.1/"
   xmlns:cc="http://creativecommons.org/ns#"
   xmlns:rdf="http://www.w3.org/1999/02/22-rdf-syntax-ns#"
   xmlns:svg="http://www.w3.org/2000/svg"
   xmlns="http://www.w3.org/2000/svg"
   xmlns:inkscape="http://www.inkscape.org/namespaces/inkscape"
   version="1.1"
   width="100%"
   height="100%"
   viewBox="0 0 417.40625 417.40625"
   id="svg74479"
   xml:space="preserve"
   style="fill-rule:evenodd;stroke-linecap:round;stroke-linejoin:round"><metadata
     id="metadata74722"><rdf:RDF><cc:Work
         rdf:about=""><dc:format>image/svg+xml</dc:format><dc:type
           rdf:resource="http://purl.org/dc/dcmitype/StillImage" /></cc:Work></rdf:RDF></metadata><defs
     id="defs74481"><clipPath
       id="clipId0"><path
         d="M 0,600 800,600 800,0 0,0 z"
         inkscape:connector-curvature="0"
         id="path74484" /></clipPath></defs><g
     transform="translate(-192.25,-90.90625)"
     clip-path="url(#clipId0)"
     id="g74486"
     style="fill:none;stroke:#000000;stroke-width:0.1" /><g
     transform="translate(-192.25,-90.90625)"
     clip-path="url(#clipId0)"
     id="g74488"
     style="fill:#ffffff;stroke:none"><path
       d="m 192.25,90.90625 0,417.40625 417.40625,0 0,-417.40625 -417.40625,0 z"
       inkscape:connector-curvature="0"
       id="path74490" /></g><g
     transform="translate(-192.25,-90.90625)"
     clip-path="url(#clipId0)"
     id="g74494"
     style="fill:#000000;stroke:none"><path
       d="m 510.3125,121.78125 -13.59375,13.78125 -15.625,15.78125 -13.84375,14.03125 -5.34375,5.40625 -9.4375,9.53125 -5.59375,5.65625 -5,5.0625 -4.1875,4.21875 4.1875,22.40625 5,26.84375 -5,3.4375 -4.1875,2.875 -20.03125,13.71875 -0.84375,0.625 -13.625,9.71875 -13.90625,-14.5 -14.21875,-14.09375 -20.03125,-19.875 L 329.15625,200.75 304.125,175.90625 284.90625,156.84375 269.0625,141 l -9.1875,-1.40625 -1.6875,-0.28125 -6.65625,2.5 -5.03125,24.21875 5.03125,24.21875 6.65625,17.375 1.6875,4.3125 9.1875,20.0625 15.84375,23.375 19.21875,20.03125 25.03125,14.1875 25.875,5 11.5,11.03125 -69.9375,69.9375 -18.34375,18.375 -15.03125,15.03125 -1.6875,2.40625 -9.1875,13.1875 -2.5,3.59375 -3.34375,16.71875 3.34375,5.71875 2.5,4.28125 9.1875,4.1875 1.6875,-0.25 15.03125,-2.25 18.34375,-13.375 86,-84.78125 18.6875,-18.40625 7.1875,7.1875 95.15625,95.1875 22.5625,16.6875 10.84375,-0.71875 1.65625,-0.125 10.03125,-5 4.1875,-10.03125 1.65625,-12.5 -1.65625,-2.15625 -4.1875,-5.375 -10.03125,-12.875 -1.65625,-2.15625 -10.84375,-10.78125 -22.5625,-22.375 -72,-71.53125 6.0625,-8.6875 4.1875,-6 5,-7.5 5.59375,-8.40625 9.4375,-14.15625 5.34375,1.09375 13.84375,2.8125 15.625,3.1875 13.59375,2.78125 0.84375,0.15625 L 525.1875,254.6875 540.03125,239.84375 554.8125,225.0625 569.59375,210.28125 584.625,195.25 569.59375,180.46875 554.8125,195.5 l -14.78125,15 -14.84375,15.09375 -14.03125,14.25 -0.84375,0.84375 -13.59375,13.84375 -15.625,-15.03125 15.625,-15.625 13.59375,-13.59375 0.84375,-0.84375 14.03125,-14 14.84375,-14.875 14.78125,-14.78125 -14.78125,-14.59375 -14.84375,15.03125 -14.03125,14.1875 -0.84375,0.84375 -13.59375,13.75 -15.625,15.78125 -13.84375,14.03125 -5.34375,-5.34375 -9.4375,-9.4375 9.4375,-9.53125 5.34375,-5.40625 13.84375,-14.03125 15.625,-15.78125 13.59375,-13.78125 0.84375,-0.84375 14.03125,-14.1875 -14.03125,-13.84375 -0.84375,-0.84375 z"
       inkscape:connector-curvature="0"
       id="path74640" /></g><g
     transform="translate(-192.25,-90.90625)"
     clip-path="url(#clipId0)"
     id="g74646"
     style="fill:#000000;stroke:none" /><g
     transform="translate(-192.25,-90.90625)"
     clip-path="url(#clipId0)"
     id="g74716"
     style="fill:none;stroke:#000000;stroke-width:0.25" /></svg>