<?xml version="1.0" standalone="no"?>
<!DOCTYPE svg PUBLIC "-//W3C//DTD SVG 1.1//EN"
 "http://www.w3.org/Graphics/SVG/1.1/DTD/svg11.dtd">
<!-- Created with svg_stack (http://github.com/astraw/svg_stack) -->
<svg xmlns:sodipodi="http://sodipodi.sourceforge.net/DTD/sodipodi-0.dtd" xmlns="http://www.w3.org/2000/svg" version="1.1" width="1587.5" height="1586.25">
  <defs/>
  <g id="id0:id0" transform="matrix(1.25,0,0,1.25,0.0,0.0)"><g transform="translate(0.000000,1269.000000) scale(0.100000,-0.100000)" fill="#ff7f7f" stroke="none">
<path d="M5955 12680 c-552 -30 -1296 -190 -1810 -389 -477 -184 -960 -431 -1320 -676 -598 -407 -1041 -816 -1469 -1357 -254 -320 -575 -843 -763 -1241 -333 -703 -546 -1593 -583 -2426 -51 -1144 257 -2419 816 -3371 198 -338 368 -594 530 -798 388 -491 927 -989 1469 -1357 800 -543 1873 -935 2820 -1031 249 -26 304 -28 705 -28 404 0 454 2 700 28 804 83 1655 358 2400 774 1155 645 2093 1658 2647 2860 167 361 283 668 358 947 321 1194 321 2257 0 3450 -156 577 -467 1247 -836 1800 -271 407 -645 849 -968 1144 -587 537 -1308 978 -2096 1282 -412 160 -955 291 -1465 355 -257 32 -299 35 -630 38 -195 2 -422 1 -505 -4z m975 -1354 c265 -29 494 -75 780 -157 420 -120 734 -249 1095 -452 921 -516 1611 -1259 2088 -2246 209 -435 389 -1065 436 -1537 47 -464 47 -721 0 -1188 -34 -342 -129 -734 -279 -1161 -103 -292 -331 -736 -531 -1035 -241 -361 -481 -641 -769 -899 -551 -492 -984 -756 -1660 -1014 -367 -140 -688 -216 -1190 -283 -190 -26 -230 -28 -555 -27 -325 0 -365 2 -555 27 -488 65 -813 143 -1175 281 -693 265 -1105 516 -1665 1016 -556 497 -1022 1189 -1306 1939 -119 312 -228 768 -280 1161 -25 191 -27 229 -27 589 0 361 2 398 27 589 72 549 211 1040 433 1531 183 405 533 927 862 1284 723 783 1650 1301 2731 1524 180 38 484 75 695 86 189 10 627 -5 845 -28z"/>
</g>
</g>
  <g id="id1:id1" transform="matrix(1.25,0,0,1.25,0.0,0.0)"><g transform="translate(0.000000,1269.000000) scale(0.100000,-0.100000)" fill="#ffffff" stroke="none">
</g>
</g>
</svg>
