<?xml version="1.0" standalone="no"?>
<!DOCTYPE svg PUBLIC "-//W3C//DTD SVG 1.1//EN"
 "http://www.w3.org/Graphics/SVG/1.1/DTD/svg11.dtd">
<!-- Created with svg_stack (http://github.com/astraw/svg_stack) -->
<svg xmlns:sodipodi="http://sodipodi.sourceforge.net/DTD/sodipodi-0.dtd" xmlns="http://www.w3.org/2000/svg" version="1.1" width="1596.25" height="1596.25">
  <defs/>
  <g id="id0:id0" transform="matrix(1.25,0,0,1.25,0.0,0.0)"><g transform="translate(0.000000,1277.000000) scale(0.100000,-0.100000)" fill="#ffffff" stroke="none">
<path d="M6050 12763 c-158 -4 -342 -25 -347 -40 -5 -13 10 -570 27 -1003 13 -336 37 -1165 55 -1945 8 -357 19 -751 25 -875 5 -124 14 -448 20 -720 5 -272 12 -542 15 -600 7 -127 27 -803 65 -2250 17 -645 39 -1339 45 -1450 3 -58 12 -400 20 -760 18 -803 43 -1677 55 -1985 5 -126 15 -430 21 -675 7 -245 14 -447 16 -450 3 -3 167 -5 366 -4 350 0 611 16 623 36 6 9 -7 594 -31 1443 -8 281 -20 686 -25 900 -6 215 -15 487 -20 605 -5 118 -14 420 -20 670 -6 250 -15 561 -20 690 -5 129 -14 456 -20 725 -6 270 -14 603 -20 740 -5 138 -12 363 -15 500 -3 138 -10 363 -15 500 -6 138 -14 475 -20 750 -6 275 -15 606 -20 735 -5 129 -14 440 -20 690 -6 250 -15 554 -20 675 -6 121 -14 391 -20 600 -37 1446 -50 1890 -66 2331 l-7 162 -51 6 c-47 5 -399 5 -596 -1z"/>
<path d="M6843 12753 c9 -2 23 -2 30 0 6 3 -1 5 -18 5 -16 0 -22 -2 -12 -5z"/>
<path d="M5468 12703 c7 -3 16 -2 19 1 4 3 -2 6 -13 5 -11 0 -14 -3 -6 -6z"/>
<path d="M5388 12693 c7 -3 16 -2 19 1 4 3 -2 6 -13 5 -11 0 -14 -3 -6 -6z"/>
<path d="M8360 12455 c46 -18 64 -17 25 0 -16 8 -37 14 -45 14 -8 0 1 -7 20 -14z"/>
<path d="M9691 11847 c3 -4 32 -24 65 -45 79 -51 84 -54 84 -49 0 2 -24 20 -52 39 -54 36 -107 66 -97 55z"/>
<path d="M10060 11607 c0 -3 44 -37 98 -76 53 -40 79 -56 57 -37 -44 39 -155 120 -155 113z"/>
<path d="M10260 11456 c0 -2 8 -10 18 -17 15 -13 16 -12 3 4 -13 16 -21 21 -21 13z"/>
<path d="M2274 11278 l-19 -23 23 19 c12 11 22 21 22 23 0 8 -8 2 -26 -19z"/>
<path d="M10475 11280 c10 -11 20 -20 23 -20 3 0 -3 9 -13 20 -10 11 -20 20 -23 20 -3 0 3 -9 13 -20z"/>
<path d="M2214 11228 l-29 -33 33 29 c30 28 37 36 29 36 -2 0 -16 -15 -33 -32z"/>
<path d="M10540 11225 c19 -19 36 -35 39 -35 3 0 -10 16 -29 35 -19 19 -36 35 -39 35 -3 0 10 -16 29 -35z"/>
<path d="M10620 11155 c19 -19 36 -35 39 -35 3 0 -10 16 -29 35 -19 19 -36 35 -39 35 -3 0 10 -16 29 -35z"/>
<path d="M1934 10968 l-19 -23 23 19 c12 11 22 21 22 23 0 8 -8 2 -26 -19z"/>
<path d="M10895 10900 c33 -33 62 -60 64 -60 3 0 -21 27 -54 60 -33 33 -62 60 -64 60 -3 0 21 -27 54 -60z"/>
<path d="M11230 10536 c0 -2 8 -10 18 -17 15 -13 16 -12 3 4 -13 16 -21 21 -21 13z"/>
<path d="M11534 10150 c57 -79 77 -96 26 -22 -24 35 -48 66 -54 70 -6 3 7 -18 28 -48z"/>
<path d="M11821 9725 c12 -22 26 -44 32 -50 15 -16 -20 48 -38 70 -9 11 -7 2 6 -20z"/>
<path d="M2762 8900 c-23 -5 -54 -16 -70 -24 -15 -8 -36 -19 -48 -25 -35 -16 -105 -103 -138 -171 -27 -58 -31 -75 -30 -151 0 -78 3 -94 32 -150 32 -62 91 -132 149 -175 44 -33 132 -58 203 -58 73 0 177 33 206 65 9 10 22 19 28 19 6 0 25 17 41 37 109 135 133 267 74 408 -61 147 -166 222 -321 230 -46 2 -102 0 -126 -5z"/>
<path d="M8920 8094 c-129 -119 -245 -226 -258 -238 l-22 -22 85 -69 c47 -37 84 -70 82 -71 -2 -2 -25 3 -52 12 -27 8 -54 13 -59 11 -5 -2 -87 -259 -181 -571 l-171 -568 -165 1 c-184 2 -273 -13 -429 -71 -159 -59 -346 -202 -463 -355 -66 -86 -160 -287 -188 -403 -34 -137 -34 -363 0 -500 97 -392 415 -710 808 -807 92 -23 129 -27 253 -26 126 0 159 3 250 27 207 54 380 156 531 313 149 156 235 321 279 537 20 94 22 129 17 250 -7 183 -34 285 -123 463 -63 127 -70 136 -186 253 -67 67 -139 130 -162 142 -23 11 -60 34 -83 49 -23 16 -46 29 -50 29 -5 0 -17 6 -27 13 -18 13 -18 16 -2 65 l18 52 1076 -2 1076 -3 23 -60 c13 -32 23 -64 23 -70 0 -5 -40 -36 -89 -67 -169 -110 -289 -249 -381 -440 -83 -176 -105 -272 -105 -468 0 -189 22 -291 96 -448 143 -305 405 -523 729 -608 91 -24 125 -27 250 -28 125 0 160 4 254 27 387 97 705 408 804 788 24 94 27 121 27 274 0 155 -3 179 -28 269 -74 268 -235 488 -466 640 -108 70 -211 113 -352 146 -85 19 -115 21 -265 17 -93 -3 -182 -8 -199 -12 l-30 -6 -113 293 c-62 161 -112 296 -112 301 0 4 25 7 55 7 l55 0 0 190 0 190 -315 0 -315 0 0 -190 0 -190 198 -2 197 -3 -65 -24 c-36 -13 -66 -24 -68 -26 -1 -1 18 -53 43 -116 25 -63 45 -117 45 -121 0 -5 -443 -8 -985 -8 -542 0 -985 3 -985 8 -1 16 214 732 220 732 3 0 91 -70 195 -155 104 -85 192 -155 195 -155 5 0 91 94 145 159 l24 27 -225 185 -225 184 150 144 151 143 -81 89 c-45 49 -84 89 -88 89 -4 0 -112 -97 -241 -216z m-655 -1781 c-11 -31 -234 -777 -232 -778 21 -13 240 -66 246 -59 4 5 58 180 120 389 62 209 114 381 116 383 5 6 67 -29 120 -66 28 -20 84 -70 125 -112 62 -64 85 -96 131 -191 72 -145 92 -229 91 -379 -1 -367 -219 -665 -574 -786 -382 -130 -814 57 -994 431 -66 137 -79 195 -78 365 1 127 4 155 27 227 34 107 108 239 177 316 66 73 183 168 231 187 19 7 65 26 103 43 87 37 132 44 280 46 109 1 118 0 111 -16z m3280 -6 c198 -76 248 -107 381 -234 162 -155 251 -443 215 -693 -22 -146 -93 -311 -177 -408 -55 -64 -189 -169 -264 -207 -152 -76 -315 -106 -466 -86 -171 23 -289 74 -430 187 -158 126 -237 249 -290 454 -24 93 -22 282 4 380 36 139 122 295 200 368 89 81 195 163 202 155 4 -4 71 -174 149 -378 79 -203 147 -374 151 -379 6 -6 218 64 237 79 2 0 -64 174 -147 386 -130 335 -146 385 -132 391 31 14 323 2 367 -15z"/>
<path d="M3055 7966 c-77 -40 -161 -86 -187 -102 -44 -27 -253 -260 -912 -1019 -77 -88 -165 -189 -196 -225 -90 -103 -104 -131 -97 -199 9 -104 55 -161 165 -204 23 -9 56 -17 72 -17 63 0 118 54 498 487 116 133 215 244 220 247 8 5 62 -140 114 -302 l21 -64 -68 -141 c-37 -78 -302 -617 -587 -1199 l-519 -1056 11 -44 c20 -81 69 -171 108 -199 178 -125 355 -52 461 191 65 147 944 1970 950 1970 4 0 150 -372 325 -827 354 -918 459 -1190 482 -1244 37 -85 172 -169 271 -169 35 0 57 9 122 53 106 70 131 117 131 246 l0 88 -325 868 c-179 477 -380 1013 -445 1190 l-120 323 49 136 c27 74 52 150 56 168 4 18 16 52 26 76 l19 44 180 -174 179 -173 1 -197 c0 -117 4 -207 11 -220 14 -31 82 -74 142 -88 36 -10 58 -10 95 -1 60 16 135 64 150 96 8 18 12 112 12 294 0 262 0 269 -22 299 -26 36 -753 791 -922 957 -61 61 -142 131 -181 157 -99 68 -115 66 -290 -26z"/>
<path d="M91 7494 c0 -11 3 -14 6 -6 3 7 2 16 -1 19 -3 4 -6 -2 -5 -13z"/>
<path d="M82 7440 c0 -14 2 -19 5 -12 2 6 2 18 0 25 -3 6 -5 1 -5 -13z"/>
<path d="M72 7385 c0 -16 2 -22 5 -12 2 9 2 23 0 30 -3 6 -5 -1 -5 -18z"/>
<path d="M62 7320 c0 -14 2 -19 5 -12 2 6 2 18 0 25 -3 6 -5 1 -5 -13z"/>
<path d="M12731 6994 c0 -11 3 -14 6 -6 3 7 2 16 -1 19 -3 4 -6 -2 -5 -13z"/>
<path d="M12743 6875 c0 -33 2 -45 4 -27 2 18 2 45 0 60 -2 15 -4 0 -4 -33z"/>
<path d="M12753 6705 c0 -33 2 -45 4 -27 2 18 2 45 0 60 -2 15 -4 0 -4 -33z"/>
<path d="M12764 6385 c0 -71 1 -99 3 -62 2 37 2 96 0 130 -2 34 -3 4 -3 -68z"/>
<path d="M12743 5880 c0 -25 2 -35 4 -22 2 12 2 32 0 45 -2 12 -4 2 -4 -23z"/>
<path d="M12732 5790 c0 -19 2 -27 5 -17 2 9 2 25 0 35 -3 9 -5 1 -5 -18z"/>
<path d="M12722 5700 c0 -14 2 -19 5 -12 2 6 2 18 0 25 -3 6 -5 1 -5 -13z"/>
<path d="M12711 5604 c0 -11 3 -14 6 -6 3 7 2 16 -1 19 -3 4 -6 -2 -5 -13z"/>
<path d="M62 5465 c0 -16 2 -22 5 -12 2 9 2 23 0 30 -3 6 -5 -1 -5 -18z"/>
<path d="M12692 5450 c0 -14 2 -19 5 -12 2 6 2 18 0 25 -3 6 -5 1 -5 -13z"/>
<path d="M72 5395 c0 -16 4 -43 8 -60 11 -42 11 -1 1 50 -7 34 -9 35 -9 10z"/>
<path d="M12682 5385 c0 -16 2 -22 5 -12 2 9 2 23 0 30 -3 6 -5 -1 -5 -18z"/>
<path d="M12672 5330 c0 -14 2 -19 5 -12 2 6 2 18 0 25 -3 6 -5 1 -5 -13z"/>
<path d="M92 5280 c0 -14 2 -19 5 -12 2 6 2 18 0 25 -3 6 -5 1 -5 -13z"/>
<path d="M12661 5274 c0 -11 3 -14 6 -6 3 7 2 16 -1 19 -3 4 -6 -2 -5 -13z"/>
<path d="M101 5224 c0 -11 3 -14 6 -6 3 7 2 16 -1 19 -3 4 -6 -2 -5 -13z"/>
<path d="M141 5034 c0 -11 3 -14 6 -6 3 7 2 16 -1 19 -3 4 -6 -2 -5 -13z"/>
<path d="M151 4984 c0 -11 3 -14 6 -6 3 7 2 16 -1 19 -3 4 -6 -2 -5 -13z"/>
<path d="M162 4945 c0 -11 4 -31 8 -45 6 -20 8 -21 8 -5 0 11 -4 31 -8 45 -6 20 -8 21 -8 5z"/>
<path d="M181 4854 c0 -11 3 -14 6 -6 3 7 2 16 -1 19 -3 4 -6 -2 -5 -13z"/>
<path d="M480 3935 c0 -5 5 -17 10 -25 5 -8 10 -10 10 -5 0 6 -5 17 -10 25 -5 8 -10 11 -10 5z"/>
<path d="M11832 3067 c-11 -19 -27 -47 -37 -63 l-17 -29 20 25 c24 29 66 100 59 100 -3 0 -14 -15 -25 -33z"/>
<path d="M11529 2613 c-23 -32 -36 -53 -28 -46 17 14 83 103 76 103 -3 0 -24 -26 -48 -57z"/>
<path d="M11469 2533 c-13 -16 -12 -17 4 -4 16 13 21 21 13 21 -2 0 -10 -8 -17 -17z"/>
<path d="M11235 2243 c-33 -38 -49 -59 -36 -48 26 22 105 115 99 115 -3 0 -31 -30 -63 -67z"/>
<path d="M11144 2138 l-29 -33 33 29 c30 28 37 36 29 36 -2 0 -16 -15 -33 -32z"/>
<path d="M10895 1868 l-60 -63 63 60 c34 33 62 61 62 62 0 8 -10 -1 -65 -59z"/>
<path d="M10115 1209 c-98 -70 -106 -83 -12 -19 66 45 98 71 85 70 -2 -1 -34 -23 -73 -51z"/>
<path d="M9737 956 c-48 -29 -61 -43 -22 -23 31 16 74 46 65 46 -3 0 -22 -10 -43 -23z"/>
<path d="M7358 73 c7 -3 16 -2 19 1 4 3 -2 6 -13 5 -11 0 -14 -3 -6 -6z"/>
<path d="M7278 63 c7 -3 16 -2 19 1 4 3 -2 6 -13 5 -11 0 -14 -3 -6 -6z"/>
<path d="M5893 13 c9 -2 25 -2 35 0 9 3 1 5 -18 5 -19 0 -27 -2 -17 -5z"/>
</g>
</g>
  <g id="id1:id1" transform="matrix(1.25,0,0,1.25,0.0,0.0)"><g transform="translate(0.000000,1277.000000) scale(0.100000,-0.100000)" fill="#00ffff" stroke="none">
<path d="M6704 12598 c16 -442 29 -886 66 -2333 6 -209 14 -479 20 -600 5 -121 14 -425 20 -675 6 -250 15 -561 20 -690 5 -129 14 -460 20 -735 6 -275 14 -612 20 -750 5 -137 12 -362 15 -500 3 -137 10 -362 15 -500 6 -137 14 -470 20 -740 6 -269 15 -596 20 -725 5 -129 14 -440 20 -690 6 -250 15 -552 20 -670 5 -118 14 -390 20 -605 5 -214 17 -619 25 -900 8 -280 19 -719 26 -975 6 -256 13 -467 15 -469 2 -2 111 11 241 29 651 89 1258 279 1913 597 566 276 1212 736 1642 1170 606 612 1049 1263 1389 2038 314 719 509 1657 509 2450 0 1085 -211 1997 -676 2926 -290 580 -725 1188 -1156 1616 -610 604 -1272 1055 -2038 1388 -437 190 -919 330 -1470 429 -228 40 -547 76 -685 76 l-38 0 7 -162z m2545 -4377 l81 -89 -151 -143 -150 -144 225 -184 225 -185 -24 -27 c-54 -65 -140 -159 -145 -159 -3 0 -91 70 -195 155 -104 85 -192 155 -195 155 -6 0 -221 -716 -220 -732 0 -5 443 -8 985 -8 542 0 985 3 985 8 0 4 -20 58 -45 121 -25 63 -44 115 -43 116 2 2 32 13 68 26 l65 24 -197 3 -198 2 0 190 0 190 315 0 315 0 0 -190 0 -190 -55 0 c-30 0 -55 -3 -55 -7 0 -5 50 -140 112 -301 l113 -293 30 6 c17 4 106 9 199 12 150 4 180 2 265 -17 141 -33 244 -76 352 -146 231 -152 392 -372 466 -640 25 -90 28 -114 28 -269 0 -153 -3 -180 -27 -274 -64 -244 -222 -467 -435 -617 -120 -84 -234 -137 -369 -171 -94 -23 -129 -27 -254 -27 -125 1 -159 4 -250 28 -324 85 -586 303 -729 608 -74 157 -96 259 -96 448 0 196 22 292 105 468 92 191 212 330 381 440 49 31 89 62 89 67 0 6 -10 38 -23 70 l-23 60 -1076 3 -1076 2 -18 -52 c-16 -49 -16 -52 2 -65 10 -7 22 -13 27 -13 4 0 27 -13 50 -29 23 -15 60 -38 83 -49 23 -12 95 -75 162 -142 116 -117 123 -126 186 -253 89 -178 116 -280 123 -463 9 -225 -31 -387 -144 -587 -139 -245 -395 -438 -683 -513 -91 -24 -124 -27 -250 -27 -124 -1 -161 3 -253 26 -324 80 -591 302 -736 609 -74 157 -96 259 -96 448 0 129 4 171 24 250 28 116 122 317 188 403 117 153 304 296 463 355 156 58 245 73 429 71 l165 -1 171 568 c94 312 176 569 181 571 5 2 32 -3 59 -11 27 -9 50 -14 52 -12 2 1 -35 34 -82 71 l-85 69 22 22 c82 80 494 454 499 454 4 0 43 -40 88 -89z"/>
<path d="M7989 6320 c-25 -4 -77 -21 -115 -37 -38 -17 -84 -36 -103 -43 -48 -19 -165 -114 -231 -187 -69 -77 -143 -209 -177 -316 -23 -72 -26 -100 -27 -227 -1 -170 12 -228 78 -365 153 -317 497 -510 832 -466 355 47 632 289 716 626 26 106 28 281 3 385 -9 41 -43 126 -74 189 -46 95 -69 127 -131 191 -41 42 -97 92 -125 112 -53 37 -115 72 -120 66 -2 -2 -54 -174 -116 -383 -62 -209 -116 -384 -120 -389 -6 -7 -225 46 -246 59 -2 1 221 747 232 778 7 16 -2 17 -111 16 -66 -1 -140 -5 -165 -9z"/>
<path d="M11178 6322 c-14 -6 2 -56 132 -391 83 -212 149 -386 147 -386 -19 -15 -231 -85 -237 -79 -4 5 -72 176 -151 379 -78 204 -145 374 -149 378 -7 8 -113 -74 -202 -155 -78 -73 -164 -229 -200 -368 -26 -98 -28 -287 -4 -380 35 -135 87 -241 164 -338 45 -57 202 -182 272 -217 299 -150 634 -114 896 98 98 79 144 131 192 217 82 145 119 311 109 479 -8 118 -39 225 -102 351 -38 75 -62 108 -119 163 -133 127 -183 158 -381 234 -44 17 -336 29 -367 15z"/>
<path d="M5410 12695 c-621 -90 -1240 -286 -1860 -587 -708 -344 -1419 -889 -1947 -1492 -807 -920 -1320 -1993 -1512 -3161 -89 -539 -110 -957 -76 -1507 37 -600 198 -1306 437 -1921 162 -419 455 -959 726 -1341 375 -529 913 -1079 1410 -1440 666 -484 1475 -865 2237 -1051 382 -93 709 -149 993 -171 127 -9 235 -14 239 -11 6 7 -10 710 -27 1122 -12 308 -37 1182 -55 1985 -8 360 -17 702 -20 760 -6 111 -28 805 -45 1450 -38 1447 -58 2123 -65 2250 -3 58 -10 328 -15 600 -6 272 -15 596 -20 720 -6 124 -17 518 -25 875 -18 779 -42 1606 -55 1954 -13 324 -30 846 -30 934 l0 67 -32 -1 c-18 -1 -134 -16 -258 -34z m-2374 -3826 c82 -41 133 -98 173 -194 59 -141 35 -273 -74 -408 -16 -20 -35 -37 -41 -37 -6 0 -19 -9 -28 -19 -29 -32 -133 -65 -206 -65 -149 1 -276 84 -352 233 -29 56 -32 72 -32 150 -1 76 3 93 30 151 33 68 103 155 138 171 12 6 33 17 48 25 45 24 107 33 196 29 68 -3 94 -10 148 -36z m309 -877 c39 -26 120 -96 181 -157 169 -166 896 -921 922 -957 22 -30 22 -37 22 -299 0 -182 -4 -276 -12 -294 -15 -32 -90 -80 -150 -96 -37 -9 -59 -9 -95 1 -60 14 -128 57 -142 88 -7 13 -11 103 -11 220 l-1 197 -179 173 -180 174 -19 -44 c-10 -24 -22 -58 -26 -76 -4 -18 -29 -94 -56 -168 l-49 -136 120 -323 c65 -177 266 -713 445 -1190 l325 -868 0 -88 c0 -129 -25 -176 -131 -246 -65 -44 -87 -53 -122 -53 -99 0 -234 84 -271 169 -23 54 -128 326 -482 1244 -175 455 -321 827 -325 827 -6 0 -885 -1823 -950 -1970 -46 -106 -97 -172 -167 -214 -50 -30 -69 -36 -116 -36 -62 0 -122 20 -178 59 -39 28 -88 118 -108 199 l-11 44 519 1056 c285 582 550 1121 587 1199 l68 141 -21 64 c-52 162 -106 307 -114 302 -5 -3 -104 -114 -220 -247 -380 -433 -435 -487 -498 -487 -16 0 -49 8 -72 17 -110 43 -156 100 -165 204 -7 68 7 96 97 199 31 36 119 137 196 225 659 759 868 992 912 1019 26 16 110 62 187 102 175 92 191 94 290 26z"/>
</g>
</g>
</svg>
