<?xml version="1.0" standalone="no"?>
<!DOCTYPE svg PUBLIC "-//W3C//DTD SVG 1.1//EN"
 "http://www.w3.org/Graphics/SVG/1.1/DTD/svg11.dtd">
<!-- Created with svg_stack (http://github.com/astraw/svg_stack) -->
<svg xmlns:sodipodi="http://sodipodi.sourceforge.net/DTD/sodipodi-0.dtd" xmlns="http://www.w3.org/2000/svg" version="1.1" width="1085.0" height="1591.25">
  <defs/>
  <g id="id0:id0" transform="matrix(1.25,0,0,1.25,0.0,0.0)"><g transform="translate(0.000000,1273.000000) scale(0.100000,-0.100000)" fill="#000000" stroke="none">
<path d="M617 12107 l-616 -623 1550 -1550 1549 -1549 -1549 -1550 -1550 -1550 619 -625 618 -625 1186 1190 1186 1190 -29 -80 c-23 -63 -2319 -6272 -2338 -6322 -4 -10 619 -13 3097 -13 2478 0 3101 3 3097 12 -19 51 -2315 6260 -2338 6323 l-29 80 1186 -1190 1186 -1190 618 625 619 625 -1550 1550 -1549 1550 1549 1550 1550 1550 -618 625 -618 625 -1552 -1555 -1551 -1555 -1549 1553 c-852 853 -1551 1552 -1554 1552 -2 0 -282 -280 -620 -623z"/>
</g>
</g>
  <g id="id1:id1" transform="matrix(1.25,0,0,1.25,0.0,0.0)"><g transform="translate(0.000000,1273.000000) scale(0.100000,-0.100000)" fill="#ffffff" stroke="none">
</g>
</g>
</svg>
