<?xml version="1.0" standalone="no"?>
<!DOCTYPE svg PUBLIC "-//W3C//DTD SVG 1.1//EN"
 "http://www.w3.org/Graphics/SVG/1.1/DTD/svg11.dtd">
<!-- Created with svg_stack (http://github.com/astraw/svg_stack) -->
<svg xmlns:sodipodi="http://sodipodi.sourceforge.net/DTD/sodipodi-0.dtd" xmlns="http://www.w3.org/2000/svg" version="1.1" width="1292.5" height="1595.0">
  <defs/>
  <g id="id0:id0" transform="matrix(1.25,0,0,1.25,0.0,0.0)"><g transform="translate(0.000000,1276.000000) scale(0.100000,-0.100000)" fill="#000000" stroke="none">
<path d="M4705 12542 c-247 -120 -1407 -676 -2578 -1237 l-2127 -1020 0 -5142 0 -5143 5170 0 5170 0 0 5143 0 5142 -2572 1234 c-1415 679 -2582 1236 -2593 1238 -11 1 -222 -95 -470 -215z m2883 -1338 l2392 -1149 0 -4847 0 -4848 -4810 0 -4810 0 0 4848 1 4847 2397 1152 c1339 644 2406 1151 2417 1150 11 -2 1097 -521 2413 -1153z"/>
<path d="M4926 8424 c-170 -66 -297 -180 -376 -334 -157 -311 -73 -672 204 -879 91 -69 174 -103 310 -127 94 -17 102 -17 202 0 139 23 198 45 286 104 123 84 200 181 263 331 64 150 66 345 6 490 -90 215 -223 348 -422 421 -79 28 -90 30 -233 30 -148 -1 -153 -1 -240 -36z"/>
<path d="M2055 3274 c-157 -36 -262 -91 -357 -188 -125 -124 -175 -214 -202 -358 -20 -107 -20 -170 0 -283 22 -121 66 -213 149 -307 127 -146 255 -216 456 -249 121 -20 245 5 406 83 112 54 234 180 292 301 64 133 73 179 69 335 -4 125 -7 144 -35 214 -66 167 -199 317 -333 380 -136 63 -166 71 -300 74 -69 1 -134 1 -145 -2z"/>
<path d="M8025 3270 c-16 -5 -50 -14 -75 -21 -96 -25 -172 -71 -260 -159 -227 -225 -286 -495 -170 -773 76 -183 258 -351 430 -397 134 -35 210 -44 283 -32 194 33 283 77 410 201 82 80 106 110 142 181 97 194 98 437 2 625 -58 113 -201 259 -301 308 -115 56 -177 71 -311 73 -66 2 -133 -1 -150 -6z"/>
</g>
</g>
  <g id="id1:id1" transform="matrix(1.25,0,0,1.25,0.0,0.0)"><g transform="translate(0.000000,1276.000000) scale(0.100000,-0.100000)" fill="#ffffff" stroke="none">
<path d="M2758 11207 l-2397 -1152 -1 -4847 0 -4848 4810 0 4810 0 0 4848 0 4847 -2392 1149 c-1316 632 -2402 1151 -2413 1153 -11 1 -1078 -506 -2417 -1150z m2641 -2777 c199 -73 332 -206 422 -421 60 -145 58 -340 -6 -490 -63 -150 -140 -247 -263 -331 -88 -59 -147 -81 -286 -104 -100 -17 -108 -17 -202 0 -136 24 -219 58 -310 127 -277 207 -361 568 -204 879 79 154 206 268 376 334 87 35 92 35 240 36 143 0 154 -2 233 -30z m-3024 -5175 c28 -10 84 -34 125 -53 134 -63 267 -213 333 -380 28 -70 31 -89 35 -214 4 -156 -5 -202 -69 -335 -58 -121 -180 -247 -292 -301 -161 -78 -285 -103 -406 -83 -201 33 -329 103 -456 249 -83 94 -127 186 -149 307 -20 113 -20 176 0 283 27 144 77 234 202 358 95 97 200 152 357 188 50 12 271 -2 320 -19z m5980 1 c129 -39 197 -82 297 -184 71 -73 104 -117 135 -177 96 -188 95 -431 -2 -625 -36 -71 -60 -101 -142 -181 -127 -124 -216 -168 -410 -201 -60 -10 -84 -9 -155 4 -184 36 -269 73 -366 163 -268 247 -325 583 -149 880 58 98 194 231 277 271 36 18 85 37 110 43 25 7 59 16 75 21 51 15 263 6 330 -14z"/>
</g>
</g>
</svg>
