<?xml version="1.0" encoding="UTF-8" standalone="no"?>
<!-- Created with Inkscape (http://www.inkscape.org/) -->

<svg
   xmlns:dc="http://purl.org/dc/elements/1.1/"
   xmlns:cc="http://creativecommons.org/ns#"
   xmlns:rdf="http://www.w3.org/1999/02/22-rdf-syntax-ns#"
   xmlns:svg="http://www.w3.org/2000/svg"
   xmlns="http://www.w3.org/2000/svg"
   xmlns:inkscape="http://www.inkscape.org/namespaces/inkscape"
   version="1.1"
   width="100%"
   height="100%"
   viewBox="0 0 322.6875 351.03125"
   id="svg2"
   xml:space="preserve"
   style="fill-rule:evenodd;stroke-linecap:round;stroke-linejoin:round"><metadata
     id="metadata53"><rdf:RDF><cc:Work
         rdf:about=""><dc:format>image/svg+xml</dc:format><dc:type
           rdf:resource="http://purl.org/dc/dcmitype/StillImage" /></cc:Work></rdf:RDF></metadata><defs
     id="defs4"><clipPath
       id="clipId0"><path
         d="M 0,600 800,600 800,0 0,0 z"
         inkscape:connector-curvature="0"
         id="path7" /></clipPath></defs><g
     transform="translate(-237.375,-124.65625)"
     clip-path="url(#clipId0)"
     id="g9"
     style="fill:none;stroke:#000000;stroke-width:0.1" /><g
     transform="translate(-237.375,-124.65625)"
     clip-path="url(#clipId0)"
     id="g11"
     style="fill:#000000;stroke:none"><path
       d="m 313.6875,124.65625 0,43.59375 21.78125,0 0,-43.59375 z m 148.25,0 0,43.59375 21.8125,0 0,-43.59375 z M 270.625,142.5 255.1875,157.90625 286.03125,188.75 301.4375,173.3125 z m 107.90625,0 -30.8125,30.8125 15.40625,15.4375 30.84375,-30.84375 z m 40.34375,0 -15.40625,15.40625 29.9375,29.96875 -56.5,0 -20.67388,0.56931 12.29888,17.30569 30.1875,36.21875 45.0625,-54.09375 -8.625,0 14.5625,-14.5625 z m 107.9375,0 -30.84375,30.8125 15.4375,15.4375 30.8125,-30.84375 z m -289.4375,58.46875 0,21.8125 43.59375,0 0,-21.8125 z m 279.0625,0 0,21.8125 43.625,0 0,-21.8125 z m -279.0625,43.59375 0,21.8125 43.59375,0 0,-21.8125 z m 279.0625,0 0,21.8125 43.625,0 0,-21.8125 z m -128.625,10.90625 0,198.40625 -76.3125,0 0,21.8125 174.4375,0 0,-21.8125 -76.3125,0 0,-198.40625 z m -150.4375,67.59375 0,21.8125 43.59375,0 0,-21.8125 z m 279.0625,0 0,21.8125 43.625,0 0,-21.8125 z"
       inkscape:connector-curvature="0"
       id="path13" /></g></svg>