<?xml version="1.0" encoding="UTF-8" standalone="no"?>
<svg
   xmlns:dc="http://purl.org/dc/elements/1.1/"
   xmlns:cc="http://creativecommons.org/ns#"
   xmlns:rdf="http://www.w3.org/1999/02/22-rdf-syntax-ns#"
   xmlns:svg="http://www.w3.org/2000/svg"
   xmlns="http://www.w3.org/2000/svg"
   xmlns:sodipodi="http://sodipodi.sourceforge.net/DTD/sodipodi-0.dtd"
   xmlns:inkscape="http://www.inkscape.org/namespaces/inkscape"
   viewBox="0 0 333.40625 395.8125"
   version="1.1"
   xml:space="preserve"
   id="svg43426"
   inkscape:version="0.48.3.1 r9886"
   width="100%"
   height="100%"
   sodipodi:docname="alkis3319.svg"
   style="fill-rule:evenodd;stroke-linecap:round;stroke-linejoin:round"><metadata
   id="metadata43675"><rdf:RDF><cc:Work
       rdf:about=""><dc:format>image/svg+xml</dc:format><dc:type
         rdf:resource="http://purl.org/dc/dcmitype/StillImage" /></cc:Work></rdf:RDF></metadata><sodipodi:namedview
   pagecolor="#ffffff"
   bordercolor="#666666"
   borderopacity="1"
   objecttolerance="10"
   gridtolerance="10"
   guidetolerance="10"
   inkscape:pageopacity="0"
   inkscape:pageshadow="2"
   inkscape:window-width="1855"
   inkscape:window-height="1025"
   id="namedview43673"
   showgrid="false"
   inkscape:zoom="1.5733333"
   inkscape:cx="167.30244"
   inkscape:cy="198.40625"
   inkscape:window-x="0"
   inkscape:window-y="33"
   inkscape:window-maximized="1"
   inkscape:current-layer="svg43426" />
<defs
   id="defs43428">
<clipPath
   id="clipId0">
<path
   d="M 0,600 800,600 800,0 0,0 z"
   id="path43431"
   inkscape:connector-curvature="0" />
</clipPath>























































































































</defs>
<g
   clip-path="url(#clipId0)"
   id="g43433"
   style="fill:none;stroke:#000000;stroke-width:0.1"
   transform="translate(-233.96875,-102.59375)" />
<path
   style="fill:#ffffff;stroke:none"
   d="M 180.5625,6.9375 172.59375,8.5625 152.5625,12.625 141,14.96875 136.28125,17.03125 124.25,22.28125 116.875,25.5 114.40625,26.59375 104,31.125 71.1875,54.65625 l -27.15625,29.875 -20.28125,34.875 -12.5625,38.375 -4.25,40.125 4.25,40.15625 12.5625,38.375 20.28125,34.875 27.15625,29.875 32.8125,23.53125 10.40625,4.53125 2.46875,1.09375 7.375,3.21875 12.03125,5.25 4.71875,2.0625 11.5625,2.34375 20.03125,4.0625 7.96875,1.625 15.15625,-0.15625 25.1875,-0.25 0.25,-0.0625 26.96875,-6.03125 12.15625,-2.75 15.4375,-7.09375 21.25,-9.78125 6.09375,-4.5625 26.21875,-19.625 -26.21875,8.71875 -6.09375,0.875 -21.25,3.03125 -15.4375,-0.625 -12.15625,-0.46875 -26.96875,-6 -0.25,-0.0937 -25.1875,-10.65625 -15.15625,-9.90625 -7.96875,-5.21875 L 152.5625,299.21875 141,283.375 136.28125,276.90625 124.25,252.0625 l -7.375,-26.625 -2.46875,-27.53125 2.46875,-27.5 7.375,-26.625 L 136.28125,118.9375 141,112.46875 152.5625,96.625 172.59375,77.59375 180.5625,72.375 l 15.15625,-9.90625 25.1875,-10.65625 0.25,-0.0937 26.96875,-6 12.15625,-0.5 15.4375,-0.59375 21.25,3.03125 6.09375,0.875 26.21875,8.71875 -26.21875,-19.625 -6.09375,-4.5625 -21.25,-9.78125 -15.4375,-7.09375 -12.15625,-2.75 -26.96875,-6.0313 -0.25,-0.0625 -25.1875,-0.25 L 180.5625,6.9375 z"
   id="path43437"
   inkscape:connector-curvature="0" />
<path
   style="fill:#000000;stroke:none"
   d="m 179.875,0 -40.96875,8.34375 -38.34375,16.75 -33.96875,24.375 -28.15625,30.9375 -21.03125,36.15625 -13,39.78125 L 0,197.90625 4.40625,239.5 l 13,39.78125 21.03125,36.15625 28.15625,30.9375 33.96875,24.375 38.34375,16.75 40.96875,8.3125 41.84375,-0.40625 40.8125,-9.15625 38,-17.5 32.875,-24.625 -4.125,-5.53125 -2.1875,-6.5625 -25.625,8.53125 -26.09375,3.71875 -26.34375,-1.03125 -25.75,-5.71875 -24.3125,-10.25 -22.0625,-14.46875 -19.125,-18.15625 -15.5625,-21.3125 -11.46875,-23.75 -7.0625,-25.40625 -2.375,-26.28125 2.375,-26.25 7.0625,-25.40625 11.46875,-23.75 15.5625,-21.3125 19.125,-18.15625 22.0625,-14.46875 24.3125,-10.25 25.75,-5.71875 26.34375,-1.03125 26.09375,3.71875 25.625,8.53125 2.1875,-6.5625 4.125,-5.53125 -32.875,-24.625 -38,-17.5 L 221.71875,0.4375 179.875,0 z m 1.34375,13.84375 38.875,0.40625 37.96875,8.5 35.34375,16.28125 1.875,1.40625 -19.1875,-2.75 -28.875,1.15625 -28.15625,6.25 -26.625,11.25 -24.15625,15.8125 -20.90625,19.875 -17.03125,23.3125 -12.59375,26 -7.6875,27.8125 -2.59375,28.75 2.59375,28.78125 7.6875,27.8125 12.59375,26 17.03125,23.3125 20.90625,19.875 24.15625,15.8125 26.625,11.25 28.15625,6.25 28.875,1.15625 19.1875,-2.75 -1.875,1.40625 -35.34375,16.28125 -37.96875,8.5 -38.875,0.40625 -38.125,-7.75 L 107.4375,358.6875 75.8125,336 49.65625,307.21875 l -19.5625,-33.625 -12.125,-37 -4.0625,-38.6875 4.0625,-38.65625 12.125,-37 19.5625,-33.625 26.15625,-28.78125 31.625,-22.6875 35.65625,-15.5625 38.125,-7.75 z"
   id="path43585"
   inkscape:connector-curvature="0" />
</svg>