<?xml version="1.0" encoding="UTF-8" standalone="no"?>
<svg
   xmlns:dc="http://purl.org/dc/elements/1.1/"
   xmlns:cc="http://creativecommons.org/ns#"
   xmlns:rdf="http://www.w3.org/1999/02/22-rdf-syntax-ns#"
   xmlns:svg="http://www.w3.org/2000/svg"
   xmlns="http://www.w3.org/2000/svg"
   xmlns:sodipodi="http://sodipodi.sourceforge.net/DTD/sodipodi-0.dtd"
   xmlns:inkscape="http://www.inkscape.org/namespaces/inkscape"
   viewBox="0 0 215.24851 350.40356"
   version="1.1"
   xml:space="preserve"
   id="svg2"
   inkscape:version="0.48.3.1 r9886"
   width="100%"
   height="100%"
   sodipodi:docname="alkis3551.svg"
   style="fill-rule:evenodd;stroke-linecap:round;stroke-linejoin:round"><metadata
   id="metadata191"><rdf:RDF><cc:Work
       rdf:about=""><dc:format>image/svg+xml</dc:format><dc:type
         rdf:resource="http://purl.org/dc/dcmitype/StillImage" /></cc:Work></rdf:RDF></metadata><sodipodi:namedview
   pagecolor="#ffffff"
   bordercolor="#666666"
   borderopacity="1"
   objecttolerance="10"
   gridtolerance="10"
   guidetolerance="10"
   inkscape:pageopacity="0"
   inkscape:pageshadow="2"
   inkscape:window-width="1855"
   inkscape:window-height="1025"
   id="namedview189"
   showgrid="false"
   inkscape:zoom="1.5733333"
   inkscape:cx="-11.737624"
   inkscape:cy="236.75172"
   inkscape:window-x="0"
   inkscape:window-y="33"
   inkscape:window-maximized="1"
   inkscape:current-layer="svg2" />
<defs
   id="defs4">
<clipPath
   id="clipId0">
<path
   d="M 0,600 800,600 800,0 0,0 z"
   id="path7"
   inkscape:connector-curvature="0" />
</clipPath>
</defs>
<g
   clip-path="url(#clipId0)"
   id="g9"
   style="fill:none;stroke:#000000;stroke-width:0.1"
   transform="translate(-291.50145,-125.09374)" />
<g
   clip-path="url(#clipId0)"
   id="g11"
   style="fill:#000000;stroke:none"
   transform="translate(-291.50145,-125.09374)">
















































































</g>
<g
   clip-path="url(#clipId0)"
   id="g173"
   style="fill:none;stroke:#000000;stroke-width:0.25"
   transform="translate(-291.50145,-125.09374)">
<path
   style="fill:#000000;fill-opacity:1"
   d="m 291.65625,125.21875 0,107.46875 -0.0298,6.06734 6.12351,0.0264 95.3125,0 0,123.34375 c -16.57716,1.78519 -32.18579,11.18247 -41.28125,25.21875 -10.82012,16.08179 -12.39993,37.83789 -4,55.3125 8.21078,18.04148 26.56177,30.87432 46.3125,32.46875 19.07921,1.8528 38.74448,-6.81896 50.21875,-22.1875 12.01432,-15.50163 14.97383,-37.39841 7.5,-55.53125 -7.04916,-17.9402 -23.85268,-31.56158 -42.875,-34.71875 -1.23462,-0.22653 -2.47164,-0.40074 -3.71875,-0.53125 l 0,-123.375 101.40625,0 0,-113.5625 z m 12.1875,12.1875 190.59375,0 0,89.21875 -190.59375,0 z m 95.3125,236.5625 c 15.02677,-0.0374 29.75842,8.02186 37.6875,20.8125 8.3154,12.91586 9.13084,30.12398 2.1875,43.8125 -7.49111,15.19655 -24.20039,25.27598 -41.15625,24.5625 -17.08486,-0.27145 -33.3268,-11.45178 -39.8125,-27.25 -6.41876,-14.88101 -3.80995,-33.12091 6.59375,-45.5625 8.29644,-10.28751 21.30584,-16.35913 34.5,-16.375 z"
   id="polyline175"
   inkscape:connector-curvature="0"
   sodipodi:nodetypes="ccccccccccccccccccccccccccccc" />
</g>
<g
   clip-path="url(#clipId0)"
   id="g177"
   style="fill:#000000;stroke:none"
   transform="translate(-291.50145,-125.09374)">





</g>
</svg>