<?xml version="1.0" standalone="no"?>
<!DOCTYPE svg PUBLIC "-//W3C//DTD SVG 1.1//EN"
 "http://www.w3.org/Graphics/SVG/1.1/DTD/svg11.dtd">
<!-- Created with svg_stack (http://github.com/astraw/svg_stack) -->
<svg xmlns:sodipodi="http://sodipodi.sourceforge.net/DTD/sodipodi-0.dtd" xmlns="http://www.w3.org/2000/svg" version="1.1" width="1283.75" height="1592.5">
  <defs/>
  <g id="id0:id0" transform="matrix(1.25,0,0,1.25,0.0,0.0)"><g transform="translate(0.000000,1274.000000) scale(0.100000,-0.100000)" fill="#ffffff" stroke="none">
<path d="M2558 11507 l-2558 -1232 0 -5137 0 -5138 5135 0 5135 0 0 5138 0 5137 -2557 1229 c-1407 676 -2567 1231 -2578 1233 -11 1 -1149 -542 -2577 -1230z m2824 -2525 c134 -47 184 -79 289 -182 86 -85 101 -106 148 -203 109 -226 109 -459 -1 -687 -46 -94 -62 -115 -147 -200 -104 -103 -157 -136 -284 -179 -127 -43 -240 -57 -340 -42 -272 42 -471 181 -596 420 -69 132 -82 188 -83 347 -1 156 12 207 84 345 96 185 237 312 416 374 129 44 126 44 287 40 126 -2 149 -6 227 -33z m571 -1987 c26 -82 196 -647 378 -1255 181 -608 332 -1113 335 -1122 5 -17 -9 -18 -199 -18 l-205 0 -99 293 c-55 160 -219 642 -364 1069 -145 427 -265 776 -266 774 -2 -1 74 -401 167 -887 94 -486 294 -1530 445 -2319 151 -789 278 -1447 281 -1463 l6 -27 -266 0 -265 0 -20 68 c-346 1156 -747 2482 -751 2482 -4 0 -383 -1253 -751 -2482 l-20 -68 -260 0 -261 0 6 27 c56 263 888 4664 883 4669 -1 2 -121 -347 -266 -774 -145 -427 -309 -909 -364 -1069 l-99 -293 -205 0 c-190 0 -204 1 -199 18 33 108 597 1973 666 2202 50 168 93 311 95 318 4 10 164 12 777 10 l772 -3 49 -150z m-3259 -1891 c126 -32 245 -119 304 -223 64 -111 76 -153 77 -271 0 -117 -11 -158 -76 -271 -51 -88 -106 -136 -219 -191 -172 -83 -310 -74 -491 34 -106 63 -179 166 -218 308 -26 94 -26 131 0 233 23 92 71 185 121 237 127 130 329 188 502 144z m5141 -3 c93 -25 149 -58 233 -139 57 -55 75 -81 103 -147 32 -76 34 -86 34 -205 0 -120 -1 -128 -34 -205 -88 -203 -323 -338 -533 -306 -75 11 -114 25 -191 69 -161 91 -245 229 -254 417 -5 91 -2 108 22 180 15 44 39 99 52 123 28 48 132 141 196 175 105 56 250 71 372 38z m-5782 -1036 c277 -140 509 -255 516 -255 7 0 236 115 511 255 274 140 502 255 507 255 11 0 169 -258 163 -267 -5 -10 -140 -109 -515 -382 -154 -112 -283 -207 -287 -210 -10 -8 118 -468 273 -986 66 -220 122 -408 125 -417 5 -17 -9 -18 -199 -18 l-204 0 -183 395 c-101 217 -186 395 -190 395 -4 0 -89 -178 -190 -395 l-183 -395 -204 0 c-190 0 -204 1 -199 18 3 9 61 213 130 452 69 239 159 550 201 690 41 139 72 257 67 261 -4 3 -133 98 -287 210 -411 299 -511 373 -514 384 -4 11 140 265 151 265 3 0 233 -115 511 -255z m5138 -2 l509 -257 509 257 c279 141 512 257 517 257 12 0 158 -252 153 -265 -3 -11 -103 -85 -514 -384 -154 -112 -283 -207 -287 -210 -5 -4 26 -122 67 -261 42 -140 132 -451 201 -690 69 -239 127 -443 130 -452 5 -17 -9 -18 -199 -18 l-204 0 -183 395 c-101 217 -186 395 -190 395 -4 0 -89 -178 -190 -395 l-183 -395 -204 0 c-190 0 -204 1 -199 18 3 9 61 213 130 452 69 239 159 550 201 690 41 139 72 257 67 261 -4 3 -133 98 -287 210 -411 299 -511 373 -514 384 -5 13 141 265 153 265 5 0 238 -116 517 -257z"/>
</g>
</g>
  <g id="id1:id1" transform="matrix(1.25,0,0,1.25,0.0,0.0)"><g transform="translate(0.000000,1274.000000) scale(0.100000,-0.100000)" fill="#000000" stroke="none">
<path d="M4990 9013 c-14 -2 -69 -20 -122 -38 -179 -62 -320 -189 -416 -374 -72 -138 -85 -189 -84 -345 1 -159 14 -215 83 -347 125 -239 324 -378 596 -420 100 -15 213 -1 340 42 127 43 180 76 284 179 85 85 101 106 147 200 110 228 110 461 1 687 -47 97 -62 118 -148 203 -105 103 -155 135 -289 182 -78 27 -101 31 -227 33 -77 2 -151 1 -165 -2z"/>
<path d="M4355 7138 c-2 -7 -45 -150 -95 -318 -69 -229 -633 -2094 -666 -2202 -5 -17 9 -18 199 -18 l205 0 99 293 c55 160 219 642 364 1069 145 427 265 776 266 774 5 -5 -827 -4406 -883 -4669 l-6 -27 261 0 260 0 20 68 c368 1229 747 2482 751 2482 4 0 405 -1326 751 -2482 l20 -68 265 0 266 0 -6 27 c-3 16 -130 674 -281 1463 -151 789 -351 1833 -445 2319 -93 486 -169 886 -167 887 1 2 121 -347 266 -774 145 -427 309 -909 364 -1069 l99 -293 205 0 c190 0 204 1 199 18 -3 9 -154 514 -335 1122 -182 608 -352 1173 -378 1255 l-49 150 -772 3 c-613 2 -773 0 -777 -10z"/>
<path d="M2427 5100 c-73 -19 -179 -82 -235 -140 -50 -52 -98 -145 -121 -237 -26 -102 -26 -139 0 -233 39 -142 112 -245 218 -308 181 -108 319 -117 491 -34 113 55 168 103 219 191 65 113 76 154 76 271 -1 118 -13 160 -77 271 -106 186 -347 279 -571 219z"/>
<path d="M7565 5101 c-80 -22 -131 -50 -208 -115 -74 -63 -103 -109 -142 -221 -24 -72 -27 -89 -22 -180 9 -188 93 -326 254 -417 77 -44 116 -58 191 -69 210 -32 445 103 533 306 33 77 34 85 34 205 0 119 -2 129 -34 205 -28 66 -46 92 -103 147 -38 37 -91 79 -116 94 -106 60 -266 79 -387 45z"/>
<path d="M1461 4192 c-41 -70 -72 -131 -70 -137 3 -11 103 -85 514 -384 154 -112 283 -207 287 -210 5 -4 -26 -122 -67 -261 -42 -140 -132 -451 -201 -690 -69 -239 -127 -443 -130 -452 -5 -17 9 -18 199 -18 l204 0 183 395 c101 217 186 395 190 395 4 0 89 -178 190 -395 l183 -395 204 0 c190 0 204 1 199 18 -3 9 -59 197 -125 417 -155 518 -283 978 -273 986 4 3 133 98 287 210 375 273 510 372 515 382 6 9 -152 267 -163 267 -5 0 -233 -115 -507 -255 -275 -140 -504 -255 -511 -255 -7 0 -239 115 -516 255 -278 140 -508 255 -511 255 -4 0 -40 -58 -81 -128z"/>
<path d="M6591 4192 c-41 -70 -72 -131 -70 -137 3 -11 103 -85 514 -384 154 -112 283 -207 287 -210 5 -4 -26 -122 -67 -261 -42 -140 -132 -451 -201 -690 -69 -239 -127 -443 -130 -452 -5 -17 9 -18 199 -18 l204 0 183 395 c101 217 186 395 190 395 4 0 89 -178 190 -395 l183 -395 204 0 c190 0 204 1 199 18 -3 9 -61 213 -130 452 -69 239 -159 550 -201 690 -41 139 -72 257 -67 261 4 3 133 98 287 210 411 299 511 373 514 384 5 13 -141 265 -153 265 -5 0 -238 -116 -517 -257 l-509 -257 -509 257 c-279 141 -512 257 -517 257 -5 0 -42 -58 -83 -128z"/>
</g>
</g>
</svg>
