<?xml version="1.0" standalone="no"?>
<!DOCTYPE svg PUBLIC "-//W3C//DTD SVG 1.1//EN"
 "http://www.w3.org/Graphics/SVG/1.1/DTD/svg11.dtd">
<!-- Created with svg_stack (http://github.com/astraw/svg_stack) -->
<svg xmlns:sodipodi="http://sodipodi.sourceforge.net/DTD/sodipodi-0.dtd" xmlns="http://www.w3.org/2000/svg" version="1.1" width="1131.25" height="1591.25">
  <defs/>
  <g id="id0:id0" transform="matrix(1.25,0,0,1.25,0.0,0.0)"><g transform="translate(0.000000,1273.000000) scale(0.100000,-0.100000)" fill="#999999" stroke="none">
<path d="M3580 10350 l0 -2380 255 0 255 0 0 -3965 0 -3965 285 0 285 0 0 3965 0 3965 255 0 255 0 0 2380 0 2380 -795 0 -795 0 0 -2380z"/>
<path d="M6716 8703 c-4 -21 -236 -1953 -516 -4293 -281 -2340 -513 -4273 -516 -4295 l-6 -41 281 -33 c155 -19 284 -31 287 -28 3 3 196 1604 429 3559 234 1954 428 3570 432 3590 l8 37 735 -1039 c404 -572 738 -1040 741 -1040 13 0 454 322 452 331 -2 6 -2304 3271 -2318 3287 -2 2 -6 -14 -9 -35z"/>
<path d="M1020 5808 c-547 -699 -1000 -1278 -1007 -1288 -10 -14 17 -38 204 -184 118 -92 221 -169 227 -172 6 -2 281 340 611 761 330 420 601 762 603 760 2 -2 194 -1280 427 -2840 233 -1560 426 -2839 429 -2842 4 -5 545 75 554 82 3 3 -1036 6936 -1045 6967 -7 25 -82 -68 -1003 -1244z"/>
</g>
</g>
  <g id="id1:id1" transform="matrix(1.25,0,0,1.25,0.0,0.0)"><g transform="translate(0.000000,1273.000000) scale(0.100000,-0.100000)" fill="#ffffff" stroke="none">
</g>
</g>
</svg>
