<?xml version="1.0" standalone="no"?>
<!DOCTYPE svg PUBLIC "-//W3C//DTD SVG 1.1//EN"
 "http://www.w3.org/Graphics/SVG/1.1/DTD/svg11.dtd">
<!-- Created with svg_stack (http://github.com/astraw/svg_stack) -->
<svg xmlns:sodipodi="http://sodipodi.sourceforge.net/DTD/sodipodi-0.dtd" xmlns="http://www.w3.org/2000/svg" version="1.1" width="1596.25" height="1596.25">
  <defs/>
  <g id="id0:id0" transform="matrix(1.25,0,0,1.25,0.0,0.0)"><g transform="translate(0.000000,1277.000000) scale(0.100000,-0.100000)" fill="#00ffff" stroke="none">
<path d="M5985 12760 c-558 -31 -1307 -190 -1820 -388 -655 -253 -1206 -562 -1740 -976 -477 -370 -981 -917 -1344 -1461 -381 -569 -641 -1132 -841 -1820 -142 -487 -205 -896 -230 -1476 -21 -485 23 -1075 111 -1504 241 -1172 765 -2195 1578 -3084 352 -384 689 -673 1135 -970 418 -279 842 -495 1351 -689 418 -160 935 -283 1455 -349 l285 -36 455 0 455 0 285 36 c522 66 1053 192 1465 349 653 248 1269 592 1750 978 1079 863 1809 1960 2185 3280 327 1149 327 2341 0 3465 -393 1350 -1105 2421 -2185 3286 -478 382 -1079 719 -1730 970 -409 158 -967 292 -1480 355 -260 32 -306 34 -635 38 -195 2 -422 1 -505 -4z m223 -2400 c109 -14 207 -59 298 -138 91 -78 139 -148 175 -256 25 -75 29 -102 29 -195 0 -97 -3 -117 -34 -205 -39 -108 -60 -141 -156 -234 -107 -105 -247 -161 -402 -162 -104 0 -168 14 -267 62 -151 72 -284 239 -321 403 -16 67 -15 211 0 277 7 29 31 89 53 133 85 165 261 296 424 315 99 11 110 11 201 0z m605 -1392 c50 -20 65 -32 108 -89 27 -37 416 -428 865 -869 699 -689 819 -811 845 -861 l29 -58 0 -384 0 -384 -36 -71 c-35 -71 -35 -72 -118 -111 -122 -57 -172 -67 -241 -52 -31 7 -95 30 -143 51 -70 31 -90 45 -109 77 -23 38 -23 42 -23 343 l0 305 -281 284 c-229 233 -281 281 -285 264 -3 -11 -18 -55 -33 -99 -15 -43 -65 -184 -110 -313 l-81 -234 29 -76 c17 -42 80 -211 142 -376 61 -165 130 -347 154 -405 24 -58 73 -199 110 -315 37 -115 111 -323 165 -460 54 -138 128 -345 165 -459 120 -374 241 -707 335 -921 105 -240 274 -691 291 -776 6 -31 10 -110 8 -175 -4 -110 -6 -123 -33 -169 -16 -27 -61 -82 -100 -120 -95 -95 -167 -125 -295 -125 -86 0 -91 1 -157 41 -90 54 -113 76 -197 188 -67 90 -76 108 -200 425 -71 182 -198 513 -282 736 -84 223 -194 513 -245 645 -238 625 -289 760 -391 1030 -166 440 -180 475 -188 475 -11 0 -93 -176 -260 -552 -77 -174 -217 -469 -310 -656 -93 -187 -269 -555 -391 -818 -122 -264 -288 -610 -368 -770 -81 -160 -161 -322 -179 -360 -39 -86 -66 -124 -173 -238 -97 -104 -122 -115 -251 -116 -101 0 -167 23 -283 99 -83 55 -98 69 -126 123 -39 72 -60 146 -60 209 0 113 14 147 289 698 148 295 398 799 556 1121 158 322 447 908 642 1304 l354 719 -21 51 c-11 28 -49 152 -85 276 -37 124 -68 231 -71 239 -7 20 -18 8 -307 -319 -309 -351 -505 -574 -567 -644 -25 -28 -58 -68 -75 -88 -44 -53 -150 -108 -209 -108 -78 0 -189 22 -219 44 -15 11 -52 52 -81 90 -60 79 -76 132 -76 259 0 69 1 71 54 141 29 39 159 191 287 339 129 147 270 309 313 360 43 50 321 369 618 708 l539 616 117 80 c339 232 495 288 645 231z"/>
</g>
</g>
  <g id="id1:id1" transform="matrix(1.25,0,0,1.25,0.0,0.0)"><g transform="translate(0.000000,1277.000000) scale(0.100000,-0.100000)" fill="#ffffff" stroke="none">
<path d="M6007 10360 c-163 -19 -339 -150 -424 -315 -22 -44 -46 -104 -53 -133 -15 -66 -16 -210 0 -277 37 -164 170 -331 321 -403 99 -48 163 -62 267 -62 155 1 295 57 402 162 96 93 117 126 156 234 31 88 34 108 34 205 0 190 -63 329 -204 451 -91 79 -189 124 -298 138 -91 11 -102 11 -201 0z"/>
<path d="M6569 8965 c-81 -28 -245 -122 -401 -228 l-117 -80 -539 -616 c-297 -339 -575 -658 -618 -708 -43 -51 -184 -213 -313 -360 -128 -148 -258 -300 -287 -339 -53 -70 -54 -72 -54 -141 0 -127 16 -180 76 -259 29 -38 66 -79 81 -90 30 -22 141 -44 219 -44 59 0 165 55 209 108 17 20 50 60 75 88 62 70 258 293 567 644 289 327 300 339 307 319 3 -8 34 -115 71 -239 36 -124 74 -248 85 -276 l21 -51 -354 -719 c-195 -396 -484 -982 -642 -1304 -158 -322 -408 -826 -556 -1121 -275 -551 -289 -585 -289 -698 0 -63 21 -137 60 -209 28 -54 43 -68 126 -123 116 -76 182 -99 283 -99 129 1 154 12 251 116 107 114 134 152 173 238 18 38 98 200 179 360 80 160 246 506 368 770 122 263 298 631 391 818 93 187 233 482 310 656 167 376 249 552 260 552 8 0 22 -35 188 -475 102 -270 153 -405 391 -1030 51 -132 161 -422 245 -645 84 -223 211 -554 282 -736 124 -317 133 -335 200 -425 84 -112 107 -134 197 -188 66 -40 71 -41 157 -41 128 0 200 30 295 125 39 38 84 93 100 120 27 46 29 59 33 169 2 65 -2 144 -8 175 -17 85 -186 536 -291 776 -94 214 -215 547 -335 921 -37 114 -111 321 -165 459 -54 137 -128 345 -165 460 -37 116 -86 257 -110 315 -24 58 -93 240 -154 405 -62 165 -125 334 -142 376 l-29 76 81 234 c45 129 95 270 110 313 15 44 30 88 33 99 4 17 56 -31 285 -264 l281 -284 0 -305 c0 -301 0 -305 23 -343 19 -32 39 -46 109 -77 48 -21 112 -44 143 -51 69 -15 119 -5 241 52 83 39 83 40 118 111 l36 71 0 384 0 384 -29 58 c-26 50 -146 172 -845 861 -449 441 -838 832 -865 869 -43 57 -58 69 -108 89 -76 29 -157 28 -244 -3z"/>
</g>
</g>
</svg>
