<?xml version="1.0" encoding="UTF-8" standalone="no"?>
<!-- Created with Inkscape (http://www.inkscape.org/) -->

<svg
   xmlns:dc="http://purl.org/dc/elements/1.1/"
   xmlns:cc="http://creativecommons.org/ns#"
   xmlns:rdf="http://www.w3.org/1999/02/22-rdf-syntax-ns#"
   xmlns:svg="http://www.w3.org/2000/svg"
   xmlns="http://www.w3.org/2000/svg"
   xmlns:inkscape="http://www.inkscape.org/namespaces/inkscape"
   version="1.1"
   width="100%"
   height="100%"
   viewBox="0 0 782.54898 130.59876"
   id="svg67410"
   xml:space="preserve"
   style="fill-rule:evenodd;stroke-linecap:round;stroke-linejoin:round"><metadata
     id="metadata67741"><rdf:RDF><cc:Work
         rdf:about=""><dc:format>image/svg+xml</dc:format><dc:type
           rdf:resource="http://purl.org/dc/dcmitype/StillImage" /></cc:Work></rdf:RDF></metadata><defs
     id="defs67412"><clipPath
       id="clipId0"><path
         d="M 0,600 800,600 800,0 0,0 z"
         inkscape:connector-curvature="0"
         id="path67415" /></clipPath></defs><g
     transform="translate(-10.185236,-233.88336)"
     clip-path="url(#clipId0)"
     id="g67417"
     style="fill:none;stroke:#000000;stroke-width:0.1" /><g
     transform="translate(-10.185236,-233.88336)"
     clip-path="url(#clipId0)"
     id="g67419"
     style="fill:#00ff00;stroke:none"><path
       d="m 75.53125,233.90625 c -37.887317,-1.07652 -70.6327416,35.99203 -64.632709,73.46347 3.602089,37.87895 44.945107,65.65186 81.378766,54.70225 37.087273,-8.61675 59.045843,-53.21403 43.472693,-87.91572 -9.76436,-24.02905 -34.27944,-40.39849 -60.21875,-40.25 z m 651.90625,0 c -37.88181,-1.07296 -70.62579,35.99886 -64.61366,73.46119 3.58578,37.88385 44.93188,65.64679 81.36042,54.70704 37.08911,-8.61789 59.06987,-53.21198 43.47199,-87.91823 -9.70891,-24.02195 -34.32287,-40.4068 -60.21875,-40.25 z"
       inkscape:connector-curvature="0"
       id="path67731" /></g></svg>