<?xml version="1.0" standalone="no"?>
<!DOCTYPE svg PUBLIC "-//W3C//DTD SVG 1.1//EN"
 "http://www.w3.org/Graphics/SVG/1.1/DTD/svg11.dtd">
<!-- Created with svg_stack (http://github.com/astraw/svg_stack) -->
<svg xmlns:sodipodi="http://sodipodi.sourceforge.net/DTD/sodipodi-0.dtd" xmlns="http://www.w3.org/2000/svg" version="1.1" width="1642.5" height="1587.5">
  <defs/>
  <g id="id0:id0" transform="matrix(1.25,0,0,1.25,0.0,0.0)"><g transform="translate(0.000000,1270.000000) scale(0.100000,-0.100000)" fill="#999999" stroke="none">
<path d="M2805 12443 c-77 -141 -163 -299 -192 -352 l-52 -96 490 -275 489 -275 268 -285 c147 -157 433 -452 636 -657 l368 -372 193 -349 192 -350 -81 -22 c-234 -63 -588 -196 -780 -291 l-98 -49 -152 94 c-115 71 -258 144 -601 303 l-450 210 -565 136 -565 136 -500 46 c-275 25 -518 45 -540 45 -30 0 -851 -147 -862 -155 -5 -3 144 -775 150 -782 4 -3 165 24 359 61 194 36 371 66 393 66 22 0 236 -23 475 -50 l435 -49 480 -114 480 -114 387 -183 387 -184 -42 -49 c-48 -55 -50 -58 -141 -224 -53 -96 -76 -153 -107 -260 -37 -132 -39 -144 -39 -284 0 -138 2 -153 38 -286 32 -115 51 -162 110 -269 39 -71 82 -144 96 -162 69 -93 219 -249 286 -299 41 -31 111 -86 155 -123 93 -79 398 -260 536 -318 171 -73 303 -124 429 -167 l125 -42 3 -3026 2 -3027 1570 0 1570 0 0 3020 c0 2868 1 3021 18 3026 9 3 69 25 132 49 63 25 167 63 230 85 63 23 205 85 315 140 240 119 429 248 626 426 177 161 295 323 385 531 59 134 64 152 84 292 l20 149 -20 145 c-19 132 -25 156 -79 281 -66 150 -102 214 -185 325 -31 41 -55 75 -53 76 1 2 171 82 377 180 l375 178 480 114 480 114 440 49 c242 27 458 50 480 50 22 0 196 -30 388 -66 191 -37 350 -64 354 -61 6 7 155 779 150 782 -11 8 -832 155 -862 155 -22 0 -265 -20 -540 -45 l-500 -46 -560 -136 -560 -136 -455 -212 c-329 -154 -495 -237 -600 -302 l-145 -89 -140 67 c-77 37 -194 87 -260 110 -66 24 -163 60 -215 81 -52 22 -151 52 -218 68 -68 16 -126 31 -129 33 -3 3 82 160 188 349 l192 343 352 355 c193 195 478 492 633 660 l281 305 490 275 490 275 -52 96 c-283 522 -333 609 -347 605 -8 -2 -255 -138 -548 -303 l-533 -299 -350 -374 c-193 -206 -514 -539 -713 -740 l-363 -365 -264 -480 c-145 -264 -270 -499 -277 -522 l-14 -42 -112 7 c-150 10 -801 9 -902 -1 l-80 -8 -12 37 c-6 20 -131 255 -278 523 l-267 486 -386 390 c-213 215 -532 548 -709 740 l-322 351 -541 299 c-297 165 -546 301 -552 302 -7 2 -75 -113 -152 -254z"/>
</g>
</g>
  <g id="id1:id1" transform="matrix(1.25,0,0,1.25,0.0,0.0)"><g transform="translate(0.000000,1270.000000) scale(0.100000,-0.100000)" fill="#ffffff" stroke="none">
</g>
</g>
</svg>
