<?xml version="1.0" standalone="no"?>
<!DOCTYPE svg PUBLIC "-//W3C//DTD SVG 1.1//EN"
 "http://www.w3.org/Graphics/SVG/1.1/DTD/svg11.dtd">
<!-- Created with svg_stack (http://github.com/astraw/svg_stack) -->
<svg xmlns:sodipodi="http://sodipodi.sourceforge.net/DTD/sodipodi-0.dtd" xmlns="http://www.w3.org/2000/svg" version="1.1" width="1993.75" height="498.75">
  <defs/>
  <g id="id0:id0" transform="matrix(1.25,0,0,1.25,0.0,0.0)"><g transform="translate(0.000000,399.000000) scale(0.100000,-0.100000)" fill="#000000" stroke="none">
<path d="M152 3842 l-153 -147 850 -850 851 -850 -851 -851 -850 -850 156 -149 156 -149 847 847 847 847 847 -847 847 -847 156 149 156 149 -850 850 -851 851 851 851 850 850 -156 149 -156 149 -847 -847 -847 -847 -845 845 c-465 465 -847 845 -850 845 -3 0 -74 -67 -158 -148z"/>
<path d="M6122 3842 l-153 -147 850 -850 851 -850 -851 -851 -850 -850 156 -149 156 -149 850 850 849 849 850 -850 850 -850 150 150 150 150 -850 850 -850 850 850 850 850 850 -150 150 -150 150 -850 -850 -850 -850 -848 848 c-466 466 -849 847 -852 847 -3 0 -74 -67 -158 -148z"/>
<path d="M12097 3842 l-147 -147 850 -850 850 -850 -850 -850 -850 -850 150 -150 150 -150 850 850 850 850 850 -850 850 -850 150 150 150 150 -850 850 -850 850 850 850 850 850 -150 150 -150 150 -850 -850 -850 -850 -848 848 c-466 466 -849 847 -852 847 -3 0 -72 -66 -153 -148z"/>
</g>
</g>
  <g id="id1:id1" transform="matrix(1.25,0,0,1.25,0.0,0.0)"><g transform="translate(0.000000,399.000000) scale(0.100000,-0.100000)" fill="#ffffff" stroke="none">
</g>
</g>
</svg>
