<?xml version="1.0" standalone="no"?>
<!DOCTYPE svg PUBLIC "-//W3C//DTD SVG 1.1//EN"
 "http://www.w3.org/Graphics/SVG/1.1/DTD/svg11.dtd">
<!-- Created with svg_stack (http://github.com/astraw/svg_stack) -->
<svg xmlns:sodipodi="http://sodipodi.sourceforge.net/DTD/sodipodi-0.dtd" xmlns="http://www.w3.org/2000/svg" version="1.1" width="858.75" height="1592.5">
  <defs/>
  <g id="id0:id0" transform="matrix(1.25,0,0,1.25,0.0,0.0)"><g transform="translate(0.000000,1274.000000) scale(0.100000,-0.100000)" fill="#000000" stroke="none">
<path d="M2930 11059 c-1598 -924 -2910 -1683 -2917 -1687 -9 -5 40 -101 160 -314 95 -169 175 -308 179 -308 4 0 482 275 1063 610 581 335 1058 610 1061 610 2 0 4 -1399 4 -3109 l0 -3109 -38 -7 c-80 -14 -203 -55 -332 -110 -275 -116 -391 -195 -611 -415 -183 -183 -218 -230 -346 -470 -168 -315 -230 -626 -203 -1009 20 -278 74 -468 204 -711 127 -239 162 -287 345 -470 166 -166 261 -241 411 -323 85 -46 318 -145 400 -169 98 -29 399 -68 526 -68 142 0 445 41 544 74 140 46 425 185 541 263 123 83 417 388 495 512 171 275 274 586 305 923 32 354 -87 808 -305 1159 -87 140 -383 441 -519 527 -173 110 -458 238 -609 274 l-98 23 0 3315 0 3315 961 555 c529 305 965 557 970 558 5 2 9 -580 9 -1401 l0 -1404 -82 -22 c-182 -50 -449 -222 -580 -374 -165 -191 -264 -388 -324 -642 -26 -107 -29 -138 -29 -290 0 -152 3 -183 29 -290 60 -254 159 -451 324 -642 89 -103 272 -238 427 -316 133 -66 442 -137 597 -137 178 0 466 72 631 158 269 141 462 338 607 619 58 112 71 149 111 318 21 88 24 124 24 295 0 203 -4 231 -63 440 -40 140 -199 396 -327 525 -147 148 -378 291 -542 336 l-83 22 0 2024 c0 1112 -3 2023 -7 2022 -5 0 -1315 -756 -2913 -1680z m2810 -3081 c111 -47 167 -86 244 -169 90 -97 151 -230 165 -364 22 -195 -39 -388 -165 -524 -77 -83 -132 -122 -249 -172 l-100 -44 -135 0 -135 0 -110 44 c-132 53 -181 87 -265 183 -66 76 -95 130 -136 256 -63 195 -8 444 136 610 82 94 133 130 250 177 112 46 170 55 305 48 88 -4 111 -10 195 -45z m-2575 -4961 c165 -57 279 -115 392 -201 188 -142 319 -331 397 -572 45 -141 56 -211 56 -354 0 -143 -11 -213 -57 -354 -123 -386 -376 -634 -783 -770 -288 -96 -589 -65 -897 93 -211 109 -366 270 -486 508 -103 204 -122 286 -122 523 0 237 19 319 122 523 156 308 367 490 693 595 154 49 165 51 375 49 l200 -3 110 -37z"/>
</g>
</g>
  <g id="id1:id1" transform="matrix(1.25,0,0,1.25,0.0,0.0)"><g transform="translate(0.000000,1274.000000) scale(0.100000,-0.100000)" fill="#ffffff" stroke="none">
</g>
</g>
</svg>
