<?xml version="1.0" standalone="no"?>
<!DOCTYPE svg PUBLIC "-//W3C//DTD SVG 1.1//EN"
 "http://www.w3.org/Graphics/SVG/1.1/DTD/svg11.dtd">
<!-- Created with svg_stack (http://github.com/astraw/svg_stack) -->
<svg xmlns:sodipodi="http://sodipodi.sourceforge.net/DTD/sodipodi-0.dtd" xmlns="http://www.w3.org/2000/svg" version="1.1" width="1566.25" height="1591.25">
  <defs/>
  <g id="id0:id0" transform="matrix(1.25,0,0,1.25,0.0,0.0)"><g transform="translate(0.000000,1273.000000) scale(0.100000,-0.100000)" fill="#7f7f7f" stroke="none">
<path d="M5720 12710 c-377 -33 -634 -74 -964 -156 -231 -57 -647 -176 -663 -189 -2 -1 23 -80 56 -176 l58 -174 6 -174 c4 -96 9 -177 12 -180 3 -3 838 24 1855 59 l1850 65 -6 190 -6 190 41 164 c23 90 41 164 39 166 -2 1 -111 29 -243 63 -282 71 -658 133 -955 157 -268 21 -806 18 -1080 -5z"/>
<path d="M10236 11105 c-115 -131 -124 -138 -267 -227 l-148 -92 22 -37 c128 -213 1934 -3108 1939 -3109 4 0 73 42 155 93 145 91 151 94 318 141 94 27 171 49 172 50 2 2 -26 108 -62 236 -248 896 -802 1874 -1439 2544 -141 148 -551 536 -566 536 -3 0 -59 -61 -124 -135z"/>
<path d="M1653 10758 c-344 -367 -677 -809 -881 -1169 -368 -652 -586 -1212 -722 -1863 -28 -132 -49 -240 -48 -241 2 -1 84 -19 183 -40 178 -37 181 -38 327 -116 81 -44 150 -79 155 -79 6 1 1180 2207 1660 3119 l82 156 -152 80 c-142 75 -159 88 -288 208 -75 70 -139 127 -141 127 -2 0 -81 -82 -175 -182z"/>
<path d="M11070 4008 c-432 -815 -822 -1551 -867 -1637 l-82 -156 147 -79 c137 -74 156 -88 286 -210 l138 -131 164 170 c90 94 238 260 329 370 607 736 1102 1761 1295 2679 27 132 49 240 47 241 -1 1 -83 19 -182 39 -179 37 -181 38 -328 117 -81 43 -150 79 -155 79 -4 -1 -360 -667 -792 -1482z"/>
<path d="M579 5006 c-144 -91 -150 -94 -315 -140 -93 -27 -170 -49 -171 -51 -8 -6 149 -502 224 -710 189 -525 586 -1220 986 -1724 184 -231 456 -521 677 -721 94 -85 174 -156 178 -158 4 -1 61 58 127 131 115 127 126 136 272 227 l152 94 -22 36 c-179 298 -1945 3109 -1952 3109 -5 -1 -76 -42 -156 -93z"/>
<path d="M6311 1016 l-1713 -61 6 -170 7 -170 -46 -184 c-25 -101 -44 -185 -43 -186 2 -1 104 -27 228 -59 425 -110 1037 -186 1489 -186 244 0 618 30 961 76 324 44 688 129 1010 236 118 39 216 71 217 72 1 1 -24 85 -57 187 -52 161 -60 194 -60 264 0 44 -3 117 -7 163 l-6 82 -136 -1 c-75 -1 -907 -29 -1850 -63z"/>
</g>
</g>
  <g id="id1:id1" transform="matrix(1.25,0,0,1.25,0.0,0.0)"><g transform="translate(0.000000,1273.000000) scale(0.100000,-0.100000)" fill="#ffffff" stroke="none">
</g>
</g>
</svg>
