<?xml version="1.0" standalone="no"?>
<!DOCTYPE svg PUBLIC "-//W3C//DTD SVG 1.1//EN"
 "http://www.w3.org/Graphics/SVG/1.1/DTD/svg11.dtd">
<!-- Created with svg_stack (http://github.com/astraw/svg_stack) -->
<svg xmlns:sodipodi="http://sodipodi.sourceforge.net/DTD/sodipodi-0.dtd" xmlns="http://www.w3.org/2000/svg" version="1.1" width="1995.0" height="717.5">
  <defs/>
  <g id="id0:id0" transform="matrix(1.25,0,0,1.25,0.0,0.0)"><g transform="translate(0.000000,574.000000) scale(0.100000,-0.100000)" fill="#510000" stroke="none">
<path d="M0 4145 l0 -1595 3190 0 3190 0 0 -1275 0 -1275 4790 0 4790 0 0 1595 0 1595 -3190 0 -3190 0 0 1275 0 1275 -4790 0 -4790 0 0 -1595z m8940 0 l0 -955 -4150 0 -4150 0 0 955 0 955 4150 0 4150 0 0 -955z m6380 -2550 l0 -955 -4150 0 -4150 0 0 955 0 955 4150 0 4150 0 0 -955z"/>
</g>
</g>
  <g id="id1:id1" transform="matrix(1.25,0,0,1.25,0.0,0.0)"><g transform="translate(0.000000,574.000000) scale(0.100000,-0.100000)" fill="#ffffff" stroke="none">
</g>
</g>
</svg>
