<?xml version="1.0" encoding="UTF-8" standalone="no"?>
<svg
   xmlns:dc="http://purl.org/dc/elements/1.1/"
   xmlns:cc="http://creativecommons.org/ns#"
   xmlns:rdf="http://www.w3.org/1999/02/22-rdf-syntax-ns#"
   xmlns:svg="http://www.w3.org/2000/svg"
   xmlns="http://www.w3.org/2000/svg"
   xmlns:sodipodi="http://sodipodi.sourceforge.net/DTD/sodipodi-0.dtd"
   xmlns:inkscape="http://www.inkscape.org/namespaces/inkscape"
   viewBox="0 0 350.97594 351.25415"
   version="1.1"
   xml:space="preserve"
   id="svg6549"
   inkscape:version="0.48.3.1 r9886"
   width="100%"
   height="100%"
   sodipodi:docname="alkis3563.svg"
   style="fill-rule:evenodd;stroke-linecap:round;stroke-linejoin:round"><metadata
   id="metadata6730"><rdf:RDF><cc:Work
       rdf:about=""><dc:format>image/svg+xml</dc:format><dc:type
         rdf:resource="http://purl.org/dc/dcmitype/StillImage" /></cc:Work></rdf:RDF></metadata><sodipodi:namedview
   pagecolor="#ffffff"
   bordercolor="#666666"
   borderopacity="1"
   objecttolerance="10"
   gridtolerance="10"
   guidetolerance="10"
   inkscape:pageopacity="0"
   inkscape:pageshadow="2"
   inkscape:window-width="1855"
   inkscape:window-height="1025"
   id="namedview6728"
   showgrid="false"
   inkscape:zoom="1.1125147"
   inkscape:cx="177.85701"
   inkscape:cy="348.79418"
   inkscape:window-x="0"
   inkscape:window-y="33"
   inkscape:window-maximized="1"
   inkscape:current-layer="svg6549" />
<defs
   id="defs6551">
<clipPath
   id="clipId0">
<path
   d="M 0,600 800,600 800,0 0,0 z"
   id="path6554"
   inkscape:connector-curvature="0" />
</clipPath>
</defs>
<g
   clip-path="url(#clipId0)"
   id="g6556"
   style="fill:none;stroke:#000000;stroke-width:0.1"
   transform="translate(-223.94072,-123.86916)" />
<g
   clip-path="url(#clipId0)"
   id="g6558"
   style="fill:#000000;stroke:none"
   transform="translate(-223.94072,-123.86916)">
















































































</g>
<g
   clip-path="url(#clipId0)"
   id="g6720"
   style="fill:none;stroke:#000000;stroke-width:0.25"
   transform="translate(-223.94072,-123.86916)">

</g>
<g
   clip-path="url(#clipId0)"
   id="g6724"
   style="fill:#000000;stroke:none"
   transform="translate(-223.94072,-123.86916)">
<g
   transform="matrix(193.289,0,0,193.289,308.055,394.015)"
   style="font-size:1.39636004px;font-family:'Arial,\'sans-serif\''"
   id="text6726"><path
     style="font-size:1.39636004px;font-family:'Arial,\'sans-serif\''"
     d="m 0.47067468,-1.3975964 c -0.29924191,-5.197e-4 -0.59349982,0.1569364 -0.75597218,0.40872785 -0.17642954,0.26157272 -0.19891892,0.61687508 -0.0577706,0.89896474 0.13392867,0.27990955 0.42062061,0.47813205 0.72971507,0.5050444 C 0.69528735,0.44707479 1.0142357,0.30634444 1.1985729,0.05669558 1.3870759,-0.18976252 1.4337891,-0.53524947 1.3171684,-0.8228455 1.205632,-1.1124051 0.93539392,-1.3326578 0.62927676,-1.3835511 0.58661935,-1.3936795 0.50688424,-1.3980383 0.47067434,-1.3975961 z m 0.00194,0.1028253 c 0.27111945,-0.00105 0.53723512,0.1443854 0.68041492,0.37498837 0.1591416,0.24606025 0.1665733,0.58001406 0.017373,0.83240865 C 1.0254923,0.17140469 0.72754852,0.33366472 0.43152584,0.31506733 0.13513567,0.3034064 -0.14452917,0.11151318 -0.26246687,-0.1606024 -0.38569923,-0.42839016 -0.34343376,-0.76247652 -0.15682372,-0.99078495 -0.00761688,-1.1814398 0.23094624,-1.2947984 0.47261478,-1.2947711 z M 0.3948491,-0.96075055 C 0.26416179,-0.64052628 0.13347453,-0.32030197 0.00278723,-7.77e-5 c 0.04499955,0 0.08999906,0 0.13499862,0 0.036808,-0.09360982 0.073616,-0.18721965 0.11042403,-0.28082947 0.14588475,0 0.29176946,0 0.43765422,0 0.0365925,0.0936098 0.0731849,0.18721965 0.10977733,0.28082947 0.0443529,0 0.0887057,0 0.13305852,0 -0.12863939,-0.32022427 -0.25727883,-0.64044858 -0.38591823,-0.96067285 -0.0493109,0 -0.0986217,0 -0.14793262,0 z m 0.0722687,0.0982984 c 0.051362,0.1630473 0.11970561,0.32011107 0.17994427,0.48001308 -0.11980118,0 -0.23960235,0 -0.35940352,0 0.06075,-0.15965042 0.12779252,-0.31706951 0.17945925,-0.48001308 z"
     id="path6734"
     inkscape:connector-curvature="0"
     sodipodi:nodetypes="cccccccccccccccccccccccccccccc" /></g>
</g>
</svg>