<?xml version="1.0" standalone="no"?>
<!DOCTYPE svg PUBLIC "-//W3C//DTD SVG 1.1//EN"
 "http://www.w3.org/Graphics/SVG/1.1/DTD/svg11.dtd">
<!-- Created with svg_stack (http://github.com/astraw/svg_stack) -->
<svg xmlns:sodipodi="http://sodipodi.sourceforge.net/DTD/sodipodi-0.dtd" xmlns="http://www.w3.org/2000/svg" version="1.1" width="1590.0" height="1591.25">
  <defs/>
  <g id="id0:id0" transform="matrix(1.25,0,0,1.25,0.0,0.0)"><g transform="translate(0.000000,1273.000000) scale(0.100000,-0.100000)" fill="#181512" stroke="none">
<path d="M0 6365 l0 -6365 6360 0 6360 0 0 6365 0 6365 -6360 0 -6360 0 0 -6365z m3112 5470 c-136 -76 -526 -346 -697 -482 -407 -326 -752 -674 -1048 -1058 -161 -209 -415 -574 -460 -660 -14 -27 -31 -57 -36 -65 -7 -10 -11 349 -11 1143 l0 1157 1158 0 1157 0 -63 -35z m3888 -4 c470 -57 835 -144 1262 -300 534 -196 1063 -492 1498 -841 91 -72 166 -135 168 -138 1 -4 -801 -810 -1783 -1792 l-1785 -1785 -1785 1785 c-982 982 -1784 1788 -1783 1792 2 3 77 66 168 138 773 618 1711 1010 2720 1136 286 36 430 43 775 38 253 -3 339 -9 545 -33z m4860 -1118 c0 -794 -4 -1153 -11 -1143 -5 8 -22 38 -36 65 -45 86 -300 451 -460 660 -272 352 -678 761 -1058 1065 -192 154 -508 374 -665 462 l-85 48 1158 0 1157 0 0 -1157z m-1183 -940 c346 -439 628 -942 833 -1484 147 -388 238 -762 312 -1274 31 -219 31 -221 31 -645 0 -424 0 -426 -31 -645 -74 -512 -165 -887 -312 -1274 -212 -561 -476 -1031 -834 -1484 l-140 -178 -1791 1791 -1790 1790 1790 1790 c984 984 1790 1790 1791 1790 1 0 64 -80 141 -177z m-6707 -1618 l1785 -1785 -1785 -1785 c-982 -982 -1788 -1784 -1792 -1783 -20 8 -277 349 -387 513 -244 364 -419 708 -583 1143 -148 395 -234 748 -309 1263 -31 214 -31 215 -31 649 0 434 0 435 31 649 75 515 161 868 309 1263 205 545 486 1048 831 1485 75 95 138 173 141 173 3 0 808 -803 1790 -1785z m4180 -4180 c1098 -1098 1781 -1788 1775 -1793 -77 -70 -388 -304 -515 -389 -744 -493 -1530 -779 -2445 -889 -213 -26 -257 -28 -605 -28 -347 0 -392 2 -605 28 -473 57 -862 148 -1288 302 -397 144 -827 361 -1152 582 -132 89 -450 330 -520 394 -6 5 677 695 1775 1793 982 982 1787 1785 1790 1785 3 0 808 -803 1790 -1785z m-7243 -870 c45 -86 300 -452 461 -660 403 -523 904 -987 1472 -1365 133 -88 264 -172 291 -185 27 -14 49 -28 49 -30 0 -3 -522 -5 -1160 -5 l-1160 0 0 1163 c0 796 4 1157 11 1147 5 -8 22 -37 36 -65z m10950 -2242 c-2 -2 -525 -2 -1163 -1 l-1159 3 80 44 c148 82 489 317 680 471 379 303 785 713 1057 1065 169 218 415 572 469 675 l34 64 3 -1159 c1 -637 1 -1160 -1 -1162z"/>
</g>
</g>
  <g id="id1:id1" transform="matrix(1.25,0,0,1.25,0.0,0.0)"><g transform="translate(0.000000,1273.000000) scale(0.100000,-0.100000)" fill="#ffffff" stroke="none">
</g>
</g>
</svg>
