<?xml version="1.0" standalone="no"?>
<!DOCTYPE svg PUBLIC "-//W3C//DTD SVG 1.1//EN"
 "http://www.w3.org/Graphics/SVG/1.1/DTD/svg11.dtd">
<!-- Created with svg_stack (http://github.com/astraw/svg_stack) -->
<svg xmlns:sodipodi="http://sodipodi.sourceforge.net/DTD/sodipodi-0.dtd" xmlns="http://www.w3.org/2000/svg" version="1.1" width="1596.25" height="1597.5">
  <defs/>
  <g id="id0:id0" transform="matrix(1.25,0,0,1.25,0.0,0.0)"><g transform="translate(0.000000,1278.000000) scale(0.100000,-0.100000)" fill="#ffffff" stroke="none">
<path d="M0 6390 l0 -6390 6385 0 6385 0 0 6390 0 6390 -6385 0 -6385 0 0 -6390z m8860 4268 l1630 -843 0 -2735 0 -2736 500 -444 c316 -281 496 -448 491 -454 -357 -460 -1723 -2151 -1736 -2150 -7 1 -409 287 -894 635 l-881 634 0 993 0 992 -795 0 -795 0 0 -993 0 -992 -919 -632 c-505 -348 -926 -635 -934 -639 -8 -3 -647 269 -1449 617 -788 342 -1517 657 -1620 699 l-187 76 1035 720 c569 395 1044 723 1054 728 13 6 97 -21 312 -103 161 -61 297 -111 301 -111 4 0 7 142 7 315 l0 315 -690 0 -690 0 0 1265 0 1265 690 0 690 0 0 1598 0 1597 1608 611 c884 337 1615 612 1624 613 10 1 751 -378 1648 -841z"/>
<path d="M6380 8256 l0 -1176 795 0 795 0 0 873 0 872 -781 300 c-430 165 -788 301 -795 303 -12 3 -14 -187 -14 -1172z"/>
</g>
</g>
  <g id="id1:id1" transform="matrix(1.25,0,0,1.25,0.0,0.0)"><g transform="translate(0.000000,1278.000000) scale(0.100000,-0.100000)" fill="#ff0000" stroke="none">
<path d="M5588 10886 l-1608 -611 0 -1597 0 -1598 -690 0 -690 0 0 -1265 0 -1265 690 0 690 0 0 -315 c0 -173 -3 -315 -7 -315 -4 0 -140 50 -301 111 -215 82 -299 109 -312 103 -10 -5 -485 -333 -1054 -728 l-1035 -720 187 -76 c103 -42 832 -357 1620 -699 802 -348 1441 -620 1449 -617 8 4 429 291 934 639 l919 632 0 992 0 993 795 0 795 0 0 -992 0 -993 881 -634 c485 -348 887 -634 894 -635 13 -1 1379 1690 1736 2150 5 6 -175 173 -491 454 l-500 444 0 2736 0 2735 -1630 843 c-897 463 -1638 842 -1648 841 -9 -1 -740 -276 -1624 -613z m1601 -1761 l781 -300 0 -872 0 -873 -795 0 -795 0 0 1176 c0 985 2 1175 14 1172 7 -2 365 -138 795 -303z"/>
</g>
</g>
</svg>
