<?xml version="1.0" encoding="UTF-8" standalone="no"?>
<!-- Created with Inkscape (http://www.inkscape.org/) -->

<svg
   xmlns:dc="http://purl.org/dc/elements/1.1/"
   xmlns:cc="http://creativecommons.org/ns#"
   xmlns:rdf="http://www.w3.org/1999/02/22-rdf-syntax-ns#"
   xmlns:svg="http://www.w3.org/2000/svg"
   xmlns="http://www.w3.org/2000/svg"
   xmlns:inkscape="http://www.inkscape.org/namespaces/inkscape"
   version="1.1"
   width="100%"
   height="100%"
   viewBox="0 0 369 369"
   id="svg68382"
   xml:space="preserve"
   style="fill-rule:evenodd;stroke-linecap:round;stroke-linejoin:round"><metadata
     id="metadata68709"><rdf:RDF><cc:Work
         rdf:about=""><dc:format>image/svg+xml</dc:format><dc:type
           rdf:resource="http://purl.org/dc/dcmitype/StillImage" /></cc:Work></rdf:RDF></metadata><defs
     id="defs68384"><clipPath
       id="clipId0"><path
         d="M 0,600 800,600 800,0 0,0 z"
         inkscape:connector-curvature="0"
         id="path68387" /></clipPath></defs><g
     transform="translate(-216.78125,-113.75)"
     clip-path="url(#clipId0)"
     id="g68389"
     style="fill:none;stroke:#000000;stroke-width:0.1" /><g
     transform="translate(-216.78125,-113.75)"
     clip-path="url(#clipId0)"
     id="g68391"
     style="fill:#ffffff;stroke:none"><path
       d="m 401.28125,113.75 -14.46875,0.5625 -14.375,1.6875 -14.21875,2.84375 -13.9375,3.9375 -13.59375,5 -13.15625,6.0625 -12.65625,7.09375 -12.03125,8.03125 -11.375,8.96875 -10.65625,9.84375 -9.8125,10.625 -8.96875,11.375 -8.0625,12.0625 -7.0625,12.625 -6.0625,13.15625 -5.03125,13.59375 -3.9375,13.9375 -2.8125,14.21875 -1.71875,14.40625 -0.5625,14.46875 0.5625,14.46875 1.71875,14.375 2.8125,14.21875 3.9375,13.9375 5.03125,13.59375 6.0625,13.15625 7.0625,12.65625 8.0625,12.03125 8.96875,11.375 9.8125,10.65625 10.65625,9.8125 11.375,8.96875 12.03125,8.0625 12.65625,7.0625 13.15625,6.0625 13.59375,5.03125 13.9375,3.9375 14.21875,2.8125 14.375,1.71875 14.46875,0.5625 14.46875,-0.5625 14.40625,-1.71875 14.21875,-2.8125 13.9375,-3.9375 13.59375,-5.03125 13.15625,-6.0625 12.625,-7.0625 12.0625,-8.0625 11.375,-8.96875 10.625,-9.8125 9.84375,-10.65625 8.96875,-11.375 8.03125,-12.03125 L 565.6875,382 l 6.0625,-13.15625 5,-13.59375 3.9375,-13.9375 2.84375,-14.21875 1.6875,-14.375 0.5625,-14.46875 -0.5625,-14.46875 -1.6875,-14.40625 -2.84375,-14.21875 -3.9375,-13.9375 -5,-13.59375 -6.0625,-13.15625 -7.09375,-12.625 -8.03125,-12.0625 -8.96875,-11.375 -9.84375,-10.625 -10.625,-9.84375 -11.375,-8.96875 -12.0625,-8.03125 -12.625,-7.09375 -13.15625,-6.0625 -13.59375,-5 -13.9375,-3.9375 L 430.15625,116 415.75,114.3125 401.28125,113.75 z"
       inkscape:connector-curvature="0"
       id="path68547" /></g><g
     transform="translate(-216.78125,-113.75)"
     clip-path="url(#clipId0)"
     id="g68549"
     style="fill:#000000;stroke:none"><path
       d="m 401.28125,236.75 -4.8125,0.1875 -4.8125,0.5625 -4.71875,0.9375 -4.65625,1.3125 -4.53125,1.6875 -4.375,2 -4.21875,2.375 -4.03125,2.6875 -3.78125,2.96875 -3.53125,3.28125 -3.28125,3.5625 -3,3.78125 -2.6875,4 -2.34375,4.21875 -2.03125,4.40625 -1.65625,4.53125 -1.3125,4.625 -0.96875,4.75 -0.5625,4.78125 -0.1875,4.84375 0.1875,4.8125 0.5625,4.8125 0.96875,4.71875 1.3125,4.65625 1.65625,4.53125 2.03125,4.375 2.34375,4.21875 2.6875,4.03125 3,3.78125 3.28125,3.53125 3.53125,3.28125 3.78125,3 4.03125,2.6875 4.21875,2.34375 4.375,2.03125 4.53125,1.65625 4.65625,1.3125 4.71875,0.96875 4.8125,0.5625 4.8125,0.1875 4.84375,-0.1875 4.78125,-0.5625 4.75,-0.96875 4.625,-1.3125 4.53125,-1.65625 4.40625,-2.03125 4.21875,-2.34375 4,-2.6875 3.78125,-3 3.5625,-3.28125 3.28125,-3.53125 2.96875,-3.78125 2.6875,-4.03125 2.375,-4.21875 2,-4.375 1.6875,-4.53125 1.3125,-4.65625 0.9375,-4.71875 0.5625,-4.8125 0.1875,-4.8125 -0.1875,-4.84375 -0.5625,-4.78125 -0.9375,-4.75 -1.3125,-4.625 -1.6875,-4.53125 -2,-4.40625 -2.375,-4.21875 -2.6875,-4 -2.96875,-3.78125 -3.28125,-3.5625 -3.5625,-3.28125 -3.78125,-2.96875 -4,-2.6875 -4.21875,-2.375 -4.40625,-2 -4.53125,-1.6875 -4.625,-1.3125 -4.75,-0.9375 -4.78125,-0.5625 -4.84375,-0.1875 z"
       inkscape:connector-curvature="0"
       id="path68705" /></g></svg>