<?xml version="1.0" standalone="no"?>
<!DOCTYPE svg PUBLIC "-//W3C//DTD SVG 1.1//EN"
 "http://www.w3.org/Graphics/SVG/1.1/DTD/svg11.dtd">
<!-- Created with svg_stack (http://github.com/astraw/svg_stack) -->
<svg xmlns:sodipodi="http://sodipodi.sourceforge.net/DTD/sodipodi-0.dtd" xmlns="http://www.w3.org/2000/svg" version="1.1" width="633.75" height="1593.75">
  <defs/>
  <g id="id0:id0" transform="matrix(1.25,0,0,1.25,0.0,0.0)"><g transform="translate(0.000000,1275.000000) scale(0.100000,-0.100000)" fill="#000000" stroke="none">
<path d="M1262 11483 l-1261 -1268 1195 -1195 1194 -1195 0 -2530 0 -2531 -87 -13 c-124 -19 -217 -51 -378 -131 -153 -75 -210 -115 -346 -240 -115 -106 -252 -304 -317 -460 -142 -342 -142 -728 0 -1070 65 -156 202 -354 317 -460 135 -124 193 -164 342 -239 231 -115 359 -146 614 -145 264 0 392 31 634 154 111 56 159 88 244 161 231 197 397 461 462 734 124 521 -48 1040 -462 1394 -172 147 -440 273 -648 303 l-85 12 0 2537 0 2536 1196 1188 1195 1189 -1268 1268 c-697 697 -1271 1268 -1274 1268 -4 0 -574 -570 -1267 -1267z m2331 -211 l1057 -1057 -1061 -1060 -1060 -1060 -1053 1060 -1053 1060 1050 1057 c577 582 1053 1058 1056 1058 3 0 482 -476 1064 -1058z m-898 -8816 c213 -28 434 -136 593 -290 136 -131 250 -325 299 -507 25 -94 28 -120 28 -274 0 -154 -3 -180 -28 -274 -50 -185 -165 -379 -303 -511 -108 -103 -221 -173 -369 -228 -111 -42 -148 -51 -256 -62 -192 -20 -332 -3 -503 62 -275 103 -453 265 -594 540 -79 154 -107 277 -107 473 0 196 28 319 107 473 139 270 318 435 584 537 180 70 340 88 549 61z"/>
<path d="M1727 11018 l-796 -803 799 -799 799 -800 806 799 806 799 -803 803 c-442 442 -806 803 -809 803 -4 0 -365 -361 -802 -802z m1401 -211 l593 -593 -596 -589 -596 -589 -589 589 -589 589 586 593 c322 326 589 593 592 593 3 0 273 -267 599 -593z"/>
</g>
</g>
  <g id="id1:id1" transform="matrix(1.25,0,0,1.25,0.0,0.0)"><g transform="translate(0.000000,1275.000000) scale(0.100000,-0.100000)" fill="#ffffff" stroke="none">
</g>
</g>
</svg>
