<?xml version="1.0" standalone="no"?>
<!DOCTYPE svg PUBLIC "-//W3C//DTD SVG 1.1//EN"
 "http://www.w3.org/Graphics/SVG/1.1/DTD/svg11.dtd">
<!-- Created with svg_stack (http://github.com/astraw/svg_stack) -->
<svg xmlns:sodipodi="http://sodipodi.sourceforge.net/DTD/sodipodi-0.dtd" xmlns="http://www.w3.org/2000/svg" version="1.1" width="1588.75" height="1587.5">
  <defs/>
  <g id="id0:id0" transform="matrix(1.25,0,0,1.25,0.0,0.0)"><g transform="translate(0.000000,1270.000000) scale(0.100000,-0.100000)" fill="#000000" stroke="none">
<path d="M3173 9528 l-3173 -3173 3180 -3180 3181 -3180 3174 3180 3174 3180 -3172 3173 c-1745 1744 -3176 3172 -3181 3172 -5 0 -1437 -1428 -3183 -3172z m5839 -525 l2647 -2648 -2649 -2655 -2649 -2655 -2653 2652 -2653 2653 2650 2650 c1457 1457 2652 2650 2655 2650 3 0 1196 -1191 2652 -2647z"/>
</g>
</g>
  <g id="id1:id1" transform="matrix(1.25,0,0,1.25,0.0,0.0)"><g transform="translate(0.000000,1270.000000) scale(0.100000,-0.100000)" fill="#ffffff" stroke="none">
</g>
</g>
</svg>
