<?xml version="1.0" standalone="no"?>
<!DOCTYPE svg PUBLIC "-//W3C//DTD SVG 1.1//EN"
 "http://www.w3.org/Graphics/SVG/1.1/DTD/svg11.dtd">
<!-- Created with svg_stack (http://github.com/astraw/svg_stack) -->
<svg xmlns:sodipodi="http://sodipodi.sourceforge.net/DTD/sodipodi-0.dtd" xmlns="http://www.w3.org/2000/svg" version="1.1" width="1597.5" height="1596.25">
  <defs/>
  <g id="id0:id0" transform="matrix(1.25,0,0,1.25,0.0,0.0)"><g transform="translate(0.000000,1277.000000) scale(0.100000,-0.100000)" fill="#00ffff" stroke="none">
<path d="M6000 12760 c-398 -21 -955 -114 -1347 -226 -680 -194 -1222 -446 -1823 -847 -955 -638 -1736 -1549 -2238 -2612 -200 -424 -382 -986 -466 -1440 -161 -870 -161 -1630 0 -2500 84 -454 266 -1017 466 -1440 503 -1063 1283 -1974 2238 -2612 601 -401 1143 -653 1823 -847 307 -87 617 -147 1027 -197 263 -32 269 -33 710 -33 441 0 447 1 710 33 416 51 721 110 1020 196 849 247 1513 586 2219 1134 1051 815 1815 1959 2191 3281 374 1314 321 2640 -159 3960 -158 435 -412 936 -672 1325 -371 556 -843 1065 -1359 1466 -706 548 -1371 887 -2220 1134 -299 86 -616 147 -1020 195 -228 28 -292 31 -605 34 -192 3 -415 1 -495 -4z m-750 -5286 c0 -1606 2 -1880 16 -2037 30 -347 98 -511 289 -702 104 -104 181 -157 296 -201 292 -113 657 -135 979 -60 212 50 349 137 494 316 30 36 65 88 79 115 25 51 66 179 86 270 31 142 34 267 38 2203 l4 1952 590 0 589 0 0 -1587 c0 -1499 -9 -2206 -30 -2423 -41 -407 -42 -414 -107 -643 -74 -263 -166 -432 -347 -640 -188 -216 -602 -448 -941 -527 -150 -35 -504 -79 -690 -86 -509 -19 -1108 66 -1395 198 -237 109 -294 143 -440 262 -256 207 -462 505 -549 792 -26 86 -76 372 -91 518 -6 61 -13 113 -16 118 -19 30 -27 657 -31 2246 l-4 1772 591 0 590 0 0 -1856z"/>
</g>
</g>
  <g id="id1:id1" transform="matrix(1.25,0,0,1.25,0.0,0.0)"><g transform="translate(0.000000,1277.000000) scale(0.100000,-0.100000)" fill="#ffffff" stroke="none">
<path d="M4073 7558 c4 -1589 12 -2216 31 -2246 3 -5 10 -57 16 -118 15 -146 65 -432 91 -518 50 -163 146 -345 273 -511 141 -186 377 -383 569 -474 236 -112 252 -118 452 -167 294 -73 737 -113 1090 -100 186 7 540 51 690 86 339 79 753 311 941 527 181 208 273 377 347 640 65 229 66 236 107 643 21 217 30 924 30 2423 l0 1587 -589 0 -590 0 -4 -1952 c-4 -1936 -7 -2061 -38 -2203 -20 -91 -61 -219 -86 -270 -56 -111 -205 -266 -321 -334 -296 -172 -838 -189 -1231 -37 -115 44 -192 97 -296 201 -191 191 -259 355 -289 702 -14 157 -16 431 -16 2037 l0 1856 -590 0 -591 0 4 -1772z"/>
</g>
</g>
</svg>
