<?xml version="1.0" standalone="no"?>
<!DOCTYPE svg PUBLIC "-//W3C//DTD SVG 1.1//EN"
 "http://www.w3.org/Graphics/SVG/1.1/DTD/svg11.dtd">
<!-- Created with svg_stack (http://github.com/astraw/svg_stack) -->
<svg xmlns:sodipodi="http://sodipodi.sourceforge.net/DTD/sodipodi-0.dtd" xmlns="http://www.w3.org/2000/svg" version="1.1" width="875.0" height="1592.5">
  <defs/>
  <g id="id0:id0" transform="matrix(1.25,0,0,1.25,0.0,0.0)"><g transform="translate(0.000000,1274.000000) scale(0.100000,-0.100000)" fill="#000000" stroke="none">
<path d="M918 12638 c-208 -226 -386 -483 -533 -770 -199 -389 -309 -750 -361 -1178 -24 -199 -24 -617 0 -825 50 -427 161 -793 362 -1184 114 -223 190 -342 358 -561 89 -117 265 -312 277 -308 5 2 78 68 163 147 l155 144 -82 89 c-267 289 -448 579 -624 1003 -75 181 -144 462 -179 725 -24 185 -24 526 0 710 35 264 104 545 179 725 175 421 348 700 626 1010 63 70 78 92 68 102 -60 57 -303 273 -308 273 -3 0 -49 -46 -101 -102z"/>
<path d="M5830 12609 c-80 -72 -150 -136 -157 -142 -10 -10 5 -32 68 -102 444 -495 721 -1089 803 -1720 22 -163 22 -578 0 -740 -83 -634 -369 -1246 -801 -1713 l-82 -89 155 -144 c85 -79 158 -145 163 -147 12 -4 188 191 277 308 168 219 244 338 358 561 201 391 312 757 362 1184 24 208 24 626 0 825 -52 428 -162 789 -361 1178 -113 222 -190 341 -359 562 -77 101 -263 310 -275 310 -4 0 -72 -59 -151 -131z"/>
<path d="M1804 11808 c-241 -251 -438 -625 -522 -993 -54 -234 -66 -333 -66 -540 1 -209 13 -308 66 -540 67 -291 184 -546 368 -800 96 -133 216 -268 232 -263 4 2 77 68 162 147 l155 144 -84 89 c-104 110 -185 229 -259 376 -160 319 -222 640 -196 1005 29 393 201 794 455 1065 l84 89 -155 144 c-85 79 -158 145 -163 147 -4 1 -39 -30 -77 -70z"/>
<path d="M4958 11733 l-157 -146 84 -89 c254 -271 426 -672 455 -1065 26 -365 -36 -686 -196 -1005 -74 -147 -155 -266 -259 -376 l-84 -89 155 -144 c85 -79 158 -145 163 -147 16 -5 148 147 246 283 169 236 269 461 354 795 50 195 64 311 64 525 1 213 -13 327 -65 530 -89 353 -211 612 -406 870 -47 62 -181 205 -191 205 -3 0 -77 -66 -163 -147z"/>
<path d="M3070 4525 l0 -3675 -760 0 -760 0 0 -425 0 -425 1950 0 1950 0 0 425 0 425 -760 0 -760 0 0 3675 0 3675 -430 0 -430 0 0 -3675z"/>
</g>
</g>
  <g id="id1:id1" transform="matrix(1.25,0,0,1.25,0.0,0.0)"><g transform="translate(0.000000,1274.000000) scale(0.100000,-0.100000)" fill="#ffffff" stroke="none">
</g>
</g>
</svg>
