<?xml version="1.0" standalone="no"?>
<!DOCTYPE svg PUBLIC "-//W3C//DTD SVG 1.1//EN"
 "http://www.w3.org/Graphics/SVG/1.1/DTD/svg11.dtd">
<!-- Created with svg_stack (http://github.com/astraw/svg_stack) -->
<svg xmlns:sodipodi="http://sodipodi.sourceforge.net/DTD/sodipodi-0.dtd" xmlns="http://www.w3.org/2000/svg" version="1.1" width="1993.75" height="573.75">
  <defs/>
  <g id="id0:id0" transform="matrix(1.25,0,0,1.25,0.0,0.0)"><g transform="translate(0.000000,459.000000) scale(0.100000,-0.100000)" fill="#00cccc" stroke="none">
<path d="M2032 2557 l-2032 -2032 175 -175 175 -175 1859 1859 1860 1860 1866 -1859 1866 -1859 175 175 175 175 -2039 2032 c-1122 1118 -2041 2032 -2043 2032 -2 0 -919 -915 -2037 -2033z"/>
<path d="M7972 4237 l-173 -173 2041 -2034 2041 -2034 2035 2035 2034 2034 -175 175 -175 175 -1859 -1859 -1860 -1860 -1864 1857 c-1026 1021 -1866 1857 -1868 1857 -2 0 -82 -78 -177 -173z"/>
</g>
</g>
  <g id="id1:id1" transform="matrix(1.25,0,0,1.25,0.0,0.0)"><g transform="translate(0.000000,459.000000) scale(0.100000,-0.100000)" fill="#ffffff" stroke="none">
</g>
</g>
</svg>
