<?xml version="1.0" standalone="no"?>
<!DOCTYPE svg PUBLIC "-//W3C//DTD SVG 1.1//EN"
 "http://www.w3.org/Graphics/SVG/1.1/DTD/svg11.dtd">
<!-- Created with svg_stack (http://github.com/astraw/svg_stack) -->
<svg xmlns:sodipodi="http://sodipodi.sourceforge.net/DTD/sodipodi-0.dtd" xmlns="http://www.w3.org/2000/svg" version="1.1" width="1188.75" height="1590.0">
  <defs/>
  <g id="id0:id0" transform="matrix(1.25,0,0,1.25,0.0,0.0)"><g transform="translate(0.000000,1272.000000) scale(0.100000,-0.100000)" fill="#000000" stroke="none">
<path d="M0 10395 l0 -2325 825 0 825 0 0 -3115 0 -3115 -610 0 -610 0 0 -920 0 -920 3055 0 3055 0 0 920 0 920 -615 0 -615 0 0 3115 0 3115 400 0 400 0 0 -1983 0 -1984 65 -484 65 -484 165 -345 166 -345 372 -226 372 -226 385 -62 c212 -34 393 -61 404 -61 10 0 156 61 325 136 l306 135 198 197 199 197 113 226 113 225 76 395 76 395 -345 1722 -344 1722 -25 359 c-24 331 -26 410 -26 1037 l0 678 -80 417 c-76 395 -84 428 -149 613 -38 107 -71 199 -74 203 -2 4 -66 119 -141 254 l-137 246 -182 145 c-155 124 -211 161 -375 252 l-192 106 -240 0 -240 0 0 595 0 595 -3480 0 -3480 0 0 -2325z m6110 0 l0 -1465 -2625 0 -2625 0 0 1465 0 1465 2625 0 2625 0 0 -1465z m1173 249 c34 -20 102 -68 150 -107 87 -70 89 -72 172 -226 123 -230 161 -348 245 -759 l70 -344 0 -646 c0 -583 2 -687 26 -1052 l25 -404 335 -1664 334 -1665 -44 -247 -45 -248 -60 -118 c-54 -108 -68 -128 -158 -215 -93 -92 -104 -100 -214 -148 -65 -28 -125 -51 -135 -51 -11 0 -95 14 -189 32 l-170 31 -197 115 -196 116 -81 170 -81 171 -55 390 -55 390 0 3258 0 3257 131 0 131 0 61 -36z"/>
<path d="M1390 11055 l0 -265 855 0 855 0 0 265 0 265 -855 0 -855 0 0 -265z"/>
<path d="M3860 11055 l0 -265 855 0 855 0 0 265 0 265 -855 0 -855 0 0 -265z"/>
</g>
</g>
  <g id="id1:id1" transform="matrix(1.25,0,0,1.25,0.0,0.0)"><g transform="translate(0.000000,1272.000000) scale(0.100000,-0.100000)" fill="#ffffff" stroke="none">
<path d="M860 10395 l0 -1465 2625 0 2625 0 0 1465 0 1465 -2625 0 -2625 0 0 -1465z m2240 660 l0 -265 -855 0 -855 0 0 265 0 265 855 0 855 0 0 -265z m2470 0 l0 -265 -855 0 -855 0 0 265 0 265 855 0 855 0 0 -265z"/>
</g>
</g>
</svg>
