<?xml version="1.0" standalone="no"?>
<!DOCTYPE svg PUBLIC "-//W3C//DTD SVG 1.1//EN"
 "http://www.w3.org/Graphics/SVG/1.1/DTD/svg11.dtd">
<!-- Created with svg_stack (http://github.com/astraw/svg_stack) -->
<svg xmlns:sodipodi="http://sodipodi.sourceforge.net/DTD/sodipodi-0.dtd" xmlns="http://www.w3.org/2000/svg" version="1.1" width="543.75" height="1596.25">
  <defs/>
  <g id="id0:id0" transform="matrix(1.25,0,0,1.25,0.0,0.0)"><g transform="translate(0.000000,1277.000000) scale(0.100000,-0.100000)" fill="#181512" stroke="none">
<path d="M0 9945 l0 -2825 970 0 970 0 -2 -1392 -3 -1393 -30 -3 c-428 -37 -954 -294 -1266 -620 -168 -175 -307 -367 -390 -537 -176 -364 -242 -636 -242 -1000 0 -364 66 -636 242 -1000 178 -368 543 -735 923 -929 330 -168 648 -246 1008 -246 356 0 667 77 1005 250 166 84 232 129 400 270 210 177 422 445 542 685 91 180 176 460 209 685 18 124 18 446 0 570 -33 225 -118 505 -209 685 -100 200 -332 507 -484 641 -159 140 -280 224 -458 314 -256 131 -439 189 -742 236 l-33 5 0 1389 0 1390 970 0 970 0 0 2825 0 2825 -2175 0 -2175 0 0 -2825z m3890 0 l0 -2355 -1710 0 -1710 0 0 2355 0 2355 1710 0 1710 0 0 -2355z m-1335 -6103 c165 -38 205 -53 385 -143 298 -148 521 -351 687 -624 108 -178 129 -223 171 -365 62 -204 70 -243 82 -392 21 -250 -9 -464 -99 -731 -73 -214 -289 -539 -452 -678 -115 -98 -260 -194 -389 -258 -180 -90 -221 -105 -385 -142 -137 -32 -146 -32 -380 -32 l-240 0 -150 36 c-167 40 -225 62 -394 147 -345 173 -648 506 -794 871 -70 173 -83 220 -107 376 -27 173 -27 373 0 541 25 153 38 200 101 362 168 430 520 776 980 965 56 23 297 84 384 98 17 3 127 4 245 3 202 -2 223 -4 355 -34z"/>
<path d="M1300 10590 l0 -880 880 0 880 0 0 880 0 880 -880 0 -880 0 0 -880z m1290 5 l0 -415 -415 0 -415 0 0 415 0 415 415 0 415 0 0 -415z"/>
</g>
</g>
  <g id="id1:id1" transform="matrix(1.25,0,0,1.25,0.0,0.0)"><g transform="translate(0.000000,1277.000000) scale(0.100000,-0.100000)" fill="#ffffff" stroke="none">
</g>
</g>
</svg>
