<?xml version="1.0" standalone="no"?>
<!DOCTYPE svg PUBLIC "-//W3C//DTD SVG 1.1//EN"
 "http://www.w3.org/Graphics/SVG/1.1/DTD/svg11.dtd">
<!-- Created with svg_stack (http://github.com/astraw/svg_stack) -->
<svg xmlns:sodipodi="http://sodipodi.sourceforge.net/DTD/sodipodi-0.dtd" xmlns="http://www.w3.org/2000/svg" version="1.1" width="895.0" height="1593.75">
  <defs/>
  <g id="id0:id0" transform="matrix(1.25,0,0,1.25,0.0,0.0)"><g transform="translate(0.000000,1275.000000) scale(0.100000,-0.100000)" fill="#999999" stroke="none">
<path d="M3155 12730 c-457 -52 -943 -212 -1329 -437 -352 -206 -478 -301 -770 -585 -194 -187 -260 -267 -453 -543 -110 -157 -296 -522 -378 -742 -85 -226 -174 -592 -201 -830 -24 -205 -24 -642 0 -847 28 -240 116 -602 201 -829 82 -220 268 -585 378 -742 193 -276 259 -356 453 -543 292 -284 419 -380 769 -584 228 -132 534 -263 760 -323 106 -28 443 -105 461 -105 2 0 4 -1264 4 -2810 l0 -2810 530 0 530 0 0 2810 c0 1546 2 2810 4 2810 18 0 355 77 461 105 382 102 904 370 1226 631 184 149 479 441 578 574 198 263 267 371 385 607 287 575 389 1002 389 1633 0 497 -57 824 -220 1258 -80 215 -267 581 -376 737 -193 276 -259 356 -453 543 -292 284 -418 379 -770 585 -392 228 -868 384 -1339 437 -222 25 -621 25 -840 0z m885 -1088 c254 -53 376 -92 624 -201 177 -78 475 -285 673 -467 78 -72 275 -308 341 -409 150 -229 307 -611 371 -900 61 -275 61 -712 0 -990 -63 -287 -221 -671 -371 -900 -66 -101 -263 -337 -341 -409 -198 -182 -497 -390 -675 -468 -291 -128 -450 -174 -789 -228 -281 -46 -627 -16 -998 85 -226 62 -510 199 -737 357 -281 195 -532 460 -690 729 -196 331 -294 597 -350 941 -27 168 -31 218 -31 388 0 171 4 218 31 388 18 106 44 232 58 280 206 678 575 1155 1168 1509 115 68 152 86 339 164 163 67 314 106 637 163 14 2 153 3 310 1 273 -2 291 -4 430 -33z"/>
<path d="M910 2445 l0 -2445 380 0 380 0 0 2445 0 2445 -380 0 -380 0 0 -2445z"/>
</g>
</g>
  <g id="id1:id1" transform="matrix(1.25,0,0,1.25,0.0,0.0)"><g transform="translate(0.000000,1275.000000) scale(0.100000,-0.100000)" fill="#ffffff" stroke="none">
</g>
</g>
</svg>
