<?xml version="1.0" standalone="no"?>
<!DOCTYPE svg PUBLIC "-//W3C//DTD SVG 1.1//EN"
 "http://www.w3.org/Graphics/SVG/1.1/DTD/svg11.dtd">
<!-- Created with svg_stack (http://github.com/astraw/svg_stack) -->
<svg xmlns:sodipodi="http://sodipodi.sourceforge.net/DTD/sodipodi-0.dtd" xmlns="http://www.w3.org/2000/svg" version="1.1" width="1666.25" height="1593.75">
  <defs/>
  <g id="id0:id0" transform="matrix(1.25,0,0,1.25,0.0,0.0)"><g transform="translate(0.000000,1275.000000) scale(0.100000,-0.100000)" fill="#00ff00" stroke="none">
<path d="M9325 12730 c-247 -28 -605 -114 -830 -199 -331 -124 -714 -341 -965 -546 -477 -389 -745 -725 -1023 -1281 -140 -280 -285 -779 -323 -1109 -24 -207 -24 -643 0 -850 38 -331 183 -829 323 -1109 278 -556 546 -892 1023 -1281 183 -150 459 -319 722 -443 237 -112 476 -189 798 -257 69 -14 133 -29 143 -31 16 -5 17 -148 17 -2815 l0 -2809 535 0 535 0 0 2809 0 2809 78 17 c606 130 889 245 1387 558 155 97 311 227 529 439 194 187 260 267 453 543 109 156 296 522 376 737 163 434 220 761 220 1258 0 630 -102 1058 -389 1633 -118 236 -187 344 -385 607 -99 133 -394 425 -578 574 -175 141 -499 340 -721 441 -273 125 -423 174 -800 260 -281 64 -784 84 -1125 45z m778 -1070 c347 -59 637 -157 877 -298 216 -126 422 -281 557 -420 167 -170 362 -448 468 -667 115 -237 184 -455 227 -717 27 -170 31 -217 31 -388 0 -478 -133 -932 -393 -1345 -88 -139 -231 -324 -333 -427 -136 -139 -340 -293 -558 -421 -239 -140 -512 -233 -876 -298 -169 -31 -465 -37 -622 -14 -465 69 -794 189 -1120 407 -458 308 -783 715 -971 1213 -118 312 -175 717 -151 1055 15 197 23 249 71 445 163 673 587 1223 1225 1592 188 109 458 204 740 262 179 36 207 39 460 40 208 1 270 -2 368 -19z"/>
<path d="M2480 5715 c-222 -23 -650 -145 -835 -238 -230 -114 -453 -254 -595 -372 -191 -159 -450 -437 -545 -585 -223 -348 -330 -589 -423 -955 -62 -242 -76 -364 -75 -655 0 -293 14 -414 75 -655 93 -364 201 -609 423 -955 95 -148 355 -427 545 -584 270 -224 659 -424 1010 -520 517 -142 1014 -142 1530 -1 451 124 876 373 1220 715 142 141 273 294 335 390 284 443 411 780 479 1270 81 584 -58 1252 -370 1772 -153 256 -234 359 -444 568 -230 230 -478 404 -805 567 -193 97 -613 215 -850 238 -171 17 -505 17 -675 0z m685 -1084 c163 -40 329 -93 395 -126 134 -67 297 -169 360 -224 36 -31 89 -76 117 -100 96 -78 263 -307 366 -501 43 -80 90 -221 136 -405 51 -205 47 -544 -9 -763 -57 -221 -88 -304 -153 -418 -206 -359 -416 -565 -767 -752 -52 -28 -114 -58 -138 -66 l-42 -15 0 789 0 790 -535 0 -535 0 -2 -809 -3 -809 -108 33 c-128 40 -258 107 -426 222 -165 112 -204 147 -324 288 -162 190 -281 408 -345 632 -71 247 -77 285 -77 513 0 159 4 223 18 288 34 156 99 367 139 447 148 296 284 469 518 657 49 39 237 151 340 203 95 47 343 119 510 149 14 2 126 3 250 2 193 -2 238 -6 315 -25z"/>
<path d="M6920 2445 l0 -2445 385 0 385 0 0 2445 0 2445 -385 0 -385 0 0 -2445z"/>
</g>
</g>
  <g id="id1:id1" transform="matrix(1.25,0,0,1.25,0.0,0.0)"><g transform="translate(0.000000,1275.000000) scale(0.100000,-0.100000)" fill="#ffffff" stroke="none">
</g>
</g>
</svg>
