<?xml version="1.0" standalone="no"?>
<!DOCTYPE svg PUBLIC "-//W3C//DTD SVG 1.1//EN"
 "http://www.w3.org/Graphics/SVG/1.1/DTD/svg11.dtd">
<!-- Created with svg_stack (http://github.com/astraw/svg_stack) -->
<svg xmlns:sodipodi="http://sodipodi.sourceforge.net/DTD/sodipodi-0.dtd" xmlns="http://www.w3.org/2000/svg" version="1.1" width="1627.5" height="1592.5">
  <defs/>
  <g id="id0:id0" transform="matrix(1.25,0,0,1.25,0.0,0.0)"><g transform="translate(0.000000,1274.000000) scale(0.100000,-0.100000)" fill="#000000" stroke="none">
<path d="M4245 12728 c-3 -7 -957 -2868 -2121 -6358 -1164 -3490 -2119 -6351 -2121 -6357 -4 -10 1301 -13 6507 -13 l6511 0 -7 23 c-4 12 -960 2877 -2124 6367 l-2117 6345 -2262 3 c-1804 2 -2263 0 -2266 -10z m5897 -6363 c1033 -3102 1878 -5641 1878 -5642 0 -2 -2478 -3 -5506 -3 -4401 0 -5505 3 -5501 13 2 6 845 2536 1872 5622 1027 3085 1871 5620 1876 5632 l9 23 1747 -2 1747 -3 1878 -5640z"/>
</g>
</g>
  <g id="id1:id1" transform="matrix(1.25,0,0,1.25,0.0,0.0)"><g transform="translate(0.000000,1274.000000) scale(0.100000,-0.100000)" fill="#ffffff" stroke="none">
</g>
</g>
</svg>
