<?xml version="1.0" standalone="no"?>
<!DOCTYPE svg PUBLIC "-//W3C//DTD SVG 1.1//EN"
 "http://www.w3.org/Graphics/SVG/1.1/DTD/svg11.dtd">
<!-- Created with svg_stack (http://github.com/astraw/svg_stack) -->
<svg xmlns:sodipodi="http://sodipodi.sourceforge.net/DTD/sodipodi-0.dtd" xmlns="http://www.w3.org/2000/svg" version="1.1" width="1596.25" height="1596.25">
  <defs/>
  <g id="id0:id0" transform="matrix(1.25,0,0,1.25,0.0,0.0)"><g transform="translate(0.000000,1277.000000) scale(0.100000,-0.100000)" fill="#000000" stroke="none">
<path d="M5995 12760 c-558 -31 -1307 -190 -1820 -388 -680 -263 -1188 -547 -1735 -971 -523 -406 -1024 -950 -1362 -1476 -399 -623 -642 -1152 -828 -1805 -327 -1150 -327 -2341 1 -3467 198 -682 451 -1231 835 -1813 465 -706 1016 -1260 1759 -1764 785 -534 1826 -915 2835 -1037 262 -32 270 -33 710 -33 440 0 448 1 710 33 1009 122 2050 503 2835 1037 451 306 791 598 1135 974 362 396 627 760 885 1215 399 704 693 1609 769 2365 54 545 54 973 0 1513 -60 597 -275 1358 -546 1932 -214 454 -520 951 -774 1260 -484 588 -895 969 -1469 1360 -363 247 -823 481 -1330 677 -416 160 -958 291 -1470 354 -260 32 -305 34 -635 38 -195 2 -422 1 -505 -4z m1065 -640 c1370 -158 2656 -813 3568 -1819 324 -357 551 -669 795 -1092 286 -496 528 -1151 627 -1693 127 -697 147 -1222 69 -1809 -71 -542 -136 -812 -318 -1328 -280 -795 -858 -1657 -1500 -2237 -331 -300 -771 -621 -1091 -797 -691 -381 -1414 -613 -2185 -701 -222 -26 -269 -28 -635 -27 -364 0 -414 2 -635 27 -1087 124 -2097 538 -2930 1204 -324 258 -511 431 -684 627 -677 772 -1019 1386 -1306 2346 -162 538 -243 1216 -215 1788 25 519 89 918 217 1351 230 781 545 1399 1011 1985 336 422 580 669 962 975 431 346 981 654 1570 881 474 183 1120 319 1660 350 74 4 277 5 450 3 265 -3 355 -9 570 -34z"/>
<path d="M6253 11252 l-263 -67 -272 -197 -273 -197 -322 -338 -321 -338 -448 -580 c-246 -319 -465 -608 -486 -642 -35 -54 -42 -61 -58 -51 -14 9 -66 2 -236 -32 l-219 -43 -175 -104 c-96 -58 -176 -106 -177 -107 -1 -1 -7 -87 -13 -192 l-12 -191 65 -129 c35 -71 76 -157 91 -190 l28 -61 -74 -114 c-41 -63 -84 -131 -97 -152 -13 -21 -72 -168 -132 -325 l-109 -287 -50 -285 -50 -286 75 -329 75 -330 209 -365 208 -365 -38 -234 c-21 -128 -45 -306 -54 -395 -9 -88 -32 -237 -52 -331 -38 -182 -63 -245 -164 -411 l-50 -81 11 -159 c10 -142 14 -164 37 -204 53 -92 109 -167 187 -255 45 -49 96 -109 115 -132 23 -29 43 -43 68 -48 19 -3 85 -22 148 -41 107 -32 122 -34 257 -34 117 0 171 5 294 29 154 30 215 50 374 124 89 42 89 42 194 174 l106 132 0 275 0 275 -36 173 c-19 95 -51 243 -69 328 -32 145 -34 161 -25 240 5 47 10 86 10 88 0 1 54 2 120 2 l120 0 0 -28 c0 -15 -11 -97 -25 -181 -14 -85 -24 -155 -23 -157 2 -1 44 -35 93 -74 103 -82 123 -93 299 -167 l129 -53 211 0 211 0 148 52 c130 47 149 56 154 78 3 14 19 51 35 83 68 137 88 205 88 304 0 51 2 93 5 93 3 0 92 -58 198 -128 l192 -129 128 -34 c98 -26 126 -37 122 -48 -3 -8 -24 -86 -46 -175 -22 -89 -51 -192 -65 -230 -61 -170 -94 -307 -120 -492 l-27 -191 -211 -148 c-265 -187 -374 -292 -441 -425 -41 -83 -45 -95 -55 -212 l-10 -125 48 -102 c71 -147 174 -261 357 -396 108 -79 171 -117 274 -164 l133 -61 152 0 c144 0 158 2 293 39 l142 39 155 107 c86 60 162 118 171 131 8 12 62 77 119 143 208 241 360 504 491 851 23 63 65 171 92 240 28 69 69 202 92 296 l42 170 92 33 c217 76 258 99 381 210 64 57 116 109 116 116 0 6 27 85 60 175 l60 164 0 205 c0 138 -5 234 -15 291 -16 89 -19 359 -7 520 l7 85 152 238 c92 142 189 308 242 415 l89 179 11 327 c6 179 11 568 11 864 0 601 -12 834 -76 1497 l-35 370 -69 280 c-82 335 -175 682 -188 698 -381 495 -377 490 -553 658 l-174 165 -255 37 c-140 20 -347 44 -460 53 l-205 17 -240 168 -240 167 -255 6 -255 5 -262 -67z m906 -421 l236 -168 255 -18 c160 -11 324 -29 442 -49 l186 -31 135 -123 c116 -106 159 -154 297 -337 l161 -212 60 -229 c168 -644 167 -636 204 -1003 58 -574 68 -861 63 -1766 l-5 -790 -76 -151 c-41 -83 -145 -259 -230 -390 -85 -131 -164 -259 -177 -284 -65 -128 -188 -310 -211 -310 -4 0 -11 26 -14 58 -4 31 -25 113 -47 181 -37 114 -48 137 -149 285 -59 89 -161 222 -226 296 -88 100 -143 175 -212 289 -90 148 -95 161 -132 300 -37 140 -39 152 -39 306 0 185 21 378 56 519 25 98 25 103 14 270 -17 265 -61 503 -120 661 -117 313 -165 425 -284 663 -114 228 -144 277 -294 492 l-167 239 -7 -75 c-4 -40 -14 -332 -23 -646 -24 -897 -50 -1387 -90 -1693 -14 -104 -34 -262 -46 -350 -11 -88 -43 -259 -71 -380 -42 -186 -60 -243 -113 -366 -39 -89 -93 -192 -138 -262 -70 -107 -82 -120 -191 -203 l-115 -89 -240 -84 -239 -85 -52 -112 c-46 -99 -62 -123 -134 -197 -69 -71 -99 -93 -197 -145 l-116 -62 -406 0 -406 0 -10 -37 c-6 -21 -11 -43 -11 -50 0 -6 -4 -15 -10 -18 -5 -3 -174 62 -376 145 -202 82 -374 150 -383 150 -11 0 -7 6 11 18 l27 18 -224 400 -224 399 -66 275 -66 275 40 240 41 240 99 258 c55 143 106 269 113 280 8 12 60 94 116 183 l103 160 97 -12 c158 -21 144 -25 299 85 l138 99 78 156 78 155 -11 173 c-6 95 -15 175 -19 178 -5 3 -25 20 -45 38 l-37 32 45 73 c25 39 246 329 492 642 421 539 463 588 752 898 l307 328 240 168 240 169 205 50 205 50 189 1 189 1 236 -169z"/>
<path d="M5536 8161 c-3 -5 -35 -78 -72 -162 l-65 -154 15 -200 16 -200 106 -156 106 -157 166 -134 c92 -74 177 -141 188 -148 19 -12 40 -6 180 45 88 31 160 58 161 59 1 0 13 94 27 208 26 202 26 208 11 315 -25 169 -33 203 -53 228 -78 99 -228 255 -337 351 l-129 114 -158 0 c-86 0 -159 -4 -162 -9z"/>
<path d="M3730 6838 c-41 -30 -57 -34 -240 -58 -237 -32 -393 -77 -409 -120 -18 -46 -29 -104 -36 -186 -6 -70 -3 -91 19 -166 l26 -86 91 -78 c49 -44 93 -80 97 -81 4 -2 18 14 32 34 14 20 78 109 143 198 109 147 178 248 315 459 49 75 51 81 35 98 -21 23 -20 23 -73 -14z"/>
<path d="M4486 6443 l-95 -106 56 -110 c77 -155 128 -304 148 -433 9 -60 19 -117 21 -126 8 -27 132 -34 230 -13 70 15 85 23 127 64 27 25 64 75 82 112 l33 65 -48 166 c-37 129 -56 178 -87 224 -22 33 -52 80 -67 105 -21 36 -47 59 -115 103 -78 49 -95 56 -139 56 l-51 0 -95 -107z"/>
<path d="M3470 5503 c0 -36 8 -75 20 -102 11 -24 27 -71 36 -105 33 -128 158 -245 300 -281 70 -18 73 -18 140 1 69 20 69 20 145 118 73 93 78 102 92 179 8 45 13 83 12 85 -2 2 -79 7 -172 12 -225 13 -400 53 -511 119 -29 17 -55 31 -57 31 -3 0 -5 -26 -5 -57z"/>
</g>
</g>
  <g id="id1:id1" transform="matrix(1.25,0,0,1.25,0.0,0.0)"><g transform="translate(0.000000,1277.000000) scale(0.100000,-0.100000)" fill="#ffffff" stroke="none">
<path d="M6040 12151 c-540 -31 -1186 -167 -1660 -350 -589 -227 -1139 -535 -1570 -881 -382 -306 -626 -553 -962 -975 -466 -586 -781 -1204 -1011 -1985 -128 -433 -192 -832 -217 -1351 -20 -407 21 -931 105 -1351 79 -389 263 -954 424 -1298 261 -557 527 -954 992 -1485 337 -383 943 -862 1434 -1133 697 -384 1403 -610 2180 -698 221 -25 271 -27 635 -27 366 -1 413 1 635 27 771 88 1494 320 2185 701 320 176 760 497 1091 797 304 274 651 679 877 1023 372 564 566 983 767 1656 105 350 194 905 215 1340 27 544 -61 1273 -216 1799 -189 637 -393 1077 -760 1635 -312 476 -778 982 -1224 1331 -714 557 -1545 942 -2425 1120 -346 71 -660 103 -1045 108 -173 2 -376 1 -450 -3z m1225 -1010 l240 -168 205 -17 c113 -9 320 -33 460 -53 l255 -37 174 -165 c176 -168 172 -163 553 -658 13 -16 106 -363 188 -698 l69 -280 35 -370 c64 -663 76 -896 76 -1497 0 -296 -5 -685 -11 -864 l-11 -327 -89 -179 c-53 -107 -150 -273 -242 -415 l-152 -238 -7 -85 c-12 -161 -9 -431 7 -520 10 -57 15 -153 15 -291 l0 -205 -60 -164 c-33 -90 -60 -169 -60 -175 0 -7 -52 -59 -116 -116 -123 -111 -164 -134 -381 -210 l-92 -33 -42 -170 c-23 -94 -64 -227 -92 -296 -27 -69 -69 -177 -92 -240 -131 -347 -283 -610 -491 -851 -57 -66 -111 -131 -119 -143 -9 -13 -85 -71 -171 -131 l-155 -107 -142 -39 c-135 -37 -149 -39 -293 -39 l-152 0 -133 61 c-103 47 -166 85 -274 164 -183 135 -286 249 -357 396 l-48 102 10 125 c10 117 14 129 55 212 67 133 176 238 441 425 l211 148 27 191 c26 185 59 322 120 492 14 38 43 141 65 230 22 89 43 167 46 175 4 11 -24 22 -122 48 l-128 34 -192 129 c-106 70 -195 128 -198 128 -3 0 -5 -42 -5 -93 0 -99 -20 -167 -88 -304 -16 -32 -32 -69 -35 -83 -5 -22 -24 -31 -154 -78 l-148 -52 -211 0 -211 0 -129 53 c-176 74 -196 85 -299 167 -49 39 -91 73 -93 74 -1 2 9 72 23 157 14 84 25 166 25 181 l0 28 -120 0 c-66 0 -120 -1 -120 -2 0 -2 -5 -41 -10 -88 -9 -79 -7 -95 25 -240 18 -85 50 -233 69 -328 l36 -173 0 -275 0 -275 -106 -132 c-105 -132 -105 -132 -194 -174 -159 -74 -220 -94 -374 -124 -123 -24 -177 -29 -294 -29 -135 0 -150 2 -257 34 -63 19 -129 38 -148 41 -25 5 -45 19 -68 48 -19 23 -70 83 -115 132 -78 88 -134 163 -187 255 -23 40 -27 62 -37 204 l-11 159 50 81 c101 166 126 229 164 411 20 94 43 243 52 331 9 89 33 267 54 395 l38 234 -208 365 -209 365 -75 330 -75 329 50 286 50 285 109 287 c60 157 119 304 132 325 13 21 56 89 97 152 l74 114 -28 61 c-15 33 -56 119 -91 190 l-65 129 12 191 c6 105 12 191 13 192 1 1 81 49 177 107 l175 104 219 43 c170 34 222 41 236 32 16 -10 23 -3 58 51 21 34 240 323 486 642 l448 580 321 338 322 338 273 197 272 197 263 67 262 67 255 -5 255 -6 240 -167z"/>
<path d="M6340 10948 l-205 -50 -240 -169 -240 -168 -307 -328 c-289 -310 -331 -359 -752 -898 -246 -313 -467 -603 -492 -642 l-45 -73 37 -32 c20 -18 40 -35 45 -38 4 -3 13 -83 19 -178 l11 -173 -78 -155 -78 -156 -138 -99 c-155 -110 -141 -106 -299 -85 l-97 12 -103 -160 c-56 -89 -108 -171 -116 -183 -7 -11 -58 -137 -113 -280 l-99 -258 -41 -240 -40 -240 66 -275 66 -275 224 -399 224 -400 -27 -18 c-18 -12 -22 -18 -11 -18 9 0 181 -68 383 -150 202 -83 371 -148 376 -145 6 3 10 12 10 18 0 7 5 29 11 50 l10 37 406 0 406 0 116 62 c98 52 128 74 197 145 72 74 88 98 134 197 l52 112 239 85 240 84 115 89 c109 83 121 96 191 203 45 70 99 173 138 262 53 123 71 180 113 366 28 121 60 292 71 380 12 88 32 246 46 350 40 306 66 796 90 1693 9 314 19 606 23 646 l7 75 167 -239 c150 -215 180 -264 294 -492 119 -238 167 -350 284 -663 59 -158 103 -396 120 -661 11 -167 11 -172 -14 -270 -35 -141 -56 -334 -56 -519 0 -154 2 -166 39 -306 37 -139 42 -152 132 -300 69 -114 124 -189 212 -289 65 -74 167 -207 226 -296 101 -148 112 -171 149 -285 22 -68 43 -150 47 -181 3 -32 10 -58 14 -58 23 0 146 182 211 310 13 25 92 153 177 284 85 131 189 307 230 390 l76 151 5 790 c5 905 -5 1192 -63 1766 -37 367 -36 359 -204 1003 l-60 229 -161 212 c-138 183 -181 231 -297 337 l-135 123 -186 31 c-118 20 -282 38 -442 49 l-255 18 -236 168 -236 169 -189 -1 -189 -1 -205 -50z m-355 -2892 c109 -96 259 -252 337 -351 20 -25 28 -59 53 -228 15 -107 15 -113 -11 -315 -14 -114 -26 -208 -27 -208 -1 -1 -73 -28 -161 -59 -140 -51 -161 -57 -180 -45 -11 7 -96 74 -188 148 l-166 134 -106 157 -106 156 -16 200 -15 200 65 154 c37 84 69 157 72 162 3 5 76 9 162 9 l158 0 129 -114z m-2182 -1204 c16 -17 14 -23 -35 -98 -137 -211 -206 -312 -315 -459 -65 -89 -129 -178 -143 -198 -14 -20 -28 -36 -32 -34 -4 1 -48 37 -97 81 l-91 78 -26 86 c-22 75 -25 96 -19 166 7 82 18 140 36 186 16 43 172 88 409 120 183 24 199 28 240 58 53 37 52 37 73 14z m968 -358 c68 -44 94 -67 115 -103 15 -25 45 -72 67 -105 31 -46 50 -95 87 -224 l48 -166 -33 -65 c-18 -37 -55 -87 -82 -112 -42 -41 -57 -49 -127 -64 -98 -21 -222 -14 -230 13 -2 9 -12 66 -21 126 -20 129 -71 278 -148 433 l-56 110 95 106 95 107 51 0 c44 0 61 -7 139 -56z m-1239 -965 c111 -66 286 -106 511 -119 93 -5 170 -10 172 -12 1 -2 -4 -40 -12 -85 -14 -77 -19 -86 -92 -179 -76 -98 -76 -98 -145 -118 -67 -19 -70 -19 -140 -1 -142 36 -267 153 -300 281 -9 34 -25 81 -36 105 -17 39 -29 159 -15 159 2 0 28 -14 57 -31z"/>
</g>
</g>
</svg>
