<?xml version="1.0" encoding="UTF-8" standalone="no"?>
<!-- Created with Inkscape (http://www.inkscape.org/) -->

<svg
   xmlns:dc="http://purl.org/dc/elements/1.1/"
   xmlns:cc="http://creativecommons.org/ns#"
   xmlns:rdf="http://www.w3.org/1999/02/22-rdf-syntax-ns#"
   xmlns:svg="http://www.w3.org/2000/svg"
   xmlns="http://www.w3.org/2000/svg"
   xmlns:inkscape="http://www.inkscape.org/namespaces/inkscape"
   version="1.1"
   width="100%"
   height="100%"
   viewBox="0 0 320.84375 320.8125"
   id="svg29071"
   xml:space="preserve"
   style="fill-rule:evenodd;stroke-linecap:round;stroke-linejoin:round"><metadata
     id="metadata29092"><rdf:RDF><cc:Work
         rdf:about=""><dc:format>image/svg+xml</dc:format><dc:type
           rdf:resource="http://purl.org/dc/dcmitype/StillImage" /></cc:Work></rdf:RDF></metadata><defs
     id="defs29073"><clipPath
       id="clipId0"><path
         d="M 0,600 800,600 800,0 0,0 z"
         inkscape:connector-curvature="0"
         id="path29076" /></clipPath></defs><g
     transform="translate(-239.5,-134.84375)"
     clip-path="url(#clipId0)"
     id="g29078"
     style="fill:none;stroke:#000000;stroke-width:0.1" /><g
     transform="translate(-239.5,-134.84375)"
     clip-path="url(#clipId0)"
     id="g29080"
     style="fill:#00ffff;stroke:none"><path
       d="m 239.5,134.84375 0,320.8125 320.84375,0 0,-320.8125 -320.84375,0 z"
       inkscape:connector-curvature="0"
       id="path29084" /></g><g
     transform="translate(-239.5,-134.84375)"
     clip-path="url(#clipId0)"
     id="g29086"
     style="fill:#ffffff;stroke:none"><g
       transform="matrix(224.586,0,0,224.586,280.066,409.055)"
       id="text29088"
       style="font-size:1.39636004px;font-weight:bold;font-family:'Arial,\'sans-serif\''"><path
         d="m 0.75340715,0 c -0.074318,-0.1215906 -0.14863598,-0.24318119 -0.22295397,-0.36477179 -0.0786362,0 -0.15727232,0 -0.23590848,0 0,0.1215906 0,0.24318119 0,0.36477179 -0.0670453,0 -0.13409057,0 -0.20113585,0 0,-0.32022645 0,-0.64045289 0,-0.96067934 0.17274998,5.951e-4 0.34554181,-0.001227 0.51826404,9.7926e-4 0.10985187,0.004837 0.23452319,0.0434739 0.28887303,0.14738014 0.0609072,0.11864183 0.034275,0.28239824 -0.0772531,0.36198051 -0.0306547,0.0226013 -0.0663722,0.0378152 -0.10329468,0.0467042 C 0.8065888,-0.26909019 0.8931795,-0.13454509 0.9797702,0 0.90431585,0 0.8288615,0 0.75340715,0 z m -0.0238636,-0.66613465 c 0.003777,-0.055586 -0.0320644,-0.10980222 -0.0861863,-0.12509143 -0.0684346,-0.0211849 -0.14083382,-0.0108116 -0.21134028,-0.0133173 -0.0458241,0 -0.0916482,0 -0.13747231,0 0,0.0945452 0,0.18909042 0,0.28363563 0.0983593,-8.0719e-4 0.19682085,0.001707 0.2951089,-0.001438 0.064171,-0.002071 0.12915029,-0.0462004 0.13733247,-0.11310674 0.001767,-0.0101247 0.002558,-0.0204085 0.002558,-0.0306822 z"
         inkscape:connector-curvature="0"
         id="path2989"
         style="font-size:1.39636004px;font-weight:bold;font-family:'Arial,\'sans-serif\''" /></g></g></svg>