<?xml version="1.0" standalone="no"?>
<!DOCTYPE svg PUBLIC "-//W3C//DTD SVG 1.1//EN"
 "http://www.w3.org/Graphics/SVG/1.1/DTD/svg11.dtd">
<!-- Created with svg_stack (http://github.com/astraw/svg_stack) -->
<svg xmlns:sodipodi="http://sodipodi.sourceforge.net/DTD/sodipodi-0.dtd" xmlns="http://www.w3.org/2000/svg" version="1.1" width="1586.25" height="1587.5">
  <defs/>
  <g id="id0:id0" transform="matrix(1.25,0,0,1.25,0.0,0.0)"><g transform="translate(0.000000,1270.000000) scale(0.100000,-0.100000)" fill="#000000" stroke="none">
<path d="M0 6350 l0 -6350 6345 0 6345 0 0 6350 0 6350 -6345 0 -6345 0 0 -6350z m11640 0 l0 -5300 -5300 0 -5300 0 0 5300 0 5300 5300 0 5300 0 0 -5300z"/>
</g>
</g>
  <g id="id1:id1" transform="matrix(1.25,0,0,1.25,0.0,0.0)"><g transform="translate(0.000000,1270.000000) scale(0.100000,-0.100000)" fill="#ffffff" stroke="none">
<path d="M1040 6350 l0 -5300 5300 0 5300 0 0 5300 0 5300 -5300 0 -5300 0 0 -5300z"/>
</g>
</g>
</svg>
