<?xml version="1.0" encoding="UTF-8" standalone="no"?>
<!-- Created with Inkscape (http://www.inkscape.org/) -->

<svg
   xmlns:dc="http://purl.org/dc/elements/1.1/"
   xmlns:cc="http://creativecommons.org/ns#"
   xmlns:rdf="http://www.w3.org/1999/02/22-rdf-syntax-ns#"
   xmlns:svg="http://www.w3.org/2000/svg"
   xmlns="http://www.w3.org/2000/svg"
   xmlns:inkscape="http://www.inkscape.org/namespaces/inkscape"
   version="1.1"
   width="100%"
   height="100%"
   viewBox="0 0 392.27493 392.52887"
   id="svg66788"
   xml:space="preserve"
   style="fill-rule:evenodd;stroke-linecap:round;stroke-linejoin:round"><metadata
     id="metadata67281"><rdf:RDF><cc:Work
         rdf:about=""><dc:format>image/svg+xml</dc:format><dc:type
           rdf:resource="http://purl.org/dc/dcmitype/StillImage" /></cc:Work></rdf:RDF></metadata><defs
     id="defs66790"><clipPath
       id="clipId0"><path
         d="M 0,600 800,600 800,0 0,0 z"
         inkscape:connector-curvature="0"
         id="path66793" /></clipPath></defs><g
     transform="translate(-203.5995,-102.3125)"
     clip-path="url(#clipId0)"
     id="g66795"
     style="fill:none;stroke:#000000;stroke-width:0.1" /><g
     transform="translate(-203.5995,-102.3125)"
     clip-path="url(#clipId0)"
     id="g66797"
     style="fill:#ffffff;stroke:none"><path
       d="m 399.71875,123.34375 c -54.57531,-0.17098 -108.3166,26.74634 -140.63137,70.76561 -35.58911,47.24892 -44.52842,112.94133 -22.60112,167.91211 21.17466,55.96289 73.05879,98.7828 132.04822,108.88267 59.10315,11.27331 123.06929,-10.95893 162.48548,-56.41741 40.24104,-44.76014 54.33341,-110.98983 35.85859,-168.27421 -17.32976,-56.92536 -65.7484,-102.90627 -123.50194,-117.25275 -14.24534,-3.72487 -28.94636,-5.41793 -43.65786,-5.61602 z"
       inkscape:connector-curvature="0"
       id="path66953" /></g><g
     transform="translate(-203.5995,-102.3125)"
     clip-path="url(#clipId0)"
     id="g66955"
     style="fill:#000000;stroke:none"><path
       d="m 398.90625,102.3125 c -64.88125,-0.01 -128.59813,34.40278 -163.51187,89.18969 -37.3613,56.1049 -42.20461,131.82798 -12.36215,192.26472 28.55308,60.64566 90.27136,103.8671 157.02508,109.97838 66.98615,7.39131 136.44273,-23.06543 176.47477,-77.27289 40.74155,-53.23355 50.82004,-127.88981 25.63461,-190.02041 -24.09398,-62.53621 -82.47192,-110.11518 -148.58448,-121.1095 -11.41782,-2.16871 -23.18286,-2.70359 -34.67596,-3.02999 z m 0.8125,42.0625 c 56.0619,-0.35642 110.6859,32.44229 136.36549,82.33604 28.23878,52.23455 22.22217,120.57929 -15.05555,166.86512 -35.37751,46.35268 -98.51743,68.7764 -155.23389,55.33905 -58.06561,-12.419 -106.10021,-61.40939 -117.08854,-119.79931 -12.38452,-57.38296 12.02776,-120.35947 59.61626,-154.66582 26.28753,-19.40165 58.74409,-29.95654 91.39623,-30.07508 z"
       inkscape:connector-curvature="0"
       id="path67115" /></g><g
     transform="translate(-203.5995,-102.3125)"
     clip-path="url(#clipId0)"
     id="g67117"
     style="fill:none;stroke:#000000;stroke-width:0.25"><polyline
       points="399.725,123.336 399.725,123.336 "
       id="polyline67119" /></g><g
     transform="translate(-203.5995,-102.3125)"
     clip-path="url(#clipId0)"
     id="g67121"
     style="fill:#000000;stroke:none"><path
       d="m 399.71875,240.15625 c -18.29061,-0.0351 -36.3061,9.03292 -47.05766,23.84857 -11.65172,15.63988 -14.57474,37.24417 -7.47392,55.40974 6.84862,18.38075 23.60074,32.58719 42.8502,36.35186 20.04896,4.33201 42.03439,-3.07039 55.46342,-18.55852 13.16683,-14.6809 17.96515,-36.26278 12.21881,-55.13146 -5.51651,-19.39632 -21.85884,-35.18892 -41.4352,-40.0372 -4.74924,-1.26711 -9.65787,-1.79568 -14.56565,-1.88299 z"
       inkscape:connector-curvature="0"
       id="path67277" /></g></svg>