<?xml version="1.0" encoding="UTF-8" standalone="no"?>
<svg
   xmlns:dc="http://purl.org/dc/elements/1.1/"
   xmlns:cc="http://creativecommons.org/ns#"
   xmlns:rdf="http://www.w3.org/1999/02/22-rdf-syntax-ns#"
   xmlns:svg="http://www.w3.org/2000/svg"
   xmlns="http://www.w3.org/2000/svg"
   xmlns:sodipodi="http://sodipodi.sourceforge.net/DTD/sodipodi-0.dtd"
   xmlns:inkscape="http://www.inkscape.org/namespaces/inkscape"
   viewBox="0 0 362.53125 345.4375"
   version="1.1"
   xml:space="preserve"
   id="svg40873"
   inkscape:version="0.48.3.1 r9886"
   width="100%"
   height="100%"
   sodipodi:docname="alkis3601.svg"
   style="fill-rule:evenodd;stroke-linecap:round;stroke-linejoin:round"><metadata
   id="metadata41024"><rdf:RDF><cc:Work
       rdf:about=""><dc:format>image/svg+xml</dc:format><dc:type
         rdf:resource="http://purl.org/dc/dcmitype/StillImage" /></cc:Work></rdf:RDF></metadata><sodipodi:namedview
   pagecolor="#ffffff"
   bordercolor="#666666"
   borderopacity="1"
   objecttolerance="10"
   gridtolerance="10"
   guidetolerance="10"
   inkscape:pageopacity="0"
   inkscape:pageshadow="2"
   inkscape:window-width="640"
   inkscape:window-height="480"
   id="namedview41022"
   showgrid="false"
   inkscape:zoom="0.39333333"
   inkscape:cx="181.5"
   inkscape:cy="170.4375"
   inkscape:window-x="0"
   inkscape:window-y="33"
   inkscape:window-maximized="0"
   inkscape:current-layer="svg40873" />
<defs
   id="defs40875">
<clipPath
   id="clipId0">
<path
   d="M 0,600 800,600 800,0 0,0 z"
   id="path40878"
   inkscape:connector-curvature="0" />
</clipPath>
</defs>
<g
   clip-path="url(#clipId0)"
   id="g40880"
   style="fill:none;stroke:#000000;stroke-width:0.1"
   transform="translate(-218.5,-125)" />
<g
   clip-path="url(#clipId0)"
   id="g40882"
   style="fill:#00ff00;stroke:none"
   transform="translate(-218.5,-125)">




































































<path
   d="m 392.65625,125 -14.1875,1.125 -14.09375,2.21875 -13.84375,3.34375 L 337,136.0625 323.84375,141.53125 311.125,148 299,155.4375 l -11.53125,8.375 -10.84375,9.25 -10.0625,10.0625 -9.25,10.84375 -8.375,11.53125 -7.4375,12.125 -6.46875,12.6875 -5.4375,13.15625 -4.40625,13.5625 -3.3125,13.84375 -2.25,14.0625 -1.125,14.21875 0,14.21875 1.125,14.21875 2.25,14.0625 3.3125,13.84375 4.40625,13.5625 5.4375,13.15625 6.46875,12.6875 7.4375,12.15625 8.375,11.5 9.25,10.84375 10.0625,10.0625 10.84375,9.25 11.53125,8.375 12.125,7.4375 11.625,5.90625 28.375,-55.71875 -9.40625,-4.78125 -7.9375,-4.875 -7.5625,-5.5 -7.09375,-6.0625 -6.59375,-6.59375 -6.0625,-7.09375 L 301,372.28125 296.125,364.3125 291.875,356 l -3.5625,-8.625 -2.875,-8.84375 -2.1875,-9.09375 -1.46875,-9.21875 -0.71875,-9.28125 0,-9.34375 0.71875,-9.28125 1.46875,-9.21875 2.1875,-9.0625 2.875,-8.875 3.5625,-8.625 4.25,-8.3125 4.875,-7.96875 5.46875,-7.53125 6.0625,-7.09375 6.59375,-6.59375 7.09375,-6.0625 7.5625,-5.5 7.9375,-4.875 8.3125,-4.21875 8.625,-3.5625 8.875,-2.90625 9.0625,-2.15625 9.21875,-1.46875 9.3125,-0.71875 9.3125,0 9.3125,0.71875 9.21875,1.46875 9.0625,2.15625 8.875,2.90625 8.625,3.5625 8.3125,4.21875 7.9375,4.875 7.5625,5.5 7.09375,6.0625 6.59375,6.59375 6.0625,7.09375 5.46875,7.53125 4.875,7.96875 4.25,8.3125 3.5625,8.625 2.875,8.875 2.1875,9.0625 1.4375,9.21875 0.75,9.28125 0,9.34375 -0.75,9.28125 -1.4375,9.21875 -2.1875,9.09375 -2.875,8.84375 -3.5625,8.625 -4.25,8.3125 -4.875,7.96875 -5.46875,7.53125 -6.0625,7.09375 -6.59375,6.59375 -7.09375,6.0625 -7.5625,5.5 -7.9375,4.875 -9.40625,4.78125 28.375,55.71875 11.59375,-5.90625 12.15625,-7.4375 11.53125,-8.375 10.8125,-9.25 10.0625,-10.0625 9.25,-10.84375 8.375,-11.5 7.46875,-12.15625 6.4375,-12.6875 5.46875,-13.15625 4.40625,-13.5625 3.3125,-13.84375 2.21875,-14.0625 1.125,-14.21875 0,-14.21875 -1.125,-14.21875 -2.21875,-14.0625 -3.3125,-13.84375 -4.40625,-13.5625 L 564.5,230.3125 558.0625,217.625 550.59375,205.5 l -8.375,-11.53125 -9.25,-10.84375 -10.0625,-10.0625 -10.8125,-9.25 -11.53125,-8.375 -12.15625,-7.4375 -12.6875,-6.46875 -13.15625,-5.46875 -13.53125,-4.375 -13.875,-3.34375 -14.0625,-2.21875 -14.1875,-1.125 -14.25,0 z"
   id="path41020"
   inkscape:connector-curvature="0" />
</g>
</svg>