<?xml version="1.0" standalone="no"?>
<!DOCTYPE svg PUBLIC "-//W3C//DTD SVG 1.1//EN"
 "http://www.w3.org/Graphics/SVG/1.1/DTD/svg11.dtd">
<!-- Created with svg_stack (http://github.com/astraw/svg_stack) -->
<svg xmlns:sodipodi="http://sodipodi.sourceforge.net/DTD/sodipodi-0.dtd" xmlns="http://www.w3.org/2000/svg" version="1.1" width="1458.75" height="1458.75">
  <defs/>
  <g id="id0:id0" transform="matrix(1.25,0,0,1.25,0.0,0.0)"><g transform="translate(0.000000,1167.000000) scale(0.100000,-0.100000)" fill="#00ffff" stroke="none">
<path d="M0 5835 l0 -5835 5835 0 5835 0 0 5835 0 5835 -5835 0 -5835 0 0 -5835z m6253 4075 c276 -12 439 -26 587 -50 63 -10 144 -22 180 -25 236 -25 567 -131 775 -248 234 -132 350 -232 572 -492 136 -160 316 -509 387 -752 35 -121 84 -431 92 -588 7 -138 -7 -369 -32 -545 -49 -345 -178 -654 -399 -956 -78 -106 -125 -158 -210 -233 -149 -132 -240 -203 -338 -264 -124 -77 -409 -211 -523 -246 -195 -60 -460 -124 -556 -135 l-96 -11 123 -77 c430 -271 727 -537 996 -894 157 -207 388 -547 571 -843 105 -168 399 -637 653 -1041 254 -404 465 -741 469 -747 6 -10 -192 -13 -976 -13 l-984 0 -621 928 c-1253 1868 -1388 2050 -1678 2259 -238 172 -493 223 -1110 223 l-315 0 0 -1705 0 -1705 -825 0 -825 0 0 4085 0 4085 1931 0 c1113 0 2024 -4 2152 -10z"/>
<path d="M3820 7500 l0 -1040 538 0 c836 1 1603 22 1862 51 162 18 283 47 374 89 294 135 482 390 541 735 24 143 16 305 -27 495 -74 337 -320 564 -718 665 -85 21 -130 25 -442 34 -190 6 -747 11 -1237 11 l-891 0 0 -1040z"/>
</g>
</g>
  <g id="id1:id1" transform="matrix(1.25,0,0,1.25,0.0,0.0)"><g transform="translate(0.000000,1167.000000) scale(0.100000,-0.100000)" fill="#ffffff" stroke="none">
<path d="M2170 5835 l0 -4085 825 0 825 0 0 1705 0 1705 315 0 c617 0 872 -51 1110 -223 184 -132 333 -301 616 -697 208 -292 340 -486 1062 -1562 l621 -928 984 0 c784 0 982 3 976 13 -4 6 -215 343 -469 747 -254 404 -548 873 -653 1041 -183 296 -414 636 -571 843 -269 357 -566 623 -996 894 l-123 77 96 11 c96 11 361 75 556 135 114 35 399 169 523 246 98 61 189 132 338 264 252 222 477 610 570 984 50 204 82 535 71 750 -8 157 -57 467 -92 588 -71 243 -251 592 -387 752 -222 260 -338 360 -572 492 -208 117 -539 223 -775 248 -36 3 -117 15 -180 25 -338 55 -583 60 -2739 60 l-1931 0 0 -4085z m3778 2694 c312 -9 357 -13 442 -34 398 -101 644 -328 718 -665 43 -190 51 -352 27 -495 -59 -345 -247 -600 -541 -735 -91 -42 -212 -71 -374 -89 -259 -29 -1026 -50 -1862 -51 l-538 0 0 1040 0 1040 891 0 c490 0 1047 -5 1237 -11z"/>
</g>
</g>
</svg>
