<?xml version="1.0" standalone="no"?>
<!DOCTYPE svg PUBLIC "-//W3C//DTD SVG 1.1//EN"
 "http://www.w3.org/Graphics/SVG/1.1/DTD/svg11.dtd">
<!-- Created with svg_stack (http://github.com/astraw/svg_stack) -->
<svg xmlns:sodipodi="http://sodipodi.sourceforge.net/DTD/sodipodi-0.dtd" xmlns="http://www.w3.org/2000/svg" version="1.1" width="1292.5" height="1585.0">
  <defs/>
  <g id="id0:id0" transform="matrix(1.25,0,0,1.25,0.0,0.0)"><g transform="translate(0.000000,1268.000000) scale(0.100000,-0.100000)" fill="#00ff00" stroke="none">
<path d="M6826 12643 c-11 -69 -1536 -12496 -1533 -12498 10 -6 1178 -147 1183 -143 3 4 262 2094 574 4645 313 2551 573 4655 577 4675 8 36 10 34 863 -1217 470 -690 858 -1255 861 -1255 13 0 984 662 982 671 -2 6 -3485 5142 -3498 5157 -2 2 -6 -14 -9 -35z"/>
<path d="M1717 8077 l-1718 -1712 425 -425 426 -425 839 839 839 839 7 -44 c3 -24 185 -1639 405 -3587 219 -1949 401 -3546 404 -3550 5 -4 1175 117 1183 123 4 2 -1076 9575 -1084 9617 l-8 36 -1718 -1711z"/>
</g>
</g>
  <g id="id1:id1" transform="matrix(1.25,0,0,1.25,0.0,0.0)"><g transform="translate(0.000000,1268.000000) scale(0.100000,-0.100000)" fill="#ffffff" stroke="none">
</g>
</g>
</svg>
