<?xml version="1.0" standalone="no"?>
<!DOCTYPE svg PUBLIC "-//W3C//DTD SVG 1.1//EN"
 "http://www.w3.org/Graphics/SVG/1.1/DTD/svg11.dtd">
<!-- Created with svg_stack (http://github.com/astraw/svg_stack) -->
<svg xmlns:sodipodi="http://sodipodi.sourceforge.net/DTD/sodipodi-0.dtd" xmlns="http://www.w3.org/2000/svg" version="1.1" width="1083.75" height="1595.0">
  <defs/>
  <g id="id0:id0" transform="matrix(1.25,0,0,1.25,0.0,0.0)"><g transform="translate(0.000000,1276.000000) scale(0.100000,-0.100000)" fill="#000000" stroke="none">
<path d="M3110 12485 l0 -275 475 0 475 0 -2 -1302 -3 -1303 -1205 -618 c-663 -340 -1368 -701 -1567 -803 l-362 -184 -213 420 c-117 231 -217 420 -223 420 -5 -1 -117 -56 -247 -123 l-237 -123 549 -1074 c302 -591 551 -1079 554 -1085 2 -5 114 46 249 115 l246 125 -212 417 c-117 229 -210 418 -207 420 3 3 579 299 1280 658 701 359 1348 691 1438 737 l162 85 -2 -2703 -3 -2703 -40 -9 c-192 -42 -380 -111 -550 -202 -478 -256 -827 -751 -904 -1283 -37 -252 -21 -563 39 -777 92 -329 319 -677 579 -887 151 -122 200 -157 291 -206 192 -104 390 -167 655 -208 117 -18 300 -18 423 1 382 57 633 164 911 387 203 163 350 343 476 580 98 187 142 323 176 543 68 449 -26 892 -269 1261 -119 181 -303 372 -475 492 -157 110 -430 232 -622 278 -60 14 -116 28 -122 30 -10 3 -13 552 -13 2705 l0 2701 163 -85 c89 -46 736 -378 1437 -737 701 -359 1277 -655 1280 -658 3 -2 -90 -191 -207 -420 l-212 -417 246 -125 c135 -69 247 -120 249 -115 3 6 252 494 554 1085 l549 1074 -237 123 c-130 67 -241 122 -247 123 -5 0 -106 -189 -223 -420 l-213 -420 -362 184 c-199 102 -904 463 -1567 803 l-1205 618 -3 1303 -2 1302 475 0 475 0 0 275 0 275 -1225 0 -1225 0 0 -275z m1470 -9453 c70 -10 136 -34 300 -107 235 -105 451 -318 578 -571 47 -93 101 -286 118 -420 14 -109 14 -135 1 -250 -35 -294 -170 -592 -343 -753 -86 -81 -233 -190 -314 -234 -77 -42 -267 -109 -365 -128 -88 -17 -358 -17 -440 0 -93 19 -242 70 -332 112 -99 47 -264 168 -358 263 -175 176 -298 450 -332 740 -13 115 -13 141 1 250 47 366 221 670 505 880 89 66 336 184 431 205 132 30 387 36 550 13z"/>
</g>
</g>
  <g id="id1:id1" transform="matrix(1.25,0,0,1.25,0.0,0.0)"><g transform="translate(0.000000,1276.000000) scale(0.100000,-0.100000)" fill="#ffffff" stroke="none">
</g>
</g>
</svg>
