<?xml version="1.0" encoding="UTF-8" standalone="no"?>
<!-- Created with Inkscape (http://www.inkscape.org/) -->

<svg
   xmlns:dc="http://purl.org/dc/elements/1.1/"
   xmlns:cc="http://creativecommons.org/ns#"
   xmlns:rdf="http://www.w3.org/1999/02/22-rdf-syntax-ns#"
   xmlns:svg="http://www.w3.org/2000/svg"
   xmlns="http://www.w3.org/2000/svg"
   xmlns:inkscape="http://www.inkscape.org/namespaces/inkscape"
   version="1.1"
   width="100%"
   height="100%"
   viewBox="0 0 348.0625 349.65625"
   id="svg3716"
   xml:space="preserve"
   style="fill-rule:evenodd;stroke-linecap:round;stroke-linejoin:round"><metadata
     id="metadata3745"><rdf:RDF><cc:Work
         rdf:about=""><dc:format>image/svg+xml</dc:format><dc:type
           rdf:resource="http://purl.org/dc/dcmitype/StillImage" /></cc:Work></rdf:RDF></metadata><defs
     id="defs3718"><clipPath
       id="clipId0"><path
         d="M 0,600 800,600 800,0 0,0 z"
         inkscape:connector-curvature="0"
         id="path3721" /></clipPath></defs><g
     transform="translate(-227.125,-125.03125)"
     clip-path="url(#clipId0)"
     id="g3723"
     style="fill:none;stroke:#000000;stroke-width:0.1" /><g
     transform="translate(-227.125,-125.03125)"
     clip-path="url(#clipId0)"
     id="g3725"
     style="fill:#000000;stroke:none"><path
       d="m 310.09375,125.03125 -82.96875,47.90625 82.96875,47.875 0,-33.5 76.6875,0 0,98.96875 -159.65625,0 0,174.03125 0.39195,13.98305 13.98305,0.39195 333.6875,0 0,-188.40625 -159.65625,0 0,-98.96875 76.6875,0 0,33.5 82.96875,-47.875 -82.96875,-47.90625 0,33.53125 -182.125,0 z m -54.21875,190 290.5625,0 0,130.90625 -290.5625,0 z"
       inkscape:connector-curvature="0"
       id="path3741"
       style="fill-rule:nonzero" /></g></svg>