<?xml version="1.0" encoding="UTF-8" standalone="no"?>
<!-- Created with Inkscape (http://www.inkscape.org/) -->

<svg
   xmlns:dc="http://purl.org/dc/elements/1.1/"
   xmlns:cc="http://creativecommons.org/ns#"
   xmlns:rdf="http://www.w3.org/1999/02/22-rdf-syntax-ns#"
   xmlns:svg="http://www.w3.org/2000/svg"
   xmlns="http://www.w3.org/2000/svg"
   xmlns:inkscape="http://www.inkscape.org/namespaces/inkscape"
   version="1.1"
   width="100%"
   height="100%"
   viewBox="0 0 238.28125 350.65049"
   id="svg2"
   xml:space="preserve"
   style="fill-rule:evenodd;stroke-linecap:round;stroke-linejoin:round"><metadata
     id="metadata193"><rdf:RDF><cc:Work
         rdf:about=""><dc:format>image/svg+xml</dc:format><dc:type
           rdf:resource="http://purl.org/dc/dcmitype/StillImage" /></cc:Work></rdf:RDF></metadata><defs
     id="defs4"><clipPath
       id="clipId0"><path
         d="M 0,600 800,600 800,0 0,0 z"
         inkscape:connector-curvature="0"
         id="path7" /></clipPath></defs><g
     transform="translate(-281.25,-124.375)"
     clip-path="url(#clipId0)"
     id="g9"
     style="fill:none;stroke:#000000;stroke-width:0.1" /><path
     d="m 85.59375,0 0,15.09375 26,0 0,71.71875 -86.3125,44 L 13.46875,107.625 0,114.46875 30.5,174.28125 43.9375,167.4375 32.125,144.25 l 79.46875,-40.5 0,148.53125 c -13.87679,2.16789 -26.7443,10.42174 -34.21875,22.375 -9.81387,15.11181 -10.24707,35.6656 -1.09375,51.1875 8.81768,15.72744 26.84113,25.65206 44.84375,24.75 17.91198,-0.5403 35.01046,-11.67913 42.59375,-27.9375 7.74364,-15.65961 6.19337,-35.39909 -3.90625,-49.65625 -7.56704,-11.08724 -19.8744,-18.65374 -33.09375,-20.71875 l 0,-148.53125 79.46875,40.5 -11.8125,23.1875 13.4375,6.84375 30.46875,-59.8125 -13.4375,-6.84375 -11.8125,23.1875 -86.3125,-44 0,-71.71875 26,0 0,-15.09375 -67.125,0 z m 33.5625,266.78125 c 12.22173,-0.0426 24.16634,6.88114 30,17.65625 6.88925,11.93563 5.48305,27.96081 -3.40625,38.5 -8.95153,11.28345 -25.39813,15.71357 -38.78125,10.34375 -12.87715,-4.65315 -22.05787,-17.69751 -22.1875,-31.375 -0.45146,-13.66833 8.13544,-27.07629 20.78125,-32.3125 4.27949,-1.85883 8.93779,-2.73392 13.59375,-2.8125 z"
     inkscape:connector-curvature="0"
     id="path13"
     style="fill:#000000;stroke:none" /><g
     transform="translate(-281.25,-124.375)"
     clip-path="url(#clipId0)"
     id="g173"
     style="fill:none;stroke:#000000;stroke-width:0.25"><polyline
       points="400.405,383.604 400.405,383.604 "
       id="polyline175" /></g><g
     transform="translate(-281.25,-124.375)"
     clip-path="url(#clipId0)"
     id="g177"
     style="fill:#000000;stroke:none" /></svg>