<?xml version="1.0" encoding="UTF-8" standalone="no"?>
<svg
   xmlns:dc="http://purl.org/dc/elements/1.1/"
   xmlns:cc="http://creativecommons.org/ns#"
   xmlns:rdf="http://www.w3.org/1999/02/22-rdf-syntax-ns#"
   xmlns:svg="http://www.w3.org/2000/svg"
   xmlns="http://www.w3.org/2000/svg"
   xmlns:sodipodi="http://sodipodi.sourceforge.net/DTD/sodipodi-0.dtd"
   xmlns:inkscape="http://www.inkscape.org/namespaces/inkscape"
   viewBox="0 0 436.35869 352.09594"
   version="1.1"
   xml:space="preserve"
   id="svg29937"
   inkscape:version="0.48.3.1 r9886"
   width="100%"
   height="100%"
   sodipodi:docname="alkis3441.svg"
   style="fill-rule:evenodd;stroke-linecap:round;stroke-linejoin:round"><metadata
   id="metadata30430"><rdf:RDF><cc:Work
       rdf:about=""><dc:format>image/svg+xml</dc:format><dc:type
         rdf:resource="http://purl.org/dc/dcmitype/StillImage" /></cc:Work></rdf:RDF></metadata><sodipodi:namedview
   pagecolor="#ffffff"
   bordercolor="#666666"
   borderopacity="1"
   objecttolerance="10"
   gridtolerance="10"
   guidetolerance="10"
   inkscape:pageopacity="0"
   inkscape:pageshadow="2"
   inkscape:window-width="1855"
   inkscape:window-height="1025"
   id="namedview30428"
   showgrid="false"
   showguides="true"
   inkscape:guide-bbox="true"
   inkscape:zoom="0.78666667"
   inkscape:cx="46.066936"
   inkscape:cy="307.68156"
   inkscape:window-x="0"
   inkscape:window-y="33"
   inkscape:window-maximized="1"
   inkscape:current-layer="svg29937" />
<defs
   id="defs29939">
<clipPath
   id="clipId0">
<path
   d="M 0,600 800,600 800,0 0,0 z"
   id="path29942"
   inkscape:connector-curvature="0" />
</clipPath>

















































































































































































































































</defs>
<g
   clip-path="url(#clipId0)"
   id="g29944"
   style="fill:none;stroke:#000000;stroke-width:0.1"
   transform="translate(-182.09572,-123.90401)" />

<path
   style="fill:#00ff00;fill-opacity:1;stroke:none"
   d="M 98.404283,0.00224169 C 54.456993,-0.31050831 13.128893,32.137422 3.0940627,74.943202 -8.5021373,117.99297 13.429843,166.88531 53.281433,186.87311 c 9.71109,5.11217 20.29343,8.47457 31.12285,10.19158 0,51.67708 0,103.35417 0,155.03125 9.84375,0 19.687497,0 29.531247,0 0,-51.67708 0,-103.35417 0,-155.03125 43.67047,-5.89936 80.11767,-44.09763 83.77889,-88.03801 C 203.0412,64.366862 173.64328,18.810802 130.77899,5.2034517 120.35946,1.6699417 109.39937,-0.00263831 98.404283,0.00224169 z m 0.75,29.53125031 c 34.824087,-0.72228 66.784277,28.3517 69.256267,63.10998 4.04663,34.947348 -22.59803,69.766898 -57.40619,74.952358 -34.509527,6.78882 -71.274997,-17.05586 -79.200747,-51.31521 -9.72589,-34.596938 12.36054,-73.937028 46.96028,-83.648978 6.58861,-2.0963 13.49072,-2.99818 20.39039,-3.09815 z M 238.31053,293.06474 c -19.7271,-0.78251 -35.24503,21.43733 -27.672,39.67628 6.15202,19.27386 33.42331,25.86813 47.68242,11.49921 15.45474,-13.0434 11.09076,-40.7573 -7.61618,-48.44014 -3.85104,-1.83467 -8.13563,-2.71435 -12.39424,-2.73535 z m 168.6875,0 c -19.74279,-0.79824 -35.26501,21.42047 -27.70325,39.67628 6.05642,18.8356 32.34415,25.71134 46.8595,12.26117 15.91592,-12.48696 12.62679,-40.30955 -5.78125,-48.71875 -4.1078,-2.14149 -8.75109,-3.1981 -13.375,-3.2187 z"
   id="polyline30110"
   inkscape:connector-curvature="0" />

</svg>