<?xml version="1.0" standalone="no"?>
<!DOCTYPE svg PUBLIC "-//W3C//DTD SVG 1.1//EN"
 "http://www.w3.org/Graphics/SVG/1.1/DTD/svg11.dtd">
<!-- Created with svg_stack (http://github.com/astraw/svg_stack) -->
<svg xmlns:sodipodi="http://sodipodi.sourceforge.net/DTD/sodipodi-0.dtd" xmlns="http://www.w3.org/2000/svg" version="1.1" width="1756.25" height="1597.5">
  <defs/>
  <g id="id0:id0" transform="matrix(1.25,0,0,1.25,0.0,0.0)"><g transform="translate(0.000000,1278.000000) scale(0.100000,-0.100000)" fill="#000000" stroke="none">
<path d="M3498 11821 l-3498 -956 0 -382 0 -383 1280 0 1280 0 0 -3770 0 -3770 -640 0 -640 0 0 -640 0 -640 -640 0 -640 0 0 -640 0 -640 7025 0 7025 0 0 640 0 640 -640 0 -640 0 0 640 0 640 -635 0 -635 0 0 3770 0 3770 1275 0 1275 0 0 383 0 382 -3502 958 c-1927 526 -3514 957 -3528 956 -14 -1 -1599 -432 -3522 -958z m2892 -5491 l0 -3770 -1280 0 -1280 0 0 3770 0 3770 1280 0 1280 0 0 -3770z m3830 0 l0 -3770 -1275 0 -1275 0 0 3770 0 3770 1275 0 1275 0 0 -3770z"/>
</g>
</g>
  <g id="id1:id1" transform="matrix(1.25,0,0,1.25,0.0,0.0)"><g transform="translate(0.000000,1278.000000) scale(0.100000,-0.100000)" fill="#ffffff" stroke="none">
</g>
</g>
</svg>
