<?xml version="1.0" standalone="no"?>
<!DOCTYPE svg PUBLIC "-//W3C//DTD SVG 1.1//EN"
 "http://www.w3.org/Graphics/SVG/1.1/DTD/svg11.dtd">
<!-- Created with svg_stack (http://github.com/astraw/svg_stack) -->
<svg xmlns:sodipodi="http://sodipodi.sourceforge.net/DTD/sodipodi-0.dtd" xmlns="http://www.w3.org/2000/svg" version="1.1" width="1596.25" height="1597.5">
  <defs/>
  <g id="id0:id0" transform="matrix(1.25,0,0,1.25,0.0,0.0)"><g transform="translate(0.000000,1278.000000) scale(0.100000,-0.100000)" fill="#ffffff" stroke="none">
<path d="M0 6390 l0 -6390 6385 0 6385 0 0 6390 0 6390 -6385 0 -6385 0 0 -6390z m6648 5600 c245 -42 382 -97 590 -237 161 -108 255 -199 383 -372 127 -170 181 -289 256 -556 27 -97 28 -107 28 -340 -1 -237 -1 -242 -32 -360 -60 -226 -115 -343 -254 -541 -112 -159 -204 -248 -379 -366 -175 -117 -284 -167 -490 -221 l-155 -41 -215 0 -215 0 -135 36 c-506 137 -828 409 -1054 892 -112 237 -154 569 -107 841 28 160 47 227 101 347 77 174 158 301 275 430 202 225 387 349 656 438 213 70 514 91 747 50z m752 -6530 l0 -2900 770 0 770 0 0 -640 0 -640 -2555 0 -2555 0 0 640 0 640 765 0 765 0 0 1915 0 1915 -765 0 -765 0 0 675 0 675 283 0 c424 0 1055 42 1367 90 305 48 447 86 725 196 311 122 482 203 590 277 l80 56 263 0 262 1 0 -2900z"/>
</g>
</g>
  <g id="id1:id1" transform="matrix(1.25,0,0,1.25,0.0,0.0)"><g transform="translate(0.000000,1278.000000) scale(0.100000,-0.100000)" fill="#ff0000" stroke="none">
<path d="M6100 11989 c-251 -44 -495 -157 -687 -318 -106 -88 -268 -276 -335 -389 -231 -391 -283 -757 -172 -1217 37 -150 184 -422 314 -577 203 -243 463 -402 810 -496 l135 -36 215 0 215 0 155 41 c206 54 315 104 490 221 175 118 267 207 379 366 139 198 194 315 254 541 31 118 31 123 32 360 0 262 -1 269 -82 520 -56 175 -191 387 -361 566 -148 157 -426 324 -628 380 -224 61 -517 77 -734 38z"/>
<path d="M6795 8303 c-108 -74 -279 -155 -590 -277 -278 -110 -420 -148 -725 -196 -312 -48 -943 -90 -1367 -90 l-283 0 0 -675 0 -675 765 0 765 0 0 -1915 0 -1915 -765 0 -765 0 0 -640 0 -640 2555 0 2555 0 0 640 0 640 -770 0 -770 0 0 2900 0 2900 -262 -1 -263 0 -80 -56z"/>
</g>
</g>
</svg>
