<?xml version="1.0" encoding="UTF-8" standalone="no"?>
<!-- Created with Inkscape (http://www.inkscape.org/) -->

<svg
   xmlns:dc="http://purl.org/dc/elements/1.1/"
   xmlns:cc="http://creativecommons.org/ns#"
   xmlns:rdf="http://www.w3.org/1999/02/22-rdf-syntax-ns#"
   xmlns:svg="http://www.w3.org/2000/svg"
   xmlns="http://www.w3.org/2000/svg"
   xmlns:inkscape="http://www.inkscape.org/namespaces/inkscape"
   version="1.1"
   width="100%"
   height="100%"
   viewBox="0 0 751.6483 270.593"
   id="svg2"
   xml:space="preserve"
   style="fill-rule:evenodd;stroke-linecap:round;stroke-linejoin:round"><metadata
     id="metadata33"><rdf:RDF><cc:Work
         rdf:about=""><dc:format>image/svg+xml</dc:format><dc:type
           rdf:resource="http://purl.org/dc/dcmitype/StillImage" /></cc:Work></rdf:RDF></metadata><defs
     id="defs4"><clipPath
       id="clipId0"><path
         d="M 0,600 800,600 800,0 0,0 z"
         inkscape:connector-curvature="0"
         id="path7" /></clipPath></defs><g
     transform="translate(-23.5617,-165.188)"
     clip-path="url(#clipId0)"
     id="g9"
     style="fill:none;stroke:#000000;stroke-width:0.1" /><g
     transform="translate(-23.5617,-165.188)"
     clip-path="url(#clipId0)"
     id="g11"
     style="fill:#510000;stroke:none"><path
       d="m 38.5947,195.254 0,-30.066 435.9563,0 -30.066,30.066 z"
       inkscape:connector-curvature="0"
       id="path13" /><path
       d="m 444.485,195.254 30.066,-30.066 0,150.329 -30.066,-30.065 z"
       inkscape:connector-curvature="0"
       id="path15" /><path
       d="m 444.485,285.452 30.066,30.065 -450.9893,0 30.066,-30.065 z"
       inkscape:connector-curvature="0"
       id="path17" /><path
       d="m 53.6277,285.452 -30.066,30.065 0,-150.329 30.066,30.066 z"
       inkscape:connector-curvature="0"
       id="path19" /><path
       d="m 53.6277,195.254 -30.066,-30.066 435.9563,0 0,30.066 z"
       inkscape:connector-curvature="0"
       id="path21" /><path
       d="m 339.254,315.517 0,-30.065 435.956,0 -30.066,30.065 z"
       inkscape:connector-curvature="0"
       id="path23" /><path
       d="m 745.144,315.517 30.066,-30.065 0,150.329 -30.066,-30.066 z"
       inkscape:connector-curvature="0"
       id="path25" /><path
       d="m 745.144,405.715 30.066,30.066 -450.989,0 30.066,-30.066 z"
       inkscape:connector-curvature="0"
       id="path27" /><path
       d="m 354.287,405.715 -30.066,30.066 0,-135.297 30.066,0 z"
       inkscape:connector-curvature="0"
       id="path29" /></g></svg>