<?xml version="1.0" standalone="no"?>
<!DOCTYPE svg PUBLIC "-//W3C//DTD SVG 1.1//EN"
 "http://www.w3.org/Graphics/SVG/1.1/DTD/svg11.dtd">
<!-- Created with svg_stack (http://github.com/astraw/svg_stack) -->
<svg xmlns:sodipodi="http://sodipodi.sourceforge.net/DTD/sodipodi-0.dtd" xmlns="http://www.w3.org/2000/svg" version="1.1" width="1596.25" height="1597.5">
  <defs/>
  <g id="id0:id0" transform="matrix(1.25,0,0,1.25,0.0,0.0)"><g transform="translate(0.000000,1278.000000) scale(0.100000,-0.100000)" fill="#000000" stroke="none">
<path d="M9815 9023 c-92 -6 -365 -54 -448 -78 -528 -153 -928 -445 -1255 -915 -45 -65 -195 -374 -233 -483 -40 -112 -129 -453 -148 -567 -26 -159 -43 -496 -38 -750 4 -223 8 -279 36 -450 49 -303 106 -495 219 -738 280 -601 788 -1040 1399 -1207 161 -45 267 -61 518 -79 173 -13 223 -13 375 -1 199 16 214 19 442 75 315 77 628 243 836 444 101 97 237 265 294 361 75 127 178 324 213 405 32 76 119 350 113 355 -10 8 -990 316 -994 312 -3 -2 -18 -51 -34 -108 -72 -250 -207 -513 -333 -648 -104 -110 -257 -208 -407 -259 -153 -52 -251 -66 -398 -58 -272 16 -463 74 -643 197 -138 93 -294 279 -373 444 -132 273 -206 669 -206 1092 0 140 25 509 41 608 28 177 101 417 167 550 39 79 163 235 255 321 90 84 249 186 359 230 140 56 480 90 634 64 169 -29 354 -98 464 -173 192 -130 326 -317 407 -570 15 -45 30 -86 34 -91 5 -5 224 42 513 110 l505 118 -6 26 c-13 57 -134 362 -178 450 -26 52 -66 122 -90 155 -23 33 -55 82 -71 110 -40 69 -273 300 -364 361 -313 210 -568 310 -940 369 -136 22 -183 25 -385 23 -126 -1 -252 -3 -280 -5z"/>
<path d="M634 8923 c3 -10 273 -1139 600 -2510 328 -1370 600 -2512 607 -2537 l11 -46 559 0 558 0 9 33 c5 17 233 875 508 1904 274 1030 501 1873 504 1873 3 0 230 -843 504 -1873 275 -1029 503 -1887 508 -1905 l9 -32 543 0 544 0 12 47 c6 27 284 1169 616 2538 332 1370 607 2498 610 2508 5 16 -24 17 -515 17 -486 0 -520 -1 -525 -17 -3 -10 -177 -803 -386 -1763 -209 -960 -383 -1752 -386 -1760 -4 -8 -208 784 -454 1760 l-447 1775 -613 0 -613 0 -466 -1742 c-256 -958 -469 -1739 -472 -1735 -4 4 -174 772 -378 1707 -205 935 -377 1717 -382 1738 l-10 37 -530 0 c-501 0 -530 -1 -525 -17z"/>
</g>
</g>
  <g id="id1:id1" transform="matrix(1.25,0,0,1.25,0.0,0.0)"><g transform="translate(0.000000,1278.000000) scale(0.100000,-0.100000)" fill="#ffffff" stroke="none">
<path d="M0 6390 l0 -6390 6385 0 6385 0 0 6390 0 6390 -6385 0 -6385 0 0 -6390z m10480 2615 c372 -59 627 -159 940 -369 91 -61 324 -292 364 -361 16 -28 48 -77 71 -110 24 -33 64 -103 90 -155 44 -88 165 -393 178 -450 l6 -26 -505 -118 c-289 -68 -508 -115 -513 -110 -4 5 -19 46 -34 91 -15 46 -48 129 -75 185 -142 300 -416 492 -796 558 -154 26 -494 -8 -634 -64 -110 -44 -269 -146 -359 -230 -92 -86 -216 -242 -255 -321 -66 -133 -139 -373 -167 -550 -16 -99 -41 -468 -41 -608 0 -423 74 -819 206 -1092 79 -165 235 -351 373 -444 180 -123 371 -181 643 -197 147 -8 245 6 398 58 150 51 303 149 407 259 126 135 261 398 333 648 16 57 31 106 34 108 4 4 984 -304 994 -312 6 -5 -81 -279 -113 -355 -35 -81 -138 -278 -213 -405 -57 -96 -193 -264 -294 -361 -208 -201 -521 -367 -836 -444 -228 -56 -243 -59 -442 -75 -152 -12 -202 -12 -375 1 -251 18 -357 34 -518 79 -360 98 -686 291 -957 566 -185 188 -327 393 -442 641 -113 243 -170 435 -219 738 -28 171 -32 227 -36 450 -5 254 12 591 38 750 19 114 108 455 148 567 38 109 188 418 233 483 97 139 155 210 256 316 203 209 413 361 647 467 227 102 368 146 592 181 194 31 203 32 488 34 202 2 249 -1 385 -23z m-8781 -102 c5 -21 177 -803 382 -1738 204 -935 374 -1703 378 -1707 3 -4 216 777 472 1735 l466 1742 613 0 613 0 447 -1775 c246 -976 450 -1768 454 -1760 3 8 177 800 386 1760 209 960 383 1753 386 1763 5 16 39 17 525 17 491 0 520 -1 515 -17 -3 -10 -278 -1138 -610 -2508 -332 -1369 -610 -2511 -616 -2538 l-12 -47 -544 0 -543 0 -9 32 c-5 18 -233 876 -508 1905 -274 1030 -501 1873 -504 1873 -3 0 -230 -843 -504 -1873 -275 -1029 -503 -1887 -508 -1904 l-9 -33 -558 0 -559 0 -11 46 c-7 25 -279 1167 -607 2537 -327 1371 -597 2500 -600 2510 -5 16 24 17 525 17 l530 0 10 -37z"/>
</g>
</g>
</svg>
