<?xml version="1.0" encoding="UTF-8" standalone="no"?>
<!-- Created with Inkscape (http://www.inkscape.org/) -->

<svg
   xmlns:dc="http://purl.org/dc/elements/1.1/"
   xmlns:cc="http://creativecommons.org/ns#"
   xmlns:rdf="http://www.w3.org/1999/02/22-rdf-syntax-ns#"
   xmlns:svg="http://www.w3.org/2000/svg"
   xmlns="http://www.w3.org/2000/svg"
   xmlns:inkscape="http://www.inkscape.org/namespaces/inkscape"
   version="1.1"
   width="100%"
   height="100%"
   viewBox="0 0 251.87643 350.77223"
   id="svg89239"
   xml:space="preserve"
   style="fill-rule:evenodd;stroke-linecap:round;stroke-linejoin:round"><metadata
     id="metadata89580"><rdf:RDF><cc:Work
         rdf:about=""><dc:format>image/svg+xml</dc:format><dc:type
           rdf:resource="http://purl.org/dc/dcmitype/StillImage" /></cc:Work></rdf:RDF></metadata><defs
     id="defs89241"><clipPath
       id="clipId0"><path
         d="M 0,600 800,600 800,0 0,0 z"
         inkscape:connector-curvature="0"
         id="path89244" /></clipPath></defs><g
     transform="translate(-273.0625,-124.375)"
     clip-path="url(#clipId0)"
     id="g89246"
     style="fill:none;stroke:#000000;stroke-width:0.1" /><g
     transform="translate(-273.0625,-124.375)"
     clip-path="url(#clipId0)"
     id="g89248"
     style="fill:#000000;fill-rule:nonzero;stroke:none"><path
       d="m 524.9375,124.375 c -83.95833,23.60417 -167.91667,47.20833 -251.875,70.8125 0,14.11458 0,28.22917 0,42.34375 4.03941,-1.30355 13.55613,2.87022 13.4375,-2.59136 0,-9.86538 0,-19.73076 0,-29.59614 35.26042,-9.91667 70.52083,-19.83333 105.78125,-29.75 0,45.82292 0,91.64583 0,137.46875 -34.99677,2.43161 -66.27177,30.02694 -72.75821,64.54104 -7.80503,34.65154 10.52637,72.82504 42.31104,88.60802 31.41495,16.74514 73.32811,9.3882 96.94275,-17.31681 24.99229,-26.21684 28.47349,-69.59646 8.0328,-99.48643 -13.33409,-20.68256 -36.59537,-34.37324 -61.09088,-36.34582 0,-47.08333 0,-94.16667 0,-141.25 35.27083,-9.91667 70.54167,-19.83333 105.8125,-29.75 0,9.46875 0,18.9375 0,28.40625 4.02497,-1.30757 13.5417,2.87662 13.40625,-2.59136 0,-14.5008 0,-29.00159 0,-43.50239 z"
       inkscape:connector-curvature="0"
       id="path89572"
       style="fill-rule:nonzero" /></g><g
     transform="translate(-273.0625,-124.375)"
     clip-path="url(#clipId0)"
     id="g89574"
     style="fill:none;stroke:#000000;stroke-width:0.25"><polyline
       points="399.001,319.495 399.001,319.495 "
       id="polyline89576" /></g></svg>