<?xml version="1.0" standalone="no"?>
<!DOCTYPE svg PUBLIC "-//W3C//DTD SVG 1.1//EN"
 "http://www.w3.org/Graphics/SVG/1.1/DTD/svg11.dtd">
<!-- Created with svg_stack (http://github.com/astraw/svg_stack) -->
<svg xmlns:sodipodi="http://sodipodi.sourceforge.net/DTD/sodipodi-0.dtd" xmlns="http://www.w3.org/2000/svg" version="1.1" width="1983.75" height="1217.5">
  <defs/>
  <g id="id0:id0" transform="matrix(1.25,0,0,1.25,0.0,0.0)"><g transform="translate(0.000000,974.000000) scale(0.100000,-0.100000)" fill="#000000" stroke="none">
<path d="M0 4870 l0 -4870 7935 0 7935 0 0 4870 0 4870 -7935 0 -7935 0 0 -4870z m15320 -5 l0 -4315 -7385 0 -7385 0 0 4315 0 4315 7385 0 7385 0 0 -4315z"/>
<path d="M3080 4910 l0 -2680 355 0 355 0 0 1090 0 1090 753 0 c946 0 1107 9 1414 79 504 115 799 332 1011 741 82 158 142 322 167 455 7 39 18 138 25 220 12 162 -1 354 -35 521 -21 100 -79 278 -108 327 -162 278 -266 405 -435 532 -110 82 -193 123 -363 179 -353 116 -513 126 -2001 126 l-1138 0 0 -2680z m2579 2029 c25 -5 77 -14 115 -19 149 -19 284 -97 417 -239 148 -159 224 -345 245 -601 7 -96 -23 -328 -55 -422 -58 -170 -175 -323 -313 -411 -165 -106 -264 -138 -540 -177 l-217 -30 -760 0 -761 0 0 955 0 955 913 0 c586 0 928 -4 956 -11z"/>
<path d="M12130 4910 l0 -2680 330 0 330 0 0 2680 0 2680 -330 0 -330 0 0 -2680z"/>
<path d="M9350 6194 c-105 -9 -203 -27 -325 -60 -165 -45 -218 -65 -335 -127 -201 -106 -319 -195 -472 -355 -76 -80 -113 -132 -188 -257 -51 -86 -111 -200 -132 -253 -83 -205 -146 -551 -155 -847 -6 -176 8 -450 28 -590 29 -194 126 -511 201 -656 102 -197 304 -434 489 -573 191 -144 449 -249 728 -297 124 -22 403 -37 510 -28 247 20 493 86 708 188 366 175 662 491 818 872 59 146 116 440 135 704 13 180 13 514 0 630 -28 245 -113 541 -210 735 -131 260 -297 447 -554 622 -225 153 -408 224 -706 274 -82 14 -446 26 -540 18z m425 -558 c232 -42 423 -154 589 -345 166 -190 251 -390 305 -716 41 -244 34 -653 -15 -895 -22 -108 -99 -332 -145 -421 -46 -88 -167 -239 -255 -317 -93 -84 -237 -162 -384 -210 -160 -52 -399 -59 -554 -18 -281 75 -467 200 -639 431 -98 131 -138 224 -191 435 -43 168 -52 232 -66 443 -16 239 4 522 51 710 28 111 91 285 133 364 76 145 259 331 416 423 69 40 236 106 304 120 71 14 364 11 451 -4z"/>
</g>
</g>
  <g id="id1:id1" transform="matrix(1.25,0,0,1.25,0.0,0.0)"><g transform="translate(0.000000,974.000000) scale(0.100000,-0.100000)" fill="#ffffff" stroke="none">
</g>
</g>
</svg>
