<?xml version="1.0" standalone="no"?>
<!DOCTYPE svg PUBLIC "-//W3C//DTD SVG 1.1//EN"
 "http://www.w3.org/Graphics/SVG/1.1/DTD/svg11.dtd">
<!-- Created with svg_stack (http://github.com/astraw/svg_stack) -->
<svg xmlns:sodipodi="http://sodipodi.sourceforge.net/DTD/sodipodi-0.dtd" xmlns="http://www.w3.org/2000/svg" version="1.1" width="1616.25" height="1581.25">
  <defs/>
  <g id="id0:id0" transform="matrix(1.25,0,0,1.25,0.0,0.0)"><g transform="translate(0.000000,1265.000000) scale(0.100000,-0.100000)" fill="#000000" stroke="none">
<path d="M202 12639 c7 -20 6253 -10858 6258 -10858 5 0 6261 10838 6268 10858 3 8 -1745 11 -6263 11 -4503 0 -6266 -3 -6263 -11z m11176 -780 c-7 -21 -4913 -8528 -4918 -8528 -5 0 -4911 8507 -4918 8528 -3 8 1335 11 4918 11 3583 0 4921 -3 4918 -11z"/>
<path d="M0 390 l0 -390 6465 0 6465 0 0 390 0 390 -6465 0 -6465 0 0 -390z"/>
</g>
</g>
  <g id="id1:id1" transform="matrix(1.25,0,0,1.25,0.0,0.0)"><g transform="translate(0.000000,1265.000000) scale(0.100000,-0.100000)" fill="#ffffff" stroke="none">
</g>
</g>
</svg>
