<?xml version="1.0" encoding="UTF-8" standalone="no"?>
<svg
   xmlns:dc="http://purl.org/dc/elements/1.1/"
   xmlns:cc="http://creativecommons.org/ns#"
   xmlns:rdf="http://www.w3.org/1999/02/22-rdf-syntax-ns#"
   xmlns:svg="http://www.w3.org/2000/svg"
   xmlns="http://www.w3.org/2000/svg"
   xmlns:sodipodi="http://sodipodi.sourceforge.net/DTD/sodipodi-0.dtd"
   xmlns:inkscape="http://www.inkscape.org/namespaces/inkscape"
   viewBox="0 0 343.625 349.40625"
   version="1.1"
   xml:space="preserve"
   id="svg11210"
   inkscape:version="0.48.3.1 r9886"
   width="100%"
   height="100%"
   sodipodi:docname="alkis3527.svg"
   style="fill-rule:evenodd;stroke-linecap:round;stroke-linejoin:round"><metadata
   id="metadata11243"><rdf:RDF><cc:Work
       rdf:about=""><dc:format>image/svg+xml</dc:format><dc:type
         rdf:resource="http://purl.org/dc/dcmitype/StillImage" /></cc:Work></rdf:RDF></metadata><sodipodi:namedview
   pagecolor="#ffffff"
   bordercolor="#666666"
   borderopacity="1"
   objecttolerance="10"
   gridtolerance="10"
   guidetolerance="10"
   inkscape:pageopacity="0"
   inkscape:pageshadow="2"
   inkscape:window-width="1855"
   inkscape:window-height="1025"
   id="namedview11241"
   showgrid="false"
   inkscape:zoom="0.78666667"
   inkscape:cx="174.22987"
   inkscape:cy="174.15625"
   inkscape:window-x="0"
   inkscape:window-y="33"
   inkscape:window-maximized="1"
   inkscape:current-layer="svg11210" />
<defs
   id="defs11212">
<clipPath
   id="clipId0">
<path
   d="M 0,600 800,600 800,0 0,0 z"
   id="path11215"
   inkscape:connector-curvature="0" />
</clipPath>











</defs>
<g
   clip-path="url(#clipId0)"
   id="g11217"
   style="fill:none;stroke:#000000;stroke-width:0.1"
   transform="translate(-228.3125,-124.75)" />
<path
   style="fill:#000000;stroke:none"
   d="m 153.40625,0 0,110.34375 36.78125,0 L 190.1875,0 153.40625,0 z M 84,22.5625 54.25,44.1875 119.09375,133.4375 148.875,111.8125 84,22.5625 z m 175.625,0 -64.875,89.25 29.75,21.625 64.875,-89.25 -29.75,-21.625 z M 11.34375,103.25 0,138.21875 104.90625,172.3125 116.28125,137.34375 11.34375,103.25 z m 320.9375,0 -104.9375,34.09375 L 238.6875,172.3125 343.625,138.21875 332.28125,103.25 z M 104.90625,177.09375 0,211.1875 l 11.34375,35 104.9375,-34.09375 -11.375,-35 z m 133.78125,0 -11.34375,35 104.9375,34.09375 11.34375,-35 -104.9375,-34.09375 z m -119.59375,38.875 -64.84375,89.25 29.75,21.625 64.875,-89.25 -29.78125,-21.625 z m 105.40625,0 -29.75,21.625 64.875,89.25 29.75,-21.625 -64.875,-89.25 z m -71.09375,23.09375 0,110.34375 36.78125,0 0,-110.34375 -36.78125,0 z"
   id="path11221"
   inkscape:connector-curvature="0" />
</svg>