<?xml version="1.0" standalone="no"?>
<!DOCTYPE svg PUBLIC "-//W3C//DTD SVG 1.1//EN"
 "http://www.w3.org/Graphics/SVG/1.1/DTD/svg11.dtd">
<!-- Created with svg_stack (http://github.com/astraw/svg_stack) -->
<svg xmlns:sodipodi="http://sodipodi.sourceforge.net/DTD/sodipodi-0.dtd" xmlns="http://www.w3.org/2000/svg" version="1.1" width="1596.25" height="1596.25">
  <defs/>
  <g id="id0:id0" transform="matrix(1.25,0,0,1.25,0.0,0.0)"><g transform="translate(0.000000,1277.000000) scale(0.100000,-0.100000)" fill="#000000" stroke="none">
<path d="M5995 12760 c-558 -31 -1307 -190 -1820 -388 -680 -263 -1188 -547 -1735 -971 -523 -406 -1024 -950 -1362 -1476 -399 -623 -642 -1152 -828 -1805 -327 -1150 -327 -2341 1 -3467 198 -682 451 -1231 835 -1813 465 -706 1016 -1260 1759 -1764 785 -534 1826 -915 2835 -1037 262 -32 270 -33 710 -33 440 0 448 1 710 33 1009 122 2050 503 2835 1037 451 306 791 598 1135 974 362 396 627 760 885 1215 399 704 693 1609 769 2365 54 545 54 973 0 1513 -60 597 -275 1358 -546 1932 -214 454 -520 951 -774 1260 -484 588 -895 969 -1469 1360 -363 247 -823 481 -1330 677 -416 160 -958 291 -1470 354 -260 32 -305 34 -635 38 -195 2 -422 1 -505 -4z m1065 -640 c1370 -158 2656 -813 3568 -1819 324 -357 551 -669 795 -1092 286 -496 528 -1151 627 -1693 127 -697 147 -1222 69 -1809 -71 -542 -136 -812 -318 -1328 -280 -795 -858 -1657 -1500 -2237 -331 -300 -771 -621 -1091 -797 -691 -381 -1414 -613 -2185 -701 -222 -26 -269 -28 -635 -27 -364 0 -414 2 -635 27 -1087 124 -2097 538 -2930 1204 -324 258 -511 431 -684 627 -677 772 -1019 1386 -1306 2346 -162 538 -243 1216 -215 1788 25 519 89 918 217 1351 230 781 545 1399 1011 1985 336 422 580 669 962 975 431 346 981 654 1570 881 474 183 1120 319 1660 350 74 4 277 5 450 3 265 -3 355 -9 570 -34z"/>
<path d="M6265 9664 c-88 -10 -235 -48 -330 -86 -165 -66 -247 -120 -371 -243 -195 -194 -318 -422 -356 -660 -16 -104 -16 -310 0 -405 15 -84 64 -244 95 -305 119 -242 326 -456 537 -557 174 -82 323 -124 481 -134 141 -8 276 9 408 51 233 75 405 183 545 341 184 208 272 402 301 668 14 125 14 153 0 280 -21 196 -62 315 -162 478 -219 354 -573 561 -983 572 -69 2 -143 2 -165 0z m405 -350 c195 -65 391 -230 497 -416 45 -79 84 -211 102 -343 21 -151 -29 -385 -110 -520 -121 -201 -272 -324 -504 -410 -98 -37 -245 -51 -368 -35 -219 27 -434 144 -573 312 -90 109 -132 189 -174 329 -28 94 -32 117 -32 239 0 122 3 145 30 236 69 230 175 373 373 504 178 118 262 140 509 135 150 -3 173 -5 250 -31z"/>
<path d="M3175 8531 c-73 -10 -207 -52 -276 -87 -169 -85 -325 -255 -410 -448 -69 -157 -77 -405 -19 -593 76 -247 308 -480 555 -557 306 -95 611 -30 850 179 162 143 243 300 280 546 15 95 14 113 0 208 -38 240 -108 377 -274 533 -143 135 -334 214 -536 222 -60 3 -137 1 -170 -3z"/>
<path d="M9360 8531 c-30 -5 -89 -18 -130 -31 -287 -86 -498 -306 -586 -610 -24 -83 -27 -112 -26 -225 0 -115 4 -141 31 -226 56 -182 133 -304 260 -415 146 -127 280 -188 473 -214 121 -17 249 -3 383 41 104 35 145 57 254 139 149 113 282 331 317 520 39 215 -7 457 -117 617 -17 25 -27 49 -23 53 12 11 134 60 151 60 8 0 32 -10 53 -22 32 -19 40 -30 46 -63 3 -22 21 -104 40 -183 59 -247 49 -402 -76 -1210 l-40 -254 27 -193 26 -193 168 -96 169 -96 112 0 113 0 73 146 73 146 -76 142 -75 143 -44 329 c-43 311 -61 488 -86 839 -13 182 -45 424 -68 523 -18 72 -18 73 -114 161 -92 85 -99 89 -172 107 -70 16 -82 16 -158 2 -46 -8 -143 -32 -216 -52 -133 -37 -133 -37 -160 -18 -48 34 -112 63 -217 97 -85 28 -123 35 -217 39 -62 3 -138 1 -168 -3z"/>
<path d="M4740 7059 c-146 -77 -536 -282 -867 -455 l-602 -314 -220 0 -219 0 -21 -34 c-13 -20 -43 -129 -75 -272 -29 -131 -79 -324 -109 -429 -31 -104 -185 -638 -342 -1185 -157 -547 -288 -1003 -291 -1012 -5 -17 16 -18 344 -18 l350 0 96 228 c54 125 185 435 293 690 108 254 200 462 203 462 4 0 136 -296 295 -657 158 -362 295 -673 303 -690 l16 -33 339 0 c318 0 338 1 333 18 -9 31 -441 1575 -560 2002 -64 228 -112 417 -108 421 4 3 140 102 302 219 162 118 315 230 340 251 25 20 52 39 60 42 32 11 675 489 672 500 -7 26 -248 406 -257 406 -5 0 -129 -63 -275 -140z"/>
<path d="M7633 7001 c-67 -108 -123 -202 -125 -208 -3 -11 604 -461 681 -505 21 -13 187 -133 369 -267 l330 -244 -91 -111 c-51 -61 -248 -295 -440 -521 l-347 -410 266 -3 c246 -2 265 -4 260 -20 -3 -9 -75 -309 -160 -667 -85 -357 -157 -662 -161 -677 l-7 -28 339 0 339 0 16 33 c8 17 145 328 303 690 159 361 291 657 295 657 3 0 95 -208 203 -462 108 -255 239 -565 293 -690 l96 -228 345 0 345 0 -7 28 c-4 15 -76 320 -161 677 -85 358 -157 658 -160 667 -5 16 14 18 266 20 l270 3 -331 385 c-182 212 -346 403 -364 425 -37 45 -37 45 -124 483 -26 133 -50 245 -53 248 -4 3 -143 8 -310 11 l-303 6 -480 250 c-264 137 -654 341 -867 453 -213 112 -391 204 -395 204 -5 -1 -63 -90 -130 -199z"/>
</g>
</g>
  <g id="id1:id1" transform="matrix(1.25,0,0,1.25,0.0,0.0)"><g transform="translate(0.000000,1277.000000) scale(0.100000,-0.100000)" fill="#ffffff" stroke="none">
<path d="M6040 12151 c-540 -31 -1186 -167 -1660 -350 -589 -227 -1139 -535 -1570 -881 -382 -306 -626 -553 -962 -975 -466 -586 -781 -1204 -1011 -1985 -128 -433 -192 -832 -217 -1351 -20 -407 21 -931 105 -1351 79 -389 263 -954 424 -1298 261 -557 527 -954 992 -1485 337 -383 943 -862 1434 -1133 697 -384 1403 -610 2180 -698 221 -25 271 -27 635 -27 366 -1 413 1 635 27 771 88 1494 320 2185 701 320 176 760 497 1091 797 304 274 651 679 877 1023 372 564 566 983 767 1656 105 350 194 905 215 1340 27 544 -61 1273 -216 1799 -189 637 -393 1077 -760 1635 -312 476 -778 982 -1224 1331 -714 557 -1545 942 -2425 1120 -346 71 -660 103 -1045 108 -173 2 -376 1 -450 -3z m614 -2512 c313 -69 585 -265 759 -547 100 -163 141 -282 162 -478 14 -127 14 -155 0 -280 -29 -266 -117 -460 -301 -668 -140 -158 -312 -266 -545 -341 -132 -42 -267 -59 -408 -51 -158 10 -307 52 -481 134 -211 101 -418 315 -537 557 -31 61 -80 221 -95 305 -16 95 -16 301 0 405 38 238 161 466 356 660 124 123 206 177 371 243 95 38 242 76 330 86 89 9 293 -4 389 -25z m-3114 -1135 c134 -41 249 -105 341 -192 166 -156 236 -293 274 -533 14 -95 15 -113 0 -208 -28 -190 -67 -290 -159 -415 -101 -136 -275 -263 -426 -310 -387 -121 -784 21 -1005 361 -69 106 -104 197 -124 323 -24 146 -2 351 48 466 85 193 241 363 410 448 69 35 203 77 276 87 106 14 271 1 365 -27z m6205 -9 c105 -34 169 -63 217 -97 27 -19 27 -19 160 18 73 20 170 44 216 52 76 14 88 14 158 -2 73 -18 80 -22 172 -107 96 -88 96 -89 114 -161 23 -99 55 -341 68 -523 25 -351 43 -528 86 -839 l44 -329 75 -143 76 -142 -73 -146 -73 -146 -113 0 -112 0 -169 96 -168 96 -26 193 -27 193 40 254 c125 808 135 963 76 1210 -19 79 -37 161 -40 183 -6 33 -14 44 -46 63 -21 12 -45 22 -53 22 -17 0 -139 -49 -151 -60 -4 -4 6 -28 23 -53 110 -160 156 -402 117 -617 -35 -189 -168 -407 -317 -520 -109 -82 -150 -104 -254 -139 -134 -44 -262 -58 -383 -41 -193 26 -327 87 -473 214 -127 111 -204 233 -260 415 -27 85 -31 111 -31 226 -1 113 2 142 26 225 88 304 299 524 586 610 107 32 169 39 298 34 94 -4 132 -11 217 -39z m-4598 -1494 c67 -108 123 -202 125 -208 3 -11 -640 -489 -672 -500 -8 -3 -35 -22 -60 -42 -25 -21 -178 -133 -340 -251 -162 -117 -298 -216 -302 -219 -4 -4 44 -193 108 -421 119 -427 551 -1971 560 -2002 5 -17 -15 -18 -333 -18 l-339 0 -16 33 c-8 17 -145 328 -303 690 -159 361 -291 657 -295 657 -3 0 -95 -208 -203 -462 -108 -255 -239 -565 -293 -690 l-96 -228 -350 0 c-328 0 -349 1 -344 18 3 9 134 465 291 1012 157 547 311 1081 342 1185 30 105 80 298 109 429 32 143 62 252 75 272 l21 34 219 0 220 0 602 314 c331 173 721 378 867 455 146 77 270 140 275 140 6 0 65 -89 132 -198z m3011 -5 c213 -112 603 -316 867 -453 l480 -250 303 -6 c167 -3 306 -8 310 -11 3 -3 27 -115 53 -248 87 -438 87 -438 124 -483 18 -22 182 -213 364 -425 l331 -385 -270 -3 c-252 -2 -271 -4 -266 -20 3 -9 75 -309 160 -667 85 -357 157 -662 161 -677 l7 -28 -345 0 -345 0 -96 228 c-54 125 -185 435 -293 690 -108 254 -200 462 -203 462 -4 0 -136 -296 -295 -657 -158 -362 -295 -673 -303 -690 l-16 -33 -339 0 -339 0 7 28 c4 15 76 320 161 677 85 358 157 658 160 667 5 16 -14 18 -260 20 l-266 3 347 410 c192 226 389 460 440 521 l91 111 -330 244 c-182 134 -348 254 -369 267 -77 44 -684 494 -681 505 6 21 247 406 255 407 4 0 182 -92 395 -204z"/>
<path d="M6215 9341 c-111 -21 -191 -56 -304 -131 -198 -131 -304 -274 -373 -504 -27 -91 -30 -114 -30 -236 0 -122 4 -145 32 -239 42 -140 84 -220 174 -329 139 -168 354 -285 573 -312 123 -16 270 -2 368 35 232 86 383 209 504 410 81 135 131 369 110 520 -18 132 -57 264 -102 343 -106 186 -302 351 -497 416 -77 26 -100 28 -250 31 -91 2 -183 0 -205 -4z"/>
</g>
</g>
</svg>
