<?xml version="1.0" standalone="no"?>
<!DOCTYPE svg PUBLIC "-//W3C//DTD SVG 1.1//EN"
 "http://www.w3.org/Graphics/SVG/1.1/DTD/svg11.dtd">
<!-- Created with svg_stack (http://github.com/astraw/svg_stack) -->
<svg xmlns:sodipodi="http://sodipodi.sourceforge.net/DTD/sodipodi-0.dtd" xmlns="http://www.w3.org/2000/svg" version="1.1" width="715.0" height="1598.75">
  <defs/>
  <g id="id0:id0" transform="matrix(1.25,0,0,1.25,0.0,0.0)"><g transform="translate(0.000000,1279.000000) scale(0.100000,-0.100000)" fill="#000000" stroke="none">
<path d="M1568 8153 l-3 -4638 -115 -16 c-186 -27 -392 -105 -587 -221 -135 -81 -347 -250 -419 -336 -125 -150 -285 -417 -344 -575 -22 -59 -64 -240 -86 -367 -18 -109 -18 -360 0 -470 21 -125 63 -295 93 -375 62 -168 212 -418 340 -569 74 -87 281 -253 415 -333 330 -197 766 -291 1103 -239 162 26 359 74 448 112 104 43 362 189 426 241 234 189 377 371 518 658 102 206 163 484 163 740 0 166 -6 214 -52 420 -39 178 -82 283 -191 471 -121 210 -239 346 -438 507 -64 52 -322 198 -426 241 -110 46 -235 82 -338 96 -44 6 -90 13 -102 16 l-23 4 0 2362 0 2362 173 -170 172 -170 1332 -974 1333 -975 196 -590 c108 -324 200 -594 204 -599 5 -4 44 4 87 18 63 21 97 26 176 26 l97 0 0 1658 0 1657 -234 354 -234 355 -1361 890 -1361 891 -290 480 -290 480 0 607 0 608 -190 0 -190 0 -2 -4637z m555 2404 l122 -208 1370 -899 1370 -900 183 -273 182 -272 -1 -1010 0 -1010 -37 102 -37 103 -1380 1005 -1380 1006 -282 282 -283 282 0 1040 1 1040 24 -40 c14 -22 80 -134 148 -248z m-198 -7417 c187 -20 412 -97 551 -190 132 -88 258 -195 335 -286 131 -152 247 -377 297 -573 25 -99 27 -120 27 -326 0 -206 -2 -227 -27 -325 -79 -310 -267 -591 -523 -783 -122 -91 -341 -199 -470 -232 -246 -63 -535 -57 -765 16 -208 66 -482 242 -612 392 -148 172 -277 410 -325 601 -26 105 -28 123 -28 331 0 207 2 226 28 331 28 111 106 288 184 418 51 85 175 227 258 295 326 269 666 374 1070 331z"/>
</g>
</g>
  <g id="id1:id1" transform="matrix(1.25,0,0,1.25,0.0,0.0)"><g transform="translate(0.000000,1279.000000) scale(0.100000,-0.100000)" fill="#ffffff" stroke="none">
</g>
</g>
</svg>
