<?xml version="1.0" encoding="UTF-8" standalone="no"?>
<svg
   xmlns:dc="http://purl.org/dc/elements/1.1/"
   xmlns:cc="http://creativecommons.org/ns#"
   xmlns:rdf="http://www.w3.org/1999/02/22-rdf-syntax-ns#"
   xmlns:svg="http://www.w3.org/2000/svg"
   xmlns="http://www.w3.org/2000/svg"
   xmlns:sodipodi="http://sodipodi.sourceforge.net/DTD/sodipodi-0.dtd"
   xmlns:inkscape="http://www.inkscape.org/namespaces/inkscape"
   viewBox="0 0 306.14187 351.33158"
   version="1.1"
   xml:space="preserve"
   id="svg7395"
   inkscape:version="0.48.3.1 r9886"
   width="100%"
   height="100%"
   sodipodi:docname="alkis3561.svg"
   style="fill-rule:evenodd;stroke-linecap:round;stroke-linejoin:round"><metadata
   id="metadata7938"><rdf:RDF><cc:Work
       rdf:about=""><dc:format>image/svg+xml</dc:format><dc:type
         rdf:resource="http://purl.org/dc/dcmitype/StillImage" /></cc:Work></rdf:RDF></metadata><sodipodi:namedview
   pagecolor="#ffffff"
   bordercolor="#666666"
   borderopacity="1"
   objecttolerance="10"
   gridtolerance="10"
   guidetolerance="10"
   inkscape:pageopacity="0"
   inkscape:pageshadow="2"
   inkscape:window-width="1855"
   inkscape:window-height="1025"
   id="namedview7936"
   showgrid="false"
   inkscape:zoom="1.0855603"
   inkscape:cx="42.457153"
   inkscape:cy="300.35984"
   inkscape:window-x="0"
   inkscape:window-y="33"
   inkscape:window-maximized="1"
   inkscape:current-layer="svg7395" />
<defs
   id="defs7397">
<clipPath
   id="clipId0">
<path
   d="M 0,600 800,600 800,0 0,0 z"
   id="path7400"
   inkscape:connector-curvature="0" />
</clipPath>








































































































































































































































































</defs>
<g
   clip-path="url(#clipId0)"
   id="g7402"
   style="fill:none;stroke:#000000;stroke-width:0.1"
   transform="translate(-247.21031,-124.14781)" />

<g
   clip-path="url(#clipId0)"
   id="g7566"
   style="fill:none;stroke:#000000;stroke-width:0.25"
   transform="translate(-247.21031,-124.14781)">
<path
   style="fill:#000000;fill-opacity:1"
   d="m 400.09375,387.53125 c -14.68638,-0.006 -29.08212,7.90456 -36.85809,20.37767 -8.1426,12.58902 -9.09721,29.42205 -2.3717,42.83066 6.4841,13.61499 20.48106,23.22471 35.5111,24.42378 13.77654,1.33234 27.96116,-4.37707 36.99976,-14.85692 8.96471,-10.19017 12.74716,-24.64481 9.85727,-37.91431 -2.97094,-14.69349 -14.0622,-27.40444 -28.24427,-32.2866 -4.64745,-1.67873 -9.5796,-2.5285 -14.51907,-2.57428 -0.0625,1.57292 -0.125,3.14583 -0.1875,4.71875 -0.0625,-1.57292 -0.125,-3.14583 -0.1875,-4.71875 z m 0,9.40625 c 11.77012,-0.0745 23.34862,6.23927 29.47563,16.32283 7.18476,11.26259 6.8683,26.74025 -0.8492,37.6594 -7.12764,10.74004 -20.66594,16.61358 -33.38478,14.66506 -11.50221,-1.59485 -21.86353,-9.40822 -26.52728,-20.04665 -5.37352,-11.68988 -3.40154,-26.31111 4.9612,-36.10646 6.34459,-7.82349 16.28993,-12.38897 26.32443,-12.49418 z"
   id="polyline7568"
   inkscape:connector-curvature="0" />
</g>
<path
   style="fill:#000000;stroke:none"
   inkscape:connector-curvature="0"
   id="path7572"
   d="m 157.77669,268.09619 -9.41,0 0,-219.565004 9.41,0 z" /><path
   style="fill:#000000;fill-rule:nonzero;stroke:none"
   d="m 43.820936,0.1646862 c -0.43987,3.58978 0.87145,8.75164 -0.63777,11.3814498 -6.35088,0.94473 -12.49086,3.4923 -17.54973,7.4623 -2.81713,-2.1916 -5.63719,-6.87655 -8.45253,-7.54534 -1.70634,2.82367 -8.8582098,5.65375 -3.90448,8.46958 2.20439,2.88115 8.06157,5.31855 3.55868,8.77325 -2.83784,4.57273 -4.73574,9.76229 -5.35792,15.11501 -3.5422298,0.44243 -8.8458498,-0.87653 -11.3124998,0.64149 0.78331,3.20741 -2.29066,10.27212 3.20743,8.76476 3.57735,0.48452 9.4685298,-1.9458 8.7227598,3.67445 1.26008,5.24253 3.50857,10.3074 6.91356,14.51305 -2.19234,2.81787 -6.8751,5.63573 -7.5464,8.4536 2.81313,1.70804 5.62626,8.86367 8.43939,3.90341 2.88115,-2.20439 5.31855,-8.06157 8.77325,-3.55868 4.58455,2.83248 9.78624,4.73394 15.14626,5.35792 0.44243,3.54223 -0.87653,8.84585 0.64149,11.3125 3.20741,-0.78331 10.27212,2.29066 8.76476,-3.20743 0.49614,-3.55399 -1.95621,-9.46157 3.64419,-8.71765 5.24382,-1.25469 10.30389,-3.52023 14.51206,-6.91867 2.8186,2.19308 5.63428,6.87364 8.45466,7.54747 1.717,-2.81301 8.89236,-5.6196 3.9336,-8.44046 -2.18336,-2.87142 -8.06529,-5.31282 -3.58993,-8.77325 2.85199,-4.5823 4.73812,-9.78514 5.38917,-15.14626 45.000004,0 90.000004,0 135.000004,0 0.81477,6.58629 3.43858,12.95894 7.53125,18.1875 -2.1916,2.81713 -6.87655,5.63719 -7.54534,8.45253 2.82367,1.70634 5.65375,8.85821 8.46958,3.90448 2.88115,-2.20439 5.31855,-8.06157 8.77325,-3.55868 4.57108,2.84291 9.76452,4.72551 15.11501,5.35792 0.44243,3.54223 -0.87653,8.84585 0.64149,11.3125 3.20741,-0.78331 10.27212,2.29066 8.76476,-3.20743 0.48452,-3.57735 -1.9458,-9.46853 3.67445,-8.72276 5.24253,-1.26008 10.3074,-3.50857 14.51305,-6.91356 2.81787,2.19234 5.63573,6.8751 8.4536,7.5464 1.70804,-2.81313 8.86367,-5.62626 3.90341,-8.43939 -2.20439,-2.88115 -8.06157,-5.31855 -3.55868,-8.77325 2.84474,-4.57988 4.73081,-9.7866 5.35792,-15.14626 3.54223,-0.44243 8.84585,0.87653 11.3125,-0.64149 -0.78331,-3.20741 2.29066,-10.27212 -3.20743,-8.76476 -3.55399,-0.49614 -9.46157,1.95621 -8.71765,-3.64419 -1.25469,-5.24382 -3.52023,-10.30389 -6.91867,-14.51206 2.19308,-2.8186 6.87364,-5.63428 7.54747,-8.45466 -2.81301,-1.717 -5.6196,-8.8923598 -8.44046,-3.9336 -2.87142,2.18336 -5.31282,8.06529 -8.77325,3.58993 -4.5823,-2.85199 -9.78514,-4.73812 -15.14626,-5.38917 -0.44243,-3.5422298 0.87653,-8.8458498 -0.64149,-11.3124998 -3.20741,0.78331 -10.27212,-2.29066 -8.76476,3.20743 -0.49388,3.56533 1.95059,9.4334698 -3.63791,8.7490398 -5.26112,1.20114 -10.26835,3.55906 -14.51834,6.88728 -2.81787,-2.19234 -5.63573,-6.8751 -8.4536,-7.5464 -1.71524,2.82355 -8.887,5.64709 -3.93466,8.47064 2.18336,2.87142 8.06529,5.31282 3.58993,8.77325 -2.84525,4.5752 -4.74287,9.76066 -5.38917,15.11501 -45,0 -90,0 -135.000004,0 -0.81059,-6.57906 -3.44974,-12.93317 -7.53125,-18.15625 2.19234,-2.81787 6.8751,-5.63573 7.5464,-8.4536 -2.82355,-1.71524 -5.64709,-8.8869998 -8.47064,-3.93466 -2.87142,2.18336 -5.31282,8.06529 -8.77325,3.58993 -4.5752,-2.84525 -9.76066,-4.74287 -15.11501,-5.38917 -0.44243,-3.5422298 0.87653,-8.8458498 -0.64149,-11.3124998 -2.92158,0 -5.84317,0 -8.76476,0 z m 4.5,20.4062498 c 15.82362,-0.54127 29.75143,14.40795 28.0625,30.1562 -0.7942,15.97193 -17.23315,28.64599 -32.87868,25.30994 -15.79717,-2.40998 -26.75587,-20.04444 -21.83857,-35.26433 3.19501,-11.7001 14.54537,-20.23669 26.65475,-20.20181 z m 209.125004,0 c 15.81556,-0.52576 29.74632,14.40965 28.0625,30.1562 -0.80208,16.20163 -17.71658,28.95233 -33.50735,25.18239 -15.7593,-2.74898 -26.27897,-20.64236 -21.03727,-35.7546 3.3842,-11.38316 14.62243,-19.63398 26.48212,-19.58399 z"
   id="path7574"
   inkscape:connector-curvature="0" />




</svg>