<?xml version="1.0" standalone="no"?>
<!DOCTYPE svg PUBLIC "-//W3C//DTD SVG 1.1//EN"
 "http://www.w3.org/Graphics/SVG/1.1/DTD/svg11.dtd">
<!-- Created with svg_stack (http://github.com/astraw/svg_stack) -->
<svg xmlns:sodipodi="http://sodipodi.sourceforge.net/DTD/sodipodi-0.dtd" xmlns="http://www.w3.org/2000/svg" version="1.1" width="1596.25" height="1597.5">
  <defs/>
  <g id="id0:id0" transform="matrix(1.25,0,0,1.25,0.0,0.0)"><g transform="translate(0.000000,1278.000000) scale(0.100000,-0.100000)" fill="#ffffb2" stroke="none">
<path d="M0 6390 l0 -6390 6385 0 6385 0 0 6390 0 6390 -6385 0 -6385 0 0 -6390z m5975 3560 c266 -34 534 -102 752 -191 447 -182 740 -374 1063 -698 378 -380 629 -814 783 -1351 33 -116 58 -247 88 -480 16 -122 16 -526 0 -650 -52 -399 -126 -664 -270 -975 l-51 -110 81 85 c166 176 297 341 387 488 139 228 194 325 271 481 200 398 344 982 366 1484 l7 147 1149 0 c913 0 1149 -3 1149 -12 -1 -108 -26 -451 -46 -616 -51 -423 -136 -779 -298 -1238 -125 -353 -355 -806 -567 -1114 -423 -615 -858 -1048 -1484 -1475 -317 -216 -688 -407 -1110 -571 -343 -134 -809 -244 -1275 -300 -207 -25 -254 -28 -590 -28 -337 0 -383 3 -590 28 -466 57 -933 166 -1275 300 -391 152 -815 370 -1110 572 -615 419 -1109 911 -1480 1474 -398 606 -632 1174 -800 1940 -56 256 -91 549 -100 828 l-7 212 381 0 c210 0 381 -3 381 -7 0 -5 5 -71 10 -148 45 -615 128 -955 356 -1457 149 -329 412 -723 654 -978 l90 -95 -51 110 c-128 276 -220 604 -265 945 -24 185 -24 526 0 710 69 525 233 967 499 1350 153 218 232 316 372 455 321 322 613 513 1058 694 214 87 477 154 747 190 195 27 527 27 725 1z"/>
<path d="M5320 9060 c-100 -14 -394 -89 -470 -119 -248 -96 -435 -211 -662 -404 -215 -184 -387 -402 -499 -632 -176 -363 -242 -636 -242 -1000 0 -285 37 -493 135 -755 134 -357 330 -641 606 -877 306 -260 554 -390 907 -474 213 -51 351 -69 530 -69 178 1 309 18 515 69 277 68 439 140 700 315 486 323 834 877 921 1466 100 679 -123 1368 -597 1846 -110 111 -211 195 -324 270 -266 177 -419 246 -720 321 l-185 46 -280 3 c-154 1 -305 -1 -335 -6z"/>
</g>
</g>
  <g id="id1:id1" transform="matrix(1.25,0,0,1.25,0.0,0.0)"><g transform="translate(0.000000,1278.000000) scale(0.100000,-0.100000)" fill="#000000" stroke="none">
<path d="M5250 9949 c-149 -20 -316 -54 -487 -100 -227 -60 -633 -245 -828 -377 -259 -175 -555 -446 -706 -647 -357 -473 -498 -777 -614 -1318 -81 -383 -81 -823 1 -1207 64 -295 122 -478 223 -695 l51 -110 -90 95 c-242 255 -505 649 -654 978 -228 502 -311 842 -356 1457 -5 77 -10 143 -10 148 0 4 -171 7 -381 7 l-381 0 7 -212 c25 -794 281 -1700 677 -2403 362 -642 778 -1127 1363 -1590 427 -339 906 -609 1450 -821 342 -134 809 -243 1275 -300 207 -25 253 -28 590 -28 336 0 383 3 590 28 466 56 932 166 1275 300 422 164 793 355 1110 571 626 427 1061 860 1484 1475 212 308 442 761 567 1114 162 459 247 815 298 1238 20 165 45 508 46 616 0 9 -236 12 -1149 12 l-1149 0 -7 -147 c-22 -502 -166 -1086 -366 -1484 -77 -156 -132 -253 -271 -481 -90 -147 -221 -312 -387 -488 l-81 -85 51 110 c144 311 218 576 270 975 16 124 16 528 0 650 -30 233 -55 364 -88 480 -154 537 -405 971 -783 1351 -323 324 -616 516 -1063 698 -218 89 -486 157 -752 191 -198 26 -530 26 -725 -1z m870 -932 c301 -75 454 -144 720 -321 487 -324 833 -875 921 -1466 31 -212 31 -437 0 -650 -87 -589 -435 -1143 -921 -1466 -261 -175 -423 -247 -700 -315 -206 -51 -337 -68 -515 -69 -303 0 -649 76 -925 202 -283 131 -613 396 -802 643 -224 295 -376 650 -429 1005 -42 282 -23 642 48 885 77 265 200 527 333 705 128 172 195 244 338 367 306 260 553 390 907 474 235 57 245 58 560 55 l280 -3 185 -46z"/>
</g>
</g>
  <g id="id2:id2" transform="matrix(1.25,0,0,1.25,0.0,0.0)"><g transform="translate(0.000000,1278.000000) scale(0.100000,-0.100000)" fill="#ffffff" stroke="none">
</g>
</g>
</svg>
