<?xml version="1.0" encoding="UTF-8" standalone="no"?>
<svg
   xmlns:dc="http://purl.org/dc/elements/1.1/"
   xmlns:cc="http://creativecommons.org/ns#"
   xmlns:rdf="http://www.w3.org/1999/02/22-rdf-syntax-ns#"
   xmlns:svg="http://www.w3.org/2000/svg"
   xmlns="http://www.w3.org/2000/svg"
   xmlns:sodipodi="http://sodipodi.sourceforge.net/DTD/sodipodi-0.dtd"
   xmlns:inkscape="http://www.inkscape.org/namespaces/inkscape"
   viewBox="0 0 511.90421 347.15756"
   version="1.1"
   xml:space="preserve"
   id="svg39986"
   inkscape:version="0.48.3.1 r9886"
   width="100%"
   height="100%"
   sodipodi:docname="alkis3474.svg"
   style="fill-rule:evenodd;stroke-linecap:round;stroke-linejoin:round"><metadata
   id="metadata40249"><rdf:RDF><cc:Work
       rdf:about=""><dc:format>image/svg+xml</dc:format><dc:type
         rdf:resource="http://purl.org/dc/dcmitype/StillImage" /></cc:Work></rdf:RDF></metadata><sodipodi:namedview
   pagecolor="#ffffff"
   bordercolor="#666666"
   borderopacity="1"
   objecttolerance="10"
   gridtolerance="10"
   guidetolerance="10"
   inkscape:pageopacity="0"
   inkscape:pageshadow="2"
   inkscape:window-width="1855"
   inkscape:window-height="1025"
   id="namedview40247"
   showgrid="false"
   inkscape:zoom="0.39333333"
   inkscape:cx="260.89026"
   inkscape:cy="174.46875"
   inkscape:window-x="0"
   inkscape:window-y="33"
   inkscape:window-maximized="1"
   inkscape:current-layer="svg39986" />
<defs
   id="defs39988">
<clipPath
   id="clipId0">
<path
   d="M 0,600 800,600 800,0 0,0 z"
   id="path39991"
   inkscape:connector-curvature="0" />
</clipPath>






























































































































</defs>
<g
   clip-path="url(#clipId0)"
   id="g39993"
   style="fill:none;stroke:#000000;stroke-width:0.1"
   transform="translate(-144.19448,-127.31119)" />
<path
   style="fill:#00ff00;stroke:none"
   d="m 255.58677,0.0950643 c -6.95596,6.0907 -9.83332,14.5476797 -9.44644,23.6229897 -9.9241,107.740246 -19.84821,215.480506 -29.77231,323.220756 27.63542,0 55.27083,0 82.90625,0 C 289.22219,235.29298 279.1701,123.64714 269.11802,12.001314 264.76929,7.6459443 263.14949,-1.0005057 255.58677,0.0950643 z M 2.2430161,134.37631 c -6.33898,5.96977 2.33574,12.7664 6.58817,16.9991 36.8268599,38.24502 56.7812099,90.26746 61.7388199,142.63694 1.83596,17.50971 2.02761,35.78459 2.04801,52.95771 26.62484,0.0892 53.250144,0.11482 79.875004,0.1872 1.28308,-28.72436 -3.04491,-57.81735 -15.47891,-83.92204 -21.40752,-46.31551 -61.260304,-80.2793 -101.824714,-109.59785 -9.77602,-6.37224 -18.55591,-14.9953 -29.4151299,-19.26106 -1.17708,0 -2.35417,0 -3.53125,0 z m 503.9687539,0 c -12.90654,5.62903 -23.68866,15.70561 -35.33138,23.69361 -40.79606,29.70816 -80.24511,65.42605 -99.31105,113.30652 -10.23857,23.85327 -12.98304,50.03072 -12.07632,75.78112 26.7186,-0.0844 53.43769,-0.0919 80.15625,-0.1872 -1.81135,-54.61094 6.63864,-111.14415 35.22712,-158.57592 9.63376,-17.11282 23.45704,-31.42847 36.32577,-45.88442 1.63729,-3.97505 0.5822,-9.68717 -4.99039,-8.13371 z"
   id="path39997"
   inkscape:connector-curvature="0" />



</svg>