<?xml version="1.0" standalone="no"?>
<!DOCTYPE svg PUBLIC "-//W3C//DTD SVG 1.1//EN"
 "http://www.w3.org/Graphics/SVG/1.1/DTD/svg11.dtd">
<!-- Created with svg_stack (http://github.com/astraw/svg_stack) -->
<svg xmlns:sodipodi="http://sodipodi.sourceforge.net/DTD/sodipodi-0.dtd" xmlns="http://www.w3.org/2000/svg" version="1.1" width="1998.75" height="408.75">
  <defs/>
  <g id="id0:id0" transform="matrix(1.25,0,0,1.25,0.0,0.0)"><g transform="translate(0.000000,327.000000) scale(0.100000,-0.100000)" fill="#000000" stroke="none">
<path d="M14220 3000 l0 -270 -660 0 -660 0 0 -25 0 -25 660 0 660 0 0 -510 0 -510 -660 0 -660 0 0 -25 0 -25 660 0 660 0 0 -515 0 -515 -660 0 c-653 0 -660 0 -660 -20 0 -20 7 -20 660 -20 l660 0 0 -270 0 -270 95 0 95 0 0 197 0 197 32 -33 c57 -59 123 -85 208 -85 62 0 84 4 126 26 62 33 107 76 137 132 32 59 32 203 0 262 -28 53 -74 99 -127 127 -34 18 -57 22 -136 22 -106 0 -149 -16 -208 -76 l-32 -33 0 362 0 362 55 -44 c113 -93 256 -94 368 -3 69 57 97 109 104 195 11 135 -41 230 -157 289 -46 23 -68 28 -130 28 -63 0 -84 -5 -134 -30 -32 -16 -65 -40 -73 -52 -9 -13 -19 -23 -24 -23 -5 0 -9 159 -9 362 l0 362 32 -33 c53 -54 137 -91 208 -91 103 0 212 68 263 164 18 34 22 57 22 131 -1 100 -18 146 -76 204 -60 60 -103 76 -209 76 -106 0 -149 -16 -208 -76 l-32 -33 0 192 0 192 -95 0 -95 0 0 -270z m140 -290 l0 -510 -45 0 -45 0 0 510 0 510 45 0 45 0 0 -510z m375 230 c3 -5 14 -10 23 -10 28 0 110 -86 121 -127 16 -55 13 -148 -4 -191 -28 -68 -131 -141 -197 -142 l-28 0 0 240 0 240 39 0 c22 0 43 -4 46 -10z m-375 -1305 l0 -515 -45 0 -45 0 0 515 0 515 45 0 45 0 0 -515z m418 208 c25 -15 59 -45 76 -66 30 -37 31 -42 31 -136 0 -92 -2 -100 -29 -135 -35 -46 -120 -102 -169 -111 l-37 -7 0 247 0 248 41 -6 c23 -3 61 -18 87 -34z m-418 -1283 l0 -510 -45 0 -45 0 0 510 0 510 45 0 45 0 0 -510z m395 226 c44 -19 102 -77 121 -121 8 -19 14 -64 14 -100 0 -36 -6 -81 -14 -100 -30 -70 -131 -144 -198 -145 l-28 0 0 240 0 240 35 0 c20 0 51 -6 70 -14z"/>
<path d="M15428 2897 c-137 -29 -248 -56 -248 -62 0 -5 4 -16 9 -24 8 -12 50 -6 273 39 145 29 265 55 266 56 2 1 1 12 -3 23 -4 13 -14 21 -28 20 -12 0 -133 -24 -269 -52z"/>
<path d="M7770 2465 l0 -265 -660 0 -660 0 0 -25 0 -25 660 0 660 0 0 -515 0 -515 -660 0 -660 0 0 -25 0 -25 660 0 660 0 0 -265 0 -265 95 0 95 0 0 198 1 197 27 -32 c15 -17 55 -45 89 -62 89 -44 159 -43 251 3 117 59 170 155 159 287 -7 87 -35 139 -104 195 -59 48 -104 64 -183 64 -80 0 -124 -16 -185 -66 l-55 -44 0 362 0 362 32 -33 c57 -59 123 -85 208 -85 62 0 84 4 126 26 62 33 107 76 136 132 32 60 32 203 1 262 -30 56 -75 100 -134 129 -39 20 -63 25 -129 25 -92 0 -151 -23 -208 -81 l-32 -33 0 192 0 192 -95 0 -95 0 0 -265z m140 -295 l0 -510 -45 0 -45 0 0 510 0 510 45 0 45 0 0 -510z m366 235 c60 -18 127 -75 149 -127 17 -43 20 -136 4 -191 -19 -68 -135 -157 -205 -157 l-24 0 0 245 c0 196 3 245 13 245 7 0 36 -7 63 -15z m-366 -1310 l0 -515 -45 0 -45 0 0 515 0 515 45 0 45 0 0 -515z m375 232 c23 -6 52 -22 65 -34 13 -13 27 -23 31 -23 4 0 17 -17 29 -37 16 -27 24 -60 28 -109 5 -78 -7 -127 -40 -170 -30 -38 -116 -90 -160 -97 l-38 -6 0 245 0 244 23 0 c12 0 40 -6 62 -13z"/>
<path d="M15190 2705 l0 -25 400 0 400 0 0 25 0 25 -400 0 -400 0 0 -25z"/>
<path d="M15185 2609 c-4 -11 -5 -22 -3 -23 1 -1 121 -27 266 -56 223 -45 265 -51 273 -39 5 8 9 19 9 24 0 8 -490 115 -527 115 -6 0 -15 -9 -18 -21z"/>
<path d="M8978 2357 c-137 -29 -248 -56 -248 -62 0 -5 4 -16 9 -24 8 -12 50 -6 273 39 145 29 265 55 266 56 2 1 1 12 -3 23 -4 13 -14 21 -28 20 -12 0 -133 -24 -269 -52z"/>
<path d="M1320 1930 l0 -270 -660 0 -660 0 0 -25 0 -25 660 0 660 0 0 -270 0 -270 95 0 95 0 0 195 0 195 55 -44 c113 -93 255 -94 368 -3 74 60 107 128 107 223 0 124 -50 205 -159 260 -47 24 -69 29 -131 29 -63 0 -84 -5 -134 -30 -32 -16 -65 -40 -73 -52 -9 -13 -19 -23 -24 -23 -5 0 -9 86 -9 190 l0 190 -95 0 -95 0 0 -270z m140 -295 l0 -515 -45 0 -45 0 0 515 0 515 45 0 45 0 0 -515z m418 208 c25 -15 59 -45 76 -66 30 -37 31 -42 31 -136 0 -92 -2 -100 -29 -135 -35 -46 -120 -102 -169 -111 l-37 -7 0 247 0 248 41 -6 c23 -3 61 -18 87 -34z"/>
<path d="M8740 2175 l0 -25 400 0 400 0 0 25 0 25 -400 0 -400 0 0 -25z"/>
<path d="M8735 2069 c-4 -11 -5 -22 -3 -23 1 -1 121 -27 266 -56 223 -45 265 -51 273 -39 5 8 9 19 9 24 0 8 -490 115 -527 115 -6 0 -15 -9 -18 -21z"/>
<path d="M2528 1817 c-137 -29 -248 -54 -248 -57 0 -3 4 -11 9 -19 8 -12 52 -6 273 34 144 26 265 49 266 51 2 1 1 12 -3 23 -4 13 -14 21 -28 20 -12 0 -133 -24 -269 -52z"/>
<path d="M15428 1817 c-137 -29 -248 -54 -248 -57 0 -3 4 -11 9 -19 8 -12 52 -6 273 34 144 26 265 49 266 51 2 1 1 12 -3 23 -4 13 -14 21 -28 20 -12 0 -133 -24 -269 -52z"/>
<path d="M2290 1635 l0 -25 400 0 400 0 0 25 0 25 -400 0 -400 0 0 -25z"/>
<path d="M15190 1635 l0 -25 400 0 400 0 0 25 0 25 -400 0 -400 0 0 -25z"/>
<path d="M2285 1529 c-4 -11 -5 -22 -3 -23 10 -9 522 -97 534 -92 8 3 14 11 14 18 0 9 -82 30 -258 66 -141 28 -262 52 -269 52 -6 0 -15 -9 -18 -21z"/>
<path d="M15185 1529 c-4 -11 -5 -22 -3 -23 10 -9 522 -97 534 -92 8 3 14 11 14 18 0 9 -82 30 -258 66 -141 28 -262 52 -269 52 -6 0 -15 -9 -18 -21z"/>
<path d="M8978 1282 c-137 -25 -248 -51 -248 -57 0 -5 4 -16 9 -24 14 -21 543 86 539 109 -5 24 -40 21 -300 -28z"/>
<path d="M8740 1095 l0 -25 400 0 400 0 0 25 0 25 -400 0 -400 0 0 -25z"/>
<path d="M8736 994 c-4 -9 -5 -18 -4 -19 2 -1 121 -26 266 -55 223 -45 265 -51 273 -39 5 8 9 19 9 24 0 8 -501 107 -531 105 -4 0 -10 -7 -13 -16z"/>
<path d="M15428 747 c-137 -29 -248 -56 -248 -62 0 -5 4 -16 9 -24 8 -12 50 -6 273 39 145 29 265 55 266 56 2 1 1 12 -3 23 -4 13 -14 21 -28 20 -12 0 -133 -24 -269 -52z"/>
<path d="M15190 560 c0 -20 7 -20 400 -20 393 0 400 0 400 20 0 20 -7 20 -400 20 -393 0 -400 0 -400 -20z"/>
<path d="M15185 459 c-4 -11 -5 -22 -3 -23 1 -1 121 -27 266 -56 223 -45 265 -51 273 -39 5 8 9 19 9 24 0 8 -490 115 -527 115 -6 0 -15 -9 -18 -21z"/>
</g>
</g>
  <g id="id1:id1" transform="matrix(1.25,0,0,1.25,0.0,0.0)"><g transform="translate(0.000000,327.000000) scale(0.100000,-0.100000)" fill="#ffffff" stroke="none">
</g>
</g>
</svg>
