<?xml version="1.0" encoding="UTF-8" standalone="no"?>
<!-- Created with Inkscape (http://www.inkscape.org/) -->

<svg
   xmlns:dc="http://purl.org/dc/elements/1.1/"
   xmlns:cc="http://creativecommons.org/ns#"
   xmlns:rdf="http://www.w3.org/1999/02/22-rdf-syntax-ns#"
   xmlns:svg="http://www.w3.org/2000/svg"
   xmlns="http://www.w3.org/2000/svg"
   xmlns:inkscape="http://www.inkscape.org/namespaces/inkscape"
   version="1.1"
   width="100%"
   height="100%"
   viewBox="0 0 299.64861 350.37707"
   id="svg44575"
   xml:space="preserve"
   style="fill-rule:evenodd;stroke-linecap:round;stroke-linejoin:round"><metadata
     id="metadata44762"><rdf:RDF><cc:Work
         rdf:about=""><dc:format>image/svg+xml</dc:format><dc:type
           rdf:resource="http://purl.org/dc/dcmitype/StillImage" /></cc:Work></rdf:RDF></metadata><defs
     id="defs44577"><clipPath
       id="clipId0"><path
         d="M 0,600 800,600 800,0 0,0 z"
         inkscape:connector-curvature="0"
         id="path44580" /></clipPath></defs><g
     transform="translate(-249.78889,-124.99793)"
     clip-path="url(#clipId0)"
     id="g44582"
     style="fill:none;stroke:#000000;stroke-width:0.1" /><g
     transform="translate(-249.78889,-124.99793)"
     clip-path="url(#clipId0)"
     id="g44584"
     style="fill:#00ff00;stroke:none" /><g
     transform="translate(-249.78889,-124.99793)"
     clip-path="url(#clipId0)"
     id="g44746"
     style="fill:none;stroke:#00ff00;stroke-width:0.25" /><g
     transform="translate(-249.78889,-124.99793)"
     clip-path="url(#clipId0)"
     id="g44750"
     style="fill:#00ff00;stroke:none"><path
       d="m 340.6875,125.28125 c -40.46791,2.72235 -77.1909,32.96483 -87.31216,72.28286 -11.61166,39.97872 5.74226,86.08249 40.92481,108.37755 12.05256,8.02479 25.96571,13.22071 40.2936,15.24584 0,51.39583 0,102.79167 0,154.1875 9.78125,0 19.5625,0 29.34375,0 0,-51.46875 0,-102.9375 0,-154.40625 40.09199,-5.89366 74.2872,-38.90933 81.28657,-78.86441 C 453.78948,201.02257 432.4004,156.0959 395.13539,136.8049 378.5925,127.8161 359.39712,123.85735 340.6875,125.28125 z m 7.75,29.09375 c 32.44195,-0.55786 62.74899,24.66328 68.03604,56.68018 6.64644,32.38064 -13.64254,67.41794 -45.0295,77.78175 -30.94164,11.62146 -68.7126,-2.90369 -83.84753,-32.30188 -16.34235,-28.71869 -7.88774,-68.31922 18.76955,-87.85031 11.92037,-9.29594 26.98551,-14.25205 42.07144,-14.30974 z m 137.40625,69.21875 c -20.77083,55.94792 -41.54167,111.89583 -62.3125,167.84375 17.48958,0 34.97917,0 52.46875,0 0,27.97917 0,55.95833 0,83.9375 6.98958,0 13.97917,0 20.96875,0 0,-27.97917 0,-55.95833 0,-83.9375 17.48958,0 34.97917,0 52.46875,0 -21.19792,-55.94792 -42.39583,-111.89583 -63.59375,-167.84375 z"
       inkscape:connector-curvature="0"
       id="path44758" /></g></svg>