<?xml version="1.0" standalone="no"?>
<!DOCTYPE svg PUBLIC "-//W3C//DTD SVG 1.1//EN"
 "http://www.w3.org/Graphics/SVG/1.1/DTD/svg11.dtd">
<!-- Created with svg_stack (http://github.com/astraw/svg_stack) -->
<svg xmlns:sodipodi="http://sodipodi.sourceforge.net/DTD/sodipodi-0.dtd" xmlns="http://www.w3.org/2000/svg" version="1.1" width="510.0" height="1592.5">
  <defs/>
  <g id="id0:id0" transform="matrix(1.25,0,0,1.25,0.0,0.0)"><g transform="translate(0.000000,1274.000000) scale(0.100000,-0.100000)" fill="#000000" stroke="none">
<path d="M0 7373 c0 -3568 3 -5405 10 -5478 18 -189 67 -429 112 -545 31 -79 181 -379 224 -447 21 -32 69 -96 108 -143 328 -396 761 -650 1246 -729 156 -25 216 -31 338 -31 268 0 530 52 788 155 146 59 205 90 324 168 314 209 499 415 704 782 76 137 160 378 198 568 l23 112 3 5478 2 5477 -2040 0 -2040 0 0 -5367z m2040 4037 l0 -710 710 0 710 0 0 -865 0 -865 -710 0 -710 0 0 -870 0 -870 710 0 710 0 0 -865 0 -865 -710 0 -710 0 0 -710 0 -710 -66 0 c-62 0 -132 -8 -274 -31 -356 -58 -705 -220 -969 -448 -29 -25 -64 -54 -77 -64 l-24 -19 0 991 0 991 705 0 705 0 0 865 0 865 -705 0 -705 0 0 870 0 870 705 0 705 0 0 865 0 865 -705 0 -705 0 0 710 0 710 705 0 705 0 0 -710z m1420 -7766 c0 -142 7 -137 -77 -62 -37 33 -158 125 -223 170 -24 16 -18 17 138 17 l162 1 0 -126z m-1134 -208 c251 -50 529 -201 719 -391 318 -318 473 -804 394 -1235 -85 -466 -346 -822 -760 -1040 -108 -56 -266 -111 -379 -131 -110 -20 -422 -17 -529 4 -269 54 -531 195 -722 389 -178 181 -293 376 -366 624 l-47 159 0 225 0 225 47 158 c169 574 628 963 1217 1031 68 8 356 -4 426 -18z"/>
</g>
</g>
  <g id="id1:id1" transform="matrix(1.25,0,0,1.25,0.0,0.0)"><g transform="translate(0.000000,1274.000000) scale(0.100000,-0.100000)" fill="#ffffff" stroke="none">
</g>
</g>
</svg>
