<?xml version="1.0" encoding="UTF-8" standalone="no"?>
<svg
   xmlns:dc="http://purl.org/dc/elements/1.1/"
   xmlns:cc="http://creativecommons.org/ns#"
   xmlns:rdf="http://www.w3.org/1999/02/22-rdf-syntax-ns#"
   xmlns:svg="http://www.w3.org/2000/svg"
   xmlns="http://www.w3.org/2000/svg"
   xmlns:sodipodi="http://sodipodi.sourceforge.net/DTD/sodipodi-0.dtd"
   xmlns:inkscape="http://www.inkscape.org/namespaces/inkscape"
   viewBox="0 0 350.33789 350.48998"
   version="1.1"
   xml:space="preserve"
   id="svg24918"
   inkscape:version="0.48.3.1 r9886"
   width="100%"
   height="100%"
   sodipodi:docname="alkis3409.svg"
   style="fill-rule:evenodd;stroke-linecap:round;stroke-linejoin:round"><metadata
   id="metadata25573"><rdf:RDF><cc:Work
       rdf:about=""><dc:format>image/svg+xml</dc:format><dc:type
         rdf:resource="http://purl.org/dc/dcmitype/StillImage" /></cc:Work></rdf:RDF></metadata><sodipodi:namedview
   pagecolor="#ffffff"
   bordercolor="#666666"
   borderopacity="1"
   objecttolerance="10"
   gridtolerance="10"
   guidetolerance="10"
   inkscape:pageopacity="0"
   inkscape:pageshadow="2"
   inkscape:window-width="1855"
   inkscape:window-height="1025"
   id="namedview25571"
   showgrid="false"
   inkscape:zoom="2.2250293"
   inkscape:cx="176.06005"
   inkscape:cy="175.23985"
   inkscape:window-x="0"
   inkscape:window-y="33"
   inkscape:window-maximized="1"
   inkscape:current-layer="svg24918" />
<defs
   id="defs24920">
<clipPath
   id="clipId0">
<path
   d="M 0,600 800,600 800,0 0,0 z"
   id="path24923"
   inkscape:connector-curvature="0" />
</clipPath>
</defs>
<g
   clip-path="url(#clipId0)"
   id="g24925"
   style="fill:none;stroke:#000000;stroke-width:0.1"
   transform="translate(-224.83882,-124.74987)" />
<g
   clip-path="url(#clipId0)"
   id="g24927"
   transform="translate(-225.73768,-124.74987)"
   style="fill:#ffffff;stroke:none">













































































<path
   d="m 399.99261,133.09375 c -51.97133,-0.18041 -103.16831,25.46584 -133.91806,67.3996 -34.17902,45.22433 -42.49451,108.26482 -21.24495,160.81587 20.41263,52.86716 69.57516,93.23682 125.45342,102.81936 56.29977,10.71824 117.22373,-10.43951 154.78121,-53.73266 37.86111,-42.17945 51.44391,-104.31889 34.66638,-158.45733 -16.01704,-55.04024 -62.54315,-99.68872 -118.16916,-113.51558 -13.56542,-3.51209 -27.56519,-5.1503 -41.56884,-5.32926 z"
   id="path25083"
   inkscape:connector-curvature="0" />
</g>
<g
   clip-path="url(#clipId0)"
   id="g25085"
   style="fill:#000000;stroke:none"
   transform="translate(-224.83882,-124.74987)">
















































































</g>
<g
   clip-path="url(#clipId0)"
   id="g25247"
   style="fill:none;stroke:#000000;stroke-width:0.25"
   transform="translate(-224.83882,-124.74987)">
<polyline
   points="399.99,133.089 399.99,133.089 "
   id="polyline25249" />
</g>
<g
   clip-path="url(#clipId0)"
   id="g25251"
   style="fill:#000000;stroke:none"
   transform="translate(-224.83882,-124.74987)">






























































































































































<path
   d="m 399.65625,124.75 c -54.46983,-0.0695 -108.06546,26.83441 -140.31986,70.76686 -35.35714,47.00272 -44.5001,112.22971 -22.94209,167.01296 20.94225,56.4116 73.08422,99.64138 132.39148,109.81208 59.11844,11.27916 123.0829,-10.95667 162.51642,-56.41874 C 571.29285,371.40544 585.5191,305.6588 567.43644,248.60042 550.30318,190.8957 501.18361,144.30245 442.70193,130.09773 428.84554,126.62636 414.59068,124.94494 400.3125,124.75 c -0.33697,9.37743 -0.27028,10.05505 -0.65625,0 z M 400,141.4375 c 52.94472,-0.2264 104.94663,27.95317 133.22005,72.78531 31.74239,48.16634 33.65615,113.92394 4.65079,163.80753 -26.79679,48.63354 -80.86199,80.31095 -136.33003,80.47022 -54.15019,0.89341 -107.49195,-28.22937 -135.87766,-74.38276 -30.87672,-48.32529 -32.22679,-113.61109 -3.05885,-163.03209 27.14001,-48.44922 81.35923,-79.79769 136.84549,-79.62609 L 400,141.4375 z M 296.28125,267.65625 c -3.97917,6.88542 -7.95833,13.77083 -11.9375,20.65625 14.01104,7.69592 27.66526,16.72467 41.89766,23.59375 54.26328,0 108.52656,0 162.78984,0 8.86458,-5.11458 17.72917,-10.22917 26.59375,-15.34375 -3.96875,-6.88542 -7.9375,-13.77083 -11.90625,-20.65625 -7.77702,3.735 -14.8589,10.0684 -23.07657,12.15625 -49.66197,0 -99.32395,0 -148.98593,0 -11.79167,-6.80208 -23.58333,-13.60417 -35.375,-20.40625 z m 53.625,53.8125 c -16.10406,-0.74769 -27.3242,19.31649 -18.28125,32.65625 7.78235,14.12404 30.76101,13.22663 37.40625,-1.46875 7.44495,-13.77254 -3.44862,-31.5775 -19.125,-31.1875 z m 116.84375,0 c -16.10543,-0.76614 -27.34767,19.33051 -18.28125,32.65625 7.77186,14.14004 30.75679,13.2142 37.40625,-1.46875 7.42453,-13.78138 -3.43964,-31.56672 -19.125,-31.1875 z"
   id="path25569"
   inkscape:connector-curvature="0" />
</g>
</svg>