<?xml version="1.0" encoding="UTF-8" standalone="no"?>
<svg
   xmlns:dc="http://purl.org/dc/elements/1.1/"
   xmlns:cc="http://creativecommons.org/ns#"
   xmlns:rdf="http://www.w3.org/1999/02/22-rdf-syntax-ns#"
   xmlns:svg="http://www.w3.org/2000/svg"
   xmlns="http://www.w3.org/2000/svg"
   xmlns:sodipodi="http://sodipodi.sourceforge.net/DTD/sodipodi-0.dtd"
   xmlns:inkscape="http://www.inkscape.org/namespaces/inkscape"
   viewBox="0 0 434.65625 350.71875"
   version="1.1"
   xml:space="preserve"
   id="svg18491"
   inkscape:version="0.48.3.1 r9886"
   width="100%"
   height="100%"
   sodipodi:docname="alkis3462.svg"
   style="fill-rule:evenodd;stroke-linecap:round;stroke-linejoin:round"><metadata
   id="metadata18678"><rdf:RDF><cc:Work
       rdf:about=""><dc:format>image/svg+xml</dc:format><dc:type
         rdf:resource="http://purl.org/dc/dcmitype/StillImage" /></cc:Work></rdf:RDF></metadata><sodipodi:namedview
   pagecolor="#ffffff"
   bordercolor="#666666"
   borderopacity="1"
   objecttolerance="10"
   gridtolerance="10"
   guidetolerance="10"
   inkscape:pageopacity="0"
   inkscape:pageshadow="2"
   inkscape:window-width="1855"
   inkscape:window-height="1025"
   id="namedview18676"
   showgrid="false"
   inkscape:zoom="1.1125147"
   inkscape:cx="313.71773"
   inkscape:cy="329.6047"
   inkscape:window-x="0"
   inkscape:window-y="33"
   inkscape:window-maximized="1"
   inkscape:current-layer="svg18491" />
<defs
   id="defs18493">
<clipPath
   id="clipId0">
<path
   d="M 0,600 800,600 800,0 0,0 z"
   id="path18496"
   inkscape:connector-curvature="0" />
</clipPath>
</defs>
<g
   clip-path="url(#clipId0)"
   id="g18498"
   style="fill:none;stroke:#000000;stroke-width:0.1"
   transform="translate(-183.46875,-124.28125)" />
<g
   clip-path="url(#clipId0)"
   id="g18500"
   style="fill:#00ff00;stroke:none"
   transform="translate(-183.46875,-124.28125)">


















































































<path
   d="m 473.4375,124.28125 -8.1875,0.3125 -8.5625,1 -8.4375,1.6875 -8.3125,2.34375 -8.09375,3 -7.8125,3.59375 -7.53125,4.21875 -7.1875,4.78125 -6.75,5.34375 -6.34375,5.875 -5.84375,6.3125 -5.34375,6.78125 -4.78125,7.15625 -4.21875,7.53125 -3.625,7.84375 -2.96875,8.09375 -2.34375,8.28125 -1.6875,8.46875 -1,8.5625 -0.34375,8.625 0.34375,8.59375 1,8.5625 1.6875,8.46875 2.34375,8.3125 2.96875,8.0625 3.625,7.84375 4.21875,7.53125 4.78125,7.15625 5.34375,6.78125 5.84375,6.34375 6.34375,5.84375 6.75,5.34375 7.1875,4.78125 7.53125,4.21875 7.8125,3.59375 8.09375,3 8.3125,2.34375 8.4375,1.6875 8.5625,1 8.625,0.34375 144.25,0 0,-22.96875 -77.15625,0 4.21875,-3.34375 6.34375,-5.84375 5.84375,-6.34375 5.34375,-6.78125 4.8125,-7.15625 4.1875,-7.53125 3.625,-7.84375 2.96875,-8.0625 2.34375,-8.3125 1.6875,-8.46875 1.03125,-8.5625 0.3125,-8.59375 -0.3125,-8.625 -1.03125,-8.5625 -1.6875,-8.46875 -2.34375,-8.28125 -2.96875,-8.09375 -3.625,-7.84375 -4.1875,-7.53125 -4.8125,-7.15625 -5.34375,-6.78125 -5.84375,-6.3125 -6.34375,-5.875 -6.75,-5.34375 -7.1875,-4.78125 -7.5,-4.21875 -7.84375,-3.59375 -8.09375,-3 -8.28125,-2.34375 -8.46875,-1.6875 -8.5625,-1 -9.0625,-0.1875 0,-0.125 z m 0.4375,22.9375 6.8125,0.28125 6.78125,0.78125 6.6875,1.34375 6.5625,1.84375 6.40625,2.375 6.1875,2.84375 5.9375,3.34375 5.6875,3.78125 5.34375,4.21875 5.03125,4.625 4.625,5 4.21875,5.375 3.78125,5.65625 3.34375,5.96875 2.84375,6.1875 2.375,6.40625 1.84375,6.5625 1.3125,6.6875 0.8125,6.75 0.28125,6.84375 -0.28125,6.8125 -0.8125,6.75 -1.3125,6.6875 -1.84375,6.5625 -2.375,6.40625 -2.84375,6.1875 -3.34375,5.96875 -3.78125,5.65625 -4.21875,5.375 -4.625,5 -5.03125,4.625 -5.34375,4.21875 -5.6875,3.78125 -5.9375,3.34375 -6.1875,2.84375 -6.40625,2.375 -6.5625,1.84375 -6.6875,1.34375 -6.78125,0.78125 -6.8125,0.28125 -6.8125,-0.28125 -6.78125,-0.78125 -6.6875,-1.34375 -6.5625,-1.84375 -6.40625,-2.375 -6.1875,-2.84375 -5.9375,-3.34375 -5.6875,-3.78125 -5.34375,-4.21875 -5,-4.625 -4.625,-5 -4.25,-5.375 -3.78125,-5.65625 L 396.5,273.5 l -2.875,-6.1875 -2.34375,-6.40625 -1.875,-6.5625 -1.3125,-6.6875 -0.8125,-6.75 -0.25,-6.8125 0.25,-6.84375 0.8125,-6.75 1.3125,-6.6875 1.875,-6.5625 2.34375,-6.40625 2.875,-6.1875 3.3125,-5.96875 3.78125,-5.65625 4.25,-5.375 4.625,-5 5,-4.625 5.34375,-4.21875 5.6875,-3.78125 5.9375,-3.34375 6.1875,-2.84375 6.40625,-2.375 6.5625,-1.84375 6.6875,-1.34375 6.78125,-0.78125 6.8125,-0.28125 z M 270.625,158.03125 183.46875,475 l 231.40625,0 0,-22.9375 -63.375,0 -80.875,-294.03125 z m 0,86.53125 57.0625,207.5 -114.125,0 57.0625,-207.5 z"
   id="path18666"
   inkscape:connector-curvature="0" />
</g>
<g
   clip-path="url(#clipId0)"
   id="g18668"
   style="fill:none;stroke:#00ff00;stroke-width:0.25"
   transform="translate(-183.46875,-124.28125)">
<polyline
   points="473.878,135.739 473.878,135.739 "
   id="polyline18670" />
</g>
<g
   clip-path="url(#clipId0)"
   id="g18672"
   style="fill:#00ff00;stroke:none"
   transform="translate(-183.46875,-124.28125)">

</g>
</svg>