<?xml version="1.0" standalone="no"?>
<!DOCTYPE svg PUBLIC "-//W3C//DTD SVG 1.1//EN"
 "http://www.w3.org/Graphics/SVG/1.1/DTD/svg11.dtd">
<!-- Created with svg_stack (http://github.com/astraw/svg_stack) -->
<svg xmlns:sodipodi="http://sodipodi.sourceforge.net/DTD/sodipodi-0.dtd" xmlns="http://www.w3.org/2000/svg" version="1.1" width="1982.5" height="796.25">
  <defs/>
  <g id="id0:id0" transform="matrix(1.25,0,0,1.25,0.0,0.0)"><g transform="translate(0.000000,637.000000) scale(0.100000,-0.100000)" fill="#000000" stroke="none">
<path d="M2810 6350 c-223 -28 -456 -85 -730 -179 -414 -141 -930 -489 -1238 -836 -249 -279 -353 -430 -480 -686 -253 -514 -356 -938 -355 -1464 0 -515 104 -946 344 -1433 139 -281 240 -426 500 -717 215 -241 456 -430 793 -625 338 -194 773 -333 1216 -387 137 -17 408 -18 5070 -18 4677 0 4932 1 5070 18 541 67 1041 247 1430 515 264 182 409 307 579 497 238 267 329 393 463 640 119 220 142 271 191 420 98 299 139 469 173 717 24 170 24 574 0 748 -54 405 -156 736 -330 1076 -151 293 -237 417 -490 702 -239 268 -587 531 -926 700 -340 168 -691 271 -1077 316 -118 14 -670 16 -5100 15 -4636 -1 -4977 -3 -5103 -19z m10246 -694 c233 -37 316 -59 514 -138 377 -149 624 -312 895 -589 281 -287 459 -589 600 -1014 66 -201 105 -468 105 -727 0 -169 -4 -224 -30 -388 -42 -270 -101 -450 -244 -745 -123 -254 -247 -426 -456 -635 -180 -181 -500 -409 -687 -492 -308 -135 -536 -198 -838 -230 -183 -20 -9783 -19 -9970 1 -421 44 -799 179 -1134 403 -234 158 -386 296 -553 503 -238 296 -409 638 -491 980 -61 256 -77 378 -77 608 0 222 17 353 82 622 95 398 329 807 655 1146 267 276 573 461 1014 609 122 42 196 59 354 85 l200 33 4921 1 4921 1 219 -34z"/>
<path d="M5090 3180 l0 -340 2845 0 2845 0 0 340 0 340 -2845 0 -2845 0 0 -340z"/>
</g>
</g>
  <g id="id1:id1" transform="matrix(1.25,0,0,1.25,0.0,0.0)"><g transform="translate(0.000000,637.000000) scale(0.100000,-0.100000)" fill="#ffffff" stroke="none">
</g>
</g>
</svg>
