<?xml version="1.0" standalone="no"?>
<!DOCTYPE svg PUBLIC "-//W3C//DTD SVG 1.1//EN"
 "http://www.w3.org/Graphics/SVG/1.1/DTD/svg11.dtd">
<!-- Created with svg_stack (http://github.com/astraw/svg_stack) -->
<svg xmlns:sodipodi="http://sodipodi.sourceforge.net/DTD/sodipodi-0.dtd" xmlns="http://www.w3.org/2000/svg" version="1.1" width="1520.0" height="1591.25">
  <defs/>
  <g id="id0:id0" transform="matrix(1.25,0,0,1.25,0.0,0.0)"><g transform="translate(0.000000,1273.000000) scale(0.100000,-0.100000)" fill="#181512" stroke="none">
<path d="M9382 12617 c-225 -78 -321 -116 -317 -125 51 -134 534 -1626 528 -1631 -10 -9 -7233 -2421 -7249 -2421 -5 0 -133 366 -283 813 -151 446 -277 816 -282 821 -4 5 -151 -40 -341 -104 -183 -62 -334 -114 -335 -115 -2 -1 121 -367 272 -814 151 -446 275 -817 275 -824 0 -7 -337 -124 -823 -286 -452 -150 -823 -275 -825 -276 -4 -3 220 -659 229 -669 4 -4 1237 402 2741 903 1503 501 2736 911 2741 911 4 0 7 -481 7 -1069 l0 -1069 -67 -6 c-308 -31 -704 -156 -1070 -337 -531 -262 -924 -609 -1285 -1134 -97 -141 -275 -496 -343 -685 -162 -450 -209 -709 -209 -1160 1 -560 99 -963 369 -1517 136 -280 262 -463 509 -740 153 -173 408 -391 601 -515 491 -315 852 -448 1493 -547 187 -30 537 -30 725 -1 341 53 570 108 805 195 576 211 1063 569 1463 1075 380 479 606 1027 685 1660 24 186 24 604 0 785 -36 283 -95 527 -184 775 -150 412 -436 854 -771 1189 -281 282 -516 454 -833 609 -212 104 -305 141 -553 224 -178 59 -395 108 -542 123 l-73 7 0 1193 0 1193 2858 953 c1571 523 2858 953 2860 954 4 3 -220 659 -229 669 -4 4 -375 -114 -824 -264 -449 -150 -818 -270 -820 -269 -1 2 -126 371 -277 819 -181 537 -280 816 -289 817 -8 1 -159 -49 -337 -110z m-2997 -6672 c216 -23 411 -72 655 -163 190 -72 297 -129 530 -285 264 -177 533 -448 698 -702 140 -215 284 -526 333 -719 73 -287 103 -501 102 -741 0 -178 -3 -220 -31 -383 -61 -352 -125 -553 -256 -807 -147 -284 -266 -447 -486 -665 -208 -207 -420 -354 -738 -514 -147 -74 -411 -163 -597 -201 -286 -58 -744 -58 -1030 0 -311 64 -669 215 -945 398 -315 209 -669 592 -838 907 -68 127 -119 252 -191 467 -92 276 -125 488 -125 808 0 384 51 638 203 1020 124 310 295 561 570 835 172 171 293 265 536 415 190 117 535 248 795 301 210 42 575 56 815 29z"/>
</g>
</g>
  <g id="id1:id1" transform="matrix(1.25,0,0,1.25,0.0,0.0)"><g transform="translate(0.000000,1273.000000) scale(0.100000,-0.100000)" fill="#ffffff" stroke="none">
</g>
</g>
</svg>
