<?xml version="1.0" encoding="UTF-8" standalone="no"?>
<svg
   xmlns:dc="http://purl.org/dc/elements/1.1/"
   xmlns:cc="http://creativecommons.org/ns#"
   xmlns:rdf="http://www.w3.org/1999/02/22-rdf-syntax-ns#"
   xmlns:svg="http://www.w3.org/2000/svg"
   xmlns="http://www.w3.org/2000/svg"
   xmlns:sodipodi="http://sodipodi.sourceforge.net/DTD/sodipodi-0.dtd"
   xmlns:inkscape="http://www.inkscape.org/namespaces/inkscape"
   viewBox="0 0 348.0625 349.65625"
   version="1.1"
   xml:space="preserve"
   id="svg3716"
   inkscape:version="0.48.3.1 r9886"
   width="100%"
   height="100%"
   sodipodi:docname="alkis3548.svg"
   style="fill-rule:evenodd;stroke-linecap:round;stroke-linejoin:round"><metadata
   id="metadata3745"><rdf:RDF><cc:Work
       rdf:about=""><dc:format>image/svg+xml</dc:format><dc:type
         rdf:resource="http://purl.org/dc/dcmitype/StillImage" /></cc:Work></rdf:RDF></metadata><sodipodi:namedview
   pagecolor="#ffffff"
   bordercolor="#666666"
   borderopacity="1"
   objecttolerance="10"
   gridtolerance="10"
   guidetolerance="10"
   inkscape:pageopacity="0"
   inkscape:pageshadow="2"
   inkscape:window-width="1855"
   inkscape:window-height="1025"
   id="namedview3743"
   showgrid="false"
   inkscape:zoom="1.5733333"
   inkscape:cx="174.14619"
   inkscape:cy="174.6875"
   inkscape:window-x="0"
   inkscape:window-y="33"
   inkscape:window-maximized="1"
   inkscape:current-layer="svg3716" />
<defs
   id="defs3718">
<clipPath
   id="clipId0">
<path
   d="M 0,600 800,600 800,0 0,0 z"
   id="path3721"
   inkscape:connector-curvature="0" />
</clipPath>
</defs>
<g
   clip-path="url(#clipId0)"
   id="g3723"
   style="fill:none;stroke:#000000;stroke-width:0.1"
   transform="translate(-227.125,-125.03125)" />
<g
   clip-path="url(#clipId0)"
   id="g3725"
   style="fill:#000000;stroke:none"
   transform="translate(-227.125,-125.03125)">







<path
   style="fill-rule:nonzero"
   d="m 310.09375,125.03125 -82.96875,47.90625 82.96875,47.875 0,-33.5 76.6875,0 0,98.96875 -159.65625,0 0,174.03125 0.39195,13.98305 13.98305,0.39195 333.6875,0 0,-188.40625 -159.65625,0 0,-98.96875 76.6875,0 0,33.5 82.96875,-47.875 -82.96875,-47.90625 0,33.53125 -182.125,0 z m -54.21875,190 290.5625,0 0,130.90625 -290.5625,0 z"
   id="path3741"
   inkscape:connector-curvature="0"
   sodipodi:nodetypes="cccccccccccccccccccccccccc" />
</g>
</svg>