<?xml version="1.0" standalone="no"?>
<!DOCTYPE svg PUBLIC "-//W3C//DTD SVG 1.1//EN"
 "http://www.w3.org/Graphics/SVG/1.1/DTD/svg11.dtd">
<!-- Created with svg_stack (http://github.com/astraw/svg_stack) -->
<svg xmlns:sodipodi="http://sodipodi.sourceforge.net/DTD/sodipodi-0.dtd" xmlns="http://www.w3.org/2000/svg" version="1.1" width="1591.25" height="1593.75">
  <defs/>
  <g id="id0:id0" transform="matrix(1.25,0,0,1.25,0.0,0.0)"><g transform="translate(0.000000,1275.000000) scale(0.100000,-0.100000)" fill="#999999" stroke="none">
<path d="M5620 10463 l0 -2288 -865 865 -865 865 -525 -525 -525 -525 867 -867 868 -868 -2288 0 -2287 0 0 -745 0 -745 2282 0 2283 0 -863 -863 -862 -862 525 -525 525 -525 865 865 865 865 0 -2293 0 -2292 740 0 740 0 0 2297 0 2298 870 -870 870 -870 525 525 525 525 -862 862 -863 863 2283 0 2282 0 0 745 0 745 -2287 0 -2288 0 868 868 867 867 -525 525 -525 525 -870 -870 -870 -870 0 2293 0 2292 -740 0 -740 0 0 -2287z"/>
</g>
</g>
  <g id="id1:id1" transform="matrix(1.25,0,0,1.25,0.0,0.0)"><g transform="translate(0.000000,1275.000000) scale(0.100000,-0.100000)" fill="#ffffff" stroke="none">
</g>
</g>
</svg>
