<?xml version="1.0" standalone="no"?>
<!DOCTYPE svg PUBLIC "-//W3C//DTD SVG 1.1//EN"
 "http://www.w3.org/Graphics/SVG/1.1/DTD/svg11.dtd">
<!-- Created with svg_stack (http://github.com/astraw/svg_stack) -->
<svg xmlns:sodipodi="http://sodipodi.sourceforge.net/DTD/sodipodi-0.dtd" xmlns="http://www.w3.org/2000/svg" version="1.1" width="1391.25" height="1596.25">
  <defs/>
  <g id="id0:id0" transform="matrix(1.25,0,0,1.25,0.0,0.0)"><g transform="translate(0.000000,1277.000000) scale(0.100000,-0.100000)" fill="#000000" stroke="none">
<path d="M1590 12566 l0 -204 -67 -12 c-165 -30 -375 -113 -506 -200 l-91 -61 -143 143 -143 143 -120 -120 -120 -120 144 -145 144 -145 -39 -50 c-97 -124 -207 -395 -225 -554 l-7 -61 -208 0 -209 0 0 -170 0 -170 209 0 209 0 7 -56 c19 -153 114 -392 211 -532 24 -35 44 -66 44 -71 0 -4 -63 -73 -139 -152 l-140 -146 121 -119 120 -119 141 147 142 147 85 -55 c161 -105 278 -156 463 -200 l117 -28 0 -203 0 -203 170 0 170 0 0 203 0 203 118 28 c64 15 137 35 162 43 64 22 264 127 329 173 l55 40 142 -148 141 -147 127 119 127 120 -145 145 c-80 81 -146 149 -146 153 0 4 20 35 44 70 103 150 175 326 209 516 l12 67 1143 3 1142 2 -2 -3827 -3 -3827 -105 -17 c-114 -19 -290 -75 -412 -132 -165 -76 -382 -243 -505 -389 -142 -169 -180 -228 -270 -433 -55 -124 -67 -164 -98 -340 -41 -229 -31 -463 31 -710 27 -110 124 -322 201 -442 112 -175 330 -382 526 -498 123 -74 307 -148 457 -186 133 -33 138 -34 355 -33 214 1 224 1 355 34 339 83 621 254 855 519 142 161 230 320 303 541 137 415 101 844 -104 1252 -129 256 -446 562 -710 684 -125 58 -300 114 -414 132 l-105 17 -3 3828 -2 3827 1138 0 1138 0 12 -72 c22 -146 113 -359 219 -520 l47 -69 -147 -147 -147 -147 120 -120 120 -120 148 147 147 147 85 -55 c175 -115 356 -187 553 -221 l27 -5 0 -204 0 -204 170 0 170 0 0 203 0 202 83 22 c45 12 108 27 139 33 63 12 299 128 388 191 l54 39 142 -148 142 -147 120 119 121 119 -140 146 c-76 79 -139 148 -139 152 0 5 20 36 44 71 96 138 192 382 212 536 l7 52 208 0 209 0 0 170 0 170 -210 0 -210 0 0 25 c0 130 -128 460 -229 590 l-39 50 144 145 144 145 -120 120 -120 120 -144 -144 -143 -143 -49 38 c-60 45 -261 143 -366 178 -42 13 -115 32 -162 42 l-86 17 0 203 0 204 -170 0 -170 0 0 -204 0 -204 -46 -7 c-151 -22 -389 -115 -526 -204 l-93 -60 -50 47 c-27 26 -94 90 -148 142 l-97 95 -121 -120 -121 -120 146 -140 c80 -78 146 -144 146 -147 0 -4 -20 -36 -45 -71 -62 -89 -169 -312 -194 -405 -11 -42 -23 -103 -27 -134 l-7 -58 -2453 0 c-2327 0 -2453 1 -2458 18 -3 9 -10 45 -16 79 -31 178 -121 392 -219 518 l-38 50 150 145 150 145 -127 119 -127 120 -143 -143 -143 -143 -45 34 c-127 97 -367 197 -550 228 l-68 12 0 204 0 204 -170 0 -170 0 0 -204z m326 -551 c140 -19 157 -24 290 -90 268 -135 454 -360 541 -655 26 -87 28 -109 28 -255 0 -189 -18 -268 -94 -430 -51 -108 -169 -266 -263 -349 -99 -90 -270 -174 -438 -217 -138 -35 -317 -33 -450 4 -178 49 -333 127 -430 214 -92 83 -210 240 -261 348 -52 113 -63 153 -84 314 -14 103 -13 128 1 240 9 70 27 160 41 201 85 252 272 463 517 584 126 62 166 74 286 91 119 17 189 17 316 0z m7611 0 c56 -8 128 -23 160 -34 156 -52 360 -191 456 -309 62 -77 172 -270 182 -322 4 -19 13 -46 20 -60 32 -62 45 -304 25 -445 -23 -153 -117 -352 -237 -496 -75 -92 -106 -119 -201 -183 -88 -58 -195 -104 -328 -142 -191 -53 -420 -35 -619 49 -147 62 -225 115 -340 231 -103 104 -114 119 -173 236 -80 160 -111 274 -119 436 -6 133 8 228 54 364 35 104 119 261 173 322 87 100 223 202 353 266 135 66 144 69 272 87 123 17 202 17 322 0z m-3687 -9196 c152 -31 331 -114 485 -224 84 -60 213 -196 270 -284 79 -122 160 -305 183 -411 48 -223 48 -376 1 -597 -58 -271 -236 -537 -479 -718 -115 -85 -193 -126 -330 -173 -164 -56 -231 -67 -410 -66 -168 0 -219 8 -380 59 -144 45 -200 72 -305 146 -297 211 -492 508 -551 839 -18 100 -17 317 1 421 58 331 269 649 554 834 166 108 364 178 556 199 89 9 303 -4 405 -25z"/>
</g>
</g>
  <g id="id1:id1" transform="matrix(1.25,0,0,1.25,0.0,0.0)"><g transform="translate(0.000000,1277.000000) scale(0.100000,-0.100000)" fill="#ffffff" stroke="none">
</g>
</g>
</svg>
