<?xml version="1.0" encoding="UTF-8" standalone="no"?>
<svg
   xmlns:dc="http://purl.org/dc/elements/1.1/"
   xmlns:cc="http://creativecommons.org/ns#"
   xmlns:rdf="http://www.w3.org/1999/02/22-rdf-syntax-ns#"
   xmlns:svg="http://www.w3.org/2000/svg"
   xmlns="http://www.w3.org/2000/svg"
   xmlns:sodipodi="http://sodipodi.sourceforge.net/DTD/sodipodi-0.dtd"
   xmlns:inkscape="http://www.inkscape.org/namespaces/inkscape"
   viewBox="0 0 369.941 351.833"
   version="1.1"
   xml:space="preserve"
   id="svg188402"
   inkscape:version="0.48.3.1 r9886"
   width="100%"
   height="100%"
   sodipodi:docname="alkis3503.svg"
   style="fill-rule:evenodd;stroke-linecap:round;stroke-linejoin:round"><metadata
   id="metadata188749"><rdf:RDF><cc:Work
       rdf:about=""><dc:format>image/svg+xml</dc:format><dc:type
         rdf:resource="http://purl.org/dc/dcmitype/StillImage" /></cc:Work></rdf:RDF></metadata><sodipodi:namedview
   pagecolor="#ffffff"
   bordercolor="#666666"
   borderopacity="1"
   objecttolerance="10"
   gridtolerance="10"
   guidetolerance="10"
   inkscape:pageopacity="0"
   inkscape:pageshadow="2"
   inkscape:window-width="1855"
   inkscape:window-height="1025"
   id="namedview188747"
   showgrid="false"
   inkscape:zoom="1.5733333"
   inkscape:cx="103.91907"
   inkscape:cy="148.08935"
   inkscape:window-x="0"
   inkscape:window-y="33"
   inkscape:window-maximized="1"
   inkscape:current-layer="svg188402" />
<defs
   id="defs188404">
<clipPath
   id="clipId0">
<path
   d="M 0,600 800,600 800,0 0,0 z"
   id="path188407"
   inkscape:connector-curvature="0" />
</clipPath>
</defs>
<g
   clip-path="url(#clipId0)"
   id="g188409"
   style="fill:none;stroke:#000000;stroke-width:0.1"
   transform="translate(-215.247,-124.135)" />
<g
   clip-path="url(#clipId0)"
   id="g188411"
   style="fill:#000000;stroke:none"
   transform="translate(-215.247,-124.135)">
<path
   d="m 436.741,306.754 -73.048,0 0,-182.619 73.048,0 z"
   id="path188413"
   inkscape:connector-curvature="0" />
<path
   d="m 411.504,341.49 -22.574,-69.472 173.684,-56.436 22.574,69.473 z"
   id="path188415"
   inkscape:connector-curvature="0" />
<path
   d="m 370.669,328.222 59.097,-42.936 107.343,147.745 -59.096,42.937 z"
   id="path188417"
   inkscape:connector-curvature="0" />
<path
   d="m 370.669,285.286 59.097,42.936 -107.344,147.746 -59.097,-42.937 z"
   id="path188419"
   inkscape:connector-curvature="0" />
<path
   d="M 411.504,272.018 388.93,341.49 215.247,285.055 237.821,215.582 z"
   id="path188421"
   inkscape:connector-curvature="0" />
</g>
<g
   clip-path="url(#clipId0)"
   id="g188423"
   style="fill:#ffffff;stroke:#000000;stroke-width:0.1;stroke-opacity:1"
   transform="translate(-215.247,-124.135)">













































































<path
   style="stroke:#000000;stroke-opacity:1"
   d="m 400.21875,197.1875 c -33.91254,-0.10802 -67.32473,16.5063 -87.5466,43.75459 -22.71458,29.72799 -28.3694,71.39507 -14.29328,106.07613 13.52786,35.10026 46.40581,61.75358 83.54837,67.72768 36.42918,6.43981 75.59336,-7.21787 99.97304,-35.07786 25.35562,-27.81104 34.31624,-69.18217 23.01505,-105.05065 -10.67601,-35.86914 -41.09496,-64.91802 -77.42294,-73.92081 -8.89896,-2.33965 -18.08321,-3.36332 -27.27364,-3.50908 z"
   id="path188579"
   inkscape:connector-curvature="0" />
</g>
<g
   clip-path="url(#clipId0)"
   id="g188581"
   style="fill:#000000;stroke:none"
   transform="translate(-215.247,-124.135)">















































































<path
   d="m 399.625,181.96875 c -41.23424,0.0191 -81.71938,21.8954 -103.90625,56.71875 -23.87166,35.87189 -26.83693,84.34309 -7.5625,122.875 18.46377,38.69399 58.22895,65.94557 100.9375,69.4375 42.18122,4.10427 85.64306,-15.20207 110.84375,-49.28125 25.71521,-33.6793 32.2278,-80.78116 16.53125,-120.15625 -15.08206,-39.85646 -52.049,-70.34727 -94.0625,-77.53125 -7.11752,-1.36906 -14.35482,-1.88207 -21.59375,-2.0625 0.37494,15.27642 -0.64687,13.85699 -1.1875,0 z m 0.59375,30.4375 C 434.60203,212.17646 468.09611,232.34988 483.75,263 c 16.43094,30.6282 13.76344,70.19982 -6.625,98.34375 -20.94488,30.2247 -60.61178,45.74292 -96.5,37.625 -34.30414,-6.89697 -63.24332,-34.53957 -71.6875,-68.5 -9.6883,-35.47665 3.99694,-75.84228 33.3125,-98.0625 16.35439,-12.92348 37.15682,-19.92474 57.96875,-20 z"
   id="path188741"
   inkscape:connector-curvature="0" />
</g>
<g
   clip-path="url(#clipId0)"
   id="g188743"
   style="fill:none;stroke:#000000;stroke-width:0.25"
   transform="translate(-215.247,-124.135)">
<polyline
   points="400.217,197.182 400.217,197.182 "
   id="polyline188745" />
</g>
</svg>