<?xml version="1.0" standalone="no"?>
<!DOCTYPE svg PUBLIC "-//W3C//DTD SVG 1.1//EN"
 "http://www.w3.org/Graphics/SVG/1.1/DTD/svg11.dtd">
<!-- Created with svg_stack (http://github.com/astraw/svg_stack) -->
<svg xmlns:sodipodi="http://sodipodi.sourceforge.net/DTD/sodipodi-0.dtd" xmlns="http://www.w3.org/2000/svg" version="1.1" width="1980.0" height="395.0">
  <defs/>
  <g id="id0:id0" transform="matrix(1.25,0,0,1.25,0.0,0.0)"><g transform="translate(0.000000,316.000000) scale(0.100000,-0.100000)" fill="#000000" stroke="none">
<path d="M1973 2367 l-1973 -792 1973 -787 c1084 -433 1975 -788 1980 -788 4 0 7 301 7 670 l0 670 5940 0 5940 0 0 235 0 235 -5940 0 -5940 0 0 675 c0 371 -3 675 -7 675 -5 0 -896 -357 -1980 -793z"/>
</g>
</g>
  <g id="id1:id1" transform="matrix(1.25,0,0,1.25,0.0,0.0)"><g transform="translate(0.000000,316.000000) scale(0.100000,-0.100000)" fill="#ffffff" stroke="none">
</g>
</g>
</svg>
