<?xml version="1.0" encoding="UTF-8" standalone="no"?>
<svg
   xmlns:dc="http://purl.org/dc/elements/1.1/"
   xmlns:cc="http://creativecommons.org/ns#"
   xmlns:rdf="http://www.w3.org/1999/02/22-rdf-syntax-ns#"
   xmlns:svg="http://www.w3.org/2000/svg"
   xmlns="http://www.w3.org/2000/svg"
   xmlns:sodipodi="http://sodipodi.sourceforge.net/DTD/sodipodi-0.dtd"
   xmlns:inkscape="http://www.inkscape.org/namespaces/inkscape"
   viewBox="0 0 121.03125 351.18972"
   version="1.1"
   xml:space="preserve"
   id="svg2"
   inkscape:version="0.48.3.1 r9886"
   width="100%"
   height="100%"
   sodipodi:docname="alkis3558.svg"
   style="fill-rule:evenodd;stroke-linecap:round;stroke-linejoin:round"><metadata
   id="metadata189"><rdf:RDF><cc:Work
       rdf:about=""><dc:format>image/svg+xml</dc:format><dc:type
         rdf:resource="http://purl.org/dc/dcmitype/StillImage" /></cc:Work></rdf:RDF></metadata><sodipodi:namedview
   pagecolor="#ffffff"
   bordercolor="#666666"
   borderopacity="1"
   objecttolerance="10"
   gridtolerance="10"
   guidetolerance="10"
   inkscape:pageopacity="0"
   inkscape:pageshadow="2"
   inkscape:window-width="1855"
   inkscape:window-height="1025"
   id="namedview187"
   showgrid="false"
   inkscape:zoom="1.1125147"
   inkscape:cx="127.43231"
   inkscape:cy="233.50116"
   inkscape:window-x="0"
   inkscape:window-y="33"
   inkscape:window-maximized="1"
   inkscape:current-layer="svg2" />
<defs
   id="defs4">
<clipPath
   id="clipId0">
<path
   d="M 0,600 800,600 800,0 0,0 z"
   id="path7"
   inkscape:connector-curvature="0" />
</clipPath>
</defs>
<g
   clip-path="url(#clipId0)"
   id="g9"
   style="fill:none;stroke:#000000;stroke-width:0.1"
   transform="translate(-337.375,-124.25)" />
<g
   clip-path="url(#clipId0)"
   id="g11"
   style="fill:#000000;stroke:none"
   transform="translate(-337.375,-124.25)">
















































































</g>
<g
   clip-path="url(#clipId0)"
   id="g173"
   style="fill:none;stroke:#000000;stroke-width:0.25"
   transform="translate(-337.375,-124.25)">
<path
   style="fill:#000000;fill-opacity:1"
   d="M 458.28125,124.375 C 432.81638,124.59228 378.932,124.26709 337.5,124.5 c 18.12956,30.49756 37.7668,65.70965 55.625,96.375 l 0,166.875 c -22.48028,1.86576 -40.81189,23.35131 -39.125,45.84375 0.59573,22.91388 21.68824,42.64525 44.59375,41.6875 22.73713,0.16458 43.04843,-19.92232 43.125,-42.65625 1.1513,-22.16825 -17.05903,-43.03614 -39.1875,-44.875 l 0,-166.84375 55.75,-96.53125 z m -104.5625,9.40625 88.25,0 -44.125,76.4375 -44.125,-76.4375 z m 43.9375,263.09375 c 19.31218,-0.59941 36.39474,17.46596 34.59375,36.71875 -0.67932,19.43629 -20.18826,35.25051 -39.34375,31.9375 -19.29958,-2.22876 -33.5316,-22.89237 -28.71875,-41.71875 3.21843,-15.38089 17.76848,-27.03738 33.46875,-26.9375 z"
   id="polyline175"
   inkscape:connector-curvature="0" />
</g>
<g
   clip-path="url(#clipId0)"
   id="g177"
   style="fill:#000000;stroke:none"
   transform="translate(-337.375,-124.25)">




</g>
</svg>