<?xml version="1.0" encoding="UTF-8" standalone="no"?>
<!-- Created with Inkscape (http://www.inkscape.org/) -->

<svg
   xmlns:dc="http://purl.org/dc/elements/1.1/"
   xmlns:cc="http://creativecommons.org/ns#"
   xmlns:rdf="http://www.w3.org/1999/02/22-rdf-syntax-ns#"
   xmlns:svg="http://www.w3.org/2000/svg"
   xmlns="http://www.w3.org/2000/svg"
   xmlns:inkscape="http://www.inkscape.org/namespaces/inkscape"
   version="1.1"
   width="100%"
   height="100%"
   viewBox="0 0 794.51693 210.462"
   id="svg2"
   xml:space="preserve"
   style="fill-rule:evenodd;stroke-linecap:round;stroke-linejoin:round"><metadata
     id="metadata41"><rdf:RDF><cc:Work
         rdf:about=""><dc:format>image/svg+xml</dc:format><dc:type
           rdf:resource="http://purl.org/dc/dcmitype/StillImage" /></cc:Work></rdf:RDF></metadata><defs
     id="defs4"><clipPath
       id="clipId0"><path
         d="M 0,600 800,600 800,0 0,0 z"
         inkscape:connector-curvature="0"
         id="path7" /></clipPath></defs><g
     transform="translate(-2.57007,-194.404)"
     clip-path="url(#clipId0)"
     id="g9"
     style="fill:none;stroke:#000000;stroke-width:0.1" /><g
     transform="translate(-2.57007,-194.404)"
     clip-path="url(#clipId0)"
     id="g11"
     style="fill:#00cccc;stroke:none"><path
       d="m 2.57007,303.439 0,-7.607 118.33193,0 0,7.607 z"
       inkscape:connector-curvature="0"
       id="path13" /><path
       d="m 171.616,252.725 0,-7.607 118.332,0 0,7.607 z"
       inkscape:connector-curvature="0"
       id="path15" /><path
       d="m 171.616,303.439 0,-7.607 118.332,0 0,7.607 z"
       inkscape:connector-curvature="0"
       id="path17" /><path
       d="m 171.616,354.153 0,-7.608 118.332,0 0,7.608 z"
       inkscape:connector-curvature="0"
       id="path19" /><path
       d="m 340.662,202.011 0,-7.607 118.333,0 0,7.607 z"
       inkscape:connector-curvature="0"
       id="path21" /><path
       d="m 340.662,252.725 0,-7.607 118.333,0 0,7.607 z"
       inkscape:connector-curvature="0"
       id="path23" /><path
       d="m 340.662,303.439 0,-7.607 118.333,0 0,7.607 z"
       inkscape:connector-curvature="0"
       id="path25" /><path
       d="m 340.662,354.153 0,-7.608 118.333,0 0,7.608 z"
       inkscape:connector-curvature="0"
       id="path27" /><path
       d="m 340.662,404.866 0,-7.607 118.333,0 0,7.607 z"
       inkscape:connector-curvature="0"
       id="path29" /><path
       d="m 509.708,252.725 0,-7.607 118.333,0 0,7.607 z"
       inkscape:connector-curvature="0"
       id="path31" /><path
       d="m 509.708,303.439 0,-7.607 118.333,0 0,7.607 z"
       inkscape:connector-curvature="0"
       id="path33" /><path
       d="m 509.708,354.153 0,-7.608 118.333,0 0,7.608 z"
       inkscape:connector-curvature="0"
       id="path35" /><path
       d="m 678.755,303.439 0,-7.607 118.332,0 0,7.607 z"
       inkscape:connector-curvature="0"
       id="path37" /></g></svg>