<?xml version="1.0" standalone="no"?>
<!DOCTYPE svg PUBLIC "-//W3C//DTD SVG 1.1//EN"
 "http://www.w3.org/Graphics/SVG/1.1/DTD/svg11.dtd">
<!-- Created with svg_stack (http://github.com/astraw/svg_stack) -->
<svg xmlns:sodipodi="http://sodipodi.sourceforge.net/DTD/sodipodi-0.dtd" xmlns="http://www.w3.org/2000/svg" version="1.1" width="957.5" height="1591.25">
  <defs/>
  <g id="id0:id0" transform="matrix(1.25,0,0,1.25,0.0,0.0)"><g transform="translate(0.000000,1273.000000) scale(0.100000,-0.100000)" fill="#00ff00" stroke="none">
<path d="M1914 7954 c-1050 -2627 -1911 -4780 -1912 -4785 -2 -5 697 -9 1682 -9 l1686 0 0 -1120 0 -1120 -820 0 -820 0 0 -460 0 -460 2100 0 2100 0 0 460 0 460 -820 0 -820 0 0 1120 0 1120 1686 0 c985 0 1684 4 1682 9 -61 164 -3824 9561 -3828 9561 -4 0 -866 -2149 -1916 -4776z m3152 -780 c676 -1692 1231 -3080 1232 -3085 2 -5 -1029 -9 -2468 -9 -1439 0 -2470 4 -2468 9 64 172 2464 6161 2468 6161 4 0 560 -1384 1236 -3076z"/>
</g>
</g>
  <g id="id1:id1" transform="matrix(1.25,0,0,1.25,0.0,0.0)"><g transform="translate(0.000000,1273.000000) scale(0.100000,-0.100000)" fill="#ffffff" stroke="none">
</g>
</g>
</svg>
