<?xml version="1.0" standalone="no"?>
<!DOCTYPE svg PUBLIC "-//W3C//DTD SVG 1.1//EN"
 "http://www.w3.org/Graphics/SVG/1.1/DTD/svg11.dtd">
<!-- Created with svg_stack (http://github.com/astraw/svg_stack) -->
<svg xmlns:sodipodi="http://sodipodi.sourceforge.net/DTD/sodipodi-0.dtd" xmlns="http://www.w3.org/2000/svg" version="1.1" width="1985.0" height="513.75">
  <defs/>
  <g id="id0:id0" transform="matrix(1.25,0,0,1.25,0.0,0.0)"><g transform="translate(0.000000,411.000000) scale(0.100000,-0.100000)" fill="#999999" stroke="none">
<path d="M3530 4085 c-950 -106 -1807 -404 -2610 -905 -228 -143 -488 -337 -747 -558 -150 -127 -170 -148 -159 -162 264 -303 709 -806 714 -807 4 -2 70 54 147 123 387 349 789 605 1314 838 314 140 772 277 1091 327 613 97 1037 103 1600 25 469 -65 1061 -251 1460 -458 449 -233 596 -330 975 -637 104 -85 402 -324 660 -531 451 -360 479 -380 685 -502 393 -232 877 -447 1295 -576 259 -79 598 -154 915 -202 593 -89 1317 -79 1870 27 556 106 858 195 1380 408 499 203 1146 610 1587 998 151 132 171 153 159 166 -273 314 -709 807 -714 808 -4 2 -70 -54 -147 -123 -302 -272 -550 -445 -959 -668 -326 -178 -661 -306 -1111 -425 -613 -161 -1245 -193 -1935 -97 -577 80 -1249 315 -1760 614 -146 85 -218 139 -615 456 -247 198 -457 368 -465 377 -45 50 -381 313 -545 426 -535 369 -1095 640 -1695 821 -653 197 -1116 263 -1850 261 -279 -1 -369 -5 -540 -24z"/>
</g>
</g>
  <g id="id1:id1" transform="matrix(1.25,0,0,1.25,0.0,0.0)"><g transform="translate(0.000000,411.000000) scale(0.100000,-0.100000)" fill="#ffffff" stroke="none">
</g>
</g>
</svg>
