<?xml version="1.0" standalone="no"?>
<!DOCTYPE svg PUBLIC "-//W3C//DTD SVG 1.1//EN"
 "http://www.w3.org/Graphics/SVG/1.1/DTD/svg11.dtd">
<!-- Created with svg_stack (http://github.com/astraw/svg_stack) -->
<svg xmlns:sodipodi="http://sodipodi.sourceforge.net/DTD/sodipodi-0.dtd" xmlns="http://www.w3.org/2000/svg" version="1.1" width="1460.0" height="1588.75">
  <defs/>
  <g id="id0:id0" transform="matrix(1.25,0,0,1.25,0.0,0.0)"><g transform="translate(0.000000,1271.000000) scale(0.100000,-0.100000)" fill="#000000" stroke="none">
<path d="M2760 11920 l0 -790 395 0 395 0 0 790 0 790 -395 0 -395 0 0 -790z"/>
<path d="M8130 11920 l0 -790 395 0 395 0 0 790 0 790 -395 0 -395 0 0 -790z"/>
<path d="M927 11782 l-277 -277 555 -555 555 -555 280 280 280 280 -552 552 c-304 304 -555 553 -558 553 -3 0 -130 -125 -283 -278z"/>
<path d="M4547 11507 l-558 -552 280 -279 280 -280 561 554 561 554 -278 278 c-153 153 -280 278 -283 278 -3 -1 -256 -249 -563 -553z"/>
<path d="M6287 11782 l-278 -278 561 -554 561 -554 280 280 280 280 -559 552 c-308 304 -561 552 -563 552 -2 0 -129 -125 -282 -278z"/>
<path d="M9912 11507 l-552 -552 280 -280 280 -280 555 555 555 555 -277 277 c-153 153 -280 278 -283 278 -3 0 -254 -249 -558 -553z"/>
<path d="M5065 10010 c19 -31 768 -915 775 -915 7 0 756 884 775 915 4 7 -248 10 -775 10 -527 0 -779 -3 -775 -10z"/>
<path d="M0 9550 l0 -390 790 0 790 0 0 390 0 390 -790 0 -790 0 0 -390z"/>
<path d="M10100 9550 l0 -390 790 0 790 0 0 390 0 390 -790 0 -790 0 0 -390z"/>
<path d="M0 7975 l0 -395 790 0 790 0 0 395 0 395 -790 0 -790 0 0 -395z"/>
<path d="M10100 7975 l0 -395 790 0 790 0 0 395 0 395 -790 0 -790 0 0 -395z"/>
<path d="M5450 4380 l0 -3590 -1385 0 -1385 0 0 -395 0 -395 3160 0 3160 0 0 395 0 395 -1385 0 -1385 0 0 3590 0 3590 -390 0 -390 0 0 -3590z"/>
<path d="M0 5135 l0 -395 790 0 790 0 0 395 0 395 -790 0 -790 0 0 -395z"/>
<path d="M10100 5135 l0 -395 790 0 790 0 0 395 0 395 -790 0 -790 0 0 -395z"/>
</g>
</g>
  <g id="id1:id1" transform="matrix(1.25,0,0,1.25,0.0,0.0)"><g transform="translate(0.000000,1271.000000) scale(0.100000,-0.100000)" fill="#ffffff" stroke="none">
</g>
</g>
</svg>
