<?xml version="1.0" standalone="no"?>
<!DOCTYPE svg PUBLIC "-//W3C//DTD SVG 1.1//EN"
 "http://www.w3.org/Graphics/SVG/1.1/DTD/svg11.dtd">
<!-- Created with svg_stack (http://github.com/astraw/svg_stack) -->
<svg xmlns:sodipodi="http://sodipodi.sourceforge.net/DTD/sodipodi-0.dtd" xmlns="http://www.w3.org/2000/svg" version="1.1" width="1302.5" height="1597.5">
  <defs/>
  <g id="id0:id0" transform="matrix(1.25,0,0,1.25,0.0,0.0)"><g transform="translate(0.000000,1278.000000) scale(0.100000,-0.100000)" fill="#000000" stroke="none">
<path d="M0 7638 l0 -5143 2583 -1239 c1420 -682 2593 -1244 2607 -1249 22 -8 354 148 2628 1239 l2602 1249 0 5143 0 5142 -5210 0 -5210 0 0 -5142z m9740 -126 l0 -4587 -2243 -1079 c-1233 -594 -2253 -1084 -2267 -1089 -22 -8 -312 129 -2287 1079 l-2263 1089 0 4587 0 4588 4530 0 4530 0 0 -4588z"/>
<path d="M2970 7570 l0 -2920 590 0 590 0 0 1099 0 1098 578 6 c974 9 1389 51 1657 166 185 80 400 214 527 329 59 53 127 122 152 152 80 99 192 286 239 397 142 340 186 822 111 1231 -28 155 -102 380 -161 492 -147 276 -398 531 -647 657 -117 59 -317 133 -416 153 -52 11 -180 27 -285 37 -166 15 -361 17 -1562 20 l-1373 4 0 -2921z m2477 1919 c165 -16 344 -75 452 -148 107 -73 182 -157 237 -266 70 -136 88 -215 88 -390 1 -115 -3 -155 -22 -225 -27 -100 -102 -239 -175 -322 -96 -111 -280 -204 -467 -237 -176 -31 -579 -51 -1020 -51 l-390 0 0 832 0 831 595 -7 c327 -3 643 -11 702 -17z"/>
</g>
</g>
  <g id="id1:id1" transform="matrix(1.25,0,0,1.25,0.0,0.0)"><g transform="translate(0.000000,1278.000000) scale(0.100000,-0.100000)" fill="#ffffff" stroke="none">
<path d="M680 7512 l0 -4587 2263 -1089 c1975 -950 2265 -1087 2287 -1079 14 5 1034 495 2267 1089 l2243 1079 0 4587 0 4588 -4530 0 -4530 0 0 -4588z m5225 2955 c105 -10 233 -26 285 -37 99 -20 299 -94 416 -153 249 -126 500 -381 647 -657 59 -112 133 -337 161 -492 75 -409 31 -891 -111 -1231 -47 -111 -159 -298 -239 -397 -25 -30 -93 -99 -152 -152 -127 -115 -342 -249 -527 -329 -268 -115 -683 -157 -1657 -166 l-578 -6 0 -1098 0 -1099 -590 0 -590 0 0 2920 0 2921 1373 -4 c1201 -3 1396 -5 1562 -20z"/>
<path d="M4150 8682 l0 -832 390 0 c441 0 844 20 1020 51 187 33 371 126 467 237 73 83 148 222 175 322 19 70 23 110 22 225 0 175 -18 254 -88 390 -98 193 -251 307 -511 383 -114 34 -254 41 -880 48 l-595 7 0 -831z"/>
</g>
</g>
</svg>
