<?xml version="1.0" standalone="no"?>
<!DOCTYPE svg PUBLIC "-//W3C//DTD SVG 1.1//EN"
 "http://www.w3.org/Graphics/SVG/1.1/DTD/svg11.dtd">
<!-- Created with svg_stack (http://github.com/astraw/svg_stack) -->
<svg xmlns:sodipodi="http://sodipodi.sourceforge.net/DTD/sodipodi-0.dtd" xmlns="http://www.w3.org/2000/svg" version="1.1" width="647.5" height="1587.5">
  <defs/>
  <g id="id0:id0" transform="matrix(1.25,0,0,1.25,0.0,0.0)"><g transform="translate(0.000000,1270.000000) scale(0.100000,-0.100000)" fill="#000000" stroke="none">
<path d="M2375 12688 c-19 -52 -2372 -7304 -2370 -7306 1 -1 836 504 1855 1123 1019 619 1854 1124 1855 1123 6 -7 -1553 -4782 -1562 -4785 -6 -2 -268 80 -582 183 -315 102 -574 184 -576 183 -1 -2 46 -231 106 -509 60 -278 210 -991 334 -1585 124 -594 229 -1088 233 -1098 6 -14 234 186 1217 1069 666 597 1216 1091 1222 1098 10 9 -120 55 -586 206 -329 107 -594 198 -588 202 10 6 2248 6869 2242 6876 -1 1 -836 -504 -1855 -1123 -1019 -619 -1854 -1124 -1855 -1123 -1 2 379 1179 846 2617 467 1438 848 2616 846 2617 -4 3 -763 244 -770 244 -4 0 -10 -6 -12 -12z"/>
</g>
</g>
  <g id="id1:id1" transform="matrix(1.25,0,0,1.25,0.0,0.0)"><g transform="translate(0.000000,1270.000000) scale(0.100000,-0.100000)" fill="#ffffff" stroke="none">
</g>
</g>
</svg>
