<?xml version="1.0" standalone="no"?>
<!DOCTYPE svg PUBLIC "-//W3C//DTD SVG 1.1//EN"
 "http://www.w3.org/Graphics/SVG/1.1/DTD/svg11.dtd">
<!-- Created with svg_stack (http://github.com/astraw/svg_stack) -->
<svg xmlns:sodipodi="http://sodipodi.sourceforge.net/DTD/sodipodi-0.dtd" xmlns="http://www.w3.org/2000/svg" version="1.1" width="885.0" height="1586.25">
  <defs/>
  <g id="id0:id0" transform="matrix(1.25,0,0,1.25,0.0,0.0)"><g transform="translate(0.000000,1269.000000) scale(0.100000,-0.100000)" fill="#181512" stroke="none">
<path d="M4745 11098 c-875 -876 -2300 -2304 -3167 -3173 l-1577 -1580 3169 -3175 3169 -3175 370 369 370 370 -2798 2805 -2799 2806 2799 2805 2798 2805 -367 368 c-202 202 -369 367 -372 367 -3 0 -721 -717 -1595 -1592z"/>
</g>
</g>
  <g id="id1:id1" transform="matrix(1.25,0,0,1.25,0.0,0.0)"><g transform="translate(0.000000,1269.000000) scale(0.100000,-0.100000)" fill="#ffffff" stroke="none">
</g>
</g>
</svg>
