<?xml version="1.0" standalone="no"?>
<!DOCTYPE svg PUBLIC "-//W3C//DTD SVG 1.1//EN"
 "http://www.w3.org/Graphics/SVG/1.1/DTD/svg11.dtd">
<!-- Created with svg_stack (http://github.com/astraw/svg_stack) -->
<svg xmlns:sodipodi="http://sodipodi.sourceforge.net/DTD/sodipodi-0.dtd" xmlns="http://www.w3.org/2000/svg" version="1.1" width="1965.0" height="1290.0">
  <defs/>
  <g id="id0:id0" transform="matrix(1.25,0,0,1.25,0.0,0.0)"><g transform="translate(0.000000,1032.000000) scale(0.100000,-0.100000)" fill="#181512" stroke="none">
<path d="M0 7410 l0 -2910 1235 0 1235 0 0 -2250 0 -2250 445 0 445 0 0 2250 0 2250 4500 0 4500 0 0 -2250 0 -2250 445 0 445 0 0 2250 0 2250 1235 0 1235 0 0 2910 0 2910 -7860 0 -7860 0 0 -2910z m14830 0 l0 -2030 -6970 0 -6970 0 0 2030 0 2030 6970 0 6970 0 0 -2030z"/>
<path d="M2920 7410 l0 -860 4940 0 4940 0 0 860 0 860 -4940 0 -4940 0 0 -860z"/>
</g>
</g>
  <g id="id1:id1" transform="matrix(1.25,0,0,1.25,0.0,0.0)"><g transform="translate(0.000000,1032.000000) scale(0.100000,-0.100000)" fill="#ffffff" stroke="none">
</g>
</g>
</svg>
