<?xml version="1.0" encoding="UTF-8" standalone="no"?>
<svg
   xmlns:dc="http://purl.org/dc/elements/1.1/"
   xmlns:cc="http://creativecommons.org/ns#"
   xmlns:rdf="http://www.w3.org/1999/02/22-rdf-syntax-ns#"
   xmlns:svg="http://www.w3.org/2000/svg"
   xmlns="http://www.w3.org/2000/svg"
   xmlns:sodipodi="http://sodipodi.sourceforge.net/DTD/sodipodi-0.dtd"
   xmlns:inkscape="http://www.inkscape.org/namespaces/inkscape"
   viewBox="0 0 369 369"
   version="1.1"
   xml:space="preserve"
   id="svg68382"
   inkscape:version="0.48.3.1 r9886"
   width="100%"
   height="100%"
   sodipodi:docname="alkis3024.svg"
   style="fill-rule:evenodd;stroke-linecap:round;stroke-linejoin:round"><metadata
   id="metadata68709"><rdf:RDF><cc:Work
       rdf:about=""><dc:format>image/svg+xml</dc:format><dc:type
         rdf:resource="http://purl.org/dc/dcmitype/StillImage" /></cc:Work></rdf:RDF></metadata><sodipodi:namedview
   pagecolor="#ffffff"
   bordercolor="#666666"
   borderopacity="1"
   objecttolerance="10"
   gridtolerance="10"
   guidetolerance="10"
   inkscape:pageopacity="0"
   inkscape:pageshadow="2"
   inkscape:window-width="1855"
   inkscape:window-height="1025"
   id="namedview68707"
   showgrid="false"
   inkscape:zoom="1.1125147"
   inkscape:cx="185.01648"
   inkscape:cy="182.75"
   inkscape:window-x="0"
   inkscape:window-y="33"
   inkscape:window-maximized="1"
   inkscape:current-layer="svg68382" />
<defs
   id="defs68384">
<clipPath
   id="clipId0">
<path
   d="M 0,600 800,600 800,0 0,0 z"
   id="path68387"
   inkscape:connector-curvature="0" />
</clipPath>
</defs>
<g
   clip-path="url(#clipId0)"
   id="g68389"
   style="fill:none;stroke:#000000;stroke-width:0.1"
   transform="translate(-216.78125,-113.75)" />
<g
   clip-path="url(#clipId0)"
   id="g68391"
   style="fill:#ffffff;stroke:none"
   transform="translate(-216.78125,-113.75)">













































































<path
   id="path68547"
   d="m 401.28125,113.75 -14.46875,0.5625 -14.375,1.6875 -14.21875,2.84375 -13.9375,3.9375 -13.59375,5 -13.15625,6.0625 -12.65625,7.09375 -12.03125,8.03125 -11.375,8.96875 -10.65625,9.84375 -9.8125,10.625 -8.96875,11.375 -8.0625,12.0625 -7.0625,12.625 -6.0625,13.15625 -5.03125,13.59375 -3.9375,13.9375 -2.8125,14.21875 -1.71875,14.40625 -0.5625,14.46875 0.5625,14.46875 1.71875,14.375 2.8125,14.21875 3.9375,13.9375 5.03125,13.59375 6.0625,13.15625 7.0625,12.65625 8.0625,12.03125 8.96875,11.375 9.8125,10.65625 10.65625,9.8125 11.375,8.96875 12.03125,8.0625 12.65625,7.0625 13.15625,6.0625 13.59375,5.03125 13.9375,3.9375 14.21875,2.8125 14.375,1.71875 14.46875,0.5625 14.46875,-0.5625 14.40625,-1.71875 14.21875,-2.8125 13.9375,-3.9375 13.59375,-5.03125 13.15625,-6.0625 12.625,-7.0625 12.0625,-8.0625 11.375,-8.96875 10.625,-9.8125 9.84375,-10.65625 8.96875,-11.375 8.03125,-12.03125 L 565.6875,382 l 6.0625,-13.15625 5,-13.59375 3.9375,-13.9375 2.84375,-14.21875 1.6875,-14.375 0.5625,-14.46875 -0.5625,-14.46875 -1.6875,-14.40625 -2.84375,-14.21875 -3.9375,-13.9375 -5,-13.59375 -6.0625,-13.15625 -7.09375,-12.625 -8.03125,-12.0625 -8.96875,-11.375 -9.84375,-10.625 -10.625,-9.84375 -11.375,-8.96875 -12.0625,-8.03125 -12.625,-7.09375 -13.15625,-6.0625 -13.59375,-5 -13.9375,-3.9375 L 430.15625,116 415.75,114.3125 401.28125,113.75 z"
   inkscape:connector-curvature="0" />
</g>
<g
   clip-path="url(#clipId0)"
   id="g68549"
   style="fill:#000000;stroke:none"
   transform="translate(-216.78125,-113.75)">













































































<path
   d="m 401.28125,236.75 -4.8125,0.1875 -4.8125,0.5625 -4.71875,0.9375 -4.65625,1.3125 -4.53125,1.6875 -4.375,2 -4.21875,2.375 -4.03125,2.6875 -3.78125,2.96875 -3.53125,3.28125 -3.28125,3.5625 -3,3.78125 -2.6875,4 -2.34375,4.21875 -2.03125,4.40625 -1.65625,4.53125 -1.3125,4.625 -0.96875,4.75 -0.5625,4.78125 -0.1875,4.84375 0.1875,4.8125 0.5625,4.8125 0.96875,4.71875 1.3125,4.65625 1.65625,4.53125 2.03125,4.375 2.34375,4.21875 2.6875,4.03125 3,3.78125 3.28125,3.53125 3.53125,3.28125 3.78125,3 4.03125,2.6875 4.21875,2.34375 4.375,2.03125 4.53125,1.65625 4.65625,1.3125 4.71875,0.96875 4.8125,0.5625 4.8125,0.1875 4.84375,-0.1875 4.78125,-0.5625 4.75,-0.96875 4.625,-1.3125 4.53125,-1.65625 4.40625,-2.03125 4.21875,-2.34375 4,-2.6875 3.78125,-3 3.5625,-3.28125 3.28125,-3.53125 2.96875,-3.78125 2.6875,-4.03125 2.375,-4.21875 2,-4.375 1.6875,-4.53125 1.3125,-4.65625 0.9375,-4.71875 0.5625,-4.8125 0.1875,-4.8125 -0.1875,-4.84375 -0.5625,-4.78125 -0.9375,-4.75 -1.3125,-4.625 -1.6875,-4.53125 -2,-4.40625 -2.375,-4.21875 -2.6875,-4 -2.96875,-3.78125 -3.28125,-3.5625 -3.5625,-3.28125 -3.78125,-2.96875 -4,-2.6875 -4.21875,-2.375 -4.40625,-2 -4.53125,-1.6875 -4.625,-1.3125 -4.75,-0.9375 -4.78125,-0.5625 -4.84375,-0.1875 z"
   id="path68705"
   inkscape:connector-curvature="0" />
</g>
</svg>