<?xml version="1.0" encoding="UTF-8" standalone="no"?>
<svg
   xmlns:dc="http://purl.org/dc/elements/1.1/"
   xmlns:cc="http://creativecommons.org/ns#"
   xmlns:rdf="http://www.w3.org/1999/02/22-rdf-syntax-ns#"
   xmlns:svg="http://www.w3.org/2000/svg"
   xmlns="http://www.w3.org/2000/svg"
   xmlns:sodipodi="http://sodipodi.sourceforge.net/DTD/sodipodi-0.dtd"
   xmlns:inkscape="http://www.inkscape.org/namespaces/inkscape"
   viewBox="0 0 361.31298 349.5625"
   version="1.1"
   xml:space="preserve"
   id="svg7593"
   inkscape:version="0.48.3.1 r9886"
   width="100%"
   height="100%"
   sodipodi:docname="alkis3607.svg"
   style="fill-rule:evenodd;stroke-linecap:round;stroke-linejoin:round"><metadata
   id="metadata7808"><rdf:RDF><cc:Work
       rdf:about=""><dc:format>image/svg+xml</dc:format><dc:type
         rdf:resource="http://purl.org/dc/dcmitype/StillImage" /></cc:Work></rdf:RDF></metadata><sodipodi:namedview
   pagecolor="#ffffff"
   bordercolor="#666666"
   borderopacity="1"
   objecttolerance="10"
   gridtolerance="10"
   guidetolerance="10"
   inkscape:pageopacity="0"
   inkscape:pageshadow="2"
   inkscape:window-width="1855"
   inkscape:window-height="1025"
   id="namedview7806"
   showgrid="false"
   inkscape:zoom="1.1125147"
   inkscape:cx="9.7305091"
   inkscape:cy="175.8125"
   inkscape:window-x="0"
   inkscape:window-y="33"
   inkscape:window-maximized="1"
   inkscape:current-layer="svg7593" />
<defs
   id="defs7595">
<clipPath
   id="clipId0">
<path
   d="M 0,600 800,600 800,0 0,0 z"
   id="path7598"
   inkscape:connector-curvature="0" />
</clipPath>
</defs>
<g
   clip-path="url(#clipId0)"
   id="g7600"
   style="fill:none;stroke:#000000;stroke-width:0.1"
   transform="translate(-217.6875,-126.25)" />
<g
   clip-path="url(#clipId0)"
   id="g7602"
   style="fill:#00ff00;stroke:none"
   transform="translate(-217.6875,-126.25)">




































































































<path
   style="fill-rule:nonzero"
   d="m 298.84375,126.25 c -3.59375,6.5 -7.1875,13 -10.78125,19.5 11.40388,7.35402 25.44145,11.3362 33.95949,22.38485 9.1233,10.63545 20.02972,19.79942 28.92435,30.49881 5.9522,10.79402 12.8947,21.17588 15.11616,33.52259 -7.90785,-0.63449 -16.54364,1.30386 -23.96383,-1.0542 -13.73763,-8.95174 -28.45544,-16.63353 -43.81558,-22.24038 -15.99457,-4.08609 -32.02578,-7.95492 -48.58611,-8.68703 -10.81625,-2.21393 -21.34908,2.14412 -32.00948,3.54411 1.375,7.30208 2.75,14.60417 4.125,21.90625 10.70696,-1.96366 21.36201,-5.12948 32.26254,-2.60974 14.16701,0.88881 28.05684,4.5769 41.58794,8.53187 7.23993,1.53459 2.53803,10.63424 3.86827,15.91258 0.18774,23.69028 -0.37532,48.13134 0.28125,71.35279 18.46875,0 36.9375,0 55.40625,0 0,52.33333 0,104.66667 0,157 28.88542,0 57.77083,0 86.65625,0 0,-52.33333 0,-104.66667 0,-157 18.57292,0 37.14583,0 55.71875,0 0,-28.47917 0,-56.95833 0,-85.4375 10.7724,-5.11994 22.96831,-6.54453 34.50207,-9.26321 11.63957,-0.94284 23.35903,-3.73855 34.7996,-0.0656 7.95702,3.87863 10.0602,-0.81233 10.24753,-8.30794 0.36329,-5.46231 5.74217,-14.35082 -3.66881,-13.13622 -9.77159,-2.0232 -19.53141,-4.31946 -29.48658,-2.08575 -17.01994,0.93149 -33.67125,5.17833 -49.93372,9.90175 -14.10665,6.29133 -27.94734,13.07496 -40.77259,21.73822 -7.40625,0 -14.8125,0 -22.21875,0 2.58996,-13.22459 9.99578,-24.65009 16.80447,-35.9933 12.08751,-11.51288 23.16312,-24.16852 34.9505,-35.86933 8.74834,-4.84788 17.49669,-9.69575 26.24503,-14.54362 -3.60417,-6.5 -7.20833,-13 -10.8125,-19.5 -10.38761,6.24331 -21.81866,11.15092 -31.56054,18.22082 -12.23164,13.6413 -25.41749,26.48818 -37.99089,39.72093 -7.02679,13.224 -15.97628,25.64791 -18.72968,40.65017 -6.84965,7.02918 10.87788,7.74649 -0.96789,7.31433 -8.69825,0 -17.3965,0 -26.09475,0 9.48821,0.34853 3.41453,-7.89057 2.49386,-13.28604 -2.99957,-13.03092 -11.67725,-23.69903 -17.49386,-35.55771 -13.73907,-13.10813 -26.42814,-27.39482 -39.7547,-40.80062 -9.76927,-5.42062 -19.53853,-10.84125 -29.3078,-16.26188 z"
   id="path7804"
   inkscape:connector-curvature="0" />
</g>
</svg>