<?xml version="1.0" encoding="UTF-8" standalone="no"?>
<svg
   xmlns:dc="http://purl.org/dc/elements/1.1/"
   xmlns:cc="http://creativecommons.org/ns#"
   xmlns:rdf="http://www.w3.org/1999/02/22-rdf-syntax-ns#"
   xmlns:svg="http://www.w3.org/2000/svg"
   xmlns="http://www.w3.org/2000/svg"
   xmlns:sodipodi="http://sodipodi.sourceforge.net/DTD/sodipodi-0.dtd"
   xmlns:inkscape="http://www.inkscape.org/namespaces/inkscape"
   viewBox="0 0 333.05475 333.29439"
   version="1.1"
   xml:space="preserve"
   id="svg52851"
   inkscape:version="0.48.3.1 r9886"
   width="100%"
   height="100%"
   sodipodi:docname="alkis3411.svg"
   style="fill-rule:evenodd;stroke-linecap:round;stroke-linejoin:round"><metadata
   id="metadata54418"><rdf:RDF><cc:Work
       rdf:about=""><dc:format>image/svg+xml</dc:format><dc:type
         rdf:resource="http://purl.org/dc/dcmitype/StillImage" /></cc:Work></rdf:RDF></metadata><sodipodi:namedview
   pagecolor="#ffffff"
   bordercolor="#666666"
   borderopacity="1"
   objecttolerance="10"
   gridtolerance="10"
   guidetolerance="10"
   inkscape:pageopacity="0"
   inkscape:pageshadow="2"
   inkscape:window-width="1855"
   inkscape:window-height="1025"
   id="namedview54416"
   showgrid="false"
   inkscape:zoom="1.5733333"
   inkscape:cx="167.79884"
   inkscape:cy="166.63777"
   inkscape:window-x="0"
   inkscape:window-y="33"
   inkscape:window-maximized="1"
   inkscape:current-layer="svg52851" />
<defs
   id="defs52853">
<clipPath
   id="clipId0">
<path
   d="M 0,600 800,600 800,0 0,0 z"
   id="path52856"
   inkscape:connector-curvature="0" />
</clipPath>
</defs>
<g
   clip-path="url(#clipId0)"
   id="g52858"
   style="fill:none;stroke:#000000;stroke-width:0.1"
   transform="translate(-233.47235,-133.34338)" />
<g
   clip-path="url(#clipId0)"
   id="g52860"
   style="fill:#ffffff;stroke:none"
   transform="translate(-233.47235,-133.34338)">













































































<path
   d="m 400,141.28125 c -49.4095,-0.12238 -98.12324,24.1915 -127.34879,64.0932 -32.50998,42.99564 -40.4273,102.95776 -20.20107,152.9225 19.49897,50.57351 66.6965,89.05446 120.17286,97.9477 53.3025,9.81207 110.77439,-10.34814 146.30186,-51.27642 36.20927,-40.32808 49.06474,-99.85788 32.71367,-151.5382 C 536.25386,201.77965 492.62851,159.89119 440.39399,146.61078 427.24337,143.04277 413.60623,141.51725 400,141.28125 z"
   id="path53016"
   inkscape:connector-curvature="0" />
</g>
<g
   clip-path="url(#clipId0)"
   id="g53018"
   style="fill:#000000;stroke:none"
   transform="translate(-233.47235,-133.34338)">
















































































</g>
<g
   clip-path="url(#clipId0)"
   id="g53184"
   style="fill:#000000;stroke:none"
   transform="translate(-233.47235,-133.34338)">






































































































































































































































































































































































































































































































































































































































<path
   d="m 399.6875,133.34375 c -55.22305,-0.12048 -109.51383,29.11928 -139.23774,75.74724 -31.69589,47.65 -35.81947,111.93784 -10.47498,163.25334 24.37233,51.76471 77.22337,88.55605 134.23052,93.46253 56.29645,5.85909 114.492,-19.631 148.35588,-64.98702 35.07352,-45.22793 43.8064,-109.00579 22.34918,-162.049 -20.48314,-53.09076 -70.02942,-93.51591 -126.17865,-102.83854 -9.37521,-1.71227 -18.89785,-2.38582 -28.41921,-2.58855 -0.3374,8.91474 -0.27545,9.56764 -0.625,0 z m 0.3125,15.875 c 50.66953,-0.22941 100.39888,26.93945 127.19819,70.00041 29.50528,45.47527 31.32859,107.09029 4.37452,154.1496 -25.21127,46.38821 -76.41851,76.90541 -129.1803,77.31755 -54.18073,1.34099 -107.69162,-29.24987 -133.71461,-76.84268 -26.56163,-45.99032 -25.60904,-106.03512 2.03789,-151.33343 26.13006,-44.38418 76.29679,-73.11709 127.8027,-73.23281 l 0.94201,-0.0373 0.5396,-0.0214 z m 55.3125,30.15625 c -7.25048,1.88755 -14.75033,6.62927 -14.69402,15.03174 -1.68986,9.28662 2.53258,18.01109 5.16277,26.68701 -4.66032,-2.45581 -9.50772,-5.85669 -14.96875,-5.4375 2.84075,9.00121 9.38515,18.24994 19.5,19.03125 0.0999,8.84167 -4.39534,17.57464 -7.83157,25.6795 -4.67189,7.1439 -14.51603,3.9189 -21.67348,5.18339 -26.58179,0.75141 -53.24605,0.38214 -79.7762,1.82341 -9.55424,0.95306 -19.75094,4.46654 -26.30975,11.66322 -3.75975,9.50035 -0.33961,21.26093 -5.87775,30.49298 6.68514,-0.62845 10.85218,-8.20047 12.6875,-14.0625 -0.92748,10.72418 0.14185,22.88469 -5.8645,32.177 -4.76496,4.79474 -9.41108,9.71717 -14.97925,13.60425 -0.22787,18.311 0.94925,36.5937 1.8125,54.875 7.88448,3.04067 3.15269,-7.42587 4.14765,-11.781 0.6027,-14.55201 -0.94866,-31.49894 9.29093,-43.19504 8.97635,-6.15032 18.29923,-13.21223 21.03017,-24.36771 4.77582,7.56547 4.39903,16.97297 3.15625,25.37625 4.66718,19.93033 15.11141,37.79475 23.59375,56.25 8.50301,2.39587 6.90721,-1.97794 3.35444,-7.7205 -6.35199,-13.15884 -12.08657,-26.7974 -15.74446,-40.87854 -0.72182,-5.98103 -1.68706,-12.56374 3.38033,-17.03005 3.1283,-4.20674 5.8231,-9.61551 9.00969,-13.18346 13.27871,3.47433 27.44423,2.34391 40.8125,-0.0937 -1.22857,24.67487 -3.44297,49.28511 -5.4375,73.90625 8.27388,2.68984 5.76068,-6.02333 6.50253,-11.29558 1.66277,-15.49832 2.8111,-31.66079 8.98756,-46.0903 2.4896,-8.69241 7.19787,1.62204 9.46031,5.27938 5.98841,10.82453 11.97025,21.65534 15.8621,33.419 2.81273,5.16699 3.77364,11.45496 5.4375,16.6875 4.75927,4.08057 6.48539,0.75474 4.37107,-4.36654 -7.2763,-22.55006 -13.87523,-45.42456 -22.52732,-67.53971 13.66638,-10.9035 21.85696,-26.96652 29.80808,-42.17929 4.99401,-9.88907 8.72458,-21.04851 12.81692,-30.85186 6.50043,-0.10683 12.99993,-0.29239 19.5,-0.4375 5.71659,-6.35895 -4.0437,-7.81474 -8.10946,-11.12025 -5.75304,-3.40142 -11.51721,-6.78336 -17.26554,-10.19225 5.30376,0.81459 12.9412,-3.91394 11.78125,-9.28125 -4.19532,-2.59674 -6.75132,5.45089 -11.74561,5.05062 -10.12446,3.4261 -20.26061,-8.91756 -17.28564,-18.20687 4.59958,-6.87971 14.97848,-7.66104 22.21875,-5.2187 1.74208,-5.03802 -6.57467,-4.62231 -9.96875,-4.43755 -5.13207,0.93251 -10.58383,1.87626 -14.0625,6.24995 -2.92586,-9.96708 8.04383,-15.86501 16.40186,-16.54901 6.59601,-3.47376 -3.40406,-3.15018 -5.96436,-2.95099 z"
   id="path54414"
   inkscape:connector-curvature="0" />
</g><g
   clip-path="url(#clipId0)"
   id="g53180"
   style="fill:none;stroke:#000000;stroke-width:0.25"
   transform="translate(-233.47235,-133.34338)">
<polyline
   points="399.991,141.281 399.991,141.281 "
   id="polyline53182" />
</g>

</svg>