<?xml version="1.0" standalone="no"?>
<!DOCTYPE svg PUBLIC "-//W3C//DTD SVG 1.1//EN"
 "http://www.w3.org/Graphics/SVG/1.1/DTD/svg11.dtd">
<!-- Created with svg_stack (http://github.com/astraw/svg_stack) -->
<svg xmlns:sodipodi="http://sodipodi.sourceforge.net/DTD/sodipodi-0.dtd" xmlns="http://www.w3.org/2000/svg" version="1.1" width="1590.0" height="1590.0">
  <defs/>
  <g id="id0:id0" transform="matrix(1.25,0,0,1.25,0.0,0.0)"><g transform="translate(0.000000,1272.000000) scale(0.100000,-0.100000)" fill="#000000" stroke="none">
<path d="M5900 9770 l0 -2950 -2950 0 -2950 0 0 -455 0 -455 2950 0 2950 0 0 -2955 0 -2955 460 0 460 0 0 2955 0 2955 2950 0 2950 0 0 455 0 455 -2950 0 -2950 0 0 2950 0 2950 -460 0 -460 0 0 -2950z"/>
</g>
</g>
  <g id="id1:id1" transform="matrix(1.25,0,0,1.25,0.0,0.0)"><g transform="translate(0.000000,1272.000000) scale(0.100000,-0.100000)" fill="#ffffff" stroke="none">
</g>
</g>
</svg>
