<?xml version="1.0" standalone="no"?>
<!DOCTYPE svg PUBLIC "-//W3C//DTD SVG 1.1//EN"
 "http://www.w3.org/Graphics/SVG/1.1/DTD/svg11.dtd">
<!-- Created with svg_stack (http://github.com/astraw/svg_stack) -->
<svg xmlns:sodipodi="http://sodipodi.sourceforge.net/DTD/sodipodi-0.dtd" xmlns="http://www.w3.org/2000/svg" version="1.1" width="1976.25" height="868.75">
  <defs/>
  <g id="id0:id0" transform="matrix(1.25,0,0,1.25,0.0,0.0)"><g transform="translate(0.000000,695.000000) scale(0.100000,-0.100000)" fill="#181512" stroke="none">
<path d="M7215 6915 c-985 -134 -1789 -433 -2570 -955 -609 -408 -1209 -1009 -1600 -1605 -281 -429 -470 -797 -621 -1210 -141 -385 -271 -913 -308 -1255 -9 -80 -19 -160 -22 -177 l-5 -33 -1044 0 -1045 0 0 -570 0 -570 1016 0 1016 0 -6 -147 c-3 -82 -9 -203 -12 -270 l-6 -123 5897 0 5898 0 -6 98 c-4 53 -10 175 -13 270 l-7 172 1017 0 1016 0 0 570 0 570 -1045 0 -1044 0 -5 33 c-3 17 -13 97 -22 177 -37 341 -167 869 -308 1256 -88 240 -214 507 -399 844 -413 749 -1085 1477 -1822 1970 -406 272 -797 471 -1252 639 -394 146 -837 251 -1328 316 l-260 35 -435 -1 c-433 -1 -436 -1 -675 -34z m1110 -2195 c271 -30 561 -101 845 -207 189 -70 583 -266 735 -367 296 -195 657 -528 846 -781 274 -366 415 -616 555 -985 l62 -165 -1728 -3 c-951 -1 -2509 -1 -3463 0 l-1735 3 62 165 c140 369 281 619 555 985 194 259 528 566 842 775 177 118 551 305 754 379 279 101 574 173 820 201 220 25 627 26 850 0z"/>
</g>
</g>
  <g id="id1:id1" transform="matrix(1.25,0,0,1.25,0.0,0.0)"><g transform="translate(0.000000,695.000000) scale(0.100000,-0.100000)" fill="#ffffff" stroke="none">
</g>
</g>
</svg>
