<?xml version="1.0" encoding="UTF-8" standalone="no"?>
<svg
   xmlns:dc="http://purl.org/dc/elements/1.1/"
   xmlns:cc="http://creativecommons.org/ns#"
   xmlns:rdf="http://www.w3.org/1999/02/22-rdf-syntax-ns#"
   xmlns:svg="http://www.w3.org/2000/svg"
   xmlns="http://www.w3.org/2000/svg"
   xmlns:sodipodi="http://sodipodi.sourceforge.net/DTD/sodipodi-0.dtd"
   xmlns:inkscape="http://www.inkscape.org/namespaces/inkscape"
   viewBox="0 0 125.74586 350.6875"
   version="1.1"
   xml:space="preserve"
   id="svg5133"
   inkscape:version="0.48.3.1 r9886"
   width="100%"
   height="100%"
   sodipodi:docname="alkis3444.svg"
   style="fill-rule:evenodd;stroke-linecap:round;stroke-linejoin:round"><metadata
   id="metadata5230"><rdf:RDF><cc:Work
       rdf:about=""><dc:format>image/svg+xml</dc:format><dc:type
         rdf:resource="http://purl.org/dc/dcmitype/StillImage" /></cc:Work></rdf:RDF></metadata><sodipodi:namedview
   pagecolor="#ffffff"
   bordercolor="#666666"
   borderopacity="1"
   objecttolerance="10"
   gridtolerance="10"
   guidetolerance="10"
   inkscape:pageopacity="0"
   inkscape:pageshadow="2"
   inkscape:window-width="1855"
   inkscape:window-height="1025"
   id="namedview5228"
   showgrid="false"
   inkscape:zoom="1.5733333"
   inkscape:cx="19.862011"
   inkscape:cy="175.0625"
   inkscape:window-x="0"
   inkscape:window-y="33"
   inkscape:window-maximized="1"
   inkscape:current-layer="svg5133" />
<defs
   id="defs5135">
<clipPath
   id="clipId0">
<path
   d="M 0,600 800,600 800,0 0,0 z"
   id="path5138"
   inkscape:connector-curvature="0" />
</clipPath>









































</defs>
<g
   clip-path="url(#clipId0)"
   id="g5140"
   style="fill:none;stroke:#000000;stroke-width:0.1"
   transform="translate(-337.36539,-124.375)" />
<g
   clip-path="url(#clipId0)"
   id="g5142"
   style="fill:#00ff00;stroke:none"
   transform="translate(-337.36539,-124.375)">
<path
   d="m 400.21875,124.375 c -15.35098,0.0395 -29.05712,8.74912 -38.91321,19.98556 -10.23742,12.07208 -16.98067,26.97299 -20.3777,42.37328 -3.72799,15.6981 -4.33134,31.95416 -2.7294,47.97508 2.07591,15.66376 6.03472,31.33522 14.24677,44.99264 7.38679,13.19543 19.01193,24.74425 33.33604,30.04844 0,55.10417 0,110.20833 0,165.3125 9.625,0 19.25,0 28.875,0 0,-55.10417 0,-110.20833 0,-165.3125 16.77028,-6.20464 29.39968,-20.68896 36.81582,-36.63622 6.25429,-12.27572 9.21306,-25.99049 10.84752,-39.58894 1.70572,-16.03646 0.63449,-32.27217 -3.0146,-47.97575 -3.61587,-14.95343 -10.16656,-29.49098 -20.22282,-41.23939 -9.96852,-11.26199 -23.39558,-19.85395 -38.86342,-19.9347 z m 0,20.78125 c 13.10554,0.35485 23.16698,11.11458 29.51115,21.60331 9.7577,16.59038 12.98978,36.28272 12.5614,55.30335 -0.75232,20.15737 -5.6623,41.22755 -19.02344,56.87561 -7.30891,8.57734 -19.00619,15.58463 -30.46905,11.30408 -14.513,-5.71566 -23.57124,-20.13421 -28.56221,-34.30022 -6.35379,-18.09169 -7.5606,-37.87351 -4.6182,-56.75685 2.95495,-19.11015 10.91112,-39.00891 27.5691,-50.12303 3.92671,-2.4726 8.39392,-3.79467 13.03125,-3.90625 z"
   id="path5144"
   inkscape:connector-curvature="0" />
</g>

</svg>