<?xml version="1.0" standalone="no"?>
<!DOCTYPE svg PUBLIC "-//W3C//DTD SVG 1.1//EN"
 "http://www.w3.org/Graphics/SVG/1.1/DTD/svg11.dtd">
<!-- Created with svg_stack (http://github.com/astraw/svg_stack) -->
<svg xmlns:sodipodi="http://sodipodi.sourceforge.net/DTD/sodipodi-0.dtd" xmlns="http://www.w3.org/2000/svg" version="1.1" width="1170.0" height="1597.5">
  <defs/>
  <g id="id0:id0" transform="matrix(1.25,0,0,1.25,0.0,0.0)"><g transform="translate(0.000000,1278.000000) scale(0.100000,-0.100000)" fill="#000000" stroke="none">
<path d="M4663 11466 l-4663 -1311 0 -787 0 -788 250 0 250 0 0 598 0 597 1953 549 c1073 302 1958 551 1965 553 9 4 12 -535 12 -2675 l0 -2680 -77 -7 c-193 -16 -596 -129 -831 -234 -222 -98 -506 -286 -711 -471 -101 -91 -322 -347 -409 -473 -235 -341 -370 -677 -443 -1097 -61 -353 -61 -602 0 -950 72 -417 210 -759 443 -1097 87 -126 308 -382 409 -473 260 -234 596 -440 874 -537 256 -88 394 -122 673 -163 308 -46 723 -14 1067 82 298 83 549 197 795 361 478 320 864 808 1051 1330 131 367 196 797 171 1128 -21 279 -85 579 -176 831 -124 342 -352 695 -626 968 -289 289 -621 503 -989 636 -205 75 -495 147 -638 159 l-83 7 0 2748 0 2748 33 11 c63 20 3879 1091 3888 1091 5 0 9 -224 9 -525 l0 -525 250 0 250 0 0 855 c0 808 -1 855 -17 854 -10 -1 -2116 -591 -4680 -1313z"/>
</g>
</g>
  <g id="id1:id1" transform="matrix(1.25,0,0,1.25,0.0,0.0)"><g transform="translate(0.000000,1278.000000) scale(0.100000,-0.100000)" fill="#ffffff" stroke="none">
</g>
</g>
</svg>
