<?xml version="1.0" encoding="UTF-8" standalone="no"?>
<svg
   xmlns:dc="http://purl.org/dc/elements/1.1/"
   xmlns:cc="http://creativecommons.org/ns#"
   xmlns:rdf="http://www.w3.org/1999/02/22-rdf-syntax-ns#"
   xmlns:svg="http://www.w3.org/2000/svg"
   xmlns="http://www.w3.org/2000/svg"
   xmlns:sodipodi="http://sodipodi.sourceforge.net/DTD/sodipodi-0.dtd"
   xmlns:inkscape="http://www.inkscape.org/namespaces/inkscape"
   viewBox="0 0 600.37832 340.46875"
   version="1.1"
   xml:space="preserve"
   id="svg25277"
   inkscape:version="0.48.3.1 r9886"
   width="100%"
   height="100%"
   sodipodi:docname="alkis3415.svg"
   style="fill-rule:evenodd;stroke-linecap:round;stroke-linejoin:round"><metadata
   id="metadata26714"><rdf:RDF><cc:Work
       rdf:about=""><dc:format>image/svg+xml</dc:format><dc:type
         rdf:resource="http://purl.org/dc/dcmitype/StillImage" /></cc:Work></rdf:RDF></metadata><sodipodi:namedview
   pagecolor="#ffffff"
   bordercolor="#666666"
   borderopacity="1"
   objecttolerance="10"
   gridtolerance="10"
   guidetolerance="10"
   inkscape:pageopacity="0"
   inkscape:pageshadow="2"
   inkscape:window-width="1855"
   inkscape:window-height="1025"
   id="namedview26712"
   showgrid="false"
   inkscape:zoom="1.5013998"
   inkscape:cx="342.57464"
   inkscape:cy="129.32515"
   inkscape:window-x="0"
   inkscape:window-y="33"
   inkscape:window-maximized="1"
   inkscape:current-layer="svg25277" />
<defs
   id="defs25279">
<clipPath
   id="clipId0">
<path
   d="M 0,600 800,600 800,0 0,0 z"
   id="path25282"
   inkscape:connector-curvature="0" />
</clipPath>



































































































































































































































































































































































































































































































































































































































































































































</defs>
<g
   clip-path="url(#clipId0)"
   id="g25284"
   style="fill:none;stroke:#000000;stroke-width:0.1"
   transform="translate(-95.184292,-124.03125)" />
<path
   style="fill:#00ff00;fill-opacity:1;fill-rule:nonzero;stroke:none"
   d="m 79.378208,194.53125 c -26.19896,-0.55734 -52.14631,13.0763 -66.42319,35.07138 -14.936289,22.1571 -17.145347,52.09329 -5.64726,76.21392 6.18829,13.34407 16.25547,24.83208 28.63295,32.7772 3.98958,-5.78125 7.97917,-11.5625 11.96875,-17.34375 -17.84183,-10.96231 -28.57256,-32.21869 -26.6945,-53.0872 1.57012,-22.21223 17.34941,-42.58277 38.54576,-49.48554 21.4286,-7.63616 46.991482,-0.69754 61.632972,16.71211 14.98337,16.88815 18.26368,42.92843 7.84756,62.9746 -4.22516,8.56918 -10.76095,15.88206 -18.51929,21.41728 1.55237,2.44847 4.55524,4.40685 3.71875,7.66244 0,4.34169 0,8.68337 0,13.02506 22.07292,0 44.14583,0 66.21875,0 0,-7.02083 0,-14.04167 0,-21.0625 -13.22917,0 -26.45833,0 -39.6875,0 16.48927,-21.84578 20.11188,-52.56673 9.00397,-77.59577 -9.95049,-23.75721 -32.4601,-41.54766 -57.793822,-46.03306 -4.23305,-0.76176 -8.50664,-1.11415 -12.8039,-1.24617 z"
   id="path25418"
   inkscape:connector-curvature="0" />
<path
   style="fill:#00ff00;fill-opacity:1;stroke:none"
   d="m 251.19071,316.375 c -4.76119,-0.0226 -9.38516,3.03949 -11.11913,7.49305 -1.81104,4.22598 -0.82572,9.41244 2.31283,12.74874 3.10017,3.38864 8.21112,4.7176 12.5616,3.23562 4.47307,-1.39012 7.84886,-5.6281 8.23587,-10.29118 0.4883,-4.5849 -1.93933,-9.30598 -5.96434,-11.55906 -1.8198,-1.05529 -3.92445,-1.61662 -6.02683,-1.62717 z"
   id="polyline25738"
   inkscape:connector-curvature="0" />

<g
   clip-path="url(#clipId0)"
   id="g26058"
   style="fill:#00ff00;fill-opacity:1;stroke:#00ff00;stroke-width:0.25"
   transform="translate(-95.184292,-124.03125)">
<path
   style="fill:#00ff00;fill-opacity:1;stroke:none"
   d="m 454.71875,440.40625 c -4.84339,-0.0268 -9.54393,3.13314 -11.21911,7.70294 -1.86617,4.60036 -0.45732,10.28913 3.37421,13.45511 3.90749,3.50976 10.17622,3.8787 14.49483,0.90812 4.23892,-2.72619 6.34657,-8.29328 4.95774,-13.13979 -1.16668,-4.63439 -5.361,-8.25626 -10.09293,-8.82213 -0.50199,-0.0671 -1.00827,-0.10235 -1.51474,-0.10425 z"
   id="polyline26060"
   inkscape:connector-curvature="0" />
</g>
<path
   style="fill:#00ff00;fill-opacity:1;stroke:none"
   d="m 299.00321,0 -57.96875,217.375 20.34375,5.4375 38.3125,-143.71875 39.84375,139.5 56.09375,0 0,-21.0625 -40.1875,0 L 299.00321,0 z"
   id="path26068"
   inkscape:connector-curvature="0" />
<g
   clip-path="url(#clipId0)"
   id="g26386"
   style="fill:#00ff00;fill-opacity:1;stroke:#00ff00;stroke-width:0.25;stroke-opacity:1"
   transform="translate(-95.184292,-124.03125)">
<path
   style="fill:#00ff00;fill-opacity:1;stroke:#00ff00"
   d="m 683.40625,320.0625 c -4.88371,-0.0792 -9.58579,3.17793 -11.24517,7.77009 -1.777,4.47965 -0.46215,9.9475 3.14965,13.13312 3.564,3.32351 9.20969,4.11556 13.53786,1.86583 4.40867,-2.16381 7.13841,-7.23254 6.49562,-12.10427 -0.46871,-4.68083 -3.96627,-8.87279 -8.49872,-10.15537 -1.10757,-0.37022 -2.2762,-0.4975 -3.43924,-0.5094 z"
   id="polyline26388"
   inkscape:connector-curvature="0" />
</g>

<g
   clip-path="url(#clipId0)"
   id="g26708"
   style="fill:#00ff00;fill-opacity:1;stroke:#00ff00;stroke-width:0.25"
   transform="translate(-95.184292,-124.03125)">
<path
   style="fill:#00ff00;fill-opacity:1;stroke:none"
   d="m 563.03125,320.0625 c -4.69117,-0.066 -9.22202,2.93255 -11.03347,7.25652 -1.76371,3.98263 -1.12569,8.89201 1.64531,12.26445 3.04208,3.95117 8.69073,5.57731 13.37041,3.85499 4.67585,-1.55001 8.05215,-6.23639 8.06147,-11.16 0.12899,-4.83904 -2.96473,-9.59236 -7.50434,-11.32792 -1.44169,-0.6001 -2.97704,-0.90587 -4.53938,-0.88804 z"
   id="polyline26710"
   inkscape:connector-curvature="0" />
</g>
</svg>