<?xml version="1.0" standalone="no"?>
<!DOCTYPE svg PUBLIC "-//W3C//DTD SVG 1.1//EN"
 "http://www.w3.org/Graphics/SVG/1.1/DTD/svg11.dtd">
<!-- Created with svg_stack (http://github.com/astraw/svg_stack) -->
<svg xmlns:sodipodi="http://sodipodi.sourceforge.net/DTD/sodipodi-0.dtd" xmlns="http://www.w3.org/2000/svg" version="1.1" width="1986.25" height="513.75">
  <defs/>
  <g id="id0:id0" transform="matrix(1.25,0,0,1.25,0.0,0.0)"><g transform="translate(0.000000,411.000000) scale(0.100000,-0.100000)" fill="#00cccc" stroke="none">
<path d="M3530 4085 c-954 -107 -1824 -410 -2624 -914 -222 -140 -557 -391 -768 -575 -115 -101 -135 -122 -125 -135 51 -63 700 -807 705 -808 4 -2 72 54 152 123 424 369 799 607 1319 838 314 140 772 277 1091 327 613 97 1037 103 1600 25 469 -65 1061 -251 1460 -458 557 -290 770 -441 1430 -1012 335 -290 593 -480 885 -651 703 -412 1395 -659 2190 -781 611 -94 1323 -85 1900 23 551 103 859 194 1385 408 499 203 1146 610 1587 998 151 132 171 153 159 166 -273 314 -709 807 -714 808 -4 2 -72 -54 -152 -123 -331 -288 -588 -468 -954 -668 -325 -178 -660 -306 -1111 -425 -615 -161 -1232 -192 -1940 -97 -588 79 -1292 327 -1789 631 -321 196 -461 299 -770 568 -160 139 -370 318 -466 398 -589 490 -1280 858 -2055 1097 -627 193 -1123 263 -1855 261 -279 -1 -369 -5 -540 -24z"/>
</g>
</g>
  <g id="id1:id1" transform="matrix(1.25,0,0,1.25,0.0,0.0)"><g transform="translate(0.000000,411.000000) scale(0.100000,-0.100000)" fill="#ffffff" stroke="none">
</g>
</g>
</svg>
