<?xml version="1.0" standalone="no"?>
<!DOCTYPE svg PUBLIC "-//W3C//DTD SVG 1.1//EN"
 "http://www.w3.org/Graphics/SVG/1.1/DTD/svg11.dtd">
<!-- Created with svg_stack (http://github.com/astraw/svg_stack) -->
<svg xmlns:sodipodi="http://sodipodi.sourceforge.net/DTD/sodipodi-0.dtd" xmlns="http://www.w3.org/2000/svg" version="1.1" width="1597.5" height="1596.25">
  <defs/>
  <g id="id0:id0" transform="matrix(1.25,0,0,1.25,0.0,0.0)"><g transform="translate(0.000000,1277.000000) scale(0.100000,-0.100000)" fill="#000000" stroke="none">
<path d="M6000 12760 c-398 -21 -955 -114 -1347 -226 -680 -194 -1222 -446 -1823 -847 -955 -638 -1736 -1549 -2238 -2612 -200 -424 -382 -986 -466 -1440 -161 -870 -161 -1630 0 -2500 84 -454 266 -1017 466 -1440 503 -1063 1283 -1974 2238 -2612 601 -401 1143 -653 1823 -847 307 -87 617 -147 1027 -197 263 -32 269 -33 710 -33 441 0 447 1 710 33 416 51 721 110 1020 196 849 247 1513 586 2219 1134 1051 815 1815 1959 2191 3281 374 1314 321 2640 -159 3960 -158 435 -412 936 -672 1325 -371 556 -843 1065 -1359 1466 -706 548 -1371 887 -2220 1134 -298 86 -615 147 -1020 196 -229 27 -291 30 -605 34 -192 2 -415 0 -495 -5z m940 -1645 c458 -51 960 -192 1440 -405 404 -179 813 -453 1236 -827 315 -278 714 -783 922 -1169 327 -604 485 -1090 579 -1774 24 -181 26 -221 26 -555 0 -334 -2 -374 -26 -553 -94 -686 -253 -1173 -579 -1776 -210 -389 -606 -890 -929 -1176 -352 -311 -533 -443 -892 -649 -506 -290 -1211 -516 -1812 -582 -297 -33 -739 -33 -1035 0 -591 65 -1304 294 -1807 582 -458 263 -852 571 -1141 893 -330 368 -471 562 -692 945 -271 468 -509 1203 -571 1758 -32 287 -32 829 0 1116 62 556 299 1289 570 1758 221 383 367 581 693 945 274 305 706 643 1148 897 475 273 1192 507 1750 572 164 19 251 23 550 24 314 0 380 -2 570 -24z"/>
<path d="M8625 8726 c-128 -24 -265 -75 -344 -128 -206 -138 -269 -214 -321 -388 -52 -175 -61 -250 -67 -542 l-5 -278 -244 0 -244 0 0 -350 0 -350 245 0 245 0 0 -1335 0 -1335 445 0 445 0 0 1335 0 1335 335 0 335 0 0 350 0 350 -336 0 -336 0 5 208 c5 240 15 285 80 363 31 38 57 58 102 76 58 24 66 25 245 20 124 -3 209 -10 258 -22 40 -9 76 -14 79 -11 8 8 124 609 118 614 -10 11 -293 82 -325 82 -19 0 -73 7 -120 15 -135 24 -444 19 -595 -9z"/>
<path d="M3110 6344 l0 -2327 1173 6 c1232 6 1425 12 1647 52 342 60 610 224 805 490 86 118 121 185 180 347 67 182 89 317 81 508 -3 85 -10 177 -16 204 -11 52 -91 269 -120 326 -51 98 -242 299 -348 368 -72 46 -260 135 -334 158 l-57 17 87 50 c131 75 162 99 242 184 180 192 257 340 306 582 23 115 15 352 -16 464 -27 100 -86 238 -129 302 -141 207 -217 282 -414 403 -89 55 -264 124 -347 136 -25 4 -54 11 -65 16 -64 29 -246 33 -1447 37 l-1228 4 0 -2327z m2005 1546 c262 -8 333 -13 392 -29 118 -31 207 -95 273 -196 54 -83 73 -155 74 -285 1 -86 -3 -118 -23 -180 -36 -108 -92 -185 -176 -242 -88 -59 -153 -84 -285 -110 -97 -19 -153 -21 -717 -25 l-613 -5 0 541 0 541 378 0 c207 -1 521 -5 697 -10z m30 -1850 c316 -14 435 -30 537 -75 139 -61 216 -131 276 -251 84 -167 90 -384 15 -571 -47 -118 -195 -243 -340 -289 -112 -35 -301 -45 -955 -51 l-638 -6 0 627 0 626 443 0 c243 0 541 -5 662 -10z"/>
</g>
</g>
  <g id="id1:id1" transform="matrix(1.25,0,0,1.25,0.0,0.0)"><g transform="translate(0.000000,1277.000000) scale(0.100000,-0.100000)" fill="#ffffff" stroke="none">
<path d="M5820 11115 c-558 -65 -1275 -299 -1750 -572 -442 -254 -874 -592 -1148 -897 -326 -364 -472 -562 -693 -945 -271 -469 -508 -1202 -570 -1758 -32 -287 -32 -829 0 -1116 62 -555 300 -1290 571 -1758 221 -383 362 -577 692 -945 289 -322 683 -630 1141 -893 503 -288 1216 -517 1807 -582 296 -33 738 -33 1035 0 601 66 1306 292 1812 582 359 206 540 338 892 649 323 286 719 787 929 1176 326 603 485 1090 579 1776 24 179 26 219 26 553 0 334 -2 374 -26 555 -94 684 -252 1170 -579 1774 -208 386 -607 891 -922 1169 -423 374 -832 648 -1236 827 -480 213 -982 354 -1440 405 -190 22 -256 24 -570 24 -299 -1 -386 -5 -550 -24z m3400 -2380 c47 -8 101 -15 120 -15 32 0 315 -71 325 -82 6 -5 -110 -606 -118 -614 -3 -3 -39 2 -79 11 -49 12 -134 19 -258 22 -179 5 -187 4 -245 -20 -45 -18 -71 -38 -102 -76 -65 -78 -75 -123 -80 -363 l-5 -208 336 0 336 0 0 -350 0 -350 -335 0 -335 0 0 -1335 0 -1335 -445 0 -445 0 0 1335 0 1335 -245 0 -245 0 0 350 0 350 244 0 244 0 5 278 c6 292 15 367 67 542 52 174 115 250 321 388 79 53 216 104 344 128 151 28 460 33 595 9z m-3555 -84 c55 -7 109 -16 120 -21 11 -5 40 -12 65 -16 83 -12 258 -81 347 -136 197 -121 273 -196 414 -403 43 -64 102 -202 129 -302 31 -112 39 -349 16 -464 -49 -242 -126 -390 -306 -582 -80 -85 -111 -109 -242 -184 l-87 -50 57 -17 c74 -23 262 -112 334 -158 106 -69 297 -270 348 -368 29 -57 109 -274 120 -326 6 -27 13 -119 16 -204 8 -191 -14 -326 -81 -508 -59 -162 -94 -229 -180 -347 -195 -266 -463 -430 -805 -490 -222 -40 -415 -46 -1647 -52 l-1173 -6 0 2327 0 2327 1228 -4 c876 -3 1256 -7 1327 -16z"/>
<path d="M4040 7359 l0 -541 613 5 c564 4 620 6 717 25 132 26 197 51 285 110 84 57 140 134 176 242 20 62 24 94 23 180 -1 130 -20 202 -74 285 -66 101 -155 165 -273 196 -88 24 -501 38 -1089 39 l-378 0 0 -541z"/>
<path d="M4040 5424 l0 -627 638 6 c654 6 843 16 955 51 86 27 170 80 242 151 84 83 116 152 141 303 24 147 5 281 -58 406 -60 120 -137 190 -276 251 -65 28 -108 39 -200 51 -180 22 -513 34 -999 34 l-443 0 0 -626z"/>
</g>
</g>
</svg>
