<?xml version="1.0" standalone="no"?>
<!DOCTYPE svg PUBLIC "-//W3C//DTD SVG 1.1//EN"
 "http://www.w3.org/Graphics/SVG/1.1/DTD/svg11.dtd">
<!-- Created with svg_stack (http://github.com/astraw/svg_stack) -->
<svg xmlns:sodipodi="http://sodipodi.sourceforge.net/DTD/sodipodi-0.dtd" xmlns="http://www.w3.org/2000/svg" version="1.1" width="1978.75" height="1390.0">
  <defs/>
  <g id="id0:id0" transform="matrix(1.25,0,0,1.25,0.0,0.0)"><g transform="translate(0.000000,1112.000000) scale(0.100000,-0.100000)" fill="#000000" stroke="none">
<path d="M0 5560 l0 -5560 7915 0 7915 0 0 5560 0 5560 -7915 0 -7915 0 0 -5560z m14130 0 l0 -3860 -6215 0 -6215 0 0 3860 0 3860 6215 0 6215 0 0 -3860z"/>
</g>
</g>
  <g id="id1:id1" transform="matrix(1.25,0,0,1.25,0.0,0.0)"><g transform="translate(0.000000,1112.000000) scale(0.100000,-0.100000)" fill="#ffffff" stroke="none">
<path d="M1700 5560 l0 -3860 6215 0 6215 0 0 3860 0 3860 -6215 0 -6215 0 0 -3860z"/>
</g>
</g>
</svg>
