<?xml version="1.0" standalone="no"?>
<!DOCTYPE svg PUBLIC "-//W3C//DTD SVG 1.1//EN"
 "http://www.w3.org/Graphics/SVG/1.1/DTD/svg11.dtd">
<!-- Created with svg_stack (http://github.com/astraw/svg_stack) -->
<svg xmlns:sodipodi="http://sodipodi.sourceforge.net/DTD/sodipodi-0.dtd" xmlns="http://www.w3.org/2000/svg" version="1.1" width="1596.25" height="1597.5">
  <defs/>
  <g id="id0:id0" transform="matrix(1.25,0,0,1.25,0.0,0.0)"><g transform="translate(0.000000,1278.000000) scale(0.100000,-0.100000)" fill="#000000" stroke="none">
<path d="M0 6390 l0 -6390 6385 0 6385 0 0 6390 0 6390 -6385 0 -6385 0 0 -6390z m11350 0 l0 -4970 -4965 0 -4965 0 0 4970 0 4970 4965 0 4965 0 0 -4970z"/>
<path d="M3563 7803 c4 -1883 6 -2233 20 -2443 9 -135 21 -283 26 -330 6 -47 15 -137 21 -200 6 -63 18 -146 26 -185 8 -38 24 -117 35 -175 26 -142 59 -238 144 -415 129 -271 348 -548 575 -726 123 -96 328 -221 445 -270 50 -20 126 -53 170 -72 116 -49 195 -71 426 -116 267 -52 325 -59 624 -76 321 -19 586 -19 750 0 72 8 157 15 191 15 33 0 175 22 315 49 228 44 272 56 429 115 368 140 570 263 816 499 108 103 262 314 334 456 145 291 233 633 260 1016 6 88 14 167 17 175 19 52 26 686 30 2668 l4 2212 -716 0 -715 0 0 -2097 c-1 -1154 -5 -2222 -10 -2373 -8 -246 -28 -460 -60 -665 -59 -380 -381 -702 -805 -806 -267 -65 -683 -66 -955 0 -176 42 -255 76 -417 182 -102 66 -174 130 -246 218 -184 223 -251 413 -283 796 -14 176 -17 476 -21 2473 l-5 2272 -715 0 -714 0 4 -2197z"/>
</g>
</g>
  <g id="id1:id1" transform="matrix(1.25,0,0,1.25,0.0,0.0)"><g transform="translate(0.000000,1278.000000) scale(0.100000,-0.100000)" fill="#ffffff" stroke="none">
<path d="M1420 6390 l0 -4970 4965 0 4965 0 0 4970 0 4970 -4965 0 -4965 0 0 -4970z m3573 1338 c4 -1997 7 -2297 21 -2473 32 -383 99 -573 283 -796 93 -114 197 -196 375 -297 166 -95 452 -152 758 -152 439 0 709 83 966 295 171 140 291 348 324 560 32 205 52 419 60 665 5 151 9 1219 10 2373 l0 2097 715 0 716 0 -4 -2212 c-4 -1982 -11 -2616 -30 -2668 -3 -8 -11 -87 -17 -175 -27 -383 -115 -725 -260 -1016 -72 -142 -226 -353 -334 -456 -246 -236 -448 -359 -816 -499 -157 -59 -201 -71 -429 -115 -140 -27 -282 -49 -315 -49 -34 0 -119 -7 -191 -15 -164 -19 -429 -19 -750 0 -299 17 -357 24 -624 76 -231 45 -310 67 -426 116 -44 19 -120 52 -170 72 -117 49 -322 174 -445 270 -227 178 -446 455 -575 726 -85 177 -118 273 -144 415 -11 58 -27 137 -35 175 -8 39 -20 122 -26 185 -6 63 -15 153 -21 200 -5 47 -17 195 -26 330 -14 210 -16 560 -20 2443 l-4 2197 714 0 715 0 5 -2272z"/>
</g>
</g>
</svg>
