<?xml version="1.0" standalone="no"?>
<!DOCTYPE svg PUBLIC "-//W3C//DTD SVG 1.1//EN"
 "http://www.w3.org/Graphics/SVG/1.1/DTD/svg11.dtd">
<!-- Created with svg_stack (http://github.com/astraw/svg_stack) -->
<svg xmlns:sodipodi="http://sodipodi.sourceforge.net/DTD/sodipodi-0.dtd" xmlns="http://www.w3.org/2000/svg" version="1.1" width="1596.25" height="1597.5">
  <defs/>
  <g id="id0:id0" transform="matrix(1.25,0,0,1.25,0.0,0.0)"><g transform="translate(0.000000,1278.000000) scale(0.100000,-0.100000)" fill="#000000" stroke="none">
<path d="M10251 11746 l-183 -183 -447 -236 -446 -235 -200 -7 -200 -7 -143 63 c-140 62 -144 65 -199 131 -55 67 -55 69 -130 320 -42 139 -79 257 -83 261 -3 4 -108 -69 -231 -162 l-224 -169 -260 -114 -260 -115 -278 -67 c-152 -36 -296 -66 -320 -65 -23 0 -105 8 -183 17 l-141 17 -91 60 c-51 33 -94 67 -96 75 -3 8 -26 134 -51 280 -25 146 -49 273 -53 283 -6 14 -350 -271 -1882 -1564 -1031 -869 -1894 -1590 -1918 -1602 l-42 -21 0 -96 c0 -52 7 -1648 15 -3545 l15 -3450 61 -141 60 -141 138 -101 c131 -96 146 -104 327 -175 l189 -75 228 -28 228 -27 287 13 287 13 245 87 c273 97 466 194 552 278 l48 46 72 -51 c157 -108 307 -184 524 -263 l210 -77 231 -13 c274 -16 427 -6 703 42 l175 31 147 81 c255 141 319 200 2011 1893 l1497 1498 -2 3713 -3 3712 -184 -184z m-1803 -1025 l237 -114 223 13 c123 7 225 11 227 9 2 -2 -446 -458 -995 -1014 l-999 -1010 -328 -156 -328 -156 -180 -37 -180 -38 -209 7 -209 7 -162 76 c-154 71 -167 79 -259 166 l-97 91 1403 1256 1403 1255 108 -121 108 -121 237 -113z m-2511 176 l208 -154 274 -28 c292 -30 276 -31 445 10 58 14 59 13 40 -4 -10 -10 -500 -452 -1088 -981 l-1069 -963 -271 -192 -271 -192 -173 -53 -173 -52 -201 7 -200 7 -162 78 c-147 71 -171 87 -276 178 -63 55 -115 105 -115 110 0 7 2813 2381 2822 2382 2 0 96 -69 210 -153z m4042 -3139 l0 -3053 -1234 -1240 -1235 -1240 0 3050 0 3050 1233 1242 c677 683 1233 1243 1235 1243 1 0 2 -1374 1 -3052z m-7201 398 c101 -90 106 -93 335 -197 l232 -106 285 -13 285 -13 245 73 c135 40 250 76 255 80 6 5 54 33 108 63 l97 56 0 -3173 0 -3172 -57 -55 c-78 -76 -194 -136 -432 -224 l-199 -73 -238 -7 c-214 -7 -257 -5 -414 15 -160 20 -186 26 -305 72 -158 62 -255 129 -279 192 -13 36 -16 317 -25 2306 -6 1246 -13 2719 -17 3274 -5 848 -4 1007 7 1000 8 -4 60 -49 117 -98z m4272 -3243 l0 -3138 -120 -100 c-66 -55 -159 -123 -207 -151 -82 -48 -97 -52 -228 -75 -127 -22 -166 -24 -430 -22 l-290 1 -162 60 c-185 69 -331 144 -450 232 l-83 61 0 3125 0 3125 33 -25 c17 -13 131 -71 252 -129 l220 -104 285 -13 285 -13 240 58 c234 56 245 60 435 150 107 51 201 93 208 94 9 1 12 -633 12 -3136z"/>
<path d="M3340 6605 l0 -675 230 0 230 0 0 675 0 675 -230 0 -230 0 0 -675z"/>
<path d="M5870 6605 l0 -675 230 0 230 0 0 675 0 675 -230 0 -230 0 0 -675z"/>
</g>
</g>
  <g id="id1:id1" transform="matrix(1.25,0,0,1.25,0.0,0.0)"><g transform="translate(0.000000,1278.000000) scale(0.100000,-0.100000)" fill="#111111" stroke="none">
</g>
</g>
  <g id="id2:id2" transform="matrix(1.25,0,0,1.25,0.0,0.0)"><g transform="translate(0.000000,1278.000000) scale(0.100000,-0.100000)" fill="#222222" stroke="none">
</g>
</g>
  <g id="id3:id3" transform="matrix(1.25,0,0,1.25,0.0,0.0)"><g transform="translate(0.000000,1278.000000) scale(0.100000,-0.100000)" fill="#333333" stroke="none">
</g>
</g>
  <g id="id4:id4" transform="matrix(1.25,0,0,1.25,0.0,0.0)"><g transform="translate(0.000000,1278.000000) scale(0.100000,-0.100000)" fill="#444444" stroke="none">
</g>
</g>
  <g id="id5:id5" transform="matrix(1.25,0,0,1.25,0.0,0.0)"><g transform="translate(0.000000,1278.000000) scale(0.100000,-0.100000)" fill="#555555" stroke="none">
</g>
</g>
  <g id="id6:id6" transform="matrix(1.25,0,0,1.25,0.0,0.0)"><g transform="translate(0.000000,1278.000000) scale(0.100000,-0.100000)" fill="#666666" stroke="none">
</g>
</g>
  <g id="id7:id7" transform="matrix(1.25,0,0,1.25,0.0,0.0)"><g transform="translate(0.000000,1278.000000) scale(0.100000,-0.100000)" fill="#777777" stroke="none">
</g>
</g>
  <g id="id8:id8" transform="matrix(1.25,0,0,1.25,0.0,0.0)"><g transform="translate(0.000000,1278.000000) scale(0.100000,-0.100000)" fill="#888888" stroke="none">
</g>
</g>
  <g id="id9:id9" transform="matrix(1.25,0,0,1.25,0.0,0.0)"><g transform="translate(0.000000,1278.000000) scale(0.100000,-0.100000)" fill="#999999" stroke="none">
</g>
</g>
  <g id="id10:id10" transform="matrix(1.25,0,0,1.25,0.0,0.0)"><g transform="translate(0.000000,1278.000000) scale(0.100000,-0.100000)" fill="#aaaaaa" stroke="none">
</g>
</g>
  <g id="id11:id11" transform="matrix(1.25,0,0,1.25,0.0,0.0)"><g transform="translate(0.000000,1278.000000) scale(0.100000,-0.100000)" fill="#bbbbbb" stroke="none">
</g>
</g>
  <g id="id12:id12" transform="matrix(1.25,0,0,1.25,0.0,0.0)"><g transform="translate(0.000000,1278.000000) scale(0.100000,-0.100000)" fill="#cccccc" stroke="none">
<path d="M8743 9567 l-1233 -1242 0 -3050 0 -3050 1235 1240 1234 1240 0 3053 c1 1678 0 3052 -1 3052 -2 0 -558 -560 -1235 -1243z"/>
<path d="M2654 7254 c4 -555 11 -2028 17 -3274 9 -1989 12 -2270 25 -2306 24 -63 121 -130 279 -192 119 -46 145 -52 305 -72 157 -20 200 -22 414 -15 l238 7 199 73 c238 88 354 148 432 224 l57 55 0 3172 0 3173 -97 -56 c-54 -30 -102 -58 -108 -63 -5 -4 -120 -40 -255 -80 l-245 -73 -285 13 -285 13 -232 106 c-229 104 -234 107 -335 197 -57 49 -109 94 -117 98 -11 7 -12 -152 -7 -1000z m1146 -649 l0 -675 -230 0 -230 0 0 675 0 675 230 0 230 0 0 -675z"/>
<path d="M6830 7955 c-190 -90 -201 -94 -435 -150 l-240 -58 -285 13 -285 13 -220 104 c-121 58 -235 116 -252 129 l-33 25 0 -3125 0 -3125 83 -61 c119 -88 265 -163 450 -232 l162 -60 290 -1 c264 -2 303 0 430 22 131 23 146 27 228 75 48 28 141 96 207 151 l120 100 0 3138 c0 2503 -3 3137 -12 3136 -7 -1 -101 -43 -208 -94z m-500 -1350 l0 -675 -230 0 -230 0 0 675 0 675 230 0 230 0 0 -675z"/>
</g>
</g>
  <g id="id13:id13" transform="matrix(1.25,0,0,1.25,0.0,0.0)"><g transform="translate(0.000000,1278.000000) scale(0.100000,-0.100000)" fill="#dddddd" stroke="none">
</g>
</g>
  <g id="id14:id14" transform="matrix(1.25,0,0,1.25,0.0,0.0)"><g transform="translate(0.000000,1278.000000) scale(0.100000,-0.100000)" fill="#eeeeee" stroke="none">
</g>
</g>
  <g id="id15:id15" transform="matrix(1.25,0,0,1.25,0.0,0.0)"><g transform="translate(0.000000,1278.000000) scale(0.100000,-0.100000)" fill="#ffffff" stroke="none">
<path d="M0 6390 l0 -6390 6385 0 6385 0 0 6390 0 6390 -6385 0 -6385 0 0 -6390z m8943 -3383 c-1692 -1693 -1756 -1752 -2011 -1893 l-147 -81 -175 -31 c-276 -48 -429 -58 -703 -42 l-231 13 -210 77 c-217 79 -367 155 -524 263 l-72 51 -48 -46 c-86 -84 -279 -181 -552 -278 l-245 -87 -287 -13 -287 -13 -228 27 -228 28 -189 75 c-181 71 -196 79 -327 175 l-138 101 -60 141 -61 141 -15 3450 c-8 1897 -15 3493 -15 3545 l0 96 42 21 c24 12 887 733 1918 1602 1532 1293 1876 1578 1882 1564 4 -10 28 -137 53 -283 25 -146 48 -272 51 -280 2 -8 45 -42 96 -75 l91 -60 141 -17 c78 -9 160 -17 183 -17 24 -1 168 29 320 65 l278 67 260 115 260 114 224 169 c123 93 228 166 231 162 4 -4 41 -122 83 -261 75 -251 75 -253 130 -320 55 -66 59 -69 199 -131 l143 -63 200 7 200 7 446 235 447 236 183 183 184 184 3 -3712 2 -3713 -1497 -1498z"/>
<path d="M6592 9821 l-1403 -1256 97 -91 c92 -87 105 -95 259 -166 l162 -76 209 -7 209 -7 180 38 180 37 328 156 328 156 999 1010 c549 556 997 1012 995 1014 -2 2 -104 -2 -227 -9 l-223 -13 -237 114 -237 113 -108 121 -108 121 -1403 -1255z"/>
<path d="M4315 9863 c-775 -652 -1410 -1190 -1410 -1195 0 -5 52 -55 115 -110 105 -91 129 -107 276 -178 l162 -78 200 -7 201 -7 173 52 173 53 271 192 271 192 1069 963 c588 529 1078 971 1088 981 19 17 18 18 -40 4 -169 -41 -153 -40 -445 -10 l-274 28 -208 154 c-114 84 -208 153 -210 153 -1 0 -636 -534 -1412 -1187z"/>
</g>
</g>
</svg>
