<?xml version="1.0" standalone="no"?>
<!DOCTYPE svg PUBLIC "-//W3C//DTD SVG 1.1//EN"
 "http://www.w3.org/Graphics/SVG/1.1/DTD/svg11.dtd">
<!-- Created with svg_stack (http://github.com/astraw/svg_stack) -->
<svg xmlns:sodipodi="http://sodipodi.sourceforge.net/DTD/sodipodi-0.dtd" xmlns="http://www.w3.org/2000/svg" version="1.1" width="680.0" height="1595.0">
  <defs/>
  <g id="id0:id0" transform="matrix(1.25,0,0,1.25,0.0,0.0)"><g transform="translate(0.000000,1276.000000) scale(0.100000,-0.100000)" fill="#000000" stroke="none">
<path d="M0 10040 l0 -2720 1260 0 1260 0 -2 -2317 -3 -2317 -55 -11 c-311 -64 -561 -216 -778 -471 -93 -111 -127 -166 -193 -314 -59 -135 -94 -271 -109 -430 -18 -186 15 -416 86 -591 75 -185 184 -351 316 -481 110 -108 323 -242 488 -306 82 -32 360 -82 454 -82 51 0 147 13 261 35 173 33 185 37 308 100 154 79 300 178 382 260 133 133 272 365 326 545 74 249 87 434 44 645 -48 236 -98 357 -228 549 -112 164 -281 312 -475 416 -106 56 -270 113 -366 126 l-46 7 0 2318 0 2319 1255 0 1255 0 0 2720 0 2720 -2720 0 -2720 0 0 -2720z m5030 0 l0 -2310 -2305 0 -2305 0 0 2310 0 2310 2305 0 2305 0 0 -2310z m-2158 -7765 c74 -11 131 -28 208 -61 147 -62 190 -91 305 -208 126 -127 185 -225 234 -385 32 -109 35 -125 35 -261 1 -136 -1 -152 -33 -260 -18 -63 -46 -140 -62 -170 -88 -166 -294 -366 -442 -429 -24 -11 -95 -34 -158 -52 -101 -29 -128 -33 -234 -33 -106 0 -134 4 -240 33 -133 38 -168 53 -269 118 -142 92 -266 237 -343 401 -65 138 -77 200 -77 382 -1 187 10 240 76 385 55 121 125 221 214 306 79 74 131 108 249 161 114 52 130 56 240 73 113 17 180 17 297 0z"/>
</g>
</g>
  <g id="id1:id1" transform="matrix(1.25,0,0,1.25,0.0,0.0)"><g transform="translate(0.000000,1276.000000) scale(0.100000,-0.100000)" fill="#ffffff" stroke="none">
</g>
</g>
</svg>
