<?xml version="1.0" encoding="UTF-8" standalone="no"?>
<svg
   xmlns:dc="http://purl.org/dc/elements/1.1/"
   xmlns:cc="http://creativecommons.org/ns#"
   xmlns:rdf="http://www.w3.org/1999/02/22-rdf-syntax-ns#"
   xmlns:svg="http://www.w3.org/2000/svg"
   xmlns="http://www.w3.org/2000/svg"
   xmlns:sodipodi="http://sodipodi.sourceforge.net/DTD/sodipodi-0.dtd"
   xmlns:inkscape="http://www.inkscape.org/namespaces/inkscape"
   viewBox="0 0 406.29546 350.18751"
   version="1.1"
   xml:space="preserve"
   id="svg38973"
   inkscape:version="0.48.3.1 r9886"
   width="100%"
   height="100%"
   sodipodi:docname="alkis3458.svg"
   style="fill-rule:evenodd;stroke-linecap:round;stroke-linejoin:round"><metadata
   id="metadata39154"><rdf:RDF><cc:Work
       rdf:about=""><dc:format>image/svg+xml</dc:format><dc:type
         rdf:resource="http://purl.org/dc/dcmitype/StillImage" /></cc:Work></rdf:RDF></metadata><sodipodi:namedview
   pagecolor="#ffffff"
   bordercolor="#666666"
   borderopacity="1"
   objecttolerance="10"
   gridtolerance="10"
   guidetolerance="10"
   inkscape:pageopacity="0"
   inkscape:pageshadow="2"
   inkscape:window-width="1855"
   inkscape:window-height="1025"
   id="namedview39152"
   showgrid="false"
   inkscape:zoom="1.1125147"
   inkscape:cx="205.65569"
   inkscape:cy="368.02207"
   inkscape:window-x="0"
   inkscape:window-y="33"
   inkscape:window-maximized="1"
   inkscape:current-layer="svg38973" />
<defs
   id="defs38975">
<clipPath
   id="clipId0">
<path
   d="M 0,600 800,600 800,0 0,0 z"
   id="path38978"
   inkscape:connector-curvature="0" />
</clipPath>





















































































</defs>
<g
   clip-path="url(#clipId0)"
   id="g38980"
   style="fill:none;stroke:#000000;stroke-width:0.1"
   transform="translate(-196.14204,-123.9021)" />
<path
   style="fill:#00ff00;stroke:none"
   d="M 161.07671,0.78540476 C 102.49022,5.0651548 47.501734,41.015185 20.372514,93.155405 -10.068636,149.05876 -6.1236562,221.55638 30.384524,273.7335 c 32.34933,48.46843 90.275776,77.94628 148.443466,76.3957 75.82249,0 151.64498,0 227.46747,0 0,-12.17708 0,-24.35417 0,-36.53125 -41.55208,0 -83.10417,0 -124.65625,0 C 331.15622,276.1977 357.37883,211.0352 347.83788,149.74882 339.6171,90.535095 298.62695,37.443765 243.5113,14.341085 217.67106,3.7841748 188.96886,-2.2520052 161.07671,0.78540476 z M 174.79546,36.816655 c 50.56521,-0.37942 99.76085,29.41939 122.71489,74.493825 25.04097,46.92952 19.42899,108.08014 -14.09784,149.44112 -33.42675,43.71082 -94.49713,63.34858 -147.12392,47.24068 C 83.211814,293.43144 42.136274,244.19199 37.245104,189.3842 30.890734,135.08162 60.599524,78.873855 109.04984,53.540985 c 20.07678,-10.97798 42.88735,-16.59602 65.74562,-16.72433 z"
   id="path38984"
   inkscape:connector-curvature="0" />
<polyline
   style="fill:none;stroke:#00ff00;stroke-width:0.25"
   id="polyline39146"
   points="370.94,142.425 370.94,142.425 "
   transform="translate(-196.14204,-123.9021)" />

</svg>