<?xml version="1.0" standalone="no"?>
<!DOCTYPE svg PUBLIC "-//W3C//DTD SVG 1.1//EN"
 "http://www.w3.org/Graphics/SVG/1.1/DTD/svg11.dtd">
<!-- Created with svg_stack (http://github.com/astraw/svg_stack) -->
<svg xmlns:sodipodi="http://sodipodi.sourceforge.net/DTD/sodipodi-0.dtd" xmlns="http://www.w3.org/2000/svg" version="1.1" width="1970.0" height="545.0">
  <defs/>
  <g id="id0:id0" transform="matrix(1.25,0,0,1.25,0.0,0.0)"><g transform="translate(0.000000,436.000000) scale(0.100000,-0.100000)" fill="#000000" stroke="none">
<path d="M2960 4291 c-372 -91 -750 -221 -1110 -384 -264 -118 -266 -120 -512 -290 l-247 -171 -159 -201 c-87 -110 -228 -292 -312 -405 l-154 -205 -124 -270 c-72 -160 -131 -303 -143 -350 -11 -44 -31 -116 -44 -160 -74 -246 -86 -305 -111 -542 -14 -131 -29 -267 -34 -303 -5 -36 -10 -278 -10 -537 l0 -473 1700 0 1700 0 0 418 0 417 39 185 c22 102 57 243 80 314 l40 128 106 101 c59 55 158 142 221 192 l115 91 82 12 c45 6 199 27 341 47 l259 35 3197 0 3197 0 259 -35 c142 -20 296 -41 341 -47 l83 -12 132 -107 c73 -59 170 -144 215 -190 82 -84 82 -84 128 -214 27 -74 63 -209 86 -315 l39 -185 0 -417 0 -418 1700 0 1700 0 0 473 c0 259 -5 501 -10 537 -5 36 -19 155 -30 264 -20 191 -56 381 -101 532 -11 38 -33 119 -49 179 -21 78 -65 188 -152 380 l-124 270 -154 205 c-84 113 -225 295 -312 405 l-159 201 -247 171 c-245 169 -250 172 -507 288 -374 169 -740 295 -1122 386 l-292 69 -4633 -1 -4633 -1 -275 -67z"/>
</g>
</g>
  <g id="id1:id1" transform="matrix(1.25,0,0,1.25,0.0,0.0)"><g transform="translate(0.000000,436.000000) scale(0.100000,-0.100000)" fill="#ffffff" stroke="none">
</g>
</g>
</svg>
