<?xml version="1.0" standalone="no"?>
<!DOCTYPE svg PUBLIC "-//W3C//DTD SVG 1.1//EN"
 "http://www.w3.org/Graphics/SVG/1.1/DTD/svg11.dtd">
<!-- Created with svg_stack (http://github.com/astraw/svg_stack) -->
<svg xmlns:sodipodi="http://sodipodi.sourceforge.net/DTD/sodipodi-0.dtd" xmlns="http://www.w3.org/2000/svg" version="1.1" width="1045.0" height="1596.25">
  <defs/>
  <g id="id0:id0" transform="matrix(1.25,0,0,1.25,0.0,0.0)"><g transform="translate(0.000000,1277.000000) scale(0.100000,-0.100000)" fill="#000000" stroke="none">
<path d="M3690 12745 c-252 -32 -440 -69 -640 -126 -548 -154 -959 -365 -1448 -742 -693 -535 -1181 -1262 -1435 -2142 -95 -326 -128 -530 -157 -963 -6 -101 -10 -1631 -10 -4463 l0 -4309 4180 0 4180 0 -3 4468 -2 4467 -23 155 c-89 622 -227 1046 -503 1552 -248 453 -641 911 -1061 1235 -309 238 -530 375 -838 518 -395 184 -780 291 -1260 350 -171 22 -232 25 -500 24 -252 -1 -335 -5 -480 -24z m860 -1015 c328 -40 680 -140 960 -272 341 -161 628 -364 906 -643 256 -257 451 -537 647 -930 60 -121 178 -500 216 -695 59 -300 55 44 58 -4242 l3 -3918 -3155 0 -3155 0 3 3913 3 3912 21 140 c65 421 142 671 314 1021 128 259 247 432 492 711 233 266 642 564 1006 735 265 124 632 229 941 268 197 25 539 25 740 0z"/>
<path d="M2890 3010 l0 -1290 1290 0 1290 0 0 1290 0 1290 -1290 0 -1290 0 0 -1290z m1030 0 l0 -760 -250 0 -250 0 0 760 0 760 250 0 250 0 0 -760z m1030 0 l0 -760 -250 0 -250 0 0 760 0 760 250 0 250 0 0 -760z"/>
</g>
</g>
  <g id="id1:id1" transform="matrix(1.25,0,0,1.25,0.0,0.0)"><g transform="translate(0.000000,1277.000000) scale(0.100000,-0.100000)" fill="#ffffff" stroke="none">
</g>
</g>
</svg>
