<?xml version="1.0" encoding="UTF-8" standalone="no"?>
<!-- Created with Inkscape (http://www.inkscape.org/) -->

<svg
   xmlns:dc="http://purl.org/dc/elements/1.1/"
   xmlns:cc="http://creativecommons.org/ns#"
   xmlns:rdf="http://www.w3.org/1999/02/22-rdf-syntax-ns#"
   xmlns:svg="http://www.w3.org/2000/svg"
   xmlns="http://www.w3.org/2000/svg"
   xmlns:inkscape="http://www.inkscape.org/namespaces/inkscape"
   version="1.1"
   width="100%"
   height="100%"
   viewBox="0 0 369.03125 350.96875"
   id="svg59646"
   xml:space="preserve"
   style="fill-rule:evenodd;stroke-linecap:round;stroke-linejoin:round"><metadata
     id="metadata59849"><rdf:RDF><cc:Work
         rdf:about=""><dc:format>image/svg+xml</dc:format><dc:type
           rdf:resource="http://purl.org/dc/dcmitype/StillImage" /></cc:Work></rdf:RDF></metadata><defs
     id="defs59648"><clipPath
       id="clipId0"><path
         d="M 0,600 800,600 800,0 0,0 z"
         inkscape:connector-curvature="0"
         id="path59651" /></clipPath></defs><g
     transform="translate(-215.15625,-133.90625)"
     clip-path="url(#clipId0)"
     id="g59653"
     style="fill:none;stroke:#000000;stroke-width:0.1" /><g
     transform="translate(-215.15625,-133.90625)"
     clip-path="url(#clipId0)"
     id="g59655"
     style="fill:#ff0000;stroke:none"><path
       d="m 285.625,133.90625 52.53125,136.96875 -52.53125,34.15625 -70.46875,45.78125 70.46875,-3.65625 52.53125,-2.75 23.5,-1.21875 38,141.6875 38.03125,-141.6875 23.46875,1.21875 52.53125,2.75 70.5,3.65625 -70.5,-45.78125 -52.53125,-34.15625 52.53125,-136.96875 -52.53125,42.53125 -23.46875,19 -38.03125,30.78125 -38,-30.78125 -23.5,-19 -52.53125,-42.53125 z"
       inkscape:connector-curvature="0"
       id="path59687" /></g><g
     transform="translate(-215.15625,-133.90625)"
     clip-path="url(#clipId0)"
     id="g59689"
     style="fill:#ffffff;stroke:none"><path
       d="m 398.125,226.15625 c -4.43375,0.5936 -7.7838,0.68068 -12.24313,1.64085 -3.28314,1.12881 -7.87493,1.55088 -10.97562,3.85915 -4.1205,0.65259 -7.27697,3.60896 -10.86189,5.24416 -3.54681,2.72987 -6.7026,4.9699 -10.10686,8.25584 -1.92619,2.32166 -5.1004,5.48172 -6.77762,8.15586 -2.61362,3.52626 -4.48382,7.06884 -6.34064,10.89224 -1.90978,4.84427 -4.56918,10.02614 -3.83764,15.65285 0.11891,3.68878 0.1779,5.39868 0.013,1.13484 -0.19717,-2.21475 0.0731,-8.15337 -0.81657,-2.19377 -0.55905,3.15616 0.0654,10.63447 -0.29129,3.82829 -0.23964,-6.07761 -0.72383,9.54657 -0.67853,3.70238 -0.26151,2.27779 -0.31705,8.78585 0.38268,12.87555 0.4181,3.91736 0.0246,-1.9291 10e-4,-3.32031 0.0397,-2.71389 -0.0454,5.58166 0.71025,7.62879 0.68318,4.34984 0.38131,0.22738 0.30793,-1.92995 -0.10987,-2.8033 -0.31956,-8.08708 -0.0426,-1.6286 -0.11572,3.73386 0.33946,7.37073 1.58847,10.88933 -0.22917,-5.90625 -0.45833,-11.8125 -0.6875,-17.71875 0.50895,6.22223 0.0385,12.63766 1.07056,18.74698 6.8381,20.37065 24.49098,36.6111 45.37243,41.69447 21.2637,5.53318 45.05345,-0.85191 60.7103,-16.25384 8.70044,-8.38556 14.9088,-19.27588 17.81546,-31.00011 -0.0365,-3.53507 -0.35252,-12.52311 -0.0562,-4.82374 0.12731,1.745 0.0116,6.60834 0.60852,2.32747 0.88237,-1.85342 0.10523,-10.65096 0.39414,-6.5826 0.0227,3.19167 0.25802,4.9459 0.55929,0.33682 0.14003,-1.64714 0.0955,-4.87301 0.18168,-1.63295 0.28833,-2.10185 0.0967,-10.65101 0,-9.02774 0.25769,4.25887 -0.75901,-10.91375 -0.49899,-3.60123 0.21418,6.63417 -0.18434,-6.2467 -0.0948,-0.46478 -0.0543,-3.86915 -1.36406,-9.72483 -0.8191,-3.04198 0.10636,2.85774 0.21273,5.71549 0.3191,8.57323 -0.18494,-3.07718 -0.42518,-12.08308 -0.46875,-11.49649 0.20382,0.30549 -1.29371,-6.65056 -1.52383,-5.82271 -1.31437,-4.71673 -1.80474,-4.81656 -3.75742,-9.5558 0.0735,0.99919 -2.57409,-4.95724 -2.94549,-5.06533 -3.33765,-5.20776 -6.65477,-8.71256 -10.53726,-12.83282 -3.40668,-2.9404 -7.68057,-6.05975 -11.06314,-8.29691 -4.3209,-2.24856 -7.20392,-3.69574 -11.82221,-5.40622 -3.07936,-0.64366 -7.71846,-2.86328 -11.1319,-2.36747 -3.92134,-1.80544 -7.94507,-0.5297 -11.65625,-1.375 z m 65.40625,63.15625 c 0,2.27083 0,4.54167 0,6.8125 -0.0925,-2.26984 -0.0476,-4.5422 0,-6.8125 z"
       inkscape:connector-curvature="0"
       id="path59845" /></g></svg>