<?xml version="1.0" encoding="UTF-8" standalone="no"?>
<!-- Created with Inkscape (http://www.inkscape.org/) -->

<svg
   xmlns:dc="http://purl.org/dc/elements/1.1/"
   xmlns:cc="http://creativecommons.org/ns#"
   xmlns:rdf="http://www.w3.org/1999/02/22-rdf-syntax-ns#"
   xmlns:svg="http://www.w3.org/2000/svg"
   xmlns="http://www.w3.org/2000/svg"
   xmlns:inkscape="http://www.inkscape.org/namespaces/inkscape"
   version="1.1"
   width="100%"
   height="100%"
   viewBox="0 0 301.86973 323.89545"
   id="svg36476"
   xml:space="preserve"
   style="fill-rule:evenodd;stroke-linecap:round;stroke-linejoin:round"><metadata
     id="metadata36625"><rdf:RDF><cc:Work
         rdf:about=""><dc:format>image/svg+xml</dc:format><dc:type
           rdf:resource="http://purl.org/dc/dcmitype/StillImage" /></cc:Work></rdf:RDF></metadata><defs
     id="defs36478"><clipPath
       id="clipId0"><path
         d="M 0,600 800,600 800,0 0,0 z"
         inkscape:connector-curvature="0"
         id="path36481" /></clipPath></defs><g
     transform="translate(-249.44277,-138.09375)"
     clip-path="url(#clipId0)"
     id="g36483"
     style="fill:none;stroke:#000000;stroke-width:0.1" /><g
     transform="translate(-249.44277,-138.09375)"
     clip-path="url(#clipId0)"
     id="g36485"
     style="fill:#000000;stroke:none"><path
       d="m 407.0625,138.09375 c -50.27997,1.16587 -99.22258,27.16816 -127.97996,68.48544 -31.90091,44.43235 -38.73226,105.43031 -17.17251,155.738 20.69321,50.96574 69.2078,89.25982 123.60057,97.50306 54.50492,9.34141 112.94222,-11.99536 148.58406,-54.28444 6.55371,-7.39024 12.08501,-15.61317 17.21784,-24.03581 -8.30208,-5.23958 -16.60417,-10.47917 -24.90625,-15.71875 -22.03072,38.80376 -64.51383,64.9629 -109.17108,66.55821 -48.7231,2.6733 -97.5162,-24.27884 -121.11987,-67.00284 -24.53874,-42.17859 -22.62924,-97.9013 4.69487,-138.3301 26.47559,-40.97968 76.94914,-64.58978 125.37726,-58.60178 39.0486,4.17147 75.40173,26.8822 96.59382,59.90776 8.02083,-5.66667 16.04167,-11.33333 24.0625,-17 -27.29949,-42.02076 -74.89512,-69.93864 -124.95751,-72.87067 -4.922,-0.4241 -9.88674,-0.19416 -14.82374,-0.34808 z m 4.25,40.46875 c -35.05208,60.72917 -70.10417,121.45833 -105.15625,182.1875 70.11458,0 140.22917,0 210.34375,0 C 481.4375,300.02083 446.375,239.29167 411.3125,178.5625 z"
       inkscape:connector-curvature="0"
       id="path36621" /></g></svg>