<?xml version="1.0" encoding="UTF-8" standalone="no"?>
<!-- Created with Inkscape (http://www.inkscape.org/) -->

<svg
   xmlns:dc="http://purl.org/dc/elements/1.1/"
   xmlns:cc="http://creativecommons.org/ns#"
   xmlns:rdf="http://www.w3.org/1999/02/22-rdf-syntax-ns#"
   xmlns:svg="http://www.w3.org/2000/svg"
   xmlns="http://www.w3.org/2000/svg"
   xmlns:inkscape="http://www.inkscape.org/namespaces/inkscape"
   version="1.1"
   width="100%"
   height="100%"
   viewBox="0 0 309.71875 282.40625"
   id="svg20967"
   xml:space="preserve"
   style="fill-rule:evenodd;stroke-linecap:round;stroke-linejoin:round"><metadata
     id="metadata21016"><rdf:RDF><cc:Work
         rdf:about=""><dc:format>image/svg+xml</dc:format><dc:type
           rdf:resource="http://purl.org/dc/dcmitype/StillImage" /></cc:Work></rdf:RDF></metadata><defs
     id="defs20969"><clipPath
       id="clipId0"><path
         d="M 0,600 800,600 800,0 0,0 z"
         inkscape:connector-curvature="0"
         id="path20972" /></clipPath></defs><g
     transform="translate(-246.4375,-158.78125)"
     clip-path="url(#clipId0)"
     id="g20974"
     style="fill:none;stroke:#000000;stroke-width:0.1" /><g
     transform="translate(-246.4375,-158.78125)"
     clip-path="url(#clipId0)"
     id="g20976"
     style="fill:#000000;fill-rule:nonzero;stroke:none"><path
       d="m 291.71875,158.78125 -12.8125,12.84375 102.5,102.5 L 326,329.5 264.5625,268.0625 c 0.2523,3.07405 -4.6774,27.48771 -18.125,92.25 l 80.84375,80.875 L 382.5,386 338.84375,342.34375 394.25,286.9375 l 55.375,55.40625 -32.09375,32.09375 -6.55018,6.38133 6.55018,6.43117 48.78125,48.78125 89.84375,-89.84375 -55.1875,-55.1875 -38.53125,38.5 -55.375,-55.375 102.5,-102.5 -12.84375,-12.84375 -102.5,102.5 z"
       inkscape:connector-curvature="0"
       id="path21012"
       style="fill-rule:nonzero" /></g></svg>