<?xml version="1.0" encoding="UTF-8" standalone="no"?>
<svg
   xmlns:dc="http://purl.org/dc/elements/1.1/"
   xmlns:cc="http://creativecommons.org/ns#"
   xmlns:rdf="http://www.w3.org/1999/02/22-rdf-syntax-ns#"
   xmlns:svg="http://www.w3.org/2000/svg"
   xmlns="http://www.w3.org/2000/svg"
   xmlns:sodipodi="http://sodipodi.sourceforge.net/DTD/sodipodi-0.dtd"
   xmlns:inkscape="http://www.inkscape.org/namespaces/inkscape"
   viewBox="0 0 372.40625 372.40625"
   version="1.1"
   xml:space="preserve"
   id="svg2"
   inkscape:version="0.48.3.1 r9886"
   width="100%"
   height="100%"
   sodipodi:docname="alkis3311.svg"
   style="fill-rule:evenodd;stroke-linecap:round;stroke-linejoin:round"><metadata
   id="metadata23"><rdf:RDF><cc:Work
       rdf:about=""><dc:format>image/svg+xml</dc:format><dc:type
         rdf:resource="http://purl.org/dc/dcmitype/StillImage" /></cc:Work></rdf:RDF></metadata><sodipodi:namedview
   pagecolor="#ffffff"
   bordercolor="#666666"
   borderopacity="1"
   objecttolerance="10"
   gridtolerance="10"
   guidetolerance="10"
   inkscape:pageopacity="0"
   inkscape:pageshadow="2"
   inkscape:window-width="1855"
   inkscape:window-height="1025"
   id="namedview21"
   showgrid="false"
   inkscape:zoom="0.39333333"
   inkscape:cx="200.59798"
   inkscape:cy="185.84375"
   inkscape:window-x="0"
   inkscape:window-y="33"
   inkscape:window-maximized="1"
   inkscape:current-layer="svg2" />
<defs
   id="defs4">
<clipPath
   id="clipId0">
<path
   d="M 0,600 800,600 800,0 0,0 z"
   id="path7"
   inkscape:connector-curvature="0" />
</clipPath>
</defs>
<g
   clip-path="url(#clipId0)"
   id="g9"
   style="fill:none;stroke:#000000;stroke-width:0.1"
   transform="translate(-214.65625,-113.4375)" />
<g
   clip-path="url(#clipId0)"
   id="g11"
   style="fill:#ffffff;stroke:none"
   transform="translate(-214.65625,-113.4375)">
<path
   id="path13"
   d="m 214.65625,113.4375 0,372.40625 372.40625,0 0,-372.40625 -372.40625,0 z"
   inkscape:connector-curvature="0" />

</g>
<g
   clip-path="url(#clipId0)"
   id="g17"
   style="fill:#000000;stroke:none"
   transform="translate(-214.65625,-113.4375)">
<g
   transform="matrix(148.962,0,0,148.962,233.171,369.192)"
   style="font-size:1.39636004px;font-weight:bold;font-family:'Arial,\'sans-serif\''"
   id="text19"><path
     style="font-size:1.39636004px;font-weight:bold;font-family:'Arial,\'sans-serif\''"
     d="M 1.0684063,0 C 0.98886106,0 0.90931583,0 0.82977059,0 0.78042535,-0.21388522 0.72800402,-0.42710027 0.68088926,-0.64147155 0.67248433,-0.6725157 0.66442399,-0.75298178 0.65744124,-0.75088203 0.61553289,-0.53202964 0.55969273,-0.31616161 0.51054578,-0.09885912 0.50286343,-0.06590608 0.49518109,-0.03295304 0.48749874,0 0.40795349,0 0.32840825,0 0.248863,0 0.16636321,-0.32022645 0.08386342,-0.64045289 0.00136363,-0.96067934 c 0.06795437,0 0.13590874,0 0.20386311,0 0.0568263,0.25681546 0.11722445,0.51286675 0.1704541,0.77045257 0.050711,-0.25834653 0.11486385,-0.51376576 0.17318276,-0.77045262 0.0749998,0 0.14999961,0 0.22499942,0 0.0448935,0.19306997 0.0934479,0.38533584 0.13568136,0.57899023 0.0126457,0.0635885 0.0233135,0.12753776 0.0340916,0.19146229 0.0433534,-0.19417896 0.0869365,-0.38830371 0.12842332,-0.58290519 0.013556,-0.0625158 0.027111,-0.12503152 0.040667,-0.18754728 0.067954,0 0.1359087,0 0.2038631,0 C 1.2338618,-0.64045289 1.151134,-0.32022645 1.0684063,0 z"
     id="path2989"
     inkscape:connector-curvature="0" /><path
     style="font-size:1.39636004px;font-weight:bold;font-family:'Arial,\'sans-serif\''"
     d="m 1.8593134,-0.14454508 c 0.097296,0.004661 0.1923983,-0.053105 0.2338309,-0.14123164 0.00861,-0.0352596 0.023823,-0.0479439 0.054375,-0.02819 0.046658,0.0176103 0.093317,0.0352207 0.1399749,0.052831 -0.04148,0.10514307 -0.1210736,0.19771789 -0.2282808,0.23876361 C 1.9471127,0.02324899 1.820292,0.02191108 1.7035424,-0.00376597 1.580697,-0.03255622 1.4712516,-0.11822712 1.4220428,-0.23554883 c -0.055733,-0.13079683 -0.059253,-0.28013375 -0.028594,-0.41763102 0.027172,-0.12238247 0.1112157,-0.23336964 0.2291608,-0.28038908 0.1175946,-0.0485603 0.2507707,-0.051184 0.3742283,-0.0262897 0.1138909,0.0239877 0.2165229,0.10115773 0.2619558,0.20959472 0.019132,0.028653 0.019429,0.0506324 -0.017324,0.0517553 -0.04784,0.013064 -0.09568,0.0261281 -0.1435202,0.0391921 -0.03056,-0.10291161 -0.1407954,-0.16049777 -0.243408,-0.1574995 -0.095433,-0.003818 -0.1969632,0.0423186 -0.2380159,0.13225691 -0.047939,0.10198754 -0.047438,0.22099271 -0.025701,0.32962585 0.019443,0.0959723 0.091931,0.18348118 0.1908012,0.20240631 0.025466,0.005718 0.051618,0.007975 0.077688,0.007982 z"
     id="path2991"
     inkscape:connector-curvature="0" /></g>

</g>
</svg>