<?xml version="1.0" standalone="no"?>
<!DOCTYPE svg PUBLIC "-//W3C//DTD SVG 1.1//EN"
 "http://www.w3.org/Graphics/SVG/1.1/DTD/svg11.dtd">
<!-- Created with svg_stack (http://github.com/astraw/svg_stack) -->
<svg xmlns:sodipodi="http://sodipodi.sourceforge.net/DTD/sodipodi-0.dtd" xmlns="http://www.w3.org/2000/svg" version="1.1" width="1590.0" height="1591.25">
  <defs/>
  <g id="id0:id0" transform="matrix(1.25,0,0,1.25,0.0,0.0)"><g transform="translate(0.000000,1273.000000) scale(0.100000,-0.100000)" fill="#181512" stroke="none">
<path d="M0 6365 l0 -6365 6360 0 6360 0 0 6365 0 6365 -6360 0 -6360 0 0 -6365z m11860 0 l0 -5505 -5500 0 -5500 0 0 5505 0 5505 5500 0 5500 0 0 -5505z"/>
<path d="M2210 6365 l0 -4155 4150 0 4150 0 0 4155 0 4155 -4150 0 -4150 0 0 -4155z m5327 1788 l-1177 -1178 -1177 1178 -1178 1177 2355 0 2355 0 -1178 -1177z m-2960 -2960 l-1177 -1178 0 2355 0 2355 1177 -1178 1178 -1177 -1178 -1177z m4743 1175 l0 -2353 -1177 1177 -1178 1178 1175 1175 c646 646 1176 1175 1177 1175 2 0 3 -1059 3 -2352z m-1775 -1788 l1180 -1180 -2365 0 -2365 0 1180 1180 c649 649 1182 1180 1185 1180 3 0 536 -531 1185 -1180z"/>
</g>
</g>
  <g id="id1:id1" transform="matrix(1.25,0,0,1.25,0.0,0.0)"><g transform="translate(0.000000,1273.000000) scale(0.100000,-0.100000)" fill="#ffffff" stroke="none">
</g>
</g>
</svg>
