<?xml version="1.0" encoding="UTF-8" standalone="no"?>
<svg
   xmlns:dc="http://purl.org/dc/elements/1.1/"
   xmlns:cc="http://creativecommons.org/ns#"
   xmlns:rdf="http://www.w3.org/1999/02/22-rdf-syntax-ns#"
   xmlns:svg="http://www.w3.org/2000/svg"
   xmlns="http://www.w3.org/2000/svg"
   xmlns:sodipodi="http://sodipodi.sourceforge.net/DTD/sodipodi-0.dtd"
   xmlns:inkscape="http://www.inkscape.org/namespaces/inkscape"
   viewBox="0 0 350.10081 350.34018"
   version="1.1"
   xml:space="preserve"
   id="svg135336"
   inkscape:version="0.48.3.1 r9886"
   width="100%"
   height="100%"
   sodipodi:docname="alkis3430.svg"
   style="fill-rule:evenodd;stroke-linecap:round;stroke-linejoin:round"><metadata
   id="metadata136283"><rdf:RDF><cc:Work
       rdf:about=""><dc:format>image/svg+xml</dc:format><dc:type
         rdf:resource="http://purl.org/dc/dcmitype/StillImage" /></cc:Work></rdf:RDF></metadata><sodipodi:namedview
   pagecolor="#ffffff"
   bordercolor="#666666"
   borderopacity="1"
   objecttolerance="10"
   gridtolerance="10"
   guidetolerance="10"
   inkscape:pageopacity="0"
   inkscape:pageshadow="2"
   inkscape:window-width="1855"
   inkscape:window-height="1025"
   id="namedview136281"
   showgrid="false"
   inkscape:zoom="1.5733333"
   inkscape:cx="178.94542"
   inkscape:cy="175.46383"
   inkscape:window-x="0"
   inkscape:window-y="33"
   inkscape:window-maximized="1"
   inkscape:current-layer="svg135336" />
<defs
   id="defs135338">
<clipPath
   id="clipId0">
<path
   d="M 0,600 800,600 800,0 0,0 z"
   id="path135341"
   inkscape:connector-curvature="0" />
</clipPath>
</defs>
<g
   clip-path="url(#clipId0)"
   id="g135343"
   style="fill:none;stroke:#000000;stroke-width:0.1"
   transform="translate(-224.86814,-125.12364)" />
<g
   clip-path="url(#clipId0)"
   id="g135345"
   style="fill:#00ffff;stroke:none"
   transform="translate(-224.86814,-125.12364)">













































































<path
   d="m 399.90625,125.125 c -58.15977,-0.23665 -115.3835,30.51795 -146.6875,79.625 -33.54409,50.35306 -37.63722,118.39706 -10.59375,172.5 25.83373,53.95696 81.07618,92.20437 140.6875,97.34375 59.50549,6.17997 121.03607,-20.9469 156.5625,-69.09375 36.33676,-47.51472 45.34841,-114.11921 22.84375,-169.5625 -21.50274,-55.81723 -73.59448,-98.26368 -132.59375,-108.09375 -9.96539,-1.83508 -20.09856,-2.49424 -30.21875,-2.71875 z m -1.09375,54.65625 c 0.35944,-0.0124 0.72455,-0.0196 1.09375,0 6.88199,-0.12143 13.11981,5.42 13.875,12.25 2.43125,12.9469 -15.6711,21.24252 -24.03125,11.40625 -8.36471,-7.90117 -2.08023,-23.27315 9.0625,-23.65625 z M 332.625,200.8125 c 3.68872,4.85303 4.15009,10.40149 5.625,16.09375 6.22771,2.25127 11.93343,5.81225 15.8125,11.28125 4.82491,4.95461 9.28377,10.14743 12.84375,16.125 2.18902,2.79632 4.26134,8.92369 6.65625,3.09375 8.40736,-10.31397 15.42351,-21.84113 24.9375,-31.1875 2.6477,-3.46593 6.89491,-4.01552 10.8125,-2.65625 4.34978,1.32359 7.06507,4.49975 9.125,8.40625 4.63478,13.24762 8.79207,26.78538 13.03125,40.1875 -0.74865,5.71015 2.09472,6.65631 7.03125,4.78125 7.39033,-0.45852 15.3758,-1.17271 22.09375,2.5625 4.94195,1.86816 7.62415,7.49245 12.875,8.375 4.84199,-1.62341 9.86676,-1.4869 14.78125,-0.21875 8.28001,0.95132 14.06369,7.80853 17.15625,15.0625 1.19671,5.91959 2.29389,11.94881 4.78125,17.5625 4.78831,9.73377 11.28354,20.10958 22.15625,23.65625 l -12.84375,0 c -5.44689,0.98281 -10.08226,-1.80799 -14.8125,-4.0625 -4.36689,-2.54835 -5.94093,-8.29158 -9.125,-12.1875 -2.33964,-8.5269 -1.55547,-18.08293 -6.375,-25.90625 -2.4586,-2.26911 -5.25957,-5.83713 -8.75,-6.1875 -3.94102,-0.29123 -7.96706,-0.6608 -5.15625,4.3125 0.52525,6.52829 1.96401,13.45154 -0.40625,19.78125 -1.28583,6.62443 -4.49476,12.46641 -6.78125,18.71875 -1.08441,9.78768 1.35303,20.59541 8.1875,27.96875 -2.03264,6.56309 -4.08334,13.12748 -6.125,19.6875 0.41048,4.68923 2.37059,9.43636 4.03125,13.9375 -1.49774,2.99967 -3.84819,5.92643 -1.625,9.1875 1.08189,3.67544 -0.1316,6.90807 -3.28125,9.03125 -4.57504,0.14192 -9.38524,1.71689 -13.4375,-1.1875 -4.22978,-1.37527 3.10622,-4.8445 4.3125,-7.21875 -3.2718,-0.22268 -6.5433,-0.45699 -9.8125,-0.71875 2.37848,-2.97284 4.67627,-6.00871 7.03125,-9 4.23269,-3.33442 2.42069,-8.74664 2.78125,-13.40625 -2.96333,-11.98969 -3.66599,-24.78712 -9.8125,-35.75 -4.88391,-8.4919 -11.6474,-15.86785 -18.21875,-23.125 -5.96383,3.47242 -12.59663,5.49731 -19.28125,7.0625 -9.51309,2.43972 -19.11958,4.47734 -29,4.15625 -3.57236,0.89187 -9.56283,-2.12794 -11,2.21875 -2.85071,14.99133 -2.97945,30.43698 -3.625,45.6875 -1.52048,3.99953 2.92214,7.75858 1.25,11.3125 -3.42286,2.61964 -0.84692,5.50691 0.78125,8.3125 0.5429,2.75151 -3.11894,7.65127 -6.65625,7.03125 -4.89826,-1.14383 -5.98778,3.03626 -7.4375,6.71875 l -11.21875,0 c -5.77359,1.22155 -3.04336,-1.94768 -0.75,-4.96875 2.55057,-5.37978 9.08816,-7.94207 9.9375,-14.15625 2.40744,-11.88138 0.71355,-24.21417 0.65625,-36.28125 -2.13586,-10.60734 -2.86585,-21.39547 -3.53125,-32.1875 -4.27501,-5.62808 -7.9045,-11.61887 -10.25,-18.3125 -0.21299,-5.69631 0.8178,-11.60092 0.4375,-17.40625 -5.45668,-12.72561 -10.42403,-25.66856 -13.3125,-39.25 -5.45557,1.23512 -9.43578,5.10301 -13.5,8.6875 -2.28445,3.4306 -4.3202,7.23598 -8.21875,9.1875 -5.88924,4.03319 -12.40985,-4.5962 -9.9375,-10.21875 3.56803,-5.80415 7.03497,-11.8489 9.40625,-18.34375 1.20597,-4.78947 1.0405,-9.95067 3.34375,-14.53125 1.81459,-2.27917 7.12416,-5.40437 2.78125,-7.71875 -3.77933,-3.75467 -0.47722,-8.69498 1.40625,-12.625 2.39897,3.83322 4.3502,8.22343 8.59375,10.34375 3.87699,2.92411 6.87452,2.46367 4.03125,-2.625 1.7128,-3.16882 1.38125,-8.16296 5.59375,-9.09375 z m 60.96875,44.125 -11.90625,16.125 c 4.66651,2.57319 9.33498,5.14284 14,7.71875 l 10.53125,-4.90625 c -4.2072,-6.31325 -8.43151,-12.61514 -12.625,-18.9375 z"
   id="path135501"
   inkscape:connector-curvature="0" />
</g>
<g
   clip-path="url(#clipId0)"
   id="g135503"
   style="fill:#ffffff;stroke:none"
   transform="translate(-224.86814,-125.12364)">














































































</g>

<g
   clip-path="url(#clipId0)"
   id="g135667"
   style="fill:#ffffff;stroke:none"
   transform="translate(-224.86814,-125.12364)">









































































































































































































































































































</g>
<g
   clip-path="url(#clipId0)"
   id="g136263"
   style="fill:none;stroke:#ffffff;stroke-width:0.25"
   transform="translate(-224.86814,-125.12364)">
<path
   d="m 314.414,202.203 c 2.86284,5.56875 6.91296,11.05491 13.40216,12.40882 0.45927,-1.46461 -1.7398,-6.725 0.93614,-9.44525 0.94846,-5.65382 5.67817,-4.26131 6.63928,0.59993 1.9568,3.39704 1.05627,8.44196 3.42745,11.40107 7.29725,2.2929 12.84467,7.55709 17.38419,13.51065 6.27604,5.55992 10.03822,13.20271 14.97078,19.87578 8.31094,-10.47283 15.81636,-21.64964 24.65409,-31.66209 3.1234,-3.35141 6.91903,-7.62549 11.96212,-5.62981 4.38943,0.85585 8.07344,3.58251 9.97969,7.68113 3.61342,7.28038 5.18079,15.54799 8.00585,23.20875 2.19544,7.95729 6.01118,15.56793 6.36125,23.92002 7.22299,-1.62026 14.87493,-2.00575 22.13531,-0.85703 6.82322,1.09612 11.7967,6.24502 17.01794,10.11993 4.25331,1.32179 8.50501,-2.0231 12.88706,-0.36593 8.37595,0.36273 16.5127,5.12505 19.75016,13.05297 3.37874,5.29735 2.27761,12.0858 5.31102,17.6279 3.48637,9.21184 9.26699,18.01122 17.37416,23.74448 5.39688,1.99078 6.57177,3.0855 0.0499,2.54668 -6.2206,-0.38647 -12.91842,1.37822 -18.3862,-2.4017 -3.88678,-1.19515 -6.79233,-3.51684 -8.44961,-7.27166 -2.66849,-3.93328 -5.60107,-7.76612 -5.48637,-12.75803 -1.05139,-6.69043 -1.43761,-13.5791 -5.07321,-19.49932 -2.25199,-2.50142 -5.26391,-5.79233 -8.63927,-6.42029 -4.54407,-0.55611 -8.13976,-0.3718 -5.22207,4.89756 0.38882,6.70077 1.87219,13.67612 -0.78283,20.11041 -1.21266,6.54851 -4.71454,12.19216 -6.748,18.43803 -0.56507,8.53224 1.19653,17.51571 6.11693,24.57838 4.11708,2.698 0.48741,6.94125 -0.13965,10.58556 -0.97202,4.57153 -3.73969,9.11189 -3.54323,13.70369 0.70404,4.30901 3.11078,8.59512 3.58982,12.66084 -2.83163,3.35876 -2.12381,6.72088 -1.11887,10.50763 0.99882,3.94747 -2.69449,7.8529 -6.64994,7.389 -3.96111,0.7963 -7.70442,0.32911 -11.15303,-1.84766 -3.07033,-1.35611 7.3276,-6.27029 3.93108,-6.8934 -2.66177,-0.83018 -11.42692,1.05946 -6.61399,-3.10165 2.47745,-3.63486 6.04807,-6.89465 7.87288,-10.75344 0.88784,-11.2617 -3.18927,-21.99846 -4.905,-33.00395 -2.55769,-8.53192 -6.79706,-16.388 -12.76162,-23.01455 -3.10669,-4.30007 -6.82375,-8.08662 -10.36338,-12.02245 -10.91082,6.11904 -23.53397,8.00061 -35.59464,10.58976 -7.50787,0.65302 -15.03487,0.69339 -22.56536,0.62224 -2.93773,6.00404 -2.18123,13.12687 -3.504,19.62 -0.42666,10.91932 -1.36454,21.96633 -1.16758,32.81989 2.11944,3.46631 2.14509,7.07039 -0.93442,9.92511 1.90016,3.39076 5.1602,6.87444 0.8528,9.84102 -1.4723,4.11283 -7.11273,1.16058 -9.51808,3.34864 -1.07271,4.4788 -3.45478,6.94283 -8.22616,5.73034 -2.36566,-0.79171 -11.06971,1.73787 -8.65907,-1.5566 3.08516,-4.82542 6.51674,-9.36172 10.83451,-13.1584 4.1175,-10.36912 2.40656,-21.8249 2.36323,-32.72646 0.37308,-10.33936 -3.09298,-20.26902 -3.08234,-30.60068 -0.52715,-4.79845 0.3825,-10.10264 -3.55572,-13.70044 -3.56272,-4.52325 -5.94068,-10.00744 -7.58875,-15.39761 0.32062,-7.37362 2.24544,-15.30378 -1.72857,-22.03281 -4.8225,-10.72141 -8.29403,-21.95169 -10.93285,-33.397 -5.79711,1.39852 -10.25505,5.58684 -14.3281,9.6569 -2.2405,4.68066 -6.68964,9.67289 -12.2999,9.2631 -5.40329,-2.60092 -7.44198,-10.02684 -3.15464,-14.53823 3.58482,-5.79704 7.1255,-12.08305 8.31091,-18.80643 0.32936,-5.1641 1.52609,-10.74137 5.73342,-14.11014 4.3811,-3.05194 -3.70274,-5.36776 -2.13406,-9.11677 0.5835,-2.83726 1.78884,-5.36359 3.15637,-7.89643 z"
   id="polyline136265"
   inkscape:connector-curvature="0" />
</g>
<g
   clip-path="url(#clipId0)"
   id="g136267"
   style="fill:#00ffff;stroke:none"
   transform="translate(-224.86814,-125.12364)">




</g>
<g
   clip-path="url(#clipId0)"
   id="g136277"
   style="fill:none;stroke:#ffffff;stroke-width:0.25"
   transform="translate(-224.86814,-125.12364)">

</g>
</svg>