<?xml version="1.0" standalone="no"?>
<!DOCTYPE svg PUBLIC "-//W3C//DTD SVG 1.1//EN"
 "http://www.w3.org/Graphics/SVG/1.1/DTD/svg11.dtd">
<!-- Created with svg_stack (http://github.com/astraw/svg_stack) -->
<svg xmlns:sodipodi="http://sodipodi.sourceforge.net/DTD/sodipodi-0.dtd" xmlns="http://www.w3.org/2000/svg" version="1.1" width="1983.75" height="1217.5">
  <defs/>
  <g id="id0:id0" transform="matrix(1.25,0,0,1.25,0.0,0.0)"><g transform="translate(0.000000,974.000000) scale(0.100000,-0.100000)" fill="#000000" stroke="none">
<path d="M0 4870 l0 -4870 7935 0 7935 0 0 4870 0 4870 -7935 0 -7935 0 0 -4870z m15320 -5 l0 -4315 -7385 0 -7385 0 0 4315 0 4315 7385 0 7385 0 0 -4315z"/>
<path d="M2955 7225 c-71 -7 -166 -22 -209 -34 -44 -11 -87 -21 -96 -21 -9 0 -61 -18 -116 -40 -54 -23 -120 -47 -145 -54 -59 -18 -239 -128 -329 -202 -189 -156 -362 -456 -402 -696 -15 -94 -15 -326 0 -403 15 -77 90 -269 132 -337 100 -165 234 -292 421 -402 46 -27 86 -53 89 -56 11 -14 189 -90 260 -110 41 -12 127 -39 190 -60 105 -35 242 -70 470 -121 190 -43 689 -181 755 -209 22 -10 55 -22 73 -28 18 -6 91 -46 164 -89 106 -63 140 -89 179 -137 123 -152 167 -318 134 -505 -19 -112 -48 -188 -103 -268 -47 -69 -153 -171 -228 -219 -61 -39 -215 -106 -294 -128 -204 -57 -549 -82 -715 -52 -49 9 -106 16 -125 16 -40 0 -248 57 -330 90 -74 29 -235 121 -301 170 -161 120 -293 336 -347 565 -17 72 -33 147 -37 168 -4 26 -11 37 -23 37 -9 1 -138 -9 -286 -22 l-269 -22 7 -103 c11 -195 57 -355 161 -568 81 -167 161 -279 288 -402 111 -108 203 -175 348 -252 105 -56 290 -126 389 -146 36 -8 88 -21 115 -29 28 -9 69 -16 91 -16 23 0 77 -6 120 -14 130 -24 395 -39 531 -32 132 7 421 54 539 87 146 40 365 145 511 244 99 67 225 192 300 298 108 153 119 172 169 300 65 166 87 301 81 497 -4 139 -8 168 -40 282 -48 167 -107 282 -214 414 -79 98 -301 268 -442 339 -192 96 -691 248 -1071 326 -343 70 -750 202 -870 283 -77 51 -161 138 -190 196 -72 146 -77 354 -10 497 102 221 326 370 635 422 99 17 164 21 366 21 342 0 445 -20 682 -135 134 -65 248 -179 326 -325 34 -64 75 -200 96 -319 8 -46 17 -86 20 -89 11 -11 585 42 585 54 0 27 -43 265 -61 336 -89 356 -383 691 -748 853 -121 54 -303 107 -466 136 -153 27 -560 35 -760 14z"/>
<path d="M7650 7229 c-36 -5 -99 -14 -140 -20 -165 -23 -457 -122 -593 -200 -226 -132 -450 -306 -556 -433 -250 -299 -399 -579 -490 -918 -72 -267 -107 -598 -98 -928 10 -398 113 -787 297 -1133 44 -81 99 -173 123 -205 24 -31 58 -78 75 -103 74 -109 275 -295 467 -431 134 -96 342 -195 553 -264 40 -13 164 -40 275 -61 195 -36 209 -37 415 -35 167 1 237 6 330 22 151 27 444 106 504 136 26 13 76 35 111 48 36 13 83 36 106 51 23 14 53 30 67 35 113 43 454 331 568 480 48 62 187 292 236 389 52 103 108 256 156 421 58 204 71 271 89 483 28 326 18 557 -36 850 -39 214 -78 355 -145 521 -96 239 -142 322 -287 511 -127 165 -140 179 -272 289 -169 141 -258 198 -446 290 -145 71 -202 93 -344 131 -277 76 -279 76 -605 80 -162 2 -324 -1 -360 -6z m622 -534 c231 -43 355 -94 568 -233 224 -147 438 -428 558 -732 36 -93 95 -346 116 -501 18 -134 21 -464 6 -634 -22 -243 -83 -518 -144 -650 -59 -126 -166 -307 -222 -376 -206 -252 -528 -453 -819 -510 -381 -75 -757 -38 -1040 103 -235 118 -457 308 -592 508 -133 198 -250 514 -283 765 -31 239 -22 665 20 930 26 161 101 427 146 517 133 268 277 432 514 588 150 98 256 147 422 195 158 45 213 53 419 54 169 1 214 -2 331 -24z"/>
<path d="M12225 7225 c-71 -7 -166 -22 -209 -34 -44 -11 -87 -21 -96 -21 -9 0 -61 -18 -116 -40 -54 -23 -120 -47 -145 -54 -59 -18 -239 -128 -329 -202 -189 -156 -362 -456 -402 -696 -15 -94 -15 -326 0 -403 15 -77 90 -269 132 -337 100 -165 234 -292 421 -402 46 -27 86 -53 89 -56 11 -14 189 -90 260 -110 41 -12 127 -39 190 -60 105 -35 242 -70 470 -121 190 -43 689 -181 755 -209 22 -10 55 -22 73 -28 18 -6 91 -46 164 -89 106 -63 140 -89 179 -137 123 -152 167 -318 134 -505 -19 -112 -48 -188 -103 -268 -47 -69 -153 -171 -228 -219 -61 -39 -215 -106 -294 -128 -204 -57 -549 -82 -715 -52 -49 9 -106 16 -125 16 -40 0 -248 57 -330 90 -74 29 -235 121 -301 170 -161 120 -293 336 -347 565 -17 72 -33 147 -37 168 -4 26 -11 37 -23 37 -9 1 -138 -9 -286 -22 l-269 -22 7 -103 c11 -195 57 -355 161 -568 81 -167 161 -279 288 -402 111 -108 203 -175 348 -252 105 -56 290 -126 389 -146 36 -8 88 -21 115 -29 28 -9 69 -16 91 -16 23 0 77 -6 120 -14 130 -24 395 -39 531 -32 132 7 421 54 539 87 146 40 365 145 511 244 99 67 225 192 300 298 108 153 119 172 169 300 65 166 87 301 81 497 -4 139 -8 168 -40 282 -48 167 -107 282 -214 414 -79 98 -301 268 -442 339 -192 96 -691 248 -1071 326 -343 70 -750 202 -870 283 -77 51 -161 138 -190 196 -72 146 -77 354 -10 497 102 221 326 370 635 422 99 17 164 21 366 21 342 0 445 -20 682 -135 134 -65 248 -179 326 -325 34 -64 75 -200 96 -319 8 -46 17 -86 20 -89 11 -11 585 42 585 54 0 27 -43 265 -61 336 -89 356 -383 691 -748 853 -121 54 -303 107 -466 136 -153 27 -560 35 -760 14z"/>
</g>
</g>
  <g id="id1:id1" transform="matrix(1.25,0,0,1.25,0.0,0.0)"><g transform="translate(0.000000,974.000000) scale(0.100000,-0.100000)" fill="#ffffff" stroke="none">
</g>
</g>
</svg>
