<?xml version="1.0" standalone="no"?>
<!DOCTYPE svg PUBLIC "-//W3C//DTD SVG 1.1//EN"
 "http://www.w3.org/Graphics/SVG/1.1/DTD/svg11.dtd">
<!-- Created with svg_stack (http://github.com/astraw/svg_stack) -->
<svg xmlns:sodipodi="http://sodipodi.sourceforge.net/DTD/sodipodi-0.dtd" xmlns="http://www.w3.org/2000/svg" version="1.1" width="1975.0" height="1593.75">
  <defs/>
  <g id="id0:id0" transform="matrix(1.25,0,0,1.25,0.0,0.0)"><g transform="translate(0.000000,1275.000000) scale(0.100000,-0.100000)" fill="#00ff00" stroke="none">
<path d="M3165 12730 c-251 -29 -614 -116 -826 -199 -269 -105 -398 -171 -704 -360 -297 -182 -654 -507 -856 -776 -187 -249 -257 -360 -373 -592 -218 -438 -326 -787 -370 -1204 -41 -386 -41 -472 0 -859 45 -418 151 -765 370 -1203 116 -232 187 -343 373 -592 143 -191 347 -394 606 -602 313 -251 836 -518 1210 -618 106 -28 443 -105 461 -105 2 0 4 -1264 4 -2810 l0 -2810 530 0 530 0 0 2810 c0 1546 2 2810 4 2810 3 0 78 16 168 35 514 112 793 227 1278 528 191 119 487 369 666 564 152 165 375 476 487 678 165 298 323 730 381 1040 61 325 69 413 69 705 0 234 -3 297 -22 425 -54 358 -102 552 -207 830 -143 380 -266 601 -543 970 -202 269 -559 594 -856 776 -306 189 -436 255 -704 360 -221 86 -568 169 -836 199 -222 25 -621 25 -840 0z m885 -1088 c207 -43 317 -75 465 -134 328 -131 618 -321 855 -558 206 -205 314 -355 462 -640 72 -137 96 -198 147 -360 101 -328 124 -470 125 -775 0 -308 -24 -459 -125 -785 -51 -162 -75 -223 -147 -360 -148 -285 -256 -435 -462 -640 -340 -341 -789 -582 -1266 -680 -397 -82 -631 -82 -1028 0 -134 27 -271 65 -348 96 -328 132 -521 247 -783 464 -145 120 -361 361 -458 512 -147 227 -304 611 -366 893 -61 278 -61 715 0 990 63 284 219 666 366 893 97 151 313 392 458 512 187 155 408 301 554 367 290 129 421 168 811 237 14 2 153 3 310 1 273 -2 291 -4 430 -33z"/>
<path d="M8380 2116 c-141 -37 -228 -76 -345 -151 -128 -84 -232 -187 -294 -293 -23 -39 -45 -74 -50 -77 -14 -8 -77 -177 -103 -275 -33 -122 -33 -366 0 -490 35 -128 58 -185 120 -294 157 -277 471 -480 795 -516 264 -30 510 31 723 179 107 74 237 202 300 298 22 32 58 106 81 163 104 263 111 511 21 775 -40 118 -68 173 -139 270 -80 111 -166 192 -287 269 -121 78 -192 108 -327 142 -139 33 -367 33 -495 0z"/>
<path d="M14465 2111 c-129 -36 -193 -62 -285 -119 -188 -115 -315 -258 -415 -467 -60 -125 -68 -153 -90 -322 -14 -109 -14 -134 0 -245 22 -182 33 -222 98 -348 70 -136 166 -260 271 -348 102 -86 169 -124 316 -181 163 -64 303 -81 493 -61 105 11 139 19 247 61 69 27 152 64 184 84 225 135 421 398 483 650 22 86 25 122 25 265 0 147 -2 176 -26 265 -34 129 -90 240 -187 375 -146 201 -341 329 -601 395 -84 22 -118 25 -255 24 -140 0 -169 -4 -258 -28z"/>
</g>
</g>
  <g id="id1:id1" transform="matrix(1.25,0,0,1.25,0.0,0.0)"><g transform="translate(0.000000,1275.000000) scale(0.100000,-0.100000)" fill="#ffffff" stroke="none">
</g>
</g>
</svg>
