<?xml version="1.0" encoding="UTF-8" standalone="no"?>
<svg
   xmlns:dc="http://purl.org/dc/elements/1.1/"
   xmlns:cc="http://creativecommons.org/ns#"
   xmlns:rdf="http://www.w3.org/1999/02/22-rdf-syntax-ns#"
   xmlns:svg="http://www.w3.org/2000/svg"
   xmlns="http://www.w3.org/2000/svg"
   xmlns:sodipodi="http://sodipodi.sourceforge.net/DTD/sodipodi-0.dtd"
   xmlns:inkscape="http://www.inkscape.org/namespaces/inkscape"
   viewBox="0 0 356.08365 356.28012"
   version="1.1"
   xml:space="preserve"
   id="svg70311"
   inkscape:version="0.48.3.1 r9886"
   width="100%"
   height="100%"
   sodipodi:docname="alkis3025.svg"
   style="fill-rule:evenodd;stroke-linecap:round;stroke-linejoin:round"><metadata
   id="metadata70644"><rdf:RDF><cc:Work
       rdf:about=""><dc:format>image/svg+xml</dc:format><dc:type
         rdf:resource="http://purl.org/dc/dcmitype/StillImage" /></cc:Work></rdf:RDF></metadata><sodipodi:namedview
   pagecolor="#ffffff"
   bordercolor="#666666"
   borderopacity="1"
   objecttolerance="10"
   gridtolerance="10"
   guidetolerance="10"
   inkscape:pageopacity="0"
   inkscape:pageshadow="2"
   inkscape:window-width="1855"
   inkscape:window-height="1025"
   id="namedview70642"
   showgrid="false"
   inkscape:zoom="1.1125147"
   inkscape:cx="5.9874312"
   inkscape:cy="176.43519"
   inkscape:window-x="0"
   inkscape:window-y="33"
   inkscape:window-maximized="1"
   inkscape:current-layer="svg70311" />
<defs
   id="defs70313">
<clipPath
   id="clipId0">
<path
   d="M 0,600 800,600 800,0 0,0 z"
   id="path70316"
   inkscape:connector-curvature="0" />
</clipPath>
</defs>
<g
   clip-path="url(#clipId0)"
   id="g70318"
   style="fill:none;stroke:#000000;stroke-width:0.1"
   transform="translate(-223.22831,-120.15508)" />
<g
   clip-path="url(#clipId0)"
   id="g70320"
   style="fill:#ffffff;stroke:none"
   transform="translate(-223.22831,-120.15508)">













































































<path
   d="m 401.25,120.15625 c -55.82887,-0.20918 -110.73449,27.54634 -143.5625,72.71875 -35.68238,47.98611 -44.55858,114.36081 -22.375,169.9375 21.61562,57.23811 74.87111,100.84574 135.21875,110.875 C 430.36137,484.69155 494.87206,462.06928 534.75,416.125 575.4028,370.85513 589.7869,304.04847 571.46875,246.03125 554.18708,188.05561 505.2345,141.03117 446.59375,126.125 431.83356,122.11821 416.52561,120.36843 401.25,120.15625 z m 0,118.75 c 5.09226,0.0773 10.17022,0.68192 15.09375,2 19.78,4.99103 36.24678,21.0222 41.84375,40.625 5.84572,19.17724 0.923,41.09925 -12.4375,56.03125 -13.44029,15.49608 -35.27917,23.02727 -55.40625,19.0625 -19.95692,-3.54984 -37.47641,-18.11794 -44.53125,-37.125 -7.38646,-18.76929 -4.14973,-41.1802 8.1875,-57.125 10.95892,-14.6424 28.9871,-23.48695 47.25,-23.46875 z"
   id="path70476"
   inkscape:connector-curvature="0" />
</g>
<g
   clip-path="url(#clipId0)"
   id="g70478"
   style="fill:#cccccc;stroke:none"
   transform="translate(-223.22831,-120.15508)">














































































</g>
<g
   clip-path="url(#clipId0)"
   id="g70636"
   style="fill:none;stroke:#ffffff;stroke-width:0.25"
   transform="translate(-223.22831,-120.15508)">
<polyline
   points="401.245,238.92 401.245,238.92 "
   id="polyline70638" />
<polyline
   points="401.245,238.92 405.904,239.103 410.534,239.651 415.107,240.56 419.595,241.826 423.969,243.44 428.204,245.392 432.272,247.67 436.149,250.261 439.811,253.147 443.235,256.313 446.4,259.736 449.286,263.398 451.877,267.275 454.155,271.343 456.107,275.578 457.721,279.952 458.987,284.44 459.897,289.013 460.445,293.644 460.628,298.303 460.445,302.962 459.897,307.592 458.987,312.165 457.721,316.653 456.107,321.028 454.155,325.262 451.877,329.33 449.286,333.207 446.4,336.869 443.235,340.293 439.811,343.458 436.149,346.345 432.272,348.935 428.204,351.213 423.969,353.166 419.595,354.779 415.107,356.045 410.534,356.955 405.904,357.503 401.245,357.686 396.585,357.503 391.955,356.955 387.382,356.045 382.894,354.779 378.52,353.166 374.285,351.213 370.217,348.935 366.34,346.345 362.678,343.458 359.254,340.293 356.089,336.869 353.203,333.207 350.612,329.33 348.334,325.262 346.382,321.028 344.768,316.653 343.502,312.165 342.593,307.592 342.045,302.962 341.861,298.303 342.045,293.644 342.593,289.013 343.502,284.44 344.768,279.952 346.382,275.578 348.334,271.343 350.612,267.275 353.203,263.398 356.089,259.736 359.254,256.313 362.678,253.147 366.34,250.261 370.217,247.67 374.285,245.392 378.52,243.44 382.894,241.826 387.382,240.56 391.955,239.651 396.585,239.103 401.245,238.92 "
   id="polyline70640"
   style="fill:#cccccc;fill-opacity:1" />
</g>
</svg>