<?xml version="1.0" standalone="no"?>
<!DOCTYPE svg PUBLIC "-//W3C//DTD SVG 1.1//EN"
 "http://www.w3.org/Graphics/SVG/1.1/DTD/svg11.dtd">
<!-- Created with svg_stack (http://github.com/astraw/svg_stack) -->
<svg xmlns:sodipodi="http://sodipodi.sourceforge.net/DTD/sodipodi-0.dtd" xmlns="http://www.w3.org/2000/svg" version="1.1" width="1616.25" height="1595.0">
  <defs/>
  <g id="id0:id0" transform="matrix(1.25,0,0,1.25,0.0,0.0)"><g transform="translate(0.000000,1276.000000) scale(0.100000,-0.100000)" fill="#999999" stroke="none">
<path d="M310 12455 l0 -305 5935 0 5935 0 -5 -22 c-3 -13 -199 -981 -435 -2153 l-430 -2130 -720 -1200 -720 -1201 -720 -619 -720 -619 -317 -194 c-175 -106 -323 -196 -330 -200 -8 -5 35 -87 140 -264 84 -142 155 -258 159 -258 3 0 164 93 357 208 l351 207 775 670 775 670 770 1277 c424 703 775 1290 780 1306 5 15 239 1168 520 2562 281 1394 513 2543 516 2553 5 16 -300 17 -6305 17 l-6311 0 0 -305z"/>
<path d="M1421 8348 c-20 -46 -216 -481 -434 -968 l-397 -885 -295 -1390 -295 -1389 0 -746 0 -745 1060 -1110 c583 -611 1064 -1110 1070 -1110 5 0 106 92 225 204 l215 205 -24 25 c-13 14 -454 478 -980 1031 l-956 1005 0 586 0 586 285 1329 285 1329 415 939 c228 517 413 941 412 942 -5 5 -537 244 -542 244 -3 0 -23 -37 -44 -82z"/>
<path d="M5797 8403 c-8 -16 -202 -451 -431 -968 l-416 -940 -300 -1390 -300 -1390 0 -745 0 -745 1060 -1110 c583 -611 1064 -1110 1070 -1110 5 0 106 92 225 204 l215 205 -24 25 c-13 14 -452 478 -975 1031 l-951 1005 0 585 0 585 280 1331 280 1330 420 939 c231 516 419 940 417 941 -4 4 -547 244 -552 244 -2 0 -11 -12 -18 -27z"/>
</g>
</g>
  <g id="id1:id1" transform="matrix(1.25,0,0,1.25,0.0,0.0)"><g transform="translate(0.000000,1276.000000) scale(0.100000,-0.100000)" fill="#ffffff" stroke="none">
</g>
</g>
</svg>
