<?xml version="1.0" standalone="no"?>
<!DOCTYPE svg PUBLIC "-//W3C//DTD SVG 1.1//EN"
 "http://www.w3.org/Graphics/SVG/1.1/DTD/svg11.dtd">
<!-- Created with svg_stack (http://github.com/astraw/svg_stack) -->
<svg xmlns:sodipodi="http://sodipodi.sourceforge.net/DTD/sodipodi-0.dtd" xmlns="http://www.w3.org/2000/svg" version="1.1" width="1571.25" height="1571.25">
  <defs/>
  <g id="id0:id0" transform="matrix(1.25,0,0,1.25,0.0,0.0)"><g transform="translate(0.000000,1257.000000) scale(0.100000,-0.100000)" fill="#000000" stroke="none">
<path d="M5900 12560 c-384 -20 -933 -113 -1310 -222 -1630 -471 -2969 -1525 -3778 -2975 -325 -581 -579 -1267 -686 -1850 -162 -880 -162 -1576 0 -2456 80 -439 267 -1006 469 -1423 330 -681 572 -1043 1077 -1611 610 -685 1502 -1284 2428 -1629 420 -157 998 -295 1485 -355 257 -32 265 -33 700 -33 435 0 443 1 700 33 678 84 1356 274 1930 541 1067 496 1926 1230 2602 2220 419 615 793 1524 927 2257 162 880 162 1576 0 2456 -103 563 -375 1309 -671 1842 -217 390 -570 877 -866 1193 -800 854 -1796 1463 -2927 1790 -291 84 -611 146 -990 192 -230 28 -289 31 -600 35 -190 2 -410 0 -490 -5z m895 -1934 c473 -58 927 -187 1325 -378 472 -227 744 -410 1125 -759 353 -322 607 -643 850 -1074 269 -476 454 -1047 526 -1620 19 -154 23 -227 22 -510 0 -282 -3 -356 -22 -510 -72 -572 -254 -1135 -522 -1613 -244 -434 -501 -760 -851 -1079 -422 -385 -971 -725 -1433 -888 -397 -139 -640 -196 -1055 -246 -262 -32 -685 -32 -945 -1 -404 50 -654 108 -1050 247 -468 164 -1023 505 -1438 883 -238 217 -504 528 -675 787 -142 216 -363 650 -454 890 -114 303 -206 680 -249 1020 -19 154 -22 228 -22 510 -1 375 16 554 79 855 92 440 192 723 401 1130 157 309 294 526 451 718 395 483 813 840 1292 1104 424 234 808 377 1285 479 276 58 469 76 835 78 287 1 348 -2 525 -23z"/>
</g>
</g>
  <g id="id1:id1" transform="matrix(1.25,0,0,1.25,0.0,0.0)"><g transform="translate(0.000000,1257.000000) scale(0.100000,-0.100000)" fill="#ffffff" stroke="none">
<path d="M5765 10625 c-446 -56 -903 -187 -1305 -375 -641 -299 -1128 -683 -1602 -1262 -157 -192 -294 -409 -451 -718 -209 -407 -309 -690 -401 -1130 -63 -301 -80 -480 -79 -855 0 -375 16 -555 79 -855 92 -441 192 -722 401 -1130 211 -414 362 -632 672 -973 435 -479 1105 -928 1686 -1132 396 -139 646 -197 1050 -247 260 -31 683 -31 945 1 415 50 658 107 1055 246 462 163 1011 503 1433 888 350 319 607 645 851 1079 268 478 450 1041 522 1613 19 154 22 228 22 510 1 283 -3 356 -22 510 -72 573 -257 1144 -526 1620 -243 431 -497 752 -850 1074 -381 349 -653 532 -1125 759 -398 191 -852 320 -1325 378 -177 21 -238 24 -525 23 -272 -1 -354 -5 -505 -24z"/>
</g>
</g>
</svg>
