<?xml version="1.0" standalone="no"?>
<!DOCTYPE svg PUBLIC "-//W3C//DTD SVG 1.1//EN"
 "http://www.w3.org/Graphics/SVG/1.1/DTD/svg11.dtd">
<!-- Created with svg_stack (http://github.com/astraw/svg_stack) -->
<svg xmlns:sodipodi="http://sodipodi.sourceforge.net/DTD/sodipodi-0.dtd" xmlns="http://www.w3.org/2000/svg" version="1.1" width="593.75" height="1592.5">
  <defs/>
  <g id="id0:id0" transform="matrix(1.25,0,0,1.25,0.0,0.0)"><g transform="translate(0.000000,1274.000000) scale(0.100000,-0.100000)" fill="#181512" stroke="none">
<path d="M2045 12730 c-166 -22 -362 -78 -575 -165 -300 -122 -532 -276 -765 -510 -190 -190 -311 -357 -433 -600 -90 -180 -154 -362 -203 -572 -21 -91 -38 -143 -46 -143 -18 0 -18 -32 -15 -5667 l2 -5073 2360 0 2360 0 0 5009 c0 3561 3 5010 11 5013 7 2 7 53 0 175 -6 95 -11 256 -11 358 0 149 -3 185 -14 185 -9 0 -17 25 -25 78 -50 321 -237 729 -481 1052 -140 185 -443 439 -695 583 -94 53 -374 169 -493 204 -250 72 -272 75 -607 78 -170 2 -337 0 -370 -5z m610 -729 c590 -102 1095 -540 1274 -1105 23 -71 41 -135 41 -142 0 -12 -250 -14 -1595 -14 -1512 0 -1595 1 -1595 18 1 95 126 391 236 558 90 137 281 323 444 433 175 118 415 215 620 251 150 26 427 26 575 1z m1355 -6631 l0 -4650 -1640 0 -1640 0 0 4650 0 4650 1640 0 1640 0 0 -4650z"/>
</g>
</g>
  <g id="id1:id1" transform="matrix(1.25,0,0,1.25,0.0,0.0)"><g transform="translate(0.000000,1274.000000) scale(0.100000,-0.100000)" fill="#ffffff" stroke="none">
</g>
</g>
</svg>
