<?xml version="1.0" encoding="UTF-8" standalone="no"?>
<!-- Created with Inkscape (http://www.inkscape.org/) -->

<svg
   xmlns:dc="http://purl.org/dc/elements/1.1/"
   xmlns:cc="http://creativecommons.org/ns#"
   xmlns:rdf="http://www.w3.org/1999/02/22-rdf-syntax-ns#"
   xmlns:svg="http://www.w3.org/2000/svg"
   xmlns="http://www.w3.org/2000/svg"
   xmlns:inkscape="http://www.inkscape.org/namespaces/inkscape"
   version="1.1"
   width="100%"
   height="100%"
   viewBox="0 0 350.10081 350.34018"
   id="svg264179"
   xml:space="preserve"
   style="fill-rule:evenodd;stroke-linecap:round;stroke-linejoin:round"><metadata
     id="metadata265100"><rdf:RDF><cc:Work
         rdf:about=""><dc:format>image/svg+xml</dc:format><dc:type
           rdf:resource="http://purl.org/dc/dcmitype/StillImage" /></cc:Work></rdf:RDF></metadata><defs
     id="defs264181"><clipPath
       id="clipId0"><path
         d="M 0,600 800,600 800,0 0,0 z"
         inkscape:connector-curvature="0"
         id="path264184" /></clipPath></defs><g
     transform="translate(-224.86814,-125.12364)"
     clip-path="url(#clipId0)"
     id="g264186"
     style="fill:none;stroke:#000000;stroke-width:0.1" /><g
     transform="translate(-224.86814,-125.12364)"
     clip-path="url(#clipId0)"
     id="g264188"
     style="fill:#00ffff;stroke:none"><path
       d="m 399.90625,125.125 c -58.15977,-0.23665 -115.3835,30.51795 -146.6875,79.625 -33.54409,50.35306 -37.63722,118.39706 -10.59375,172.5 25.83373,53.95696 81.07618,92.20437 140.6875,97.34375 59.50549,6.17997 121.03607,-20.9469 156.5625,-69.09375 36.33676,-47.51472 45.34841,-114.11921 22.84375,-169.5625 -21.50274,-55.81723 -73.59448,-98.26368 -132.59375,-108.09375 -9.96539,-1.83508 -20.09856,-2.49424 -30.21875,-2.71875 z m -80.59375,56.0625 80.59375,0 0,17.5 -83.9375,0 3.34375,-17.5 z m -5.375,28.03125 85.96875,0 0,21 -49.0625,0 0,17.53125 49.0625,0 0,35.03125 c -13.0818,9.81454 -26.14577,19.65288 -39.25,29.4375 l 10.53125,14 c 13.07305,-9.8019 26.1477,-19.60168 39.21875,-29.40625 11.24996,3.14598 22.5053,6.27274 33.75,9.4375 l -7.5625,26.96875 c 5.62621,1.57903 11.2508,3.16382 16.875,4.75 l 7.5625,-27 L 498,321.3125 l 0,31.5625 -211.625,0 27.5625,-143.65625 z m -28.96875,154.15625 223.5625,0 16.75,26.84375 c 0.54127,2.67683 -7.75047,0.45697 -10.71875,1.1875 2.06967,12.30421 -6.80537,25.09281 -19.0625,27.4375 -14.8015,3.7637 -30.60024,-9.24432 -29.6875,-24.5 1.5604,-5.3738 -6.16825,-2.0137 -9.40625,-2.9375 2.06476,12.30246 -6.8122,25.08437 -19.0625,27.4375 -14.8028,3.76076 -30.60807,-9.23564 -29.6875,-24.5 1.55044,-5.37439 -6.19018,-2.01262 -9.4375,-2.9375 2.10648,12.28555 -6.78629,25.10068 -19.03125,27.4375 -14.81645,3.7724 -30.59439,-9.23773 -29.71875,-24.5 1.60176,-5.37232 -6.17321,-2.01319 -9.40625,-2.9375 2.31661,13.21762 -8.24874,26.79362 -21.625,27.84375 -15.26379,2.22025 -29.63668,-12.67043 -26.875,-27.84375 l -17.78125,0 11.1875,-28.03125 z"
       inkscape:connector-curvature="0"
       id="path264344" /></g><g
     transform="translate(-224.86814,-125.12364)"
     clip-path="url(#clipId0)"
     id="g264346"
     style="fill:#ffffff;fill-rule:nonzero;stroke:none" /><g
     transform="translate(-224.86814,-125.12364)"
     clip-path="url(#clipId0)"
     id="g264354"
     style="fill:none;stroke:#00ffff;stroke-width:0.25" /><g
     transform="translate(-224.86814,-125.12364)"
     clip-path="url(#clipId0)"
     id="g264358"
     style="fill:#ffffff;stroke:none" /><g
     transform="translate(-224.86814,-125.12364)"
     clip-path="url(#clipId0)"
     id="g264424"
     style="fill:none;stroke:#ffffff;stroke-width:0.25"><polyline
       points="286.385,352.861 313.945,209.21 399.904,209.21 399.904,230.232 350.852,230.232 350.852,247.751 399.904,247.751 399.904,282.787 360.663,312.218 371.174,326.233 410.415,296.802 444.155,306.248 436.601,333.233 453.468,337.956 461.022,310.971 498.006,321.328 498.006,352.861 286.385,352.861 "
       id="polyline264426" /></g><g
     transform="translate(-224.86814,-125.12364)"
     clip-path="url(#clipId0)"
     id="g264428"
     style="fill:#ffffff;stroke:none" /><g
     transform="translate(-224.86814,-125.12364)"
     clip-path="url(#clipId0)"
     id="g264586"
     style="fill:none;stroke:#ffffff;stroke-width:0.25"><polyline
       points="315.816,370.379 315.816,370.379 "
       id="polyline264588" /></g><g
     transform="translate(-224.86814,-125.12364)"
     clip-path="url(#clipId0)"
     id="g264592"
     style="fill:#ffffff;stroke:none" /><g
     transform="translate(-224.86814,-125.12364)"
     clip-path="url(#clipId0)"
     id="g264750"
     style="fill:none;stroke:#ffffff;stroke-width:0.25"><polyline
       points="373.977,370.379 373.977,370.379 "
       id="polyline264752" /></g><g
     transform="translate(-224.86814,-125.12364)"
     clip-path="url(#clipId0)"
     id="g264756"
     style="fill:#ffffff;stroke:none" /><g
     transform="translate(-224.86814,-125.12364)"
     clip-path="url(#clipId0)"
     id="g264914"
     style="fill:none;stroke:#ffffff;stroke-width:0.25"><polyline
       points="432.137,370.379 432.137,370.379 "
       id="polyline264916" /></g><g
     transform="translate(-224.86814,-125.12364)"
     clip-path="url(#clipId0)"
     id="g264920"
     style="fill:#ffffff;stroke:none" /><g
     transform="translate(-224.86814,-125.12364)"
     clip-path="url(#clipId0)"
     id="g265078"
     style="fill:none;stroke:#ffffff;stroke-width:0.25"><polyline
       points="490.298,370.379 490.298,370.379 "
       id="polyline265080" /><polyline
       points="490.298,370.379 492.223,370.455 494.135,370.681 496.024,371.057 497.877,371.58 499.684,372.246 501.433,373.052 503.113,373.993 504.714,375.063 506.227,376.255 507.641,377.563 508.948,378.977 510.14,380.489 511.21,382.09 512.151,383.77 512.957,385.519 513.624,387.326 514.146,389.179 514.522,391.068 514.748,392.981 514.824,394.905 514.748,396.829 514.522,398.742 514.146,400.63 513.624,402.484 512.957,404.29 512.151,406.039 511.21,407.72 510.14,409.321 508.948,410.833 507.641,412.247 506.227,413.554 504.714,414.747 503.113,415.816 501.433,416.757 499.684,417.564 497.877,418.23 496.024,418.753 494.135,419.129 492.223,419.355 490.298,419.431 488.374,419.355 486.462,419.129 484.573,418.753 482.72,418.23 480.913,417.564 479.164,416.757 477.484,415.816 475.883,414.747 474.37,413.554 472.956,412.247 471.649,410.833 470.457,409.321 469.387,407.72 468.446,406.039 467.64,404.29 466.973,402.484 466.45,400.63 466.075,398.742 465.848,396.829 465.773,394.905 465.848,392.981 466.075,391.068 466.45,389.179 466.973,387.326 467.64,385.519 468.446,383.77 469.387,382.09 470.457,380.489 471.649,378.977 472.956,377.563 474.37,376.255 475.883,375.063 477.484,373.993 479.164,373.052 480.913,372.246 482.72,371.58 484.573,371.057 486.462,370.681 488.374,370.455 490.298,370.379 "
       id="polyline265082" /></g><g
     transform="translate(-224.86814,-125.12364)"
     clip-path="url(#clipId0)"
     id="g265084"
     style="fill:#ffffff;stroke:none" /><path
     d="m 94.569355,56.657606 c 0.35098,5.65514 -7.34575,17.97869 2.23977,16.28739 26.074355,0.3918 52.152675,0.19568 78.228985,0.24386 0,-5.51042 0,-11.02083 0,-16.53125 -26.82292,0 -53.64583,0 -80.468755,0 z m -5.25,27.96875 c -9.30515,47.641344 -18.20728,95.362484 -27.53125,143.000004 70.375005,0 140.750005,0 211.125005,0 0,-10.36458 0,-20.72917 0,-31.09375 -12.13285,-3.51751 -24.26968,-7.05534 -36.53125,-10.09375 -5.14127,7.6722 -1.53216,31.15539 -14.94274,24.72619 -16.37397,0.59112 -5.75896,-14.28018 -4.27701,-23.71682 5.01929,-11.38222 -15.12956,-8.31861 -21.92309,-12.69883 -12.28658,-6.8195 -20.76558,7.79637 -30.61583,13.01761 -6.12211,4.59895 -12.24422,9.1979 -18.36633,13.79685 -3.54803,-4.84061 -7.34296,-9.515 -10.59375,-14.5625 12.84238,-10.20381 26.18666,-19.75906 39.3125,-29.59375 0.0208,-11.55208 0.0416,-23.10417 0.0624,-34.65625 -16.52083,0 -33.04167,0 -49.5625,0 0,-5.92708 0,-11.85417 0,-17.78125 16.52083,0 33.04167,0 49.5625,0 0,-6.781254 0,-13.562504 0,-20.343754 -28.57282,0 -57.14617,0 -85.718655,0 z m -29,153.812504 c -3.514,8.94205 -7.21971,17.81283 -10.5,26.84375 4.7079,2.22358 14.48792,-1.77377 17.15625,1.84758 -1.88311,15.06175 13.2356,29.58797 28.25113,26.23102 12.852515,-1.82962 21.203815,-15.1358 19.748875,-27.5786 12.66628,-3.50372 8.66846,10.79878 14.50102,17.67489 8.21148,12.14094 27.28899,14.14751 37.08267,2.74381 9.42059,-3.76288 1.42389,-21.35207 10.70904,-20.44995 10.78732,0.5282 4.593,19.22681 15.93205,23.26396 13.34287,11.26151 35.47859,1.55561 37.81384,-15.23603 -3.31721,-8.08803 7.61076,-11.7499 10.14836,-4.3896 -0.42488,16.86465 19.30178,30.1439 34.50573,22.11641 9.81256,-4.35303 14.89257,-15.37734 13.77604,-25.75474 5.77675,0.33511 14.38913,1.23425 6.98023,-6.24279 -4.2662,-7.05645 -8.6708,-14.02784 -13.01148,-21.03846 -74.36457,-0.0267 -148.72926,-0.037 -223.093755,-0.0312 z"
     inkscape:connector-curvature="0"
     id="path3005"
     style="fill:#ffffff;fill-opacity:1;fill-rule:evenodd;stroke:none" /></svg>