<?xml version="1.0" standalone="no"?>
<!DOCTYPE svg PUBLIC "-//W3C//DTD SVG 1.1//EN"
 "http://www.w3.org/Graphics/SVG/1.1/DTD/svg11.dtd">
<!-- Created with svg_stack (http://github.com/astraw/svg_stack) -->
<svg xmlns:sodipodi="http://sodipodi.sourceforge.net/DTD/sodipodi-0.dtd" xmlns="http://www.w3.org/2000/svg" version="1.1" width="1991.25" height="758.75">
  <defs/>
  <g id="id0:id0" transform="matrix(1.25,0,0,1.25,0.0,0.0)"><g transform="translate(0.000000,607.000000) scale(0.100000,-0.100000)" fill="#000000" stroke="none">
<path d="M4098 4783 l-1288 -1288 -1175 1175 -1175 1175 -230 -230 -230 -230 1172 -1172 1173 -1173 -1172 -1173 -1172 -1172 229 -235 229 -235 1175 1175 1176 1175 1290 -1290 1290 -1290 1287 1288 1288 1287 1287 -1287 1288 -1288 1288 1288 1287 1287 1172 -1172 1173 -1173 235 235 235 235 -1172 1172 -1173 1173 1173 1173 1173 1173 -236 229 -236 229 -1172 -1172 -1172 -1172 -1287 1287 -1288 1288 -1288 -1288 -1287 -1287 -1285 1285 c-707 707 -1287 1285 -1290 1285 -3 0 -584 -579 -1292 -1287z m2350 -696 l1052 -1052 -1055 -1055 -1055 -1055 -1055 1055 -1055 1055 1052 1052 c579 579 1055 1053 1058 1053 3 0 479 -474 1058 -1053z m5150 0 l1052 -1052 -1055 -1055 -1055 -1055 -1055 1055 -1055 1055 1052 1052 c579 579 1055 1053 1058 1053 3 0 479 -474 1058 -1053z"/>
</g>
</g>
  <g id="id1:id1" transform="matrix(1.25,0,0,1.25,0.0,0.0)"><g transform="translate(0.000000,607.000000) scale(0.100000,-0.100000)" fill="#ffffff" stroke="none">
</g>
</g>
</svg>
