<?xml version="1.0" standalone="no"?>
<!DOCTYPE svg PUBLIC "-//W3C//DTD SVG 1.1//EN"
 "http://www.w3.org/Graphics/SVG/1.1/DTD/svg11.dtd">
<!-- Created with svg_stack (http://github.com/astraw/svg_stack) -->
<svg xmlns:sodipodi="http://sodipodi.sourceforge.net/DTD/sodipodi-0.dtd" xmlns="http://www.w3.org/2000/svg" version="1.1" width="1982.5" height="558.75">
  <defs/>
  <g id="id0:id0" transform="matrix(1.25,0,0,1.25,0.0,0.0)"><g transform="translate(0.000000,447.000000) scale(0.100000,-0.100000)" fill="#000000" stroke="none">
<path d="M731 4260 c-247 -315 -420 -623 -542 -965 -75 -208 -152 -553 -168 -750 -28 -351 -24 -497 24 -785 58 -347 107 -514 239 -814 138 -315 239 -474 500 -788 l131 -158 7020 0 7021 0 170 217 c263 336 325 435 451 721 99 226 200 550 232 747 39 235 57 572 41 755 -26 306 -63 500 -148 780 -118 384 -309 723 -616 1093 l-131 157 -7030 0 -7030 0 -164 -210z m14436 -2157 c-8 -154 -38 -358 -72 -491 -45 -179 -156 -440 -262 -622 -53 -91 -121 -198 -151 -237 l-54 -73 -6698 0 -6697 0 -75 108 c-161 231 -258 422 -342 672 -74 224 -124 507 -126 718 l0 52 7242 0 7241 0 -6 -127z"/>
</g>
</g>
  <g id="id1:id1" transform="matrix(1.25,0,0,1.25,0.0,0.0)"><g transform="translate(0.000000,447.000000) scale(0.100000,-0.100000)" fill="#ffffff" stroke="none">
</g>
</g>
</svg>
