<?xml version="1.0" standalone="no"?>
<!DOCTYPE svg PUBLIC "-//W3C//DTD SVG 1.1//EN"
 "http://www.w3.org/Graphics/SVG/1.1/DTD/svg11.dtd">
<!-- Created with svg_stack (http://github.com/astraw/svg_stack) -->
<svg xmlns:sodipodi="http://sodipodi.sourceforge.net/DTD/sodipodi-0.dtd" xmlns="http://www.w3.org/2000/svg" version="1.1" width="1596.25" height="1597.5">
  <defs/>
  <g id="id0:id0" transform="matrix(1.25,0,0,1.25,0.0,0.0)"><g transform="translate(0.000000,1278.000000) scale(0.100000,-0.100000)" fill="#000000" stroke="none">
<path d="M2360 11275 c-178 -27 -260 -49 -408 -111 -274 -115 -500 -278 -691 -499 -113 -131 -174 -221 -246 -364 -106 -212 -143 -329 -177 -556 -46 -318 -15 -640 92 -933 42 -116 132 -292 203 -397 73 -107 283 -321 409 -415 385 -289 898 -429 1331 -365 442 67 804 248 1098 551 58 60 118 126 135 146 l30 37 43 -54 c87 -108 293 -298 405 -374 368 -245 855 -365 1249 -306 281 43 575 149 787 286 181 116 393 326 518 512 111 163 208 390 261 610 46 189 54 267 48 470 -8 287 -58 487 -187 755 -169 349 -431 631 -745 801 -214 116 -379 171 -618 206 -207 31 -347 32 -539 5 -302 -43 -549 -137 -792 -303 -108 -74 -219 -177 -336 -314 -50 -57 -91 -104 -93 -106 -1 -1 -33 34 -71 78 -119 138 -198 215 -300 292 -264 198 -511 302 -827 348 -215 31 -366 31 -579 0z"/>
<path d="M10209 8301 c-2017 -1444 -2234 -1597 -2237 -1575 l-3 24 -263 0 -263 0 -256 -180 -255 -180 -276 0 -276 0 0 385 0 385 -2555 0 -2555 0 0 -1535 0 -1535 2555 0 2555 0 0 385 0 385 283 0 282 0 255 -205 255 -204 257 -1 c248 0 257 1 260 20 2 16 408 -265 2242 -1550 1231 -864 2242 -1570 2245 -1570 12 1 261 374 253 381 -4 3 -1072 750 -2374 1660 l-2368 1654 0 545 0 545 2361 1685 c1299 927 2368 1690 2375 1695 11 8 -14 49 -118 197 -73 103 -136 188 -139 188 -3 0 -1011 -720 -2240 -1599z"/>
</g>
</g>
  <g id="id1:id1" transform="matrix(1.25,0,0,1.25,0.0,0.0)"><g transform="translate(0.000000,1278.000000) scale(0.100000,-0.100000)" fill="#010101" stroke="none">
</g>
</g>
  <g id="id2:id2" transform="matrix(1.25,0,0,1.25,0.0,0.0)"><g transform="translate(0.000000,1278.000000) scale(0.100000,-0.100000)" fill="#020202" stroke="none">
</g>
</g>
  <g id="id3:id3" transform="matrix(1.25,0,0,1.25,0.0,0.0)"><g transform="translate(0.000000,1278.000000) scale(0.100000,-0.100000)" fill="#030303" stroke="none">
</g>
</g>
  <g id="id4:id4" transform="matrix(1.25,0,0,1.25,0.0,0.0)"><g transform="translate(0.000000,1278.000000) scale(0.100000,-0.100000)" fill="#040404" stroke="none">
</g>
</g>
  <g id="id5:id5" transform="matrix(1.25,0,0,1.25,0.0,0.0)"><g transform="translate(0.000000,1278.000000) scale(0.100000,-0.100000)" fill="#050505" stroke="none">
</g>
</g>
  <g id="id6:id6" transform="matrix(1.25,0,0,1.25,0.0,0.0)"><g transform="translate(0.000000,1278.000000) scale(0.100000,-0.100000)" fill="#060606" stroke="none">
</g>
</g>
  <g id="id7:id7" transform="matrix(1.25,0,0,1.25,0.0,0.0)"><g transform="translate(0.000000,1278.000000) scale(0.100000,-0.100000)" fill="#070707" stroke="none">
</g>
</g>
  <g id="id8:id8" transform="matrix(1.25,0,0,1.25,0.0,0.0)"><g transform="translate(0.000000,1278.000000) scale(0.100000,-0.100000)" fill="#080808" stroke="none">
</g>
</g>
  <g id="id9:id9" transform="matrix(1.25,0,0,1.25,0.0,0.0)"><g transform="translate(0.000000,1278.000000) scale(0.100000,-0.100000)" fill="#090909" stroke="none">
</g>
</g>
  <g id="id10:id10" transform="matrix(1.25,0,0,1.25,0.0,0.0)"><g transform="translate(0.000000,1278.000000) scale(0.100000,-0.100000)" fill="#0a0a0a" stroke="none">
</g>
</g>
  <g id="id11:id11" transform="matrix(1.25,0,0,1.25,0.0,0.0)"><g transform="translate(0.000000,1278.000000) scale(0.100000,-0.100000)" fill="#0b0b0b" stroke="none">
</g>
</g>
  <g id="id12:id12" transform="matrix(1.25,0,0,1.25,0.0,0.0)"><g transform="translate(0.000000,1278.000000) scale(0.100000,-0.100000)" fill="#0c0c0c" stroke="none">
</g>
</g>
  <g id="id13:id13" transform="matrix(1.25,0,0,1.25,0.0,0.0)"><g transform="translate(0.000000,1278.000000) scale(0.100000,-0.100000)" fill="#0d0d0d" stroke="none">
</g>
</g>
  <g id="id14:id14" transform="matrix(1.25,0,0,1.25,0.0,0.0)"><g transform="translate(0.000000,1278.000000) scale(0.100000,-0.100000)" fill="#0e0e0e" stroke="none">
</g>
</g>
  <g id="id15:id15" transform="matrix(1.25,0,0,1.25,0.0,0.0)"><g transform="translate(0.000000,1278.000000) scale(0.100000,-0.100000)" fill="#0f0f0f" stroke="none">
</g>
</g>
  <g id="id16:id16" transform="matrix(1.25,0,0,1.25,0.0,0.0)"><g transform="translate(0.000000,1278.000000) scale(0.100000,-0.100000)" fill="#101010" stroke="none">
</g>
</g>
  <g id="id17:id17" transform="matrix(1.25,0,0,1.25,0.0,0.0)"><g transform="translate(0.000000,1278.000000) scale(0.100000,-0.100000)" fill="#111111" stroke="none">
</g>
</g>
  <g id="id18:id18" transform="matrix(1.25,0,0,1.25,0.0,0.0)"><g transform="translate(0.000000,1278.000000) scale(0.100000,-0.100000)" fill="#121212" stroke="none">
</g>
</g>
  <g id="id19:id19" transform="matrix(1.25,0,0,1.25,0.0,0.0)"><g transform="translate(0.000000,1278.000000) scale(0.100000,-0.100000)" fill="#131313" stroke="none">
</g>
</g>
  <g id="id20:id20" transform="matrix(1.25,0,0,1.25,0.0,0.0)"><g transform="translate(0.000000,1278.000000) scale(0.100000,-0.100000)" fill="#141414" stroke="none">
</g>
</g>
  <g id="id21:id21" transform="matrix(1.25,0,0,1.25,0.0,0.0)"><g transform="translate(0.000000,1278.000000) scale(0.100000,-0.100000)" fill="#151515" stroke="none">
</g>
</g>
  <g id="id22:id22" transform="matrix(1.25,0,0,1.25,0.0,0.0)"><g transform="translate(0.000000,1278.000000) scale(0.100000,-0.100000)" fill="#161616" stroke="none">
</g>
</g>
  <g id="id23:id23" transform="matrix(1.25,0,0,1.25,0.0,0.0)"><g transform="translate(0.000000,1278.000000) scale(0.100000,-0.100000)" fill="#171717" stroke="none">
</g>
</g>
  <g id="id24:id24" transform="matrix(1.25,0,0,1.25,0.0,0.0)"><g transform="translate(0.000000,1278.000000) scale(0.100000,-0.100000)" fill="#181818" stroke="none">
</g>
</g>
  <g id="id25:id25" transform="matrix(1.25,0,0,1.25,0.0,0.0)"><g transform="translate(0.000000,1278.000000) scale(0.100000,-0.100000)" fill="#191919" stroke="none">
</g>
</g>
  <g id="id26:id26" transform="matrix(1.25,0,0,1.25,0.0,0.0)"><g transform="translate(0.000000,1278.000000) scale(0.100000,-0.100000)" fill="#1a1a1a" stroke="none">
</g>
</g>
  <g id="id27:id27" transform="matrix(1.25,0,0,1.25,0.0,0.0)"><g transform="translate(0.000000,1278.000000) scale(0.100000,-0.100000)" fill="#1b1b1b" stroke="none">
</g>
</g>
  <g id="id28:id28" transform="matrix(1.25,0,0,1.25,0.0,0.0)"><g transform="translate(0.000000,1278.000000) scale(0.100000,-0.100000)" fill="#1c1c1c" stroke="none">
</g>
</g>
  <g id="id29:id29" transform="matrix(1.25,0,0,1.25,0.0,0.0)"><g transform="translate(0.000000,1278.000000) scale(0.100000,-0.100000)" fill="#1d1d1d" stroke="none">
</g>
</g>
  <g id="id30:id30" transform="matrix(1.25,0,0,1.25,0.0,0.0)"><g transform="translate(0.000000,1278.000000) scale(0.100000,-0.100000)" fill="#1e1e1e" stroke="none">
</g>
</g>
  <g id="id31:id31" transform="matrix(1.25,0,0,1.25,0.0,0.0)"><g transform="translate(0.000000,1278.000000) scale(0.100000,-0.100000)" fill="#1f1f1f" stroke="none">
</g>
</g>
  <g id="id32:id32" transform="matrix(1.25,0,0,1.25,0.0,0.0)"><g transform="translate(0.000000,1278.000000) scale(0.100000,-0.100000)" fill="#202020" stroke="none">
</g>
</g>
  <g id="id33:id33" transform="matrix(1.25,0,0,1.25,0.0,0.0)"><g transform="translate(0.000000,1278.000000) scale(0.100000,-0.100000)" fill="#212121" stroke="none">
</g>
</g>
  <g id="id34:id34" transform="matrix(1.25,0,0,1.25,0.0,0.0)"><g transform="translate(0.000000,1278.000000) scale(0.100000,-0.100000)" fill="#222222" stroke="none">
</g>
</g>
  <g id="id35:id35" transform="matrix(1.25,0,0,1.25,0.0,0.0)"><g transform="translate(0.000000,1278.000000) scale(0.100000,-0.100000)" fill="#232323" stroke="none">
</g>
</g>
  <g id="id36:id36" transform="matrix(1.25,0,0,1.25,0.0,0.0)"><g transform="translate(0.000000,1278.000000) scale(0.100000,-0.100000)" fill="#242424" stroke="none">
</g>
</g>
  <g id="id37:id37" transform="matrix(1.25,0,0,1.25,0.0,0.0)"><g transform="translate(0.000000,1278.000000) scale(0.100000,-0.100000)" fill="#252525" stroke="none">
</g>
</g>
  <g id="id38:id38" transform="matrix(1.25,0,0,1.25,0.0,0.0)"><g transform="translate(0.000000,1278.000000) scale(0.100000,-0.100000)" fill="#262626" stroke="none">
</g>
</g>
  <g id="id39:id39" transform="matrix(1.25,0,0,1.25,0.0,0.0)"><g transform="translate(0.000000,1278.000000) scale(0.100000,-0.100000)" fill="#272727" stroke="none">
</g>
</g>
  <g id="id40:id40" transform="matrix(1.25,0,0,1.25,0.0,0.0)"><g transform="translate(0.000000,1278.000000) scale(0.100000,-0.100000)" fill="#282828" stroke="none">
</g>
</g>
  <g id="id41:id41" transform="matrix(1.25,0,0,1.25,0.0,0.0)"><g transform="translate(0.000000,1278.000000) scale(0.100000,-0.100000)" fill="#292929" stroke="none">
</g>
</g>
  <g id="id42:id42" transform="matrix(1.25,0,0,1.25,0.0,0.0)"><g transform="translate(0.000000,1278.000000) scale(0.100000,-0.100000)" fill="#2a2a2a" stroke="none">
</g>
</g>
  <g id="id43:id43" transform="matrix(1.25,0,0,1.25,0.0,0.0)"><g transform="translate(0.000000,1278.000000) scale(0.100000,-0.100000)" fill="#2b2b2b" stroke="none">
</g>
</g>
  <g id="id44:id44" transform="matrix(1.25,0,0,1.25,0.0,0.0)"><g transform="translate(0.000000,1278.000000) scale(0.100000,-0.100000)" fill="#2c2c2c" stroke="none">
</g>
</g>
  <g id="id45:id45" transform="matrix(1.25,0,0,1.25,0.0,0.0)"><g transform="translate(0.000000,1278.000000) scale(0.100000,-0.100000)" fill="#2d2d2d" stroke="none">
</g>
</g>
  <g id="id46:id46" transform="matrix(1.25,0,0,1.25,0.0,0.0)"><g transform="translate(0.000000,1278.000000) scale(0.100000,-0.100000)" fill="#2e2e2e" stroke="none">
</g>
</g>
  <g id="id47:id47" transform="matrix(1.25,0,0,1.25,0.0,0.0)"><g transform="translate(0.000000,1278.000000) scale(0.100000,-0.100000)" fill="#2f2f2f" stroke="none">
</g>
</g>
  <g id="id48:id48" transform="matrix(1.25,0,0,1.25,0.0,0.0)"><g transform="translate(0.000000,1278.000000) scale(0.100000,-0.100000)" fill="#303030" stroke="none">
</g>
</g>
  <g id="id49:id49" transform="matrix(1.25,0,0,1.25,0.0,0.0)"><g transform="translate(0.000000,1278.000000) scale(0.100000,-0.100000)" fill="#313131" stroke="none">
</g>
</g>
  <g id="id50:id50" transform="matrix(1.25,0,0,1.25,0.0,0.0)"><g transform="translate(0.000000,1278.000000) scale(0.100000,-0.100000)" fill="#323232" stroke="none">
</g>
</g>
  <g id="id51:id51" transform="matrix(1.25,0,0,1.25,0.0,0.0)"><g transform="translate(0.000000,1278.000000) scale(0.100000,-0.100000)" fill="#333333" stroke="none">
</g>
</g>
  <g id="id52:id52" transform="matrix(1.25,0,0,1.25,0.0,0.0)"><g transform="translate(0.000000,1278.000000) scale(0.100000,-0.100000)" fill="#343434" stroke="none">
</g>
</g>
  <g id="id53:id53" transform="matrix(1.25,0,0,1.25,0.0,0.0)"><g transform="translate(0.000000,1278.000000) scale(0.100000,-0.100000)" fill="#353535" stroke="none">
</g>
</g>
  <g id="id54:id54" transform="matrix(1.25,0,0,1.25,0.0,0.0)"><g transform="translate(0.000000,1278.000000) scale(0.100000,-0.100000)" fill="#363636" stroke="none">
</g>
</g>
  <g id="id55:id55" transform="matrix(1.25,0,0,1.25,0.0,0.0)"><g transform="translate(0.000000,1278.000000) scale(0.100000,-0.100000)" fill="#373737" stroke="none">
</g>
</g>
  <g id="id56:id56" transform="matrix(1.25,0,0,1.25,0.0,0.0)"><g transform="translate(0.000000,1278.000000) scale(0.100000,-0.100000)" fill="#383838" stroke="none">
</g>
</g>
  <g id="id57:id57" transform="matrix(1.25,0,0,1.25,0.0,0.0)"><g transform="translate(0.000000,1278.000000) scale(0.100000,-0.100000)" fill="#393939" stroke="none">
</g>
</g>
  <g id="id58:id58" transform="matrix(1.25,0,0,1.25,0.0,0.0)"><g transform="translate(0.000000,1278.000000) scale(0.100000,-0.100000)" fill="#3a3a3a" stroke="none">
</g>
</g>
  <g id="id59:id59" transform="matrix(1.25,0,0,1.25,0.0,0.0)"><g transform="translate(0.000000,1278.000000) scale(0.100000,-0.100000)" fill="#3b3b3b" stroke="none">
</g>
</g>
  <g id="id60:id60" transform="matrix(1.25,0,0,1.25,0.0,0.0)"><g transform="translate(0.000000,1278.000000) scale(0.100000,-0.100000)" fill="#3c3c3c" stroke="none">
</g>
</g>
  <g id="id61:id61" transform="matrix(1.25,0,0,1.25,0.0,0.0)"><g transform="translate(0.000000,1278.000000) scale(0.100000,-0.100000)" fill="#3d3d3d" stroke="none">
</g>
</g>
  <g id="id62:id62" transform="matrix(1.25,0,0,1.25,0.0,0.0)"><g transform="translate(0.000000,1278.000000) scale(0.100000,-0.100000)" fill="#3e3e3e" stroke="none">
</g>
</g>
  <g id="id63:id63" transform="matrix(1.25,0,0,1.25,0.0,0.0)"><g transform="translate(0.000000,1278.000000) scale(0.100000,-0.100000)" fill="#3f3f3f" stroke="none">
</g>
</g>
  <g id="id64:id64" transform="matrix(1.25,0,0,1.25,0.0,0.0)"><g transform="translate(0.000000,1278.000000) scale(0.100000,-0.100000)" fill="#404040" stroke="none">
</g>
</g>
  <g id="id65:id65" transform="matrix(1.25,0,0,1.25,0.0,0.0)"><g transform="translate(0.000000,1278.000000) scale(0.100000,-0.100000)" fill="#414141" stroke="none">
</g>
</g>
  <g id="id66:id66" transform="matrix(1.25,0,0,1.25,0.0,0.0)"><g transform="translate(0.000000,1278.000000) scale(0.100000,-0.100000)" fill="#424242" stroke="none">
</g>
</g>
  <g id="id67:id67" transform="matrix(1.25,0,0,1.25,0.0,0.0)"><g transform="translate(0.000000,1278.000000) scale(0.100000,-0.100000)" fill="#434343" stroke="none">
</g>
</g>
  <g id="id68:id68" transform="matrix(1.25,0,0,1.25,0.0,0.0)"><g transform="translate(0.000000,1278.000000) scale(0.100000,-0.100000)" fill="#444444" stroke="none">
</g>
</g>
  <g id="id69:id69" transform="matrix(1.25,0,0,1.25,0.0,0.0)"><g transform="translate(0.000000,1278.000000) scale(0.100000,-0.100000)" fill="#454545" stroke="none">
</g>
</g>
  <g id="id70:id70" transform="matrix(1.25,0,0,1.25,0.0,0.0)"><g transform="translate(0.000000,1278.000000) scale(0.100000,-0.100000)" fill="#464646" stroke="none">
</g>
</g>
  <g id="id71:id71" transform="matrix(1.25,0,0,1.25,0.0,0.0)"><g transform="translate(0.000000,1278.000000) scale(0.100000,-0.100000)" fill="#474747" stroke="none">
</g>
</g>
  <g id="id72:id72" transform="matrix(1.25,0,0,1.25,0.0,0.0)"><g transform="translate(0.000000,1278.000000) scale(0.100000,-0.100000)" fill="#484848" stroke="none">
</g>
</g>
  <g id="id73:id73" transform="matrix(1.25,0,0,1.25,0.0,0.0)"><g transform="translate(0.000000,1278.000000) scale(0.100000,-0.100000)" fill="#494949" stroke="none">
</g>
</g>
  <g id="id74:id74" transform="matrix(1.25,0,0,1.25,0.0,0.0)"><g transform="translate(0.000000,1278.000000) scale(0.100000,-0.100000)" fill="#4a4a4a" stroke="none">
</g>
</g>
  <g id="id75:id75" transform="matrix(1.25,0,0,1.25,0.0,0.0)"><g transform="translate(0.000000,1278.000000) scale(0.100000,-0.100000)" fill="#4b4b4b" stroke="none">
</g>
</g>
  <g id="id76:id76" transform="matrix(1.25,0,0,1.25,0.0,0.0)"><g transform="translate(0.000000,1278.000000) scale(0.100000,-0.100000)" fill="#4c4c4c" stroke="none">
</g>
</g>
  <g id="id77:id77" transform="matrix(1.25,0,0,1.25,0.0,0.0)"><g transform="translate(0.000000,1278.000000) scale(0.100000,-0.100000)" fill="#4d4d4d" stroke="none">
</g>
</g>
  <g id="id78:id78" transform="matrix(1.25,0,0,1.25,0.0,0.0)"><g transform="translate(0.000000,1278.000000) scale(0.100000,-0.100000)" fill="#4e4e4e" stroke="none">
</g>
</g>
  <g id="id79:id79" transform="matrix(1.25,0,0,1.25,0.0,0.0)"><g transform="translate(0.000000,1278.000000) scale(0.100000,-0.100000)" fill="#4f4f4f" stroke="none">
</g>
</g>
  <g id="id80:id80" transform="matrix(1.25,0,0,1.25,0.0,0.0)"><g transform="translate(0.000000,1278.000000) scale(0.100000,-0.100000)" fill="#505050" stroke="none">
</g>
</g>
  <g id="id81:id81" transform="matrix(1.25,0,0,1.25,0.0,0.0)"><g transform="translate(0.000000,1278.000000) scale(0.100000,-0.100000)" fill="#515151" stroke="none">
</g>
</g>
  <g id="id82:id82" transform="matrix(1.25,0,0,1.25,0.0,0.0)"><g transform="translate(0.000000,1278.000000) scale(0.100000,-0.100000)" fill="#525252" stroke="none">
</g>
</g>
  <g id="id83:id83" transform="matrix(1.25,0,0,1.25,0.0,0.0)"><g transform="translate(0.000000,1278.000000) scale(0.100000,-0.100000)" fill="#535353" stroke="none">
</g>
</g>
  <g id="id84:id84" transform="matrix(1.25,0,0,1.25,0.0,0.0)"><g transform="translate(0.000000,1278.000000) scale(0.100000,-0.100000)" fill="#545454" stroke="none">
</g>
</g>
  <g id="id85:id85" transform="matrix(1.25,0,0,1.25,0.0,0.0)"><g transform="translate(0.000000,1278.000000) scale(0.100000,-0.100000)" fill="#555555" stroke="none">
</g>
</g>
  <g id="id86:id86" transform="matrix(1.25,0,0,1.25,0.0,0.0)"><g transform="translate(0.000000,1278.000000) scale(0.100000,-0.100000)" fill="#565656" stroke="none">
</g>
</g>
  <g id="id87:id87" transform="matrix(1.25,0,0,1.25,0.0,0.0)"><g transform="translate(0.000000,1278.000000) scale(0.100000,-0.100000)" fill="#575757" stroke="none">
</g>
</g>
  <g id="id88:id88" transform="matrix(1.25,0,0,1.25,0.0,0.0)"><g transform="translate(0.000000,1278.000000) scale(0.100000,-0.100000)" fill="#585858" stroke="none">
</g>
</g>
  <g id="id89:id89" transform="matrix(1.25,0,0,1.25,0.0,0.0)"><g transform="translate(0.000000,1278.000000) scale(0.100000,-0.100000)" fill="#595959" stroke="none">
</g>
</g>
  <g id="id90:id90" transform="matrix(1.25,0,0,1.25,0.0,0.0)"><g transform="translate(0.000000,1278.000000) scale(0.100000,-0.100000)" fill="#5a5a5a" stroke="none">
</g>
</g>
  <g id="id91:id91" transform="matrix(1.25,0,0,1.25,0.0,0.0)"><g transform="translate(0.000000,1278.000000) scale(0.100000,-0.100000)" fill="#5b5b5b" stroke="none">
</g>
</g>
  <g id="id92:id92" transform="matrix(1.25,0,0,1.25,0.0,0.0)"><g transform="translate(0.000000,1278.000000) scale(0.100000,-0.100000)" fill="#5c5c5c" stroke="none">
</g>
</g>
  <g id="id93:id93" transform="matrix(1.25,0,0,1.25,0.0,0.0)"><g transform="translate(0.000000,1278.000000) scale(0.100000,-0.100000)" fill="#5d5d5d" stroke="none">
</g>
</g>
  <g id="id94:id94" transform="matrix(1.25,0,0,1.25,0.0,0.0)"><g transform="translate(0.000000,1278.000000) scale(0.100000,-0.100000)" fill="#5e5e5e" stroke="none">
</g>
</g>
  <g id="id95:id95" transform="matrix(1.25,0,0,1.25,0.0,0.0)"><g transform="translate(0.000000,1278.000000) scale(0.100000,-0.100000)" fill="#5f5f5f" stroke="none">
</g>
</g>
  <g id="id96:id96" transform="matrix(1.25,0,0,1.25,0.0,0.0)"><g transform="translate(0.000000,1278.000000) scale(0.100000,-0.100000)" fill="#606060" stroke="none">
</g>
</g>
  <g id="id97:id97" transform="matrix(1.25,0,0,1.25,0.0,0.0)"><g transform="translate(0.000000,1278.000000) scale(0.100000,-0.100000)" fill="#616161" stroke="none">
</g>
</g>
  <g id="id98:id98" transform="matrix(1.25,0,0,1.25,0.0,0.0)"><g transform="translate(0.000000,1278.000000) scale(0.100000,-0.100000)" fill="#626262" stroke="none">
</g>
</g>
  <g id="id99:id99" transform="matrix(1.25,0,0,1.25,0.0,0.0)"><g transform="translate(0.000000,1278.000000) scale(0.100000,-0.100000)" fill="#636363" stroke="none">
</g>
</g>
  <g id="id100:id100" transform="matrix(1.25,0,0,1.25,0.0,0.0)"><g transform="translate(0.000000,1278.000000) scale(0.100000,-0.100000)" fill="#646464" stroke="none">
</g>
</g>
  <g id="id101:id101" transform="matrix(1.25,0,0,1.25,0.0,0.0)"><g transform="translate(0.000000,1278.000000) scale(0.100000,-0.100000)" fill="#656565" stroke="none">
</g>
</g>
  <g id="id102:id102" transform="matrix(1.25,0,0,1.25,0.0,0.0)"><g transform="translate(0.000000,1278.000000) scale(0.100000,-0.100000)" fill="#666666" stroke="none">
</g>
</g>
  <g id="id103:id103" transform="matrix(1.25,0,0,1.25,0.0,0.0)"><g transform="translate(0.000000,1278.000000) scale(0.100000,-0.100000)" fill="#676767" stroke="none">
</g>
</g>
  <g id="id104:id104" transform="matrix(1.25,0,0,1.25,0.0,0.0)"><g transform="translate(0.000000,1278.000000) scale(0.100000,-0.100000)" fill="#686868" stroke="none">
</g>
</g>
  <g id="id105:id105" transform="matrix(1.25,0,0,1.25,0.0,0.0)"><g transform="translate(0.000000,1278.000000) scale(0.100000,-0.100000)" fill="#696969" stroke="none">
</g>
</g>
  <g id="id106:id106" transform="matrix(1.25,0,0,1.25,0.0,0.0)"><g transform="translate(0.000000,1278.000000) scale(0.100000,-0.100000)" fill="#6a6a6a" stroke="none">
</g>
</g>
  <g id="id107:id107" transform="matrix(1.25,0,0,1.25,0.0,0.0)"><g transform="translate(0.000000,1278.000000) scale(0.100000,-0.100000)" fill="#6b6b6b" stroke="none">
</g>
</g>
  <g id="id108:id108" transform="matrix(1.25,0,0,1.25,0.0,0.0)"><g transform="translate(0.000000,1278.000000) scale(0.100000,-0.100000)" fill="#6c6c6c" stroke="none">
</g>
</g>
  <g id="id109:id109" transform="matrix(1.25,0,0,1.25,0.0,0.0)"><g transform="translate(0.000000,1278.000000) scale(0.100000,-0.100000)" fill="#6d6d6d" stroke="none">
</g>
</g>
  <g id="id110:id110" transform="matrix(1.25,0,0,1.25,0.0,0.0)"><g transform="translate(0.000000,1278.000000) scale(0.100000,-0.100000)" fill="#6e6e6e" stroke="none">
</g>
</g>
  <g id="id111:id111" transform="matrix(1.25,0,0,1.25,0.0,0.0)"><g transform="translate(0.000000,1278.000000) scale(0.100000,-0.100000)" fill="#6f6f6f" stroke="none">
</g>
</g>
  <g id="id112:id112" transform="matrix(1.25,0,0,1.25,0.0,0.0)"><g transform="translate(0.000000,1278.000000) scale(0.100000,-0.100000)" fill="#707070" stroke="none">
</g>
</g>
  <g id="id113:id113" transform="matrix(1.25,0,0,1.25,0.0,0.0)"><g transform="translate(0.000000,1278.000000) scale(0.100000,-0.100000)" fill="#717171" stroke="none">
</g>
</g>
  <g id="id114:id114" transform="matrix(1.25,0,0,1.25,0.0,0.0)"><g transform="translate(0.000000,1278.000000) scale(0.100000,-0.100000)" fill="#727272" stroke="none">
</g>
</g>
  <g id="id115:id115" transform="matrix(1.25,0,0,1.25,0.0,0.0)"><g transform="translate(0.000000,1278.000000) scale(0.100000,-0.100000)" fill="#737373" stroke="none">
</g>
</g>
  <g id="id116:id116" transform="matrix(1.25,0,0,1.25,0.0,0.0)"><g transform="translate(0.000000,1278.000000) scale(0.100000,-0.100000)" fill="#747474" stroke="none">
</g>
</g>
  <g id="id117:id117" transform="matrix(1.25,0,0,1.25,0.0,0.0)"><g transform="translate(0.000000,1278.000000) scale(0.100000,-0.100000)" fill="#757575" stroke="none">
</g>
</g>
  <g id="id118:id118" transform="matrix(1.25,0,0,1.25,0.0,0.0)"><g transform="translate(0.000000,1278.000000) scale(0.100000,-0.100000)" fill="#767676" stroke="none">
</g>
</g>
  <g id="id119:id119" transform="matrix(1.25,0,0,1.25,0.0,0.0)"><g transform="translate(0.000000,1278.000000) scale(0.100000,-0.100000)" fill="#777777" stroke="none">
</g>
</g>
  <g id="id120:id120" transform="matrix(1.25,0,0,1.25,0.0,0.0)"><g transform="translate(0.000000,1278.000000) scale(0.100000,-0.100000)" fill="#787878" stroke="none">
</g>
</g>
  <g id="id121:id121" transform="matrix(1.25,0,0,1.25,0.0,0.0)"><g transform="translate(0.000000,1278.000000) scale(0.100000,-0.100000)" fill="#797979" stroke="none">
</g>
</g>
  <g id="id122:id122" transform="matrix(1.25,0,0,1.25,0.0,0.0)"><g transform="translate(0.000000,1278.000000) scale(0.100000,-0.100000)" fill="#7a7a7a" stroke="none">
</g>
</g>
  <g id="id123:id123" transform="matrix(1.25,0,0,1.25,0.0,0.0)"><g transform="translate(0.000000,1278.000000) scale(0.100000,-0.100000)" fill="#7b7b7b" stroke="none">
</g>
</g>
  <g id="id124:id124" transform="matrix(1.25,0,0,1.25,0.0,0.0)"><g transform="translate(0.000000,1278.000000) scale(0.100000,-0.100000)" fill="#7c7c7c" stroke="none">
</g>
</g>
  <g id="id125:id125" transform="matrix(1.25,0,0,1.25,0.0,0.0)"><g transform="translate(0.000000,1278.000000) scale(0.100000,-0.100000)" fill="#7d7d7d" stroke="none">
</g>
</g>
  <g id="id126:id126" transform="matrix(1.25,0,0,1.25,0.0,0.0)"><g transform="translate(0.000000,1278.000000) scale(0.100000,-0.100000)" fill="#7e7e7e" stroke="none">
</g>
</g>
  <g id="id127:id127" transform="matrix(1.25,0,0,1.25,0.0,0.0)"><g transform="translate(0.000000,1278.000000) scale(0.100000,-0.100000)" fill="#7f7f7f" stroke="none">
</g>
</g>
  <g id="id128:id128" transform="matrix(1.25,0,0,1.25,0.0,0.0)"><g transform="translate(0.000000,1278.000000) scale(0.100000,-0.100000)" fill="#808080" stroke="none">
</g>
</g>
  <g id="id129:id129" transform="matrix(1.25,0,0,1.25,0.0,0.0)"><g transform="translate(0.000000,1278.000000) scale(0.100000,-0.100000)" fill="#818181" stroke="none">
</g>
</g>
  <g id="id130:id130" transform="matrix(1.25,0,0,1.25,0.0,0.0)"><g transform="translate(0.000000,1278.000000) scale(0.100000,-0.100000)" fill="#828282" stroke="none">
</g>
</g>
  <g id="id131:id131" transform="matrix(1.25,0,0,1.25,0.0,0.0)"><g transform="translate(0.000000,1278.000000) scale(0.100000,-0.100000)" fill="#838383" stroke="none">
</g>
</g>
  <g id="id132:id132" transform="matrix(1.25,0,0,1.25,0.0,0.0)"><g transform="translate(0.000000,1278.000000) scale(0.100000,-0.100000)" fill="#848484" stroke="none">
</g>
</g>
  <g id="id133:id133" transform="matrix(1.25,0,0,1.25,0.0,0.0)"><g transform="translate(0.000000,1278.000000) scale(0.100000,-0.100000)" fill="#858585" stroke="none">
</g>
</g>
  <g id="id134:id134" transform="matrix(1.25,0,0,1.25,0.0,0.0)"><g transform="translate(0.000000,1278.000000) scale(0.100000,-0.100000)" fill="#868686" stroke="none">
</g>
</g>
  <g id="id135:id135" transform="matrix(1.25,0,0,1.25,0.0,0.0)"><g transform="translate(0.000000,1278.000000) scale(0.100000,-0.100000)" fill="#878787" stroke="none">
</g>
</g>
  <g id="id136:id136" transform="matrix(1.25,0,0,1.25,0.0,0.0)"><g transform="translate(0.000000,1278.000000) scale(0.100000,-0.100000)" fill="#888888" stroke="none">
</g>
</g>
  <g id="id137:id137" transform="matrix(1.25,0,0,1.25,0.0,0.0)"><g transform="translate(0.000000,1278.000000) scale(0.100000,-0.100000)" fill="#898989" stroke="none">
</g>
</g>
  <g id="id138:id138" transform="matrix(1.25,0,0,1.25,0.0,0.0)"><g transform="translate(0.000000,1278.000000) scale(0.100000,-0.100000)" fill="#8a8a8a" stroke="none">
</g>
</g>
  <g id="id139:id139" transform="matrix(1.25,0,0,1.25,0.0,0.0)"><g transform="translate(0.000000,1278.000000) scale(0.100000,-0.100000)" fill="#8b8b8b" stroke="none">
</g>
</g>
  <g id="id140:id140" transform="matrix(1.25,0,0,1.25,0.0,0.0)"><g transform="translate(0.000000,1278.000000) scale(0.100000,-0.100000)" fill="#8c8c8c" stroke="none">
</g>
</g>
  <g id="id141:id141" transform="matrix(1.25,0,0,1.25,0.0,0.0)"><g transform="translate(0.000000,1278.000000) scale(0.100000,-0.100000)" fill="#8d8d8d" stroke="none">
</g>
</g>
  <g id="id142:id142" transform="matrix(1.25,0,0,1.25,0.0,0.0)"><g transform="translate(0.000000,1278.000000) scale(0.100000,-0.100000)" fill="#8e8e8e" stroke="none">
</g>
</g>
  <g id="id143:id143" transform="matrix(1.25,0,0,1.25,0.0,0.0)"><g transform="translate(0.000000,1278.000000) scale(0.100000,-0.100000)" fill="#8f8f8f" stroke="none">
</g>
</g>
  <g id="id144:id144" transform="matrix(1.25,0,0,1.25,0.0,0.0)"><g transform="translate(0.000000,1278.000000) scale(0.100000,-0.100000)" fill="#909090" stroke="none">
</g>
</g>
  <g id="id145:id145" transform="matrix(1.25,0,0,1.25,0.0,0.0)"><g transform="translate(0.000000,1278.000000) scale(0.100000,-0.100000)" fill="#919191" stroke="none">
</g>
</g>
  <g id="id146:id146" transform="matrix(1.25,0,0,1.25,0.0,0.0)"><g transform="translate(0.000000,1278.000000) scale(0.100000,-0.100000)" fill="#929292" stroke="none">
</g>
</g>
  <g id="id147:id147" transform="matrix(1.25,0,0,1.25,0.0,0.0)"><g transform="translate(0.000000,1278.000000) scale(0.100000,-0.100000)" fill="#939393" stroke="none">
</g>
</g>
  <g id="id148:id148" transform="matrix(1.25,0,0,1.25,0.0,0.0)"><g transform="translate(0.000000,1278.000000) scale(0.100000,-0.100000)" fill="#949494" stroke="none">
</g>
</g>
  <g id="id149:id149" transform="matrix(1.25,0,0,1.25,0.0,0.0)"><g transform="translate(0.000000,1278.000000) scale(0.100000,-0.100000)" fill="#959595" stroke="none">
</g>
</g>
  <g id="id150:id150" transform="matrix(1.25,0,0,1.25,0.0,0.0)"><g transform="translate(0.000000,1278.000000) scale(0.100000,-0.100000)" fill="#969696" stroke="none">
</g>
</g>
  <g id="id151:id151" transform="matrix(1.25,0,0,1.25,0.0,0.0)"><g transform="translate(0.000000,1278.000000) scale(0.100000,-0.100000)" fill="#979797" stroke="none">
</g>
</g>
  <g id="id152:id152" transform="matrix(1.25,0,0,1.25,0.0,0.0)"><g transform="translate(0.000000,1278.000000) scale(0.100000,-0.100000)" fill="#989898" stroke="none">
</g>
</g>
  <g id="id153:id153" transform="matrix(1.25,0,0,1.25,0.0,0.0)"><g transform="translate(0.000000,1278.000000) scale(0.100000,-0.100000)" fill="#999999" stroke="none">
</g>
</g>
  <g id="id154:id154" transform="matrix(1.25,0,0,1.25,0.0,0.0)"><g transform="translate(0.000000,1278.000000) scale(0.100000,-0.100000)" fill="#9a9a9a" stroke="none">
</g>
</g>
  <g id="id155:id155" transform="matrix(1.25,0,0,1.25,0.0,0.0)"><g transform="translate(0.000000,1278.000000) scale(0.100000,-0.100000)" fill="#9b9b9b" stroke="none">
</g>
</g>
  <g id="id156:id156" transform="matrix(1.25,0,0,1.25,0.0,0.0)"><g transform="translate(0.000000,1278.000000) scale(0.100000,-0.100000)" fill="#9c9c9c" stroke="none">
</g>
</g>
  <g id="id157:id157" transform="matrix(1.25,0,0,1.25,0.0,0.0)"><g transform="translate(0.000000,1278.000000) scale(0.100000,-0.100000)" fill="#9d9d9d" stroke="none">
</g>
</g>
  <g id="id158:id158" transform="matrix(1.25,0,0,1.25,0.0,0.0)"><g transform="translate(0.000000,1278.000000) scale(0.100000,-0.100000)" fill="#9e9e9e" stroke="none">
</g>
</g>
  <g id="id159:id159" transform="matrix(1.25,0,0,1.25,0.0,0.0)"><g transform="translate(0.000000,1278.000000) scale(0.100000,-0.100000)" fill="#9f9f9f" stroke="none">
</g>
</g>
  <g id="id160:id160" transform="matrix(1.25,0,0,1.25,0.0,0.0)"><g transform="translate(0.000000,1278.000000) scale(0.100000,-0.100000)" fill="#a0a0a0" stroke="none">
</g>
</g>
  <g id="id161:id161" transform="matrix(1.25,0,0,1.25,0.0,0.0)"><g transform="translate(0.000000,1278.000000) scale(0.100000,-0.100000)" fill="#a1a1a1" stroke="none">
</g>
</g>
  <g id="id162:id162" transform="matrix(1.25,0,0,1.25,0.0,0.0)"><g transform="translate(0.000000,1278.000000) scale(0.100000,-0.100000)" fill="#a2a2a2" stroke="none">
</g>
</g>
  <g id="id163:id163" transform="matrix(1.25,0,0,1.25,0.0,0.0)"><g transform="translate(0.000000,1278.000000) scale(0.100000,-0.100000)" fill="#a3a3a3" stroke="none">
</g>
</g>
  <g id="id164:id164" transform="matrix(1.25,0,0,1.25,0.0,0.0)"><g transform="translate(0.000000,1278.000000) scale(0.100000,-0.100000)" fill="#a4a4a4" stroke="none">
</g>
</g>
  <g id="id165:id165" transform="matrix(1.25,0,0,1.25,0.0,0.0)"><g transform="translate(0.000000,1278.000000) scale(0.100000,-0.100000)" fill="#a5a5a5" stroke="none">
</g>
</g>
  <g id="id166:id166" transform="matrix(1.25,0,0,1.25,0.0,0.0)"><g transform="translate(0.000000,1278.000000) scale(0.100000,-0.100000)" fill="#a6a6a6" stroke="none">
</g>
</g>
  <g id="id167:id167" transform="matrix(1.25,0,0,1.25,0.0,0.0)"><g transform="translate(0.000000,1278.000000) scale(0.100000,-0.100000)" fill="#a7a7a7" stroke="none">
</g>
</g>
  <g id="id168:id168" transform="matrix(1.25,0,0,1.25,0.0,0.0)"><g transform="translate(0.000000,1278.000000) scale(0.100000,-0.100000)" fill="#a8a8a8" stroke="none">
</g>
</g>
  <g id="id169:id169" transform="matrix(1.25,0,0,1.25,0.0,0.0)"><g transform="translate(0.000000,1278.000000) scale(0.100000,-0.100000)" fill="#a9a9a9" stroke="none">
</g>
</g>
  <g id="id170:id170" transform="matrix(1.25,0,0,1.25,0.0,0.0)"><g transform="translate(0.000000,1278.000000) scale(0.100000,-0.100000)" fill="#aaaaaa" stroke="none">
</g>
</g>
  <g id="id171:id171" transform="matrix(1.25,0,0,1.25,0.0,0.0)"><g transform="translate(0.000000,1278.000000) scale(0.100000,-0.100000)" fill="#ababab" stroke="none">
</g>
</g>
  <g id="id172:id172" transform="matrix(1.25,0,0,1.25,0.0,0.0)"><g transform="translate(0.000000,1278.000000) scale(0.100000,-0.100000)" fill="#acacac" stroke="none">
</g>
</g>
  <g id="id173:id173" transform="matrix(1.25,0,0,1.25,0.0,0.0)"><g transform="translate(0.000000,1278.000000) scale(0.100000,-0.100000)" fill="#adadad" stroke="none">
</g>
</g>
  <g id="id174:id174" transform="matrix(1.25,0,0,1.25,0.0,0.0)"><g transform="translate(0.000000,1278.000000) scale(0.100000,-0.100000)" fill="#aeaeae" stroke="none">
</g>
</g>
  <g id="id175:id175" transform="matrix(1.25,0,0,1.25,0.0,0.0)"><g transform="translate(0.000000,1278.000000) scale(0.100000,-0.100000)" fill="#afafaf" stroke="none">
</g>
</g>
  <g id="id176:id176" transform="matrix(1.25,0,0,1.25,0.0,0.0)"><g transform="translate(0.000000,1278.000000) scale(0.100000,-0.100000)" fill="#b0b0b0" stroke="none">
</g>
</g>
  <g id="id177:id177" transform="matrix(1.25,0,0,1.25,0.0,0.0)"><g transform="translate(0.000000,1278.000000) scale(0.100000,-0.100000)" fill="#b1b1b1" stroke="none">
</g>
</g>
  <g id="id178:id178" transform="matrix(1.25,0,0,1.25,0.0,0.0)"><g transform="translate(0.000000,1278.000000) scale(0.100000,-0.100000)" fill="#b2b2b2" stroke="none">
</g>
</g>
  <g id="id179:id179" transform="matrix(1.25,0,0,1.25,0.0,0.0)"><g transform="translate(0.000000,1278.000000) scale(0.100000,-0.100000)" fill="#b3b3b3" stroke="none">
</g>
</g>
  <g id="id180:id180" transform="matrix(1.25,0,0,1.25,0.0,0.0)"><g transform="translate(0.000000,1278.000000) scale(0.100000,-0.100000)" fill="#b4b4b4" stroke="none">
</g>
</g>
  <g id="id181:id181" transform="matrix(1.25,0,0,1.25,0.0,0.0)"><g transform="translate(0.000000,1278.000000) scale(0.100000,-0.100000)" fill="#b5b5b5" stroke="none">
</g>
</g>
  <g id="id182:id182" transform="matrix(1.25,0,0,1.25,0.0,0.0)"><g transform="translate(0.000000,1278.000000) scale(0.100000,-0.100000)" fill="#b6b6b6" stroke="none">
</g>
</g>
  <g id="id183:id183" transform="matrix(1.25,0,0,1.25,0.0,0.0)"><g transform="translate(0.000000,1278.000000) scale(0.100000,-0.100000)" fill="#b7b7b7" stroke="none">
</g>
</g>
  <g id="id184:id184" transform="matrix(1.25,0,0,1.25,0.0,0.0)"><g transform="translate(0.000000,1278.000000) scale(0.100000,-0.100000)" fill="#b8b8b8" stroke="none">
</g>
</g>
  <g id="id185:id185" transform="matrix(1.25,0,0,1.25,0.0,0.0)"><g transform="translate(0.000000,1278.000000) scale(0.100000,-0.100000)" fill="#b9b9b9" stroke="none">
</g>
</g>
  <g id="id186:id186" transform="matrix(1.25,0,0,1.25,0.0,0.0)"><g transform="translate(0.000000,1278.000000) scale(0.100000,-0.100000)" fill="#bababa" stroke="none">
</g>
</g>
  <g id="id187:id187" transform="matrix(1.25,0,0,1.25,0.0,0.0)"><g transform="translate(0.000000,1278.000000) scale(0.100000,-0.100000)" fill="#bbbbbb" stroke="none">
</g>
</g>
  <g id="id188:id188" transform="matrix(1.25,0,0,1.25,0.0,0.0)"><g transform="translate(0.000000,1278.000000) scale(0.100000,-0.100000)" fill="#bcbcbc" stroke="none">
</g>
</g>
  <g id="id189:id189" transform="matrix(1.25,0,0,1.25,0.0,0.0)"><g transform="translate(0.000000,1278.000000) scale(0.100000,-0.100000)" fill="#bdbdbd" stroke="none">
</g>
</g>
  <g id="id190:id190" transform="matrix(1.25,0,0,1.25,0.0,0.0)"><g transform="translate(0.000000,1278.000000) scale(0.100000,-0.100000)" fill="#bebebe" stroke="none">
</g>
</g>
  <g id="id191:id191" transform="matrix(1.25,0,0,1.25,0.0,0.0)"><g transform="translate(0.000000,1278.000000) scale(0.100000,-0.100000)" fill="#bfbfbf" stroke="none">
</g>
</g>
  <g id="id192:id192" transform="matrix(1.25,0,0,1.25,0.0,0.0)"><g transform="translate(0.000000,1278.000000) scale(0.100000,-0.100000)" fill="#c0c0c0" stroke="none">
</g>
</g>
  <g id="id193:id193" transform="matrix(1.25,0,0,1.25,0.0,0.0)"><g transform="translate(0.000000,1278.000000) scale(0.100000,-0.100000)" fill="#c1c1c1" stroke="none">
</g>
</g>
  <g id="id194:id194" transform="matrix(1.25,0,0,1.25,0.0,0.0)"><g transform="translate(0.000000,1278.000000) scale(0.100000,-0.100000)" fill="#c2c2c2" stroke="none">
</g>
</g>
  <g id="id195:id195" transform="matrix(1.25,0,0,1.25,0.0,0.0)"><g transform="translate(0.000000,1278.000000) scale(0.100000,-0.100000)" fill="#c3c3c3" stroke="none">
</g>
</g>
  <g id="id196:id196" transform="matrix(1.25,0,0,1.25,0.0,0.0)"><g transform="translate(0.000000,1278.000000) scale(0.100000,-0.100000)" fill="#c4c4c4" stroke="none">
</g>
</g>
  <g id="id197:id197" transform="matrix(1.25,0,0,1.25,0.0,0.0)"><g transform="translate(0.000000,1278.000000) scale(0.100000,-0.100000)" fill="#c5c5c5" stroke="none">
</g>
</g>
  <g id="id198:id198" transform="matrix(1.25,0,0,1.25,0.0,0.0)"><g transform="translate(0.000000,1278.000000) scale(0.100000,-0.100000)" fill="#c6c6c6" stroke="none">
</g>
</g>
  <g id="id199:id199" transform="matrix(1.25,0,0,1.25,0.0,0.0)"><g transform="translate(0.000000,1278.000000) scale(0.100000,-0.100000)" fill="#c7c7c7" stroke="none">
</g>
</g>
  <g id="id200:id200" transform="matrix(1.25,0,0,1.25,0.0,0.0)"><g transform="translate(0.000000,1278.000000) scale(0.100000,-0.100000)" fill="#c8c8c8" stroke="none">
</g>
</g>
  <g id="id201:id201" transform="matrix(1.25,0,0,1.25,0.0,0.0)"><g transform="translate(0.000000,1278.000000) scale(0.100000,-0.100000)" fill="#c9c9c9" stroke="none">
</g>
</g>
  <g id="id202:id202" transform="matrix(1.25,0,0,1.25,0.0,0.0)"><g transform="translate(0.000000,1278.000000) scale(0.100000,-0.100000)" fill="#cacaca" stroke="none">
</g>
</g>
  <g id="id203:id203" transform="matrix(1.25,0,0,1.25,0.0,0.0)"><g transform="translate(0.000000,1278.000000) scale(0.100000,-0.100000)" fill="#cbcbcb" stroke="none">
</g>
</g>
  <g id="id204:id204" transform="matrix(1.25,0,0,1.25,0.0,0.0)"><g transform="translate(0.000000,1278.000000) scale(0.100000,-0.100000)" fill="#cccccc" stroke="none">
</g>
</g>
  <g id="id205:id205" transform="matrix(1.25,0,0,1.25,0.0,0.0)"><g transform="translate(0.000000,1278.000000) scale(0.100000,-0.100000)" fill="#cdcdcd" stroke="none">
</g>
</g>
  <g id="id206:id206" transform="matrix(1.25,0,0,1.25,0.0,0.0)"><g transform="translate(0.000000,1278.000000) scale(0.100000,-0.100000)" fill="#cecece" stroke="none">
</g>
</g>
  <g id="id207:id207" transform="matrix(1.25,0,0,1.25,0.0,0.0)"><g transform="translate(0.000000,1278.000000) scale(0.100000,-0.100000)" fill="#cfcfcf" stroke="none">
</g>
</g>
  <g id="id208:id208" transform="matrix(1.25,0,0,1.25,0.0,0.0)"><g transform="translate(0.000000,1278.000000) scale(0.100000,-0.100000)" fill="#d0d0d0" stroke="none">
</g>
</g>
  <g id="id209:id209" transform="matrix(1.25,0,0,1.25,0.0,0.0)"><g transform="translate(0.000000,1278.000000) scale(0.100000,-0.100000)" fill="#d1d1d1" stroke="none">
</g>
</g>
  <g id="id210:id210" transform="matrix(1.25,0,0,1.25,0.0,0.0)"><g transform="translate(0.000000,1278.000000) scale(0.100000,-0.100000)" fill="#d2d2d2" stroke="none">
</g>
</g>
  <g id="id211:id211" transform="matrix(1.25,0,0,1.25,0.0,0.0)"><g transform="translate(0.000000,1278.000000) scale(0.100000,-0.100000)" fill="#d3d3d3" stroke="none">
</g>
</g>
  <g id="id212:id212" transform="matrix(1.25,0,0,1.25,0.0,0.0)"><g transform="translate(0.000000,1278.000000) scale(0.100000,-0.100000)" fill="#d4d4d4" stroke="none">
</g>
</g>
  <g id="id213:id213" transform="matrix(1.25,0,0,1.25,0.0,0.0)"><g transform="translate(0.000000,1278.000000) scale(0.100000,-0.100000)" fill="#d5d5d5" stroke="none">
</g>
</g>
  <g id="id214:id214" transform="matrix(1.25,0,0,1.25,0.0,0.0)"><g transform="translate(0.000000,1278.000000) scale(0.100000,-0.100000)" fill="#d6d6d6" stroke="none">
</g>
</g>
  <g id="id215:id215" transform="matrix(1.25,0,0,1.25,0.0,0.0)"><g transform="translate(0.000000,1278.000000) scale(0.100000,-0.100000)" fill="#d7d7d7" stroke="none">
</g>
</g>
  <g id="id216:id216" transform="matrix(1.25,0,0,1.25,0.0,0.0)"><g transform="translate(0.000000,1278.000000) scale(0.100000,-0.100000)" fill="#d8d8d8" stroke="none">
</g>
</g>
  <g id="id217:id217" transform="matrix(1.25,0,0,1.25,0.0,0.0)"><g transform="translate(0.000000,1278.000000) scale(0.100000,-0.100000)" fill="#d9d9d9" stroke="none">
</g>
</g>
  <g id="id218:id218" transform="matrix(1.25,0,0,1.25,0.0,0.0)"><g transform="translate(0.000000,1278.000000) scale(0.100000,-0.100000)" fill="#dadada" stroke="none">
</g>
</g>
  <g id="id219:id219" transform="matrix(1.25,0,0,1.25,0.0,0.0)"><g transform="translate(0.000000,1278.000000) scale(0.100000,-0.100000)" fill="#dbdbdb" stroke="none">
</g>
</g>
  <g id="id220:id220" transform="matrix(1.25,0,0,1.25,0.0,0.0)"><g transform="translate(0.000000,1278.000000) scale(0.100000,-0.100000)" fill="#dcdcdc" stroke="none">
</g>
</g>
  <g id="id221:id221" transform="matrix(1.25,0,0,1.25,0.0,0.0)"><g transform="translate(0.000000,1278.000000) scale(0.100000,-0.100000)" fill="#dddddd" stroke="none">
</g>
</g>
  <g id="id222:id222" transform="matrix(1.25,0,0,1.25,0.0,0.0)"><g transform="translate(0.000000,1278.000000) scale(0.100000,-0.100000)" fill="#dedede" stroke="none">
</g>
</g>
  <g id="id223:id223" transform="matrix(1.25,0,0,1.25,0.0,0.0)"><g transform="translate(0.000000,1278.000000) scale(0.100000,-0.100000)" fill="#dfdfdf" stroke="none">
</g>
</g>
  <g id="id224:id224" transform="matrix(1.25,0,0,1.25,0.0,0.0)"><g transform="translate(0.000000,1278.000000) scale(0.100000,-0.100000)" fill="#e0e0e0" stroke="none">
</g>
</g>
  <g id="id225:id225" transform="matrix(1.25,0,0,1.25,0.0,0.0)"><g transform="translate(0.000000,1278.000000) scale(0.100000,-0.100000)" fill="#e1e1e1" stroke="none">
</g>
</g>
  <g id="id226:id226" transform="matrix(1.25,0,0,1.25,0.0,0.0)"><g transform="translate(0.000000,1278.000000) scale(0.100000,-0.100000)" fill="#e2e2e2" stroke="none">
</g>
</g>
  <g id="id227:id227" transform="matrix(1.25,0,0,1.25,0.0,0.0)"><g transform="translate(0.000000,1278.000000) scale(0.100000,-0.100000)" fill="#e3e3e3" stroke="none">
</g>
</g>
  <g id="id228:id228" transform="matrix(1.25,0,0,1.25,0.0,0.0)"><g transform="translate(0.000000,1278.000000) scale(0.100000,-0.100000)" fill="#e4e4e4" stroke="none">
</g>
</g>
  <g id="id229:id229" transform="matrix(1.25,0,0,1.25,0.0,0.0)"><g transform="translate(0.000000,1278.000000) scale(0.100000,-0.100000)" fill="#e5e5e5" stroke="none">
</g>
</g>
  <g id="id230:id230" transform="matrix(1.25,0,0,1.25,0.0,0.0)"><g transform="translate(0.000000,1278.000000) scale(0.100000,-0.100000)" fill="#e6e6e6" stroke="none">
</g>
</g>
  <g id="id231:id231" transform="matrix(1.25,0,0,1.25,0.0,0.0)"><g transform="translate(0.000000,1278.000000) scale(0.100000,-0.100000)" fill="#e7e7e7" stroke="none">
</g>
</g>
  <g id="id232:id232" transform="matrix(1.25,0,0,1.25,0.0,0.0)"><g transform="translate(0.000000,1278.000000) scale(0.100000,-0.100000)" fill="#e8e8e8" stroke="none">
</g>
</g>
  <g id="id233:id233" transform="matrix(1.25,0,0,1.25,0.0,0.0)"><g transform="translate(0.000000,1278.000000) scale(0.100000,-0.100000)" fill="#e9e9e9" stroke="none">
</g>
</g>
  <g id="id234:id234" transform="matrix(1.25,0,0,1.25,0.0,0.0)"><g transform="translate(0.000000,1278.000000) scale(0.100000,-0.100000)" fill="#eaeaea" stroke="none">
</g>
</g>
  <g id="id235:id235" transform="matrix(1.25,0,0,1.25,0.0,0.0)"><g transform="translate(0.000000,1278.000000) scale(0.100000,-0.100000)" fill="#ebebeb" stroke="none">
</g>
</g>
  <g id="id236:id236" transform="matrix(1.25,0,0,1.25,0.0,0.0)"><g transform="translate(0.000000,1278.000000) scale(0.100000,-0.100000)" fill="#ececec" stroke="none">
</g>
</g>
  <g id="id237:id237" transform="matrix(1.25,0,0,1.25,0.0,0.0)"><g transform="translate(0.000000,1278.000000) scale(0.100000,-0.100000)" fill="#ededed" stroke="none">
<path d="M10280 7784 l-2305 -1645 0 -549 0 -549 2305 -1611 2305 -1611 3 1907 c1 1048 1 2760 0 3804 l-3 1898 -2305 -1644z"/>
</g>
</g>
  <g id="id238:id238" transform="matrix(1.25,0,0,1.25,0.0,0.0)"><g transform="translate(0.000000,1278.000000) scale(0.100000,-0.100000)" fill="#eeeeee" stroke="none">
</g>
</g>
  <g id="id239:id239" transform="matrix(1.25,0,0,1.25,0.0,0.0)"><g transform="translate(0.000000,1278.000000) scale(0.100000,-0.100000)" fill="#efefef" stroke="none">
</g>
</g>
  <g id="id240:id240" transform="matrix(1.25,0,0,1.25,0.0,0.0)"><g transform="translate(0.000000,1278.000000) scale(0.100000,-0.100000)" fill="#f0f0f0" stroke="none">
</g>
</g>
  <g id="id241:id241" transform="matrix(1.25,0,0,1.25,0.0,0.0)"><g transform="translate(0.000000,1278.000000) scale(0.100000,-0.100000)" fill="#f1f1f1" stroke="none">
</g>
</g>
  <g id="id242:id242" transform="matrix(1.25,0,0,1.25,0.0,0.0)"><g transform="translate(0.000000,1278.000000) scale(0.100000,-0.100000)" fill="#f2f2f2" stroke="none">
</g>
</g>
  <g id="id243:id243" transform="matrix(1.25,0,0,1.25,0.0,0.0)"><g transform="translate(0.000000,1278.000000) scale(0.100000,-0.100000)" fill="#f3f3f3" stroke="none">
</g>
</g>
  <g id="id244:id244" transform="matrix(1.25,0,0,1.25,0.0,0.0)"><g transform="translate(0.000000,1278.000000) scale(0.100000,-0.100000)" fill="#f4f4f4" stroke="none">
</g>
</g>
  <g id="id245:id245" transform="matrix(1.25,0,0,1.25,0.0,0.0)"><g transform="translate(0.000000,1278.000000) scale(0.100000,-0.100000)" fill="#f5f5f5" stroke="none">
</g>
</g>
  <g id="id246:id246" transform="matrix(1.25,0,0,1.25,0.0,0.0)"><g transform="translate(0.000000,1278.000000) scale(0.100000,-0.100000)" fill="#f6f6f6" stroke="none">
</g>
</g>
  <g id="id247:id247" transform="matrix(1.25,0,0,1.25,0.0,0.0)"><g transform="translate(0.000000,1278.000000) scale(0.100000,-0.100000)" fill="#f7f7f7" stroke="none">
</g>
</g>
  <g id="id248:id248" transform="matrix(1.25,0,0,1.25,0.0,0.0)"><g transform="translate(0.000000,1278.000000) scale(0.100000,-0.100000)" fill="#f8f8f8" stroke="none">
</g>
</g>
  <g id="id249:id249" transform="matrix(1.25,0,0,1.25,0.0,0.0)"><g transform="translate(0.000000,1278.000000) scale(0.100000,-0.100000)" fill="#f9f9f9" stroke="none">
</g>
</g>
  <g id="id250:id250" transform="matrix(1.25,0,0,1.25,0.0,0.0)"><g transform="translate(0.000000,1278.000000) scale(0.100000,-0.100000)" fill="#fafafa" stroke="none">
</g>
</g>
  <g id="id251:id251" transform="matrix(1.25,0,0,1.25,0.0,0.0)"><g transform="translate(0.000000,1278.000000) scale(0.100000,-0.100000)" fill="#fbfbfb" stroke="none">
</g>
</g>
  <g id="id252:id252" transform="matrix(1.25,0,0,1.25,0.0,0.0)"><g transform="translate(0.000000,1278.000000) scale(0.100000,-0.100000)" fill="#fcfcfc" stroke="none">
</g>
</g>
  <g id="id253:id253" transform="matrix(1.25,0,0,1.25,0.0,0.0)"><g transform="translate(0.000000,1278.000000) scale(0.100000,-0.100000)" fill="#fdfdfd" stroke="none">
</g>
</g>
  <g id="id254:id254" transform="matrix(1.25,0,0,1.25,0.0,0.0)"><g transform="translate(0.000000,1278.000000) scale(0.100000,-0.100000)" fill="#fefefe" stroke="none">
</g>
</g>
  <g id="id255:id255" transform="matrix(1.25,0,0,1.25,0.0,0.0)"><g transform="translate(0.000000,1278.000000) scale(0.100000,-0.100000)" fill="#ffffff" stroke="none">
<path d="M0 6390 l0 -6390 6385 0 6385 0 0 6390 0 6390 -6385 0 -6385 0 0 -6390z m2939 4885 c454 -66 805 -265 1127 -640 38 -44 70 -79 71 -78 2 2 43 49 93 106 212 246 419 397 695 505 207 82 469 132 690 132 138 0 417 -39 531 -75 351 -109 634 -292 847 -549 131 -158 189 -246 267 -408 129 -268 179 -468 187 -755 6 -203 -2 -281 -48 -470 -105 -432 -304 -744 -664 -1039 -213 -175 -562 -318 -902 -369 -394 -59 -881 61 -1249 306 -112 76 -318 266 -405 374 l-43 54 -30 -37 c-17 -20 -77 -86 -135 -146 -294 -303 -656 -484 -1098 -551 -433 -64 -946 76 -1331 365 -126 94 -336 308 -409 415 -71 105 -161 281 -203 397 -107 293 -138 615 -92 933 34 227 71 344 177 556 194 385 525 690 937 863 148 62 230 84 408 111 213 31 364 31 579 0z m9641 -1552 c69 -97 128 -182 132 -188 5 -8 -16 -28 -57 -56 l-65 -44 0 -3810 0 -3810 65 -44 65 -44 -18 -27 c-64 -100 -238 -349 -243 -350 -3 0 -1014 706 -2245 1570 -1834 1285 -2240 1566 -2242 1550 -3 -19 -12 -20 -260 -20 l-257 1 -255 204 -255 205 -282 0 -283 0 0 -385 0 -385 -2555 0 -2555 0 0 1535 0 1535 2555 0 2555 0 0 -385 0 -385 276 0 276 0 255 180 256 180 263 0 263 0 3 -24 c3 -22 220 131 2237 1575 1229 879 2237 1599 2240 1599 3 0 62 -80 131 -177z"/>
</g>
</g>
</svg>
