<?xml version="1.0" encoding="UTF-8" standalone="no"?>
<!-- Created with Inkscape (http://www.inkscape.org/) -->

<svg
   xmlns:dc="http://purl.org/dc/elements/1.1/"
   xmlns:cc="http://creativecommons.org/ns#"
   xmlns:rdf="http://www.w3.org/1999/02/22-rdf-syntax-ns#"
   xmlns:svg="http://www.w3.org/2000/svg"
   xmlns="http://www.w3.org/2000/svg"
   xmlns:inkscape="http://www.inkscape.org/namespaces/inkscape"
   version="1.1"
   width="100%"
   height="100%"
   viewBox="0 0 359.59375 359.59375"
   id="svg87049"
   xml:space="preserve"
   style="fill-rule:evenodd;stroke-linecap:round;stroke-linejoin:round"><metadata
     id="metadata87712"><rdf:RDF><cc:Work
         rdf:about=""><dc:format>image/svg+xml</dc:format><dc:type
           rdf:resource="http://purl.org/dc/dcmitype/StillImage" /></cc:Work></rdf:RDF></metadata><defs
     id="defs87051"><clipPath
       id="clipId0"><path
         d="M 0,600 800,600 800,0 0,0 z"
         inkscape:connector-curvature="0"
         id="path87054" /></clipPath></defs><path
     d="m 0,0 c 0,119.86458 0,239.72917 0,359.59375 119.86458,0 239.72917,0 359.59375,0 0,-119.86458 0,-239.72917 0,-359.59375 C 239.72917,0 119.86458,0 0,0 z m 158.21875,79.09375 c 44.32128,-0.9498 84.64512,37.14029 86.15301,81.43194 0.83637,15.58788 -2.63351,31.36621 -9.87176,45.19306 20.02409,-19.99239 31.60416,-47.98369 31.5937,-76.28125 21.57292,0 43.14583,0 64.71875,0 0.71828,62.08086 -41.01577,121.66573 -99.71752,141.95141 C 169.14924,294.97648 93.51328,271.12335 56.24995,216.25 38.61519,190.9803 28.75791,160.27951 28.7812,129.4375 c 7.1875,0 14.375,0 21.5625,0 -0.0445,28.16695 11.5727,56.31379 31.5936,76.28125 -21.91052,-39.15827 -6.35008,-93.52938 33.11562,-114.96773 13.05525,-7.52858 28.08006,-11.68113 43.16583,-11.65727 z m 0,25.1875 c -35.30167,-1.00132 -65.90113,33.24263 -60.6875,68.25 3.07232,35.94376 42.43535,62.63394 76.96875,51.75 35.67655,-8.57478 55.67519,-52.60484 38.89233,-85.16511 -9.79134,-20.95159 -32.03752,-35.02487 -55.17358,-34.83489 z"
     inkscape:connector-curvature="0"
     id="path87060"
     style="fill:#ffffb2;stroke:none" /><g
     transform="translate(-221.03125,-119.875)"
     clip-path="url(#clipId0)"
     id="g87056"
     style="fill:none;stroke:#000000;stroke-width:0.1" /><path
     d="m 264.90625,144.90625 c 0.014,-0.0949 0.0488,-0.18627 0.0625,-0.28125 0.0751,-0.51931 0.0885,-1.04215 0.15625,-1.5625 l -0.21875,1.84375 z"
     inkscape:connector-curvature="0"
     id="path4057"
     style="fill:#000000;stroke:none" /><path
     d="m 258.9375,167.875 c 0.13978,-0.36822 0.30176,-0.72401 0.4375,-1.09375 0.12132,-0.33044 0.22566,-0.66839 0.34375,-1 l -0.78125,2.09375 z"
     inkscape:connector-curvature="0"
     id="path4055"
     style="fill:#000000;stroke:none" /><path
     d="m 255.8125,175.1875 c 0.21677,-0.46358 0.47747,-0.90837 0.6875,-1.375 0.1346,-0.29905 0.24317,-0.60597 0.375,-0.90625 l -1.0625,2.28125 z"
     inkscape:connector-curvature="0"
     id="path4053"
     style="fill:#000000;stroke:none" /><path
     d="m 252.25,182.15625 c 0.28379,-0.50496 0.59975,-0.99049 0.875,-1.5 0.11506,-0.21298 0.19894,-0.44249 0.3125,-0.65625 l -1.1875,2.15625 z"
     inkscape:connector-curvature="0"
     id="path4051"
     style="fill:#000000;stroke:none" /><path
     d="m 241.9375,197.34375 c 0.12538,-0.15457 0.28175,-0.2822 0.40625,-0.4375 0.15892,-0.19823 0.28002,-0.4256 0.4375,-0.625 l -0.84375,1.0625 z"
     inkscape:connector-curvature="0"
     id="path4049"
     style="fill:#000000;stroke:none" /><path
     d="m 73.21875,195.75 c 0.23842,0.30584 0.44566,0.63429 0.6875,0.9375 0.18375,0.23038 0.40804,0.42741 0.59375,0.65625 L 73.21875,195.75 z"
     inkscape:connector-curvature="0"
     id="path4041"
     style="fill:#000000;stroke:none" /><path
     d="m 67.5,187.65625 c 0.12787,0.2001 0.21455,0.42575 0.34375,0.625 0.21548,0.33231 0.46833,0.63885 0.6875,0.96875 L 67.5,187.65625 z"
     inkscape:connector-curvature="0"
     id="path4039"
     style="fill:#000000;stroke:none" /><path
     d="m 52.28125,149.5 c 0.0359,0.18678 0.0569,0.37591 0.0937,0.5625 0.0377,0.19088 0.11752,0.37182 0.15625,0.5625 l -0.25,-1.125 z"
     inkscape:connector-curvature="0"
     id="path4037"
     style="fill:#000000;stroke:none" /><path
     d="m 50.8125,138.875 c 0.028,0.31101 4.9e-4,0.62676 0.0312,0.9375 0.0613,0.61929 0.20914,1.22568 0.28125,1.84375 l -0.3125,-2.78125 z"
     inkscape:connector-curvature="0"
     id="path4035"
     style="fill:#000000;stroke:none" /><g
     transform="translate(-221.03125,-119.875)"
     clip-path="url(#clipId0)"
     id="g87226"
     style="fill:#ffffb2;stroke:none" /><g
     transform="translate(-221.03125,-119.875)"
     clip-path="url(#clipId0)"
     id="g87384"
     style="fill:none;stroke:#000000;stroke-width:0.25" /><g
     transform="translate(-221.03125,-119.875)"
     clip-path="url(#clipId0)"
     id="g87388"
     style="fill:#000000;stroke:none" /><g
     transform="translate(-221.03125,-119.875)"
     clip-path="url(#clipId0)"
     id="g87546"
     style="fill:#ffffb2;stroke:none" /><polyline
     style="fill:none;stroke:#000000;stroke-width:0.25"
     id="polyline87706"
     points="379.248,224.15 379.248,224.15 "
     transform="translate(-221.03125,-119.875)" /><path
     d="M 174.09057,280.18346 C 143.05033,278.53027 113.22122,267.91223 88.95682,249.87904 78.37205,242.01248 68.2935,232.07253 60.5473,221.86019 42.9764,198.69528 32.3342,171.65821 29.64797,143.35881 c -0.30237,-3.18544 -0.54976,-7.58543 -0.54976,-9.77773 l 0,-3.98601 10.51626,0 10.51626,0 0.23752,5.021 c 1.13017,23.8904 10.56628,47.39899 26.34134,65.62534 3.05936,3.53475 5.24124,5.77567 5.24124,5.38308 0,-0.11561 -0.77599,-1.77049 -1.72441,-3.67752 -6.29499,-12.65749 -9.13456,-28.32255 -7.78194,-42.93061 2.64597,-28.57603 17.78129,-53.47888 40.6894,-66.94816 11.3782,-6.69005 22.43624,-10.54336 35.0589,-12.21672 5.11145,-0.67761 17.64113,-0.57984 22.55045,0.17597 17.52312,2.69773 33.7111,10.77786 46.88662,23.40316 14.02674,13.44097 23.22197,30.90259 25.83866,49.06726 2.40533,16.69748 -0.66101,36.32909 -7.93727,50.81656 -0.55688,1.10878 -1.01251,2.12741 -1.01251,2.26361 0,0.8714 7.63354,-7.8954 11.13294,-12.78572 12.23376,-17.09632 19.42425,-37.61692 20.4469,-58.35243 l 0.23894,-4.84482 32.1865,0 32.1865,0 -0.004,2.55454 c -0.005,3.73406 -0.63095,12.16684 -1.24868,16.82475 -6.00071,45.24746 -33.35416,86.71751 -72.74147,110.28202 -15.74111,9.41755 -36.8642,16.91932 -54.96672,19.5212 -7.66708,1.102 -20.81635,1.77035 -27.65954,1.40588 l 0,0 z m -9.32806,-53.70085 c 3.43891,-0.41613 8.92351,-1.70997 13.70084,-3.23211 22.37444,-7.12885 39.05682,-29.46557 40.86863,-54.72067 0.77111,-10.74863 -1.35708,-20.80581 -6.52406,-30.83069 -3.04871,-5.91506 -6.22591,-10.29689 -10.88164,-15.00742 -9.16691,-9.27481 -20.15318,-15.15093 -32.99728,-17.64893 -5.11353,-0.99451 -18.18551,-0.9013 -23.07856,0.16456 -9.37084,2.04127 -18.64191,6.56245 -25.84572,12.60407 -2.95729,2.48019 -7.60473,7.17407 -9.74831,9.84572 -6.31438,7.86995 -10.91881,17.94968 -12.62039,27.62782 -1.62582,9.24721 -0.55955,21.29487 2.71589,30.68624 1.4399,4.12851 4.76814,10.44869 7.59692,14.42619 2.81233,3.95438 9.00152,10.31086 12.94416,13.29403 9.29964,7.03648 20.41433,11.56595 31.70418,12.9201 2.36626,0.28382 9.36759,0.20963 12.16534,-0.12891 l 0,0 z"
     inkscape:connector-curvature="0"
     id="path3009"
     style="fill:#000000;fill-opacity:1;fill-rule:nonzero;stroke:none" /></svg>