<?xml version="1.0" standalone="no"?>
<!DOCTYPE svg PUBLIC "-//W3C//DTD SVG 1.1//EN"
 "http://www.w3.org/Graphics/SVG/1.1/DTD/svg11.dtd">
<!-- Created with svg_stack (http://github.com/astraw/svg_stack) -->
<svg xmlns:sodipodi="http://sodipodi.sourceforge.net/DTD/sodipodi-0.dtd" xmlns="http://www.w3.org/2000/svg" version="1.1" width="823.75" height="1583.75">
  <defs/>
  <g id="id0:id0" transform="matrix(1.25,0,0,1.25,0.0,0.0)"><g transform="translate(0.000000,1267.000000) scale(0.100000,-0.100000)" fill="#00ff00" stroke="none">
<path d="M1180 11598 c0 -654 4 -1116 10 -1183 40 -428 171 -792 388 -1075 236 -307 311 -379 599 -566 121 -79 173 -106 302 -156 86 -33 190 -71 231 -85 85 -27 259 -63 307 -63 17 0 34 -4 37 -8 5 -8 -550 -5011 -556 -5017 -2 -1 -561 1000 -1243 2225 -682 1226 -1241 2227 -1243 2225 -5 -4 1084 -4108 1619 -6105 253 -943 464 -1732 470 -1752 l10 -38 1184 0 1184 0 10 38 c214 811 1033 3891 1487 5591 333 1245 604 2265 602 2266 -2 2 -563 -999 -1248 -2225 -1199 -2146 -1245 -2226 -1253 -2191 -4 20 -118 1051 -252 2291 -135 1240 -257 2351 -271 2468 -13 117 -22 217 -19 223 4 5 19 9 34 9 61 0 243 41 354 80 254 89 328 124 480 223 193 127 269 187 397 317 192 196 349 442 465 726 39 97 107 362 124 487 7 53 11 456 11 1223 l0 1144 -2110 0 -2110 0 0 -1072z"/>
</g>
</g>
  <g id="id1:id1" transform="matrix(1.25,0,0,1.25,0.0,0.0)"><g transform="translate(0.000000,1267.000000) scale(0.100000,-0.100000)" fill="#ffffff" stroke="none">
</g>
</g>
</svg>
