<?xml version="1.0" standalone="no"?>
<!DOCTYPE svg PUBLIC "-//W3C//DTD SVG 1.1//EN"
 "http://www.w3.org/Graphics/SVG/1.1/DTD/svg11.dtd">
<!-- Created with svg_stack (http://github.com/astraw/svg_stack) -->
<svg xmlns:sodipodi="http://sodipodi.sourceforge.net/DTD/sodipodi-0.dtd" xmlns="http://www.w3.org/2000/svg" version="1.1" width="1520.0" height="1575.0">
  <defs/>
  <g id="id0:id0" transform="matrix(1.25,0,0,1.25,0.0,0.0)"><g transform="translate(0.000000,1260.000000) scale(0.100000,-0.100000)" fill="#00ff00" stroke="none">
<path d="M432 12188 l-432 -412 44 -46 c448 -462 5196 -5424 5196 -5430 0 -5 -4776 -4997 -5196 -5430 l-44 -46 430 -409 c237 -226 435 -410 440 -410 5 0 1179 1220 2607 2710 1428 1491 2600 2710 2603 2710 3 0 1175 -1219 2603 -2710 1428 -1490 2602 -2710 2607 -2710 5 0 203 184 440 410 l430 409 -44 46 c-420 433 -5196 5425 -5196 5430 0 6 4748 4968 5196 5430 l44 46 -430 409 c-237 226 -435 410 -440 410 -5 0 -1178 -1219 -2607 -2710 -1429 -1490 -2600 -2710 -2603 -2710 -3 0 -1174 1220 -2603 2710 -1428 1491 -2601 2711 -2605 2712 -4 2 -202 -183 -440 -409z"/>
</g>
</g>
  <g id="id1:id1" transform="matrix(1.25,0,0,1.25,0.0,0.0)"><g transform="translate(0.000000,1260.000000) scale(0.100000,-0.100000)" fill="#ffffff" stroke="none">
</g>
</g>
</svg>
