<?xml version="1.0" encoding="UTF-8" standalone="no"?>
<!-- Created with Inkscape (http://www.inkscape.org/) -->

<svg
   xmlns:dc="http://purl.org/dc/elements/1.1/"
   xmlns:cc="http://creativecommons.org/ns#"
   xmlns:rdf="http://www.w3.org/1999/02/22-rdf-syntax-ns#"
   xmlns:svg="http://www.w3.org/2000/svg"
   xmlns="http://www.w3.org/2000/svg"
   xmlns:inkscape="http://www.inkscape.org/namespaces/inkscape"
   version="1.1"
   width="100%"
   height="100%"
   viewBox="0 0 305.14248 350.78193"
   id="svg14424"
   xml:space="preserve"
   style="fill-rule:evenodd;stroke-linecap:round;stroke-linejoin:round"><metadata
     id="metadata14789"><rdf:RDF><cc:Work
         rdf:about=""><dc:format>image/svg+xml</dc:format><dc:type
           rdf:resource="http://purl.org/dc/dcmitype/StillImage" /><dc:title /></cc:Work></rdf:RDF></metadata><defs
     id="defs14426"><clipPath
       id="clipId0"><path
         d="M 0,600 800,600 800,0 0,0 z"
         inkscape:connector-curvature="0"
         id="path14429" /></clipPath></defs><g
     transform="translate(-245.20122,-124.25)"
     clip-path="url(#clipId0)"
     id="g14431"
     style="fill:none;stroke:#000000;stroke-width:0.1" /><path
     d="M 152.54878,0.125 C 133.06141,0.25394 112.76393,7.19246 101.37697,23.90466 86.9671,39.82721 85.12385,61.77149 85.98633,82.18144 c 0,43.31452 0,86.62904 0,129.94356 -4,-13.34375 -8,-26.6875 -12,-40.03125 -14.9375,0 -29.875,0 -44.8125,0 -9.17893,31.61409 -20.59088,67.14857 -29.04883,98.94772 33.55715,1.32641 60.34692,0.0145 85.86133,0.0522 -1.03932,19.66833 1.69355,40.66693 15.42046,55.92069 21.45072,26.89237 64.21577,31.61659 91.09035,10.18062 19.71652,-14.30378 27.80191,-39.3487 26.05159,-62.8915 0,-45.14286 0,-90.28571 0,-135.42856 4.17221,13.26426 7.62446,26.76883 12.3237,39.85719 14.81805,0.17605 29.63851,0.035 44.45755,0.0803 9.89583,-33 19.79167,-66 29.6875,-99 -28.82292,0 -57.64583,0 -86.46875,0 C 219.60451,59.82735 216.62928,38.47852 202.45088,23.1917 190.13059,8.71704 171.56057,0.12883 152.54878,0.125 z m -0.3125,15.09375 c 26.45726,-0.67232 50.03056,22.03563 50.56422,48.43955 3.75065,31.91403 -29.04367,60.05198 -60.03297,52.99795 -31.61054,-4.79568 -51.29145,-42.8126 -37.07773,-71.3844 7.86251,-18.09216 26.89145,-30.16206 46.54648,-30.0531 z m 68.90625,79.6875 c 21.19792,0 42.39583,0 63.59375,0 -6.88542,22.9375 -13.77083,45.875 -20.65625,68.8125 -7.4375,0 -14.875,0 -22.3125,0 -6.875,-22.9375 -13.75,-45.875 -20.625,-68.8125 z m -121.7105,15.36236 c 14.59486,14.42644 21.00096,19.94589 50.73162,25.96337 32.63881,-4.92206 42.74695,-13.84721 53.26013,-27.76323 0,44.66667 0,89.33333 0,134 -20.92309,-26.6466 -64.25081,-32.75604 -90.45592,-10.40367 -8.39821,8.31041 -1.7646,2.21315 -11.3385,12.03274 0,-40.94751 -2.19733,-92.8817 -2.19733,-133.82921 z M 40.42378,187.1875 c 7.4375,0 14.875,0 22.3125,0 6.88542,22.9375 13.77083,45.875 20.65625,68.8125 -21.20833,0 -42.41667,0 -63.625,0 6.88542,-22.9375 13.77083,-45.875 20.65625,-68.8125 z m 111.8125,46.15625 c 31.20956,-0.97518 57.51186,31.07457 50.10525,61.50978 -5.31803,32.17346 -45.07143,51.07283 -73.46647,35.17738 -26.56387,-12.68068 -36.52433,-49.95611 -18.73414,-73.66935 8.74851,-14.49006 25.32798,-23.01521 42.09536,-23.01781 z"
     inkscape:connector-curvature="0"
     id="polyline14597"
     style="fill:#000000;fill-opacity:1;fill-rule:nonzero;stroke:#000000;stroke-width:0.25" /><g
     transform="translate(-245.20122,-124.25)"
     clip-path="url(#clipId0)"
     id="g14765"
     style="fill:#000000;stroke:none" /></svg>