<?xml version="1.0" standalone="no"?>
<!DOCTYPE svg PUBLIC "-//W3C//DTD SVG 1.1//EN"
 "http://www.w3.org/Graphics/SVG/1.1/DTD/svg11.dtd">
<!-- Created with svg_stack (http://github.com/astraw/svg_stack) -->
<svg xmlns:sodipodi="http://sodipodi.sourceforge.net/DTD/sodipodi-0.dtd" xmlns="http://www.w3.org/2000/svg" version="1.1" width="1596.25" height="1597.5">
  <defs/>
  <g id="id0:id0" transform="matrix(1.25,0,0,1.25,0.0,0.0)"><g transform="translate(0.000000,1278.000000) scale(0.100000,-0.100000)" fill="#000000" stroke="none">
<path d="M5490 9390 l0 -2110 -2110 0 -2110 0 0 -895 0 -895 2110 0 2110 0 0 -2105 0 -2105 895 0 895 0 0 2105 0 2105 2105 0 2105 0 0 895 0 895 -2105 0 -2105 0 0 2110 0 2110 -895 0 -895 0 0 -2110z"/>
</g>
</g>
  <g id="id1:id1" transform="matrix(1.25,0,0,1.25,0.0,0.0)"><g transform="translate(0.000000,1278.000000) scale(0.100000,-0.100000)" fill="#ffffff" stroke="none">
<path d="M0 6390 l0 -6390 6385 0 6385 0 0 6390 0 6390 -6385 0 -6385 0 0 -6390z m7280 3000 l0 -2110 2105 0 2105 0 0 -895 0 -895 -2105 0 -2105 0 0 -2105 0 -2105 -895 0 -895 0 0 2105 0 2105 -2110 0 -2110 0 0 895 0 895 2110 0 2110 0 0 2110 0 2110 895 0 895 0 0 -2110z"/>
</g>
</g>
</svg>
