<?xml version="1.0" standalone="no"?>
<!DOCTYPE svg PUBLIC "-//W3C//DTD SVG 1.1//EN"
 "http://www.w3.org/Graphics/SVG/1.1/DTD/svg11.dtd">
<!-- Created with svg_stack (http://github.com/astraw/svg_stack) -->
<svg xmlns:sodipodi="http://sodipodi.sourceforge.net/DTD/sodipodi-0.dtd" xmlns="http://www.w3.org/2000/svg" version="1.1" width="1997.5" height="762.5">
  <defs/>
  <g id="id0:id0" transform="matrix(1.25,0,0,1.25,0.0,0.0)"><g transform="translate(0.000000,610.000000) scale(0.100000,-0.100000)" fill="#000000" stroke="none">
<path d="M4770 6030 l0 -70 3145 0 3145 0 0 -2910 0 -2910 -3145 0 -3145 0 0 -70 0 -70 5605 0 5605 0 0 3050 0 3050 -5605 0 -5605 0 0 -70z m11060 -2980 l0 -2910 -2310 0 -2310 0 0 2910 0 2910 2310 0 2310 0 0 -2910z"/>
</g>
</g>
  <g id="id1:id1" transform="matrix(1.25,0,0,1.25,0.0,0.0)"><g transform="translate(0.000000,610.000000) scale(0.100000,-0.100000)" fill="#cccccc" stroke="none">
<path d="M0 3050 l0 -2980 2385 0 2385 0 0 35 0 35 3145 0 3145 0 0 2910 0 2910 -3145 0 -3145 0 0 35 0 35 -2385 0 -2385 0 0 -2980z"/>
<path d="M11210 3050 l0 -2910 2310 0 2310 0 0 2910 0 2910 -2310 0 -2310 0 0 -2910z"/>
</g>
</g>
  <g id="id2:id2" transform="matrix(1.25,0,0,1.25,0.0,0.0)"><g transform="translate(0.000000,610.000000) scale(0.100000,-0.100000)" fill="#ffffff" stroke="none">
</g>
</g>
</svg>
