<?xml version="1.0" standalone="no"?>
<!DOCTYPE svg PUBLIC "-//W3C//DTD SVG 1.1//EN"
 "http://www.w3.org/Graphics/SVG/1.1/DTD/svg11.dtd">
<!-- Created with svg_stack (http://github.com/astraw/svg_stack) -->
<svg xmlns:sodipodi="http://sodipodi.sourceforge.net/DTD/sodipodi-0.dtd" xmlns="http://www.w3.org/2000/svg" version="1.1" width="1598.75" height="1597.5">
  <defs/>
  <g id="id0:id0" transform="matrix(1.25,0,0,1.25,0.0,0.0)"><g transform="translate(0.000000,1278.000000) scale(0.100000,-0.100000)" fill="#999999" stroke="none">
<path d="M5635 12745 c-813 -101 -1690 -388 -2367 -776 -1047 -600 -1869 -1422 -2453 -2454 -394 -695 -673 -1549 -776 -2370 l-32 -260 0 -495 0 -495 32 -260 c61 -490 177 -963 361 -1467 625 -1722 2046 -3143 3774 -3774 500 -183 973 -298 1471 -359 l280 -35 470 0 470 0 280 35 c498 61 971 176 1471 359 1245 455 2347 1325 3093 2441 290 434 514 871 681 1333 184 504 300 977 361 1467 l32 260 0 495 0 495 -32 260 c-103 821 -382 1675 -776 2370 -754 1333 -1953 2357 -3359 2871 -501 183 -973 299 -1471 359 l-280 35 -485 -1 c-483 -1 -486 -1 -745 -34z"/>
</g>
</g>
  <g id="id1:id1" transform="matrix(1.25,0,0,1.25,0.0,0.0)"><g transform="translate(0.000000,1278.000000) scale(0.100000,-0.100000)" fill="#ffffff" stroke="none">
</g>
</g>
</svg>
