<?xml version="1.0" standalone="no"?>
<!DOCTYPE svg PUBLIC "-//W3C//DTD SVG 1.1//EN"
 "http://www.w3.org/Graphics/SVG/1.1/DTD/svg11.dtd">
<!-- Created with svg_stack (http://github.com/astraw/svg_stack) -->
<svg xmlns:sodipodi="http://sodipodi.sourceforge.net/DTD/sodipodi-0.dtd" xmlns="http://www.w3.org/2000/svg" version="1.1" width="671.25" height="1518.75">
  <defs/>
  <g id="id0:id0" transform="matrix(1.25,0,0,1.25,0.0,0.0)"><g transform="translate(0.000000,1215.000000) scale(0.100000,-0.100000)" fill="#181512" stroke="none">
<path d="M0 9465 l0 -2685 1230 0 1230 0 0 -1325 0 -1325 -22 -4 c-13 -2 -57 -10 -98 -16 -188 -29 -317 -68 -524 -159 -72 -32 -232 -124 -318 -184 -317 -219 -604 -586 -752 -962 -95 -242 -149 -613 -127 -867 38 -425 152 -747 374 -1057 264 -368 564 -597 1007 -769 234 -91 634 -133 920 -98 243 30 390 70 582 156 362 163 638 385 858 689 135 186 217 347 286 561 88 274 98 337 98 645 1 307 -11 392 -95 652 -132 411 -411 791 -757 1031 -177 123 -407 241 -579 297 -67 22 -246 60 -375 80 l-38 6 0 1324 0 1325 1235 0 1235 0 0 2685 0 2685 -2685 0 -2685 0 0 -2685z m4930 0 l0 -2245 -2245 0 -2245 0 0 2245 0 2245 2245 0 2245 0 0 -2245z m-1965 -5794 c101 -18 303 -81 416 -129 70 -30 294 -181 381 -256 83 -72 210 -218 283 -326 72 -105 180 -359 214 -502 61 -259 61 -526 0 -773 -68 -273 -188 -499 -379 -714 -226 -255 -601 -453 -966 -510 -173 -28 -299 -27 -481 4 -520 86 -951 398 -1196 865 -109 208 -177 491 -177 737 0 306 90 625 245 863 139 215 283 359 524 522 146 99 368 185 566 219 147 25 427 25 570 0z"/>
<path d="M1030 9470 l0 -2160 435 0 435 0 0 815 0 815 403 0 c461 0 821 18 987 51 104 20 265 71 347 109 132 61 287 175 367 269 118 138 224 313 257 425 59 197 88 474 70 667 -22 226 -59 352 -163 550 -62 120 -132 204 -259 313 -192 165 -352 236 -614 271 -182 25 -557 34 -1452 34 l-813 1 0 -2160z m1845 1411 c340 -29 558 -258 559 -586 0 -171 -48 -296 -161 -410 -73 -75 -166 -131 -263 -159 -104 -29 -372 -48 -747 -53 l-363 -5 0 617 0 618 438 -7 c240 -3 482 -10 537 -15z"/>
</g>
</g>
  <g id="id1:id1" transform="matrix(1.25,0,0,1.25,0.0,0.0)"><g transform="translate(0.000000,1215.000000) scale(0.100000,-0.100000)" fill="#ffffff" stroke="none">
</g>
</g>
</svg>
