<?xml version="1.0" standalone="no"?>
<!DOCTYPE svg PUBLIC "-//W3C//DTD SVG 1.1//EN"
 "http://www.w3.org/Graphics/SVG/1.1/DTD/svg11.dtd">
<!-- Created with svg_stack (http://github.com/astraw/svg_stack) -->
<svg xmlns:sodipodi="http://sodipodi.sourceforge.net/DTD/sodipodi-0.dtd" xmlns="http://www.w3.org/2000/svg" version="1.1" width="1978.75" height="707.5">
  <defs/>
  <g id="id0:id0" transform="matrix(1.25,0,0,1.25,0.0,0.0)"><g transform="translate(0.000000,566.000000) scale(0.100000,-0.100000)" fill="#000000" stroke="none">
<path d="M2520 5644 c-255 -36 -486 -88 -610 -136 -309 -121 -453 -192 -670 -333 -376 -244 -771 -705 -975 -1140 -113 -240 -179 -448 -227 -715 -28 -159 -32 -199 -36 -435 -4 -273 0 -328 44 -580 45 -260 125 -493 264 -770 68 -136 114 -210 228 -366 119 -165 164 -218 284 -334 238 -230 359 -322 618 -472 229 -132 566 -257 820 -304 423 -79 711 -80 1129 -3 267 48 590 168 829 306 262 151 382 242 620 473 268 259 506 628 645 998 61 161 102 303 127 442 73 406 76 668 10 1048 -45 260 -111 470 -225 712 -168 359 -459 729 -785 1000 -151 126 -411 286 -592 366 -307 136 -498 189 -859 239 -169 24 -487 26 -639 4z m587 -469 c137 -16 312 -56 500 -116 134 -42 414 -179 536 -261 421 -281 780 -752 926 -1213 94 -297 124 -477 125 -750 0 -225 -17 -364 -69 -570 -55 -215 -98 -334 -182 -499 -179 -351 -476 -687 -800 -904 -122 -82 -402 -219 -536 -261 -270 -85 -511 -131 -699 -131 l-78 0 0 2360 0 2360 78 0 c42 0 132 -7 199 -15z"/>
<path d="M10570 4607 c-1416 -280 -2576 -511 -2577 -512 -5 -3 84 -445 90 -452 5 -4 5182 1014 5194 1022 2 1 -71 386 -82 433 -4 15 -12 22 -28 21 -12 -1 -1181 -231 -2597 -512z"/>
<path d="M8030 2825 l0 -235 3900 0 3900 0 0 235 0 235 -3900 0 -3900 0 0 -235z"/>
<path d="M8075 1998 c-11 -47 -84 -432 -82 -433 12 -8 5189 -1026 5194 -1022 6 7 95 449 90 452 -5 4 -5173 1025 -5184 1025 -7 0 -15 -10 -18 -22z"/>
</g>
</g>
  <g id="id1:id1" transform="matrix(1.25,0,0,1.25,0.0,0.0)"><g transform="translate(0.000000,566.000000) scale(0.100000,-0.100000)" fill="#ffffff" stroke="none">
</g>
</g>
</svg>
