<?xml version="1.0" encoding="UTF-8" standalone="no"?>
<svg
   xmlns:dc="http://purl.org/dc/elements/1.1/"
   xmlns:cc="http://creativecommons.org/ns#"
   xmlns:rdf="http://www.w3.org/1999/02/22-rdf-syntax-ns#"
   xmlns:svg="http://www.w3.org/2000/svg"
   xmlns="http://www.w3.org/2000/svg"
   xmlns:sodipodi="http://sodipodi.sourceforge.net/DTD/sodipodi-0.dtd"
   xmlns:inkscape="http://www.inkscape.org/namespaces/inkscape"
   viewBox="0 0 342.16348 342.39953"
   version="1.1"
   xml:space="preserve"
   id="svg346906"
   inkscape:version="0.48.3.1 r9886"
   width="100%"
   height="100%"
   sodipodi:docname="alkis3410.svg"
   style="fill-rule:evenodd;stroke-linecap:round;stroke-linejoin:round"><metadata
   id="metadata347855"><rdf:RDF><cc:Work
       rdf:about=""><dc:format>image/svg+xml</dc:format><dc:type
         rdf:resource="http://purl.org/dc/dcmitype/StillImage" /></cc:Work></rdf:RDF></metadata><sodipodi:namedview
   pagecolor="#ffffff"
   bordercolor="#666666"
   borderopacity="1"
   objecttolerance="10"
   gridtolerance="10"
   guidetolerance="10"
   inkscape:pageopacity="0"
   inkscape:pageshadow="2"
   inkscape:window-width="1855"
   inkscape:window-height="1025"
   id="namedview347853"
   showgrid="false"
   inkscape:zoom="2.2250293"
   inkscape:cx="92.19927"
   inkscape:cy="184.55513"
   inkscape:window-x="0"
   inkscape:window-y="33"
   inkscape:window-maximized="1"
   inkscape:current-layer="svg346906" />
<defs
   id="defs346908">
<clipPath
   id="clipId0">
<path
   d="M 0,600 800,600 800,0 0,0 z"
   id="path346911"
   inkscape:connector-curvature="0" />
</clipPath>
</defs>
<g
   clip-path="url(#clipId0)"
   id="g346913"
   style="fill:none;stroke:#000000;stroke-width:0.1"
   transform="translate(-228.92536,-142.15559)" />
<g
   clip-path="url(#clipId0)"
   id="g346915"
   style="fill:#ffffff;stroke:none"
   transform="translate(-228.92536,-142.15559)">













































































<path
   d="m 400,150.28125 c -50.77924,-0.14039 -100.78494,24.88763 -130.85537,65.84692 -33.13819,43.96433 -41.45973,105.11722 -21.03908,156.27345 19.80106,52.38086 68.54742,92.30432 123.78249,101.48978 54.75508,10.04133 113.80976,-10.59624 150.27752,-52.68903 C 559.39092,379.78646 572.60029,318.61148 555.7881,265.52129 539.91502,212.14742 494.65466,168.93987 440.61504,155.50685 427.36316,152.06676 413.68091,150.47684 400,150.28125 z"
   id="path347071"
   inkscape:connector-curvature="0" />
</g>
<g
   clip-path="url(#clipId0)"
   id="g347073"
   style="fill:#000000;stroke:none"
   transform="translate(-228.92536,-142.15559)">















































































<path
   d="m 399.65625,142.15625 c -56.74016,-0.1629 -112.49213,29.91542 -143.03666,77.8058 -32.75869,49.22519 -36.77122,115.70974 -10.352,168.59039 25.21864,52.76561 79.27878,90.11809 137.53253,95.15535 58.1446,6.0275 118.25408,-20.47831 152.97601,-67.51731 35.55265,-46.43568 44.29805,-111.53926 22.38115,-165.74851 -21.06822,-54.52365 -71.94416,-96.07873 -129.63721,-105.6468 -9.63303,-1.77023 -19.42294,-2.43795 -29.20757,-2.63892 -0.33659,9.16053 -0.27054,9.82913 -0.65625,0 z M 400,158.4375 c 52.054,-0.21298 103.15068,27.69226 130.69636,71.92586 30.30387,46.73406 32.18567,110.04791 4.4625,158.39333 -26.03923,47.93996 -79.12947,79.34324 -133.64837,79.43506 -55.36663,1.01524 -109.84079,-30.3702 -136.44538,-78.97969 -27.25731,-47.26001 -26.28663,-108.9353 2.10073,-155.48086 26.87166,-45.58619 78.4055,-75.09587 131.32258,-75.23153 l 0.9677,-0.0398 L 400,158.4375 z"
   id="path347233"
   inkscape:connector-curvature="0" />
</g>
<g
   clip-path="url(#clipId0)"
   id="g347235"
   style="fill:none;stroke:#000000;stroke-width:0.25"
   transform="translate(-228.92536,-142.15559)">
<polyline
   points="399.991,150.289 399.991,150.289 "
   id="polyline347237" />
</g>
<g
   clip-path="url(#clipId0)"
   id="g347239"
   style="fill:#000000;stroke:none"
   transform="translate(-228.92536,-142.15559)">

















































































































































































































































































































<path
   style="fill-rule:nonzero"
   d="m 404.25,181.03125 c -6.89133,2.09421 -14.76138,2.05972 -20.16472,7.39028 -7.14334,4.44539 -13.06202,10.28973 -18.60491,16.56335 -12.06161,12.14445 -21.49871,26.53866 -32.26162,39.79637 -1.33276,4.34238 -5.86765,2.14024 -9.59547,3.75995 -5.58669,0.19214 -9.79799,4.00176 -14.46703,6.5838 -0.12986,5.27561 -1.45241,10.77922 1.89357,15.37629 3.11639,3.73648 1.68378,7.14249 -1.23476,10.44054 -3.57069,6.00397 -5.52853,12.96606 -7.74706,19.55642 -0.80299,6.75899 -3.56498,13.57534 -0.87917,20.23215 1.39055,6.11751 2.19856,12.46278 6.14794,17.57983 2.39156,4.71805 5.94919,9.23326 7.61136,14.07818 -2.557,10.37632 -1.83704,21.56756 -5.95665,31.4792 -2.12798,3.77975 -4.55236,7.48768 -3.29528,12.00039 0.0912,6.58042 5.92598,11.14236 9.96005,15.78825 7.74541,3.33143 16.60964,3.06875 24.50615,0.42975 4.09139,-1.73456 8.63681,-2.85787 10.77765,-7.15761 4.22434,-3.27448 1.87054,-8.87373 2.4662,-13.43061 0.68011,-9.15056 -4.8705,-17.7551 -3.28125,-26.90403 3.93545,-0.21232 8.38964,-0.87412 5.88517,4.49383 -1.94682,4.401 0.45546,7.11757 4.16514,9.31215 4.56295,2.27463 9.18166,4.76457 14.45025,3.91277 4.87568,0.493 10.15857,-0.65324 13.9839,-3.40415 1.87013,-4.14104 4.31455,-8.18233 3.45304,-12.90835 5.24315,3.43443 10.0175,7.85006 16.47043,8.63586 1.3195,2.40588 -1.50366,7.42409 -1.96614,10.75369 -2.41349,6.03714 -3.64386,12.34182 -4.25429,18.79795 -6.70199,5.46227 -16.14209,9.43395 -18.66833,18.36588 -1.22639,5.36853 0.48728,10.89968 4.69958,14.50912 4.65443,4.97165 10.69488,9.1898 17.25,10.9375 7.05905,0.43326 14.64859,-0.38313 19.96003,-5.53555 6.73531,-4.83152 11.67181,-11.99682 15.57408,-19.20492 4.32307,-9.46907 8.72706,-19.01393 10.59089,-29.32203 6.43451,-1.44145 12.85833,-4.82793 16.24332,-10.53602 2.0716,-4.88268 3.52729,-9.87031 2.85043,-15.22332 -0.4176,-6.97601 -1.33815,-13.90801 -0.55138,-20.9232 1.07863,-4.71715 5.16597,-8.49139 7.40328,-12.84542 2.64369,-5.43286 6.73896,-10.62792 5.83949,-16.99453 0.75049,-25.6397 0.80778,-51.42887 -2.8185,-76.86093 -2.25351,-8.52596 -4.0409,-17.31735 -6.89351,-25.59927 -5.55867,-7.57095 -11.34089,-14.93982 -18.59458,-20.97854 -5.27821,-1.85682 -11.43714,-2.35764 -17.14106,-2.94531 -4.47147,-0.2686 -9.13932,0.0135 -12.42598,-3.57739 -4.28677,-2.72693 -8.00103,-7.14299 -13.56454,-6.10293 -2.60524,-0.10646 -5.21048,-0.21293 -7.81572,-0.31939 z m 0.8125,8.40625 c 4.54558,0.46876 9.68141,-0.79311 13.0856,3.02223 4.44577,2.77498 8.22875,7.40815 13.96488,6.56537 6.35199,0.47439 13.08799,0.71633 19.04621,2.7013 6.10713,5.18204 11.17812,11.54936 15.50955,18.18109 3.19702,11.93211 6.91447,23.81273 7.30017,36.25365 2.23531,21.59011 1.58708,43.33366 1.06234,64.99511 -4.45627,9.82544 -10.93134,18.4613 -16.29442,27.61976 -3.57209,6.09096 -2.06955,-2.44949 -4.23385,-5.03067 -3.73047,-9.43817 -12.29912,-15.74595 -16.81616,-24.73923 -4.72211,-9.39368 -3.63948,-20.47487 -0.90562,-30.34986 0.1989,-15.1664 -5.47386,-29.61726 -12.66569,-42.72141 -2.85102,-6.14605 -7.35751,-11.29002 -11.08431,-16.90359 -0.79635,22.02078 -0.70868,44.14491 -3.17344,66.05337 -1.6367,13.07323 -2.95001,27.0545 -11.50887,37.72241 -4.72193,5.94965 -12.57689,7.23882 -19.31769,9.88047 -2.00417,6.48457 -7.26804,11.65703 -13.71108,13.53125 -7.07547,0 -14.15095,0 -21.22642,0 0.0148,6.03919 -5.5567,0.62695 -8.73031,0.0978 -6.44439,-2.56176 -3.78176,-0.95184 1.32147,-2.30922 3.96595,-0.68538 5.93103,-5.33235 8.16179,-8.23695 -0.34156,-3.17542 4.4211,-10.02339 -0.67083,-9.78087 -6.87135,-1.15738 -14.41952,0.0848 -20.36337,-4.3958 -0.25563,5.71774 -7.95252,1.28409 -6.28125,6.89913 -1.10821,-0.24134 -3.80419,-6.42584 -5.4988,-8.86213 -1.41081,-5.43637 -3.28611,-11.16659 -3.53795,-16.754 0.84546,-8.00074 3.06262,-15.63299 6.24981,-23.00464 1.53246,-4.5497 4.89202,-8.17875 7.25569,-12.30961 3.91177,0.76596 7.78748,1.41793 10.70067,-1.90674 4.44428,-2.06457 5.9742,-7.24875 7.61047,-11.39727 -0.75858,-3.66088 1.20453,-8.6119 -2.74864,-10.75849 8.52893,-12.32171 18.13331,-23.92037 27.36095,-35.72283 7.82162,-7.96276 14.74694,-16.94904 24.41707,-22.80086 4.25261,-4.01651 10.39839,-3.81036 15.72203,-5.53881 z m -27.90625,75.9375 c -1.77175,4.56562 -4.7764,8.9344 -3.26666,14.01263 -0.67729,5.58966 3.28074,9.56154 6.07916,13.92487 3.26338,2.64218 6.52626,5.28498 9.78125,7.9375 2.9877,-2.03199 9.41178,-1.27218 9.18122,-5.85351 1.17224,-5.79425 1.267,-11.97456 -0.76543,-17.47758 -3.99907,-4.50804 -8.03297,-9.70585 -13.25187,-12.54391 -2.58589,0 -5.17178,0 -7.75767,0 z m -47.0625,34.9375 c -5.05774,3.89414 -12.22803,1.8157 -17.80442,4.84981 -2.21175,1.97199 -2.45393,6.62717 -1.75808,9.58769 0.51185,2.7311 4.9426,8.31105 6.90779,6.28442 4.52377,-6.60048 9.60878,-12.83209 13.59221,-19.78442 -0.3125,-0.3125 -0.625,-0.625 -0.9375,-0.9375 z M 352,308.6875 c -1.53,2.47424 -6.78373,4.7094 -4.71971,7.80087 2.76289,5.0859 4.63574,10.64399 5.18846,16.41788 5.23569,1.48276 11.37274,-0.79043 12.59375,-6.5 -1.6293,-6.34023 -3.39008,-13.95222 -9.9823,-16.80064 -0.85944,-0.72617 -2.05247,-0.61795 -3.0802,-0.91811 z m -28.59375,42.03125 c 11.87183,3.35264 -5.32139,0.75195 0,0 z"
   id="path347851"
   inkscape:connector-curvature="0" />
</g>
</svg>