<?xml version="1.0" encoding="UTF-8" standalone="no"?>
<!-- Created with Inkscape (http://www.inkscape.org/) -->

<svg
   xmlns:dc="http://purl.org/dc/elements/1.1/"
   xmlns:cc="http://creativecommons.org/ns#"
   xmlns:rdf="http://www.w3.org/1999/02/22-rdf-syntax-ns#"
   xmlns:svg="http://www.w3.org/2000/svg"
   xmlns="http://www.w3.org/2000/svg"
   xmlns:inkscape="http://www.inkscape.org/namespaces/inkscape"
   version="1.1"
   width="100%"
   height="100%"
   viewBox="0 0 350.9375 350.96875"
   id="svg2"
   xml:space="preserve"
   style="fill-rule:evenodd;stroke-linecap:round;stroke-linejoin:round"><metadata
     id="metadata39"><rdf:RDF><cc:Work
         rdf:about=""><dc:format>image/svg+xml</dc:format><dc:type
           rdf:resource="http://purl.org/dc/dcmitype/StillImage" /></cc:Work></rdf:RDF></metadata><defs
     id="defs4"><clipPath
       id="clipId0"><path
         d="M 0,600 800,600 800,0 0,0 z"
         inkscape:connector-curvature="0"
         id="path7" /></clipPath></defs><g
     transform="translate(-224.65625,-123.875)"
     clip-path="url(#clipId0)"
     id="g9"
     style="fill:none;stroke:#000000;stroke-width:0.1" /><g
     transform="translate(-224.65625,-123.875)"
     clip-path="url(#clipId0)"
     id="g11"
     style="fill:#000000;stroke:none"><path
       d="m 224.65625,123.875 0,342.375 0.46875,8.53125 8.09375,0.0625 342.375,0 0,-350.96875 z m 17.15625,17.15625 316.625,0 0,316.625 -316.625,0 z m 161.59375,24 -49.875,153.5 78.0625,-47.34375 -30,92.3125 -24.5625,-7.96875 -12.98807,-3.97614 1.92557,13.91364 17.40625,81.875 73.25,-65.96875 -38.6875,-12.5625 44.25,-136.25 -78.0625,47.34375 35.59375,-109.5625 z"
       inkscape:connector-curvature="0"
       id="path13" /></g></svg>