<?xml version="1.0" encoding="UTF-8" standalone="no"?>
<!-- Created with Inkscape (http://www.inkscape.org/) -->

<svg
   xmlns:dc="http://purl.org/dc/elements/1.1/"
   xmlns:cc="http://creativecommons.org/ns#"
   xmlns:rdf="http://www.w3.org/1999/02/22-rdf-syntax-ns#"
   xmlns:svg="http://www.w3.org/2000/svg"
   xmlns="http://www.w3.org/2000/svg"
   xmlns:inkscape="http://www.inkscape.org/namespaces/inkscape"
   version="1.1"
   width="100%"
   height="100%"
   viewBox="0 0 350.25715 350.51802"
   id="svg9942"
   xml:space="preserve"
   style="fill-rule:evenodd;stroke-linecap:round;stroke-linejoin:round"><metadata
     id="metadata10291"><rdf:RDF><cc:Work
         rdf:about=""><dc:format>image/svg+xml</dc:format><dc:type
           rdf:resource="http://purl.org/dc/dcmitype/StillImage" /></cc:Work></rdf:RDF></metadata><defs
     id="defs9944"><clipPath
       id="clipId0"><path
         d="M 0,600 800,600 800,0 0,0 z"
         inkscape:connector-curvature="0"
         id="path9947" /></clipPath></defs><g
     transform="translate(-224.81316,-124.59328)"
     clip-path="url(#clipId0)"
     id="g9949"
     style="fill:none;stroke:#000000;stroke-width:0.1" /><path
     d="M 174.87434,4.7310918e-4 C 116.77669,-0.13906689 59.646146,30.598053 28.379436,79.665553 -5.1881442,130.03344 -9.3001342,198.12375 17.764916,252.24278 c 25.56839,53.35619 79.87706,91.45247 138.782764,97.18466 60.11715,7.00906 122.64022,-20.2097 158.58208,-68.89503 36.3906,-47.52546 45.36439,-114.18839 22.89347,-169.66495 C 316.50006,55.021523 264.36888,12.554203 205.3345,2.7149131 195.45309,0.90188311 185.40992,0.22774311 175.37434,4.7310918e-4 c -0.29938,6.90852999082 -0.17916,8.79567999082 -0.5,0 z m 0.25,12.99999989082 c 54.45039,-0.2532 107.89701,28.91086 136.78084,75.12438 31.82994,48.937037 33.88336,115.304817 4.8791,166.005637 -27.20784,50.21959 -82.765,83.15123 -139.83875,83.32964 C 121.53075,338.52033 66.922526,308.73559 37.775046,261.59476 6.4798958,212.71273 4.6130258,146.83098 33.433146,96.401703 61.149446,45.465993 117.2021,12.761633 175.12434,13.000473 z"
     inkscape:connector-curvature="0"
     id="path9953"
     style="fill:#000000;stroke:none" /><g
     transform="translate(-224.81316,-124.59328)"
     clip-path="url(#clipId0)"
     id="g10113"
     style="fill:none;stroke:#000000;stroke-width:0.25"><polyline
       points="399.931,131.095 399.931,131.095 "
       id="polyline10115" /></g><path
     d="m 174.93684,151.12547 c -8.50232,0.005 -16.80589,4.89638 -20.875,12.375 -1.25674,2.20742 -2.13775,4.60772 -2.625,7.09375 l -145.0937542,0 0,9.34375 145.0937542,0 c 0.28916,1.47704 0.70895,2.91588 1.28125,4.3125 2.99108,7.62858 10.13253,13.4337 18.21875,14.78125 6.28788,1.11393 12.99709,-0.35714 18.1875,-4.09375 4.98225,-3.53248 8.50157,-9.02344 9.6875,-15 l 145.0625,0 0,-9.34375 -145.09375,0 c -1.01851,-5.108 -3.68057,-9.88378 -7.59375,-13.34375 -4.31248,-3.87696 -10.0769,-6.08798 -15.875,-6.125 l -0.1875,4.65625 -0.1875,-4.65625 z m 0.1875,9.34375 c 6.1117,-0.052 12.00626,4.09095 13.9375,9.90625 2.03324,5.57648 0.27011,12.26815 -4.28125,16.09375 -4.38968,3.85453 -11.12419,4.72728 -16.3125,2 -5.50707,-2.65179 -8.8973,-9.01157 -8.03125,-15.0625 0.68066,-6.29592 5.90964,-11.73087 12.15625,-12.71875 0.83545,-0.13912 1.68586,-0.17913 2.53125,-0.21875 z"
     inkscape:connector-curvature="0"
     id="polyline10281"
     style="fill:#000000;fill-opacity:1;fill-rule:nonzero;stroke:none" /><g
     transform="translate(-224.81316,-124.59328)"
     clip-path="url(#clipId0)"
     id="g10283"
     style="fill:#000000;stroke:none" /></svg>