<?xml version="1.0" standalone="no"?>
<!DOCTYPE svg PUBLIC "-//W3C//DTD SVG 1.1//EN"
 "http://www.w3.org/Graphics/SVG/1.1/DTD/svg11.dtd">
<!-- Created with svg_stack (http://github.com/astraw/svg_stack) -->
<svg xmlns:sodipodi="http://sodipodi.sourceforge.net/DTD/sodipodi-0.dtd" xmlns="http://www.w3.org/2000/svg" version="1.1" width="1592.5" height="1591.25">
  <defs/>
  <g id="id0:id0" transform="matrix(1.25,0,0,1.25,0.0,0.0)"><g transform="translate(0.000000,1273.000000) scale(0.100000,-0.100000)" fill="#ff7f7f" stroke="none">
<path d="M662 12063 l-661 -668 2517 -2517 2517 -2518 -2518 -2518 -2517 -2517 665 -665 665 -665 2518 2518 2517 2517 2517 -2517 2517 -2517 671 664 671 664 -2518 2518 -2518 2518 2518 2518 2517 2517 -670 670 -670 670 -2518 -2518 -2517 -2517 -2515 2515 c-1383 1383 -2518 2515 -2521 2515 -4 0 -304 -300 -667 -667z"/>
</g>
</g>
  <g id="id1:id1" transform="matrix(1.25,0,0,1.25,0.0,0.0)"><g transform="translate(0.000000,1273.000000) scale(0.100000,-0.100000)" fill="#ffffff" stroke="none">
</g>
</g>
</svg>
