<?xml version="1.0" standalone="no"?>
<!DOCTYPE svg PUBLIC "-//W3C//DTD SVG 1.1//EN"
 "http://www.w3.org/Graphics/SVG/1.1/DTD/svg11.dtd">
<!-- Created with svg_stack (http://github.com/astraw/svg_stack) -->
<svg xmlns:sodipodi="http://sodipodi.sourceforge.net/DTD/sodipodi-0.dtd" xmlns="http://www.w3.org/2000/svg" version="1.1" width="1985.0" height="1028.75">
  <defs/>
  <g id="id0:id0" transform="matrix(1.25,0,0,1.25,0.0,0.0)"><g transform="translate(0.000000,823.000000) scale(0.100000,-0.100000)" fill="#00ff00" stroke="none">
<path d="M7835 8103 c-55 -69 -108 -139 -118 -153 -15 -23 -68 -608 -362 -3986 -190 -2177 -345 -3960 -345 -3961 0 -2 421 -3 936 -3 l936 0 -6 58 c-4 31 -157 1816 -342 3966 l-335 3910 -47 55 c-127 149 -204 236 -210 239 -4 1 -52 -55 -107 -125z"/>
<path d="M2725 6454 l-7 -66 80 -131 c86 -143 638 -1091 666 -1144 9 -18 111 -257 226 -530 l210 -498 146 -512 145 -512 94 -511 94 -511 40 -517 c36 -467 41 -565 47 -1020 l7 -502 928 0 c614 0 929 3 929 10 0 6 -9 232 -20 503 l-20 492 -101 517 -100 517 -174 511 c-96 281 -188 535 -204 563 -16 29 -151 259 -300 512 l-271 460 -404 515 -405 515 -543 541 c-299 297 -624 613 -723 702 l-180 161 -76 1 -77 0 -7 -66z"/>
<path d="M12815 6358 c-99 -89 -424 -405 -723 -702 l-543 -541 -410 -516 -410 -515 -222 -385 c-122 -211 -255 -440 -295 -509 -66 -115 -85 -164 -251 -638 l-180 -514 -101 -516 -100 -517 -15 -485 c-8 -267 -15 -493 -15 -502 0 -17 51 -18 936 -18 l937 0 -8 498 -7 497 46 522 c46 520 47 524 136 1035 l90 513 150 511 151 511 209 497 c115 273 217 511 226 529 28 53 580 1001 666 1144 l80 131 -7 66 -7 66 -77 0 -76 -1 -180 -161z"/>
<path d="M0 4498 l0 -63 179 -180 179 -180 351 -497 c193 -274 357 -510 364 -525 8 -16 107 -251 221 -523 l206 -495 114 -511 115 -511 10 -471 c6 -259 11 -487 11 -507 l0 -35 925 0 c509 0 925 1 925 3 0 2 -20 227 -45 502 l-45 499 -206 495 c-114 273 -212 507 -219 521 -7 14 -201 256 -431 537 l-419 513 -670 506 c-591 446 -871 648 -1267 912 l-107 72 -96 0 -95 0 0 -62z"/>
<path d="M15329 4317 c-218 -149 -609 -435 -1019 -745 l-665 -502 -423 -518 -422 -517 -220 -515 -220 -515 -40 -498 c-22 -273 -40 -500 -40 -502 0 -3 416 -5 925 -5 l925 0 0 35 c0 20 5 248 11 507 l10 471 115 511 114 511 181 445 c100 245 196 479 214 520 23 56 122 201 389 575 l358 500 180 181 180 181 -7 62 -7 61 -93 0 -92 0 -354 -243z"/>
</g>
</g>
  <g id="id1:id1" transform="matrix(1.25,0,0,1.25,0.0,0.0)"><g transform="translate(0.000000,823.000000) scale(0.100000,-0.100000)" fill="#ffffff" stroke="none">
</g>
</g>
</svg>
