<?xml version="1.0" standalone="no"?>
<!DOCTYPE svg PUBLIC "-//W3C//DTD SVG 1.1//EN"
 "http://www.w3.org/Graphics/SVG/1.1/DTD/svg11.dtd">
<!-- Created with svg_stack (http://github.com/astraw/svg_stack) -->
<svg xmlns:sodipodi="http://sodipodi.sourceforge.net/DTD/sodipodi-0.dtd" xmlns="http://www.w3.org/2000/svg" version="1.1" width="1988.75" height="1218.75">
  <defs/>
  <g id="id0:id0" transform="matrix(1.25,0,0,1.25,0.0,0.0)"><g transform="translate(0.000000,975.000000) scale(0.100000,-0.100000)" fill="#000000" stroke="none">
<path d="M0 9355 l0 -395 7955 0 7955 0 0 395 0 395 -7955 0 -7955 0 0 -395z"/>
<path d="M6150 8015 c-1547 -28 -1633 -31 -1865 -54 -192 -20 -715 -97 -1012 -151 -256 -46 -802 -189 -983 -259 -287 -109 -358 -140 -432 -187 -40 -26 -118 -68 -173 -94 -141 -66 -401 -244 -542 -372 -256 -230 -491 -507 -631 -743 -155 -261 -291 -656 -372 -1085 -31 -162 -32 -168 -25 -365 5 -150 17 -269 46 -475 l39 -275 116 -275 c155 -367 256 -566 355 -702 44 -60 105 -148 136 -196 31 -48 95 -134 144 -192 115 -138 425 -444 564 -556 61 -49 153 -128 205 -175 52 -47 124 -104 160 -126 36 -22 130 -84 210 -138 80 -53 192 -119 249 -147 58 -27 150 -81 206 -118 135 -90 399 -222 642 -319 109 -44 270 -112 358 -151 90 -41 300 -120 480 -180 524 -178 814 -262 1165 -340 102 -22 253 -58 335 -79 83 -22 218 -49 300 -61 83 -11 231 -36 330 -55 99 -18 205 -36 235 -39 665 -68 709 -71 1120 -88 370 -16 520 -16 890 0 505 20 1069 73 1330 123 85 16 243 43 350 59 107 16 247 44 310 61 63 17 212 53 330 79 238 54 479 118 700 186 317 98 793 265 932 328 81 36 237 102 348 146 253 101 510 229 659 329 64 43 153 94 198 114 85 38 196 103 323 192 41 29 107 72 145 95 39 24 113 82 165 129 52 47 151 132 220 188 134 108 464 436 572 568 36 44 87 114 113 155 26 41 91 136 145 210 118 163 168 262 339 665 l131 310 39 275 c29 206 41 325 46 475 7 197 6 203 -25 365 -81 429 -217 824 -372 1085 -140 236 -375 513 -631 743 -142 128 -401 306 -543 373 -56 26 -134 69 -175 95 -83 53 -110 65 -399 174 -158 60 -279 96 -529 159 -352 90 -477 114 -976 191 -370 58 -641 87 -879 95 -378 14 -3031 55 -3437 54 -244 -1 -1000 -12 -1679 -24z m3545 -790 c1036 -17 1496 -29 1610 -40 88 -8 207 -17 265 -21 58 -3 182 -18 275 -34 94 -16 231 -36 305 -45 172 -20 369 -59 749 -147 293 -67 310 -73 511 -158 114 -48 233 -104 265 -124 31 -21 101 -57 155 -80 191 -85 413 -254 605 -462 204 -220 277 -335 394 -614 63 -152 102 -292 146 -525 24 -125 26 -153 20 -275 -3 -74 -18 -225 -31 -335 l-25 -200 -106 -250 c-140 -332 -155 -361 -296 -560 -184 -260 -235 -322 -384 -466 -133 -127 -476 -424 -596 -514 -101 -77 -293 -194 -379 -231 -46 -21 -135 -71 -198 -114 -164 -109 -354 -206 -590 -300 -113 -45 -263 -107 -335 -137 -173 -74 -655 -246 -885 -316 -102 -31 -318 -86 -480 -122 -162 -37 -365 -86 -450 -110 -104 -29 -201 -49 -295 -60 -77 -9 -219 -31 -315 -50 -276 -54 -512 -76 -1248 -120 -408 -24 -568 -20 -1327 30 -319 21 -569 50 -775 90 -96 19 -238 41 -315 51 -89 10 -189 30 -275 55 -74 21 -218 56 -320 79 -352 78 -446 101 -630 157 -230 70 -711 242 -885 316 -71 30 -222 92 -335 137 -236 94 -405 181 -573 292 -64 43 -154 95 -200 114 -84 37 -241 131 -379 226 -96 67 -443 366 -612 529 -148 142 -185 187 -360 433 -143 201 -199 306 -334 626 l-91 215 -25 200 c-13 110 -28 261 -31 335 -6 122 -4 150 20 275 59 314 132 529 257 765 164 307 578 699 880 831 51 22 125 60 163 84 39 24 161 81 272 128 191 81 216 89 487 151 405 94 555 124 766 151 102 13 251 35 330 48 80 14 190 28 245 31 55 3 179 13 275 22 127 11 532 22 1475 38 1706 30 1905 31 3610 1z"/>
</g>
</g>
  <g id="id1:id1" transform="matrix(1.25,0,0,1.25,0.0,0.0)"><g transform="translate(0.000000,975.000000) scale(0.100000,-0.100000)" fill="#ffffff" stroke="none">
</g>
</g>
</svg>
