<?xml version="1.0" encoding="UTF-8" standalone="no"?>
<!-- Created with Inkscape (http://www.inkscape.org/) -->

<svg
   xmlns:dc="http://purl.org/dc/elements/1.1/"
   xmlns:cc="http://creativecommons.org/ns#"
   xmlns:rdf="http://www.w3.org/1999/02/22-rdf-syntax-ns#"
   xmlns:svg="http://www.w3.org/2000/svg"
   xmlns="http://www.w3.org/2000/svg"
   xmlns:inkscape="http://www.inkscape.org/namespaces/inkscape"
   version="1.1"
   width="100%"
   height="100%"
   viewBox="0 0 372.40625 372.40625"
   id="svg147455"
   xml:space="preserve"
   style="fill-rule:evenodd;stroke-linecap:round;stroke-linejoin:round"><metadata
     id="metadata147532"><rdf:RDF><cc:Work
         rdf:about=""><dc:format>image/svg+xml</dc:format><dc:type
           rdf:resource="http://purl.org/dc/dcmitype/StillImage" /></cc:Work></rdf:RDF></metadata><defs
     id="defs147457"><clipPath
       id="clipId0"><path
         d="M 0,600 800,600 800,0 0,0 z"
         inkscape:connector-curvature="0"
         id="path147460" /></clipPath></defs><g
     transform="translate(-214.65625,-113.4375)"
     clip-path="url(#clipId0)"
     id="g147462"
     style="fill:none;stroke:#000000;stroke-width:0.1" /><g
     transform="translate(-214.65625,-113.4375)"
     clip-path="url(#clipId0)"
     id="g147464"
     style="fill:#ffffff;stroke:none"><path
       d="m 214.65625,113.4375 0,372.40625 372.40625,0 0,-372.40625 -372.40625,0 z"
       inkscape:connector-curvature="0"
       id="path147468" /></g><g
     transform="translate(-214.65625,-113.4375)"
     clip-path="url(#clipId0)"
     id="g147470"
     style="fill:#ff0000;stroke:none"><path
       d="m 425.4375,150.6875 -24.59375,9.28125 -54.375,20.5625 -15.625,5.90625 0,93.09375 -17.875,0 -22.34375,0 0,73.75 22.34375,0 17.875,0 0,18.625 -17.875,-6.71875 -22.34375,15.53125 -38.71875,26.9375 38.71875,16.75 22.34375,9.6875 17.875,7.75 15.625,6.78125 54.375,-37.25 0,-58.09375 24.59375,0 21.59375,0 0,58.09375 52.125,37.25 21.625,-27 29.03125,-36.3125 -29.03125,-26.0625 0,-159.40625 -21.625,-11.125 -52.125,-26.90625 -21.59375,-11.125 z"
       inkscape:connector-curvature="0"
       id="path147514" /></g><g
     transform="translate(-214.65625,-113.4375)"
     clip-path="url(#clipId0)"
     id="g147516"
     style="fill:none;stroke:#ffffff;stroke-width:0.25"><polyline
       points="251.891,407.647 312.965,365.193 330.84,371.896 330.84,353.276 290.621,353.276 290.621,279.54 330.84,279.54 330.84,186.439 425.431,150.689 520.766,199.846 520.766,359.235 549.814,385.303 499.167,448.612 447.03,411.371 447.03,353.276 400.852,353.276 400.852,411.371 346.481,448.612 251.891,407.647 "
       id="polyline147518" /></g><g
     transform="translate(-214.65625,-113.4375)"
     clip-path="url(#clipId0)"
     id="g147520"
     style="fill:#ffffff;stroke:none"><path
       d="m 400.84375,211.03125 0,68.5 46.1875,0 0,-50.625 -46.1875,-17.875 z"
       inkscape:connector-curvature="0"
       id="path147524" /></g><g
     transform="translate(-214.65625,-113.4375)"
     clip-path="url(#clipId0)"
     id="g147526"
     style="fill:none;stroke:#ff0000;stroke-width:0.25"><polyline
       points="400.852,279.54 400.852,211.018 447.03,228.893 447.03,279.54 400.852,279.54 "
       id="polyline147528" /></g></svg>