<?xml version="1.0" standalone="no"?>
<!DOCTYPE svg PUBLIC "-//W3C//DTD SVG 1.1//EN"
 "http://www.w3.org/Graphics/SVG/1.1/DTD/svg11.dtd">
<!-- Created with svg_stack (http://github.com/astraw/svg_stack) -->
<svg xmlns:sodipodi="http://sodipodi.sourceforge.net/DTD/sodipodi-0.dtd" xmlns="http://www.w3.org/2000/svg" version="1.1" width="1593.75" height="1595.0">
  <defs/>
  <g id="id0:id0" transform="matrix(1.25,0,0,1.25,0.0,0.0)"><g transform="translate(0.000000,1276.000000) scale(0.100000,-0.100000)" fill="#000000" stroke="none">
<path d="M0 6380 l0 -6380 6375 0 6375 0 0 6380 0 6380 -6375 0 -6375 0 0 -6380z m11910 0 l0 -5540 -5540 0 -5540 0 0 5540 0 5540 5540 0 5540 0 0 -5540z"/>
<path d="M2800 6380 l0 -4290 475 0 475 0 0 4290 0 4290 -475 0 -475 0 0 -4290z"/>
<path d="M6505 8216 l-310 -73 -267 -164 -267 -164 -231 -215 -231 -214 -165 -253 c-163 -248 -167 -256 -274 -508 l-109 -256 -65 -397 c-36 -218 -79 -482 -96 -585 l-30 -188 0 -1555 0 -1554 2745 0 2745 0 0 1555 0 1554 -40 248 c-22 136 -67 399 -100 584 l-60 337 -105 258 -105 258 -165 251 -164 251 -231 214 -231 215 -267 164 -267 164 -315 73 -315 74 -385 -1 -385 -1 -310 -72z"/>
</g>
</g>
  <g id="id1:id1" transform="matrix(1.25,0,0,1.25,0.0,0.0)"><g transform="translate(0.000000,1276.000000) scale(0.100000,-0.100000)" fill="#ffffff" stroke="none">
<path d="M830 6380 l0 -5540 5540 0 5540 0 0 5540 0 5540 -5540 0 -5540 0 0 -5540z m2920 0 l0 -4290 -475 0 -475 0 0 4290 0 4290 475 0 475 0 0 -4290z m4150 1836 l315 -73 267 -164 267 -164 231 -215 231 -214 164 -251 165 -251 105 -258 105 -258 60 -337 c33 -185 78 -448 100 -584 l40 -248 0 -1554 0 -1555 -2745 0 -2745 0 0 1554 0 1555 30 188 c17 103 60 367 96 585 l65 397 109 256 c107 252 111 260 274 508 l165 253 231 214 231 215 267 164 267 164 310 73 310 72 385 1 385 1 315 -74z"/>
</g>
</g>
</svg>
