<?xml version="1.0" standalone="no"?>
<!DOCTYPE svg PUBLIC "-//W3C//DTD SVG 1.1//EN"
 "http://www.w3.org/Graphics/SVG/1.1/DTD/svg11.dtd">
<!-- Created with svg_stack (http://github.com/astraw/svg_stack) -->
<svg xmlns:sodipodi="http://sodipodi.sourceforge.net/DTD/sodipodi-0.dtd" xmlns="http://www.w3.org/2000/svg" version="1.1" width="1591.25" height="1591.25">
  <defs/>
  <g id="id0:id0" transform="matrix(1.25,0,0,1.25,0.0,0.0)"><g transform="translate(0.000000,1273.000000) scale(0.100000,-0.100000)" fill="#000000" stroke="none">
<path d="M1780 6365 l0 -2295 445 0 445 0 0 415 0 415 3690 0 3690 0 0 -415 0 -415 445 0 445 0 0 2295 0 2295 -445 0 -445 0 0 -945 0 -944 -197 96 c-232 112 -547 232 -869 331 -657 203 -1576 290 -2269 216 -293 -31 -632 -95 -935 -175 -226 -60 -653 -208 -845 -292 l-100 -44 -51 69 c-229 305 -629 647 -990 846 -277 152 -720 320 -954 361 -36 7 -89 16 -117 22 l-53 10 0 225 0 224 -445 0 -445 0 0 -2295z m1525 1183 c156 -70 345 -171 450 -241 123 -82 358 -279 487 -410 183 -183 375 -455 511 -723 77 -152 176 -391 157 -379 -3 2 -418 419 -920 925 -909 917 -913 921 -854 899 32 -12 109 -44 169 -71z m164 -958 l793 -800 -796 0 -796 0 0 800 c0 440 1 800 3 800 2 0 360 -360 796 -800z m4546 346 c306 -45 605 -109 865 -185 222 -65 407 -135 335 -127 -22 3 -768 42 -1657 88 -890 45 -1618 85 -1618 88 0 21 473 112 780 151 221 28 232 28 640 24 414 -3 416 -3 655 -39z m-456 -686 c1274 -65 2355 -122 2404 -126 l87 -6 0 -164 0 -164 -2326 2 -2326 3 -23 75 c-40 135 -101 293 -154 398 l-51 102 37 0 c20 0 1078 -54 2352 -120z"/>
</g>
</g>
  <g id="id1:id1" transform="matrix(1.25,0,0,1.25,0.0,0.0)"><g transform="translate(0.000000,1273.000000) scale(0.100000,-0.100000)" fill="#ffffff" stroke="none">
<path d="M0 6365 l0 -6365 6365 0 6365 0 0 6365 0 6365 -6365 0 -6365 0 0 -6365z m2670 2071 l0 -225 53 -10 c28 -6 81 -15 117 -22 234 -41 677 -209 954 -361 361 -199 761 -541 990 -846 l51 -69 100 44 c192 84 619 232 845 292 303 80 642 144 935 175 693 74 1612 -13 2269 -216 322 -99 637 -219 869 -331 l197 -96 0 944 0 945 445 0 445 0 0 -2295 0 -2295 -445 0 -445 0 0 415 0 415 -3690 0 -3690 0 0 -415 0 -415 -445 0 -445 0 0 2295 0 2295 445 0 445 0 0 -224z"/>
<path d="M3990 6720 c502 -506 917 -923 920 -925 19 -12 -80 227 -157 379 -136 268 -328 540 -511 723 -129 131 -364 328 -487 410 -147 98 -442 246 -619 312 -59 22 -55 18 854 -899z"/>
<path d="M2670 6590 l0 -800 796 0 796 0 -793 800 c-436 440 -794 800 -796 800 -2 0 -3 -360 -3 -800z"/>
<path d="M6720 6951 c-307 -39 -780 -130 -780 -151 0 -3 728 -43 1618 -88 889 -46 1635 -85 1657 -88 72 -8 -113 62 -335 127 -260 76 -559 140 -865 185 -239 36 -241 36 -655 39 -408 4 -419 4 -640 -24z"/>
<path d="M5221 6268 c53 -105 114 -263 154 -398 l23 -75 2326 -3 2326 -2 0 164 0 164 -87 6 c-116 9 -4709 246 -4756 246 l-37 0 51 -102z"/>
</g>
</g>
</svg>
