<?xml version="1.0" standalone="no"?>
<!DOCTYPE svg PUBLIC "-//W3C//DTD SVG 1.1//EN"
 "http://www.w3.org/Graphics/SVG/1.1/DTD/svg11.dtd">
<!-- Created with svg_stack (http://github.com/astraw/svg_stack) -->
<svg xmlns:sodipodi="http://sodipodi.sourceforge.net/DTD/sodipodi-0.dtd" xmlns="http://www.w3.org/2000/svg" version="1.1" width="1593.75" height="1595.0">
  <defs/>
  <g id="id0:id0" transform="matrix(1.25,0,0,1.25,0.0,0.0)"><g transform="translate(0.000000,1276.000000) scale(0.100000,-0.100000)" fill="#000000" stroke="none">
<path d="M0 6380 l0 -6380 6375 0 6375 0 0 6380 0 6380 -6375 0 -6375 0 0 -6380z m6190 5125 l0 -555 -72 0 c-109 0 -462 -45 -638 -80 -188 -38 -512 -130 -715 -203 -493 -178 -1047 -522 -1486 -923 -519 -475 -956 -1126 -1184 -1765 -167 -469 -246 -840 -281 -1326 l-7 -93 -553 0 -554 0 0 2750 0 2750 2745 0 2745 0 0 -555z m5860 -2195 l0 -2750 -557 2 -558 3 -7 135 c-30 623 -254 1381 -569 1922 -442 761 -995 1314 -1749 1750 -378 219 -863 400 -1324 494 -185 38 -547 84 -663 84 l-73 0 0 555 0 555 2750 0 2750 0 0 -2750z m-5860 285 l0 -655 -32 0 c-68 -1 -303 -45 -498 -95 -143 -37 -267 -87 -449 -181 -327 -169 -618 -405 -842 -684 -282 -350 -496 -868 -540 -1305 l-12 -115 -648 0 -649 0 0 68 c0 209 55 537 135 809 155 521 329 862 683 1333 344 459 838 854 1412 1128 312 148 729 266 1165 327 88 12 186 23 218 24 l57 1 0 -655z m611 635 c669 -89 1196 -282 1724 -633 224 -149 541 -421 689 -591 462 -533 729 -1012 875 -1569 81 -307 141 -654 141 -814 l0 -63 -648 0 -647 0 -27 168 c-35 212 -85 416 -138 557 -85 227 -238 507 -368 670 -159 200 -431 446 -662 597 -85 56 -330 178 -465 233 -154 61 -573 155 -695 155 l-30 0 0 655 0 655 48 0 c27 0 118 -9 203 -20z m-611 -2534 l0 -534 -32 -5 c-18 -2 -70 -20 -115 -40 -195 -83 -373 -286 -439 -499 l-18 -58 -531 0 -532 0 14 88 c57 359 209 689 453 978 79 94 356 317 476 384 197 109 526 217 672 219 l52 1 0 -534z m546 514 c54 -11 128 -29 165 -40 86 -26 299 -113 358 -147 166 -96 407 -287 506 -401 229 -265 392 -619 448 -974 l14 -88 -536 0 -537 0 -12 60 c-17 80 -59 156 -147 266 -102 126 -175 184 -305 239 -36 15 -81 30 -100 34 l-35 6 -3 533 -2 532 44 0 c24 0 88 -9 142 -20z m-4921 -2097 c36 -491 113 -854 280 -1322 228 -638 666 -1291 1184 -1765 351 -320 680 -541 1181 -791 259 -129 652 -258 1005 -331 187 -38 539 -84 653 -84 l72 0 0 -560 0 -560 -2745 0 -2745 0 0 2750 0 2750 554 0 554 0 7 -87z m2005 70 c1 -44 30 -255 45 -322 57 -268 207 -630 362 -873 79 -124 306 -391 420 -494 227 -205 559 -410 823 -509 141 -53 377 -110 575 -140 55 -9 110 -18 123 -21 l22 -4 0 -650 0 -650 -42 0 c-67 0 -389 46 -548 79 -293 60 -537 140 -852 279 -531 236 -1064 660 -1410 1122 -354 472 -519 795 -679 1325 -79 259 -139 615 -139 816 l0 59 650 0 c612 0 650 -1 650 -17z m1786 -35 c9 -29 39 -96 67 -148 40 -75 69 -113 136 -180 110 -109 161 -142 282 -182 l99 -32 0 -535 0 -534 -72 6 c-126 11 -365 80 -524 153 -176 80 -493 320 -623 471 -131 152 -265 383 -335 577 -40 111 -92 313 -102 399 l-7 57 531 0 530 0 18 -52z m2610 -5 c-10 -85 -61 -288 -101 -397 -71 -195 -216 -447 -333 -578 -172 -191 -467 -404 -685 -494 -188 -78 -397 -134 -503 -134 l-44 0 2 532 3 531 96 32 c152 51 231 108 343 249 82 101 131 190 147 266 l11 50 535 0 536 0 -7 -57z m2014 -2 c0 -76 -33 -321 -66 -486 -146 -742 -421 -1286 -961 -1903 -212 -242 -587 -538 -938 -739 -215 -124 -590 -279 -840 -348 -255 -70 -682 -145 -827 -145 l-48 0 0 650 0 650 23 4 c12 3 56 10 97 16 226 33 475 93 605 145 352 141 665 343 885 571 268 276 357 397 490 659 131 260 202 485 257 823 l26 162 649 0 648 0 0 -59z m1820 -2691 l0 -2750 -2750 0 -2750 0 0 560 0 560 73 0 c116 0 478 46 663 84 464 95 857 242 1319 496 618 339 1160 840 1564 1445 287 429 447 775 600 1296 90 307 161 734 161 969 l0 90 560 0 560 0 0 -2750z"/>
</g>
</g>
  <g id="id1:id1" transform="matrix(1.25,0,0,1.25,0.0,0.0)"><g transform="translate(0.000000,1276.000000) scale(0.100000,-0.100000)" fill="#ffffff" stroke="none">
</g>
</g>
</svg>
