<?xml version="1.0" standalone="no"?>
<!DOCTYPE svg PUBLIC "-//W3C//DTD SVG 1.1//EN"
 "http://www.w3.org/Graphics/SVG/1.1/DTD/svg11.dtd">
<!-- Created with svg_stack (http://github.com/astraw/svg_stack) -->
<svg xmlns:sodipodi="http://sodipodi.sourceforge.net/DTD/sodipodi-0.dtd" xmlns="http://www.w3.org/2000/svg" version="1.1" width="1580.0" height="1580.0">
  <defs/>
  <g id="id0:id0" transform="matrix(1.25,0,0,1.25,0.0,0.0)"><g transform="translate(0.000000,1264.000000) scale(0.100000,-0.100000)" fill="#ffffff" stroke="none">
<path d="M5935 12630 c-386 -21 -866 -105 -1340 -234 -778 -212 -1533 -598 -2180 -1116 -327 -262 -543 -460 -733 -673 -841 -945 -1299 -1844 -1551 -3047 -167 -797 -167 -1662 0 -2475 143 -693 336 -1218 679 -1851 281 -518 807 -1184 1229 -1558 559 -495 1047 -822 1631 -1094 569 -264 1275 -461 1950 -543 263 -32 269 -33 710 -32 l445 0 280 36 c692 89 1335 269 1910 537 913 424 1691 1038 2322 1832 583 732 1062 1776 1227 2673 161 872 161 1612 1 2470 -82 441 -266 1003 -466 1428 -436 925 -1015 1658 -1814 2297 -486 389 -1109 741 -1715 966 -422 158 -967 288 -1460 350 -255 32 -300 34 -625 38 -192 2 -417 1 -500 -4z m790 -4238 c342 -70 716 -255 989 -491 85 -73 282 -298 368 -421 54 -77 162 -291 217 -428 62 -155 110 -403 126 -647 11 -160 -24 -463 -75 -665 -38 -147 -179 -453 -268 -580 -103 -148 -320 -386 -434 -477 -158 -126 -390 -258 -583 -333 -107 -41 -376 -109 -500 -126 -130 -17 -341 -17 -480 0 -379 48 -797 224 -1096 462 -182 145 -416 439 -530 667 -132 262 -186 426 -220 662 -18 129 -21 178 -16 365 7 292 35 436 128 672 101 255 234 475 424 698 169 199 432 380 750 515 191 81 332 121 530 149 17 2 152 3 300 1 227 -2 286 -5 370 -23z"/>
</g>
</g>
  <g id="id1:id1" transform="matrix(1.25,0,0,1.25,0.0,0.0)"><g transform="translate(0.000000,1264.000000) scale(0.100000,-0.100000)" fill="#cccccc" stroke="none">
<path d="M6055 8414 c-198 -28 -339 -68 -530 -149 -318 -135 -581 -316 -750 -515 -190 -223 -323 -443 -424 -698 -93 -236 -121 -380 -128 -672 -5 -187 -2 -236 16 -365 34 -236 88 -400 220 -662 114 -228 348 -522 530 -667 158 -125 376 -249 591 -334 130 -51 360 -110 505 -128 139 -17 350 -17 480 0 124 17 393 85 500 126 193 75 425 207 583 333 114 91 331 329 434 477 89 127 230 433 268 580 51 202 86 505 75 665 -16 244 -64 492 -126 647 -55 137 -163 351 -217 428 -86 123 -283 348 -368 421 -219 189 -475 332 -765 430 -216 71 -286 82 -594 84 -148 2 -283 1 -300 -1z"/>
</g>
</g>
</svg>
