<?xml version="1.0" standalone="no"?>
<!DOCTYPE svg PUBLIC "-//W3C//DTD SVG 1.1//EN"
 "http://www.w3.org/Graphics/SVG/1.1/DTD/svg11.dtd">
<!-- Created with svg_stack (http://github.com/astraw/svg_stack) -->
<svg xmlns:sodipodi="http://sodipodi.sourceforge.net/DTD/sodipodi-0.dtd" xmlns="http://www.w3.org/2000/svg" version="1.1" width="1983.75" height="1458.75">
  <defs/>
  <g id="id0:id0" transform="matrix(1.25,0,0,1.25,0.0,0.0)"><g transform="translate(0.000000,1167.000000) scale(0.100000,-0.100000)" fill="#999999" stroke="none">
<path d="M11545 11664 c-310 -24 -754 -132 -1047 -255 -221 -93 -547 -278 -738 -420 -286 -212 -541 -468 -787 -789 -182 -239 -406 -682 -496 -985 -120 -400 -167 -707 -167 -1084 0 -387 47 -695 167 -1096 90 -302 313 -744 497 -985 387 -508 775 -834 1318 -1110 l158 -80 2710 0 2710 0 0 370 0 370 -752 0 -752 0 70 73 c295 302 579 736 715 1094 134 351 193 557 228 798 69 472 50 978 -54 1396 -57 224 -180 560 -281 761 -245 490 -637 948 -1099 1286 -269 196 -709 418 -990 500 -465 135 -581 152 -1030 157 -181 1 -352 1 -380 -1z m755 -762 c322 -52 518 -116 830 -272 231 -116 363 -201 561 -362 232 -188 535 -580 693 -897 89 -178 124 -267 186 -486 83 -289 105 -448 104 -765 -1 -315 -22 -466 -104 -756 -101 -353 -224 -603 -450 -910 -257 -350 -497 -563 -863 -768 l-154 -86 -1236 0 -1236 0 -110 60 c-217 118 -304 177 -486 326 -84 69 -243 233 -362 374 -228 270 -451 721 -547 1105 -95 379 -95 941 -1 1318 102 409 328 854 579 1142 300 345 511 512 890 702 362 182 584 247 1016 297 19 2 154 3 300 1 204 -3 294 -8 390 -23z"/>
<path d="M1861 5148 c-1019 -2537 -1855 -4617 -1857 -4623 -5 -11 671 -279 684 -271 4 2 687 1694 1517 3760 830 2066 1512 3756 1515 3756 3 0 694 -1716 1535 -3812 841 -2097 1542 -3846 1558 -3885 l29 -73 1754 0 1754 0 0 375 0 375 -1504 0 -1503 0 -20 47 c-11 27 -824 2054 -1808 4506 -984 2451 -1792 4457 -1795 4457 -3 0 -840 -2076 -1859 -4612z"/>
</g>
</g>
  <g id="id1:id1" transform="matrix(1.25,0,0,1.25,0.0,0.0)"><g transform="translate(0.000000,1167.000000) scale(0.100000,-0.100000)" fill="#ffffff" stroke="none">
</g>
</g>
</svg>
