<?xml version="1.0" standalone="no"?>
<!DOCTYPE svg PUBLIC "-//W3C//DTD SVG 1.1//EN"
 "http://www.w3.org/Graphics/SVG/1.1/DTD/svg11.dtd">
<!-- Created with svg_stack (http://github.com/astraw/svg_stack) -->
<svg xmlns:sodipodi="http://sodipodi.sourceforge.net/DTD/sodipodi-0.dtd" xmlns="http://www.w3.org/2000/svg" version="1.1" width="1597.5" height="1596.25">
  <defs/>
  <g id="id0:id0" transform="matrix(1.25,0,0,1.25,0.0,0.0)"><g transform="translate(0.000000,1277.000000) scale(0.100000,-0.100000)" fill="#00ff00" stroke="none">
<path d="M6000 12760 c-398 -21 -955 -114 -1347 -226 -680 -194 -1222 -446 -1823 -847 -955 -638 -1736 -1549 -2238 -2612 -200 -424 -382 -986 -466 -1440 -161 -870 -161 -1630 0 -2500 84 -454 266 -1017 466 -1440 503 -1063 1283 -1974 2238 -2612 601 -401 1143 -653 1823 -847 307 -87 617 -147 1027 -197 263 -32 269 -33 710 -33 441 0 447 1 710 33 416 51 721 110 1020 196 849 247 1513 586 2219 1134 1051 815 1815 1959 2191 3281 374 1314 321 2640 -159 3960 -158 435 -412 936 -672 1325 -371 556 -843 1065 -1359 1466 -706 548 -1371 887 -2220 1134 -299 86 -616 147 -1020 195 -228 28 -292 31 -605 34 -192 3 -415 1 -495 -4z m890 -3401 c210 -27 256 -37 435 -91 220 -66 359 -128 514 -228 203 -132 438 -388 542 -591 42 -84 126 -305 142 -374 20 -87 57 -351 57 -403 l0 -38 -580 -24 c-319 -13 -582 -21 -585 -18 -3 2 -23 72 -46 154 -140 510 -436 690 -1105 671 -293 -9 -430 -40 -615 -141 -175 -97 -257 -197 -280 -346 -23 -152 26 -295 137 -400 89 -84 127 -106 320 -184 205 -82 271 -103 604 -188 151 -38 377 -96 502 -128 124 -32 232 -61 239 -66 7 -4 90 -31 184 -60 698 -213 1087 -534 1288 -1064 61 -159 76 -244 97 -517 21 -270 -13 -511 -104 -749 -38 -100 -150 -330 -164 -336 -5 -1 -24 -26 -43 -54 -59 -89 -218 -260 -303 -327 -192 -151 -341 -230 -588 -313 -209 -70 -303 -94 -473 -119 -138 -20 -475 -45 -620 -45 -181 0 -473 20 -580 40 -55 11 -122 22 -150 25 -63 8 -329 86 -455 132 -94 35 -292 137 -380 196 -78 53 -254 214 -322 294 -148 178 -188 236 -260 380 -136 273 -221 546 -258 827 -6 50 -13 93 -15 96 -2 3 253 30 567 60 470 44 571 51 578 40 4 -7 11 -34 15 -59 11 -79 53 -235 83 -308 73 -178 206 -363 341 -471 203 -163 442 -244 762 -258 399 -17 730 77 949 269 143 124 233 294 255 478 12 109 -32 278 -99 376 -40 61 -146 141 -266 202 -109 56 -404 151 -645 209 -88 22 -254 64 -370 96 -115 31 -255 68 -310 83 -246 65 -567 184 -765 283 -112 56 -274 167 -372 255 -217 194 -395 484 -469 765 -25 96 -52 376 -44 460 18 198 38 287 101 455 60 159 97 225 214 380 121 160 184 222 326 319 171 116 314 186 514 251 214 69 263 81 460 110 135 20 198 23 480 24 309 1 336 0 560 -30z"/>
</g>
</g>
  <g id="id1:id1" transform="matrix(1.25,0,0,1.25,0.0,0.0)"><g transform="translate(0.000000,1277.000000) scale(0.100000,-0.100000)" fill="#ffffff" stroke="none">
<path d="M5850 9365 c-197 -29 -246 -41 -460 -110 -200 -65 -343 -135 -514 -251 -142 -97 -205 -159 -326 -319 -117 -155 -154 -221 -214 -380 -63 -168 -83 -257 -101 -455 -8 -84 19 -364 44 -460 74 -281 252 -571 469 -765 98 -88 260 -199 372 -255 198 -99 519 -218 765 -283 55 -15 195 -52 310 -83 116 -32 282 -74 370 -96 241 -58 536 -153 645 -209 120 -61 226 -141 266 -202 67 -98 111 -267 99 -376 -16 -134 -49 -219 -135 -346 -185 -271 -585 -421 -1069 -401 -320 14 -559 95 -762 258 -135 108 -268 293 -341 471 -30 73 -72 229 -83 308 -4 25 -11 52 -15 59 -7 11 -108 4 -578 -40 -314 -30 -569 -57 -567 -60 2 -3 9 -46 15 -96 37 -281 122 -554 258 -827 72 -144 112 -202 260 -380 68 -80 244 -241 322 -294 88 -59 286 -161 380 -196 126 -46 392 -124 455 -132 28 -3 95 -14 150 -25 107 -20 399 -40 580 -40 145 0 482 25 620 45 170 25 264 49 473 119 247 83 396 162 588 313 85 67 244 238 303 327 19 28 38 53 43 54 14 6 126 236 164 336 91 238 125 479 104 749 -21 273 -36 358 -97 517 -201 530 -590 851 -1288 1064 -94 29 -177 56 -184 60 -7 5 -115 34 -239 66 -912 233 -866 220 -1106 316 -193 78 -231 100 -320 184 -111 105 -160 248 -137 400 23 149 105 249 280 346 185 101 322 132 615 141 560 16 850 -108 1020 -437 29 -55 59 -138 85 -234 23 -82 43 -152 46 -154 3 -3 266 5 585 18 l580 24 0 38 c0 52 -37 316 -57 403 -16 69 -100 290 -142 374 -104 203 -339 459 -542 591 -155 100 -294 162 -514 228 -179 54 -225 64 -435 91 -224 30 -251 31 -560 30 -282 -1 -345 -4 -480 -24z"/>
</g>
</g>
</svg>
