<?xml version="1.0" standalone="no"?>
<!DOCTYPE svg PUBLIC "-//W3C//DTD SVG 1.1//EN"
 "http://www.w3.org/Graphics/SVG/1.1/DTD/svg11.dtd">
<!-- Created with svg_stack (http://github.com/astraw/svg_stack) -->
<svg xmlns:sodipodi="http://sodipodi.sourceforge.net/DTD/sodipodi-0.dtd" xmlns="http://www.w3.org/2000/svg" version="1.1" width="1596.25" height="1597.5">
  <defs/>
  <g id="id0:id0" transform="matrix(1.25,0,0,1.25,0.0,0.0)"><g transform="translate(0.000000,1278.000000) scale(0.100000,-0.100000)" fill="#000000" stroke="none">
<path d="M5830 11190 c-300 -368 -549 -670 -554 -670 -5 0 -371 138 -813 306 -443 168 -807 303 -810 300 -3 -3 -70 -389 -149 -857 -79 -468 -145 -853 -146 -854 -2 -1 -388 -64 -858 -140 -470 -76 -856 -139 -857 -140 -1 0 137 -370 307 -820 170 -451 306 -822 302 -826 -4 -4 -306 -250 -670 -547 -365 -297 -663 -544 -662 -548 1 -5 300 -254 664 -552 363 -299 664 -547 668 -551 4 -4 -132 -373 -302 -821 -170 -447 -309 -814 -307 -815 1 -1 387 -64 857 -140 470 -76 856 -139 858 -140 1 -2 67 -386 146 -854 79 -468 146 -854 149 -857 3 -3 368 130 812 296 443 166 810 300 815 298 4 -2 252 -302 550 -668 298 -366 546 -665 550 -665 5 0 254 299 555 665 301 366 550 666 555 668 5 2 372 -132 815 -298 444 -166 809 -299 812 -297 3 3 68 389 144 858 76 469 140 853 142 854 1 1 387 64 857 140 470 76 856 139 857 140 2 1 -137 368 -307 815 -170 448 -306 817 -302 821 4 4 305 252 668 551 364 298 663 547 664 552 1 4 -297 251 -662 548 -364 297 -666 543 -670 547 -4 4 132 375 302 826 170 450 308 820 307 820 -1 1 -387 64 -857 140 -470 76 -856 139 -857 140 -2 1 -66 385 -142 854 -76 469 -141 855 -144 858 -3 3 -368 -133 -812 -302 -443 -168 -809 -305 -814 -303 -5 2 -212 253 -461 558 -249 305 -458 560 -465 565 -6 6 -49 55 -94 110 -46 55 -86 101 -89 102 -4 2 -252 -299 -552 -667z m320 -1430 l0 -1099 -37 -6 c-192 -28 -400 -83 -594 -158 l-67 -25 -543 941 c-299 517 -547 946 -551 952 -4 7 230 -77 520 -186 290 -110 532 -199 537 -199 6 0 172 198 370 440 198 242 361 440 363 440 1 0 2 -495 2 -1100z m795 695 c181 -220 342 -417 359 -437 17 -21 36 -38 41 -38 6 0 248 90 540 200 291 109 530 198 531 197 1 -2 -1092 -1896 -1099 -1903 -2 -3 -46 12 -98 31 -173 67 -421 133 -561 150 l-48 6 0 1101 c0 606 2 1099 4 1097 2 -2 151 -184 331 -404z m-2435 -1273 c293 -508 533 -929 534 -936 0 -7 -48 -53 -109 -101 -127 -102 -252 -227 -338 -337 -33 -43 -64 -78 -68 -78 -8 0 -1877 1076 -1891 1089 -4 3 246 49 555 100 309 52 563 96 565 97 2 1 43 244 93 540 106 641 96 592 113 568 7 -10 253 -434 546 -942z m4393 406 c49 -293 91 -542 93 -553 5 -18 54 -28 569 -115 311 -52 561 -98 557 -101 -14 -13 -1883 -1089 -1891 -1089 -4 0 -36 36 -70 81 -80 103 -242 266 -351 354 -47 37 -84 74 -84 81 2 17 1074 1874 1083 1874 3 0 46 -240 94 -532z m-5509 -1732 c500 -290 911 -528 914 -530 2 -2 -6 -22 -17 -44 -30 -58 -107 -296 -126 -388 -9 -42 -21 -122 -28 -176 l-11 -98 -1105 0 c-926 0 -1103 2 -1091 13 8 8 204 168 435 357 231 189 426 348 432 354 10 9 -32 127 -192 546 -113 294 -205 536 -205 538 0 2 19 -8 43 -22 23 -13 451 -261 951 -550z m6770 43 c-108 -288 -197 -529 -198 -536 0 -6 195 -172 434 -368 239 -196 439 -361 445 -366 5 -5 -441 -9 -1097 -9 l-1105 0 -7 71 c-11 121 -121 512 -172 610 l-13 26 952 550 c524 303 953 550 955 548 2 -1 -86 -238 -194 -526z m-3358 258 c242 -57 453 -152 639 -289 108 -79 361 -339 431 -443 68 -99 159 -276 205 -394 104 -271 137 -607 90 -916 -44 -288 -130 -507 -295 -750 -68 -99 -262 -306 -374 -397 -235 -192 -530 -320 -842 -364 -204 -29 -345 -30 -532 -4 -173 25 -299 58 -438 117 -224 95 -397 211 -573 382 -176 172 -230 248 -351 489 -133 266 -196 524 -196 807 0 302 66 555 224 861 100 193 132 239 271 383 265 275 555 442 895 516 211 46 186 43 455 40 235 -3 243 -3 391 -38z m-2663 -2129 c20 -144 69 -324 123 -457 20 -48 36 -92 37 -99 2 -10 -946 -565 -1850 -1083 l-53 -30 24 63 c14 35 106 277 205 538 141 371 178 477 168 486 -6 6 -201 166 -432 354 -231 189 -424 347 -429 352 -6 4 485 8 1090 8 l1099 0 18 -132z m6691 124 c-5 -5 -198 -163 -429 -352 -231 -189 -426 -348 -433 -354 -9 -9 30 -125 188 -546 109 -294 198 -535 197 -536 -2 -2 -1111 636 -1794 1032 l-113 65 14 27 c49 96 160 484 172 605 l7 67 1100 0 c606 0 1097 -4 1091 -8z m-6237 -1169 c86 -111 200 -225 333 -333 63 -51 114 -99 114 -106 -1 -7 -246 -436 -545 -954 -405 -702 -545 -937 -551 -923 -4 10 -46 252 -93 538 -47 286 -88 531 -90 545 l-6 26 -559 89 c-308 50 -560 92 -560 95 0 5 1879 1097 1891 1099 4 1 33 -34 66 -76z m4581 -473 c518 -300 942 -547 942 -550 0 -3 -252 -45 -559 -95 -517 -82 -560 -91 -565 -110 -2 -11 -44 -260 -93 -552 -48 -293 -91 -533 -94 -533 -9 0 -1081 1857 -1083 1874 0 7 37 44 84 82 112 90 269 249 349 352 35 45 67 81 71 80 4 -2 430 -248 948 -548z m-3454 -287 c127 -39 264 -71 354 -83 35 -5 66 -10 68 -13 2 -2 3 -497 2 -1100 l-3 -1096 -360 439 c-198 242 -364 440 -370 440 -5 0 -247 -89 -537 -199 -290 -109 -524 -193 -520 -186 4 6 252 435 550 952 l544 941 81 -31 c45 -16 131 -45 191 -64z m2145 -858 c301 -522 548 -951 547 -952 -1 -1 -240 88 -531 198 -292 109 -535 198 -542 197 -6 -2 -172 -199 -368 -438 -196 -239 -359 -437 -361 -439 -2 -2 -4 491 -4 1097 l0 1101 48 6 c140 17 386 83 557 149 50 19 93 34 97 33 4 -1 255 -429 557 -952z"/>
</g>
</g>
  <g id="id1:id1" transform="matrix(1.25,0,0,1.25,0.0,0.0)"><g transform="translate(0.000000,1278.000000) scale(0.100000,-0.100000)" fill="#ffffff" stroke="none">
<path d="M0 6390 l0 -6390 6385 0 6385 0 0 6390 0 6390 -6385 0 -6385 0 0 -6390z m6471 5365 c45 -55 88 -104 94 -110 7 -5 216 -260 465 -565 249 -305 456 -556 461 -558 5 -2 371 135 814 303 444 169 809 305 812 302 3 -3 68 -389 144 -858 76 -469 140 -853 142 -854 1 -1 387 -64 857 -140 470 -76 856 -139 857 -140 1 0 -137 -370 -307 -820 -170 -451 -306 -822 -302 -826 4 -4 306 -250 670 -547 365 -297 663 -544 662 -548 -1 -5 -300 -254 -664 -552 -363 -299 -664 -547 -668 -551 -4 -4 132 -373 302 -821 170 -447 309 -814 307 -815 -1 -1 -387 -64 -857 -140 -470 -76 -856 -139 -857 -140 -2 -1 -66 -385 -142 -854 -76 -469 -141 -855 -144 -858 -3 -2 -368 131 -812 297 -443 166 -810 300 -815 298 -5 -2 -254 -302 -555 -668 -301 -366 -550 -665 -555 -665 -4 0 -252 299 -550 665 -298 366 -546 666 -550 668 -5 2 -372 -132 -815 -298 -444 -166 -809 -299 -812 -296 -3 3 -70 389 -149 857 -79 468 -145 852 -146 854 -2 1 -388 64 -858 140 -470 76 -856 139 -857 140 -2 1 137 368 307 815 170 448 306 817 302 821 -4 4 -305 252 -668 551 -364 298 -663 547 -664 552 -1 4 297 251 662 548 364 297 666 543 670 547 4 4 -132 375 -302 826 -170 450 -308 820 -307 820 1 1 387 64 857 140 470 76 856 139 858 140 1 1 67 386 146 854 79 468 146 854 149 857 3 3 367 -132 810 -300 442 -168 808 -306 813 -306 5 0 254 302 554 670 300 368 548 669 552 667 3 -1 43 -47 89 -102z"/>
<path d="M5785 10420 c-198 -242 -364 -440 -370 -440 -5 0 -247 89 -537 199 -290 109 -524 193 -520 186 4 -6 252 -435 551 -952 l543 -941 67 25 c194 75 402 130 594 158 l37 6 0 1099 c0 605 -1 1100 -2 1100 -2 0 -165 -198 -363 -440z"/>
<path d="M6610 9762 l0 -1101 48 -6 c140 -17 388 -83 561 -150 52 -19 96 -34 98 -31 7 7 1100 1901 1099 1903 -1 1 -240 -88 -531 -197 -292 -110 -534 -200 -540 -200 -5 0 -24 17 -41 38 -17 20 -178 217 -359 437 -180 220 -329 402 -331 404 -2 2 -4 -491 -4 -1097z"/>
<path d="M3946 10119 c-3 -13 -46 -266 -95 -563 -50 -296 -91 -539 -93 -540 -2 -1 -256 -45 -565 -97 -309 -51 -559 -97 -555 -100 14 -13 1883 -1089 1891 -1089 4 0 35 35 68 78 86 110 211 235 338 337 61 48 109 94 109 101 -1 11 -1046 1829 -1080 1878 -12 18 -13 18 -18 -5z"/>
<path d="M8265 9189 c-296 -512 -538 -936 -539 -943 0 -7 37 -44 84 -81 109 -88 271 -251 351 -354 34 -45 66 -81 70 -81 8 0 1877 1076 1891 1089 4 3 -246 49 -557 101 -515 87 -564 97 -569 115 -2 11 -44 260 -93 553 -48 292 -91 532 -94 532 -4 0 -249 -419 -544 -931z"/>
<path d="M2400 8428 c0 -2 92 -244 205 -538 160 -419 202 -537 192 -546 -6 -6 -201 -165 -432 -354 -231 -189 -427 -349 -435 -357 -12 -11 165 -13 1091 -13 l1105 0 11 98 c7 54 19 134 28 176 19 92 96 330 126 388 11 22 19 42 17 44 -3 2 -414 240 -914 530 -500 289 -928 537 -951 550 -24 14 -43 24 -43 22z"/>
<path d="M9403 7877 l-952 -550 13 -26 c51 -98 161 -489 172 -610 l7 -71 1105 0 c656 0 1102 4 1097 9 -6 5 -206 170 -445 366 -239 196 -434 362 -434 368 1 7 90 248 198 536 108 288 196 525 194 526 -2 2 -431 -245 -955 -548z"/>
<path d="M6145 8193 c-16 -2 -100 -20 -185 -38 -340 -74 -630 -241 -895 -516 -139 -144 -171 -190 -271 -383 -158 -306 -224 -559 -224 -861 0 -207 42 -436 114 -627 30 -78 120 -261 179 -363 118 -203 409 -474 647 -603 200 -108 388 -169 618 -202 428 -60 859 30 1214 253 123 78 214 155 353 298 329 341 497 761 498 1244 0 150 -27 362 -63 490 -47 166 -152 390 -254 540 -70 104 -323 364 -431 443 -186 137 -397 232 -639 289 -148 35 -156 35 -391 38 -132 2 -253 1 -270 -2z"/>
<path d="M1936 6152 c5 -5 198 -163 429 -352 231 -188 426 -348 432 -354 10 -9 -27 -115 -168 -486 -99 -261 -191 -503 -205 -538 l-24 -63 53 30 c904 518 1852 1073 1850 1083 -1 7 -17 51 -37 99 -54 133 -103 313 -123 457 l-18 132 -1099 0 c-605 0 -1096 -4 -1090 -8z"/>
<path d="M8636 6093 c-12 -121 -123 -509 -172 -605 l-14 -27 113 -65 c683 -396 1792 -1034 1794 -1032 1 1 -88 242 -197 536 -158 421 -197 537 -188 546 7 6 202 165 433 354 231 189 424 347 429 352 6 4 -485 8 -1091 8 l-1100 0 -7 -67z"/>
<path d="M3583 4511 c-519 -300 -943 -548 -943 -551 0 -3 252 -45 560 -95 l559 -89 6 -26 c2 -14 43 -259 90 -545 47 -286 89 -528 93 -538 6 -14 146 221 551 923 299 518 544 947 545 954 0 7 -51 55 -114 106 -133 108 -247 222 -333 333 -33 42 -62 77 -66 76 -3 -1 -430 -247 -948 -548z"/>
<path d="M8159 4978 c-80 -103 -237 -262 -349 -352 -47 -38 -84 -75 -84 -82 2 -17 1074 -1874 1083 -1874 3 0 46 240 94 533 49 292 91 541 93 552 5 19 48 28 565 110 307 50 559 92 559 95 0 4 -1866 1088 -1890 1098 -4 1 -36 -35 -71 -80z"/>
<path d="M4908 3377 c-298 -517 -546 -946 -550 -952 -4 -7 230 77 520 186 290 110 532 199 537 199 6 0 172 -198 370 -440 l360 -439 3 1096 c1 603 0 1098 -2 1100 -2 3 -33 8 -68 13 -135 17 -360 78 -545 147 l-81 31 -544 -941z"/>
<path d="M7215 4284 c-171 -66 -417 -132 -557 -149 l-48 -6 0 -1101 c0 -606 2 -1099 4 -1097 2 2 165 200 361 439 196 239 362 436 368 438 7 1 250 -88 542 -197 291 -110 530 -199 531 -198 3 4 -1097 1902 -1104 1904 -4 1 -47 -14 -97 -33z"/>
</g>
</g>
</svg>
