<?xml version="1.0" encoding="UTF-8" standalone="no"?>
<!-- Created with Inkscape (http://www.inkscape.org/) -->

<svg
   xmlns:dc="http://purl.org/dc/elements/1.1/"
   xmlns:cc="http://creativecommons.org/ns#"
   xmlns:rdf="http://www.w3.org/1999/02/22-rdf-syntax-ns#"
   xmlns:svg="http://www.w3.org/2000/svg"
   xmlns="http://www.w3.org/2000/svg"
   xmlns:inkscape="http://www.inkscape.org/namespaces/inkscape"
   version="1.1"
   width="100%"
   height="100%"
   viewBox="0 0 351.50779 351.709"
   id="svg14406"
   xml:space="preserve"
   style="fill-rule:evenodd;stroke-linecap:round;stroke-linejoin:round"><metadata
     id="metadata15229"><rdf:RDF><cc:Work
         rdf:about=""><dc:format>image/svg+xml</dc:format><dc:type
           rdf:resource="http://purl.org/dc/dcmitype/StillImage" /></cc:Work></rdf:RDF></metadata><defs
     id="defs14408"><clipPath
       id="clipId0"><path
         d="M 0,600 800,600 800,0 0,0 z"
         inkscape:connector-curvature="0"
         id="path14411" /></clipPath></defs><g
     transform="translate(-224.412,-123.9375)"
     clip-path="url(#clipId0)"
     id="g14413"
     style="fill:none;stroke:#000000;stroke-width:0.1" /><g
     transform="translate(-224.412,-123.9375)"
     clip-path="url(#clipId0)"
     id="g14415"
     style="fill:#ffffff;stroke:none"><path
       d="m 400.15625,132.4375 c -51.81502,-0.12988 -102.90021,25.22161 -133.77571,66.89063 -34.52164,45.1624 -43.26312,108.37147 -22.1905,161.18111 20.33768,53.7769 70.37667,94.78155 127.09184,104.20729 56.23317,10.37192 116.83099,-10.93014 154.32655,-54.0816 38.19847,-42.54901 51.79298,-105.35562 34.50787,-159.87447 -16.30724,-54.80279 -62.78253,-99.14709 -118.26209,-112.95666 -13.59911,-3.58622 -27.65253,-5.12271 -41.69796,-5.3663 z"
       inkscape:connector-curvature="0"
       id="path14571" /></g><g
     transform="translate(-224.412,-123.9375)"
     clip-path="url(#clipId0)"
     id="g14573"
     style="fill:#000000;stroke:none"><path
       d="m 399.6875,123.9375 c -49.51141,0.41517 -98.66381,22.1487 -131.2778,59.65372 -40.12161,44.67759 -54.35066,110.61955 -36.24895,167.87647 17.15655,57.52993 65.91905,104.10457 124.18199,118.59926 58.02356,15.43885 123.25015,-1.7868 166.02978,-43.93855 C 565.8652,384.74765 585.20741,320.12363 571.64966,261.64264 559.09477,202.94147 514.14067,152.64629 457.17104,133.68372 438.71185,127.2226 419.19906,124.37109 399.6875,123.9375 z m 0.125,16.84375 c 52.473,-0.22818 104.31263,27.20551 132.88247,71.40514 31.25087,46.10123 34.97935,108.86111 9.82563,158.50406 -25.04338,51.40828 -79.63668,86.69729 -136.85307,88.02605 -55.63226,2.53584 -111.09139,-27.05592 -140.28092,-74.43731 -29.15046,-45.84725 -32.17719,-106.74837 -7.58429,-155.21484 23.82279,-48.83558 74.18701,-83.18159 128.34462,-87.57271 4.53449,-0.45562 9.11535,-0.44103 13.66556,-0.71039 z"
       inkscape:connector-curvature="0"
       id="path14733" /></g><g
     transform="translate(-224.412,-123.9375)"
     clip-path="url(#clipId0)"
     id="g14735"
     style="fill:none;stroke:#000000;stroke-width:0.25"><polyline
       points="400.15,132.449 400.15,132.449 "
       id="polyline14737" /></g><g
     transform="translate(-224.412,-123.9375)"
     clip-path="url(#clipId0)"
     id="g14739"
     style="fill:#510000;stroke:none"><path
       d="m 395.375,252.03125 -9.5625,167.4375 9.5625,0 9.5625,0 9.5625,0 -9.5625,-167.4375 -9.5625,0 z"
       inkscape:connector-curvature="0"
       id="path14747" /></g><g
     transform="translate(-224.412,-123.9375)"
     clip-path="url(#clipId0)"
     id="g14749"
     style="fill:#00ff00;stroke:none"><path
       d="m 453.71875,180.28125 c -6.83464,1.72241 -14.36594,1.53677 -20.22313,5.91744 -9.04882,4.59038 -17.24776,10.71122 -25.06767,17.05914 -3.46329,5.48463 -7.71465,10.7134 -10.70472,16.34798 -0.50201,2.21918 0.36069,9.81276 -1.03732,8.50345 -3.56606,-5.19521 -6.0086,-11.3545 -10.29109,-15.93495 -4.9313,-3.60677 -8.88229,-8.94022 -15.146,-10.18938 -7.83004,-2.80049 -15.60142,-5.82051 -23.93607,-6.6955 -5.80125,-0.77075 -11.63096,-3.18454 -17.36412,-0.84755 -7.47901,1.37562 -14.75522,3.39917 -21.63613,6.68317 -5.98835,2.37828 -10.13575,7.83975 -15.33325,11.54333 -1.9605,1.91511 -6.81413,5.12907 -7.06666,6.27741 6.49569,-0.67112 13.09232,-2.57922 19.52491,-2.47699 4.13831,1.35662 8.29171,2.66654 12.4375,4 -3.1875,2.875 -6.375,5.75 -9.5625,8.625 12.27049,-0.17328 24.54137,-0.34222 36.8125,-0.49985 -7.00289,2.26267 -14.02176,4.47632 -21.03125,6.71875 14.03523,1.5625 28.06483,3.16689 42.09375,4.78115 -7.51097,2.83652 -14.98572,5.7667 -22.5,8.59375 10.36054,1.78371 20.7361,3.47987 31.09375,5.2812 -5.63238,2.55124 -12.04526,3.92607 -16.00919,9.05637 -5.56134,3.97336 -6.97029,10.95816 -10.12791,16.67129 -3.37417,6.92062 -5.51571,14.42705 -7.83186,21.72171 -0.10667,7.98698 -1.99291,16.11099 0.50673,23.89568 1.074,4.54634 1.18033,9.54219 4.85594,12.89947 2.0478,2.68782 4.10025,5.37219 6.13754,8.06798 0.0323,-6.7202 -1.48226,-13.62539 1.22836,-20.02862 1.06981,-1.70395 1.46992,-10.54601 3.1013,-5.64239 1.35808,1.57626 3.36171,9.91917 4.23056,6.3136 2.89008,-11.08818 5.7824,-22.17578 8.65853,-33.26759 1.11458,6.69792 2.22917,13.39583 3.34375,20.09375 3.01699,-9.25466 6.06466,-18.49929 9.09375,-27.75 1.28125,4.94792 2.5625,9.89583 3.84375,14.84375 4.78034,-12.12537 9.55052,-24.25481 14.34375,-36.375 14.65223,13.41164 29.33092,26.79449 44,40.1875 -2.06686,-9.5638 -4.12126,-19.13036 -6.21875,-28.6875 11.96837,8.59045 23.90564,17.2235 35.875,25.8125 -2.07292,-8.29167 -4.14583,-16.58333 -6.21875,-24.875 10.04484,9.58053 20.10589,19.14401 30.15625,28.71875 -1.4375,-6.85417 -2.875,-13.70833 -4.3125,-20.5625 4.86658,4.23744 10.60753,7.7545 14.89298,12.47964 3.97731,7.31139 7.93512,14.63339 11.88827,21.95786 -0.32022,-7.48752 -0.004,-15.12435 -0.71354,-22.52055 -4.02509,-8.69073 -7.83489,-17.50203 -13.61938,-25.20754 -2.12629,-3.77152 -4.63956,-7.16525 -8.61125,-9.12699 -9.43007,-6.73438 -19.18984,-12.93513 -29.50332,-18.2343 -4.12154,-2.26927 -8.05386,-5.1997 -12.9997,-4.78103 -5.83961,-0.47909 -11.7259,-1.66402 -17.39616,0.43011 -4.274,0.95599 -8.53861,1.95402 -12.8129,2.90905 6.33896,-4.67466 12.7509,-9.24877 19.125,-13.875 -4.625,0 -9.25,0 -13.875,0 6.99501,-3.54173 14.02265,-7.01699 21.03125,-10.53125 -4.78445,-0.29055 -9.55915,-0.68033 -14.34375,-0.9687 6.87541,-4.90813 13.68596,-9.90575 20.5625,-14.8125 -3.66611,-0.96048 -7.33374,-1.91511 -11,-2.875 6.28624,-4.0439 11.77438,-9.68947 19.32957,-11.2329 4.0854,-1.36783 8.17876,-2.7118 12.26418,-4.0796 -6.27695,-2.03977 -12.54787,-4.08733 -19.22962,-3.95249 -1.56843,-0.1308 -3.13871,-0.24079 -4.70788,-0.36011 z"
       inkscape:connector-curvature="0"
       id="path15225" /></g></svg>