<?xml version="1.0" standalone="no"?>
<!DOCTYPE svg PUBLIC "-//W3C//DTD SVG 1.1//EN"
 "http://www.w3.org/Graphics/SVG/1.1/DTD/svg11.dtd">
<!-- Created with svg_stack (http://github.com/astraw/svg_stack) -->
<svg xmlns:sodipodi="http://sodipodi.sourceforge.net/DTD/sodipodi-0.dtd" xmlns="http://www.w3.org/2000/svg" version="1.1" width="665.0" height="1595.0">
  <defs/>
  <g id="id0:id0" transform="matrix(1.25,0,0,1.25,0.0,0.0)"><g transform="translate(0.000000,1276.000000) scale(0.100000,-0.100000)" fill="#000000" stroke="none">
<path d="M1323 12007 l-1323 -752 0 -2852 0 -2853 1065 0 1065 0 0 -2775 0 -2775 530 0 530 0 0 2775 0 2775 1065 0 1065 0 0 2853 0 2852 -1321 750 c-726 413 -1328 751 -1337 752 -9 1 -612 -336 -1339 -750z m2140 -922 l787 -449 0 -2013 0 -2013 -1590 0 -1590 0 0 2013 0 2013 788 451 c433 248 794 451 803 450 9 -1 370 -204 802 -452z"/>
</g>
</g>
  <g id="id1:id1" transform="matrix(1.25,0,0,1.25,0.0,0.0)"><g transform="translate(0.000000,1276.000000) scale(0.100000,-0.100000)" fill="#ffffff" stroke="none">
</g>
</g>
</svg>
