<?xml version="1.0" standalone="no"?>
<!DOCTYPE svg PUBLIC "-//W3C//DTD SVG 1.1//EN"
 "http://www.w3.org/Graphics/SVG/1.1/DTD/svg11.dtd">
<!-- Created with svg_stack (http://github.com/astraw/svg_stack) -->
<svg xmlns:sodipodi="http://sodipodi.sourceforge.net/DTD/sodipodi-0.dtd" xmlns="http://www.w3.org/2000/svg" version="1.1" width="1983.75" height="1216.25">
  <defs/>
  <g id="id0:id0" transform="matrix(1.25,0,0,1.25,0.0,0.0)"><g transform="translate(0.000000,973.000000) scale(0.100000,-0.100000)" fill="#000000" stroke="none">
<path d="M0 4865 l0 -4865 7935 0 7935 0 0 4865 0 4865 -7935 0 -7935 0 0 -4865z m15320 0 l0 -4315 -3425 0 -3425 0 0 1240 0 1240 -535 0 -535 0 0 -1240 0 -1240 -3420 0 -3420 0 0 4315 0 4315 7380 0 7380 0 0 -4315z"/>
<path d="M4687 7852 c-286 -316 -513 -655 -737 -1101 -185 -371 -333 -884 -391 -1361 -19 -158 -23 -233 -22 -520 0 -287 3 -361 22 -515 41 -331 132 -708 245 -1016 134 -365 408 -853 670 -1188 110 -142 326 -383 338 -379 5 2 98 84 208 182 l199 180 -113 120 c-315 338 -638 862 -780 1270 -101 288 -173 585 -217 902 -32 231 -32 668 0 898 93 665 286 1186 620 1676 141 207 258 358 378 486 l112 121 -199 184 c-110 101 -204 185 -208 187 -4 1 -60 -56 -125 -126z"/>
<path d="M10880 7809 c-102 -93 -193 -178 -202 -187 -16 -16 -12 -23 83 -127 274 -300 533 -679 660 -967 197 -444 287 -754 350 -1204 32 -230 32 -667 0 -898 -61 -438 -162 -793 -335 -1176 -157 -346 -387 -689 -675 -1005 -78 -85 -98 -113 -88 -122 56 -54 393 -353 397 -353 8 0 210 233 334 384 116 141 268 370 385 578 265 473 464 1078 532 1623 19 154 22 228 22 515 1 382 -17 573 -79 870 -63 303 -196 701 -331 995 -132 289 -349 640 -529 861 -123 149 -326 384 -334 384 -3 0 -88 -77 -190 -171z"/>
<path d="M5809 6808 c-244 -270 -438 -589 -568 -935 -69 -183 -147 -504 -163 -668 -15 -164 -15 -513 1 -670 16 -155 97 -486 160 -653 103 -269 172 -406 299 -592 119 -173 331 -435 353 -435 4 0 98 83 208 184 l200 184 -64 71 c-97 107 -287 361 -334 448 -66 121 -178 400 -210 522 -62 232 -90 537 -72 762 26 314 65 488 162 715 116 273 241 474 427 684 l90 102 -198 179 c-110 98 -203 180 -208 182 -4 1 -42 -35 -83 -80z"/>
<path d="M9778 6708 l-197 -181 73 -81 c107 -120 167 -199 244 -326 169 -280 232 -428 301 -713 50 -205 65 -320 65 -527 0 -222 -16 -352 -69 -555 -56 -218 -100 -336 -181 -497 -101 -197 -215 -363 -371 -536 l-62 -69 195 -184 c107 -101 198 -185 203 -187 22 -8 261 283 351 428 289 462 390 737 466 1255 23 164 24 504 0 672 -39 283 -85 477 -160 674 -86 226 -275 564 -424 759 -59 78 -219 250 -232 250 -3 0 -94 -82 -202 -182z"/>
</g>
</g>
  <g id="id1:id1" transform="matrix(1.25,0,0,1.25,0.0,0.0)"><g transform="translate(0.000000,973.000000) scale(0.100000,-0.100000)" fill="#ffffff" stroke="none">
</g>
</g>
</svg>
