<?xml version="1.0" standalone="no"?>
<!DOCTYPE svg PUBLIC "-//W3C//DTD SVG 1.1//EN"
 "http://www.w3.org/Graphics/SVG/1.1/DTD/svg11.dtd">
<!-- Created with svg_stack (http://github.com/astraw/svg_stack) -->
<svg xmlns:sodipodi="http://sodipodi.sourceforge.net/DTD/sodipodi-0.dtd" xmlns="http://www.w3.org/2000/svg" version="1.1" width="1483.75" height="1598.75">
  <defs/>
  <g id="id0:id0" transform="matrix(1.25,0,0,1.25,0.0,0.0)"><g transform="translate(0.000000,1279.000000) scale(0.100000,-0.100000)" fill="#000000" stroke="none">
<path d="M1456 12666 c-84 -146 -255 -414 -377 -591 -114 -163 -136 -208 -187 -370 -23 -72 -73 -202 -112 -290 -39 -88 -87 -216 -107 -285 -77 -273 -183 -714 -212 -880 -28 -157 -31 -197 -31 -379 l0 -202 -88 -132 c-71 -107 -102 -166 -160 -307 l-72 -175 -56 -430 -56 -430 6 -520 c3 -286 10 -558 15 -605 5 -47 15 -170 21 -275 6 -104 22 -275 36 -380 37 -289 65 -587 84 -900 5 -93 15 -222 21 -285 5 -63 14 -182 19 -265 26 -409 34 -467 84 -645 24 -85 163 -424 190 -464 67 -98 172 -204 289 -291 71 -52 132 -95 137 -95 4 0 98 -57 207 -126 147 -94 249 -150 399 -219 186 -86 214 -96 402 -141 l202 -48 228 52 c125 29 292 64 372 79 138 25 156 32 365 126 303 137 512 254 765 428 312 215 474 366 851 799 161 184 306 354 323 377 16 24 31 42 32 40 1 -1 32 -119 69 -262 72 -281 135 -460 442 -1250 105 -273 192 -478 273 -645 65 -135 134 -279 153 -320 18 -41 72 -131 118 -200 46 -69 135 -204 198 -300 62 -96 140 -206 172 -245 33 -38 86 -104 118 -145 108 -138 245 -286 396 -427 83 -78 173 -164 200 -193 28 -28 145 -120 260 -204 l210 -153 205 -86 c319 -134 728 -249 1150 -323 133 -23 160 -31 190 -56 l35 -28 211 0 212 0 264 63 263 64 195 119 c266 163 412 279 588 467 125 134 161 181 298 389 137 209 166 261 241 430 47 106 123 301 169 432 136 387 160 551 184 1236 l11 306 -35 209 c-60 358 -248 1214 -395 1800 -120 482 -166 643 -326 1155 -102 327 -226 719 -275 870 -49 151 -163 514 -254 805 -145 464 -427 1297 -445 1317 -3 4 -60 -77 -125 -180 -401 -628 -438 -668 -879 -980 -422 -299 -647 -433 -972 -580 -442 -199 -592 -260 -815 -329 -191 -60 -262 -77 -475 -113 -137 -23 -277 -48 -309 -57 -53 -13 -73 -13 -180 1 -67 9 -173 20 -236 26 -63 6 -115 12 -117 14 -6 6 94 560 182 1006 72 368 105 562 136 805 54 431 229 1948 225 1953 -2 2 -172 -84 -377 -191 -367 -191 -380 -197 -694 -310 l-320 -116 -270 -50 c-268 -49 -273 -50 -647 -67 -360 -17 -391 -17 -710 0 -648 34 -1032 105 -1527 284 l-213 77 -105 124 c-83 98 -116 147 -162 240 -84 168 -134 327 -162 506 -39 257 -30 435 36 660 40 135 106 398 102 401 -1 1 -33 -53 -71 -120z m4660 -2143 c-3 -21 -22 -175 -41 -343 -96 -834 -142 -1149 -250 -1720 -139 -735 -181 -949 -188 -956 -3 -3 -164 9 -359 26 -342 31 -359 34 -538 81 -102 27 -254 74 -339 104 -85 30 -158 55 -162 55 -9 0 -7 -17 23 -160 10 -52 48 -234 83 -405 70 -340 213 -935 376 -1560 16 -60 40 -163 54 -229 15 -70 33 -129 45 -143 23 -29 26 -20 -64 -163 -89 -142 -624 -748 -815 -923 -245 -226 -603 -452 -1006 -637 -176 -81 -186 -84 -405 -131 -124 -26 -269 -58 -323 -71 l-97 -22 -137 33 c-110 27 -168 49 -302 113 -91 44 -224 115 -296 158 l-130 79 -27 68 c-34 84 -63 222 -78 376 -21 199 16 441 83 555 l32 54 121 -4 c117 -4 122 -5 175 -38 30 -19 94 -73 143 -120 l89 -85 -68 130 c-122 234 -216 318 -451 405 -79 30 -157 68 -191 94 -1 1 -9 35 -18 76 -15 73 -15 74 10 141 38 97 72 119 188 119 71 0 122 -9 265 -45 153 -38 415 -129 447 -154 5 -5 53 -32 105 -61 123 -67 207 -149 318 -310 91 -132 151 -196 244 -261 l57 -39 113 0 c100 0 254 12 314 25 32 7 112 83 135 126 l20 40 -31 99 c-32 103 -164 363 -233 457 -19 27 -44 66 -55 89 -45 90 -289 282 -564 445 -166 98 -534 230 -836 300 l-142 33 0 208 c0 200 -1 211 -24 256 l-24 47 -113 34 c-139 42 -200 79 -229 142 l-22 46 60 249 c33 137 68 285 77 329 10 44 39 170 65 280 l48 200 202 425 c225 473 270 585 270 665 0 77 -104 294 -185 385 -107 121 -128 213 -81 360 26 85 242 610 256 624 5 5 83 -20 192 -62 251 -98 541 -168 958 -232 287 -44 347 -50 674 -66 344 -17 375 -17 760 0 l401 18 295 54 295 55 345 126 c190 69 374 141 410 159 36 18 69 33 73 34 5 0 6 -17 3 -37z m-4879 -1094 c65 -28 121 -56 125 -62 4 -7 10 -37 13 -67 4 -30 17 -100 31 -155 32 -132 32 -163 -1 -171 -19 -5 -35 3 -75 37 l-50 42 -242 -7 c-225 -6 -248 -5 -305 14 -77 24 -119 45 -158 79 -17 14 -47 35 -67 45 -24 13 -39 30 -45 50 -8 27 -5 37 21 74 44 63 113 100 266 144 131 37 139 38 252 33 114 -5 121 -7 235 -56z m8830 -401 c-3 -8 -6 -5 -6 6 -1 11 2 17 5 13 3 -3 4 -12 1 -19z m-10 -80 c-3 -8 -6 -5 -6 6 -1 11 2 17 5 13 3 -3 4 -12 1 -19z m156 -698 c91 -283 199 -623 240 -755 42 -132 170 -541 286 -910 187 -596 225 -730 345 -1210 149 -598 329 -1417 376 -1710 l31 -190 -11 -280 c-23 -620 -46 -767 -169 -1110 -43 -121 -112 -299 -153 -395 -65 -155 -90 -198 -209 -377 -238 -356 -390 -502 -764 -733 l-150 -93 -205 -53 c-255 -67 -269 -67 -304 -13 -46 69 -95 250 -107 396 -10 123 -10 132 15 228 14 55 32 120 41 144 8 24 15 45 15 46 0 1 -29 22 -65 45 l-66 43 -92 -37 c-84 -33 -101 -36 -190 -36 l-97 0 -40 80 c-34 68 -40 89 -40 143 l0 63 118 18 c177 26 410 89 567 152 118 47 160 70 270 149 276 197 332 245 376 320 63 108 106 196 119 245 6 25 20 68 30 95 69 183 93 308 115 600 18 228 12 286 -34 350 -19 26 -50 51 -92 72 -60 31 -71 33 -164 33 -64 -1 -123 -7 -162 -18 -53 -15 -66 -23 -94 -62 -18 -25 -46 -61 -62 -79 -16 -19 -40 -59 -53 -88 -13 -29 -69 -144 -124 -255 -127 -253 -185 -327 -334 -427 l-101 -68 -115 -17 c-63 -9 -166 -27 -229 -38 -108 -20 -114 -21 -126 -4 -7 10 -50 101 -95 204 -45 103 -92 198 -105 211 l-23 24 -233 -38 c-257 -41 -324 -42 -403 -3 -37 17 -48 31 -75 87 -35 74 -41 119 -167 1276 l-56 520 10 331 c11 365 6 450 -34 549 -14 33 -44 81 -67 107 -36 39 -58 52 -148 86 -219 83 -310 167 -395 364 -39 90 -46 120 -84 361 -23 144 -55 311 -71 371 -16 60 -27 111 -25 114 3 2 90 19 193 38 246 43 607 156 878 274 105 45 191 84 193 85 2 2 -4 17 -12 34 -9 16 -16 34 -16 38 1 4 10 -9 21 -29 11 -21 22 -38 24 -38 2 0 101 45 218 99 411 190 886 485 1282 797 143 112 345 312 391 386 27 44 30 46 36 25 3 -12 81 -254 171 -537z m-2153 -665 c0 -5 -5 -3 -10 5 -5 8 -10 20 -10 25 0 6 5 3 10 -5 5 -8 10 -19 10 -25z m-1467 -2154 c56 -21 140 -61 187 -89 72 -43 93 -62 137 -124 77 -106 74 -120 -29 -185 -106 -65 -116 -70 -201 -99 -69 -24 -77 -24 -420 -24 l-349 0 -61 -34 c-52 -29 -76 -35 -148 -41 -48 -4 -110 -4 -138 0 -47 6 -51 9 -60 40 -11 42 -5 61 86 240 l71 140 126 68 c69 38 183 89 253 113 l128 45 158 -6 c151 -6 163 -8 260 -44z"/>
<path d="M3168 9867 c-57 -28 -69 -38 -88 -77 -19 -41 -20 -51 -10 -115 9 -62 15 -74 48 -104 125 -112 159 -125 442 -166 102 -14 194 -31 205 -37 11 -7 47 -26 80 -43 61 -31 365 -260 365 -274 0 -5 51 -64 113 -132 62 -68 155 -178 206 -244 52 -66 96 -122 98 -124 2 -3 12 4 23 15 20 19 19 20 -68 174 -171 299 -204 355 -271 449 -37 53 -77 113 -89 134 -75 129 -275 296 -462 384 -231 110 -459 195 -511 192 -8 0 -44 -15 -81 -32z"/>
<path d="M2964 8972 c-18 -4 -45 -24 -65 -47 -19 -22 -83 -96 -144 -165 -175 -199 -185 -213 -185 -252 0 -34 1 -35 53 -46 28 -6 98 -13 154 -15 l101 -4 89 -57 c48 -32 122 -73 163 -93 41 -20 120 -63 175 -98 55 -34 135 -74 179 -90 78 -28 79 -28 255 -21 97 4 208 11 247 17 l71 11 12 50 c11 49 11 50 -44 161 -72 147 -85 166 -187 283 -161 185 -222 238 -323 280 -49 20 -137 48 -195 60 -108 24 -301 38 -356 26z"/>
<path d="M2702 6725 c0 -16 2 -22 5 -12 2 9 2 23 0 30 -3 6 -5 -1 -5 -18z"/>
<path d="M2717 6511 c10 -255 52 -358 232 -566 190 -220 334 -428 478 -690 52 -94 64 -126 82 -216 l21 -106 -20 -89 c-11 -49 -20 -102 -20 -118 0 -16 -14 -53 -31 -83 -17 -30 -29 -56 -27 -59 3 -2 26 4 53 13 98 37 190 197 166 290 -5 21 -12 60 -16 88 -17 126 -302 605 -580 975 -237 316 -302 441 -336 645 -5 32 -6 2 -2 -84z"/>
<path d="M9480 7701 c-76 -10 -182 -62 -251 -122 -32 -28 -103 -108 -158 -177 -55 -70 -150 -177 -213 -239 -98 -97 -130 -122 -243 -186 -71 -41 -157 -82 -190 -91 -33 -9 -92 -30 -131 -47 -63 -27 -73 -35 -92 -75 -25 -51 -26 -56 -11 -140 10 -56 14 -65 52 -92 35 -24 56 -31 119 -37 42 -4 108 -4 148 0 70 7 72 8 215 110 80 57 186 142 236 189 50 47 95 86 100 86 5 0 56 64 115 143 133 177 258 301 362 359 l77 42 190 0 190 0 120 -37 c66 -21 128 -40 137 -43 23 -7 -161 180 -232 236 -30 23 -93 61 -140 82 -82 38 -88 39 -215 43 -71 2 -155 0 -185 -4z"/>
<path d="M9410 6406 c-103 -29 -130 -42 -235 -111 -86 -55 -145 -104 -208 -169 -216 -223 -289 -364 -273 -525 15 -147 8 -135 103 -172 l85 -33 100 33 c139 46 245 96 368 176 58 37 139 89 180 116 123 79 503 253 595 274 44 9 106 31 138 47 l57 31 0 56 c0 56 -1 58 -57 113 -41 40 -82 68 -136 93 -76 34 -82 35 -200 35 -111 0 -132 3 -236 35 -62 19 -125 35 -140 34 -14 -1 -78 -16 -141 -33z"/>
<path d="M10075 3960 c-52 -6 -227 -73 -260 -100 -5 -4 -53 -33 -106 -63 -95 -55 -97 -56 -200 -62 -90 -6 -115 -4 -182 14 -42 11 -81 21 -85 21 -4 0 54 -32 128 -71 74 -39 170 -91 213 -116 118 -69 146 -56 224 101 17 34 30 43 121 81 94 41 109 44 219 50 91 5 147 2 244 -12 l125 -19 130 -79 c103 -63 152 -101 243 -189 l113 -111 -35 71 c-57 114 -178 274 -234 309 -26 16 -64 44 -83 61 -25 22 -65 41 -135 62 -194 59 -286 70 -440 52z"/>
</g>
</g>
  <g id="id1:id1" transform="matrix(1.25,0,0,1.25,0.0,0.0)"><g transform="translate(0.000000,1279.000000) scale(0.100000,-0.100000)" fill="#ffffff" stroke="none">
<path d="M6040 10526 c-36 -18 -220 -90 -410 -159 l-345 -126 -295 -55 -295 -54 -401 -18 c-385 -17 -416 -17 -760 0 -327 16 -387 22 -674 66 -417 64 -707 134 -958 232 -109 42 -187 67 -192 62 -14 -14 -230 -539 -256 -624 -47 -147 -26 -239 81 -360 81 -91 185 -308 185 -385 0 -80 -45 -192 -270 -665 l-202 -425 -48 -200 c-26 -110 -55 -236 -65 -280 -9 -44 -44 -192 -77 -329 l-60 -249 22 -46 c29 -63 90 -100 229 -142 l113 -34 24 -47 c23 -45 24 -56 24 -256 l0 -208 142 -33 c302 -70 670 -202 836 -300 275 -163 519 -355 564 -445 11 -23 36 -62 55 -89 69 -94 201 -354 233 -457 l31 -99 -20 -40 c-23 -43 -103 -119 -135 -126 -60 -13 -214 -25 -314 -25 l-113 0 -57 39 c-93 65 -153 129 -244 261 -111 161 -195 243 -318 310 -52 29 -100 56 -105 61 -32 25 -294 116 -447 154 -143 36 -194 45 -265 45 -116 0 -150 -22 -188 -119 -25 -67 -25 -68 -10 -141 9 -41 17 -75 18 -76 34 -26 112 -64 191 -94 235 -87 329 -171 451 -405 l68 -130 -89 85 c-49 47 -113 101 -143 120 -53 33 -58 34 -175 38 l-121 4 -32 -54 c-67 -114 -104 -356 -83 -555 15 -154 44 -292 78 -376 l27 -68 130 -79 c72 -43 205 -114 296 -158 134 -64 192 -86 302 -113 l137 -33 97 22 c54 13 199 45 323 71 219 47 229 50 405 131 403 185 761 411 1006 637 191 175 726 781 815 923 90 143 87 134 64 163 -12 14 -30 73 -45 143 -14 66 -38 169 -54 229 -163 625 -306 1220 -376 1560 -35 171 -73 353 -83 405 -30 143 -32 160 -23 160 4 0 77 -25 162 -55 85 -30 237 -77 339 -104 179 -47 196 -50 538 -81 195 -17 356 -29 359 -26 7 7 49 221 188 956 108 571 154 886 250 1720 19 168 38 322 41 343 3 20 2 37 -3 37 -4 -1 -37 -16 -73 -34z m-2701 -647 c86 -24 251 -91 421 -172 187 -88 387 -255 462 -384 12 -21 52 -81 89 -134 67 -94 100 -150 271 -449 87 -154 88 -155 68 -174 -11 -11 -21 -18 -23 -15 -2 2 -46 58 -98 124 -51 66 -144 176 -206 244 -62 68 -113 127 -113 132 0 14 -304 243 -365 274 -33 17 -69 36 -80 43 -11 6 -103 23 -205 37 -283 41 -317 54 -442 166 -33 30 -39 42 -48 104 -10 64 -9 74 10 115 19 39 31 49 88 77 37 17 73 32 81 32 8 1 49 -8 90 -20z m-19 -933 c58 -12 146 -40 195 -60 101 -42 162 -95 323 -280 102 -117 115 -136 187 -283 55 -111 55 -112 44 -161 l-12 -50 -71 -11 c-39 -6 -150 -13 -247 -17 -176 -7 -177 -7 -255 21 -44 16 -124 56 -179 90 -55 35 -134 78 -175 98 -41 20 -115 61 -163 93 l-89 57 -101 4 c-56 2 -126 9 -154 15 -52 11 -53 12 -53 46 0 39 10 53 185 252 61 69 125 143 144 165 20 23 47 43 65 47 55 12 248 -2 356 -26z m-613 -2233 c-3 -10 -5 -4 -5 12 0 17 2 24 5 18 2 -7 2 -21 0 -30z m37 -232 c36 -134 114 -268 311 -531 153 -203 353 -508 437 -665 118 -218 136 -257 143 -310 4 -28 11 -67 16 -88 24 -93 -68 -253 -166 -290 -27 -9 -50 -15 -53 -13 -2 3 10 29 27 59 17 30 31 67 31 83 0 16 9 69 20 118 l20 89 -21 106 c-18 90 -30 122 -82 216 -144 262 -288 470 -478 690 -180 208 -222 311 -232 566 -4 86 -3 116 2 84 5 -27 16 -79 25 -114z"/>
<path d="M750 9452 c-153 -44 -222 -81 -266 -144 -26 -37 -29 -47 -21 -74 6 -20 21 -37 45 -50 20 -10 50 -31 67 -45 39 -34 81 -55 158 -79 57 -19 80 -20 305 -14 l242 7 50 -42 c40 -34 56 -42 75 -37 33 8 33 39 1 171 -14 55 -27 125 -31 155 -3 30 -9 60 -13 67 -4 6 -60 34 -125 62 -114 49 -121 51 -235 56 -113 5 -121 4 -252 -33z"/>
<path d="M10061 9034 c0 -11 3 -14 6 -6 3 7 2 16 -1 19 -3 4 -6 -2 -5 -13z"/>
<path d="M10051 8954 c0 -11 3 -14 6 -6 3 7 2 16 -1 19 -3 4 -6 -2 -5 -13z"/>
<path d="M10006 8762 c-46 -74 -248 -274 -391 -386 -396 -312 -871 -607 -1282 -797 -117 -54 -216 -99 -218 -99 -2 0 -13 17 -24 38 -11 20 -20 33 -21 29 0 -4 7 -22 16 -38 8 -17 14 -32 12 -34 -2 -1 -88 -40 -193 -85 -271 -118 -632 -231 -878 -274 -103 -19 -190 -36 -193 -38 -2 -3 9 -54 25 -114 16 -60 48 -227 71 -371 38 -241 45 -271 84 -361 85 -197 176 -281 395 -364 90 -34 112 -47 148 -86 23 -26 53 -74 67 -107 40 -99 45 -184 34 -549 l-10 -331 56 -520 c126 -1157 132 -1202 167 -1276 27 -56 38 -70 75 -87 79 -39 146 -38 403 3 l233 38 23 -24 c13 -13 60 -108 105 -211 45 -103 88 -194 95 -204 12 -17 18 -16 126 4 63 11 166 29 229 38 l115 17 101 68 c149 100 207 174 334 427 55 111 111 226 124 255 13 29 37 69 53 88 16 18 44 54 62 79 28 39 41 47 94 62 39 11 98 17 162 18 93 0 104 -2 164 -33 42 -21 73 -46 92 -72 46 -64 52 -122 34 -350 -22 -292 -46 -417 -115 -600 -10 -27 -24 -70 -30 -95 -13 -49 -56 -137 -119 -245 -44 -75 -100 -123 -376 -320 -110 -79 -152 -102 -270 -149 -157 -63 -390 -126 -567 -152 l-118 -18 0 -63 c0 -54 6 -75 40 -143 l40 -80 97 0 c89 0 106 3 190 36 l92 37 66 -43 c36 -23 65 -44 65 -45 0 -1 -7 -22 -15 -46 -9 -24 -27 -89 -41 -144 -25 -96 -25 -105 -15 -228 12 -146 61 -327 107 -396 35 -54 49 -54 304 13 l205 53 150 93 c374 231 526 377 764 733 119 179 144 222 209 377 41 96 110 274 153 395 123 343 146 490 169 1110 l11 280 -31 190 c-47 293 -227 1112 -376 1710 -120 480 -158 614 -345 1210 -116 369 -244 778 -286 910 -41 132 -149 472 -240 755 -90 283 -168 525 -171 537 -6 21 -9 19 -36 -25z m-126 -1100 c47 -21 110 -59 140 -82 71 -56 255 -243 232 -236 -9 3 -71 22 -137 43 l-120 37 -190 0 -190 0 -77 -42 c-104 -58 -229 -182 -362 -359 -59 -79 -110 -143 -115 -143 -5 0 -50 -39 -100 -86 -50 -47 -156 -132 -236 -189 -143 -102 -145 -103 -215 -110 -40 -4 -106 -4 -148 0 -63 6 -84 13 -119 37 -38 27 -42 36 -52 92 -15 84 -14 89 11 140 19 40 29 48 92 75 39 17 98 38 131 47 33 9 119 50 190 91 113 64 145 89 243 186 63 62 158 169 213 239 117 148 190 216 285 260 86 39 144 47 309 43 127 -4 133 -5 215 -43z m-189 -1257 c104 -32 125 -35 236 -35 118 0 124 -1 200 -35 54 -25 95 -53 136 -93 56 -55 57 -57 57 -113 l0 -56 -57 -31 c-32 -16 -94 -38 -138 -47 -92 -21 -472 -195 -595 -274 -41 -27 -122 -79 -180 -116 -123 -80 -229 -130 -368 -176 l-100 -33 -85 33 c-95 37 -88 25 -103 172 -16 161 57 302 273 525 63 65 122 114 208 169 105 69 132 82 235 111 63 17 127 32 141 33 15 1 78 -15 140 -34z m645 -2451 c146 -29 276 -74 314 -108 19 -17 57 -45 83 -61 56 -35 177 -195 234 -309 l35 -71 -113 111 c-91 88 -140 126 -243 189 l-130 79 -125 19 c-97 14 -153 17 -244 12 -110 -6 -125 -9 -219 -50 -91 -38 -104 -47 -121 -81 -78 -157 -106 -170 -224 -101 -43 25 -139 77 -213 116 -74 39 -132 71 -128 71 4 0 43 -10 85 -21 67 -18 92 -20 182 -14 103 6 105 7 200 62 53 30 101 59 106 63 6 5 53 27 105 51 131 58 269 73 416 43z"/>
<path d="M8040 7615 c0 -5 5 -17 10 -25 5 -8 10 -10 10 -5 0 6 -5 17 -10 25 -5 8 -10 11 -10 5z"/>
<path d="M6047 5436 c-70 -24 -184 -75 -253 -113 l-126 -68 -71 -140 c-91 -179 -97 -198 -86 -240 9 -31 13 -34 60 -40 28 -4 90 -4 138 0 72 6 96 12 148 41 l61 34 349 0 c343 0 351 0 420 24 85 29 95 34 201 99 103 65 106 79 29 185 -44 62 -65 81 -137 124 -47 28 -131 68 -187 89 -97 36 -109 38 -260 44 l-158 6 -128 -45z"/>
</g>
</g>
</svg>
