<?xml version="1.0" standalone="no"?>
<!DOCTYPE svg PUBLIC "-//W3C//DTD SVG 1.1//EN"
 "http://www.w3.org/Graphics/SVG/1.1/DTD/svg11.dtd">
<!-- Created with svg_stack (http://github.com/astraw/svg_stack) -->
<svg xmlns:sodipodi="http://sodipodi.sourceforge.net/DTD/sodipodi-0.dtd" xmlns="http://www.w3.org/2000/svg" version="1.1" width="1163.75" height="1592.5">
  <defs/>
  <g id="id0:id0" transform="matrix(1.25,0,0,1.25,0.0,0.0)"><g transform="translate(0.000000,1274.000000) scale(0.100000,-0.100000)" fill="#999999" stroke="none">
<path d="M1751 6382 c-960 -3496 -1746 -6363 -1749 -6370 -3 -9 931 -12 4652 -12 l4656 0 0 460 0 460 -1277 2 -1277 3 -1625 5907 c-894 3249 -1628 5908 -1631 5908 -3 0 -790 -2861 -1749 -6358z m2898 -1280 c630 -2286 1147 -4163 1149 -4169 3 -10 -460 -13 -2293 -13 -1833 0 -2296 3 -2293 13 3 6 517 1883 1144 4169 626 2287 1141 4158 1144 4158 3 0 520 -1871 1149 -4158z"/>
</g>
</g>
  <g id="id1:id1" transform="matrix(1.25,0,0,1.25,0.0,0.0)"><g transform="translate(0.000000,1274.000000) scale(0.100000,-0.100000)" fill="#ffffff" stroke="none">
</g>
</g>
</svg>
