<?xml version="1.0" standalone="no"?>
<!DOCTYPE svg PUBLIC "-//W3C//DTD SVG 1.1//EN"
 "http://www.w3.org/Graphics/SVG/1.1/DTD/svg11.dtd">
<!-- Created with svg_stack (http://github.com/astraw/svg_stack) -->
<svg xmlns:sodipodi="http://sodipodi.sourceforge.net/DTD/sodipodi-0.dtd" xmlns="http://www.w3.org/2000/svg" version="1.1" width="1562.5" height="1587.5">
  <defs/>
  <g id="id0:id0" transform="matrix(1.25,0,0,1.25,0.0,0.0)"><g transform="translate(0.000000,1270.000000) scale(0.100000,-0.100000)" fill="#000000" stroke="none">
<path d="M5580 10695 l0 -2005 670 0 670 0 0 2005 0 2005 -670 0 -670 0 0 -2005z"/>
<path d="M2519 11489 c-294 -215 -533 -393 -533 -397 1 -4 527 -733 1170 -1619 741 -1023 1174 -1611 1182 -1608 7 3 253 177 547 387 331 237 531 387 527 394 -23 37 -2348 3234 -2353 3234 -3 0 -246 -176 -540 -391z"/>
<path d="M8265 10268 c-643 -886 -1173 -1616 -1177 -1622 -4 -7 196 -157 527 -394 294 -210 540 -384 547 -387 8 -3 437 581 1173 1595 638 880 1166 1608 1172 1618 11 16 -41 56 -518 405 -291 213 -535 390 -542 392 -7 3 -502 -671 -1182 -1607z"/>
<path d="M415 8938 c-15 -40 -414 -1262 -412 -1264 18 -13 3811 -1234 3817 -1228 8 9 411 1266 407 1269 -5 5 -3793 1235 -3800 1235 -4 0 -10 -6 -12 -12z"/>
<path d="M10165 8333 c-1039 -339 -1891 -617 -1892 -617 -4 -4 399 -1261 407 -1270 6 -6 3799 1215 3817 1228 1 1 -91 288 -205 636 -141 431 -213 636 -223 637 -8 1 -864 -275 -1904 -614z"/>
<path d="M1900 5643 c-1042 -339 -1896 -616 -1897 -617 -4 -3 409 -1251 417 -1260 6 -6 3789 1215 3807 1228 2 1 -89 285 -201 632 -136 422 -207 630 -217 631 -8 1 -867 -275 -1909 -614z"/>
<path d="M8675 6248 c-16 -44 -404 -1252 -402 -1254 18 -13 3801 -1234 3807 -1228 8 9 421 1257 417 1260 -5 4 -3803 1234 -3810 1234 -4 0 -10 -6 -12 -12z"/>
<path d="M3160 3238 c-641 -886 -1168 -1616 -1172 -1623 -4 -7 190 -153 523 -393 291 -211 535 -385 542 -387 7 -3 479 637 1182 1602 644 883 1173 1611 1177 1618 4 7 -193 155 -528 398 -294 213 -540 390 -547 392 -7 3 -478 -640 -1177 -1607z"/>
<path d="M7626 4461 c-295 -214 -538 -393 -539 -397 -3 -16 2349 -3233 2360 -3229 7 2 251 176 542 387 333 240 527 386 523 393 -23 39 -2338 3235 -2343 3235 -3 0 -248 -175 -543 -389z"/>
<path d="M5580 2005 l0 -2005 670 0 670 0 0 2005 0 2005 -670 0 -670 0 0 -2005z"/>
</g>
</g>
  <g id="id1:id1" transform="matrix(1.25,0,0,1.25,0.0,0.0)"><g transform="translate(0.000000,1270.000000) scale(0.100000,-0.100000)" fill="#ffffff" stroke="none">
</g>
</g>
</svg>
