<?xml version="1.0" standalone="no"?>
<!DOCTYPE svg PUBLIC "-//W3C//DTD SVG 1.1//EN"
 "http://www.w3.org/Graphics/SVG/1.1/DTD/svg11.dtd">
<!-- Created with svg_stack (http://github.com/astraw/svg_stack) -->
<svg xmlns:sodipodi="http://sodipodi.sourceforge.net/DTD/sodipodi-0.dtd" xmlns="http://www.w3.org/2000/svg" version="1.1" width="1381.25" height="1592.5">
  <defs/>
  <g id="id0:id0" transform="matrix(1.25,0,0,1.25,0.0,0.0)"><g transform="translate(0.000000,1274.000000) scale(0.100000,-0.100000)" fill="#000000" stroke="none">
<path d="M4606 11150 l-918 -1590 -1840 0 c-1468 0 -1839 -3 -1835 -12 2 -7 415 -723 917 -1592 779 -1348 911 -1582 902 -1600 -5 -11 -420 -730 -921 -1596 l-911 -1575 1846 -5 1846 -5 917 -1587 c504 -873 918 -1587 921 -1587 3 0 417 715 920 1589 l915 1589 1842 3 1843 3 -199 345 c-109 190 -521 905 -916 1589 -395 685 -718 1250 -718 1256 0 7 410 723 911 1592 502 869 912 1583 912 1587 0 3 -826 7 -1836 8 l-1837 3 -916 1587 c-504 873 -918 1587 -921 1587 -3 0 -418 -715 -924 -1589z m1319 -908 l391 -677 -393 -3 c-216 -1 -570 -1 -786 0 l-394 3 391 677 c215 373 393 677 396 677 3 0 181 -305 395 -677z m-2777 -1611 c-8 -23 -774 -1341 -779 -1341 -6 0 -779 1333 -779 1344 0 3 351 6 781 6 473 0 779 -4 777 -9z m4359 -1126 c359 -621 652 -1135 651 -1141 -2 -6 -298 -520 -658 -1142 l-654 -1132 -1316 0 -1316 0 -654 1132 c-360 622 -656 1136 -658 1143 -2 9 1221 2138 1294 2253 l15 22 1321 -2 1321 -3 654 -1130z m1963 1129 c0 -8 -754 -1313 -772 -1336 -11 -15 -52 52 -311 500 -164 284 -340 590 -392 680 l-94 162 785 0 c431 0 784 -3 784 -6z m-6313 -4541 c-2 -2 -358 -2 -790 -1 l-787 3 388 670 c213 369 391 676 396 683 5 9 139 -214 402 -669 217 -375 392 -684 391 -686z m5913 707 c205 -355 381 -660 392 -677 l20 -33 -795 0 -795 0 395 686 c218 377 399 682 403 677 4 -4 175 -298 380 -653z m-2883 -1849 c-73 -125 -249 -431 -392 -679 -143 -248 -262 -451 -265 -451 -3 0 -122 203 -265 451 -143 248 -319 554 -392 679 l-132 229 789 0 789 0 -132 -229z"/>
</g>
</g>
  <g id="id1:id1" transform="matrix(1.25,0,0,1.25,0.0,0.0)"><g transform="translate(0.000000,1274.000000) scale(0.100000,-0.100000)" fill="#ffffff" stroke="none">
<path d="M5134 10242 l-391 -677 394 -3 c216 -1 570 -1 786 0 l393 3 -391 677 c-214 372 -392 677 -395 677 -3 0 -181 -304 -396 -677z"/>
<path d="M1590 8634 c0 -11 773 -1344 779 -1344 5 0 771 1318 779 1341 2 5 -304 9 -777 9 -430 0 -781 -3 -781 -6z"/>
<path d="M4196 8618 c-73 -115 -1296 -2244 -1294 -2253 2 -7 298 -521 658 -1143 l654 -1132 1316 0 1316 0 654 1132 c360 622 656 1136 658 1142 1 6 -292 520 -651 1141 l-654 1130 -1321 3 -1321 2 -15 -22z"/>
<path d="M7995 8478 c52 -90 228 -396 392 -680 259 -448 300 -515 311 -500 18 23 772 1328 772 1336 0 3 -353 6 -784 6 l-785 0 94 -162z"/>
<path d="M2364 5448 c-5 -7 -183 -314 -396 -683 l-388 -670 787 -3 c432 -1 788 -1 790 1 1 2 -174 311 -391 686 -263 455 -397 678 -402 669z"/>
<path d="M8287 4776 l-395 -686 795 0 795 0 -20 33 c-11 17 -187 322 -392 677 -205 355 -376 649 -380 653 -4 5 -185 -300 -403 -677z"/>
<path d="M4873 2951 c73 -125 249 -431 392 -679 143 -248 262 -451 265 -451 3 0 122 203 265 451 143 248 319 554 392 679 l132 229 -789 0 -789 0 132 -229z"/>
</g>
</g>
</svg>
