<?xml version="1.0" encoding="UTF-8" standalone="no"?>
<svg
   xmlns:dc="http://purl.org/dc/elements/1.1/"
   xmlns:cc="http://creativecommons.org/ns#"
   xmlns:rdf="http://www.w3.org/1999/02/22-rdf-syntax-ns#"
   xmlns:svg="http://www.w3.org/2000/svg"
   xmlns="http://www.w3.org/2000/svg"
   xmlns:sodipodi="http://sodipodi.sourceforge.net/DTD/sodipodi-0.dtd"
   xmlns:inkscape="http://www.inkscape.org/namespaces/inkscape"
   viewBox="0 0 790.78125 205.57293"
   version="1.1"
   xml:space="preserve"
   id="svg24118"
   inkscape:version="0.48.3.1 r9886"
   width="100%"
   height="100%"
   sodipodi:docname="alkis3490.svg"
   style="fill-rule:evenodd;stroke-linecap:round;stroke-linejoin:round"><metadata
   id="metadata24207"><rdf:RDF><cc:Work
       rdf:about=""><dc:format>image/svg+xml</dc:format><dc:type
         rdf:resource="http://purl.org/dc/dcmitype/StillImage" /></cc:Work></rdf:RDF></metadata><sodipodi:namedview
   pagecolor="#ffffff"
   bordercolor="#666666"
   borderopacity="1"
   objecttolerance="10"
   gridtolerance="10"
   guidetolerance="10"
   inkscape:pageopacity="0"
   inkscape:pageshadow="2"
   inkscape:window-width="1855"
   inkscape:window-height="1025"
   id="namedview24205"
   showgrid="false"
   inkscape:zoom="1.4"
   inkscape:cx="398.88839"
   inkscape:cy="103.26979"
   inkscape:window-x="0"
   inkscape:window-y="33"
   inkscape:window-maximized="1"
   inkscape:current-layer="svg24118" />
<defs
   id="defs24120">
<clipPath
   id="clipId0">
<path
   d="M 0,600 800,600 800,0 0,0 z"
   id="path24123"
   inkscape:connector-curvature="0" />
</clipPath>







































</defs>
<g
   clip-path="url(#clipId0)"
   id="g24125"
   style="fill:none;stroke:#000000;stroke-width:0.1"
   transform="translate(-3.96875,-197.69686)" />
<path
   style="fill:#00cccc;fill-rule:nonzero;stroke:none"
   d="M 214.0625,0.08438918 C 135.54302,-1.8083608 56.995521,28.215869 0,82.303139 12.052083,96.001059 24.104167,109.69897 36.15625,123.39689 98.32724,63.060799 193.33762,39.533919 276.2752,64.955299 c 41.15394,11.38782 77.62984,35.745241 108.1471,64.486031 74.9778,68.45523 186.1285,93.09478 283.3096,64.2961 45.83472,-13.29378 88.25576,-37.6968 123.04935,-70.34054 C 778.72917,109.70939 766.67708,96.021889 754.625,82.334389 694.66731,140.3526 604.47602,164.47661 523.6774,143.33244 479.98337,132.70818 440.70497,108.66514 408.3367,77.820969 356.0659,29.856399 285.27416,1.9457692 214.0625,0.08438918 z"
   id="path24203"
   inkscape:connector-curvature="0" />
</svg>