<?xml version="1.0" standalone="no"?>
<!DOCTYPE svg PUBLIC "-//W3C//DTD SVG 1.1//EN"
 "http://www.w3.org/Graphics/SVG/1.1/DTD/svg11.dtd">
<!-- Created with svg_stack (http://github.com/astraw/svg_stack) -->
<svg xmlns:sodipodi="http://sodipodi.sourceforge.net/DTD/sodipodi-0.dtd" xmlns="http://www.w3.org/2000/svg" version="1.1" width="1995.0" height="1362.5">
  <defs/>
  <g id="id0:id0" transform="matrix(1.25,0,0,1.25,0.0,0.0)"><g transform="translate(0.000000,1090.000000) scale(0.100000,-0.100000)" fill="#000000" stroke="none">
<path d="M0 5450 l0 -5450 7980 0 7980 0 0 5450 0 5450 -7980 0 -7980 0 0 -5450z m2235 4738 c-44 -46 -423 -428 -842 -850 l-763 -767 0 850 0 849 842 0 841 0 -78 -82z m1845 -1038 l1113 -1121 -79 -82 c-43 -45 -566 -571 -1161 -1169 l-1083 -1087 -1117 1125 -1118 1125 0 84 0 84 1070 1081 1069 1080 97 0 96 0 1113 -1120z m2912 683 c-237 -241 -686 -693 -999 -1005 l-568 -568 -750 753 c-413 413 -863 866 -1000 1005 l-250 252 1999 0 1998 0 -430 -437z m2196 -684 l1113 -1120 -300 -307 c-165 -169 -687 -694 -1160 -1167 l-861 -860 -861 860 c-473 473 -995 998 -1160 1167 l-300 306 1113 1121 1113 1121 95 0 95 0 1113 -1121z m2854 624 c-270 -274 -720 -727 -1000 -1006 l-509 -509 -874 879 c-481 483 -930 935 -999 1006 l-124 127 1998 0 1998 0 -490 -497z m2208 -578 l1065 -1076 0 -94 0 -94 -1115 -1122 -1115 -1122 -1161 1169 -1161 1169 1115 1122 1115 1123 96 0 97 0 1064 -1075z m1070 231 l0 -844 -758 761 c-417 419 -793 799 -837 845 l-78 82 836 0 837 0 0 -844z m-8725 -2804 l1157 -1162 -1163 -1168 -1162 -1168 -1036 1041 c-570 572 -1092 1097 -1160 1167 l-124 127 1158 1166 c637 641 1162 1164 1166 1163 4 -2 528 -526 1164 -1166z m5100 3 l1158 -1166 -124 -127 c-68 -70 -590 -595 -1160 -1167 l-1036 -1041 -1162 1168 -1163 1168 1158 1165 c638 640 1162 1164 1165 1165 4 0 528 -524 1164 -1165z m-9060 -1165 c0 -4 -451 -461 -1002 -1015 l-1003 -1009 0 2024 0 2023 1003 -1008 c551 -555 1002 -1011 1002 -1015z m12685 -5 l0 -2015 -903 908 c-496 499 -947 953 -1001 1009 l-99 102 999 1005 c549 553 1000 1005 1002 1006 1 0 2 -907 2 -2015z m-10216 -2472 l89 -92 -1123 -1131 -1123 -1130 -77 0 -78 0 -1081 1089 -1082 1089 3 81 3 81 1120 1128 1119 1127 1071 -1075 c589 -591 1110 -1116 1159 -1167z m3892 1225 c561 -563 1084 -1089 1163 -1170 l144 -147 -1124 -1130 -1123 -1131 -76 0 -76 0 -1123 1130 -1123 1130 182 188 c99 103 621 628 1158 1168 537 539 977 981 977 982 0 1 459 -458 1021 -1020z m5996 -903 l328 -330 0 -89 0 -89 -1076 -1083 -1076 -1084 -77 0 -78 0 -1122 1130 -1123 1130 107 113 c59 61 580 587 1158 1167 l1052 1055 790 -795 c434 -437 937 -944 1117 -1125z m-8555 -2673 c-553 -1 -1461 -1 -2017 0 l-1012 3 1008 1014 1009 1014 1009 -1014 1009 -1014 -1006 -3z m5110 0 c-553 -1 -1461 -1 -2018 0 l-1012 3 1009 1014 1009 1014 1009 -1014 1008 -1014 -1005 -3z m-10062 853 l847 -855 -851 0 -851 0 0 855 c0 470 2 855 4 855 2 0 385 -385 851 -855z m13835 -5 l0 -850 -846 0 -846 0 842 850 c463 468 844 850 846 850 2 0 4 -382 4 -850z"/>
</g>
</g>
  <g id="id1:id1" transform="matrix(1.25,0,0,1.25,0.0,0.0)"><g transform="translate(0.000000,1090.000000) scale(0.100000,-0.100000)" fill="#ffffff" stroke="none">
</g>
</g>
</svg>
