<?xml version="1.0" standalone="no"?>
<!DOCTYPE svg PUBLIC "-//W3C//DTD SVG 1.1//EN"
 "http://www.w3.org/Graphics/SVG/1.1/DTD/svg11.dtd">
<!-- Created with svg_stack (http://github.com/astraw/svg_stack) -->
<svg xmlns:sodipodi="http://sodipodi.sourceforge.net/DTD/sodipodi-0.dtd" xmlns="http://www.w3.org/2000/svg" version="1.1" width="1595.0" height="1595.0">
  <defs/>
  <g id="id0:id0" transform="matrix(1.25,0,0,1.25,0.0,0.0)"><g transform="translate(0.000000,1276.000000) scale(0.100000,-0.100000)" fill="#00ffff" stroke="none">
<path d="M5985 12750 c-891 -49 -1954 -366 -2723 -812 -339 -197 -626 -387 -832 -552 -538 -430 -947 -875 -1357 -1476 -341 -500 -679 -1235 -828 -1800 -322 -1221 -322 -2269 0 -3465 77 -286 202 -619 358 -957 556 -1204 1495 -2218 2662 -2873 412 -231 975 -465 1385 -575 335 -91 662 -156 990 -197 l285 -36 455 0 455 0 285 36 c520 66 1037 189 1455 349 509 193 980 432 1350 684 451 306 791 598 1136 975 340 372 619 754 883 1207 305 523 579 1265 690 1867 161 870 161 1630 0 2500 -84 454 -266 1016 -466 1440 -346 733 -870 1450 -1466 2008 -326 305 -743 606 -1197 864 -700 398 -1551 677 -2380 779 -260 32 -306 34 -635 38 -195 2 -422 1 -505 -4z m885 -2405 c288 -15 382 -24 521 -49 46 -8 113 -18 149 -21 274 -28 649 -162 886 -316 387 -252 697 -723 829 -1261 39 -158 55 -293 62 -533 7 -254 -4 -380 -47 -562 -65 -271 -170 -532 -285 -703 -138 -205 -338 -415 -510 -535 -311 -217 -589 -328 -1048 -420 l-208 -41 50 -28 c71 -38 241 -151 355 -235 276 -204 567 -506 795 -824 173 -241 582 -875 1044 -1617 259 -415 479 -770 490 -787 l19 -33 -964 0 -964 0 -706 1058 c-735 1101 -841 1256 -1047 1531 -263 351 -387 470 -623 600 -186 102 -450 141 -951 141 l-307 0 0 -1665 0 -1665 -805 0 -805 0 0 3990 0 3990 1898 0 c1518 0 1952 -3 2172 -15z"/>
<path d="M4410 7995 l0 -1015 523 0 c822 1 1580 22 1822 51 324 39 514 128 678 319 118 137 175 268 212 490 25 145 16 346 -21 480 -28 101 -83 221 -144 310 -104 154 -354 302 -580 345 -142 27 -441 34 -1487 34 l-1003 1 0 -1015z"/>
</g>
</g>
  <g id="id1:id1" transform="matrix(1.25,0,0,1.25,0.0,0.0)"><g transform="translate(0.000000,1276.000000) scale(0.100000,-0.100000)" fill="#ffffff" stroke="none">
<path d="M2800 6370 l0 -3990 805 0 805 0 0 1665 0 1665 307 0 c501 0 765 -39 951 -141 236 -130 360 -249 623 -600 206 -275 312 -430 1047 -1531 l706 -1058 964 0 964 0 -19 33 c-11 17 -231 372 -490 787 -462 742 -871 1376 -1044 1617 -228 318 -519 620 -795 824 -114 84 -284 197 -355 235 l-50 28 208 41 c459 92 737 203 1048 420 172 120 372 330 510 535 153 228 293 630 326 935 14 135 6 505 -15 655 -85 600 -430 1182 -870 1469 -237 154 -612 288 -886 316 -36 3 -103 13 -149 21 -324 58 -549 63 -2693 64 l-1898 0 0 -3990z m3815 2630 c110 -5 238 -16 285 -25 226 -43 476 -191 580 -345 61 -89 116 -209 144 -310 37 -134 46 -335 21 -480 -37 -222 -94 -353 -212 -490 -164 -191 -354 -280 -678 -319 -242 -29 -1000 -50 -1822 -51 l-523 0 0 1015 0 1015 1003 -1 c551 0 1092 -4 1202 -9z"/>
</g>
</g>
</svg>
