<?xml version="1.0" encoding="UTF-8" standalone="no"?>
<svg
   xmlns:dc="http://purl.org/dc/elements/1.1/"
   xmlns:cc="http://creativecommons.org/ns#"
   xmlns:rdf="http://www.w3.org/1999/02/22-rdf-syntax-ns#"
   xmlns:svg="http://www.w3.org/2000/svg"
   xmlns="http://www.w3.org/2000/svg"
   xmlns:sodipodi="http://sodipodi.sourceforge.net/DTD/sodipodi-0.dtd"
   xmlns:inkscape="http://www.inkscape.org/namespaces/inkscape"
   viewBox="0 0 345.17468 345.40073"
   version="1.1"
   xml:space="preserve"
   id="svg6162"
   inkscape:version="0.48.3.1 r9886"
   width="100%"
   height="100%"
   sodipodi:docname="alkis3454.svg"
   style="fill-rule:evenodd;stroke-linecap:round;stroke-linejoin:round"><metadata
   id="metadata6343"><rdf:RDF><cc:Work
       rdf:about=""><dc:format>image/svg+xml</dc:format><dc:type
         rdf:resource="http://purl.org/dc/dcmitype/StillImage" /></cc:Work></rdf:RDF></metadata><sodipodi:namedview
   pagecolor="#ffffff"
   bordercolor="#666666"
   borderopacity="1"
   objecttolerance="10"
   gridtolerance="10"
   guidetolerance="10"
   inkscape:pageopacity="0"
   inkscape:pageshadow="2"
   inkscape:window-width="1855"
   inkscape:window-height="1025"
   id="namedview6341"
   showgrid="false"
   inkscape:zoom="2.2250293"
   inkscape:cx="177.14858"
   inkscape:cy="171.99448"
   inkscape:window-x="0"
   inkscape:window-y="33"
   inkscape:window-maximized="1"
   inkscape:current-layer="svg6162" />
<defs
   id="defs6164">
<clipPath
   id="clipId0">
<path
   d="M 0,600 800,600 800,0 0,0 z"
   id="path6167"
   inkscape:connector-curvature="0" />
</clipPath>





















































































</defs>
<g
   clip-path="url(#clipId0)"
   id="g6169"
   style="fill:none;stroke:#000000;stroke-width:0.1"
   transform="translate(-228.83502,-126.59375)" />


<path
   style="fill:#00ff00;fill-rule:nonzero;stroke:none"
   d="M 171.28998,0 C 114.03472,0.10842 57.95798,30.80771 27.39661,79.28192 -5.35911,129.13909 -9.01308,196.20979 17.89395,249.42459 c 25.67086,52.73423 79.86131,90.08114 138.31858,95.11954 58.34201,6.05173 118.65049,-20.33532 153.75346,-67.33974 36.35888,-46.87744 45.40622,-112.99603 23.17004,-167.97585 C 311.90867,54.19131 260.5453,12.29609 202.34068,2.63495 188.37089,0.81161 181.04618,0.11197 171.28998,0 z m 1.28125,65.375 c 43.74582,-0.49842 85.90275,28.61279 100.50458,69.91804 16.79045,42.82623 1.57926,95.31627 -35.39071,122.64689 -9.70012,7.5382 -20.83426,13.09466 -32.45762,16.99757 0,-34.08333 0,-68.16667 0,-102.25 -21.78125,0 -43.5625,0 -65.34375,0 0,34.07292 0,68.14583 0,102.21875 C 98.19401,262.1144 67.04379,221.77091 65.45147,178.1652 62.54987,134.15152 90.07391,90.35065 130.94994,73.78898 144.09866,68.2474 158.31163,65.46196 172.57123,65.375 z"
   id="path6339"
   inkscape:connector-curvature="0"
   sodipodi:nodetypes="cccccccccccccccccc" />
</svg>