<?xml version="1.0" standalone="no"?>
<!DOCTYPE svg PUBLIC "-//W3C//DTD SVG 1.1//EN"
 "http://www.w3.org/Graphics/SVG/1.1/DTD/svg11.dtd">
<!-- Created with svg_stack (http://github.com/astraw/svg_stack) -->
<svg xmlns:sodipodi="http://sodipodi.sourceforge.net/DTD/sodipodi-0.dtd" xmlns="http://www.w3.org/2000/svg" version="1.1" width="577.5" height="1587.5">
  <defs/>
  <g id="id0:id0" transform="matrix(1.25,0,0,1.25,0.0,0.0)"><g transform="translate(0.000000,1270.000000) scale(0.100000,-0.100000)" fill="#181512" stroke="none">
<path d="M2303 11542 l-2303 -1157 0 -5192 0 -5193 2310 0 2310 0 0 6350 c0 3493 -3 6350 -7 6350 -5 -1 -1044 -522 -2310 -1158z m1617 -1555 l0 -1562 -1605 -803 c-883 -441 -1607 -802 -1610 -802 -3 0 -5 706 -5 1568 l0 1568 1603 796 c881 438 1605 797 1610 797 4 1 7 -702 7 -1562z m0 -6797 l0 -2480 -1610 0 -1610 0 0 1678 0 1677 1603 802 c881 441 1605 802 1610 802 4 1 7 -1115 7 -2479z"/>
</g>
</g>
  <g id="id1:id1" transform="matrix(1.25,0,0,1.25,0.0,0.0)"><g transform="translate(0.000000,1270.000000) scale(0.100000,-0.100000)" fill="#ffffff" stroke="none">
</g>
</g>
</svg>
