<?xml version="1.0" standalone="no"?>
<!DOCTYPE svg PUBLIC "-//W3C//DTD SVG 1.1//EN"
 "http://www.w3.org/Graphics/SVG/1.1/DTD/svg11.dtd">
<!-- Created with svg_stack (http://github.com/astraw/svg_stack) -->
<svg xmlns:sodipodi="http://sodipodi.sourceforge.net/DTD/sodipodi-0.dtd" xmlns="http://www.w3.org/2000/svg" version="1.1" width="1996.25" height="328.75">
  <defs/>
  <g id="id0:id0" transform="matrix(1.25,0,0,1.25,0.0,0.0)"><g transform="translate(0.000000,263.000000) scale(0.100000,-0.100000)" fill="#00cccc" stroke="none">
<path d="M1644 1972 l-1642 -657 1632 -652 c897 -359 1639 -655 1649 -659 16 -6 17 61 17 1310 0 724 -3 1316 -7 1316 -5 -1 -747 -297 -1649 -658z"/>
<path d="M4090 1310 l0 -200 400 0 400 0 0 200 0 200 -400 0 -400 0 0 -200z"/>
<path d="M5680 1310 l0 -200 395 0 395 0 0 200 0 200 -395 0 -395 0 0 -200z"/>
<path d="M7260 1310 l0 -200 395 0 395 0 0 200 0 200 -395 0 -395 0 0 -200z"/>
<path d="M8850 1310 l0 -200 395 0 395 0 0 200 0 200 -395 0 -395 0 0 -200z"/>
<path d="M10430 1310 l0 -200 395 0 395 0 0 200 0 200 -395 0 -395 0 0 -200z"/>
<path d="M12010 1310 l0 -200 400 0 400 0 0 200 0 200 -400 0 -400 0 0 -200z"/>
<path d="M13600 1310 l0 -200 395 0 395 0 0 200 0 200 -395 0 -395 0 0 -200z"/>
<path d="M15180 1310 l0 -200 395 0 395 0 0 200 0 200 -395 0 -395 0 0 -200z"/>
</g>
</g>
  <g id="id1:id1" transform="matrix(1.25,0,0,1.25,0.0,0.0)"><g transform="translate(0.000000,263.000000) scale(0.100000,-0.100000)" fill="#ffffff" stroke="none">
</g>
</g>
</svg>
