<?xml version="1.0" encoding="UTF-8" standalone="no"?>
<svg
   xmlns:dc="http://purl.org/dc/elements/1.1/"
   xmlns:cc="http://creativecommons.org/ns#"
   xmlns:rdf="http://www.w3.org/1999/02/22-rdf-syntax-ns#"
   xmlns:svg="http://www.w3.org/2000/svg"
   xmlns="http://www.w3.org/2000/svg"
   xmlns:sodipodi="http://sodipodi.sourceforge.net/DTD/sodipodi-0.dtd"
   xmlns:inkscape="http://www.inkscape.org/namespaces/inkscape"
   viewBox="0 0 193.6875 351.25"
   version="1.1"
   xml:space="preserve"
   id="svg10342"
   inkscape:version="0.48.3.1 r9886"
   width="100%"
   height="100%"
   sodipodi:docname="alkis3599.svg"
   style="fill-rule:evenodd;stroke-linecap:round;stroke-linejoin:round"><metadata
   id="metadata10399"><rdf:RDF><cc:Work
       rdf:about=""><dc:format>image/svg+xml</dc:format><dc:type
         rdf:resource="http://purl.org/dc/dcmitype/StillImage" /></cc:Work></rdf:RDF></metadata><sodipodi:namedview
   pagecolor="#ffffff"
   bordercolor="#666666"
   borderopacity="1"
   objecttolerance="10"
   gridtolerance="10"
   guidetolerance="10"
   inkscape:pageopacity="0"
   inkscape:pageshadow="2"
   inkscape:window-width="640"
   inkscape:window-height="480"
   id="namedview10397"
   showgrid="false"
   inkscape:zoom="0.39333333"
   inkscape:cx="96.874997"
   inkscape:cy="175.40625"
   inkscape:window-x="0"
   inkscape:window-y="33"
   inkscape:window-maximized="0"
   inkscape:current-layer="svg10342" />
<defs
   id="defs10344">
<clipPath
   id="clipId0">
<path
   d="M 0,600 800,600 800,0 0,0 z"
   id="path10347"
   inkscape:connector-curvature="0" />
</clipPath>























</defs>
<g
   clip-path="url(#clipId0)"
   id="g10349"
   style="fill:none;stroke:#000000;stroke-width:0.1"
   transform="translate(-303.125,-124.15625)" />
<path
   style="fill:#00ff00;stroke:none"
   d="M 116.5625,0 42.96875,10 1.6875,69.625 0,113.5 1.59375,171.1875 18,230.78125 l 39.78125,19.5 25.96875,4.0625 0,69.21875 -49.46875,0 0,27.6875 126.59375,0 0,-27.6875 -49.4375,0 0,-69.21875 25.96875,-4.0625 39.75,-19.5 L 193.6875,170.75 190.28125,78.53125 160.71875,20.28125 116.5625,0 z m -4.25,28.5 28.09375,12.90625 22.4375,44.21875 3.03125,81.875 -12.09375,43.90625 -24.8125,12.15625 -31.375,4.875 L 66.1875,223.5625 41.40625,211.40625 29.1875,167.0625 27.71875,113.65625 29.0625,78.75 l 29.75,-42.9375 53.5,-7.3125 z m 20.125,15.125 -21.75,17.125 5.84375,7.4375 3.5,6.34375 1.71875,6.03125 1.21875,33.125 -1.21875,54.03125 -3.1875,6.15625 -6.34375,6.34375 19.59375,19.59375 9.34375,-9.375 8.125,-15.65625 1.40625,-61.3125 -1.40625,-37.28125 -3.5,-12.28125 -6.09375,-11.09375 -7.25,-9.1875 z M 97.59375,242.5 l 0.3125,2.03125 -0.625,0 0.3125,-2.03125 z"
   id="path10353"
   inkscape:connector-curvature="0" />
</svg>