<?xml version="1.0" standalone="no"?>
<!DOCTYPE svg PUBLIC "-//W3C//DTD SVG 1.1//EN"
 "http://www.w3.org/Graphics/SVG/1.1/DTD/svg11.dtd">
<!-- Created with svg_stack (http://github.com/astraw/svg_stack) -->
<svg xmlns:sodipodi="http://sodipodi.sourceforge.net/DTD/sodipodi-0.dtd" xmlns="http://www.w3.org/2000/svg" version="1.1" width="1576.25" height="1575.0">
  <defs/>
  <g id="id0:id0" transform="matrix(1.25,0,0,1.25,0.0,0.0)"><g transform="translate(0.000000,1260.000000) scale(0.100000,-0.100000)" fill="#181512" stroke="none">
<path d="M3152 9447 l-3153 -3153 3156 -3149 3156 -3149 3149 3149 3149 3149 -3146 3153 c-1730 1734 -3148 3153 -3152 3153 -3 0 -1425 -1419 -3159 -3153z m5601 -715 l2437 -2437 -2440 -2440 -2440 -2440 -2440 2440 -2440 2440 2437 2437 c1341 1341 2440 2438 2443 2438 3 0 1102 -1097 2443 -2438z"/>
</g>
</g>
  <g id="id1:id1" transform="matrix(1.25,0,0,1.25,0.0,0.0)"><g transform="translate(0.000000,1260.000000) scale(0.100000,-0.100000)" fill="#ffffff" stroke="none">
</g>
</g>
</svg>
