<?xml version="1.0" encoding="UTF-8" standalone="no"?>
<!-- Created with Inkscape (http://www.inkscape.org/) -->

<svg
   xmlns:dc="http://purl.org/dc/elements/1.1/"
   xmlns:cc="http://creativecommons.org/ns#"
   xmlns:rdf="http://www.w3.org/1999/02/22-rdf-syntax-ns#"
   xmlns:svg="http://www.w3.org/2000/svg"
   xmlns="http://www.w3.org/2000/svg"
   xmlns:inkscape="http://www.inkscape.org/namespaces/inkscape"
   version="1.1"
   width="100%"
   height="100%"
   viewBox="0 0 791.25825 130.786"
   id="svg2"
   xml:space="preserve"
   style="fill-rule:evenodd;stroke-linecap:round;stroke-linejoin:round"><metadata
     id="metadata33"><rdf:RDF><cc:Work
         rdf:about=""><dc:format>image/svg+xml</dc:format><dc:type
           rdf:resource="http://purl.org/dc/dcmitype/StillImage" /></cc:Work></rdf:RDF></metadata><defs
     id="defs4"><clipPath
       id="clipId0"><path
         d="M 0,600 800,600 800,0 0,0 z"
         inkscape:connector-curvature="0"
         id="path7" /></clipPath></defs><g
     transform="translate(-3.35975,-235.038)"
     clip-path="url(#clipId0)"
     id="g9"
     style="fill:none;stroke:#000000;stroke-width:0.1" /><g
     transform="translate(-3.35975,-235.038)"
     clip-path="url(#clipId0)"
     id="g11"
     style="fill:#00cccc;stroke:none"><path
       d="M 166.843,365.824 3.35975,300.431 166.843,235.038 z"
       inkscape:connector-curvature="0"
       id="path13" /><path
       d="m 206.079,310.24 0,-19.618 39.236,0 0,19.618 z"
       inkscape:connector-curvature="0"
       id="path15" /><path
       d="m 284.551,310.24 0,-19.618 39.236,0 0,19.618 z"
       inkscape:connector-curvature="0"
       id="path17" /><path
       d="m 363.023,310.24 0,-19.618 39.235,0 0,19.618 z"
       inkscape:connector-curvature="0"
       id="path19" /><path
       d="m 441.494,310.24 0,-19.618 39.236,0 0,19.618 z"
       inkscape:connector-curvature="0"
       id="path21" /><path
       d="m 519.966,310.24 0,-19.618 39.236,0 0,19.618 z"
       inkscape:connector-curvature="0"
       id="path23" /><path
       d="m 598.438,310.24 0,-19.618 39.236,0 0,19.618 z"
       inkscape:connector-curvature="0"
       id="path25" /><path
       d="m 676.91,310.24 0,-19.618 39.236,0 0,19.618 z"
       inkscape:connector-curvature="0"
       id="path27" /><path
       d="m 755.382,310.24 0,-19.618 39.236,0 0,19.618 z"
       inkscape:connector-curvature="0"
       id="path29" /></g></svg>