<?xml version="1.0" encoding="UTF-8" standalone="no"?>
<!-- Created with Inkscape (http://www.inkscape.org/) -->

<svg
   xmlns:dc="http://purl.org/dc/elements/1.1/"
   xmlns:cc="http://creativecommons.org/ns#"
   xmlns:rdf="http://www.w3.org/1999/02/22-rdf-syntax-ns#"
   xmlns:svg="http://www.w3.org/2000/svg"
   xmlns="http://www.w3.org/2000/svg"
   xmlns:inkscape="http://www.inkscape.org/namespaces/inkscape"
   version="1.1"
   width="100%"
   height="100%"
   viewBox="0 0 350.39223 350.64797"
   id="svg8839"
   xml:space="preserve"
   style="fill-rule:evenodd;stroke-linecap:round;stroke-linejoin:round"><metadata
     id="metadata9016"><rdf:RDF><cc:Work
         rdf:about=""><dc:format>image/svg+xml</dc:format><dc:type
           rdf:resource="http://purl.org/dc/dcmitype/StillImage" /></cc:Work></rdf:RDF></metadata><defs
     id="defs8841"><clipPath
       id="clipId0"><path
         d="M 0,600 800,600 800,0 0,0 z"
         inkscape:connector-curvature="0"
         id="path8844" /></clipPath></defs><g
     transform="translate(-224.55488,-124.68698)"
     clip-path="url(#clipId0)"
     id="g8846"
     style="fill:none;stroke:#000000;stroke-width:0.1" /><path
     d="M 174.91387,0.12551521 C 116.83702,-0.02012479 59.737747,30.721075 28.479697,79.761985 -5.0570028,130.12919 -9.1704128,198.17493 17.879407,252.28703 c 25.69335,53.64803 80.47359,91.83321 139.727103,97.25776 59.81517,6.59664 121.8109,-20.58652 157.56519,-68.98413 C 351.299,233.2935 360.42295,167.15368 338.39453,111.88033 317.10522,55.593695 264.72597,12.708515 205.37117,2.8344352 195.501,1.0243352 185.46913,0.35299521 175.44512,0.12551521 c -0.29119,7.08650999 -0.17697,8.98998999 -0.53125,0 z m 0.28125,13.46874979 c 54.27785,-0.22369 107.56872,28.82261 136.33659,74.92475 32.11903,49.314965 33.73152,116.411385 3.8774,167.152695 C 286.7257,307.06657 228.03864,339.66026 169.2489,336.82869 112.33291,335.35987 57.960027,300.92883 31.954187,250.32764 5.9582572,201.57866 7.6952472,139.59921 36.404797,92.390135 64.395727,44.759555 118.15519,13.853075 173.40902,13.664655 l 0.99104,-0.0391 0.79506,-0.0313 z"
     inkscape:connector-curvature="0"
     id="polyline9012"
     style="fill:#000000;fill-opacity:1;fill-rule:nonzero;stroke:#000000;stroke-width:0.25" /></svg>