<?xml version="1.0" encoding="UTF-8" standalone="no"?>
<svg
   xmlns:dc="http://purl.org/dc/elements/1.1/"
   xmlns:cc="http://creativecommons.org/ns#"
   xmlns:rdf="http://www.w3.org/1999/02/22-rdf-syntax-ns#"
   xmlns:svg="http://www.w3.org/2000/svg"
   xmlns="http://www.w3.org/2000/svg"
   xmlns:sodipodi="http://sodipodi.sourceforge.net/DTD/sodipodi-0.dtd"
   xmlns:inkscape="http://www.inkscape.org/namespaces/inkscape"
   viewBox="0 0 197.17378 350.34458"
   version="1.1"
   xml:space="preserve"
   id="svg38634"
   inkscape:version="0.48.3.1 r9886"
   width="100%"
   height="100%"
   sodipodi:docname="alkis3440.svg"
   style="fill-rule:evenodd;stroke-linecap:round;stroke-linejoin:round"><metadata
   id="metadata38815"><rdf:RDF><cc:Work
       rdf:about=""><dc:format>image/svg+xml</dc:format><dc:type
         rdf:resource="http://purl.org/dc/dcmitype/StillImage" /></cc:Work></rdf:RDF></metadata><sodipodi:namedview
   pagecolor="#ffffff"
   bordercolor="#666666"
   borderopacity="1"
   objecttolerance="10"
   gridtolerance="10"
   guidetolerance="10"
   inkscape:pageopacity="0"
   inkscape:pageshadow="2"
   inkscape:window-width="1855"
   inkscape:window-height="1025"
   id="namedview38813"
   showgrid="false"
   inkscape:zoom="0.39333333"
   inkscape:cx="104.4496"
   inkscape:cy="382.40887"
   inkscape:window-x="0"
   inkscape:window-y="33"
   inkscape:window-maximized="1"
   inkscape:current-layer="svg38634" />
<defs
   id="defs38636">
<clipPath
   id="clipId0">
<path
   d="M 0,600 800,600 800,0 0,0 z"
   id="path38639"
   inkscape:connector-curvature="0" />
</clipPath>
</defs>
<g
   clip-path="url(#clipId0)"
   id="g38641"
   style="fill:none;stroke:#000000;stroke-width:0.1"
   transform="translate(-300.63514,-124.74917)" />
<g
   clip-path="url(#clipId0)"
   id="g38643"
   style="fill:#00ff00;stroke:none"
   transform="translate(-300.63514,-124.74917)">
















































































</g>
<g
   clip-path="url(#clipId0)"
   id="g38805"
   style="fill:none;stroke:#00ff00;stroke-width:0.25"
   transform="translate(-300.63514,-124.74917)">
<polyline
   points="399.174,139.415 399.174,139.415 "
   id="polyline38807" />
</g>
<g
   clip-path="url(#clipId0)"
   id="g38809"
   style="fill:#00ff00;stroke:none"
   transform="translate(-300.63514,-124.74917)">
<path
   d="m 398.53125,124.75 c -38.3057,-0.16548 -75.18572,24.28265 -89.90625,59.65625 -15.82844,35.61465 -7.60504,80.10228 19.9375,107.6875 14.84407,15.37016 34.83688,25.52368 55.9375,28.75 l 0,154.25 29.375,0 0,-154.25 c 37.84041,-5.34424 70.87294,-34.6407 80.40625,-71.6875 10.92368,-37.99772 -4.18729,-81.52309 -36.125,-104.78125 -16.71518,-12.53422 -38.67017,-19.49408 -59.5625,-19.625 -0.0207,-1.3e-4 -0.0418,1.2e-4 -0.0625,0 z m 0.65625,29.375 c 30.63213,-0.45175 59.63726,21.90794 66.90625,51.6875 8.51114,30.2638 -6.87218,64.84399 -34.96875,78.90625 -27.39117,14.8138 -64.15611,7.86576 -84.1875,-16 -20.61452,-22.95901 -22.62235,-59.87452 -4.5625,-84.90625 12.61364,-18.42693 34.50066,-29.77734 56.8125,-29.6875 z"
   id="path38811"
   inkscape:connector-curvature="0"
   sodipodi:nodetypes="cccccccccsccccccc" />
</g>
</svg>