<?xml version="1.0" encoding="UTF-8" standalone="no"?>
<svg
   xmlns:dc="http://purl.org/dc/elements/1.1/"
   xmlns:cc="http://creativecommons.org/ns#"
   xmlns:rdf="http://www.w3.org/1999/02/22-rdf-syntax-ns#"
   xmlns:svg="http://www.w3.org/2000/svg"
   xmlns="http://www.w3.org/2000/svg"
   xmlns:sodipodi="http://sodipodi.sourceforge.net/DTD/sodipodi-0.dtd"
   xmlns:inkscape="http://www.inkscape.org/namespaces/inkscape"
   viewBox="0 0 572.09375 351.21876"
   version="1.1"
   xml:space="preserve"
   id="svg2"
   inkscape:version="0.48.3.1 r9886"
   width="100%"
   height="100%"
   sodipodi:docname="alkis3541.svg"
   style="fill-rule:evenodd;stroke-linecap:round;stroke-linejoin:round"><metadata
   id="metadata185"><rdf:RDF><cc:Work
       rdf:about=""><dc:format>image/svg+xml</dc:format><dc:type
         rdf:resource="http://purl.org/dc/dcmitype/StillImage" /></cc:Work></rdf:RDF></metadata><sodipodi:namedview
   pagecolor="#ffffff"
   bordercolor="#666666"
   borderopacity="1"
   objecttolerance="10"
   gridtolerance="10"
   guidetolerance="10"
   inkscape:pageopacity="0"
   inkscape:pageshadow="2"
   inkscape:window-width="1855"
   inkscape:window-height="1025"
   id="namedview183"
   showgrid="false"
   inkscape:zoom="2.2250293"
   inkscape:cx="293.10861"
   inkscape:cy="176.06251"
   inkscape:window-x="0"
   inkscape:window-y="33"
   inkscape:window-maximized="1"
   inkscape:current-layer="svg2" />
<defs
   id="defs4">
<clipPath
   id="clipId0">
<path
   d="M 0,600 800,600 800,0 0,0 z"
   id="path7"
   inkscape:connector-curvature="0" />
</clipPath>






















































































</defs>
<g
   clip-path="url(#clipId0)"
   id="g9"
   style="fill:none;stroke:#000000;stroke-width:0.1"
   transform="translate(-112.875,-124.84375)" />
<path
   style="fill:#000000;stroke:none"
   d="m 0,0 c 0.67908,117.07137 0.0265,234.14633 0.49942,351.21876 190.53144,0 381.06289,0 571.59433,0 0,-117.07292 0,-234.14583 0,-351.21875 C 381.39583,10e-6 190.69792,0 0,0 z m 19.875,19.875 c 177.44792,0 354.89583,0 532.34375,0 0,103.82292 0,207.64583 0,311.46875 -82.28125,0 -164.5625,0 -246.84375,0 0,-29.82292 0,-59.64583 0,-89.46875 -12.88542,0 -25.77083,0 -38.65625,0 0,29.82292 0,59.64583 0,89.46875 -82.28125,0 -164.5625,0 -246.84375,0 0,-103.82292 0,-207.64583 0,-311.46875 z m 153.4375,43.5625 c -44.26286,43.59944 -58.66653,113.98182 -34.82183,171.39246 7.90777,19.7528 19.90754,37.79153 34.82183,52.95129 3.3557,-5.82571 19.27874,-11.16132 10.94741,-17.44279 -41.14963,-42.76232 -49.28056,-112.74589 -18.91448,-163.75647 6.06509,-10.90176 13.87513,-20.748 22.56082,-29.67574 -4.86458,-4.48958 -9.72917,-8.97917 -14.59375,-13.46875 z m 225.46875,0 c -3.36588,5.81562 -19.31216,11.12665 -10.97866,17.41154 41.17831,42.76602 49.23568,112.744 18.94573,163.78772 -6.04087,10.91868 -13.92219,20.70647 -22.59207,29.64449 6.07708,2.89166 12.65862,18.34866 18.26649,9.55274 44.33235,-46.29355 55.38414,-120.35682 26.61805,-177.62201 C 421.48164,90.35659 411.0254,76.00134 398.78125,63.4375 z m -186.4375,39.03125 c -34.69444,33.79893 -40.0787,92.42456 -11.86003,131.84029 4.24687,3.85023 9.21745,17.58262 14.82283,11.68115 5.29403,-5.53903 16.49817,-10.6365 6.08047,-16.91914 -27.55879,-31.86632 -24.91183,-84.07014 5.58173,-113.1023 -4.875,-4.5 -9.75,-9 -14.625,-13.5 z m 147.375,0 c -3.35411,5.82423 -19.28264,11.16493 -10.94313,17.43882 29.00322,31.19642 27.80021,84.27925 -2.55124,114.15625 0.38558,3.48484 11.31652,15.58527 15.32152,12.68723 34.01504,-34.61941 37.62306,-93.45704 8.48535,-132.18855 -3.19744,-4.24199 -6.60724,-8.28557 -10.3125,-12.09375 z"
   id="path13"
   inkscape:connector-curvature="0" />
</svg>