<?xml version="1.0" standalone="no"?>
<!DOCTYPE svg PUBLIC "-//W3C//DTD SVG 1.1//EN"
 "http://www.w3.org/Graphics/SVG/1.1/DTD/svg11.dtd">
<!-- Created with svg_stack (http://github.com/astraw/svg_stack) -->
<svg xmlns:sodipodi="http://sodipodi.sourceforge.net/DTD/sodipodi-0.dtd" xmlns="http://www.w3.org/2000/svg" version="1.1" width="1673.75" height="1592.5">
  <defs/>
  <g id="id0:id0" transform="matrix(1.25,0,0,1.25,0.0,0.0)"><g transform="translate(0.000000,1274.000000) scale(0.100000,-0.100000)" fill="#999999" stroke="none">
<path d="M7905 9505 c-649 -1779 -1182 -3235 -1186 -3235 -3 0 -311 668 -684 1485 -373 817 -681 1485 -685 1485 -3 0 -517 -1256 -1140 -2791 -624 -1535 -1138 -2793 -1142 -2795 -4 -3 -278 115 -609 261 -331 147 -605 263 -610 258 -4 -4 -93 -201 -197 -438 -105 -236 -517 -1168 -917 -2070 -400 -902 -729 -1646 -732 -1652 -4 -10 1338 -13 6691 -13 l6697 0 -6 32 c-3 18 -412 2338 -909 5156 -497 2817 -906 5126 -910 5129 -3 4 -276 -20 -605 -52 -330 -32 -606 -55 -613 -52 -8 2 -292 572 -632 1266 -341 694 -622 1261 -625 1261 -4 0 -537 -1456 -1186 -3235z m1651 724 c202 -413 374 -754 382 -756 7 -3 247 18 532 48 286 29 523 50 526 46 4 -3 357 -1988 785 -4409 428 -2422 781 -4418 784 -4436 l6 -32 -1647 2 -1646 3 -1075 2330 -1074 2330 1023 2813 c562 1546 1025 2812 1029 2812 3 0 172 -338 375 -751z m-3506 -4176 c359 -791 685 -1506 725 -1589 93 -191 1745 -3760 1745 -3768 0 -3 -1676 -6 -3725 -6 -2049 0 -3725 3 -3725 6 0 5 369 839 912 2064 121 272 223 499 228 503 4 5 281 -111 614 -258 334 -146 610 -264 614 -261 4 2 444 1071 977 2375 533 1304 972 2371 975 2371 4 0 301 -647 660 -1437z"/>
</g>
</g>
  <g id="id1:id1" transform="matrix(1.25,0,0,1.25,0.0,0.0)"><g transform="translate(0.000000,1274.000000) scale(0.100000,-0.100000)" fill="#ededed" stroke="none">
<path d="M8152 8168 l-1023 -2813 1074 -2330 1075 -2330 1646 -3 1647 -2 -6 32 c-3 18 -356 2014 -784 4436 -428 2421 -781 4406 -785 4409 -3 4 -240 -17 -526 -46 -285 -30 -525 -51 -532 -48 -8 2 -180 343 -382 756 -203 413 -372 751 -375 751 -4 0 -467 -1266 -1029 -2812z"/>
<path d="M4415 5119 c-533 -1304 -973 -2373 -977 -2375 -4 -3 -280 115 -614 261 -333 147 -610 263 -614 258 -5 -4 -107 -231 -228 -503 -543 -1225 -912 -2059 -912 -2064 0 -3 1676 -6 3725 -6 2049 0 3725 3 3725 6 0 8 -1652 3577 -1745 3768 -40 83 -366 798 -725 1589 -359 790 -656 1437 -660 1437 -3 0 -442 -1067 -975 -2371z"/>
</g>
</g>
  <g id="id2:id2" transform="matrix(1.25,0,0,1.25,0.0,0.0)"><g transform="translate(0.000000,1274.000000) scale(0.100000,-0.100000)" fill="#ffffff" stroke="none">
</g>
</g>
</svg>
