<?xml version="1.0" standalone="no"?>
<!DOCTYPE svg PUBLIC "-//W3C//DTD SVG 1.1//EN"
 "http://www.w3.org/Graphics/SVG/1.1/DTD/svg11.dtd">
<!-- Created with svg_stack (http://github.com/astraw/svg_stack) -->
<svg xmlns:sodipodi="http://sodipodi.sourceforge.net/DTD/sodipodi-0.dtd" xmlns="http://www.w3.org/2000/svg" version="1.1" width="1985.0" height="565.0">
  <defs/>
  <g id="id0:id0" transform="matrix(1.25,0,0,1.25,0.0,0.0)"><g transform="translate(0.000000,452.000000) scale(0.100000,-0.100000)" fill="#000000" stroke="none">
<path d="M9505 4474 l-680 -43 -685 -109 -685 -110 -661 -185 -661 -184 -699 -278 -699 -278 -549 -315 c-302 -173 -554 -315 -560 -315 -6 0 -746 408 -1644 907 -898 498 -1636 906 -1640 906 -7 -1 -343 -592 -339 -596 1 -1 657 -365 1457 -809 800 -444 1456 -808 1457 -809 1 -1 -655 -366 -1457 -811 l-1459 -809 37 -67 c202 -360 298 -528 304 -529 4 0 745 409 1647 910 l1639 910 554 -314 553 -314 700 -282 700 -283 660 -184 660 -185 685 -110 685 -109 700 -39 c385 -22 754 -39 820 -39 66 0 433 17 815 39 l695 39 705 100 705 99 705 214 705 215 370 246 370 246 233 323 232 322 0 416 0 416 -232 317 -233 317 -370 247 -370 247 -705 219 -705 219 -705 94 -705 95 -705 44 c-388 25 -763 44 -835 44 -71 -1 -436 -21 -810 -45z m1625 -689 l655 -34 665 -95 665 -94 630 -195 631 -194 278 -186 278 -185 129 -178 129 -178 0 -191 0 -192 -132 -176 -133 -176 -280 -189 -280 -189 -640 -196 -640 -195 -695 -91 -695 -90 -630 -36 c-346 -19 -675 -35 -730 -35 -55 0 -399 18 -765 40 l-665 39 -655 105 -655 104 -625 176 -625 176 -670 268 -670 269 -335 192 c-184 106 -334 194 -333 197 1 3 156 94 345 201 l343 196 670 272 670 272 630 171 630 170 645 107 645 107 620 33 c341 18 692 33 780 33 88 1 455 -14 815 -33z"/>
</g>
</g>
  <g id="id1:id1" transform="matrix(1.25,0,0,1.25,0.0,0.0)"><g transform="translate(0.000000,452.000000) scale(0.100000,-0.100000)" fill="#ffffff" stroke="none">
</g>
</g>
</svg>
