<?xml version="1.0" encoding="UTF-8" standalone="no"?>
<svg
   xmlns:dc="http://purl.org/dc/elements/1.1/"
   xmlns:cc="http://creativecommons.org/ns#"
   xmlns:rdf="http://www.w3.org/1999/02/22-rdf-syntax-ns#"
   xmlns:svg="http://www.w3.org/2000/svg"
   xmlns="http://www.w3.org/2000/svg"
   xmlns:sodipodi="http://sodipodi.sourceforge.net/DTD/sodipodi-0.dtd"
   xmlns:inkscape="http://www.inkscape.org/namespaces/inkscape"
   viewBox="0 0 488.88122 349.1867"
   version="1.1"
   xml:space="preserve"
   id="svg19840"
   inkscape:version="0.48.3.1 r9886"
   width="100%"
   height="100%"
   sodipodi:docname="alkis3484.svg"
   style="fill-rule:evenodd;stroke-linecap:round;stroke-linejoin:round"><metadata
   id="metadata20827"><rdf:RDF><cc:Work
       rdf:about=""><dc:format>image/svg+xml</dc:format><dc:type
         rdf:resource="http://purl.org/dc/dcmitype/StillImage" /></cc:Work></rdf:RDF></metadata><sodipodi:namedview
   pagecolor="#ffffff"
   bordercolor="#666666"
   borderopacity="1"
   objecttolerance="10"
   gridtolerance="10"
   guidetolerance="10"
   inkscape:pageopacity="0"
   inkscape:pageshadow="2"
   inkscape:window-width="1855"
   inkscape:window-height="1025"
   id="namedview20825"
   showgrid="false"
   inkscape:zoom="1.5733333"
   inkscape:cx="121.93036"
   inkscape:cy="129.62101"
   inkscape:window-x="0"
   inkscape:window-y="33"
   inkscape:window-maximized="1"
   inkscape:current-layer="svg19840" />
<defs
   id="defs19842">
<clipPath
   id="clipId0">
<path
   d="M 0,600 800,600 800,0 0,0 z"
   id="path19845"
   inkscape:connector-curvature="0" />
</clipPath>

























































































































































































































































































































































































































































































</defs>
<g
   clip-path="url(#clipId0)"
   id="g19847"
   style="fill:none;stroke:#000000;stroke-width:0.1"
   transform="translate(-156.03574,-126.02667)" />
<path
   style="fill:#ffb200;stroke:none"
   d="m 395.55801,69.910835 c -27.08872,-0.7568 -50.47436,25.79107 -46.08714,52.572645 2.66661,27.45117 33.10195,47.22242 59.27216,38.54859 26.24803,-6.87444 41.11036,-39.05876 29.31094,-63.492855 -7.14758,-16.57199 -24.47894,-27.72531 -42.49596,-27.62838 z M 147.83926,112.94208 c -33.20112,-0.69617 -63.342666,28.1184 -63.855006,61.36891 -2.31793,34.08445 27.089996,66.01581 61.255776,66.47112 34.08108,2.33304 66.01216,-27.0834 66.46995,-61.24082 2.19662,-35.45028 -28.3952,-67.17634 -63.87072,-66.59921 z"
   id="path20161"
   inkscape:connector-curvature="0" />
<g
   clip-path="url(#clipId0)"
   id="g20163"
   style="fill:none;stroke:#ffb200;stroke-width:0.25"
   transform="translate(-156.03574,-126.02667)">
<path
   d="m 551.601,195.952 0,0"
   id="polyline20165"
   inkscape:connector-curvature="0" />
<path
   d="m 551.601,195.952 c 27.08732,-0.79877 50.47777,25.79013 46.09373,52.55648 -2.66763,27.44522 -33.09615,47.23697 -59.26673,38.54559 -26.69029,-6.927 -41.47827,-40.07808 -28.8,-64.56649 7.38329,-16.00113 24.37173,-26.65858 41.973,-26.53558 z"
   id="polyline20167"
   inkscape:connector-curvature="0" />
</g>
<path
   style="fill:#ffb200;stroke:none"
   d="m 247.87051,0.16083456 c -25.81654,-0.93597 -46.96009,26.67736044 -39.26683,51.34339044 5.82897,25.16233 38.04226,38.33118 59.83013,24.44864 23.0301,-12.35773 27.00989,-47.50266 7.33393,-64.69908 C 268.34331,4.1399446 258.13258,0.17423456 247.87051,0.16083456 z"
   id="path20325"
   inkscape:connector-curvature="0" />
<g
   clip-path="url(#clipId0)"
   id="g20327"
   style="fill:none;stroke:#ffb200;stroke-width:0.25"
   transform="translate(-156.03574,-126.02667)">
<path
   d="m 403.901,126.173 0,0"
   id="polyline20329"
   inkscape:connector-curvature="0" />
<path
   d="m 403.901,126.173 c 25.80778,-0.89756 46.94828,26.69174 39.25369,51.36338 -5.83336,25.1625 -38.04797,38.31008 -59.83015,24.43506 -22.6126,-12.17876 -26.96782,-46.35994 -8.20654,-63.87644 7.55534,-7.56236 18.09187,-11.92735 28.783,-11.922 z"
   id="polyline20331"
   inkscape:connector-curvature="0" />
</g>
<path
   style="fill:#ffb200;stroke:none"
   d="m 40.839264,256.00458 c -25.80803,-0.89014 -46.93598,26.70707 -39.2325,51.37376 5.83588,25.16157 38.05103,38.29202 59.82705,24.41827 22.6148,-12.19096 26.96334,-46.37034 8.1867,-63.88578 -7.56736,-7.55306 -18.08632,-11.91364 -28.78125,-11.90625 z"
   id="path20489"
   inkscape:connector-curvature="0" />
<g
   clip-path="url(#clipId0)"
   id="g20491"
   style="fill:none;stroke:#ffb200;stroke-width:0.25"
   transform="translate(-156.03574,-126.02667)">
<path
   d="m 196.888,382.031 0,0"
   id="polyline20493"
   inkscape:connector-curvature="0" />
<path
   d="m 196.888,382.031 c 25.80791,-0.89746 46.94897,26.69155 39.25405,51.36344 -5.8329,25.1628 -38.04734,38.30948 -59.82963,24.43536 -22.61278,-12.17855 -26.96831,-46.36075 -8.20642,-63.8768 7.55568,-7.56233 18.09066,-11.9266 28.782,-11.922 z"
   id="polyline20495"
   inkscape:connector-curvature="0" />
</g>
<path
   style="fill:#ffb200;stroke:none"
   d="m 285.08926,267.62958 c -25.80987,-0.90069 -46.97108,26.69842 -39.26375,51.37376 5.83826,25.15493 38.05381,38.29405 59.82705,24.41827 23.03444,-12.33861 27.00513,-47.48241 7.33978,-64.67415 -7.43172,-7.09724 -17.63835,-11.10536 -27.90308,-11.11788 z"
   id="path20653"
   inkscape:connector-curvature="0" />
<g
   clip-path="url(#clipId0)"
   id="g20655"
   style="fill:none;stroke:#ffb200;stroke-width:0.25"
   transform="translate(-156.03574,-126.02667)">
<path
   d="m 441.116,393.661 0,0"
   id="polyline20657"
   inkscape:connector-curvature="0" />
<path
   d="m 441.116,393.661 c 25.80779,-0.89808 46.94998,26.69159 39.25405,51.36342 -5.8322,25.16284 -38.04757,38.30947 -59.82959,24.4354 -22.61256,-12.1789 -26.9683,-46.36059 -8.20646,-63.87682 7.55553,-7.56242 18.09067,-11.92709 28.782,-11.922 z"
   id="polyline20659"
   inkscape:connector-curvature="0" />
</g>
<path
   style="fill:#ffb200;stroke:none"
   d="m 447.90176,209.47333 c -25.80608,-0.88914 -46.96556,26.69864 -39.26375,51.37376 5.84026,25.17789 38.0422,38.27789 59.83707,24.43629 23.02004,-12.35369 26.9988,-47.49959 7.32976,-64.69217 -7.41667,-7.09313 -17.65542,-11.10024 -27.90308,-11.11788 z"
   id="path20817"
   inkscape:connector-curvature="0" />
<g
   clip-path="url(#clipId0)"
   id="g20819"
   style="fill:none;stroke:#ffb200;stroke-width:0.25"
   transform="translate(-156.03574,-126.02667)">
<path
   d="m 603.935,335.511 0,0"
   id="polyline20821"
   inkscape:connector-curvature="0" />
<path
   d="m 603.935,335.511 c 25.80767,-0.89667 46.94869,26.69112 39.25422,51.36321 -5.83241,25.16319 -38.04684,38.30999 -59.82965,24.43642 -22.61307,-12.17884 -26.96808,-46.36114 -8.20657,-63.87763 7.55569,-7.56144 18.09122,-11.92629 28.782,-11.922 z"
   id="polyline20823"
   inkscape:connector-curvature="0" />
</g>
</svg>