<?xml version="1.0" encoding="UTF-8" standalone="no"?>
<svg
   xmlns:dc="http://purl.org/dc/elements/1.1/"
   xmlns:cc="http://creativecommons.org/ns#"
   xmlns:rdf="http://www.w3.org/1999/02/22-rdf-syntax-ns#"
   xmlns:svg="http://www.w3.org/2000/svg"
   xmlns="http://www.w3.org/2000/svg"
   xmlns:sodipodi="http://sodipodi.sourceforge.net/DTD/sodipodi-0.dtd"
   xmlns:inkscape="http://www.inkscape.org/namespaces/inkscape"
   viewBox="0 0 157.61032 350.93728"
   version="1.1"
   xml:space="preserve"
   id="svg6515"
   inkscape:version="0.48.3.1 r9886"
   width="100%"
   height="100%"
   sodipodi:docname="alkis3565.svg"
   style="fill-rule:evenodd;stroke-linecap:round;stroke-linejoin:round"><metadata
   id="metadata6710"><rdf:RDF><cc:Work
       rdf:about=""><dc:format>image/svg+xml</dc:format><dc:type
         rdf:resource="http://purl.org/dc/dcmitype/StillImage" /></cc:Work></rdf:RDF></metadata><sodipodi:namedview
   pagecolor="#ffffff"
   bordercolor="#666666"
   borderopacity="1"
   objecttolerance="10"
   gridtolerance="10"
   guidetolerance="10"
   inkscape:pageopacity="0"
   inkscape:pageshadow="2"
   inkscape:window-width="1855"
   inkscape:window-height="1025"
   id="namedview6708"
   showgrid="false"
   inkscape:zoom="2.2250293"
   inkscape:cx="80.225899"
   inkscape:cy="175.56228"
   inkscape:window-x="0"
   inkscape:window-y="33"
   inkscape:window-maximized="1"
   inkscape:current-layer="svg6515" />
<defs
   id="defs6517">
<clipPath
   id="clipId0">
<path
   d="M 0,600 800,600 800,0 0,0 z"
   id="path6520"
   inkscape:connector-curvature="0" />
</clipPath>




























































































</defs>
<g
   clip-path="url(#clipId0)"
   id="g6522"
   style="fill:none;stroke:#000000;stroke-width:0.1"
   transform="translate(-320.67297,-124.625)" />


<path
   style="fill:#000000;stroke:none"
   d="m 43.264534,0 c 0,84.8125 0,169.625 0,254.4375 -24.72075,2.05538 -44.9397795,25.65249 -43.15472952,50.39936 0.58772,24.7513 22.85405952,46.27294 47.60391952,46.07038 24.46443,0.92072 47.17605,-19.44844 48.90444,-43.86987 2.84247,-24.31631 -15.69984,-48.52819 -39.90092,-52.1769 -5.89817,0.50062 -1.93204,-7.55144 -3.07771,-11.19166 0,-39.58752 0,-79.17504 0,-118.76256 11.45354,12.55306 26.44104,20.98077 39.73488,31.38556 14.286286,10.4444 28.572576,20.88879 42.858866,31.33319 3.66667,11 7.33333,22 11,33 3.46903,-3.11694 11.94062,1.09031 10.125,-5.50221 0,-29.00968 0,-58.01936 0,-87.02904 -4.9075,-6.63432 -8.65568,-14.43848 -14.28766,-20.34176 C 118.56234,91.73049 94.054064,75.709 69.545784,59.6875 64.383504,50.54865 58.139764,41.70916 53.639534,32.38706 c 0,-10.79569 0,-21.59137 0,-32.38706 -3.45833,0 -6.91667,0 -10.375,0 z m 10.375,53.3125 c 4.29304,6.21977 6.59723,14.35289 14.04399,17.53866 23.07909,15.09128 46.158166,30.18256 69.237256,45.27384 3.20263,5.33353 7.57467,10.31299 10.0625,15.86294 0,18.33735 0,36.67471 0,55.01206 -0.53851,-5.34296 -4.60258,-8.11085 -8.76996,-10.80329 -23.34486,-17.25007 -47.106336,-34.0141 -70.191736,-51.56686 -4.59907,-5.14073 -10.69384,-9.66281 -14.38205,-15.18029 0,-18.71235 0,-37.42471 0,-56.13706 z M 48.233284,264.5 c 20.94033,-0.63168 39.62708,18.63692 38.17017,39.56887 -0.21552,21.41299 -21.30934,39.36483 -42.47959,36.19168 -21.03232,-1.90931 -37.2294795,-23.73964 -32.88967,-44.42227 2.84822,-17.72079 19.28511,-31.44248 37.19909,-31.33828 z"
   id="path6706"
   inkscape:connector-curvature="0" />
</svg>