<?xml version="1.0" standalone="no"?>
<!DOCTYPE svg PUBLIC "-//W3C//DTD SVG 1.1//EN"
 "http://www.w3.org/Graphics/SVG/1.1/DTD/svg11.dtd">
<!-- Created with svg_stack (http://github.com/astraw/svg_stack) -->
<svg xmlns:sodipodi="http://sodipodi.sourceforge.net/DTD/sodipodi-0.dtd" xmlns="http://www.w3.org/2000/svg" version="1.1" width="1587.5" height="1586.25">
  <defs/>
  <g id="id0:id0" transform="matrix(1.25,0,0,1.25,0.0,0.0)"><g transform="translate(0.000000,1269.000000) scale(0.100000,-0.100000)" fill="#666666" stroke="none">
<path d="M5955 12680 c-552 -30 -1296 -190 -1810 -389 -477 -184 -960 -431 -1320 -676 -598 -407 -1041 -816 -1469 -1357 -254 -320 -575 -843 -763 -1241 -333 -703 -546 -1593 -583 -2426 -51 -1144 257 -2419 816 -3371 198 -338 368 -594 530 -798 388 -491 927 -989 1469 -1357 800 -543 1873 -935 2820 -1031 249 -26 304 -28 705 -28 404 0 454 2 700 28 804 83 1655 358 2400 774 1155 645 2093 1658 2647 2860 167 361 283 668 358 947 321 1194 321 2257 0 3450 -156 577 -467 1247 -836 1800 -271 407 -645 849 -968 1144 -587 537 -1308 978 -2096 1282 -412 160 -955 291 -1465 355 -257 32 -299 35 -630 38 -195 2 -422 1 -505 -4z m975 -1354 c265 -29 494 -75 780 -157 420 -120 733 -249 1095 -452 163 -91 485 -299 560 -362 l30 -25 -1522 -1522 -1523 -1523 -1522 1523 -1523 1522 30 25 c17 14 111 80 210 149 520 357 1164 624 1845 764 180 38 484 75 695 86 189 10 627 -5 845 -28z m-3040 -6511 l-1525 -1525 -23 27 c-56 68 -287 422 -371 571 -313 549 -516 1174 -607 1863 -25 191 -27 229 -27 589 0 361 2 398 27 589 72 549 211 1040 433 1531 109 243 325 603 516 863 l50 69 1526 -1526 1526 -1526 -1525 -1525z m6619 4330 c373 -556 621 -1149 760 -1821 71 -340 109 -838 91 -1178 -26 -480 -75 -788 -187 -1176 -123 -427 -214 -646 -456 -1095 -71 -132 -296 -482 -359 -558 l-23 -27 -1525 1525 -1525 1525 1525 1525 1525 1525 23 -27 c13 -16 80 -113 151 -218z m-2632 -5267 l1523 -1523 -58 -46 c-195 -155 -610 -400 -887 -522 -550 -244 -930 -350 -1555 -433 -190 -26 -230 -28 -555 -27 -325 0 -365 2 -555 27 -616 83 -992 188 -1549 435 -313 139 -663 345 -883 520 l-58 46 1523 1523 c837 837 1524 1522 1527 1522 3 0 690 -685 1527 -1522z"/>
</g>
</g>
  <g id="id1:id1" transform="matrix(1.25,0,0,1.25,0.0,0.0)"><g transform="translate(0.000000,1269.000000) scale(0.100000,-0.100000)" fill="#ffffff" stroke="none">
</g>
</g>
</svg>
