<?xml version="1.0" standalone="no"?>
<!DOCTYPE svg PUBLIC "-//W3C//DTD SVG 1.1//EN"
 "http://www.w3.org/Graphics/SVG/1.1/DTD/svg11.dtd">
<!-- Created with svg_stack (http://github.com/astraw/svg_stack) -->
<svg xmlns:sodipodi="http://sodipodi.sourceforge.net/DTD/sodipodi-0.dtd" xmlns="http://www.w3.org/2000/svg" version="1.1" width="1592.5" height="1591.25">
  <defs/>
  <g id="id0:id0" transform="matrix(1.25,0,0,1.25,0.0,0.0)"><g transform="translate(0.000000,1273.000000) scale(0.100000,-0.100000)" fill="#000000" stroke="none">
<path d="M5975 12720 c-542 -30 -1238 -180 -1808 -391 -1577 -583 -2864 -1769 -3565 -3288 -271 -587 -472 -1289 -551 -1921 -123 -996 -6 -1968 359 -2972 509 -1401 1533 -2601 2855 -3343 714 -401 1577 -680 2370 -767 269 -29 298 -31 725 -31 415 -1 463 1 715 27 961 97 2028 486 2830 1032 451 306 791 598 1136 975 340 372 619 754 884 1209 208 357 454 955 570 1385 321 1195 321 2256 0 3450 -116 430 -362 1029 -570 1385 -164 283 -385 610 -559 829 -851 1072 -1929 1796 -3251 2182 -326 95 -653 162 -1000 205 -260 32 -305 34 -635 38 -195 2 -422 1 -505 -4z m1035 -751 c700 -94 1084 -202 1730 -486 219 -96 495 -251 781 -439 689 -451 1398 -1219 1772 -1920 252 -471 387 -799 507 -1233 126 -456 187 -834 210 -1300 35 -702 -87 -1467 -349 -2196 -136 -379 -383 -862 -597 -1170 -291 -419 -536 -706 -868 -1014 -405 -376 -993 -770 -1453 -972 -646 -285 -1032 -394 -1733 -488 -221 -30 -235 -31 -635 -31 l-410 0 -250 35 c-698 96 -1103 211 -1705 480 -632 283 -1315 781 -1784 1300 -528 584 -862 1127 -1142 1860 -148 386 -240 765 -315 1300 l-32 230 0 435 0 435 32 228 c75 534 167 916 315 1302 168 440 340 780 593 1170 352 544 997 1191 1543 1550 389 255 746 436 1198 609 390 149 739 233 1287 311 229 33 232 33 655 34 420 1 426 1 650 -30z"/>
<path d="M1950 6355 l0 -2505 330 0 330 0 0 1180 0 1180 1305 0 1305 0 0 -1180 0 -1180 330 0 330 0 0 2505 0 2505 -330 0 -330 0 0 -1030 0 -1030 -1305 0 -1305 0 0 1030 0 1030 -330 0 -330 0 0 -2505z"/>
<path d="M6980 6355 l0 -2505 330 0 330 0 0 1020 0 1020 698 0 c738 0 958 9 1212 49 133 21 346 76 420 109 92 41 291 159 344 205 61 52 192 209 244 290 104 163 177 362 218 592 24 138 26 165 21 335 -9 277 -41 406 -166 663 -128 264 -338 458 -627 578 -92 39 -171 60 -389 105 -182 37 -401 44 -1577 44 l-1058 0 0 -2505z m2365 1901 c171 -17 310 -58 400 -119 154 -104 273 -265 329 -444 79 -254 45 -616 -76 -798 -111 -168 -294 -294 -508 -350 -223 -58 -202 -57 -1057 -62 l-793 -5 0 896 0 896 783 0 c588 0 817 -4 922 -14z"/>
</g>
</g>
  <g id="id1:id1" transform="matrix(1.25,0,0,1.25,0.0,0.0)"><g transform="translate(0.000000,1273.000000) scale(0.100000,-0.100000)" fill="#ffffff" stroke="none">
<path d="M5705 11965 c-694 -98 -1099 -213 -1695 -480 -378 -169 -845 -454 -1130 -689 -380 -314 -624 -558 -944 -946 -231 -280 -510 -736 -683 -1117 -259 -571 -388 -1027 -484 -1710 l-32 -228 0 -435 0 -435 32 -230 c97 -687 225 -1139 488 -1715 414 -908 1126 -1740 1978 -2310 376 -251 723 -429 1183 -604 397 -151 743 -235 1297 -311 l250 -35 410 0 c400 0 414 1 635 31 701 94 1087 203 1733 488 460 202 1048 596 1453 972 332 308 577 595 868 1014 141 202 252 399 418 744 234 483 428 1163 492 1721 55 480 55 869 0 1345 -64 551 -259 1237 -488 1709 -228 471 -411 770 -679 1109 -248 314 -616 682 -941 942 -302 243 -790 541 -1126 688 -646 284 -1030 392 -1730 486 -224 31 -230 31 -650 30 -423 -1 -426 -1 -655 -34z m-3095 -4135 l0 -1030 1305 0 1305 0 0 1030 0 1030 330 0 330 0 0 -2505 0 -2505 -330 0 -330 0 0 1180 0 1180 -1305 0 -1305 0 0 -1180 0 -1180 -330 0 -330 0 0 2505 0 2505 330 0 330 0 0 -1030z m6685 1020 c262 -12 534 -65 709 -139 289 -120 499 -314 627 -578 125 -257 157 -386 166 -663 5 -170 3 -197 -21 -335 -41 -230 -114 -429 -218 -592 -52 -81 -183 -238 -244 -290 -53 -46 -252 -164 -344 -205 -74 -33 -287 -88 -420 -109 -254 -40 -474 -49 -1212 -49 l-698 0 0 -1020 0 -1020 -330 0 -330 0 0 2505 0 2505 1058 0 c581 0 1147 -5 1257 -10z"/>
<path d="M7640 7374 l0 -896 793 5 c855 5 834 4 1057 62 214 56 397 182 508 350 90 136 136 378 113 599 -22 220 -97 391 -229 525 -105 106 -177 152 -297 191 -168 54 -273 60 -1162 60 l-783 0 0 -896z"/>
</g>
</g>
</svg>
