<?xml version="1.0" encoding="UTF-8" standalone="no"?>
<!-- Created with Inkscape (http://www.inkscape.org/) -->

<svg
   xmlns:dc="http://purl.org/dc/elements/1.1/"
   xmlns:cc="http://creativecommons.org/ns#"
   xmlns:rdf="http://www.w3.org/1999/02/22-rdf-syntax-ns#"
   xmlns:svg="http://www.w3.org/2000/svg"
   xmlns="http://www.w3.org/2000/svg"
   xmlns:inkscape="http://www.inkscape.org/namespaces/inkscape"
   version="1.1"
   width="100%"
   height="100%"
   viewBox="0 0 416.83162 417.05831"
   id="svg134588"
   xml:space="preserve"
   style="fill-rule:evenodd;stroke-linecap:round;stroke-linejoin:round"><metadata
     id="metadata134761"><rdf:RDF><cc:Work
         rdf:about=""><dc:format>image/svg+xml</dc:format><dc:type
           rdf:resource="http://purl.org/dc/dcmitype/StillImage" /></cc:Work></rdf:RDF></metadata><defs
     id="defs134590"><clipPath
       id="clipId0"><path
         d="M 0,600 800,600 800,0 0,0 z"
         inkscape:connector-curvature="0"
         id="path134593" /></clipPath></defs><g
     transform="translate(-191.75922,-91.3746)"
     clip-path="url(#clipId0)"
     id="g134595"
     style="fill:none;stroke:#000000;stroke-width:0.1" /><g
     transform="translate(-191.75922,-91.3746)"
     clip-path="url(#clipId0)"
     id="g134597"
     style="fill:#00ff00;stroke:none"><path
       d="m 400.15625,91.375 c -64.52279,-0.129873 -128.16778,31.39063 -166.61099,83.30325 -43.26476,56.56152 -53.98327,135.85879 -27.2228,201.86373 25.60586,66.44751 87.62364,116.99205 157.87404,128.67126 70.03244,12.88756 145.53103,-13.58652 192.20679,-67.36541 47.56677,-52.99096 64.4819,-131.18518 42.9905,-199.08933 C 579.0661,170.51722 521.22151,115.23854 452.10225,98.081288 435.15378,93.643624 417.65808,91.652598 400.15625,91.375 z"
       inkscape:connector-curvature="0"
       id="path134753" /></g><g
     transform="translate(-191.75922,-91.3746)"
     clip-path="url(#clipId0)"
     id="g134755"
     style="fill:#ffffff;stroke:none"><g
       transform="matrix(189.573,0,0,189.573,311.052,398.904)"
       id="text134757"
       style="font-size:1.39636004px;font-weight:bold;font-family:'Arial,\'sans-serif\''"><path
         d="m 0.87681592,-0.27681747 c 0.002612,0.0886853 -0.0400135,0.17886267 -0.11785341,0.22440019 C 0.64589315,0.01546164 0.50837572,0.01893623 0.38045395,0.00989099 0.26510155,5.8417619e-4 0.13922431,-0.04314134 0.07885631,-0.1490301 0.06907631,-0.1768864 0.0240754,-0.2376324 0.05300555,-0.25233394 c 0.0605131,-0.009979 0.1210262,-0.0199587 0.1815393,-0.0299381 0.0133121,0.0654357 0.0649367,0.11952825 0.13061842,0.13360404 0.0783828,0.0174442 0.16304542,0.0172801 0.2395251,-0.008632 0.056272,-0.0169088 0.0885491,-0.0795363 0.0733777,-0.13557217 -0.0190641,-0.0666971 -0.0940693,-0.0887636 -0.15404759,-0.10460577 -0.11804794,-0.0294892 -0.24557276,-0.0410825 -0.3486214,-0.1113701 -0.08933734,-0.062822 -0.10749875,-0.1878306 -0.0766351,-0.28628284 0.032796,-0.0992179 0.13577809,-0.15305262 0.23331433,-0.16838217 0.11374565,-0.0178109 0.2332169,-0.0176318 0.34401863,0.0164597 0.0795801,0.0237829 0.14189008,0.0898958 0.16427501,0.16943143 0.0149671,0.0296477 0.0137619,0.0515573 -0.0221452,0.0478551 -0.0538786,0.007347 -0.10775715,0.0146941 -0.16163573,0.0220412 -0.0120755,-0.0646929 -0.0694381,-0.11369481 -0.13417973,-0.12036127 -0.0696065,-0.007808 -0.14906775,-0.009577 -0.20825194,0.0336852 -0.0504885,0.0424645 -0.0427764,0.13426047 0.0170342,0.1649997 0.0781206,0.0430429 0.1693798,0.0485783 0.25420828,0.0717237 0.0969067,0.022687 0.2058364,0.0541562 0.25919898,0.14603125 0.0234796,0.0407771 0.032631,0.088143 0.0322165,0.13482889 z"
         inkscape:connector-curvature="0"
         id="path4701"
         style="font-size:1.39636004px;font-weight:bold;font-family:'Arial,\'sans-serif\''" /></g></g></svg>