<?xml version="1.0" standalone="no"?>
<!DOCTYPE svg PUBLIC "-//W3C//DTD SVG 1.1//EN"
 "http://www.w3.org/Graphics/SVG/1.1/DTD/svg11.dtd">
<!-- Created with svg_stack (http://github.com/astraw/svg_stack) -->
<svg xmlns:sodipodi="http://sodipodi.sourceforge.net/DTD/sodipodi-0.dtd" xmlns="http://www.w3.org/2000/svg" version="1.1" width="1611.25" height="1592.5">
  <defs/>
  <g id="id0:id0" transform="matrix(1.25,0,0,1.25,0.0,0.0)"><g transform="translate(0.000000,1274.000000) scale(0.100000,-0.100000)" fill="#510000" stroke="none">
<path d="M5915 12715 c-327 -40 -742 -140 -1015 -244 -429 -163 -867 -412 -1230 -700 -202 -161 -549 -510 -701 -706 -318 -411 -508 -749 -674 -1202 -126 -343 -205 -652 -253 -993 l-26 -185 -3 -3777 -4 -3778 -1004 0 -1005 0 0 -565 0 -565 1570 0 1570 0 0 89 0 90 2883 4803 c2819 4695 3113 5185 3127 5201 15 17 128 -167 225 -366 232 -473 321 -810 365 -1371 6 -83 10 -1605 10 -4287 l0 -4159 1570 0 1570 0 0 565 0 565 -1010 0 -1009 0 -4 3778 -3 3777 -26 185 c-48 337 -138 708 -242 991 -98 268 -295 651 -478 929 -281 428 -758 905 -1198 1200 -163 109 -413 249 -630 353 -378 181 -865 317 -1330 373 -181 21 -244 24 -535 23 -276 -1 -360 -5 -510 -24z"/>
</g>
</g>
  <g id="id1:id1" transform="matrix(1.25,0,0,1.25,0.0,0.0)"><g transform="translate(0.000000,1274.000000) scale(0.100000,-0.100000)" fill="#ffffff" stroke="none">
</g>
</g>
</svg>
