<?xml version="1.0" standalone="no"?>
<!DOCTYPE svg PUBLIC "-//W3C//DTD SVG 1.1//EN"
 "http://www.w3.org/Graphics/SVG/1.1/DTD/svg11.dtd">
<!-- Created with svg_stack (http://github.com/astraw/svg_stack) -->
<svg xmlns:sodipodi="http://sodipodi.sourceforge.net/DTD/sodipodi-0.dtd" xmlns="http://www.w3.org/2000/svg" version="1.1" width="1283.75" height="1592.5">
  <defs/>
  <g id="id0:id0" transform="matrix(1.25,0,0,1.25,0.0,0.0)"><g transform="translate(0.000000,1274.000000) scale(0.100000,-0.100000)" fill="#ffffff" stroke="none">
<path d="M2558 11507 l-2558 -1232 0 -5137 0 -5138 5135 0 5135 0 0 5138 0 5137 -2557 1229 c-1407 676 -2567 1231 -2578 1233 -11 1 -1149 -542 -2577 -1230z m987 -8221 c520 -73 963 -182 1560 -381 654 -218 1021 -309 1530 -376 270 -36 729 -69 970 -69 407 0 979 57 1405 140 237 46 668 155 792 201 44 16 84 29 89 29 5 0 9 -477 9 -1230 l0 -1230 -4765 0 -4765 0 0 1293 0 1292 158 52 c427 141 1175 291 1562 313 74 4 376 7 670 5 l535 -3 250 -36z"/>
</g>
</g>
  <g id="id1:id1" transform="matrix(1.25,0,0,1.25,0.0,0.0)"><g transform="translate(0.000000,1274.000000) scale(0.100000,-0.100000)" fill="#000000" stroke="none">
<path d="M2090 3320 c-387 -22 -1135 -172 -1562 -313 l-158 -52 0 -1292 0 -1293 4765 0 4765 0 0 1230 c0 753 -4 1230 -9 1230 -5 0 -45 -13 -89 -29 -124 -46 -555 -155 -792 -201 -426 -83 -998 -140 -1405 -140 -241 0 -700 33 -970 69 -509 67 -876 158 -1530 376 -597 199 -1040 308 -1560 381 l-250 36 -535 3 c-294 2 -596 -1 -670 -5z"/>
</g>
</g>
</svg>
