<?xml version="1.0" encoding="UTF-8" standalone="no"?>
<!-- Created with Inkscape (http://www.inkscape.org/) -->

<svg
   xmlns:dc="http://purl.org/dc/elements/1.1/"
   xmlns:cc="http://creativecommons.org/ns#"
   xmlns:rdf="http://www.w3.org/1999/02/22-rdf-syntax-ns#"
   xmlns:svg="http://www.w3.org/2000/svg"
   xmlns="http://www.w3.org/2000/svg"
   xmlns:inkscape="http://www.inkscape.org/namespaces/inkscape"
   version="1.1"
   width="100%"
   height="100%"
   viewBox="0 0 320.75 320.75"
   id="svg3465"
   xml:space="preserve"
   style="fill-rule:evenodd;stroke-linecap:round;stroke-linejoin:round"><metadata
     id="metadata3486"><rdf:RDF><cc:Work
         rdf:about=""><dc:format>image/svg+xml</dc:format><dc:type
           rdf:resource="http://purl.org/dc/dcmitype/StillImage" /><dc:title /></cc:Work></rdf:RDF></metadata><defs
     id="defs3467"><clipPath
       id="clipId0"><path
         d="M 0,600 800,600 800,0 0,0 z"
         inkscape:connector-curvature="0"
         id="path3470" /></clipPath></defs><g
     transform="translate(-239.53125,-129.90625)"
     clip-path="url(#clipId0)"
     id="g3472"
     style="fill:none;stroke:#000000;stroke-width:0.1" /><g
     transform="translate(-239.53125,-129.90625)"
     clip-path="url(#clipId0)"
     id="g3474"
     style="fill:#00ffff;stroke:none"><path
       d="m 239.53125,129.90625 0,320.75 320.75,0 0,-320.75 -320.75,0 z"
       inkscape:connector-curvature="0"
       id="path3478" /></g><g
     transform="translate(-239.53125,-129.90625)"
     clip-path="url(#clipId0)"
     id="g3480"
     style="fill:#ffffff;stroke:none"><g
       transform="matrix(224.528,0,0,224.528,293.6,409.073)"
       id="text3482"
       style="font-size:1.39636004px;font-weight:bold;font-family:'Arial,\'sans-serif\''"><path
         d="m 0.10159065,0 0,-0.99954288 0.3238628,0 c 0.12272641,1e-6 0.20272612,0.005001 0.23999938,0.015 0.0572719,0.0150009 0.10522623,0.0477281 0.14386327,0.0981816 0.0386354,0.0500007 0.0579535,0.1147732 0.0579544,0.19431768 -8.6e-7,0.0613641 -0.0111372,0.11295483 -0.033409,0.15477233 -0.0222735,0.0418186 -0.0506825,0.074773 -0.085227,0.0988634 -0.0340915,0.0236367 -0.0688641,0.0393185 -0.10431792,0.0470453 -0.0481823,0.009546 -0.11795477,0.0143185 -0.20931764,0.0143181 l -0.13159057,0 0,0.37704447 -0.20181766,0 m 0.20181766,-0.8304524 0,0.28363564 0.11045426,0 c 0.0795448,5.4e-7 0.13272638,-0.005227 0.15954504,-0.0156818 0.0268175,-0.0104539 0.0477265,-0.0268175 0.0627271,-0.0490908 0.0154538,-0.022272 0.0231811,-0.048181 0.0231818,-0.0777271 -6.6e-7,-0.0363628 -0.0106824,-0.0663627 -0.0320454,-0.0899998 -0.0213642,-0.0236355 -0.0484095,-0.0384082 -0.0811362,-0.0443181 -0.0240914,-0.004545 -0.0725003,-0.006817 -0.1452269,-0.006818 l -0.0974998,0"
         inkscape:connector-curvature="0"
         id="path3469"
         style="font-size:1.39636004px;font-weight:bold;font-family:'Arial,\'sans-serif\''" /></g></g></svg>