<?xml version="1.0" standalone="no"?>
<!DOCTYPE svg PUBLIC "-//W3C//DTD SVG 1.1//EN"
 "http://www.w3.org/Graphics/SVG/1.1/DTD/svg11.dtd">
<!-- Created with svg_stack (http://github.com/astraw/svg_stack) -->
<svg xmlns:sodipodi="http://sodipodi.sourceforge.net/DTD/sodipodi-0.dtd" xmlns="http://www.w3.org/2000/svg" version="1.1" width="1595.0" height="1593.75">
  <defs/>
  <g id="id0:id0" transform="matrix(1.25,0,0,1.25,0.0,0.0)"><g transform="translate(0.000000,1275.000000) scale(0.100000,-0.100000)" fill="#000000" stroke="none">
<path d="M5985 12740 c-402 -22 -923 -114 -1350 -239 -1321 -386 -2418 -1121 -3262 -2183 -702 -884 -1185 -2050 -1322 -3188 -122 -1013 -6 -1967 359 -2972 450 -1239 1313 -2336 2420 -3075 834 -557 1825 -921 2840 -1044 262 -32 270 -33 710 -33 440 0 448 1 710 33 840 102 1688 376 2410 779 863 482 1625 1187 2179 2017 366 548 632 1127 830 1808 234 804 301 1642 200 2487 -137 1138 -620 2304 -1322 3188 -742 935 -1697 1628 -2791 2028 -500 183 -972 298 -1471 360 -260 32 -305 34 -635 38 -195 2 -422 1 -505 -4z m1045 -869 c469 -57 836 -144 1262 -300 689 -253 1261 -602 1846 -1129 388 -349 727 -781 1072 -1362 256 -431 497 -1082 600 -1623 81 -428 119 -917 100 -1301 -37 -766 -198 -1437 -507 -2117 -275 -603 -779 -1293 -1265 -1731 -600 -540 -1140 -870 -1846 -1129 -425 -156 -815 -248 -1297 -305 -213 -26 -258 -28 -610 -28 -351 0 -398 2 -615 28 -910 107 -1730 405 -2462 894 -723 484 -1302 1109 -1758 1896 -262 453 -498 1093 -600 1629 -81 429 -119 916 -100 1298 38 770 199 1444 507 2119 147 322 437 790 679 1095 466 588 944 995 1640 1398 597 345 1299 576 2019 663 294 36 435 43 785 38 258 -3 343 -9 550 -33z"/>
<path d="M6276 10463 c-22 -2 -49 -11 -60 -19 -11 -8 -26 -14 -34 -14 -24 0 -126 -77 -165 -124 -81 -97 -124 -251 -105 -371 5 -33 23 -93 39 -135 35 -86 81 -140 177 -202 200 -130 448 -92 619 96 43 47 57 72 78 139 40 125 42 185 11 291 -14 50 -37 107 -50 127 -39 58 -127 142 -171 163 -22 11 -52 25 -67 33 -29 15 -200 25 -272 16z"/>
<path d="M4039 9733 c-35 -14 -39 -21 -85 -146 -27 -73 -48 -136 -47 -142 1 -5 11 -41 22 -79 12 -38 19 -72 16 -74 -11 -11 -138 47 -219 101 -95 61 -113 82 -207 241 l-47 79 -35 -69 c-19 -38 -40 -94 -47 -124 -7 -30 -18 -69 -25 -86 -12 -29 -10 -34 27 -90 22 -32 55 -75 74 -94 l34 -35 -39 -55 c-22 -30 -60 -72 -85 -93 -41 -34 -48 -46 -82 -150 -25 -79 -39 -144 -46 -222 -10 -103 -15 -120 -80 -275 -81 -189 -163 -349 -224 -433 -105 -145 -70 -329 84 -442 82 -60 154 -42 297 78 60 49 86 80 126 149 27 48 63 98 78 110 15 13 79 66 142 119 99 83 126 100 202 128 48 18 91 30 95 27 5 -3 21 -58 36 -123 54 -231 165 -585 240 -763 41 -96 99 -235 130 -309 l56 -134 0 -137 c0 -76 -7 -203 -15 -283 l-16 -147 57 -137 c55 -136 152 -310 204 -368 54 -60 100 -141 100 -176 0 -19 4 -81 10 -139 6 -58 17 -193 25 -300 9 -107 31 -285 51 -395 34 -195 35 -211 46 -623 14 -530 4 -721 -45 -877 l-31 -100 -102 -105 c-79 -82 -245 -296 -307 -397 -7 -10 47 -13 256 -13 l264 0 47 108 47 109 130 13 129 13 53 66 c30 36 63 79 75 95 l22 29 -30 53 c-16 30 -43 78 -60 107 l-30 53 26 35 c56 74 65 103 53 161 -7 29 -23 78 -36 108 -20 45 -24 65 -19 110 3 30 12 233 21 450 18 484 22 556 40 695 8 61 24 190 35 287 15 132 26 189 42 223 l22 45 200 0 c111 1 298 9 416 19 192 16 247 26 510 85 162 37 342 82 400 100 58 19 130 39 160 46 30 7 89 31 130 54 71 41 150 76 169 76 13 0 248 -264 321 -360 36 -47 107 -139 158 -204 171 -218 292 -513 351 -853 16 -92 50 -260 75 -372 45 -199 46 -210 46 -372 l0 -167 -143 -184 c-79 -102 -153 -198 -165 -215 l-22 -31 166 -7 165 -7 -107 -110 c-58 -60 -105 -111 -103 -112 2 -2 49 -23 103 -46 l99 -43 156 7 156 7 63 62 62 61 0 85 c0 64 -6 100 -25 153 l-25 69 50 99 50 100 -23 52 c-13 29 -47 130 -75 224 l-52 171 89 284 c50 156 99 311 110 343 17 48 19 62 8 75 -6 9 -32 41 -57 72 -72 88 -142 250 -184 425 -32 134 -36 164 -36 285 0 158 12 204 102 384 30 61 63 144 73 185 10 41 24 87 31 101 7 14 29 91 49 170 l36 144 -15 225 c-9 124 -23 254 -31 290 -8 36 -17 75 -20 88 -5 22 -5 22 128 22 l134 0 113 -89 113 -89 63 -131 c44 -92 65 -148 69 -188 4 -32 24 -172 46 -312 32 -214 43 -260 65 -299 21 -35 123 -193 229 -355 6 -8 93 -51 194 -96 l184 -81 315 2 315 3 -106 44 c-94 39 -116 54 -206 135 -99 90 -238 250 -268 310 -8 17 -46 85 -84 151 -97 170 -182 404 -215 595 -24 138 -29 151 -92 274 -62 120 -73 134 -152 205 -106 95 -220 166 -280 176 -25 3 -79 16 -120 27 -105 29 -306 31 -406 4 -101 -27 -135 -16 -249 81 -96 82 -258 191 -320 218 -111 46 -184 55 -432 55 -173 0 -269 -4 -351 -17 -93 -14 -115 -14 -122 -3 -4 7 -13 55 -20 107 -12 95 -58 248 -343 1129 -92 283 -96 293 -166 401 l-73 111 -96 50 c-92 48 -102 51 -197 57 l-100 7 -60 -39 c-113 -75 -286 -275 -660 -768 -195 -256 -358 -465 -362 -463 -9 3 -39 45 -179 253 -167 248 -195 284 -262 343 -36 31 -100 100 -142 152 -142 174 -194 217 -377 306 l-161 79 -10 45 c-6 25 -22 98 -36 163 -20 94 -36 139 -78 220 -29 56 -60 103 -68 104 -8 0 -31 -6 -51 -14z m2314 -1756 c97 -149 193 -293 212 -318 l34 -45 -175 -82 c-96 -45 -179 -82 -184 -82 -5 0 -109 55 -232 121 -123 67 -229 125 -236 128 -8 5 51 92 190 279 112 149 205 271 208 271 3 1 85 -122 183 -272z"/>
</g>
</g>
  <g id="id1:id1" transform="matrix(1.25,0,0,1.25,0.0,0.0)"><g transform="translate(0.000000,1275.000000) scale(0.100000,-0.100000)" fill="#ffffff" stroke="none">
<path d="M6040 11900 c-832 -51 -1677 -300 -2364 -697 -696 -403 -1174 -810 -1640 -1398 -242 -305 -532 -773 -679 -1095 -308 -675 -469 -1349 -507 -2119 -27 -530 51 -1194 200 -1718 243 -851 644 -1569 1259 -2251 355 -395 888 -815 1374 -1084 650 -359 1327 -575 2087 -664 217 -26 264 -28 615 -28 352 0 397 2 610 28 482 57 872 149 1297 305 706 259 1246 589 1846 1129 486 438 990 1128 1265 1731 309 680 470 1351 507 2117 19 384 -19 873 -100 1301 -103 541 -344 1192 -600 1623 -428 721 -808 1167 -1400 1641 -319 255 -762 528 -1110 684 -398 179 -863 329 -1235 400 -341 65 -636 94 -985 99 -168 3 -366 1 -440 -4z m508 -1453 c15 -8 45 -22 67 -33 44 -21 132 -105 171 -163 13 -20 36 -77 50 -127 31 -106 29 -166 -11 -291 -21 -67 -35 -92 -78 -139 -171 -188 -419 -226 -619 -96 -96 62 -142 116 -177 202 -16 42 -34 102 -39 135 -19 120 24 274 105 371 39 47 141 124 165 124 8 0 23 6 34 14 27 19 79 25 202 21 61 -3 113 -9 130 -18z m-2390 -804 c42 -81 58 -126 78 -220 14 -65 30 -138 36 -163 l10 -45 161 -79 c183 -89 235 -132 377 -306 42 -52 106 -121 142 -152 67 -59 95 -95 262 -343 140 -208 170 -250 179 -253 4 -2 167 207 362 463 374 493 547 693 660 768 l60 39 100 -7 c95 -6 105 -9 197 -57 l96 -50 73 -111 c70 -108 74 -118 166 -401 285 -881 331 -1034 343 -1129 7 -52 16 -100 20 -107 7 -11 29 -11 122 3 82 13 178 17 351 17 248 0 321 -9 432 -55 62 -27 224 -136 320 -218 114 -97 148 -108 249 -81 100 27 301 25 406 -4 41 -11 95 -24 120 -27 60 -10 174 -81 280 -176 79 -71 90 -85 152 -205 63 -123 68 -136 92 -274 33 -191 118 -425 215 -595 38 -66 76 -134 84 -151 30 -60 169 -220 268 -310 90 -81 112 -96 206 -135 l106 -44 -315 -3 -315 -2 -184 81 c-101 45 -188 88 -194 96 -106 162 -208 320 -229 355 -22 39 -33 85 -65 299 -22 140 -42 280 -46 312 -4 40 -25 96 -69 188 l-63 131 -113 89 -113 89 -134 0 c-133 0 -133 0 -128 -22 3 -13 12 -52 20 -88 8 -36 22 -166 31 -290 l15 -225 -36 -144 c-20 -79 -42 -156 -49 -170 -7 -14 -21 -60 -31 -101 -10 -41 -43 -124 -73 -185 -90 -180 -102 -226 -102 -384 0 -121 4 -151 36 -285 42 -175 112 -337 184 -425 25 -31 51 -63 57 -72 11 -13 9 -27 -8 -75 -11 -32 -60 -187 -110 -343 l-89 -284 52 -171 c28 -94 62 -195 75 -224 l23 -52 -50 -100 -50 -99 25 -69 c19 -53 25 -89 25 -153 l0 -85 -62 -61 -63 -62 -156 -7 -156 -7 -99 43 c-54 23 -101 44 -103 46 -2 1 45 52 103 112 l107 110 -165 7 -166 7 22 31 c12 17 86 113 165 215 l143 184 0 167 c0 162 -1 173 -46 372 -25 112 -59 280 -75 372 -59 340 -180 635 -351 853 -51 65 -122 157 -158 204 -73 96 -308 360 -321 360 -19 0 -98 -35 -169 -76 -41 -23 -100 -47 -130 -54 -30 -7 -102 -27 -160 -46 -58 -18 -238 -63 -400 -100 -263 -59 -318 -69 -510 -85 -118 -10 -305 -18 -416 -19 l-200 0 -22 -45 c-16 -34 -27 -91 -42 -223 -11 -97 -27 -226 -35 -287 -18 -139 -22 -211 -40 -695 -9 -217 -18 -420 -21 -450 -5 -45 -1 -65 19 -110 13 -30 29 -79 36 -108 12 -58 3 -87 -53 -161 l-26 -35 30 -53 c17 -29 44 -77 60 -107 l30 -53 -22 -29 c-12 -16 -45 -59 -75 -95 l-53 -66 -129 -13 -130 -13 -47 -109 -47 -108 -264 0 c-209 0 -263 3 -256 13 62 101 228 315 307 397 l102 105 31 100 c49 156 59 347 45 877 -11 412 -12 428 -46 623 -20 110 -42 288 -51 395 -8 107 -19 242 -25 300 -6 58 -10 120 -10 139 0 35 -46 116 -100 176 -52 58 -149 232 -204 368 l-57 137 16 147 c8 80 15 207 15 283 l0 137 -56 134 c-31 74 -89 213 -130 309 -75 178 -186 532 -240 763 -15 65 -31 120 -36 123 -4 3 -47 -9 -95 -27 -76 -28 -103 -45 -202 -128 -63 -53 -127 -106 -142 -119 -15 -12 -51 -62 -78 -110 -40 -69 -66 -100 -126 -149 -143 -120 -215 -138 -297 -78 -154 113 -189 297 -84 442 61 84 143 244 224 433 65 155 70 172 80 275 7 78 21 143 46 222 34 104 41 116 82 150 25 21 63 63 85 93 l39 55 -34 35 c-19 19 -52 62 -74 94 -37 56 -39 61 -27 90 7 17 18 56 25 86 7 30 28 86 47 124 l35 69 47 -79 c94 -159 112 -180 207 -241 81 -54 208 -112 219 -101 3 2 -4 36 -16 74 -11 38 -21 74 -22 79 -1 6 20 69 47 142 46 125 50 132 85 146 20 8 43 14 51 14 8 -1 39 -48 68 -104z"/>
<path d="M5962 7978 c-139 -187 -198 -274 -190 -279 7 -3 113 -61 236 -128 123 -66 227 -121 232 -121 5 0 88 37 184 82 l175 82 -34 45 c-19 25 -115 169 -212 318 -98 150 -180 273 -183 272 -3 0 -96 -122 -208 -271z"/>
</g>
</g>
</svg>
