<?xml version="1.0" standalone="no"?>
<!DOCTYPE svg PUBLIC "-//W3C//DTD SVG 1.1//EN"
 "http://www.w3.org/Graphics/SVG/1.1/DTD/svg11.dtd">
<!-- Created with svg_stack (http://github.com/astraw/svg_stack) -->
<svg xmlns:sodipodi="http://sodipodi.sourceforge.net/DTD/sodipodi-0.dtd" xmlns="http://www.w3.org/2000/svg" version="1.1" width="966.25" height="1592.5">
  <defs/>
  <g id="id0:id0" transform="matrix(1.25,0,0,1.25,0.0,0.0)"><g transform="translate(0.000000,1274.000000) scale(0.100000,-0.100000)" fill="#000000" stroke="none">
<path d="M3580 12725 c-227 -27 -520 -107 -735 -203 -115 -51 -372 -212 -495 -310 -208 -166 -397 -380 -534 -602 -164 -266 -245 -465 -314 -770 -65 -284 -76 -609 -31 -900 15 -99 66 -300 111 -440 79 -246 292 -610 459 -785 l39 -41 -1034 -4309 c-569 -2371 -1037 -4322 -1041 -4337 l-7 -28 3867 0 3867 0 -7 28 c-4 15 -472 1966 -1041 4337 l-1034 4309 39 41 c118 124 241 305 335 493 140 281 187 424 236 725 26 163 30 213 30 382 0 168 -4 220 -30 382 -49 302 -94 441 -235 724 -228 455 -618 841 -1095 1081 -194 98 -538 197 -779 224 -150 16 -425 16 -571 -1z m546 -924 c229 -40 377 -100 581 -237 227 -153 391 -341 517 -591 70 -140 130 -359 146 -536 23 -245 -36 -561 -146 -780 -126 -250 -290 -438 -517 -591 -212 -142 -351 -197 -611 -242 -180 -30 -282 -30 -467 1 -303 51 -505 146 -744 347 -175 148 -347 385 -424 588 -59 152 -101 387 -101 561 0 166 42 397 101 549 77 202 250 442 424 588 228 191 441 295 705 341 148 26 389 27 536 2z m-1001 -3796 c448 -136 884 -153 1301 -50 156 38 350 98 396 121 l26 14 16 -68 c16 -68 1679 -7025 1691 -7075 l7 -27 -2697 0 -2697 0 7 28 c14 56 1715 7133 1715 7136 0 2 26 -7 58 -19 31 -13 111 -40 177 -60z"/>
</g>
</g>
  <g id="id1:id1" transform="matrix(1.25,0,0,1.25,0.0,0.0)"><g transform="translate(0.000000,1274.000000) scale(0.100000,-0.100000)" fill="#ffffff" stroke="none">
</g>
</g>
</svg>
