<?xml version="1.0" standalone="no"?>
<!DOCTYPE svg PUBLIC "-//W3C//DTD SVG 1.1//EN"
 "http://www.w3.org/Graphics/SVG/1.1/DTD/svg11.dtd">
<!-- Created with svg_stack (http://github.com/astraw/svg_stack) -->
<svg xmlns:sodipodi="http://sodipodi.sourceforge.net/DTD/sodipodi-0.dtd" xmlns="http://www.w3.org/2000/svg" version="1.1" width="1476.25" height="1595.0">
  <defs/>
  <g id="id0:id0" transform="matrix(1.25,0,0,1.25,0.0,0.0)"><g transform="translate(0.000000,1276.000000) scale(0.100000,-0.100000)" fill="#000000" stroke="none">
<path d="M0 12754 c0 -3 415 -680 921 -1505 l922 -1499 1938 0 1939 0 0 -3175 0 -3175 -29 0 c-48 0 -320 -67 -390 -95 -363 -149 -648 -386 -849 -708 -68 -108 -159 -312 -195 -437 -75 -258 -73 -664 3 -919 33 -111 124 -314 191 -426 199 -331 557 -615 916 -726 258 -80 273 -82 533 -83 260 0 274 2 520 75 148 45 284 110 440 214 461 303 750 848 750 1415 0 303 -94 637 -251 886 -204 325 -484 559 -850 709 -70 28 -342 95 -390 95 l-29 0 0 3175 0 3175 1939 0 c1748 0 1939 2 1945 16 3 8 418 683 921 1499 503 816 915 1486 915 1489 0 3 -828 6 -1841 6 -1469 0 -1840 -3 -1836 -12 3 -7 367 -600 810 -1318 l805 -1305 -3836 -3 c-2109 -1 -3837 0 -3839 2 -2 2 358 593 802 1314 443 721 805 1313 805 1316 0 3 -828 6 -1840 6 -1012 0 -1840 -3 -1840 -6z m3028 -374 c-6 -18 -1183 -1919 -1188 -1919 -5 0 -1182 1901 -1188 1919 -2 7 424 10 1188 10 764 0 1190 -3 1188 -10z m8130 0 c-6 -18 -1183 -1909 -1188 -1909 -5 0 -1182 1891 -1188 1909 -2 7 418 10 1188 10 770 0 1190 -3 1188 -10z m-4923 -9369 c224 -63 445 -190 600 -346 157 -158 213 -238 296 -427 146 -329 151 -684 17 -1023 -75 -190 -128 -273 -278 -436 -131 -143 -372 -292 -560 -347 -147 -43 -313 -72 -406 -72 -163 0 -450 71 -599 149 -430 224 -688 605 -735 1088 -29 302 64 636 250 895 177 248 488 456 780 523 41 9 80 19 85 21 6 2 114 2 240 0 201 -2 240 -6 310 -25z"/>
</g>
</g>
  <g id="id1:id1" transform="matrix(1.25,0,0,1.25,0.0,0.0)"><g transform="translate(0.000000,1276.000000) scale(0.100000,-0.100000)" fill="#ffffff" stroke="none">
</g>
</g>
</svg>
