<?xml version="1.0" standalone="no"?>
<!DOCTYPE svg PUBLIC "-//W3C//DTD SVG 1.1//EN"
 "http://www.w3.org/Graphics/SVG/1.1/DTD/svg11.dtd">
<!-- Created with svg_stack (http://github.com/astraw/svg_stack) -->
<svg xmlns:sodipodi="http://sodipodi.sourceforge.net/DTD/sodipodi-0.dtd" xmlns="http://www.w3.org/2000/svg" version="1.1" width="1982.5" height="1352.5">
  <defs/>
  <g id="id0:id0" transform="matrix(1.25,0,0,1.25,0.0,0.0)"><g transform="translate(0.000000,1082.000000) scale(0.100000,-0.100000)" fill="#000000" stroke="none">
<path d="M0 5410 l0 -5410 7930 0 7930 0 0 5410 0 5410 -7930 0 -7930 0 0 -5410z m15110 0 l0 -4660 -7087 0 c-4238 0 -7083 4 -7078 9 6 5 3151 2102 6990 4660 l6980 4651 98 0 97 0 0 -4660z"/>
</g>
</g>
  <g id="id1:id1" transform="matrix(1.25,0,0,1.25,0.0,0.0)"><g transform="translate(0.000000,1082.000000) scale(0.100000,-0.100000)" fill="#ffffff" stroke="none">
</g>
</g>
</svg>
