<?xml version="1.0" standalone="no"?>
<!DOCTYPE svg PUBLIC "-//W3C//DTD SVG 1.1//EN"
 "http://www.w3.org/Graphics/SVG/1.1/DTD/svg11.dtd">
<!-- Created with svg_stack (http://github.com/astraw/svg_stack) -->
<svg xmlns:sodipodi="http://sodipodi.sourceforge.net/DTD/sodipodi-0.dtd" xmlns="http://www.w3.org/2000/svg" version="1.1" width="1055.0" height="1595.0">
  <defs/>
  <g id="id0:id0" transform="matrix(1.25,0,0,1.25,0.0,0.0)"><g transform="translate(0.000000,1276.000000) scale(0.100000,-0.100000)" fill="#000000" stroke="none">
<path d="M375 12742 c-203 -8 -371 -16 -373 -17 -2 -2 2 -146 8 -321 35 -1057 298 -2146 769 -3189 248 -548 635 -1183 1018 -1670 223 -283 588 -684 782 -859 60 -54 108 -104 106 -110 -3 -6 -329 -1478 -725 -3271 -397 -1793 -724 -3270 -727 -3283 l-5 -22 1587 0 1587 0 -5 23 c-31 124 -1396 6271 -1394 6274 2 2 107 -78 233 -178 842 -666 1866 -1186 2909 -1478 471 -132 868 -208 1325 -255 312 -32 912 -67 925 -54 3 3 45 897 45 974 0 8 -85 13 -282 18 -732 17 -1517 174 -2303 458 -574 208 -1043 446 -1571 799 -228 152 -672 487 -734 553 l-24 27 727 727 727 727 -350 350 -350 350 -728 -727 c-679 -678 -728 -726 -742 -709 -545 664 -800 1059 -1126 1742 -403 844 -649 1864 -684 2829 -5 156 -10 290 -10 297 0 16 -106 15 -615 -5z"/>
</g>
</g>
  <g id="id1:id1" transform="matrix(1.25,0,0,1.25,0.0,0.0)"><g transform="translate(0.000000,1276.000000) scale(0.100000,-0.100000)" fill="#ffffff" stroke="none">
</g>
</g>
</svg>
