<?xml version="1.0" standalone="no"?>
<!DOCTYPE svg PUBLIC "-//W3C//DTD SVG 1.1//EN"
 "http://www.w3.org/Graphics/SVG/1.1/DTD/svg11.dtd">
<!-- Created with svg_stack (http://github.com/astraw/svg_stack) -->
<svg xmlns:sodipodi="http://sodipodi.sourceforge.net/DTD/sodipodi-0.dtd" xmlns="http://www.w3.org/2000/svg" version="1.1" width="801.25" height="1593.75">
  <defs/>
  <g id="id0:id0" transform="matrix(1.25,0,0,1.25,0.0,0.0)"><g transform="translate(0.000000,1275.000000) scale(0.100000,-0.100000)" fill="#181512" stroke="none">
<path d="M2490 9156 c0 -3268 -1 -3594 -16 -3600 -9 -3 -32 -6 -52 -6 -55 0 -284 -45 -397 -78 -334 -98 -731 -306 -985 -517 -530 -440 -881 -1043 -994 -1706 -61 -357 -57 -629 14 -1009 96 -510 374 -1032 753 -1413 214 -215 352 -321 619 -475 218 -126 499 -230 818 -303 212 -48 583 -63 865 -34 229 23 595 124 837 231 263 117 558 319 774 530 474 464 771 1061 835 1684 16 149 16 503 1 650 -56 531 -269 1024 -627 1455 -421 507 -992 847 -1620 964 -60 12 -126 21 -145 21 -19 0 -45 3 -57 6 l-23 6 0 2614 0 2614 1365 0 1365 0 0 -680 0 -680 295 0 295 0 0 980 0 980 -1660 0 -1660 0 0 680 0 680 -300 0 -300 0 0 -3594z m815 -4239 c218 -56 295 -85 492 -187 251 -130 369 -218 569 -421 133 -137 199 -221 297 -379 127 -208 192 -365 252 -615 56 -233 65 -309 65 -531 0 -219 -8 -285 -62 -514 -61 -260 -107 -373 -261 -630 -142 -239 -349 -463 -575 -623 -166 -118 -249 -165 -406 -232 -190 -80 -340 -125 -541 -161 -161 -29 -213 -34 -340 -34 -329 0 -750 112 -1065 282 -96 52 -325 214 -413 292 -165 146 -377 436 -501 683 -137 274 -209 597 -209 938 0 424 106 800 327 1154 170 274 376 490 627 659 101 68 362 203 474 245 92 35 356 103 455 117 30 5 186 7 345 6 l290 -3 180 -46z"/>
</g>
</g>
  <g id="id1:id1" transform="matrix(1.25,0,0,1.25,0.0,0.0)"><g transform="translate(0.000000,1275.000000) scale(0.100000,-0.100000)" fill="#ffffff" stroke="none">
</g>
</g>
</svg>
