<?xml version="1.0" standalone="no"?>
<!DOCTYPE svg PUBLIC "-//W3C//DTD SVG 1.1//EN"
 "http://www.w3.org/Graphics/SVG/1.1/DTD/svg11.dtd">
<!-- Created with svg_stack (http://github.com/astraw/svg_stack) -->
<svg xmlns:sodipodi="http://sodipodi.sourceforge.net/DTD/sodipodi-0.dtd" xmlns="http://www.w3.org/2000/svg" version="1.1" width="1597.5" height="1596.25">
  <defs/>
  <g id="id0:id0" transform="matrix(1.25,0,0,1.25,0.0,0.0)"><g transform="translate(0.000000,1277.000000) scale(0.100000,-0.100000)" fill="#00ff00" stroke="none">
<path d="M6000 12760 c-398 -21 -955 -114 -1347 -226 -680 -194 -1222 -446 -1823 -847 -955 -638 -1736 -1549 -2238 -2612 -200 -424 -382 -986 -466 -1440 -161 -870 -161 -1630 0 -2500 84 -454 266 -1017 466 -1440 503 -1063 1283 -1974 2238 -2612 601 -401 1143 -653 1823 -847 307 -87 617 -147 1027 -197 263 -32 269 -33 710 -33 441 0 447 1 710 33 416 51 721 110 1020 196 849 247 1513 586 2219 1134 1051 815 1815 1959 2191 3281 374 1314 321 2640 -159 3960 -158 435 -412 936 -672 1325 -371 556 -843 1065 -1359 1466 -706 548 -1371 887 -2220 1134 -298 86 -615 147 -1020 196 -229 27 -291 30 -605 34 -192 2 -415 0 -495 -5z m940 -1645 c458 -51 960 -192 1440 -405 404 -179 813 -453 1236 -827 315 -278 714 -783 922 -1169 327 -604 485 -1090 579 -1774 24 -181 26 -221 26 -555 0 -334 -2 -374 -26 -553 -94 -686 -253 -1173 -579 -1776 -210 -389 -606 -890 -929 -1176 -352 -311 -533 -443 -892 -649 -506 -290 -1211 -516 -1812 -582 -297 -33 -739 -33 -1035 0 -591 65 -1304 294 -1807 582 -458 263 -852 571 -1141 893 -330 368 -471 562 -692 945 -271 468 -509 1203 -571 1758 -32 287 -32 829 0 1116 62 556 299 1289 570 1758 221 383 367 581 693 945 274 305 706 643 1148 897 475 273 1192 507 1750 572 164 19 251 23 550 24 314 0 380 -2 570 -24z"/>
<path d="M4530 6385 l0 -2325 465 0 465 0 0 1015 0 1015 920 0 920 0 0 -1015 0 -1015 470 0 470 0 0 2325 0 2325 -470 0 -470 0 0 -915 0 -915 -920 0 -920 0 0 915 0 915 -465 0 -465 0 0 -2325z"/>
</g>
</g>
  <g id="id1:id1" transform="matrix(1.25,0,0,1.25,0.0,0.0)"><g transform="translate(0.000000,1277.000000) scale(0.100000,-0.100000)" fill="#ffffb2" stroke="none">
<path d="M5820 11115 c-558 -65 -1275 -299 -1750 -572 -442 -254 -874 -592 -1148 -897 -326 -364 -472 -562 -693 -945 -271 -469 -508 -1202 -570 -1758 -32 -287 -32 -829 0 -1116 62 -555 300 -1290 571 -1758 221 -383 362 -577 692 -945 289 -322 683 -630 1141 -893 503 -288 1216 -517 1807 -582 296 -33 738 -33 1035 0 601 66 1306 292 1812 582 359 206 540 338 892 649 323 286 719 787 929 1176 326 603 485 1090 579 1776 24 179 26 219 26 553 0 334 -2 374 -26 555 -94 684 -252 1170 -579 1774 -208 386 -607 891 -922 1169 -423 374 -832 648 -1236 827 -480 213 -982 354 -1440 405 -190 22 -256 24 -570 24 -299 -1 -386 -5 -550 -24z m-360 -3320 l0 -915 920 0 920 0 0 915 0 915 470 0 470 0 0 -2325 0 -2325 -470 0 -470 0 0 1015 0 1015 -920 0 -920 0 0 -1015 0 -1015 -465 0 -465 0 0 2325 0 2325 465 0 465 0 0 -915z"/>
</g>
</g>
  <g id="id2:id2" transform="matrix(1.25,0,0,1.25,0.0,0.0)"><g transform="translate(0.000000,1277.000000) scale(0.100000,-0.100000)" fill="#ffffff" stroke="none">
</g>
</g>
</svg>
