<?xml version="1.0" standalone="no"?>
<!DOCTYPE svg PUBLIC "-//W3C//DTD SVG 1.1//EN"
 "http://www.w3.org/Graphics/SVG/1.1/DTD/svg11.dtd">
<!-- Created with svg_stack (http://github.com/astraw/svg_stack) -->
<svg xmlns:sodipodi="http://sodipodi.sourceforge.net/DTD/sodipodi-0.dtd" xmlns="http://www.w3.org/2000/svg" version="1.1" width="1481.25" height="1595.0">
  <defs/>
  <g id="id0:id0" transform="matrix(1.25,0,0,1.25,0.0,0.0)"><g transform="translate(0.000000,1276.000000) scale(0.100000,-0.100000)" fill="#999999" stroke="none">
<path d="M8650 12740 c-203 -35 -441 -132 -621 -251 -180 -120 -409 -380 -508 -577 -101 -201 -118 -252 -156 -467 -32 -178 -33 -344 -5 -523 35 -213 61 -294 160 -492 95 -189 324 -454 492 -568 257 -175 627 -292 924 -292 284 0 650 117 910 290 100 67 266 234 368 370 226 303 338 694 306 1066 -34 394 -191 723 -490 1025 -207 210 -510 364 -825 420 -146 25 -405 25 -555 -1z"/>
<path d="M3130 11064 c-1147 -553 -2143 -1033 -2213 -1067 l-128 -62 1420 -1250 c780 -687 1424 -1251 1429 -1253 8 -2 2836 1141 2849 1152 6 5 -1254 3480 -1262 3482 -6 2 -948 -449 -2095 -1002z m2207 -974 c233 -651 422 -1184 420 -1186 -13 -11 -2001 -814 -2009 -812 -5 2 -442 386 -969 853 l-959 850 32 15 c18 8 710 342 1538 742 828 400 1509 726 1515 724 5 -1 200 -535 432 -1186z"/>
<path d="M7363 6907 c-1364 -1256 -2531 -2330 -2592 -2388 l-110 -105 1442 -2017 c793 -1109 1444 -2016 1447 -2016 4 0 4149 6763 4277 6977 l22 38 -994 894 c-546 492 -997 896 -1002 897 -5 2 -1125 -1024 -2490 -2280z m3127 938 l619 -559 -22 -38 c-124 -208 -3573 -5827 -3577 -5827 -4 0 -2061 2869 -2082 2904 -4 7 356 345 949 891 2203 2026 3478 3194 3486 3191 5 -1 287 -254 627 -562z"/>
<path d="M1920 4450 c-81 -11 -261 -57 -377 -96 -365 -122 -647 -295 -904 -555 -257 -260 -438 -574 -554 -960 -53 -174 -91 -507 -80 -694 33 -563 219 -1017 582 -1421 166 -185 386 -353 615 -469 218 -111 288 -137 493 -186 209 -50 347 -68 533 -69 191 0 301 14 522 65 221 52 311 84 484 173 309 156 576 384 801 683 85 114 124 176 181 294 108 225 206 536 233 744 14 108 14 429 0 546 -27 227 -137 561 -274 835 -50 100 -231 334 -352 457 -156 158 -261 239 -473 368 -163 99 -368 179 -645 251 l-140 37 -295 3 c-162 1 -320 -1 -350 -6z"/>
</g>
</g>
  <g id="id1:id1" transform="matrix(1.25,0,0,1.25,0.0,0.0)"><g transform="translate(0.000000,1276.000000) scale(0.100000,-0.100000)" fill="#ffffff" stroke="none">
</g>
</g>
</svg>
