<?xml version="1.0" standalone="no"?>
<!DOCTYPE svg PUBLIC "-//W3C//DTD SVG 1.1//EN"
 "http://www.w3.org/Graphics/SVG/1.1/DTD/svg11.dtd">
<!-- Created with svg_stack (http://github.com/astraw/svg_stack) -->
<svg xmlns:sodipodi="http://sodipodi.sourceforge.net/DTD/sodipodi-0.dtd" xmlns="http://www.w3.org/2000/svg" version="1.1" width="1311.25" height="1590.0">
  <defs/>
  <g id="id0:id0" transform="matrix(1.25,0,0,1.25,0.0,0.0)"><g transform="translate(0.000000,1272.000000) scale(0.100000,-0.100000)" fill="#000000" stroke="none">
<path d="M4410 10772 l0 -1948 -152 -101 c-311 -205 -504 -413 -653 -705 -142 -277 -215 -560 -215 -838 l0 -135 -1695 -975 -1694 -974 32 -57 c174 -307 804 -1388 809 -1389 3 0 761 437 1684 971 923 534 1684 973 1691 976 7 3 52 -20 100 -50 49 -31 125 -72 170 -91 86 -38 255 -96 279 -96 12 0 14 -316 14 -2220 l0 -2220 -880 0 -880 0 0 -460 0 -460 2225 0 2225 0 0 460 0 460 -880 0 -880 0 2 2216 3 2216 85 28 c145 48 294 115 375 170 42 28 84 50 93 47 10 -2 772 -441 1695 -975 923 -535 1682 -972 1685 -972 5 1 635 1082 809 1389 l32 57 -1694 974 -1695 975 0 135 c0 349 -122 729 -333 1039 -129 189 -296 347 -534 503 l-153 101 0 1948 0 1949 -835 0 -835 0 0 -1948z m1097 -2538 c249 -58 475 -207 628 -414 120 -162 185 -328 210 -534 15 -121 15 -143 0 -262 -17 -139 -76 -333 -122 -401 -13 -19 -33 -53 -45 -76 -32 -64 -193 -232 -280 -293 -111 -78 -263 -148 -393 -180 -95 -23 -131 -27 -260 -27 -187 0 -315 28 -473 103 -143 68 -242 142 -348 257 -103 112 -146 178 -203 313 -71 169 -85 241 -85 435 0 145 3 182 22 255 34 127 110 296 167 372 142 189 261 289 448 378 155 75 265 98 464 99 140 1 175 -2 270 -25z"/>
</g>
</g>
  <g id="id1:id1" transform="matrix(1.25,0,0,1.25,0.0,0.0)"><g transform="translate(0.000000,1272.000000) scale(0.100000,-0.100000)" fill="#ffffff" stroke="none">
<path d="M4976 8234 c-196 -48 -409 -172 -533 -310 -115 -128 -166 -204 -215 -319 -78 -184 -92 -252 -92 -450 0 -194 14 -266 85 -435 57 -135 100 -201 203 -313 106 -115 205 -189 348 -257 158 -75 286 -103 473 -103 129 0 165 4 260 27 130 32 282 102 393 180 87 61 248 229 280 293 12 23 32 57 45 76 13 19 42 88 65 153 89 256 88 509 -2 761 -53 150 -113 247 -242 390 -125 139 -336 260 -537 307 -95 23 -130 26 -270 25 -135 -1 -179 -5 -261 -25z"/>
</g>
</g>
</svg>
