<?xml version="1.0" standalone="no"?>
<!DOCTYPE svg PUBLIC "-//W3C//DTD SVG 1.1//EN"
 "http://www.w3.org/Graphics/SVG/1.1/DTD/svg11.dtd">
<!-- Created with svg_stack (http://github.com/astraw/svg_stack) -->
<svg xmlns:sodipodi="http://sodipodi.sourceforge.net/DTD/sodipodi-0.dtd" xmlns="http://www.w3.org/2000/svg" version="1.1" width="1991.25" height="1037.5">
  <defs/>
  <g id="id0:id0" transform="matrix(1.25,0,0,1.25,0.0,0.0)"><g transform="translate(0.000000,830.000000) scale(0.100000,-0.100000)" fill="#000000" stroke="none">
<path d="M0 4150 l0 -4150 7965 0 7965 0 0 4150 0 4150 -7965 0 -7965 0 0 -4150z m15240 5 l0 -3465 -7280 0 -7280 0 0 3465 0 3465 7280 0 7280 0 0 -3465z"/>
<path d="M3860 5260 c-247 -62 -456 -202 -609 -408 -109 -145 -164 -254 -203 -398 -31 -113 -33 -127 -33 -299 0 -172 2 -185 33 -299 49 -182 169 -386 303 -516 139 -136 353 -252 554 -301 131 -32 362 -32 493 0 386 95 719 388 830 731 48 148 57 208 57 385 0 177 -9 236 -57 385 -56 174 -192 364 -361 505 -122 101 -269 175 -431 215 -109 28 -131 30 -290 29 -154 0 -182 -3 -286 -29z"/>
<path d="M11500 5263 c-110 -25 -285 -101 -377 -164 -70 -48 -198 -174 -258 -254 -97 -130 -201 -369 -225 -517 -5 -34 -10 -112 -10 -173 0 -138 12 -211 54 -333 96 -280 241 -473 461 -614 127 -82 242 -133 375 -166 91 -22 125 -25 260 -25 180 1 295 24 440 88 121 54 295 170 359 241 209 228 295 407 326 673 14 124 14 149 0 272 -24 209 -98 395 -213 541 -153 192 -240 264 -423 353 -168 80 -288 105 -501 104 -135 -1 -181 -5 -268 -26z"/>
</g>
</g>
  <g id="id1:id1" transform="matrix(1.25,0,0,1.25,0.0,0.0)"><g transform="translate(0.000000,830.000000) scale(0.100000,-0.100000)" fill="#ffffff" stroke="none">
</g>
</g>
</svg>
