<?xml version="1.0" encoding="UTF-8" standalone="no"?>
<!-- Created with Inkscape (http://www.inkscape.org/) -->

<svg
   xmlns:dc="http://purl.org/dc/elements/1.1/"
   xmlns:cc="http://creativecommons.org/ns#"
   xmlns:rdf="http://www.w3.org/1999/02/22-rdf-syntax-ns#"
   xmlns:svg="http://www.w3.org/2000/svg"
   xmlns="http://www.w3.org/2000/svg"
   xmlns:inkscape="http://www.inkscape.org/namespaces/inkscape"
   version="1.1"
   width="100%"
   height="100%"
   viewBox="0 0 349.66796 349.90469"
   id="svg96089"
   xml:space="preserve"
   style="fill-rule:evenodd;stroke-linecap:round;stroke-linejoin:round"><metadata
     id="metadata96272"><rdf:RDF><cc:Work
         rdf:about=""><dc:format>image/svg+xml</dc:format><dc:type
           rdf:resource="http://purl.org/dc/dcmitype/StillImage" /></cc:Work></rdf:RDF></metadata><defs
     id="defs96091"><clipPath
       id="clipId0"><path
         d="M 0,600 800,600 800,0 0,0 z"
         inkscape:connector-curvature="0"
         id="path96094" /></clipPath></defs><g
     transform="translate(-225.48943,-124.17392)"
     clip-path="url(#clipId0)"
     id="g96096"
     style="fill:none;stroke:#000000;stroke-width:0.1" /><g
     transform="translate(-225.48943,-124.17392)"
     clip-path="url(#clipId0)"
     id="g96098"
     style="fill:#ff7f7f;stroke:none" /><g
     transform="translate(-225.48943,-124.17392)"
     clip-path="url(#clipId0)"
     id="g96260"
     style="fill:none;stroke:#ff7f7f;stroke-width:0.25" /><path
     d="M 171.13557,0.01358129 C 107.53092,0.89461129 46.548778,39.329081 18.500858,96.345511 -6.6293917,145.97431 -6.2893317,207.81747 20.323068,256.98233 c 26.8273,51.2246 81.107792,87.62399 139.031252,92.1875 59.89572,5.69196 121.32105,-22.03851 156.53382,-70.80274 35.8222,-48.23814 43.98158,-115.24788 20.49743,-170.57226 C 313.8676,53.074601 262.38278,11.777621 203.88268,2.4592313 193.08497,0.65365129 182.11736,-0.11397871 171.13557,0.01358129 z m 3.6875,36.53124971 c 30.14374,0.0582 60.16838,10.19745 84.0625,28.46875 -28.01558,28.03644 -56.07311,56.031399 -84.0625,84.093749 C 146.83375,121.04491 118.7761,93.050081 90.760568,65.013581 114.70628,46.684321 144.61391,36.612071 174.82307,36.544831 z M 66.573068,92.513581 c 27.48436,27.463499 54.927232,54.968949 82.437502,82.406249 -28.04677,27.9945 -56.067832,56.01586 -84.062502,84.0625 -35.06484,-44.47486 -37.92057,-111.43723 -6.64783,-158.65438 2.07507,-3.222789 4.27412,-6.400399 6.64783,-9.439369 0.54167,0.54167 1.08333,1.08333 1.625,1.625 z m 219.468752,0.15625 c 33.72083,44.304359 36.11207,109.841379 5.51675,156.451239 -2.12886,3.3914 -4.49666,6.61173 -6.82925,9.89251 -28.00503,-28.05712 -56.03664,-56.08875 -84.09375,-84.09375 28.02593,-27.97367 56.02617,-55.9742 84,-83.999999 0.46875,0.58333 0.9375,1.16667 1.40625,1.75 z M 176.22932,202.16983 c 27.54167,27.54167 55.08333,55.08333 82.625,82.625 -44.45387,35.05677 -111.47433,37.93549 -158.6875,6.59375 -2.616852,-2.30954 -8.753722,-4.58668 -8.723822,-7.26297 27.806072,-27.78482 55.615162,-55.56745 83.380072,-83.39328 0.46875,0.47917 0.9375,0.95833 1.40625,1.4375 z"
     inkscape:connector-curvature="0"
     id="path96268"
     style="fill:#ff7f7f;fill-rule:nonzero;stroke:none" /></svg>