<?xml version="1.0" standalone="no"?>
<!DOCTYPE svg PUBLIC "-//W3C//DTD SVG 1.1//EN"
 "http://www.w3.org/Graphics/SVG/1.1/DTD/svg11.dtd">
<!-- Created with svg_stack (http://github.com/astraw/svg_stack) -->
<svg xmlns:sodipodi="http://sodipodi.sourceforge.net/DTD/sodipodi-0.dtd" xmlns="http://www.w3.org/2000/svg" version="1.1" width="1848.75" height="1597.5">
  <defs/>
  <g id="id0:id0" transform="matrix(1.25,0,0,1.25,0.0,0.0)"><g transform="translate(0.000000,1278.000000) scale(0.100000,-0.100000)" fill="#000000" stroke="none">
<path d="M1010 6610 l0 -6170 -505 0 -505 0 0 -220 0 -220 1230 0 1230 0 0 220 0 220 -505 0 -505 0 0 5945 0 5945 2860 0 2860 0 0 -750 0 -750 220 0 220 0 0 750 0 750 2860 0 2860 0 0 -5945 0 -5945 -505 0 -505 0 0 -220 0 -220 1235 0 1235 0 0 220 0 220 -505 0 -505 0 0 6170 0 6170 -6385 0 -6385 0 0 -6170z"/>
</g>
</g>
  <g id="id1:id1" transform="matrix(1.25,0,0,1.25,0.0,0.0)"><g transform="translate(0.000000,1278.000000) scale(0.100000,-0.100000)" fill="#ffffff" stroke="none">
</g>
</g>
</svg>
