<?xml version="1.0" standalone="no"?>
<!DOCTYPE svg PUBLIC "-//W3C//DTD SVG 1.1//EN"
 "http://www.w3.org/Graphics/SVG/1.1/DTD/svg11.dtd">
<!-- Created with svg_stack (http://github.com/astraw/svg_stack) -->
<svg xmlns:sodipodi="http://sodipodi.sourceforge.net/DTD/sodipodi-0.dtd" xmlns="http://www.w3.org/2000/svg" version="1.1" width="1595.0" height="1593.75">
  <defs/>
  <g id="id0:id0" transform="matrix(1.25,0,0,1.25,0.0,0.0)"><g transform="translate(0.000000,1275.000000) scale(0.100000,-0.100000)" fill="#000000" stroke="none">
<path d="M5985 12740 c-402 -22 -923 -114 -1350 -239 -1321 -386 -2418 -1121 -3262 -2183 -702 -884 -1185 -2050 -1322 -3188 -122 -1013 -6 -1967 359 -2972 450 -1239 1313 -2336 2420 -3075 834 -557 1825 -921 2840 -1044 262 -32 270 -33 710 -33 440 0 448 1 710 33 840 102 1688 376 2410 779 863 482 1625 1187 2179 2017 366 548 632 1127 830 1808 234 804 301 1642 200 2487 -137 1138 -620 2304 -1322 3188 -742 935 -1697 1628 -2791 2028 -500 183 -972 298 -1471 360 -260 32 -305 34 -635 38 -195 2 -422 1 -505 -4z m95 -6365 l0 -5525 -47 0 c-98 0 -555 60 -753 99 -675 132 -1385 426 -1972 819 -723 484 -1302 1109 -1758 1896 -262 453 -498 1093 -600 1629 -81 429 -119 916 -100 1298 38 770 199 1444 507 2119 147 322 437 790 679 1095 466 588 944 995 1640 1398 473 273 1082 499 1624 602 203 39 609 92 718 94 l62 1 0 -5525z m950 5495 c469 -56 836 -143 1262 -299 689 -253 1261 -602 1846 -1129 290 -262 626 -657 849 -1002 291 -449 430 -720 583 -1138 203 -549 310 -1086 340 -1711 27 -530 -51 -1194 -200 -1718 -243 -851 -645 -1570 -1260 -2253 -347 -385 -910 -831 -1365 -1083 -483 -266 -1107 -495 -1620 -592 -196 -37 -640 -95 -732 -95 l-53 0 0 5525 0 5525 53 0 c28 0 162 -13 297 -30z"/>
<path d="M3235 8724 c-87 -23 -119 -39 -172 -92 -107 -105 -139 -242 -88 -377 30 -80 63 -124 124 -168 76 -54 130 -70 224 -65 138 8 243 76 304 196 25 50 28 65 28 161 -1 97 -3 110 -28 156 -67 121 -164 183 -296 190 -42 2 -85 2 -96 -1z"/>
<path d="M3560 7889 c-25 -17 -102 -58 -172 -91 l-127 -61 -298 -345 c-164 -189 -325 -377 -358 -416 -33 -40 -129 -151 -214 -247 -117 -133 -163 -193 -193 -254 l-41 -80 27 -51 c62 -118 209 -180 288 -121 48 35 172 164 252 262 98 120 355 405 366 405 9 0 12 -8 60 -170 17 -58 38 -121 46 -141 l16 -36 -551 -1114 c-511 -1033 -551 -1118 -551 -1165 0 -37 8 -65 27 -100 33 -60 39 -65 133 -103 97 -40 153 -41 220 -3 97 55 85 32 720 1365 178 372 326 677 330 677 6 0 674 -1698 725 -1847 37 -106 44 -119 87 -160 39 -37 147 -83 195 -83 42 0 139 49 174 87 14 15 34 47 44 70 39 91 35 101 -295 998 -167 451 -351 957 -410 1124 l-108 304 49 165 c27 90 49 168 49 173 0 4 5 20 10 34 l10 27 121 -113 c67 -63 148 -136 180 -164 l59 -49 0 -183 c0 -115 4 -191 11 -207 7 -14 30 -38 53 -53 36 -24 51 -27 123 -28 73 0 84 2 108 25 15 14 40 51 56 82 l29 57 0 211 c0 167 -3 218 -15 248 -11 25 -172 194 -518 541 -276 276 -520 516 -541 532 -54 40 -114 39 -176 -2z"/>
<path d="M8582 7368 l-211 -223 27 -20 c15 -11 38 -30 52 -42 l25 -23 -34 3 -34 2 -145 -475 -145 -475 -138 3 c-131 3 -142 2 -257 -32 -139 -40 -135 -38 -267 -126 -62 -42 -129 -98 -174 -146 -61 -66 -84 -100 -136 -209 -72 -150 -84 -197 -92 -355 -8 -168 13 -271 84 -428 74 -161 168 -271 318 -372 128 -85 131 -87 229 -115 132 -38 266 -51 383 -36 112 14 230 44 288 74 101 51 213 138 294 228 69 77 94 114 138 205 65 139 82 206 90 359 7 164 -13 276 -74 410 -25 55 -59 120 -76 145 -57 84 -161 182 -267 252 -58 39 -106 71 -108 73 -2 2 2 21 8 44 l11 41 897 0 898 0 16 -50 16 -51 -91 -61 c-119 -78 -176 -133 -247 -238 -76 -114 -93 -149 -130 -271 -29 -96 -31 -115 -31 -249 0 -131 2 -155 29 -245 66 -226 186 -393 368 -516 139 -93 233 -127 416 -150 123 -16 260 -1 402 44 343 106 596 453 613 838 5 103 2 128 -20 216 -38 146 -62 203 -129 305 -77 119 -141 185 -251 259 -105 71 -141 88 -286 129 -104 30 -118 31 -248 28 -76 -2 -145 -7 -154 -11 -14 -7 -29 28 -95 219 -44 125 -80 231 -82 236 -2 4 15 8 37 8 l41 0 0 180 0 180 -275 0 -275 0 0 -180 0 -179 111 -3 111 -3 29 -78 c15 -43 31 -87 34 -98 6 -19 -8 -19 -809 -19 -449 0 -816 3 -816 7 0 8 170 567 174 570 1 1 69 -50 151 -113 81 -63 152 -113 155 -112 4 2 33 35 65 73 32 39 64 77 71 85 12 14 -11 35 -166 155 l-179 139 125 132 124 132 -84 76 c-46 42 -85 76 -88 76 -2 0 -99 -100 -216 -222z m-542 -1495 c0 -5 -43 -147 -95 -317 -52 -171 -93 -311 -92 -312 15 -11 221 -64 226 -58 5 5 50 146 101 314 51 168 94 307 96 309 1 1 38 -21 81 -51 97 -66 182 -175 239 -304 l39 -89 0 -160 c-1 -158 -1 -161 -33 -235 -49 -113 -132 -229 -202 -284 -54 -42 -78 -57 -165 -104 -29 -14 -119 -39 -198 -53 -152 -28 -384 49 -521 173 -148 133 -226 309 -226 508 0 137 45 279 118 378 119 158 237 240 402 277 60 14 230 19 230 8z m2727 -7 c135 -29 244 -94 353 -213 103 -113 170 -286 170 -441 0 -73 -26 -212 -51 -270 -95 -220 -309 -377 -562 -413 -68 -10 -94 -9 -157 4 -179 38 -272 84 -383 191 -130 126 -207 306 -207 488 0 205 121 433 290 548 51 34 59 37 65 22 3 -9 52 -147 107 -307 55 -159 104 -294 109 -299 6 -6 199 55 216 69 2 1 -189 556 -213 618 -5 15 4 17 94 17 56 0 131 -6 169 -14z"/>
</g>
</g>
  <g id="id1:id1" transform="matrix(1.25,0,0,1.25,0.0,0.0)"><g transform="translate(0.000000,1275.000000) scale(0.100000,-0.100000)" fill="#ffffff" stroke="none">
<path d="M5725 11870 c-451 -54 -824 -143 -1250 -297 -788 -285 -1606 -829 -2153 -1430 -386 -425 -756 -974 -965 -1433 -308 -675 -469 -1349 -507 -2119 -19 -382 19 -869 100 -1298 102 -536 338 -1176 600 -1629 456 -787 1035 -1412 1758 -1896 587 -393 1297 -687 1972 -819 198 -39 655 -99 753 -99 l47 0 0 5525 0 5525 -62 -1 c-35 -1 -166 -14 -293 -29z m-2264 -3173 c63 -28 126 -91 166 -162 25 -46 27 -59 28 -156 0 -96 -3 -111 -28 -161 -61 -120 -166 -188 -304 -196 -94 -5 -148 11 -224 65 -61 44 -94 88 -124 168 -51 135 -19 272 88 377 53 53 85 69 172 92 47 12 173 -3 226 -27z m275 -806 c21 -16 265 -256 541 -532 346 -347 507 -516 518 -541 12 -30 15 -81 15 -248 l0 -211 -29 -57 c-16 -31 -41 -68 -56 -82 -24 -23 -35 -25 -108 -25 -72 1 -87 4 -123 28 -23 15 -46 39 -53 53 -7 16 -11 92 -11 207 l0 183 -59 49 c-32 28 -113 101 -180 164 l-121 113 -10 -27 c-5 -14 -10 -30 -10 -34 0 -5 -22 -83 -49 -173 l-49 -165 108 -304 c59 -167 243 -673 410 -1124 330 -897 334 -907 295 -998 -10 -23 -30 -55 -44 -70 -35 -38 -132 -87 -174 -87 -48 0 -156 46 -195 83 -43 41 -50 54 -87 160 -51 149 -719 1847 -725 1847 -4 0 -152 -305 -330 -677 -635 -1333 -623 -1310 -720 -1365 -67 -38 -123 -37 -220 3 -94 38 -100 43 -133 103 -19 35 -27 63 -27 100 0 47 40 132 551 1165 l551 1114 -16 36 c-8 20 -29 83 -46 141 -48 162 -51 170 -60 170 -11 0 -268 -285 -366 -405 -80 -98 -204 -227 -252 -262 -79 -59 -226 3 -288 121 l-27 51 41 80 c30 61 76 121 193 254 85 96 181 207 214 247 33 39 194 227 358 416 l298 345 127 61 c70 33 147 74 172 91 62 41 122 42 176 2z"/>
<path d="M6680 6375 l0 -5525 53 0 c92 0 536 58 732 95 675 128 1452 450 1995 825 749 518 1297 1111 1750 1894 262 453 498 1093 600 1629 81 429 119 916 100 1298 -38 770 -199 1444 -507 2119 -143 315 -435 787 -669 1083 -459 582 -975 1026 -1639 1409 -458 265 -1101 503 -1630 603 -196 37 -640 95 -732 95 l-53 0 0 -5525z m2206 1139 l84 -76 -124 -132 -125 -132 179 -139 c155 -120 178 -141 166 -155 -7 -8 -39 -46 -71 -85 -32 -38 -61 -71 -65 -73 -3 -1 -74 49 -155 112 -82 63 -150 114 -151 113 -4 -3 -174 -562 -174 -570 0 -4 367 -7 816 -7 801 0 815 0 809 19 -3 11 -19 55 -34 98 l-29 78 -111 3 -111 3 0 179 0 180 275 0 275 0 0 -180 0 -180 -41 0 c-22 0 -39 -4 -37 -8 2 -5 38 -111 82 -236 66 -191 81 -226 95 -219 9 4 78 9 154 11 130 3 144 2 248 -28 145 -41 181 -58 286 -129 110 -74 174 -140 251 -259 67 -102 91 -159 129 -305 22 -88 25 -113 20 -216 -17 -385 -270 -732 -613 -838 -142 -45 -279 -60 -402 -44 -183 23 -277 57 -416 150 -182 123 -302 290 -368 516 -27 90 -29 114 -29 245 0 134 2 153 31 249 37 122 54 157 130 271 71 105 128 160 247 238 l91 61 -16 51 -16 50 -898 0 -897 0 -11 -41 c-6 -23 -10 -42 -8 -44 2 -2 50 -34 108 -73 106 -70 210 -168 267 -252 17 -25 51 -90 76 -145 61 -134 81 -246 74 -410 -8 -153 -25 -220 -90 -359 -44 -91 -69 -128 -138 -205 -81 -90 -193 -177 -294 -228 -58 -30 -176 -60 -288 -74 -117 -15 -251 -2 -383 36 -98 28 -101 30 -229 115 -150 101 -244 211 -318 372 -71 157 -92 260 -84 428 8 158 20 205 92 355 52 109 75 143 136 209 45 48 112 104 174 146 132 88 128 86 267 126 115 34 126 35 257 32 l138 -3 145 475 145 475 34 -2 34 -3 -25 23 c-14 12 -37 31 -52 42 l-27 20 211 223 c117 122 214 222 216 222 3 0 42 -34 88 -76z"/>
<path d="M7810 5865 c-300 -68 -520 -345 -520 -655 0 -149 31 -252 115 -379 106 -161 275 -265 492 -303 56 -9 86 -9 140 1 79 14 169 39 198 53 87 47 111 62 165 104 70 55 153 171 202 284 32 74 32 77 33 235 l0 160 -39 89 c-57 129 -142 238 -239 304 -43 30 -80 52 -81 51 -2 -2 -45 -141 -96 -309 -51 -168 -96 -309 -101 -314 -5 -6 -211 47 -226 58 -1 1 40 141 92 312 52 170 95 312 95 317 0 11 -170 6 -230 -8z"/>
<path d="M10504 5863 c24 -62 215 -617 213 -618 -17 -14 -210 -75 -216 -69 -5 5 -54 140 -109 299 -55 160 -104 298 -107 307 -6 15 -14 12 -65 -22 -169 -115 -290 -343 -290 -548 0 -182 77 -362 207 -488 111 -107 204 -153 383 -191 167 -35 385 32 537 165 77 68 146 160 182 244 25 58 51 197 51 270 0 155 -67 328 -170 441 -149 163 -297 227 -522 227 -90 0 -99 -2 -94 -17z"/>
</g>
</g>
</svg>
