<?xml version="1.0" encoding="UTF-8" standalone="no"?>
<svg
   xmlns:dc="http://purl.org/dc/elements/1.1/"
   xmlns:cc="http://creativecommons.org/ns#"
   xmlns:rdf="http://www.w3.org/1999/02/22-rdf-syntax-ns#"
   xmlns:svg="http://www.w3.org/2000/svg"
   xmlns="http://www.w3.org/2000/svg"
   xmlns:sodipodi="http://sodipodi.sourceforge.net/DTD/sodipodi-0.dtd"
   xmlns:inkscape="http://www.inkscape.org/namespaces/inkscape"
   viewBox="0 0 227.37338 349.93976"
   version="1.1"
   xml:space="preserve"
   id="svg2"
   inkscape:version="0.48.3.1 r9886"
   width="100%"
   height="100%"
   sodipodi:docname="alkis3536.svg"
   style="fill-rule:evenodd;stroke-linecap:round;stroke-linejoin:round"><metadata
   id="metadata101"><rdf:RDF><cc:Work
       rdf:about=""><dc:format>image/svg+xml</dc:format><dc:type
         rdf:resource="http://purl.org/dc/dcmitype/StillImage" /></cc:Work></rdf:RDF></metadata><sodipodi:namedview
   pagecolor="#ffffff"
   bordercolor="#666666"
   borderopacity="1"
   objecttolerance="10"
   gridtolerance="10"
   guidetolerance="10"
   inkscape:pageopacity="0"
   inkscape:pageshadow="2"
   inkscape:window-width="1855"
   inkscape:window-height="1025"
   id="namedview99"
   showgrid="false"
   inkscape:zoom="1.1125147"
   inkscape:cx="228.18536"
   inkscape:cy="236.95579"
   inkscape:window-x="0"
   inkscape:window-y="33"
   inkscape:window-maximized="1"
   inkscape:current-layer="svg2" />
<defs
   id="defs4">
<clipPath
   id="clipId0">
<path
   d="M 0,600 800,600 800,0 0,0 z"
   id="path7"
   inkscape:connector-curvature="0" />
</clipPath>
</defs>
<g
   clip-path="url(#clipId0)"
   id="g9"
   style="fill:none;stroke:#000000;stroke-width:0.1"
   transform="translate(-286.74321,-125.31024)" />
<g
   clip-path="url(#clipId0)"
   id="g11"
   style="fill:#000000;stroke:none"
   transform="translate(-286.74321,-125.31024)">










































<path
   d="m 400.53125,125.3125 c -41.3559,-0.27177 -81.64041,23.9617 -100.52479,60.79699 -10.76536,19.9278 -14.16062,42.91071 -13.06896,65.31487 0,74.60855 0,149.21709 0,223.82564 75.71875,0 151.4375,0 227.15625,0 -0.0908,-81.08996 0.18263,-162.18642 -0.13847,-243.27227 -2.28377,-38.93171 -25.90024,-75.72867 -60.62727,-93.59627 -16.21897,-8.52751 -34.48433,-12.95032 -52.79676,-13.06896 z m 0,43 c 31.55557,-0.42869 61.37767,22.82413 68.47824,53.60217 3.9055,17.6235 1.40403,35.84853 2.11551,53.74257 0,52.20799 0,104.41597 0,156.62396 -47.0625,0 -94.125,0 -141.1875,0 0.14571,-66.30063 -0.29152,-132.61278 0.21875,-198.9062 2.02803,-31.20832 27.08802,-58.95313 57.99609,-63.92118 4.07633,-0.7848 8.23468,-1.03948 12.37891,-1.14132 z"
   id="path97"
   inkscape:connector-curvature="0" />
</g>
</svg>