<?xml version="1.0" standalone="no"?>
<!DOCTYPE svg PUBLIC "-//W3C//DTD SVG 1.1//EN"
 "http://www.w3.org/Graphics/SVG/1.1/DTD/svg11.dtd">
<!-- Created with svg_stack (http://github.com/astraw/svg_stack) -->
<svg xmlns:sodipodi="http://sodipodi.sourceforge.net/DTD/sodipodi-0.dtd" xmlns="http://www.w3.org/2000/svg" version="1.1" width="1588.75" height="1590.0">
  <defs/>
  <g id="id0:id0" transform="matrix(1.25,0,0,1.25,0.0,0.0)"><g transform="translate(0.000000,1272.000000) scale(0.100000,-0.100000)" fill="#000000" stroke="none">
<path d="M2016 10696 l-2016 -2024 0 -4336 0 -4336 4334 0 4334 0 2021 2029 2021 2029 0 4331 0 4331 -4339 0 -4339 0 -2016 -2024z m8169 -166 l-1720 -1720 -3835 0 -3835 0 1720 1720 1720 1720 3835 0 3835 0 -1720 -1720z m335 -8005 l-1720 -1720 0 3834 0 3833 1718 1725 1717 1725 3 -3838 2 -3839 -1720 -1720z m-2190 1880 l0 -3935 -3930 0 -3930 0 0 3935 0 3935 3930 0 3930 0 0 -3935z"/>
<path d="M8800 11654 c-103 -9 -228 -26 -275 -39 -27 -8 -79 -21 -115 -30 -36 -10 -82 -26 -103 -36 -22 -10 -44 -19 -50 -19 -20 0 -108 -67 -133 -101 -26 -35 -31 -78 -13 -111 17 -32 63 -74 98 -89 17 -8 31 -17 31 -21 0 -5 6 -8 14 -8 8 0 31 -9 53 -19 50 -25 131 -50 190 -58 27 -3 53 -9 58 -13 10 -7 109 -21 297 -40 122 -13 278 -13 393 0 238 26 291 33 300 40 6 4 32 10 59 14 62 8 150 35 194 58 18 10 39 18 47 18 8 0 15 3 15 8 0 4 12 13 28 20 15 6 44 27 66 45 33 28 39 40 43 82 4 42 1 54 -19 77 -27 32 -118 98 -135 98 -6 0 -28 9 -50 19 -45 23 -137 51 -165 51 -11 0 -27 4 -37 9 -48 26 -215 42 -476 45 -148 2 -290 2 -315 0z"/>
<path d="M6055 10829 c-49 -5 -119 -16 -155 -24 -36 -8 -86 -18 -113 -21 -26 -4 -50 -11 -53 -15 -3 -5 -15 -9 -28 -9 -12 0 -72 -25 -132 -55 -127 -64 -167 -107 -167 -178 0 -23 5 -43 12 -45 6 -2 11 -9 11 -16 0 -16 42 -56 58 -56 7 0 15 -6 18 -14 6 -16 123 -76 147 -76 7 0 45 -11 83 -24 39 -14 146 -36 248 -50 408 -59 845 -20 1141 102 33 13 65 30 70 36 6 6 25 22 43 35 75 53 82 144 16 212 -48 49 -211 129 -264 129 -11 0 -20 4 -20 9 0 5 -26 12 -57 16 -31 4 -68 11 -82 17 -69 27 -592 45 -776 27z"/>
<path d="M3138 9885 c-81 -14 -157 -29 -167 -35 -11 -5 -31 -10 -45 -10 -14 0 -28 -4 -31 -10 -3 -5 -14 -10 -24 -10 -34 0 -179 -80 -210 -115 -64 -73 -50 -145 38 -204 125 -83 238 -119 499 -156 246 -35 504 -35 745 0 95 14 192 32 216 40 25 8 54 15 65 15 12 0 67 22 123 50 102 50 157 97 169 148 8 31 -14 80 -53 118 -31 30 -132 84 -183 98 -14 4 -34 11 -45 16 -51 21 -142 41 -273 60 -215 30 -618 28 -824 -5z"/>
<path d="M11233 9981 c-48 -44 -101 -145 -127 -241 -10 -36 -24 -85 -32 -110 -35 -120 -49 -272 -49 -555 0 -339 11 -426 82 -675 22 -77 78 -189 111 -225 68 -74 146 -68 206 14 85 116 126 242 161 491 38 262 38 539 0 790 -14 96 -33 200 -41 230 -27 95 -96 231 -141 277 -37 38 -47 43 -85 43 -36 0 -50 -7 -85 -39z"/>
<path d="M9510 4543 c-37 -26 -55 -50 -99 -134 -39 -73 -46 -93 -77 -224 -35 -144 -64 -406 -64 -569 0 -109 24 -382 40 -462 5 -27 15 -74 21 -104 26 -139 87 -276 149 -339 66 -66 113 -67 179 -3 57 55 129 211 146 317 4 22 13 63 21 90 21 76 44 340 44 500 0 155 -24 429 -42 485 -6 19 -17 62 -24 95 -22 107 -30 130 -79 224 -34 66 -58 99 -84 117 -42 28 -96 31 -131 7z"/>
<path d="M4255 5305 c-220 -37 -371 -118 -529 -286 -65 -69 -87 -103 -136 -203 -74 -151 -89 -210 -97 -361 -8 -184 11 -277 91 -440 53 -108 77 -144 141 -213 131 -140 251 -214 436 -269 111 -33 136 -37 239 -37 101 0 129 4 230 33 201 58 357 158 478 308 72 89 154 247 177 344 24 98 30 288 12 389 -15 87 -87 273 -129 333 -93 136 -191 226 -325 303 -90 51 -180 80 -308 100 -108 16 -173 16 -280 -1z"/>
</g>
</g>
  <g id="id1:id1" transform="matrix(1.25,0,0,1.25,0.0,0.0)"><g transform="translate(0.000000,1272.000000) scale(0.100000,-0.100000)" fill="#ffffff" stroke="none">
<path d="M2515 10530 l-1720 -1720 3835 0 3835 0 1720 1720 1720 1720 -3835 0 -3835 0 -1720 -1720z m6964 1105 c52 -9 102 -20 112 -26 10 -5 26 -9 37 -9 28 0 120 -28 165 -51 22 -10 44 -19 50 -19 17 0 108 -66 135 -98 20 -23 23 -35 19 -77 -4 -42 -10 -54 -43 -82 -22 -18 -51 -39 -66 -45 -16 -7 -28 -16 -28 -20 0 -5 -7 -8 -15 -8 -8 0 -29 -8 -47 -18 -44 -23 -132 -50 -194 -58 -27 -4 -53 -10 -59 -14 -9 -7 -62 -14 -300 -40 -115 -13 -271 -13 -393 0 -188 19 -287 33 -297 40 -5 4 -31 10 -58 13 -59 8 -140 33 -190 58 -22 10 -45 19 -53 19 -8 0 -14 3 -14 8 0 4 -14 13 -31 21 -35 15 -81 57 -98 89 -18 33 -13 76 13 111 25 34 113 101 133 101 6 0 28 9 50 19 21 10 67 26 103 36 36 9 88 22 115 30 47 13 172 30 275 39 113 10 589 -4 679 -19z m-2769 -813 c52 -6 107 -14 121 -20 14 -6 51 -13 82 -17 31 -4 57 -11 57 -16 0 -5 9 -9 20 -9 53 0 216 -80 264 -129 66 -68 59 -159 -16 -212 -18 -13 -37 -29 -43 -35 -5 -6 -37 -23 -70 -36 -208 -85 -465 -128 -769 -128 -225 0 -502 34 -620 76 -38 13 -76 24 -83 24 -24 0 -141 60 -147 76 -3 8 -11 14 -18 14 -16 0 -58 40 -58 56 0 7 -5 14 -11 16 -7 2 -12 22 -12 45 0 71 40 114 167 178 60 30 120 55 132 55 13 0 25 4 28 9 3 4 27 11 53 15 27 3 77 13 113 21 36 8 106 19 155 24 109 11 523 6 655 -7z m-2748 -932 c131 -19 222 -39 273 -60 11 -5 31 -12 45 -16 51 -14 152 -68 183 -98 99 -96 63 -178 -116 -266 -56 -28 -111 -50 -123 -50 -11 0 -40 -7 -65 -15 -24 -8 -121 -26 -216 -40 -241 -35 -499 -35 -745 0 -261 37 -374 73 -499 156 -88 59 -102 131 -38 204 31 35 176 115 210 115 10 0 21 5 24 10 3 6 17 10 31 10 14 0 34 5 45 10 10 6 86 21 167 35 206 33 609 35 824 5z"/>
<path d="M10518 10197 l-1718 -1725 0 -3833 0 -3834 1720 1720 1720 1720 -2 3839 -3 3838 -1717 -1725z m885 -220 c45 -46 114 -182 141 -277 8 -30 27 -134 41 -230 62 -413 15 -951 -102 -1184 -85 -170 -176 -208 -265 -111 -69 74 -139 275 -175 505 -25 163 -25 624 0 790 10 63 24 135 31 160 8 25 22 74 32 110 26 96 79 197 127 241 35 32 49 39 85 39 38 0 48 -5 85 -43z m-1762 -5441 c26 -18 50 -51 84 -117 49 -94 57 -117 79 -224 7 -33 18 -76 24 -95 18 -56 42 -330 42 -485 0 -160 -23 -424 -44 -500 -8 -27 -17 -68 -21 -90 -17 -106 -89 -262 -146 -317 -66 -64 -113 -63 -179 3 -62 63 -123 200 -149 339 -6 30 -16 77 -21 104 -16 80 -40 353 -40 462 0 102 22 353 40 454 9 53 25 125 50 219 12 48 79 183 108 216 51 60 114 71 173 31z"/>
<path d="M470 4405 l0 -3935 3930 0 3930 0 0 3935 0 3935 -3930 0 -3930 0 0 -3935z m4065 901 c128 -20 218 -49 308 -100 134 -77 232 -167 325 -303 42 -60 114 -246 129 -333 18 -101 12 -291 -12 -389 -23 -97 -105 -255 -177 -344 -121 -150 -277 -250 -478 -308 -101 -29 -129 -33 -230 -33 -103 0 -128 4 -239 37 -185 55 -305 129 -436 269 -64 69 -88 105 -141 213 -80 163 -99 256 -91 440 8 151 23 210 97 361 49 100 71 134 136 203 158 168 309 249 529 286 107 17 172 17 280 1z"/>
</g>
</g>
</svg>
