<?xml version="1.0" encoding="UTF-8" standalone="no"?>
<!-- Created with Inkscape (http://www.inkscape.org/) -->

<svg
   xmlns:dc="http://purl.org/dc/elements/1.1/"
   xmlns:cc="http://creativecommons.org/ns#"
   xmlns:rdf="http://www.w3.org/1999/02/22-rdf-syntax-ns#"
   xmlns:svg="http://www.w3.org/2000/svg"
   xmlns="http://www.w3.org/2000/svg"
   xmlns:inkscape="http://www.inkscape.org/namespaces/inkscape"
   version="1.1"
   width="100%"
   height="100%"
   viewBox="0 0 792.77541 225.75364"
   id="svg8009"
   xml:space="preserve"
   style="fill-rule:evenodd;stroke-linecap:round;stroke-linejoin:round"><metadata
     id="metadata8070"><rdf:RDF><cc:Work
         rdf:about=""><dc:format>image/svg+xml</dc:format><dc:type
           rdf:resource="http://purl.org/dc/dcmitype/StillImage" /></cc:Work></rdf:RDF></metadata><defs
     id="defs8011"><clipPath
       id="clipId0"><path
         d="M 0,600 800,600 800,0 0,0 z"
         inkscape:connector-curvature="0"
         id="path8014" /></clipPath></defs><g
     transform="translate(-2.0625,-185.8125)"
     clip-path="url(#clipId0)"
     id="g8016"
     style="fill:none;stroke:#000000;stroke-width:0.1" /><g
     transform="translate(-2.0625,-185.8125)"
     clip-path="url(#clipId0)"
     id="g8018"
     style="fill:#000000;stroke:none"><path
       d="m 518.5,185.8125 c -37.90553,2.35689 -76.04458,2.55573 -113.35305,10.43034 -34.61407,4.34743 -67.98018,15.14824 -101.2664,25.09692 -31.87861,13.39259 -65.25459,23.67741 -94.44086,42.65786 -9.35869,4.1942 -18.69594,12.84144 -28.06766,14.32727 C 127.18552,248.22701 72.999009,218.12913 18.8125,188.03125 c -5.583333,10.05208 -11.1666667,20.10417 -16.75,30.15625 48.4375,26.91667 96.875,53.83333 145.3125,80.75 -48.4375,26.91667 -96.875,53.83333 -145.3125,80.75 5.5833333,10.05208 11.166667,20.10417 16.75,30.15625 54.666667,-30.375 109.33333,-60.75 164,-91.125 28.55193,15.97692 56.1358,33.96291 87.40356,44.30354 27.15837,12.151 55.49971,20.80167 84.29593,28.10641 30.23899,9.02647 61.91229,11.94789 92.96598,16.9602 36.28734,1.75988 72.57596,5.72877 108.85999,1.79782 36.92053,-1.12669 73.55159,-6.95452 109.90763,-12.81799 23.33609,-7.77426 47.74816,-13.27708 70.40201,-22.49157 15.29755,-11.65046 34.9569,-18.77862 44.36197,-36.53838 6.11458,-9.43694 16.32322,-17.55223 13.27168,-29.94816 -1.44462,-13.33573 4.51003,-29.06009 -6.7442,-39.2291 -8.74996,-12.55251 -16.87681,-25.75142 -31.24528,-32.47531 -12.73458,-9.07529 -25.59283,-17.88945 -41.29425,-20.70023 -27.30176,-8.24828 -54.21434,-18.26409 -82.91951,-20.13848 -37.58718,-6.55128 -75.58037,-7.48479 -113.57801,-9.735 z m 0,34.5625 c 39.62445,1.96256 79.24902,3.92384 118.41272,10.64984 28.35706,2.74709 54.69522,14.66927 82.05603,21.94391 13.512,9.72434 29.82813,16.54026 37.72486,32.08872 5.10131,7.31351 4.63475,20.04062 0.19831,27.45352 -7.90713,15.698 -24.29896,22.59572 -37.92317,32.36401 -30.70625,8.67774 -60.55413,21.25642 -92.69763,23.4024 -37.24763,6.11158 -75.05929,7.85799 -112.70688,8.91823 -35.60486,-1.89149 -71.30808,-2.87121 -106.32857,-10.18048 -31.53613,-4.11965 -61.93792,-14.17703 -92.29297,-23.22902 -30.62886,-12.73072 -62.5233,-22.83545 -90.49652,-41.07642 -14.83703,-5.05649 8.39602,-10.1257 13.41198,-15.18883 26.06896,-15.38099 55.47094,-23.98616 83.26084,-35.71157 32.43749,-8.99174 64.60571,-19.21552 98.20418,-22.89537 32.67378,-6.68035 66.03702,-6.13287 99.17682,-8.53894 z"
       inkscape:connector-curvature="0"
       id="path8066"
       style="fill-rule:nonzero" /></g></svg>