<?xml version="1.0" encoding="UTF-8" standalone="no"?>
<svg
   xmlns:dc="http://purl.org/dc/elements/1.1/"
   xmlns:cc="http://creativecommons.org/ns#"
   xmlns:rdf="http://www.w3.org/1999/02/22-rdf-syntax-ns#"
   xmlns:svg="http://www.w3.org/2000/svg"
   xmlns="http://www.w3.org/2000/svg"
   xmlns:sodipodi="http://sodipodi.sourceforge.net/DTD/sodipodi-0.dtd"
   xmlns:inkscape="http://www.inkscape.org/namespaces/inkscape"
   viewBox="0 0 182.59375 350.7035"
   version="1.1"
   xml:space="preserve"
   id="svg22071"
   inkscape:version="0.48.3.1 r9886"
   width="100%"
   height="100%"
   sodipodi:docname="alkis3605.svg"
   style="fill-rule:evenodd;stroke-linecap:round;stroke-linejoin:round"><metadata
   id="metadata22276"><rdf:RDF><cc:Work
       rdf:about=""><dc:format>image/svg+xml</dc:format><dc:type
         rdf:resource="http://purl.org/dc/dcmitype/StillImage" /></cc:Work></rdf:RDF></metadata><sodipodi:namedview
   pagecolor="#ffffff"
   bordercolor="#666666"
   borderopacity="1"
   objecttolerance="10"
   gridtolerance="10"
   guidetolerance="10"
   inkscape:pageopacity="0"
   inkscape:pageshadow="2"
   inkscape:window-width="1855"
   inkscape:window-height="1025"
   id="namedview22274"
   showgrid="false"
   inkscape:zoom="1.5733333"
   inkscape:cx="-28.887704"
   inkscape:cy="174.8125"
   inkscape:window-x="0"
   inkscape:window-y="33"
   inkscape:window-maximized="1"
   inkscape:current-layer="svg22071" />
<defs
   id="defs22073">
<clipPath
   id="clipId0">
<path
   d="M 0,600 800,600 800,0 0,0 z"
   id="path22076"
   inkscape:connector-curvature="0" />
</clipPath>
</defs>
<g
   clip-path="url(#clipId0)"
   id="g22078"
   style="fill:none;stroke:#000000;stroke-width:0.1"
   transform="translate(-308.125,-124.109)" />
<g
   clip-path="url(#clipId0)"
   id="g22080"
   style="fill:#00ff00;fill-rule:nonzero;stroke:none"
   transform="translate(-308.125,-124.109)">















































































<path
   style="fill-rule:nonzero"
   d="m 341,124.21875 0,58.4375 0.15625,4.59375 0.5625,4.5625 0.875,4.5 1.25,4.40625 1.59375,4.3125 1.90625,4.15625 2.25,4 2.5625,3.8125 2.84375,3.59375 3.09375,3.375 3.375,3.125 3.59375,2.84375 3.8125,2.53125 4.03125,2.25 4.15625,1.9375 4.3125,1.5625 4.40625,1.25 4.5,0.90625 2.6875,0.3125 L 377.5,379.84375 366.5625,360.25 308.125,255.6875 l 58.4375,219.125 10.9375,0 21.90625,0 21.90625,0 10.96875,0 58.4375,-219.125 -58.4375,104.5625 -10.96875,19.59375 -15.46875,-139.15625 2.71875,-0.3125 4.5,-0.90625 4.40625,-1.25 4.3125,-1.5625 4.15625,-1.9375 4,-2.25 3.8125,-2.53125 3.625,-2.84375 3.34375,-3.125 3.125,-3.375 2.84375,-3.59375 2.5625,-3.8125 2.21875,-4 1.9375,-4.15625 1.59375,-4.3125 1.21875,-4.40625 0.90625,-4.5 0.53125,-4.5625 0.1875,-4.59375 0,-58.4375 -58.4375,0 -58.40625,0 z"
   id="path22240"
   inkscape:connector-curvature="0" />
</g>
<g
   clip-path="url(#clipId0)"
   id="g22242"
   style="fill:none;stroke:#00ff00;stroke-width:0.25"
   transform="translate(-308.125,-124.109)">
<polyline
   points="399.418,124.234 399.418,124.234 "
   id="polyline22244" />

</g>
<g
   clip-path="url(#clipId0)"
   id="g22248"
   style="fill:#00ff00;stroke:none"
   transform="translate(-308.125,-124.109)">










</g>
<g
   clip-path="url(#clipId0)"
   id="g22270"
   style="fill:none;stroke:#00ff00;stroke-width:0.25"
   transform="translate(-308.125,-124.109)">

</g>
</svg>