<?xml version="1.0" encoding="UTF-8" standalone="no"?>
<!-- Created with Inkscape (http://www.inkscape.org/) -->

<svg
   xmlns:dc="http://purl.org/dc/elements/1.1/"
   xmlns:cc="http://creativecommons.org/ns#"
   xmlns:rdf="http://www.w3.org/1999/02/22-rdf-syntax-ns#"
   xmlns:svg="http://www.w3.org/2000/svg"
   xmlns="http://www.w3.org/2000/svg"
   xmlns:inkscape="http://www.inkscape.org/namespaces/inkscape"
   version="1.1"
   width="100%"
   height="100%"
   viewBox="0 0 326.07111 351.03473"
   id="svg168495"
   xml:space="preserve"
   style="fill-rule:evenodd;stroke-linecap:round;stroke-linejoin:round"><metadata
     id="metadata168844"><rdf:RDF><cc:Work
         rdf:about=""><dc:format>image/svg+xml</dc:format><dc:type
           rdf:resource="http://purl.org/dc/dcmitype/StillImage" /></cc:Work></rdf:RDF></metadata><defs
     id="defs168497"><clipPath
       id="clipId0"><path
         d="M 0,600 800,600 800,0 0,0 z"
         inkscape:connector-curvature="0"
         id="path168500" /></clipPath></defs><g
     transform="translate(-237.30389,-124.36203)"
     clip-path="url(#clipId0)"
     id="g168502"
     style="fill:none;stroke:#000000;stroke-width:0.1" /><g
     transform="translate(-237.30389,-124.36203)"
     clip-path="url(#clipId0)"
     id="g168504"
     style="fill:#999999;stroke:none"><path
       d="m 483.03125,124.375 c -24.43441,-0.63627 -45.98237,22.23514 -43.75104,46.60207 0.80868,24.3519 24.89946,44.42214 48.99588,40.77808 24.62032,-2.17595 43.33635,-28.11162 37.73565,-52.16345 -3.72279,-20.11447 -22.55148,-35.45254 -42.98049,-35.2167 z m -184.25,228.125 c -29.96552,-0.58266 -57.7428,23.78378 -60.86889,53.61996 -4.47437,29.64396 16.23615,60.26812 45.40172,67.18623 29.23142,8.30719 62.71509,-8.94001 72.84578,-37.60785 11.23745,-27.78251 -1.7161,-62.39863 -28.46666,-75.93476 -8.84024,-4.77979 -18.87426,-7.21046 -28.91195,-7.26358 z"
       inkscape:connector-curvature="0"
       id="path168816" /></g><g
     transform="translate(-237.30389,-124.36203)"
     clip-path="url(#clipId0)"
     id="g168824"
     style="fill:#999999;stroke:none"><path
       d="m 381.34375,143.28125 c -37.24107,18.03707 -74.58189,35.908 -111.76064,54.04886 -2.56002,1.87248 -5.12003,3.74497 -7.68004,5.61745 3.91802,4.88648 8.26514,9.34794 13.13509,13.29152 20.85186,18.34739 41.70373,36.69478 62.55559,55.04217 26.07292,-10.63542 52.14583,-21.27083 78.21875,-31.90625 -11.48958,-32.03125 -22.97917,-64.0625 -34.46875,-96.09375 z m -8.9375,21.84375 c 7.8125,21.78125 15.625,43.5625 23.4375,65.34375 -18.38542,7.5 -36.77083,15 -55.15625,22.5 C 322.95833,237.35417 305.22917,221.73958 287.5,206.125 c 28.30208,-13.66667 56.60417,-27.33333 84.90625,-41 z"
       inkscape:connector-curvature="0"
       id="path168826" /><path
       d="m 508.4375,222.5 -137.78125,126.8125 -4.82574,4.54131 3.73199,5.86494 75.375,105.3125 L 563.375,272.0625 z m 0.0937,21.34375 L 543.0625,275 443.9375,436.5 386.46875,356.21875 z"
       inkscape:connector-curvature="0"
       id="path168834" /></g></svg>