<?xml version="1.0" standalone="no"?>
<!DOCTYPE svg PUBLIC "-//W3C//DTD SVG 1.1//EN"
 "http://www.w3.org/Graphics/SVG/1.1/DTD/svg11.dtd">
<!-- Created with svg_stack (http://github.com/astraw/svg_stack) -->
<svg xmlns:sodipodi="http://sodipodi.sourceforge.net/DTD/sodipodi-0.dtd" xmlns="http://www.w3.org/2000/svg" version="1.1" width="1983.75" height="1217.5">
  <defs/>
  <g id="id0:id0" transform="matrix(1.25,0,0,1.25,0.0,0.0)"><g transform="translate(0.000000,974.000000) scale(0.100000,-0.100000)" fill="#000000" stroke="none">
<path d="M0 4870 l0 -4870 7935 0 7935 0 0 4870 0 4870 -7935 0 -7935 0 0 -4870z m15320 -5 l0 -4315 -7385 0 -7385 0 0 4315 0 4315 7385 0 7385 0 0 -4315z"/>
<path d="M6120 4870 l0 -2680 355 0 355 0 0 1215 0 1215 1260 0 1260 0 0 320 0 320 -1260 0 -1260 0 0 825 0 825 1455 0 1455 0 0 320 0 320 -1810 0 -1810 0 0 -2680z"/>
</g>
</g>
  <g id="id1:id1" transform="matrix(1.25,0,0,1.25,0.0,0.0)"><g transform="translate(0.000000,974.000000) scale(0.100000,-0.100000)" fill="#ffffff" stroke="none">
</g>
</g>
</svg>
