<?xml version="1.0" standalone="no"?>
<!DOCTYPE svg PUBLIC "-//W3C//DTD SVG 1.1//EN"
 "http://www.w3.org/Graphics/SVG/1.1/DTD/svg11.dtd">
<!-- Created with svg_stack (http://github.com/astraw/svg_stack) -->
<svg xmlns:sodipodi="http://sodipodi.sourceforge.net/DTD/sodipodi-0.dtd" xmlns="http://www.w3.org/2000/svg" version="1.1" width="1592.5" height="1591.25">
  <defs/>
  <g id="id0:id0" transform="matrix(1.25,0,0,1.25,0.0,0.0)"><g transform="translate(0.000000,1273.000000) scale(0.100000,-0.100000)" fill="#000000" stroke="none">
<path d="M5975 12720 c-542 -30 -1238 -180 -1808 -391 -1577 -583 -2864 -1769 -3565 -3288 -271 -587 -472 -1289 -551 -1921 -123 -996 -6 -1968 359 -2972 509 -1401 1533 -2601 2855 -3343 714 -401 1577 -680 2370 -767 269 -29 298 -31 725 -31 415 -1 463 1 715 27 961 97 2028 486 2830 1032 451 306 791 598 1136 975 340 372 619 754 884 1209 208 357 454 955 570 1385 321 1195 321 2256 0 3450 -116 430 -362 1029 -570 1385 -164 283 -385 610 -559 829 -851 1072 -1929 1796 -3251 2182 -326 95 -653 162 -1000 205 -260 32 -305 34 -635 38 -195 2 -422 1 -505 -4z m1035 -751 c700 -94 1084 -202 1730 -486 344 -151 827 -448 1142 -701 95 -76 182 -149 192 -161 l20 -22 -1862 -1862 -1862 -1862 -1861 1861 -1862 1862 39 35 c553 499 1366 937 2157 1162 239 68 489 117 862 170 229 33 232 33 655 34 420 1 426 1 650 -30z m-3009 -7473 l-1864 -1864 -41 47 c-111 125 -316 395 -423 556 -237 356 -419 715 -589 1160 -148 386 -240 765 -315 1300 l-32 230 0 435 0 435 32 228 c47 338 104 625 171 867 194 699 592 1474 1018 1985 86 103 161 194 167 202 8 10 445 -422 1875 -1852 l1865 -1865 -1864 -1864z m6803 5359 c280 -354 450 -631 682 -1111 229 -472 424 -1158 488 -1709 55 -476 55 -864 0 -1345 -64 -558 -258 -1238 -492 -1721 -163 -338 -277 -542 -410 -734 -136 -196 -393 -534 -439 -577 l-29 -27 -1864 1864 -1865 1865 1865 1865 1864 1864 29 -27 c16 -15 93 -108 171 -207z m-2569 -5875 l1859 -1859 -24 -26 c-47 -50 -398 -314 -580 -435 -383 -256 -647 -391 -1152 -590 -374 -148 -781 -245 -1328 -319 -221 -30 -235 -31 -635 -31 l-410 0 -250 35 c-554 76 -900 160 -1297 311 -454 173 -804 351 -1173 597 -167 111 -471 343 -558 426 l-37 36 1857 1857 c1022 1022 1860 1858 1863 1858 3 0 842 -837 1865 -1860z"/>
</g>
</g>
  <g id="id1:id1" transform="matrix(1.25,0,0,1.25,0.0,0.0)"><g transform="translate(0.000000,1273.000000) scale(0.100000,-0.100000)" fill="#ffffff" stroke="none">
</g>
</g>
</svg>
