<?xml version="1.0" encoding="UTF-8" standalone="no"?>
<svg
   xmlns:dc="http://purl.org/dc/elements/1.1/"
   xmlns:cc="http://creativecommons.org/ns#"
   xmlns:rdf="http://www.w3.org/1999/02/22-rdf-syntax-ns#"
   xmlns:svg="http://www.w3.org/2000/svg"
   xmlns="http://www.w3.org/2000/svg"
   xmlns:sodipodi="http://sodipodi.sourceforge.net/DTD/sodipodi-0.dtd"
   xmlns:inkscape="http://www.inkscape.org/namespaces/inkscape"
   viewBox="0 0 353.641 349.186"
   version="1.1"
   xml:space="preserve"
   id="svg2"
   inkscape:version="0.48.3.1 r9886"
   width="100%"
   height="100%"
   sodipodi:docname="alkis3481.svg"
   style="fill-rule:evenodd;stroke-linecap:round;stroke-linejoin:round"><metadata
   id="metadata41"><rdf:RDF><cc:Work
       rdf:about=""><dc:format>image/svg+xml</dc:format><dc:type
         rdf:resource="http://purl.org/dc/dcmitype/StillImage" /></cc:Work></rdf:RDF></metadata><sodipodi:namedview
   pagecolor="#ffffff"
   bordercolor="#666666"
   borderopacity="1"
   objecttolerance="10"
   gridtolerance="10"
   guidetolerance="10"
   inkscape:pageopacity="0"
   inkscape:pageshadow="2"
   inkscape:window-width="640"
   inkscape:window-height="480"
   id="namedview39"
   showgrid="false"
   inkscape:zoom="0.39333333"
   inkscape:cx="175.797"
   inkscape:cy="174.81"
   inkscape:window-x="0"
   inkscape:window-y="33"
   inkscape:window-maximized="0"
   inkscape:current-layer="svg2" />
<defs
   id="defs4">
<clipPath
   id="clipId0">
<path
   d="M 0,600 800,600 800,0 0,0 z"
   id="path7"
   inkscape:connector-curvature="0" />
</clipPath>
</defs>
<g
   clip-path="url(#clipId0)"
   id="g9"
   style="fill:none;stroke:#000000;stroke-width:0.1"
   transform="translate(-224.203,-125.624)" />
<g
   clip-path="url(#clipId0)"
   id="g11"
   style="fill:#999999;stroke:none"
   transform="translate(-224.203,-125.624)">
<path
   d="m 232.579,142.376 0,-16.752 345.265,0 -20.463,16.752 z"
   id="path13"
   inkscape:connector-curvature="0" />
<path
   d="m 557.381,142.376 20.463,-16.752 -28.366,140.815 -15.847,-6.158 z"
   id="path15"
   inkscape:connector-curvature="0" />
<path
   d="m 533.631,260.281 15.847,6.158 -42.387,70.325 -12.97,-10.933 z"
   id="path17"
   inkscape:connector-curvature="0" />
<path
   d="m 494.121,325.831 12.97,10.933 -42.505,36.709 -9.857,-13.621 z"
   id="path19"
   inkscape:connector-curvature="0" />
<path
   d="m 454.729,359.852 9.857,13.621 -19.232,11.539 -8.619,-14.364 z"
   id="path21"
   inkscape:connector-curvature="0" />
<path
   d="m 264.018,244.125 15.296,6.829 -22.905,51.308 -16.018,-5.213 z"
   id="path23"
   inkscape:connector-curvature="0" />
<path
   d="m 240.391,297.049 16.018,5.213 -15.454,72.726 -16.752,-1.761 z"
   id="path25"
   inkscape:connector-curvature="0" />
<path
   d="m 224.203,373.227 16.752,1.761 0,32.065 -16.752,6.7 z"
   id="path27"
   inkscape:connector-curvature="0" />
<path
   d="m 224.203,413.753 16.752,-6.7 53.528,56.204 -12.13,11.553 z"
   id="path29"
   inkscape:connector-curvature="0" />
<path
   d="m 383.141,244.125 15.297,6.829 -22.906,51.308 -16.018,-5.213 z"
   id="path31"
   inkscape:connector-curvature="0" />
<path
   d="m 359.514,297.049 16.018,5.213 -15.454,72.726 -16.752,-1.761 z"
   id="path33"
   inkscape:connector-curvature="0" />
<path
   d="m 343.326,373.227 16.752,1.761 0,32.065 -16.752,6.7 z"
   id="path35"
   inkscape:connector-curvature="0" />
<path
   d="m 343.326,413.753 16.752,-6.7 53.528,56.204 -12.13,11.553 z"
   id="path37"
   inkscape:connector-curvature="0" />
</g>
</svg>