<?xml version="1.0" encoding="UTF-8" standalone="no"?>
<!-- Created with Inkscape (http://www.inkscape.org/) -->

<svg
   xmlns:dc="http://purl.org/dc/elements/1.1/"
   xmlns:cc="http://creativecommons.org/ns#"
   xmlns:rdf="http://www.w3.org/1999/02/22-rdf-syntax-ns#"
   xmlns:svg="http://www.w3.org/2000/svg"
   xmlns="http://www.w3.org/2000/svg"
   xmlns:inkscape="http://www.inkscape.org/namespaces/inkscape"
   version="1.1"
   width="100%"
   height="100%"
   viewBox="0 0 325.53354 293.65625"
   id="svg21680"
   xml:space="preserve"
   style="fill-rule:evenodd;stroke-linecap:round;stroke-linejoin:round"><metadata
     id="metadata21729"><rdf:RDF><cc:Work
         rdf:about=""><dc:format>image/svg+xml</dc:format><dc:type
           rdf:resource="http://purl.org/dc/dcmitype/StillImage" /></cc:Work></rdf:RDF></metadata><defs
     id="defs21682"><clipPath
       id="clipId0"><path
         d="M 0,600 800,600 800,0 0,0 z"
         inkscape:connector-curvature="0"
         id="path21685" /></clipPath></defs><g
     transform="translate(-233.99771,-153.25)"
     clip-path="url(#clipId0)"
     id="g21687"
     style="fill:none;stroke:#000000;stroke-width:0.1" /><g
     transform="translate(-233.99771,-153.25)"
     clip-path="url(#clipId0)"
     id="g21689"
     style="fill:#000000;fill-rule:nonzero;stroke:none"><path
       d="m 471.65625,153.25 -50.71875,50.71875 -5.44717,6.20682 5.44717,7.13693 38.71875,38.71875 -57.59375,57.5625 -57.59375,-57.5625 40.0625,-40.0625 L 327.125,158.5625 240.375,245.34375 233.99771,252 240.375,258.6875 291.09375,309.40625 331.125,269.375 388.71875,326.96875 282.125,433.5625 295.46875,446.90625 402.0625,340.3125 508.65625,446.90625 522,433.5625 415.40625,326.96875 473,269.375 l 63.90625,63.90625 22.625,-92.1875 z"
       inkscape:connector-curvature="0"
       id="path21725"
       style="fill-rule:nonzero" /></g></svg>