<?xml version="1.0" standalone="no"?>
<!DOCTYPE svg PUBLIC "-//W3C//DTD SVG 1.1//EN"
 "http://www.w3.org/Graphics/SVG/1.1/DTD/svg11.dtd">
<!-- Created with svg_stack (http://github.com/astraw/svg_stack) -->
<svg xmlns:sodipodi="http://sodipodi.sourceforge.net/DTD/sodipodi-0.dtd" xmlns="http://www.w3.org/2000/svg" version="1.1" width="1977.5" height="1515.0">
  <defs/>
  <g id="id0:id0" transform="matrix(1.25,0,0,1.25,0.0,0.0)"><g transform="translate(0.000000,1212.000000) scale(0.100000,-0.100000)" fill="#999999" stroke="none">
<path d="M4924 11953 c4 -93 34 -1108 67 -2257 32 -1149 60 -2090 62 -2092 7 -6 3268 -1484 3274 -1484 5 0 271 521 593 1158 322 636 759 1501 972 1922 l387 766 -162 66 c-89 36 -628 253 -1197 483 -569 229 -1525 615 -2125 857 -1048 423 -1861 748 -1872 748 -3 0 -2 -75 1 -167z m1739 -1257 c551 -222 1381 -555 1844 -742 l842 -338 -329 -651 c-182 -357 -480 -946 -663 -1307 -182 -362 -336 -658 -340 -658 -7 0 -2297 1028 -2304 1034 -2 1 -21 619 -42 1372 -22 753 -43 1445 -47 1538 l-6 168 21 -7 c12 -3 472 -188 1024 -409z"/>
<path d="M10526 6023 c-9 -33 -94 -431 -235 -1098 -76 -363 -238 -1130 -360 -1705 -238 -1127 -292 -1392 -289 -1395 5 -3 6142 -656 6159 -655 13 0 -196 510 -871 2131 -489 1172 -890 2132 -892 2133 -4 4 -3480 606 -3495 606 -6 0 -14 -8 -17 -17z m1794 -969 c685 -120 1247 -218 1248 -220 2 -1 273 -647 601 -1436 428 -1027 594 -1434 584 -1436 -12 -3 -4293 448 -4300 453 -2 1 132 640 297 1420 165 780 300 1422 300 1427 0 4 6 8 13 8 6 0 572 -97 1257 -216z"/>
<path d="M3795 5004 c-434 -184 -1465 -619 -2290 -966 -825 -347 -1501 -631 -1502 -632 -4 -4 733 -3396 740 -3402 4 -4 6246 2356 6704 2535 l43 17 -1440 1389 c-792 765 -1445 1391 -1452 1392 -7 2 -368 -148 -803 -333z m1565 -1329 l900 -869 -43 -17 c-475 -185 -4980 -1889 -4984 -1885 -6 6 -454 2088 -450 2092 1 1 796 339 1767 752 971 412 1792 761 1825 776 33 14 66 24 73 23 7 -1 417 -393 912 -872z"/>
</g>
</g>
  <g id="id1:id1" transform="matrix(1.25,0,0,1.25,0.0,0.0)"><g transform="translate(0.000000,1212.000000) scale(0.100000,-0.100000)" fill="#ffffff" stroke="none">
</g>
</g>
</svg>
