<?xml version="1.0" encoding="UTF-8" standalone="no"?>
<!-- Created with Inkscape (http://www.inkscape.org/) -->

<svg
   xmlns:dc="http://purl.org/dc/elements/1.1/"
   xmlns:cc="http://creativecommons.org/ns#"
   xmlns:rdf="http://www.w3.org/1999/02/22-rdf-syntax-ns#"
   xmlns:svg="http://www.w3.org/2000/svg"
   xmlns="http://www.w3.org/2000/svg"
   xmlns:inkscape="http://www.inkscape.org/namespaces/inkscape"
   version="1.1"
   width="100%"
   height="100%"
   viewBox="0 0 343.625 349.40625"
   id="svg11210"
   xml:space="preserve"
   style="fill-rule:evenodd;stroke-linecap:round;stroke-linejoin:round"><metadata
     id="metadata11243"><rdf:RDF><cc:Work
         rdf:about=""><dc:format>image/svg+xml</dc:format><dc:type
           rdf:resource="http://purl.org/dc/dcmitype/StillImage" /></cc:Work></rdf:RDF></metadata><defs
     id="defs11212"><clipPath
       id="clipId0"><path
         d="M 0,600 800,600 800,0 0,0 z"
         inkscape:connector-curvature="0"
         id="path11215" /></clipPath></defs><g
     transform="translate(-228.3125,-124.75)"
     clip-path="url(#clipId0)"
     id="g11217"
     style="fill:none;stroke:#000000;stroke-width:0.1" /><path
     d="m 153.40625,0 0,110.34375 36.78125,0 L 190.1875,0 153.40625,0 z M 84,22.5625 54.25,44.1875 119.09375,133.4375 148.875,111.8125 84,22.5625 z m 175.625,0 -64.875,89.25 29.75,21.625 64.875,-89.25 -29.75,-21.625 z M 11.34375,103.25 0,138.21875 104.90625,172.3125 116.28125,137.34375 11.34375,103.25 z m 320.9375,0 -104.9375,34.09375 L 238.6875,172.3125 343.625,138.21875 332.28125,103.25 z M 104.90625,177.09375 0,211.1875 l 11.34375,35 104.9375,-34.09375 -11.375,-35 z m 133.78125,0 -11.34375,35 104.9375,34.09375 11.34375,-35 -104.9375,-34.09375 z m -119.59375,38.875 -64.84375,89.25 29.75,21.625 64.875,-89.25 -29.78125,-21.625 z m 105.40625,0 -29.75,21.625 64.875,89.25 29.75,-21.625 -64.875,-89.25 z m -71.09375,23.09375 0,110.34375 36.78125,0 0,-110.34375 -36.78125,0 z"
     inkscape:connector-curvature="0"
     id="path11221"
     style="fill:#000000;stroke:none" /></svg>