<?xml version="1.0" standalone="no"?>
<!DOCTYPE svg PUBLIC "-//W3C//DTD SVG 1.1//EN"
 "http://www.w3.org/Graphics/SVG/1.1/DTD/svg11.dtd">
<!-- Created with svg_stack (http://github.com/astraw/svg_stack) -->
<svg xmlns:sodipodi="http://sodipodi.sourceforge.net/DTD/sodipodi-0.dtd" xmlns="http://www.w3.org/2000/svg" version="1.1" width="1715.0" height="1592.5">
  <defs/>
  <g id="id0:id0" transform="matrix(1.25,0,0,1.25,0.0,0.0)"><g transform="translate(0.000000,1274.000000) scale(0.100000,-0.100000)" fill="#000000" stroke="none">
<path d="M9197 11742 l-997 -997 880 -880 880 -880 -1460 -1460 -1460 -1460 -1457 1457 -1458 1458 757 757 757 758 -1000 1005 -999 1005 -1821 -1824 -1820 -1825 1000 -1000 1001 -1001 758 758 757 757 1459 -1459 1458 -1458 -2420 -2425 -2421 -2424 305 -305 305 -304 2421 2424 2420 2424 2425 -2424 2424 -2424 298 305 299 305 -2420 2424 -2420 2424 1461 1461 1461 1461 1177 -1184 c985 -990 1178 -1180 1185 -1165 5 11 184 734 398 1608 l390 1589 -755 762 c-676 683 -2757 2755 -2766 2755 -2 0 -453 -449 -1002 -998z"/>
</g>
</g>
  <g id="id1:id1" transform="matrix(1.25,0,0,1.25,0.0,0.0)"><g transform="translate(0.000000,1274.000000) scale(0.100000,-0.100000)" fill="#ffffff" stroke="none">
</g>
</g>
</svg>
