<?xml version="1.0" standalone="no"?>
<!DOCTYPE svg PUBLIC "-//W3C//DTD SVG 1.1//EN"
 "http://www.w3.org/Graphics/SVG/1.1/DTD/svg11.dtd">
<!-- Created with svg_stack (http://github.com/astraw/svg_stack) -->
<svg xmlns:sodipodi="http://sodipodi.sourceforge.net/DTD/sodipodi-0.dtd" xmlns="http://www.w3.org/2000/svg" version="1.1" width="697.5" height="1593.75">
  <defs/>
  <g id="id0:id0" transform="matrix(1.25,0,0,1.25,0.0,0.0)"><g transform="translate(0.000000,1275.000000) scale(0.100000,-0.100000)" fill="#181512" stroke="none">
<path d="M0 10110 l0 -2640 1250 0 1250 0 0 -954 0 -954 -22 -6 c-13 -3 -39 -6 -58 -6 -54 0 -284 -46 -395 -78 -334 -98 -731 -306 -985 -517 -530 -440 -881 -1043 -994 -1706 -61 -357 -57 -629 14 -1009 96 -510 374 -1032 753 -1413 214 -215 352 -321 619 -475 217 -125 492 -228 813 -302 291 -67 819 -65 1118 4 583 136 1009 368 1407 766 395 394 676 931 769 1470 39 225 43 288 39 550 -4 220 -9 276 -32 405 -151 846 -642 1544 -1387 1973 -175 100 -432 210 -614 260 -121 34 -319 72 -375 72 -19 0 -45 3 -57 6 l-23 6 0 954 0 954 1245 0 1245 0 0 2640 0 2640 -295 0 -295 0 0 -2345 0 -2345 -2195 0 -2195 0 0 2345 0 2345 -300 0 -300 0 0 -2640z m3305 -5193 c218 -56 295 -85 492 -187 251 -130 369 -218 569 -421 133 -137 199 -221 297 -380 82 -134 114 -196 170 -339 220 -561 198 -1228 -58 -1741 -175 -349 -411 -632 -693 -832 -166 -118 -249 -165 -406 -232 -190 -80 -340 -125 -541 -161 -161 -29 -213 -34 -340 -34 -329 0 -750 112 -1065 282 -96 52 -325 214 -413 292 -165 146 -377 436 -501 683 -137 274 -209 597 -209 938 0 424 106 800 327 1154 170 274 376 490 627 659 101 68 362 203 474 245 92 35 356 103 455 117 30 5 186 7 345 6 l290 -3 180 -46z"/>
</g>
</g>
  <g id="id1:id1" transform="matrix(1.25,0,0,1.25,0.0,0.0)"><g transform="translate(0.000000,1275.000000) scale(0.100000,-0.100000)" fill="#ffffff" stroke="none">
</g>
</g>
</svg>
