<?xml version="1.0" standalone="no"?>
<!DOCTYPE svg PUBLIC "-//W3C//DTD SVG 1.1//EN"
 "http://www.w3.org/Graphics/SVG/1.1/DTD/svg11.dtd">
<!-- Created with svg_stack (http://github.com/astraw/svg_stack) -->
<svg xmlns:sodipodi="http://sodipodi.sourceforge.net/DTD/sodipodi-0.dtd" xmlns="http://www.w3.org/2000/svg" version="1.1" width="1590.0" height="1591.25">
  <defs/>
  <g id="id0:id0" transform="matrix(1.25,0,0,1.25,0.0,0.0)"><g transform="translate(0.000000,1273.000000) scale(0.100000,-0.100000)" fill="#181512" stroke="none">
<path d="M0 6365 l0 -6365 6360 0 6360 0 0 6365 0 6365 -6360 0 -6360 0 0 -6365z m11860 0 l0 -5505 -5500 0 -5500 0 0 5505 0 5505 5500 0 5500 0 0 -5505z"/>
<path d="M2210 6360 l0 -3560 595 0 595 0 0 3560 0 3560 -595 0 -595 0 0 -3560z"/>
<path d="M9320 6360 l0 -3560 595 0 595 0 0 3560 0 3560 -595 0 -595 0 0 -3560z"/>
</g>
</g>
  <g id="id1:id1" transform="matrix(1.25,0,0,1.25,0.0,0.0)"><g transform="translate(0.000000,1273.000000) scale(0.100000,-0.100000)" fill="#ffffff" stroke="none">
</g>
</g>
</svg>
