<?xml version="1.0" encoding="UTF-8" standalone="no"?>
<svg
   xmlns:dc="http://purl.org/dc/elements/1.1/"
   xmlns:cc="http://creativecommons.org/ns#"
   xmlns:rdf="http://www.w3.org/1999/02/22-rdf-syntax-ns#"
   xmlns:svg="http://www.w3.org/2000/svg"
   xmlns="http://www.w3.org/2000/svg"
   xmlns:sodipodi="http://sodipodi.sourceforge.net/DTD/sodipodi-0.dtd"
   xmlns:inkscape="http://www.inkscape.org/namespaces/inkscape"
   viewBox="0 0 348.72264 349.92133"
   version="1.1"
   xml:space="preserve"
   id="svg158796"
   inkscape:version="0.48.3.1 r9886"
   width="100%"
   height="100%"
   sodipodi:docname="alkis3508.svg"
   style="fill-rule:evenodd;stroke-linecap:round;stroke-linejoin:round"><metadata
   id="metadata159131"><rdf:RDF><cc:Work
       rdf:about=""><dc:format>image/svg+xml</dc:format><dc:type
         rdf:resource="http://purl.org/dc/dcmitype/StillImage" /></cc:Work></rdf:RDF></metadata><sodipodi:namedview
   pagecolor="#ffffff"
   bordercolor="#666666"
   borderopacity="1"
   objecttolerance="10"
   gridtolerance="10"
   guidetolerance="10"
   inkscape:pageopacity="0"
   inkscape:pageshadow="2"
   inkscape:window-width="1855"
   inkscape:window-height="1025"
   id="namedview159129"
   showgrid="false"
   inkscape:zoom="1.1125147"
   inkscape:cx="175.32147"
   inkscape:cy="322.46208"
   inkscape:window-x="0"
   inkscape:window-y="33"
   inkscape:window-maximized="1"
   inkscape:current-layer="svg158796" />
<defs
   id="defs158798">
<clipPath
   id="clipId0">
<path
   d="M 0,600 800,600 800,0 0,0 z"
   id="path158801"
   inkscape:connector-curvature="0" />
</clipPath>
</defs>
<g
   clip-path="url(#clipId0)"
   id="g158803"
   style="fill:none;stroke:#000000;stroke-width:0.1"
   transform="translate(-226.47626,-124.12913)" />
<g
   clip-path="url(#clipId0)"
   id="g158805"
   style="fill:#cccccc;stroke:none"
   transform="translate(-226.47626,-124.12913)">













































































<path
   d="m 274.59656,205.69048 c -31.84107,42.23433 -39.84777,100.97677 -20.22643,150.12807 19.02517,50.32121 65.84695,88.68293 118.91017,97.52138 52.62316,9.68139 109.36298,-10.2058 144.42907,-50.62566 C 553.4565,362.91277 566.1421,304.1585 550.00744,253.14902 534.73751,201.87046 491.27437,160.33725 439.33652,147.44494 379.13993,132.2914 305.99055,164.57091 274.59656,205.69048 z"
   id="path158961"
   inkscape:connector-curvature="0"
   sodipodi:nodetypes="ccccccc" />
</g>
<g
   clip-path="url(#clipId0)"
   id="g158963"
   style="fill:#000000;stroke:none"
   transform="translate(-226.47626,-124.12913)">















































































<path
   d="m 263.49224,192.09885 c -35.54557,47.171 -48.06549,115.45783 -26.16757,170.3456 21.25621,56.19713 73.54432,99.06082 132.82063,108.90466 58.75858,10.81122 122.12503,-11.39008 161.26834,-56.53832 39.67996,-44.20949 53.96366,-109.34378 36.34356,-166.08824 -16.79863,-57.6797 -65.54426,-104.5203 -123.86239,-118.98338 -13.98083,-3.67292 -28.42344,-5.32781 -42.86356,-5.58292 -59.30588,-0.93305 -95.61795,22.21836 -137.53901,67.9426 z m 136.82026,-31.3801 c 50.27624,-0.33755 99.30787,29.07648 122.31634,73.83701 25.26154,46.56549 20.06546,107.44541 -12.82826,148.99194 -31.63192,42.0943 -88.65853,62.61578 -139.87989,50.49156 -52.11951,-11.1362 -95.24386,-55.08472 -105.13846,-107.4861 -11.04237,-51.14447 10.43279,-107.31482 52.65321,-138.18936 23.70433,-17.86938 53.21741,-27.55211 82.87706,-27.64505 z"
   id="path159123"
   inkscape:connector-curvature="0"
   sodipodi:nodetypes="ccccccccccccccc" />
</g>
<g
   clip-path="url(#clipId0)"
   id="g159125"
   style="fill:none;stroke:#000000;stroke-width:0.25"
   transform="translate(-226.47626,-124.12913)">
<polyline
   points="400.307,142.425 400.307,142.425 "
   id="polyline159127" />
</g>
</svg>