<?xml version="1.0" standalone="no"?>
<!DOCTYPE svg PUBLIC "-//W3C//DTD SVG 1.1//EN"
 "http://www.w3.org/Graphics/SVG/1.1/DTD/svg11.dtd">
<!-- Created with svg_stack (http://github.com/astraw/svg_stack) -->
<svg xmlns:sodipodi="http://sodipodi.sourceforge.net/DTD/sodipodi-0.dtd" xmlns="http://www.w3.org/2000/svg" version="1.1" width="1983.75" height="1217.5">
  <defs/>
  <g id="id0:id0" transform="matrix(1.25,0,0,1.25,0.0,0.0)"><g transform="translate(0.000000,974.000000) scale(0.100000,-0.100000)" fill="#000000" stroke="none">
<path d="M0 4870 l0 -4870 7935 0 7935 0 0 4870 0 4870 -7935 0 -7935 0 0 -4870z m15320 -5 l0 -4315 -7385 0 -7385 0 0 4315 0 4315 7385 0 7385 0 0 -4315z"/>
<path d="M4825 6201 c-293 -82 -523 -160 -700 -238 -150 -67 -188 -89 -325 -189 -145 -106 -162 -122 -263 -246 -213 -266 -278 -364 -366 -556 -85 -188 -157 -414 -172 -547 -5 -38 -13 -92 -20 -120 -6 -29 -13 -211 -16 -432 l-5 -383 1071 0 1071 0 0 271 c0 267 0 272 30 387 52 208 74 260 133 320 28 30 90 84 137 121 78 62 90 69 145 75 33 4 129 18 213 32 l153 24 2024 0 2024 0 153 -24 c84 -14 180 -28 213 -32 70 -7 117 -39 252 -167 82 -78 82 -79 117 -185 71 -215 76 -247 76 -549 l0 -273 1070 0 1070 0 -1 323 c0 177 -4 356 -8 397 -21 181 -36 266 -81 440 -43 167 -55 201 -129 349 -87 174 -178 307 -369 542 -94 115 -116 135 -255 236 -133 96 -174 120 -322 185 -172 76 -416 159 -712 242 l-163 46 -2937 -1 -2938 -1 -170 -47z"/>
</g>
</g>
  <g id="id1:id1" transform="matrix(1.25,0,0,1.25,0.0,0.0)"><g transform="translate(0.000000,974.000000) scale(0.100000,-0.100000)" fill="#ffffff" stroke="none">
</g>
</g>
</svg>
