<?xml version="1.0" encoding="UTF-8" standalone="no"?>
<!-- Created with Inkscape (http://www.inkscape.org/) -->

<svg
   xmlns:dc="http://purl.org/dc/elements/1.1/"
   xmlns:cc="http://creativecommons.org/ns#"
   xmlns:rdf="http://www.w3.org/1999/02/22-rdf-syntax-ns#"
   xmlns:svg="http://www.w3.org/2000/svg"
   xmlns="http://www.w3.org/2000/svg"
   xmlns:inkscape="http://www.inkscape.org/namespaces/inkscape"
   version="1.1"
   width="100%"
   height="100%"
   viewBox="0 0 351.5625 351.69721"
   id="svg4313"
   xml:space="preserve"
   style="fill-rule:evenodd;stroke-linecap:round;stroke-linejoin:round"><metadata
     id="metadata4990"><rdf:RDF><cc:Work
         rdf:about=""><dc:format>image/svg+xml</dc:format><dc:type
           rdf:resource="http://purl.org/dc/dcmitype/StillImage" /></cc:Work></rdf:RDF></metadata><defs
     id="defs4315"><clipPath
       id="clipId0"><path
         d="M 0,600 800,600 800,0 0,0 z"
         inkscape:connector-curvature="0"
         id="path4318" /></clipPath></defs><g
     transform="translate(-224.3125,-123.8125)"
     clip-path="url(#clipId0)"
     id="g4320"
     style="fill:none;stroke:#000000;stroke-width:0.1" /><g
     transform="translate(-224.3125,-123.8125)"
     clip-path="url(#clipId0)"
     id="g4322"
     style="fill:#000000;stroke:none" /><g
     transform="translate(-224.3125,-123.8125)"
     clip-path="url(#clipId0)"
     id="g4496"
     style="fill:none;stroke:#000000;stroke-width:0.25" /><g
     transform="translate(-224.3125,-123.8125)"
     clip-path="url(#clipId0)"
     id="g4500"
     style="fill:#000000;stroke:none" /><g
     transform="translate(-224.3125,-123.8125)"
     clip-path="url(#clipId0)"
     id="g4662"
     style="fill:none;stroke:#000000;stroke-width:0.25" /><g
     transform="translate(-224.3125,-123.8125)"
     clip-path="url(#clipId0)"
     id="g4666"
     style="fill:#000000;stroke:none" /><path
     d="m 0.125,0.125 c 0,113.88542 0.63559,237.30473 0.63559,351.19015 350.89952,0.43742 287.91493,0.19276 350.67691,0.1536 0,-117.11458 0,-234.22917 0,-351.34375 -117.10417,0 -234.20833,0 -351.3125,0 z M 19.46875,19.5 c 50.44792,0 100.89583,0 151.34375,0 0,10.20833 0,20.41667 0,30.625 -50.41798,1.2307 -97.70158,36.24396 -113.74201,84.03471 -4.14249,11.7685 -6.58147,24.17445 -6.97674,36.65279 -10.20833,0 -20.41667,0 -30.625,0 0,-50.4375 0,-100.875 0,-151.3125 z m 161.28125,0 c 50.44792,0 100.89583,0 151.34375,0 0,50.4375 0,100.875 0,151.3125 -10.20833,0 -20.41667,0 -30.625,0 C 300.17649,120.40394 265.21488,73.12237 217.4126,57.0752 205.63929,52.95348 193.22615,50.52979 180.75,50.125 c 0,-10.20833 0,-20.41667 0,-30.625 z m -9.9375,50 c 0,11.97917 0,23.95833 0,35.9375 -33.66028,1.73515 -63.01567,30.62532 -65.30783,64.2495 -3.6035,2.62876 -11.6796,0.37347 -17.00339,1.12545 -6.33375,0 -12.66749,0 -19.00123,0 1.30917,-45.3057 35.15455,-87.04828 79.12027,-97.92207 7.23292,-1.93307 14.70632,-3.13158 22.19218,-3.39038 z m 9.9375,0 c 45.29365,1.34909 87.05554,35.14209 97.93692,79.11609 1.93946,7.23707 3.1024,14.70632 3.37558,22.19641 -11.96875,0 -23.9375,0 -35.90625,0 -1.77601,-33.64667 -30.64326,-63.02625 -64.28075,-65.27658 -2.62876,-3.6035 -0.37347,-11.6796 -1.12545,-17.00339 -3e-5,-6.34417 7e-5,-12.6884 -5e-5,-19.03253 z m -9.9375,55.40625 c 0,6.48958 0,12.97917 0,19.46875 -13.32689,1.90177 -24.50258,13.13826 -26.46875,26.4375 -6.47917,0 -12.95833,0 -19.4375,0 1.93808,-23.83103 22.06709,-43.96164 45.90625,-45.90625 z m 9.9375,0 c 23.66876,1.81762 44.09929,22.23104 45.90625,45.90625 -6.47917,0 -12.95833,0 -19.4375,0 -1.96423,-13.29994 -13.14676,-24.53017 -26.46875,-26.4375 0,-6.48958 0,-12.97917 0,-19.46875 z m -161.28125,55.875 c 10.20833,0 20.41667,0 30.625,0 1.26487,50.39758 36.25862,97.66846 84.03471,113.71076 11.78088,4.13523 24.19562,6.58124 36.68404,6.97674 0,10.20833 0,20.41667 0,30.625 -50.44792,0 -100.89583,0 -151.34375,0 0,-50.4375 0,-100.875 0,-151.3125 z m 50.03125,0 c 11.96875,0 23.9375,0 35.90625,0 1.78922,33.64816 30.64414,63.00874 64.28075,65.27658 2.62876,3.6035 0.37347,11.6796 1.12545,17.00339 0,6.34416 0,12.68832 0,19.03248 C 125.51516,280.72853 83.7325,246.93947 72.86973,202.94807 70.93858,195.725 69.77422,188.25539 69.5,180.78125 z m 55.40625,0 c 6.47917,0 12.95833,0 19.4375,0 1.97418,13.29636 13.14129,24.52753 26.46875,26.4375 0,6.48958 0,12.97917 0,19.46875 -23.81147,-1.95499 -43.97019,-22.07074 -45.90625,-45.90625 z m 82.3125,0 c 6.47917,0 12.95833,0 19.4375,0 -1.80777,23.67416 -22.24897,44.0725 -45.90625,45.90625 0,-6.48958 0,-12.97917 0,-19.46875 13.39343,-1.97403 24.43439,-13.06555 26.46875,-26.4375 z m 38.9375,0 c 11.96875,0 23.9375,0 35.90625,0 -1.32561,45.2992 -35.15703,87.04297 -79.12027,97.92207 -7.24322,1.90157 -14.70376,3.1114 -22.19223,3.39043 0,-11.97917 0,-23.95833 0,-35.9375 34.35237,-1.98639 63.3777,-31.01332 65.40625,-65.375 z m 55.3125,0 c 10.20833,0 20.41667,0 30.625,0 0,50.4375 0,100.875 0,151.3125 -50.44792,0 -100.89583,0 -151.34375,0 0,-10.20833 0,-20.41667 0,-30.625 50.40066,-1.26079 97.69555,-36.23394 113.73012,-84.02757 4.17022,-11.75345 6.53647,-24.19694 6.98863,-36.65993 z"
     inkscape:connector-curvature="0"
     id="polyline4986"
     style="fill:#000000;fill-opacity:1;fill-rule:nonzero;stroke:#000000;stroke-width:0.25" /></svg>