<?xml version="1.0" encoding="UTF-8" standalone="no"?>
<svg
   xmlns:dc="http://purl.org/dc/elements/1.1/"
   xmlns:cc="http://creativecommons.org/ns#"
   xmlns:rdf="http://www.w3.org/1999/02/22-rdf-syntax-ns#"
   xmlns:svg="http://www.w3.org/2000/svg"
   xmlns="http://www.w3.org/2000/svg"
   xmlns:sodipodi="http://sodipodi.sourceforge.net/DTD/sodipodi-0.dtd"
   xmlns:inkscape="http://www.inkscape.org/namespaces/inkscape"
   viewBox="0 0 477.34375 351.41131"
   version="1.1"
   xml:space="preserve"
   id="svg44919"
   inkscape:version="0.48.3.1 r9886"
   width="100%"
   height="100%"
   sodipodi:docname="alkis3456.svg"
   style="fill-rule:evenodd;stroke-linecap:round;stroke-linejoin:round"><metadata
   id="metadata45078"><rdf:RDF><cc:Work
       rdf:about=""><dc:format>image/svg+xml</dc:format><dc:type
         rdf:resource="http://purl.org/dc/dcmitype/StillImage" /></cc:Work></rdf:RDF></metadata><sodipodi:namedview
   pagecolor="#ffffff"
   bordercolor="#666666"
   borderopacity="1"
   objecttolerance="10"
   gridtolerance="10"
   guidetolerance="10"
   inkscape:pageopacity="0"
   inkscape:pageshadow="2"
   inkscape:window-width="1855"
   inkscape:window-height="1025"
   id="namedview45076"
   showgrid="false"
   inkscape:zoom="1.5733333"
   inkscape:cx="245.41843"
   inkscape:cy="175.53125"
   inkscape:window-x="0"
   inkscape:window-y="33"
   inkscape:window-maximized="1"
   inkscape:current-layer="svg44919" />
<defs
   id="defs44921">
<clipPath
   id="clipId0">
<path
   d="M 0,600 800,600 800,0 0,0 z"
   id="path44924"
   inkscape:connector-curvature="0" />
</clipPath>










































































</defs>
<g
   clip-path="url(#clipId0)"
   id="g44926"
   style="fill:none;stroke:#000000;stroke-width:0.1"
   transform="translate(-160.9375,-124.11994)" />
<path
   style="fill:#00ff00;stroke:none"
   d="M 352.65625,0.09881071 C 306.23312,1.3001507 263.30836,36.128831 252.99359,81.465611 c -12.41678,46.514319 11.55423,99.343839 54.73553,120.626379 7.14301,5.08111 7.85413,-9.66971 11.99783,-13.83659 5.32633,-7.16482 -9.24643,-7.67252 -12.79114,-12.8722 -33.86338,-23.61148 -44.86403,-73.27088 -24.27213,-109.031879 18.75961,-35.83387 65.02128,-53.37589 102.81652,-38.95122 38.33357,12.93618 62.87677,55.89642 54.56848,95.491229 -4.90655,26.63787 -23.43815,50.13244 -48.11118,61.26998 4.39723,6.40164 6.03948,13.46458 5.0625,21.15625 26.78125,0 53.5625,0 80.34375,0 0,-7.45833 0,-14.91667 0,-22.375 -15.01042,0 -30.02083,0 -45.03125,0 C 466.98401,149.71547 474.01472,92.352621 448.42638,51.721011 428.99692,18.685531 390.87284,-1.5982993 352.65625,0.09881071 z M 111.84375,57.286311 C 74.5625,150.21339 37.28125,243.14048 0,336.06756 c 6.91667,2.78125 13.83333,5.5625 20.75,8.34375 30.36458,-75.6875 60.72917,-151.375 91.09375,-227.0625 31.30208,78.02083 62.60417,156.04167 93.90625,234.0625 35.22917,0 70.45833,0 105.6875,0 0,-7.44792 0,-14.89583 0,-22.34375 -30.1875,0 -60.375,0 -90.5625,0 C 184.53125,238.47381 148.1875,147.88006 111.84375,57.286311 z"
   id="path44930"
   inkscape:connector-curvature="0" />
</svg>