<?xml version="1.0" standalone="no"?>
<!DOCTYPE svg PUBLIC "-//W3C//DTD SVG 1.1//EN"
 "http://www.w3.org/Graphics/SVG/1.1/DTD/svg11.dtd">
<!-- Created with svg_stack (http://github.com/astraw/svg_stack) -->
<svg xmlns:sodipodi="http://sodipodi.sourceforge.net/DTD/sodipodi-0.dtd" xmlns="http://www.w3.org/2000/svg" version="1.1" width="1591.25" height="1591.25">
  <defs/>
  <g id="id0:id0" transform="matrix(1.25,0,0,1.25,0.0,0.0)"><g transform="translate(0.000000,1273.000000) scale(0.100000,-0.100000)" fill="#000000" stroke="none">
<path d="M1780 6365 l0 -2295 445 0 445 0 0 415 0 415 3690 0 3690 0 0 -415 0 -415 445 0 445 0 0 2295 0 2295 -445 0 -445 0 0 -945 0 -944 -197 96 c-232 112 -547 232 -869 331 -657 203 -1576 290 -2269 216 -293 -31 -632 -95 -935 -175 -226 -60 -653 -208 -845 -292 l-100 -44 -51 69 c-229 305 -629 647 -990 846 -297 163 -708 316 -1006 374 l-118 22 0 223 0 223 -445 0 -445 0 0 -2295z m1404 1235 c152 -60 452 -213 566 -289 129 -87 362 -282 492 -414 246 -247 515 -671 637 -1002 l40 -108 -137 135 c-75 74 -509 495 -964 937 -456 441 -828 804 -828 806 0 7 81 -20 194 -65z m250 -1014 c386 -373 728 -705 761 -737 l60 -59 -793 0 -792 0 0 767 0 767 32 -30 c17 -16 347 -334 732 -708z m4581 350 c306 -45 605 -109 865 -185 222 -65 407 -135 335 -127 -22 3 -768 42 -1657 88 -890 45 -1618 85 -1618 88 0 21 473 112 780 151 221 28 232 28 640 24 414 -3 416 -3 655 -39z m-456 -686 c1274 -65 2355 -122 2404 -126 l87 -6 0 -164 0 -164 -2326 2 -2326 3 -23 75 c-40 135 -101 293 -154 398 l-51 102 37 0 c20 0 1078 -54 2352 -120z"/>
</g>
</g>
  <g id="id1:id1" transform="matrix(1.25,0,0,1.25,0.0,0.0)"><g transform="translate(0.000000,1273.000000) scale(0.100000,-0.100000)" fill="#ffffff" stroke="none">
<path d="M0 6365 l0 -6365 6365 0 6365 0 0 6365 0 6365 -6365 0 -6365 0 0 -6365z m2670 2072 l0 -223 118 -22 c298 -58 709 -211 1006 -374 361 -199 761 -541 990 -846 l51 -69 100 44 c192 84 619 232 845 292 303 80 642 144 935 175 693 74 1612 -13 2269 -216 322 -99 637 -219 869 -331 l197 -96 0 944 0 945 445 0 445 0 0 -2295 0 -2295 -445 0 -445 0 0 415 0 415 -3690 0 -3690 0 0 -415 0 -415 -445 0 -445 0 0 2295 0 2295 445 0 445 0 0 -223z"/>
<path d="M2990 7665 c0 -2 372 -365 828 -806 455 -442 889 -863 964 -937 l137 -135 -40 108 c-122 331 -391 755 -637 1002 -130 132 -363 327 -492 414 -114 76 -414 229 -566 289 -113 45 -194 72 -194 65z"/>
<path d="M2670 6557 l0 -767 792 0 793 0 -60 59 c-136 132 -1464 1418 -1493 1445 l-32 30 0 -767z"/>
<path d="M6720 6951 c-307 -39 -780 -130 -780 -151 0 -3 728 -43 1618 -88 889 -46 1635 -85 1657 -88 72 -8 -113 62 -335 127 -260 76 -559 140 -865 185 -239 36 -241 36 -655 39 -408 4 -419 4 -640 -24z"/>
<path d="M5221 6268 c53 -105 114 -263 154 -398 l23 -75 2326 -3 2326 -2 0 164 0 164 -87 6 c-116 9 -4709 246 -4756 246 l-37 0 51 -102z"/>
</g>
</g>
</svg>
