<?xml version="1.0" encoding="UTF-8" standalone="no"?>
<svg
   xmlns:dc="http://purl.org/dc/elements/1.1/"
   xmlns:cc="http://creativecommons.org/ns#"
   xmlns:rdf="http://www.w3.org/1999/02/22-rdf-syntax-ns#"
   xmlns:svg="http://www.w3.org/2000/svg"
   xmlns="http://www.w3.org/2000/svg"
   xmlns:sodipodi="http://sodipodi.sourceforge.net/DTD/sodipodi-0.dtd"
   xmlns:inkscape="http://www.inkscape.org/namespaces/inkscape"
   viewBox="0 0 423 384.53125"
   version="1.1"
   xml:space="preserve"
   id="svg2"
   inkscape:version="0.48.3.1 r9886"
   width="100%"
   height="100%"
   sodipodi:docname="alkis3320.svg"
   style="fill-rule:evenodd;stroke-linecap:round;stroke-linejoin:round"><metadata
   id="metadata53"><rdf:RDF><cc:Work
       rdf:about=""><dc:format>image/svg+xml</dc:format><dc:type
         rdf:resource="http://purl.org/dc/dcmitype/StillImage" /></cc:Work></rdf:RDF></metadata><sodipodi:namedview
   pagecolor="#ffffff"
   bordercolor="#666666"
   borderopacity="1"
   objecttolerance="10"
   gridtolerance="10"
   guidetolerance="10"
   inkscape:pageopacity="0"
   inkscape:pageshadow="2"
   inkscape:window-width="1855"
   inkscape:window-height="1025"
   id="namedview51"
   showgrid="false"
   inkscape:zoom="0.39333333"
   inkscape:cx="221.35699"
   inkscape:cy="191.78125"
   inkscape:window-x="0"
   inkscape:window-y="33"
   inkscape:window-maximized="1"
   inkscape:current-layer="svg2" />
<defs
   id="defs4">
<clipPath
   id="clipId0">
<path
   d="M 0,600 800,600 800,0 0,0 z"
   id="path7"
   inkscape:connector-curvature="0" />
</clipPath>
</defs>
<g
   clip-path="url(#clipId0)"
   id="g9"
   style="fill:none;stroke:#000000;stroke-width:0.1"
   transform="translate(-188.8125,-107.25)" />
<g
   clip-path="url(#clipId0)"
   id="g11"
   style="fill:#000000;stroke:none"
   transform="translate(-188.8125,-107.25)">




</g>
<g
   clip-path="url(#clipId0)"
   id="g21"
   style="fill:none;stroke:#000000;stroke-width:0.25"
   transform="translate(-188.8125,-107.25)">

</g>
<g
   clip-path="url(#clipId0)"
   id="g25"
   style="fill:#000000;stroke:none"
   transform="translate(-188.8125,-107.25)">






</g>
<g
   clip-path="url(#clipId0)"
   id="g39"
   style="fill:none;stroke:#000000;stroke-width:0.25"
   transform="translate(-188.8125,-107.25)">

</g>
<g
   clip-path="url(#clipId0)"
   id="g43"
   style="fill:#000000;stroke:none"
   transform="translate(-188.8125,-107.25)">


<path
   d="m 400.3125,107.25 -211.5,57.6875 0,23.0625 76.9375,0 0,226.875 -38.46875,0 0,38.46875 -38.46875,0 0,38.4375 38.46875,0 346.09375,0 38.4375,0 0,-38.4375 -38.4375,0 0,-38.46875 -38.46875,0 0,-226.875 76.90625,0 0,-23.0625 -211.5,-57.6875 z m -96.125,80.75 76.90625,0 0,226.875 -76.90625,0 0,-226.875 z m 115.375,0 76.90625,0 0,226.875 -76.90625,0 0,-226.875 z"
   id="path49"
   inkscape:connector-curvature="0" />
</g>
</svg>