<?xml version="1.0" encoding="UTF-8" standalone="no"?>
<svg
   xmlns:dc="http://purl.org/dc/elements/1.1/"
   xmlns:cc="http://creativecommons.org/ns#"
   xmlns:rdf="http://www.w3.org/1999/02/22-rdf-syntax-ns#"
   xmlns:svg="http://www.w3.org/2000/svg"
   xmlns="http://www.w3.org/2000/svg"
   xmlns:sodipodi="http://sodipodi.sourceforge.net/DTD/sodipodi-0.dtd"
   xmlns:inkscape="http://www.inkscape.org/namespaces/inkscape"
   viewBox="0 0 366.7005 350.34753"
   version="1.1"
   xml:space="preserve"
   id="svg31688"
   inkscape:version="0.48.3.1 r9886"
   width="100%"
   height="100%"
   sodipodi:docname="alkis3450.svg"
   style="fill-rule:evenodd;stroke-linecap:round;stroke-linejoin:round"><metadata
   id="metadata32039"><rdf:RDF><cc:Work
       rdf:about=""><dc:format>image/svg+xml</dc:format><dc:type
         rdf:resource="http://purl.org/dc/dcmitype/StillImage" /></cc:Work></rdf:RDF></metadata><sodipodi:namedview
   pagecolor="#ffffff"
   bordercolor="#666666"
   borderopacity="1"
   objecttolerance="10"
   gridtolerance="10"
   guidetolerance="10"
   inkscape:pageopacity="0"
   inkscape:pageshadow="2"
   inkscape:window-width="1855"
   inkscape:window-height="1025"
   id="namedview32037"
   showgrid="false"
   showguides="true"
   inkscape:guide-bbox="true"
   inkscape:zoom="2.2250293"
   inkscape:cx="96.627613"
   inkscape:cy="175.09375"
   inkscape:window-x="0"
   inkscape:window-y="33"
   inkscape:window-maximized="1"
   inkscape:current-layer="svg31688" />
<defs
   id="defs31690">
<clipPath
   id="clipId0">
<path
   d="M 0,600 800,600 800,0 0,0 z"
   id="path31693"
   inkscape:connector-curvature="0" />
</clipPath>










































































































































































</defs>
<g
   clip-path="url(#clipId0)"
   id="g31695"
   style="fill:none;stroke:#000000;stroke-width:0.1"
   transform="translate(-217.08139,-124.74622)" />




<path
   style="fill:#00ff00;fill-opacity:1;fill-rule:nonzero;stroke:none"
   d="M 267.44986,0.00378025 C 224.59405,-0.39328975 183.9491,30.53413 173.11671,72.02918 c -12.11743,40.59752 5.92033,87.54196 41.98212,109.73611 11.54824,7.39656 24.6958,12.18988 38.22603,14.33219 0,51.41667 0,102.83333 0,154.25 9.79167,0 19.58333,0 29.375,0 0,-51.41667 0,-102.83333 0,-154.25 41.31114,-5.67385 76.37508,-40.1852 82.58898,-81.43403 C 372.64917,73.63996 350.62112,29.69103 313.35033,11.0344 299.18067,3.6126603 283.45134,0.11133025 267.44986,0.00378025 z m 0.5625,29.37499975 c 33.75935,-0.66943 65.06938,26.77641 68.60793,60.38982 5.05738,33.40431 -18.25799,67.92608 -51.10816,75.76556 -32.61878,9.28227 -69.94486,-9.61335 -81.79081,-41.38713 -13.14576,-31.11982 0.85645,-70.37241 30.78596,-86.07313 10.16115,-5.71945 21.86092,-8.6454 33.50508,-8.69512 z m -191.062501,163.625 c -36.06024,-0.2575 -69.6510205,27.86026 -75.5102805,63.4785 -7.4431,35.94134 14.7136805,74.95655 49.4246105,86.92495 34.47759,13.59584 77.139011,-2.15054 94.538551,-34.87175 18.631,-31.63024 10.14673,-75.70142 -18.85624,-98.19608 -13.83347,-11.35578 -31.722911,-17.49225 -49.596641,-17.33562 z m 113.437501,23.09375 c 0,44.75 0,89.5 0,134.25 6.98958,0 13.97917,0 20.96875,0 0,-44.75 0,-89.5 0,-134.25 -6.98958,0 -13.97917,0 -20.96875,0 z m -112.656251,6.3125 c 26.885101,-0.74265 50.561481,24.47232 48.124391,51.25851 -0.97751,18.67263 -13.88001,36.05429 -31.561891,42.21024 0,-14.52083 0,-29.04167 0,-43.5625 -9.79167,0 -19.58333,0 -29.375,0 0,14.92708 0,29.85417 0,44.78125 -26.21598,-6.37184 -42.29261,-37.13262 -32.74316,-62.32659 6.39311,-19.06274 25.44546,-32.59331 45.55566,-32.36091 z"
   id="path32035"
   inkscape:connector-curvature="0" />
</svg>