<?xml version="1.0" standalone="no"?>
<!DOCTYPE svg PUBLIC "-//W3C//DTD SVG 1.1//EN"
 "http://www.w3.org/Graphics/SVG/1.1/DTD/svg11.dtd">
<!-- Created with svg_stack (http://github.com/astraw/svg_stack) -->
<svg xmlns:sodipodi="http://sodipodi.sourceforge.net/DTD/sodipodi-0.dtd" xmlns="http://www.w3.org/2000/svg" version="1.1" width="1596.25" height="1597.5">
  <defs/>
  <g id="id0:id0" transform="matrix(1.25,0,0,1.25,0.0,0.0)"><g transform="translate(0.000000,1278.000000) scale(0.100000,-0.100000)" fill="#000000" stroke="none">
<path d="M0 6390 l0 -6390 6385 0 6385 0 0 6390 0 6390 -6385 0 -6385 0 0 -6390z m12170 0 l0 -5780 -5780 0 -5780 0 0 5780 0 5780 5780 0 5780 0 0 -5780z"/>
<path d="M6515 11268 c-19 -51 -1802 -5544 -1800 -5546 1 -1 638 385 1415 858 777 473 1414 859 1415 858 6 -7 -1194 -3673 -1201 -3672 -5 1 -206 65 -447 144 -241 78 -440 140 -442 138 -2 -1 34 -174 80 -383 46 -209 160 -751 254 -1205 95 -454 175 -833 179 -843 6 -14 180 138 927 809 506 454 926 831 932 838 10 9 -84 43 -430 155 -243 79 -447 146 -453 150 -7 4 281 902 841 2621 469 1438 851 2616 850 2618 -1 1 -640 -385 -1420 -858 -780 -473 -1419 -859 -1420 -858 -1 2 292 905 651 2007 360 1103 653 2006 651 2007 -4 3 -562 174 -570 174 -4 0 -10 -6 -12 -12z"/>
</g>
</g>
  <g id="id1:id1" transform="matrix(1.25,0,0,1.25,0.0,0.0)"><g transform="translate(0.000000,1278.000000) scale(0.100000,-0.100000)" fill="#ffffff" stroke="none">
<path d="M610 6390 l0 -5780 5780 0 5780 0 0 5780 0 5780 -5780 0 -5780 0 0 -5780z m6205 4804 c154 -48 281 -87 282 -88 2 -1 -291 -904 -651 -2007 -359 -1102 -652 -2005 -651 -2007 1 -1 640 385 1420 858 780 473 1419 859 1420 858 1 -2 -381 -1180 -850 -2618 -560 -1719 -848 -2617 -841 -2621 6 -4 210 -71 453 -150 346 -112 440 -146 430 -155 -6 -7 -426 -384 -932 -838 -747 -671 -921 -823 -927 -809 -4 10 -84 389 -179 843 -94 454 -208 996 -254 1205 -46 209 -82 382 -80 383 2 2 201 -60 442 -138 241 -79 442 -143 447 -144 7 -1 1207 3665 1201 3672 -1 1 -638 -385 -1415 -858 -777 -473 -1414 -859 -1415 -858 -2 2 1781 5495 1800 5546 2 6 8 12 12 12 4 0 134 -39 288 -86z"/>
</g>
</g>
</svg>
