<?xml version="1.0" encoding="UTF-8" standalone="no"?>
<svg
   xmlns:dc="http://purl.org/dc/elements/1.1/"
   xmlns:cc="http://creativecommons.org/ns#"
   xmlns:rdf="http://www.w3.org/1999/02/22-rdf-syntax-ns#"
   xmlns:svg="http://www.w3.org/2000/svg"
   xmlns="http://www.w3.org/2000/svg"
   xmlns:sodipodi="http://sodipodi.sourceforge.net/DTD/sodipodi-0.dtd"
   xmlns:inkscape="http://www.inkscape.org/namespaces/inkscape"
   viewBox="0 0 572.78125 347.98502"
   version="1.1"
   xml:space="preserve"
   id="svg4396"
   inkscape:version="0.48.3.1 r9886"
   width="100%"
   height="100%"
   sodipodi:docname="alkis3526.svg"
   style="fill-rule:evenodd;stroke-linecap:round;stroke-linejoin:round"><metadata
   id="metadata4631"><rdf:RDF><cc:Work
       rdf:about=""><dc:format>image/svg+xml</dc:format><dc:type
         rdf:resource="http://purl.org/dc/dcmitype/StillImage" /></cc:Work></rdf:RDF></metadata><sodipodi:namedview
   pagecolor="#ffffff"
   bordercolor="#666666"
   borderopacity="1"
   objecttolerance="10"
   gridtolerance="10"
   guidetolerance="10"
   inkscape:pageopacity="0"
   inkscape:pageshadow="2"
   inkscape:window-width="1855"
   inkscape:window-height="1025"
   id="namedview4629"
   showgrid="false"
   inkscape:zoom="1.1125147"
   inkscape:cx="343.92722"
   inkscape:cy="50.95779"
   inkscape:window-x="0"
   inkscape:window-y="33"
   inkscape:window-maximized="1"
   inkscape:current-layer="svg4396" />
<defs
   id="defs4398">
<clipPath
   id="clipId0">
<path
   d="M 0,600 800,600 800,0 0,0 z"
   id="path4401"
   inkscape:connector-curvature="0" />
</clipPath>
</defs>
<g
   clip-path="url(#clipId0)"
   id="g4403"
   style="fill:none;stroke:#000000;stroke-width:0.1"
   transform="translate(-114.84375,-128.01498)" />
<g
   clip-path="url(#clipId0)"
   id="g4405"
   style="fill:#000000;stroke:none"
   transform="translate(-114.84375,-128.01498)">














































































































<path
   d="m 402.75,128.03125 c -77.8752,0.54748 -157.38514,17.43288 -213.25,53.03125 -19.77896,14.14677 -44.67466,27.10924 -54.64886,50.22443 -11.66071,19.92812 -18.51706,43.06025 -15.78864,67.02557 1.19302,44.32574 33.99436,82.54633 74.90625,96.875 65.25985,23.83093 135.93634,16.14513 204,18.875 90.25035,-1.88118 134.62851,2.6374 213.51251,-19.61023 66.5759,-37.1633 68.73871,-69.57345 71.17499,-88.23352 6.20339,-50.19637 -26.41534,-98.38949 -68.84375,-122.65625 -55.09154,-36.56202 -129.52966,-53.44223 -195.5,-55.4375 -5.16971,-0.10809 -10.37082,-0.13025 -15.5625,-0.0937 z m -4.625,25.5625 c 7.00526,-0.0358 13.99038,0.0827 20.96875,0.40625 67.43085,4.16123 136.67553,21.35656 191.75,61.9375 30.82567,23.90927 55.28917,66.07174 38.65625,105.21875 -9.62719,25.40967 -33.14712,41.84824 -58.34375,49.90625 0.21159,-1.01613 -1.27897,-0.46846 -6.4375,1.875 -59.68586,15.17178 -125.90092,10.8971 -176.28125,12.78125 -59.45046,-1.41901 -119.76191,2.81943 -178.3125,-9.6875 -35.46927,-6.39037 -73.09763,-28.10684 -80.59375,-66.09375 -9.98381,-42.29637 21.274,-81.36716 54.78125,-103.09375 57.69416,-35.68059 126.09497,-52.90354 193.8125,-53.25 z m -283.28125,293.75 0,28.65625 572.78125,0 0,-28.65625 z"
   id="path4627"
   inkscape:connector-curvature="0"
   sodipodi:nodetypes="scccccccccsscccccccccsccccc" />
</g>
</svg>