<?xml version="1.0" standalone="no"?>
<!DOCTYPE svg PUBLIC "-//W3C//DTD SVG 1.1//EN"
 "http://www.w3.org/Graphics/SVG/1.1/DTD/svg11.dtd">
<!-- Created with svg_stack (http://github.com/astraw/svg_stack) -->
<svg xmlns:sodipodi="http://sodipodi.sourceforge.net/DTD/sodipodi-0.dtd" xmlns="http://www.w3.org/2000/svg" version="1.1" width="1982.5" height="558.75">
  <defs/>
  <g id="id0:id0" transform="matrix(1.25,0,0,1.25,0.0,0.0)"><g transform="translate(0.000000,447.000000) scale(0.100000,-0.100000)" fill="#000000" stroke="none">
<path d="M733 4262 c-200 -255 -278 -378 -409 -647 -99 -203 -158 -362 -228 -610 -47 -168 -75 -387 -92 -715 -10 -201 27 -543 83 -765 75 -304 127 -452 236 -670 133 -269 197 -364 461 -693 l130 -162 7021 0 7021 0 170 217 c242 309 324 442 450 731 110 251 200 536 233 737 38 232 57 578 42 755 -29 327 -52 452 -135 734 -122 413 -312 756 -630 1139 l-131 157 -7030 0 -7030 0 -162 -208z m14437 -2094 c0 -144 -32 -377 -76 -549 -22 -91 -136 -405 -171 -473 -36 -71 -170 -287 -231 -374 l-65 -92 -6697 0 -6697 0 -75 108 c-283 405 -440 852 -464 1320 l-7 132 7242 0 7241 0 0 -72z"/>
</g>
</g>
  <g id="id1:id1" transform="matrix(1.25,0,0,1.25,0.0,0.0)"><g transform="translate(0.000000,447.000000) scale(0.100000,-0.100000)" fill="#ffffff" stroke="none">
</g>
</g>
</svg>
