<?xml version="1.0" encoding="UTF-8" standalone="no"?>
<!-- Created with Inkscape (http://www.inkscape.org/) -->

<svg
   xmlns:dc="http://purl.org/dc/elements/1.1/"
   xmlns:cc="http://creativecommons.org/ns#"
   xmlns:rdf="http://www.w3.org/1999/02/22-rdf-syntax-ns#"
   xmlns:svg="http://www.w3.org/2000/svg"
   xmlns="http://www.w3.org/2000/svg"
   xmlns:inkscape="http://www.inkscape.org/namespaces/inkscape"
   version="1.1"
   width="100%"
   height="100%"
   viewBox="0 0 349.73786 349.89421"
   id="svg42025"
   xml:space="preserve"
   style="fill-rule:evenodd;stroke-linecap:round;stroke-linejoin:round"><metadata
     id="metadata42202"><rdf:RDF><cc:Work
         rdf:about=""><dc:format>image/svg+xml</dc:format><dc:type
           rdf:resource="http://purl.org/dc/dcmitype/StillImage" /></cc:Work></rdf:RDF></metadata><defs
     id="defs42027"><clipPath
       id="clipId0"><path
         d="M 0,600 800,600 800,0 0,0 z"
         inkscape:connector-curvature="0"
         id="path42030" /></clipPath></defs><g
     transform="translate(-225.46104,-124.15625)"
     clip-path="url(#clipId0)"
     id="g42032"
     style="fill:none;stroke:#000000;stroke-width:0.1" /><g
     transform="translate(-225.46104,-124.15625)"
     clip-path="url(#clipId0)"
     id="g42034"
     style="fill:#ff7f7f;stroke:none"><path
       d="m 399.59375,124.15625 c -54.26086,0.002 -107.56652,26.9006 -139.69697,70.63919 -35.54557,47.171 -44.47003,112.76124 -22.57211,167.64901 21.25621,56.19713 73.54432,99.06082 132.82063,108.90466 58.75858,10.81122 122.12503,-11.39008 161.26834,-56.53832 39.67996,-44.20949 53.96366,-109.34378 36.34356,-166.08824 -16.79863,-57.6797 -65.54426,-104.5203 -123.86239,-118.98338 -14.44839,-3.8203 -29.38063,-5.39956 -44.30106,-5.58292 z m 0.71875,36.5625 c 50.27624,-0.33755 99.30787,29.07648 122.31634,73.83701 25.26154,46.56549 20.06546,107.44541 -12.82826,148.99194 -31.63192,42.0943 -88.65853,62.61578 -139.87989,50.49156 -52.11951,-11.1362 -95.24386,-55.08472 -105.13846,-107.4861 -11.04237,-51.14447 10.43279,-107.31482 52.65321,-138.18936 23.70433,-17.86938 53.21741,-27.55211 82.87706,-27.64505 z"
       inkscape:connector-curvature="0"
       id="path42194" /></g><g
     transform="translate(-225.46104,-124.15625)"
     clip-path="url(#clipId0)"
     id="g42196"
     style="fill:none;stroke:#ff7f7f;stroke-width:0.25"><polyline
       points="400.307,142.425 400.307,142.425 "
       id="polyline42198" /></g></svg>