<?xml version="1.0" standalone="no"?>
<!DOCTYPE svg PUBLIC "-//W3C//DTD SVG 1.1//EN"
 "http://www.w3.org/Graphics/SVG/1.1/DTD/svg11.dtd">
<!-- Created with svg_stack (http://github.com/astraw/svg_stack) -->
<svg xmlns:sodipodi="http://sodipodi.sourceforge.net/DTD/sodipodi-0.dtd" xmlns="http://www.w3.org/2000/svg" version="1.1" width="1688.75" height="1592.5">
  <defs/>
  <g id="id0:id0" transform="matrix(1.25,0,0,1.25,0.0,0.0)"><g transform="translate(0.000000,1274.000000) scale(0.100000,-0.100000)" fill="#510000" stroke="none">
<path d="M8065 9360 c-649 -1859 -1183 -3380 -1186 -3380 -3 0 -331 693 -729 1540 -398 847 -726 1540 -730 1540 -3 0 -539 -1258 -1190 -2796 -651 -1537 -1188 -2797 -1192 -2800 -4 -3 -287 122 -629 276 -350 159 -625 278 -630 273 -9 -9 -105 -224 -1058 -2378 -713 -1609 -712 -1606 -718 -1622 -4 -10 1350 -13 6751 -13 l6757 0 -6 33 c-3 17 -419 2369 -924 5225 -505 2856 -921 5196 -925 5199 -3 3 -281 -31 -616 -76 -336 -46 -616 -81 -623 -78 -7 3 -271 552 -586 1221 -316 669 -577 1216 -580 1216 -4 0 -537 -1521 -1186 -3380z m1671 1364 c230 -487 424 -888 431 -891 7 -3 265 30 573 73 308 42 563 75 566 71 4 -3 384 -2138 845 -4744 461 -2606 841 -4753 844 -4771 l6 -32 -1763 0 -1763 0 -1154 2467 c-635 1356 -1158 2478 -1164 2493 -9 24 119 399 1069 3124 593 1703 1082 3096 1085 3096 3 0 194 -399 425 -886z m-3414 -4581 c1937 -4133 2671 -5704 2666 -5708 -3 -3 -1877 -4 -4165 -3 l-4161 3 275 625 c669 1522 1046 2376 1053 2383 4 5 292 -120 639 -278 348 -157 635 -284 639 -281 4 2 493 1157 1087 2565 593 1409 1082 2561 1085 2561 4 0 401 -840 882 -1867z"/>
</g>
</g>
  <g id="id1:id1" transform="matrix(1.25,0,0,1.25,0.0,0.0)"><g transform="translate(0.000000,1274.000000) scale(0.100000,-0.100000)" fill="#ededed" stroke="none">
<path d="M8226 8514 c-950 -2725 -1078 -3100 -1069 -3124 6 -15 529 -1137 1164 -2493 l1154 -2467 1763 0 1763 0 -6 32 c-3 18 -383 2165 -844 4771 -461 2606 -841 4741 -845 4744 -3 4 -258 -29 -566 -71 -308 -43 -566 -76 -573 -73 -7 3 -201 404 -431 891 -231 487 -422 886 -425 886 -3 0 -492 -1393 -1085 -3096z"/>
<path d="M4355 5449 c-594 -1408 -1083 -2563 -1087 -2565 -4 -3 -291 124 -639 281 -347 158 -635 283 -639 278 -7 -7 -384 -861 -1053 -2383 l-275 -625 4161 -3 c2288 -1 4162 0 4165 3 8 7 -3536 7575 -3548 7575 -3 0 -492 -1152 -1085 -2561z"/>
</g>
</g>
  <g id="id2:id2" transform="matrix(1.25,0,0,1.25,0.0,0.0)"><g transform="translate(0.000000,1274.000000) scale(0.100000,-0.100000)" fill="#ffffff" stroke="none">
</g>
</g>
</svg>
