<?xml version="1.0" encoding="UTF-8" standalone="no"?>
<!-- Created with Inkscape (http://www.inkscape.org/) -->

<svg
   xmlns:dc="http://purl.org/dc/elements/1.1/"
   xmlns:cc="http://creativecommons.org/ns#"
   xmlns:rdf="http://www.w3.org/1999/02/22-rdf-syntax-ns#"
   xmlns:svg="http://www.w3.org/2000/svg"
   xmlns="http://www.w3.org/2000/svg"
   xmlns:inkscape="http://www.inkscape.org/namespaces/inkscape"
   version="1.1"
   width="100%"
   height="100%"
   viewBox="0 0 794.76922 164.625"
   id="svg2"
   xml:space="preserve"
   style="fill-rule:evenodd;stroke-linecap:round;stroke-linejoin:round"><metadata
     id="metadata39"><rdf:RDF><cc:Work
         rdf:about=""><dc:format>image/svg+xml</dc:format><dc:type
           rdf:resource="http://purl.org/dc/dcmitype/StillImage" /></cc:Work></rdf:RDF></metadata><defs
     id="defs4"><clipPath
       id="clipId0"><path
         d="M 0,600 800,600 800,0 0,0 z"
         inkscape:connector-curvature="0"
         id="path7" /></clipPath></defs><g
     transform="translate(-3.11778,-217.55)"
     clip-path="url(#clipId0)"
     id="g9"
     style="fill:none;stroke:#000000;stroke-width:0.1" /><g
     transform="translate(-3.11778,-217.55)"
     clip-path="url(#clipId0)"
     id="g11"
     style="fill:#000000;stroke:none"><path
       d="m 10.2069,378.63 -7.08912,0 0,-161.08 7.08912,7.089 z"
       inkscape:connector-curvature="0"
       id="path13" /><path
       d="m 10.2069,224.639 -7.08912,-7.089 85.85712,0 -7.0891,7.089 z"
       inkscape:connector-curvature="0"
       id="path15" /><path
       d="m 81.8858,224.639 7.0891,-7.089 0,164.625 -7.0891,-7.089 z"
       inkscape:connector-curvature="0"
       id="path17" /><path
       d="m 81.8858,375.086 7.0891,7.089 -82.31255,0 0,-7.089 z"
       inkscape:connector-curvature="0"
       id="path19" /><path
       d="m 719.119,378.63 -7.089,0 0,-161.08 7.089,7.089 z"
       inkscape:connector-curvature="0"
       id="path21" /><path
       d="m 719.119,224.639 -7.089,-7.089 85.857,0 -7.089,7.089 z"
       inkscape:connector-curvature="0"
       id="path23" /><path
       d="m 790.798,224.639 7.089,-7.089 0,164.625 -7.089,-7.089 z"
       inkscape:connector-curvature="0"
       id="path25" /><path
       d="m 790.798,375.086 7.089,7.089 -82.312,0 0,-7.089 z"
       inkscape:connector-curvature="0"
       id="path27" /><path
       d="m 85.4304,240.393 0,-7.09 630.1446,0 0,7.09 z"
       inkscape:connector-curvature="0"
       id="path29" /><path
       d="m 714.879,233.372 1.391,6.952 -630.1445,126.029 -1.3903,-6.952 z"
       inkscape:connector-curvature="0"
       id="path31" /><path
       d="m 85.4304,366.421 0,-7.089 630.1446,0 0,7.089 z"
       inkscape:connector-curvature="0"
       id="path33" /><path
       d="m 716.27,359.401 -1.391,6.952 -630.1438,-126.029 1.3903,-6.952 z"
       inkscape:connector-curvature="0"
       id="path35" /></g></svg>