<?xml version="1.0" standalone="no"?>
<!DOCTYPE svg PUBLIC "-//W3C//DTD SVG 1.1//EN"
 "http://www.w3.org/Graphics/SVG/1.1/DTD/svg11.dtd">
<!-- Created with svg_stack (http://github.com/astraw/svg_stack) -->
<svg xmlns:sodipodi="http://sodipodi.sourceforge.net/DTD/sodipodi-0.dtd" xmlns="http://www.w3.org/2000/svg" version="1.1" width="1650.0" height="1581.25">
  <defs/>
  <g id="id0:id0" transform="matrix(1.25,0,0,1.25,0.0,0.0)"><g transform="translate(0.000000,1265.000000) scale(0.100000,-0.100000)" fill="#999999" stroke="none">
<path d="M5838 9934 l-3 -2716 -2915 -1166 c-1603 -641 -2916 -1166 -2917 -1167 -2 -1 125 -316 281 -701 242 -598 286 -699 302 -697 10 1 1196 474 2634 1052 l2615 1049 3 -2794 2 -2794 760 0 760 0 2 2794 3 2794 2634 -1055 c1448 -580 2637 -1051 2641 -1046 9 9 561 1396 557 1399 -1 1 -1315 527 -2919 1169 l-2918 1167 0 2714 0 2714 -760 0 -760 0 -2 -2716z"/>
</g>
</g>
  <g id="id1:id1" transform="matrix(1.25,0,0,1.25,0.0,0.0)"><g transform="translate(0.000000,1265.000000) scale(0.100000,-0.100000)" fill="#ffffff" stroke="none">
</g>
</g>
</svg>
