<?xml version="1.0" encoding="UTF-8" standalone="no"?>
<svg
   xmlns:dc="http://purl.org/dc/elements/1.1/"
   xmlns:cc="http://creativecommons.org/ns#"
   xmlns:rdf="http://www.w3.org/1999/02/22-rdf-syntax-ns#"
   xmlns:svg="http://www.w3.org/2000/svg"
   xmlns="http://www.w3.org/2000/svg"
   xmlns:sodipodi="http://sodipodi.sourceforge.net/DTD/sodipodi-0.dtd"
   xmlns:inkscape="http://www.inkscape.org/namespaces/inkscape"
   viewBox="0 0 192.81165 350.78125"
   version="1.1"
   xml:space="preserve"
   id="svg2"
   inkscape:version="0.48.3.1 r9886"
   width="100%"
   height="100%"
   sodipodi:docname="alkis3506.svg"
   style="fill-rule:evenodd;stroke-linecap:round;stroke-linejoin:round"><metadata
   id="metadata179"><rdf:RDF><cc:Work
       rdf:about=""><dc:format>image/svg+xml</dc:format><dc:type
         rdf:resource="http://purl.org/dc/dcmitype/StillImage" /></cc:Work></rdf:RDF></metadata><sodipodi:namedview
   pagecolor="#ffffff"
   bordercolor="#666666"
   borderopacity="1"
   objecttolerance="10"
   gridtolerance="10"
   guidetolerance="10"
   inkscape:pageopacity="0"
   inkscape:pageshadow="2"
   inkscape:window-width="1855"
   inkscape:window-height="1025"
   id="namedview177"
   showgrid="false"
   showguides="true"
   inkscape:guide-bbox="true"
   inkscape:zoom="2.2250293"
   inkscape:cx="102.8987"
   inkscape:cy="175.53125"
   inkscape:window-x="0"
   inkscape:window-y="33"
   inkscape:window-maximized="1"
   inkscape:current-layer="svg2" />
<defs
   id="defs4">
<clipPath
   id="clipId0">
<path
   d="M 0,600 800,600 800,0 0,0 z"
   id="path7"
   inkscape:connector-curvature="0" />
</clipPath>



















































































</defs>
<g
   clip-path="url(#clipId0)"
   id="g9"
   style="fill:none;stroke:#000000;stroke-width:0.1"
   transform="translate(-303.08491,-124.75)" />
<path
   style="fill:#000000;stroke:none"
   d="M 28.040087,0 C 1.6633373,26.07251 -7.3308727,67.857 6.3323173,102.3805 c 4.7252597,12.62316 12.3048197,24.08321 21.7077697,33.71325 1.76128,-3.34261 10.97597,-6.3908 7.24347,-9.95043 C 10.060957,100.46568 4.7201773,58.08298 22.785537,26.95174 26.496627,20.01205 31.476727,13.84445 36.915087,8.1875 33.956757,5.45833 30.998417,2.72917 28.040087,0 z M 164.79009,0 c -1.74915,3.34486 -10.95156,6.39036 -7.21767,9.95545 24.15798,24.71227 30.18985,64.71481 14.48618,95.48797 -4.09859,8.30339 -9.63037,15.85955 -16.11226,22.46283 3.46605,1.48333 7.22173,10.43441 10.4747,6.42404 C 193.55161,106.49326 200.672,61.64421 183.53571,26.75903 178.90204,16.84064 172.4453,7.81288 164.79009,0 z M 51.727587,23.6875 c -20.60566,20.12827 -24.25635,54.72347 -8.10705,78.61053 2.48313,3.1973 5.42759,8.80062 8.69555,9.56531 1.81792,-3.3386 11.31466,-6.38178 6.1063,-9.99068 -17.63553,-18.87379 -16.95122,-51.11964 1.47362,-69.22964 0.68837,-2.73043 -6.26464,-6.20989 -8.16842,-8.95552 z m 89.375003,0 c -1.74903,3.34475 -10.95183,6.39061 -7.21743,9.95524 17.92264,18.59408 17.72629,50.84568 -0.38647,69.24183 -2.37338,3.35839 5.74384,6.32243 7.6039,9.52168 21.05593,-20.46485 24.34705,-56.02705 7.22345,-79.91483 -2.08689,-3.17993 -4.5859,-6.07147 -7.22345,-8.80392 z M 84.696337,125 c 0,67.4375 0,134.875 0,202.3125 -13.95833,0 -27.91667,0 -41.875,0 0,7.82292 0,15.64583 0,23.46875 35.72917,0 71.458333,0 107.187503,0 0,-7.82292 0,-15.64583 0,-23.46875 -13.95833,0 -27.91667,0 -41.875,0 0,-67.4375 0,-134.875 0,-202.3125 -7.8125,0 -15.625003,0 -23.437503,0 z"
   id="path13"
   inkscape:connector-curvature="0" />
</svg>