<?xml version="1.0" standalone="no"?>
<!DOCTYPE svg PUBLIC "-//W3C//DTD SVG 1.1//EN"
 "http://www.w3.org/Graphics/SVG/1.1/DTD/svg11.dtd">
<!-- Created with svg_stack (http://github.com/astraw/svg_stack) -->
<svg xmlns:sodipodi="http://sodipodi.sourceforge.net/DTD/sodipodi-0.dtd" xmlns="http://www.w3.org/2000/svg" version="1.1" width="1561.25" height="1561.25">
  <defs/>
  <g id="id0:id0" transform="matrix(1.25,0,0,1.25,0.0,0.0)"><g transform="translate(0.000000,1249.000000) scale(0.100000,-0.100000)" fill="#000000" stroke="none">
<path d="M0 6245 l0 -6245 6245 0 6245 0 0 6245 0 6245 -6245 0 -6245 0 0 -6245z m11670 -5 l0 -5430 -5425 0 -5425 0 0 5430 0 5430 5425 0 5425 0 0 -5430z"/>
<path d="M3120 6245 l0 -4085 825 0 825 0 0 1540 0 1540 623 0 c768 0 1514 30 1872 76 416 52 762 180 1090 402 357 241 592 511 780 897 142 290 215 598 235 1000 20 379 -10 688 -100 1039 -63 248 -112 361 -258 599 -165 270 -321 435 -607 641 -247 178 -571 312 -856 355 -477 72 -791 81 -2756 81 l-1673 0 0 -4085z m3330 2686 c437 -32 656 -112 894 -325 185 -166 293 -402 327 -710 22 -203 -30 -456 -137 -668 -29 -57 -60 -96 -153 -188 -139 -138 -217 -193 -372 -260 -262 -113 -680 -150 -1706 -150 l-533 0 0 1161 0 1161 758 -5 c442 -2 826 -9 922 -16z"/>
</g>
</g>
  <g id="id1:id1" transform="matrix(1.25,0,0,1.25,0.0,0.0)"><g transform="translate(0.000000,1249.000000) scale(0.100000,-0.100000)" fill="#ffffff" stroke="none">
<path d="M820 6240 l0 -5430 5425 0 5425 0 0 5430 0 5430 -5425 0 -5425 0 0 -5430z m5955 4075 c513 -24 830 -61 1004 -117 249 -79 448 -176 626 -304 286 -206 442 -371 607 -641 146 -238 195 -351 258 -599 90 -351 120 -660 100 -1039 -29 -576 -171 -989 -482 -1403 -200 -266 -493 -501 -828 -665 -346 -168 -666 -239 -1200 -266 -700 -36 -877 -41 -1467 -41 l-623 0 0 -1540 0 -1540 -825 0 -825 0 0 4085 0 4085 1673 0 c1330 0 1735 -3 1982 -15z"/>
<path d="M4770 7791 l0 -1161 533 0 c788 0 1114 17 1446 74 117 21 165 35 260 76 155 67 233 122 372 260 93 92 124 131 153 188 107 212 159 465 137 668 -25 227 -80 390 -188 549 -124 185 -355 350 -583 417 -225 66 -449 80 -1372 85 l-758 5 0 -1161z"/>
</g>
</g>
</svg>
