<?xml version="1.0" encoding="UTF-8" standalone="no"?>
<svg
   xmlns:dc="http://purl.org/dc/elements/1.1/"
   xmlns:cc="http://creativecommons.org/ns#"
   xmlns:rdf="http://www.w3.org/1999/02/22-rdf-syntax-ns#"
   xmlns:svg="http://www.w3.org/2000/svg"
   xmlns="http://www.w3.org/2000/svg"
   xmlns:sodipodi="http://sodipodi.sourceforge.net/DTD/sodipodi-0.dtd"
   xmlns:inkscape="http://www.inkscape.org/namespaces/inkscape"
   viewBox="0 0 304.71875 304.69856"
   version="1.1"
   xml:space="preserve"
   id="svg2"
   inkscape:version="0.48.3.1 r9886"
   width="100%"
   height="100%"
   sodipodi:docname="alkis3404.svg"
   style="fill-rule:evenodd;stroke-linecap:round;stroke-linejoin:round"><metadata
   id="metadata45"><rdf:RDF><cc:Work
       rdf:about=""><dc:format>image/svg+xml</dc:format><dc:type
         rdf:resource="http://purl.org/dc/dcmitype/StillImage" /></cc:Work></rdf:RDF></metadata><sodipodi:namedview
   pagecolor="#ffffff"
   bordercolor="#666666"
   borderopacity="1"
   objecttolerance="10"
   gridtolerance="10"
   guidetolerance="10"
   inkscape:pageopacity="0"
   inkscape:pageshadow="2"
   inkscape:window-width="1855"
   inkscape:window-height="1025"
   id="namedview43"
   showgrid="false"
   inkscape:zoom="1.1125147"
   inkscape:cx="158.97623"
   inkscape:cy="152.63606"
   inkscape:window-x="0"
   inkscape:window-y="33"
   inkscape:window-maximized="1"
   inkscape:current-layer="svg2" />
<defs
   id="defs4">
<clipPath
   id="clipId0">
<path
   d="M 0,600 800,600 800,0 0,0 z"
   id="path7"
   inkscape:connector-curvature="0" />
</clipPath>
</defs>
<g
   clip-path="url(#clipId0)"
   id="g9"
   style="fill:none;stroke:#000000;stroke-width:0.1"
   transform="translate(-247.90625,-147.9375)" />
<g
   clip-path="url(#clipId0)"
   id="g11"
   style="fill:#ffffff;stroke:none"
   transform="translate(-247.90625,-147.9375)">
<path
   d="m 255.1875,155.1875 0,290.1875 290.15625,0 0,-290.1875 -290.15625,0 z"
   id="path13"
   inkscape:connector-curvature="0" />

</g>
<g
   clip-path="url(#clipId0)"
   id="g17"
   style="fill:#000000;stroke:none"
   transform="translate(-247.90625,-147.9375)">
<path
   d="m 247.90625,147.9375 0.44943,303.72955 c 73.30025,-0.0147 201.06442,1.09062 304.26932,0.95795 l 0,-304.6875 z m 14.53125,14.5 275.65625,0 0,275.6875 -275.65625,0 z"
   id="path19"
   inkscape:connector-curvature="0"
   sodipodi:nodetypes="cccccccccc" />



<path
   d="M 403.3125,183.5625 360.125,316.5 428,275.34375 l -26.3125,80.96875 -21.5625,-7 -11.7839,-3.61229 2.44015,12.01854 15.0625,70.8125 63.125,-56.84375 -33.5,-10.90625 38.375,-118.09375 L 386,283.84375 417.125,188.0625 z"
   id="path27"
   inkscape:connector-curvature="0"
   sodipodi:nodetypes="cccccccccccccc" />







</g>
</svg>