<?xml version="1.0" encoding="UTF-8" standalone="no"?>
<svg
   xmlns:dc="http://purl.org/dc/elements/1.1/"
   xmlns:cc="http://creativecommons.org/ns#"
   xmlns:rdf="http://www.w3.org/1999/02/22-rdf-syntax-ns#"
   xmlns:svg="http://www.w3.org/2000/svg"
   xmlns="http://www.w3.org/2000/svg"
   xmlns:sodipodi="http://sodipodi.sourceforge.net/DTD/sodipodi-0.dtd"
   xmlns:inkscape="http://www.inkscape.org/namespaces/inkscape"
   viewBox="0 0 129.07273 351.34839"
   version="1.1"
   xml:space="preserve"
   id="svg2"
   inkscape:version="0.48.3.1 r9886"
   width="100%"
   height="100%"
   sodipodi:docname="alkis3552.svg"
   style="fill-rule:evenodd;stroke-linecap:round;stroke-linejoin:round"><metadata
   id="metadata187"><rdf:RDF><cc:Work
       rdf:about=""><dc:format>image/svg+xml</dc:format><dc:type
         rdf:resource="http://purl.org/dc/dcmitype/StillImage" /></cc:Work></rdf:RDF></metadata><sodipodi:namedview
   pagecolor="#ffffff"
   bordercolor="#666666"
   borderopacity="1"
   objecttolerance="10"
   gridtolerance="10"
   guidetolerance="10"
   inkscape:pageopacity="0"
   inkscape:pageshadow="2"
   inkscape:window-width="1855"
   inkscape:window-height="1025"
   id="namedview185"
   showgrid="false"
   inkscape:zoom="2.2250293"
   inkscape:cx="70.358342"
   inkscape:cy="175.47339"
   inkscape:window-x="0"
   inkscape:window-y="33"
   inkscape:window-maximized="1"
   inkscape:current-layer="svg2" />
<defs
   id="defs4">
<clipPath
   id="clipId0">
<path
   d="M 0,600 800,600 800,0 0,0 z"
   id="path7"
   inkscape:connector-curvature="0" />
</clipPath>
</defs>
<g
   clip-path="url(#clipId0)"
   id="g9"
   style="fill:none;stroke:#000000;stroke-width:0.1"
   transform="translate(-335.62527,-124.125)" />
<g
   clip-path="url(#clipId0)"
   id="g11"
   style="fill:#000000;stroke:none"
   transform="translate(-335.62527,-124.125)">















































































<path
   d="m 382.71875,124.125 0,246.09375 c -0.073,0.0105 -0.14583,0.0198 -0.21875,0.0312 -19.13769,1.89095 -36.51262,15.30187 -43.28125,33.28125 -6.83172,17.02118 -3.74506,37.49721 7.75,51.78125 11.65119,15.16707 32.03859,22.89382 50.8125,19.28125 17.67643,-3.02588 33.24951,-15.80066 39.6875,-32.53125 6.82715,-16.79905 4.00683,-37.01667 -7.09375,-51.34375 -8.59956,-11.48445 -22.09073,-18.98177 -36.3125,-20.53125 l 0,-246.0625 -11.34375,0 z m 5.75,257.0625 c 7.77621,0.0385 15.49199,2.25255 22.0625,6.4375 13.51668,8.32735 21.29883,24.94937 18.9375,40.65625 -1.97002,16.0642 -14.32375,30.18003 -29.96875,34.3125 -15.32988,4.48572 -32.93914,-1.04203 -43,-13.4375 -10.01575,-11.80313 -12.42384,-29.34629 -5.9375,-43.40625 5.93552,-13.65948 19.73426,-23.33988 34.5625,-24.4375 1.10899,-0.084 2.23286,-0.13051 3.34375,-0.125 z"
   id="path171"
   inkscape:connector-curvature="0" />
</g>
<g
   clip-path="url(#clipId0)"
   id="g173"
   style="fill:none;stroke:#000000;stroke-width:0.25"
   transform="translate(-335.62527,-124.125)">
<polyline
   points="388.39,375.528 388.39,375.528 "
   id="polyline175" />
</g>
<g
   clip-path="url(#clipId0)"
   id="g177"
   style="fill:#000000;stroke:none"
   transform="translate(-335.62527,-124.125)">

<path
   d="m 458.413,133.385 6.285,9.407 -66.126,44.182 -20.364,0 z"
   id="path181"
   inkscape:connector-curvature="0" />
<path
   d="m 378.208,186.974 20.364,0 66.126,44.183 -6.285,9.406 z"
   id="path183"
   inkscape:connector-curvature="0" />
</g>
</svg>