<?xml version="1.0" standalone="no"?>
<!DOCTYPE svg PUBLIC "-//W3C//DTD SVG 1.1//EN"
 "http://www.w3.org/Graphics/SVG/1.1/DTD/svg11.dtd">
<!-- Created with svg_stack (http://github.com/astraw/svg_stack) -->
<svg xmlns:sodipodi="http://sodipodi.sourceforge.net/DTD/sodipodi-0.dtd" xmlns="http://www.w3.org/2000/svg" version="1.1" width="1998.75" height="528.75">
  <defs/>
  <g id="id0:id0" transform="matrix(1.25,0,0,1.25,0.0,0.0)"><g transform="translate(0.000000,423.000000) scale(0.100000,-0.100000)" fill="#00cccc" stroke="none">
<path d="M6800 4155 l0 -75 1190 0 1190 0 0 75 0 75 -1190 0 -1190 0 0 -75z"/>
<path d="M3400 3135 l0 -75 1190 0 1190 0 0 75 0 75 -1190 0 -1190 0 0 -75z"/>
<path d="M6800 3135 l0 -75 1190 0 1190 0 0 75 0 75 -1190 0 -1190 0 0 -75z"/>
<path d="M10200 3135 l0 -75 1195 0 1195 0 0 75 0 75 -1195 0 -1195 0 0 -75z"/>
<path d="M0 2115 l0 -75 1190 0 1190 0 0 75 0 75 -1190 0 -1190 0 0 -75z"/>
<path d="M3400 2115 l0 -75 1190 0 1190 0 0 75 0 75 -1190 0 -1190 0 0 -75z"/>
<path d="M6800 2115 l0 -75 1190 0 1190 0 0 75 0 75 -1190 0 -1190 0 0 -75z"/>
<path d="M10200 2115 l0 -75 1195 0 1195 0 0 75 0 75 -1195 0 -1195 0 0 -75z"/>
<path d="M13610 2115 l0 -75 1190 0 1190 0 0 75 0 75 -1190 0 -1190 0 0 -75z"/>
<path d="M3400 1100 l0 -80 1190 0 1190 0 0 80 0 80 -1190 0 -1190 0 0 -80z"/>
<path d="M6800 1100 l0 -80 1190 0 1190 0 0 80 0 80 -1190 0 -1190 0 0 -80z"/>
<path d="M10200 1100 l0 -80 1195 0 1195 0 0 80 0 80 -1195 0 -1195 0 0 -80z"/>
<path d="M6800 80 l0 -80 1190 0 1190 0 0 80 0 80 -1190 0 -1190 0 0 -80z"/>
</g>
</g>
  <g id="id1:id1" transform="matrix(1.25,0,0,1.25,0.0,0.0)"><g transform="translate(0.000000,423.000000) scale(0.100000,-0.100000)" fill="#ffffff" stroke="none">
</g>
</g>
</svg>
