<?xml version="1.0" standalone="no"?>
<!DOCTYPE svg PUBLIC "-//W3C//DTD SVG 1.1//EN"
 "http://www.w3.org/Graphics/SVG/1.1/DTD/svg11.dtd">
<!-- Created with svg_stack (http://github.com/astraw/svg_stack) -->
<svg xmlns:sodipodi="http://sodipodi.sourceforge.net/DTD/sodipodi-0.dtd" xmlns="http://www.w3.org/2000/svg" version="1.1" width="1995.0" height="1038.75">
  <defs/>
  <g id="id0:id0" transform="matrix(1.25,0,0,1.25,0.0,0.0)"><g transform="translate(0.000000,831.000000) scale(0.100000,-0.100000)" fill="#000000" stroke="none">
<path d="M7840 5521 c0 -2648 -1 -2790 -17 -2795 -10 -2 -67 -14 -128 -26 -135 -26 -225 -61 -383 -148 -233 -129 -399 -307 -529 -567 -54 -107 -91 -220 -123 -379 -76 -374 75 -852 366 -1153 l61 -63 -3543 0 -3544 0 0 -195 0 -195 7980 0 7980 0 0 195 0 195 -3544 0 -3543 0 67 69 c139 144 260 352 314 541 90 318 89 489 -5 810 -82 281 -314 580 -557 719 -164 93 -275 140 -385 162 l-106 22 30 61 c17 33 596 1229 1288 2656 l1257 2595 437 3 437 2 0 140 0 140 -1905 0 -1905 0 0 -2789z m2617 2502 c-3 -5 -528 -1086 -1167 -2403 -639 -1317 -1164 -2397 -1166 -2399 -2 -2 -4 1079 -4 2402 l0 2407 1171 0 c643 0 1168 -3 1166 -7z m-2245 -5604 c265 -62 452 -188 631 -423 63 -83 122 -213 159 -351 29 -105 35 -317 14 -425 -21 -101 -68 -244 -107 -321 -58 -116 -228 -300 -359 -389 -34 -23 -105 -60 -158 -81 l-95 -39 -317 0 -316 0 -89 36 c-129 52 -216 112 -335 233 -126 127 -176 199 -224 323 -67 177 -81 246 -81 418 0 129 4 169 23 240 63 236 175 416 347 559 137 114 253 172 430 217 127 31 349 33 477 3z"/>
</g>
</g>
  <g id="id1:id1" transform="matrix(1.25,0,0,1.25,0.0,0.0)"><g transform="translate(0.000000,831.000000) scale(0.100000,-0.100000)" fill="#ffffff" stroke="none">
</g>
</g>
</svg>
