<?xml version="1.0" standalone="no"?>
<!DOCTYPE svg PUBLIC "-//W3C//DTD SVG 1.1//EN"
 "http://www.w3.org/Graphics/SVG/1.1/DTD/svg11.dtd">
<!-- Created with svg_stack (http://github.com/astraw/svg_stack) -->
<svg xmlns:sodipodi="http://sodipodi.sourceforge.net/DTD/sodipodi-0.dtd" xmlns="http://www.w3.org/2000/svg" version="1.1" width="1623.75" height="1563.75">
  <defs/>
  <g id="id0:id0" transform="matrix(1.25,0,0,1.25,0.0,0.0)"><g transform="translate(0.000000,1251.000000) scale(0.100000,-0.100000)" fill="#00ff00" stroke="none">
<path d="M5915 12490 c-615 -52 -1230 -203 -1880 -462 -586 -233 -1250 -637 -1765 -1072 -345 -292 -755 -737 -1023 -1111 -816 -1139 -1247 -2460 -1247 -3825 0 -1542 544 -3023 1550 -4215 549 -651 1238 -1185 2107 -1634 l332 -171 2511 0 2511 0 336 176 c572 300 962 559 1383 917 378 322 703 675 1020 1107 325 444 545 836 743 1325 335 830 497 1641 497 2495 0 855 -158 1644 -497 2485 -195 482 -403 855 -743 1330 -272 380 -673 817 -1020 1112 -399 339 -736 564 -1285 858 -663 355 -1574 617 -2380 685 -300 25 -853 25 -1150 0z m965 -2235 c548 -51 1055 -197 1558 -449 145 -72 380 -219 592 -370 393 -279 850 -779 1098 -1201 358 -610 540 -1174 607 -1880 59 -627 -56 -1353 -312 -1969 -215 -517 -471 -904 -902 -1365 -218 -232 -704 -596 -990 -740 l-60 -31 -1976 0 -1976 0 -82 46 c-378 214 -647 414 -930 693 -472 464 -874 1120 -1060 1726 -277 904 -276 1717 5 2624 138 448 472 1051 777 1406 387 450 811 789 1322 1058 452 238 991 395 1544 451 180 19 595 19 785 1z"/>
</g>
</g>
  <g id="id1:id1" transform="matrix(1.25,0,0,1.25,0.0,0.0)"><g transform="translate(0.000000,1251.000000) scale(0.100000,-0.100000)" fill="#ffffff" stroke="none">
</g>
</g>
</svg>
