<?xml version="1.0" encoding="UTF-8" standalone="no"?>
<!-- Created with Inkscape (http://www.inkscape.org/) -->

<svg
   xmlns:dc="http://purl.org/dc/elements/1.1/"
   xmlns:cc="http://creativecommons.org/ns#"
   xmlns:rdf="http://www.w3.org/1999/02/22-rdf-syntax-ns#"
   xmlns:svg="http://www.w3.org/2000/svg"
   xmlns="http://www.w3.org/2000/svg"
   xmlns:inkscape="http://www.inkscape.org/namespaces/inkscape"
   version="1.1"
   width="100%"
   height="100%"
   viewBox="0 0 346.99444 347.20984"
   id="svg2"
   xml:space="preserve"
   style="fill-rule:evenodd;stroke-linecap:round;stroke-linejoin:round"><metadata
     id="metadata183"><rdf:RDF><cc:Work
         rdf:about=""><dc:format>image/svg+xml</dc:format><dc:type
           rdf:resource="http://purl.org/dc/dcmitype/StillImage" /></cc:Work></rdf:RDF></metadata><defs
     id="defs4"><clipPath
       id="clipId0"><path
         d="M 0,600 800,600 800,0 0,0 z"
         inkscape:connector-curvature="0"
         id="path7" /></clipPath></defs><g
     transform="translate(-228.15982,-125.49256)"
     clip-path="url(#clipId0)"
     id="g9"
     style="fill:none;stroke:#000000;stroke-width:0.1" /><path
     d="M 172.74643,0.00744273 C 115.00283,-0.08135727 58.38078,30.847413 27.55893,79.726193 -5.1628998,129.56491 -9.0764798,196.52745 17.59018,249.85119 c 25.58109,53.48878 80.36808,91.3827 139.4375,96.5 58.64823,6.07274 119.27373,-20.43983 154.5625,-67.6875 36.31016,-46.8622 45.60902,-112.87083 23.625,-167.9375 C 314.13085,54.948593 262.24229,12.467323 203.43393,2.6636927 193.3163,0.96219273 183.01592,-0.09990727 172.74643,0.00744273 z m 0.71875,37.18750027 c 49.25672,-0.30663 97.30388,28.2775 120.15625,71.968747 7.84923,14.23022 12.78595,29.83909 14.90625,45.84375 l -270.125,0 c 5.06246,-35.60457 24.21813,-69.231797 53.4375,-90.593747 23.35708,-17.60374 52.41334,-27.07806 81.625,-27.21875 z M 38.37143,192.19494 l 270.0625,0 c -3.27263,24.06707 -12.76975,47.25921 -28.25,66.1875 -32.73678,42.3879 -91.89319,61.57676 -143.28125,46.5 -49.85976,-13.21192 -89.5435,-57.20231 -97.78125,-108.09375 -0.27783,-1.52415 -0.52924,-3.06303 -0.75,-4.59375 z"
     inkscape:connector-curvature="0"
     id="path13"
     style="fill:#000000;stroke:none" /><g
     transform="translate(-228.15982,-125.49256)"
     clip-path="url(#clipId0)"
     id="g173"
     style="fill:none;stroke:#000000;stroke-width:0.25"><polyline
       points="401.638,144.074 401.638,144.074 "
       id="polyline175" /></g><g
     transform="translate(-228.15982,-125.49256)"
     clip-path="url(#clipId0)"
     id="g177"
     style="fill:#000000;stroke:none" /></svg>