<?xml version="1.0" encoding="UTF-8" standalone="no"?>
<!-- Created with Inkscape (http://www.inkscape.org/) -->

<svg
   xmlns:dc="http://purl.org/dc/elements/1.1/"
   xmlns:cc="http://creativecommons.org/ns#"
   xmlns:rdf="http://www.w3.org/1999/02/22-rdf-syntax-ns#"
   xmlns:svg="http://www.w3.org/2000/svg"
   xmlns="http://www.w3.org/2000/svg"
   xmlns:inkscape="http://www.inkscape.org/namespaces/inkscape"
   version="1.1"
   width="100%"
   height="100%"
   viewBox="0 0 248.8125 350.09375"
   id="svg2"
   xml:space="preserve"
   style="fill-rule:evenodd;stroke-linecap:round;stroke-linejoin:round"><metadata
     id="metadata27"><rdf:RDF><cc:Work
         rdf:about=""><dc:format>image/svg+xml</dc:format><dc:type
           rdf:resource="http://purl.org/dc/dcmitype/StillImage" /></cc:Work></rdf:RDF></metadata><defs
     id="defs4"><clipPath
       id="clipId0"><path
         d="M 0,600 800,600 800,0 0,0 z"
         inkscape:connector-curvature="0"
         id="path7" /></clipPath></defs><g
     transform="translate(-275.96875,-124.15625)"
     clip-path="url(#clipId0)"
     id="g9"
     style="fill:none;stroke:#000000;stroke-width:0.1" /><g
     transform="translate(-275.96875,-124.15625)"
     clip-path="url(#clipId0)"
     id="g11"
     style="fill:#00ff00;stroke:none"><path
       d="m 374.4375,124.15625 0,130.84375 13.9375,0 0,218.09375 15.71875,0 0,-218.09375 13.9375,0 0,-130.84375 -43.59375,0 z m 86.21875,109.625 -28.59375,238.375 15.59375,1.875 23.71875,-197.8125 40.5625,57.46875 12.84375,-9.0625 -64.125,-90.84375 z M 331.5,279.4375 275.96875,350.3125 288.3125,360 321.375,317.8125 344.84375,474.25 360.375,471.9375 331.5,279.4375 z"
       inkscape:connector-curvature="0"
       id="path13" /></g></svg>