<?xml version="1.0" encoding="UTF-8" standalone="no"?>
<svg
   xmlns:dc="http://purl.org/dc/elements/1.1/"
   xmlns:cc="http://creativecommons.org/ns#"
   xmlns:rdf="http://www.w3.org/1999/02/22-rdf-syntax-ns#"
   xmlns:svg="http://www.w3.org/2000/svg"
   xmlns="http://www.w3.org/2000/svg"
   xmlns:sodipodi="http://sodipodi.sourceforge.net/DTD/sodipodi-0.dtd"
   xmlns:inkscape="http://www.inkscape.org/namespaces/inkscape"
   viewBox="0 0 348.47909 348.7127"
   version="1.1"
   xml:space="preserve"
   id="svg45416"
   inkscape:version="0.48.3.1 r9886"
   width="100%"
   height="100%"
   sodipodi:docname="alkis3520.svg"
   style="fill-rule:evenodd;stroke-linecap:round;stroke-linejoin:round"><metadata
   id="metadata45599"><rdf:RDF><cc:Work
       rdf:about=""><dc:format>image/svg+xml</dc:format><dc:type
         rdf:resource="http://purl.org/dc/dcmitype/StillImage" /></cc:Work></rdf:RDF></metadata><sodipodi:namedview
   pagecolor="#ffffff"
   bordercolor="#666666"
   borderopacity="1"
   objecttolerance="10"
   gridtolerance="10"
   guidetolerance="10"
   inkscape:pageopacity="0"
   inkscape:pageshadow="2"
   inkscape:window-width="1855"
   inkscape:window-height="1025"
   id="namedview45597"
   showgrid="false"
   inkscape:zoom="1.5733333"
   inkscape:cx="181.96529"
   inkscape:cy="317.16562"
   inkscape:window-x="0"
   inkscape:window-y="33"
   inkscape:window-maximized="1"
   inkscape:current-layer="svg45416" />
<defs
   id="defs45418">
<clipPath
   id="clipId0">
<path
   d="M 0,600 800,600 800,0 0,0 z"
   id="path45421"
   inkscape:connector-curvature="0" />
</clipPath>



</defs>
<g
   clip-path="url(#clipId0)"
   id="g45423"
   style="fill:none;stroke:#000000;stroke-width:0.1"
   transform="translate(-224.39064,-125.84301)" />
<g
   clip-path="url(#clipId0)"
   id="g45425"
   style="fill:#000000;stroke:none"
   transform="translate(-224.39064,-125.84301)">
















































































</g>
<g
   clip-path="url(#clipId0)"
   id="g45587"
   style="fill:none;stroke:#000000;stroke-width:0.25"
   transform="translate(-224.39064,-125.84301)">

</g>
<path
   style="fill:#000000;stroke:none"
   d="M 173.82811,7.4414093e-4 C 116.06218,-0.17413586 59.312642,30.486854 28.221032,79.233994 -5.1509678,129.35303 -9.2532578,197.06674 17.662452,250.91176 c 25.69861,53.72487 80.72754,91.8025 140.064028,96.93933 59.23083,6.13567 120.42983,-20.88289 155.81597,-68.7796 35.94267,-47.03638 45.06037,-112.85441 23.11426,-167.8533 C 315.57826,55.527964 263.94878,12.918974 205.24625,2.8649141 191.45248,0.30729414 185.0535,0.35640414 173.82811,7.4414093e-4 z M 174.23436,19.719494 c 37.19728,0.0588 74.21845,13.88184 102.0625,38.59375 C 242.27603,92.334074 208.25519,126.35491 174.23436,160.37574 140.20311,126.34449 106.17186,92.313244 72.140612,58.281994 100.06852,33.587874 136.97999,19.790094 174.23436,19.719494 z M 58.171862,72.250744 c 34.03125,34.031246 68.062498,68.062496 102.093748,102.093746 -34.03125,34.03125 -68.062498,68.0625 -102.093748,102.09375 -35.42541,-39.63128 -47.72503,-98.0618 -31.35388,-148.6264 6.48263,-20.43412 17.23233,-39.435596 31.35388,-55.561096 z m 232.093748,0 c 37.06083,41.399346 48.7675,103.470106 28.96039,155.430656 -6.45378,17.885 -16.45999,34.45112 -28.96039,48.75684 -34.03125,-34.03125 -68.0625,-68.0625 -102.09375,-102.09375 34.03125,-34.03125 68.0625,-68.0625 102.09375,-102.093746 z M 174.23436,188.31324 c 34.02083,34.02083 68.04167,68.04167 102.0625,102.0625 -41.84017,37.57884 -104.9307,48.98985 -157.24471,28.29391 -17.19729,-6.43523 -33.097148,-16.19102 -46.911538,-28.26266 34.031248,-34.03125 68.062498,-68.0625 102.093748,-102.09375 z"
   id="path45595"
   inkscape:connector-curvature="0"
   sodipodi:nodetypes="cccccccccccccccccccccccccccc" />
</svg>