<?xml version="1.0" encoding="UTF-8" standalone="no"?>
<!-- Created with Inkscape (http://www.inkscape.org/) -->

<svg
   xmlns:dc="http://purl.org/dc/elements/1.1/"
   xmlns:cc="http://creativecommons.org/ns#"
   xmlns:rdf="http://www.w3.org/1999/02/22-rdf-syntax-ns#"
   xmlns:svg="http://www.w3.org/2000/svg"
   xmlns="http://www.w3.org/2000/svg"
   xmlns:inkscape="http://www.inkscape.org/namespaces/inkscape"
   version="1.1"
   width="100%"
   height="100%"
   viewBox="0 0 310.40625 384.90625"
   id="svg24351"
   xml:space="preserve"
   style="fill-rule:evenodd;stroke-linecap:round;stroke-linejoin:round"><metadata
     id="metadata24376"><rdf:RDF><cc:Work
         rdf:about=""><dc:format>image/svg+xml</dc:format><dc:type
           rdf:resource="http://purl.org/dc/dcmitype/StillImage" /></cc:Work></rdf:RDF></metadata><defs
     id="defs24353"><clipPath
       id="clipId0"><path
         d="M 0,600 800,600 800,0 0,0 z"
         inkscape:connector-curvature="0"
         id="path24356" /></clipPath></defs><g
     transform="translate(-245.5,-107.28125)"
     clip-path="url(#clipId0)"
     id="g24358"
     style="fill:none;stroke:#000000;stroke-width:0.1" /><g
     transform="translate(-245.5,-107.28125)"
     clip-path="url(#clipId0)"
     id="g24360"
     style="fill:#00ffff;stroke:none"><path
       d="m 400.71875,107.28125 -155.21875,74.5 0,310.40625 155.21875,0 155.1875,0 0,-310.40625 -155.1875,-74.5 z"
       inkscape:connector-curvature="0"
       id="path24368" /></g><g
     transform="translate(-245.5,-107.28125)"
     clip-path="url(#clipId0)"
     id="g24370"
     style="fill:#ffffff;stroke:none"><g
       transform="matrix(186.245,0,0,186.245,316.141,396.757)"
       id="text24372"
       style="font-size:1.39636004px;font-weight:bold;font-family:'Arial,\'sans-serif\''"><path
         d="m 0.88363409,-0.65658922 c -8.9e-7,0.0413641 -0.007046,0.081364 -0.0211363,0.11999969 -0.0136372,0.0381822 -0.0347735,0.0720457 -0.0634089,0.10159065 -0.0286371,0.0295458 -0.0650006,0.0531821 -0.10909063,0.0709089 -0.0440914,0.017273 -0.096364,0.0259094 -0.15681778,0.025909 l -0.23863574,0 0,0.33818095 -0.20113585,0 0,-0.96067934 0.4315898,0 c 0.0613629,9.6e-7 0.11454452,0.007501 0.15954504,0.0224999 0.0449992,0.0145463 0.0822717,0.0352281 0.1118179,0.0620453 0.0295446,0.026819 0.0513627,0.0588643 0.0654544,0.0961361 0.0145445,0.0372734 0.0218172,0.0784096 0.0218181,0.12340877 m -0.20249948,0.003409 c -6.8e-7,-0.0495446 -0.0150006,-0.0870445 -0.0449999,-0.11249971 -0.029546,-0.0259082 -0.0740913,-0.0388627 -0.13363602,-0.0388635 l -0.20795401,0 0,0.3115901 0.21340854,0 c 0.0299994,5e-7 0.0556811,-0.003863 0.0770453,-0.0115909 0.0218175,-0.007727 0.039772,-0.0186358 0.0538635,-0.0327272 0.0145448,-0.0140903 0.0252265,-0.0309084 0.0320454,-0.0504544 0.006817,-0.0199993 0.0102266,-0.0418174 0.0102273,-0.0654544"
         inkscape:connector-curvature="0"
         id="path3764"
         style="font-size:1.39636004px;font-weight:bold;font-family:'Arial,\'sans-serif\''" /></g></g></svg>