<?xml version="1.0" standalone="no"?>
<!DOCTYPE svg PUBLIC "-//W3C//DTD SVG 1.1//EN"
 "http://www.w3.org/Graphics/SVG/1.1/DTD/svg11.dtd">
<!-- Created with svg_stack (http://github.com/astraw/svg_stack) -->
<svg xmlns:sodipodi="http://sodipodi.sourceforge.net/DTD/sodipodi-0.dtd" xmlns="http://www.w3.org/2000/svg" version="1.1" width="1596.25" height="1597.5">
  <defs/>
  <g id="id0:id0" transform="matrix(1.25,0,0,1.25,0.0,0.0)"><g transform="translate(0.000000,1278.000000) scale(0.100000,-0.100000)" fill="#000000" stroke="none">
<path d="M3760 6395 l0 -3835 775 0 775 0 0 1630 0 1630 1600 0 1600 0 0 650 0 650 -1600 0 -1600 0 0 905 0 905 1855 0 1855 0 0 650 0 650 -2630 0 -2630 0 0 -3835z"/>
</g>
</g>
  <g id="id1:id1" transform="matrix(1.25,0,0,1.25,0.0,0.0)"><g transform="translate(0.000000,1278.000000) scale(0.100000,-0.100000)" fill="#ffffff" stroke="none">
<path d="M0 6390 l0 -6390 6385 0 6385 0 0 6390 0 6390 -6385 0 -6385 0 0 -6390z m9020 3190 l0 -650 -1855 0 -1855 0 0 -905 0 -905 1600 0 1600 0 0 -650 0 -650 -1600 0 -1600 0 0 -1630 0 -1630 -775 0 -775 0 0 3835 0 3835 2630 0 2630 0 0 -650z"/>
</g>
</g>
</svg>
