<?xml version="1.0" encoding="UTF-8" standalone="no"?>
<!-- Created with Inkscape (http://www.inkscape.org/) -->

<svg
   xmlns:dc="http://purl.org/dc/elements/1.1/"
   xmlns:cc="http://creativecommons.org/ns#"
   xmlns:rdf="http://www.w3.org/1999/02/22-rdf-syntax-ns#"
   xmlns:svg="http://www.w3.org/2000/svg"
   xmlns="http://www.w3.org/2000/svg"
   xmlns:inkscape="http://www.inkscape.org/namespaces/inkscape"
   version="1.1"
   width="100%"
   height="100%"
   viewBox="0 0 408.46875 408.4375"
   id="svg24523"
   xml:space="preserve"
   style="fill-rule:evenodd;stroke-linecap:round;stroke-linejoin:round"><metadata
     id="metadata24876"><rdf:RDF><cc:Work
         rdf:about=""><dc:format>image/svg+xml</dc:format><dc:type
           rdf:resource="http://purl.org/dc/dcmitype/StillImage" /></cc:Work></rdf:RDF></metadata><defs
     id="defs24525"><clipPath
       id="clipId0"><path
         d="M 0,600 800,600 800,0 0,0 z"
         inkscape:connector-curvature="0"
         id="path24528" /></clipPath></defs><g
     transform="translate(-196.125,-96.15625)"
     clip-path="url(#clipId0)"
     id="g24530"
     style="fill:none;stroke:#000000;stroke-width:0.1" /><g
     transform="translate(-196.125,-96.15625)"
     clip-path="url(#clipId0)"
     id="g24532"
     style="fill:#ffffff;stroke:none"><path
       d="m 400.34375,105.875 -15.25,0.59375 -15.15625,1.8125 -15,2.96875 -14.6875,4.15625 -14.3125,5.28125 -13.875,6.375 -13.34375,7.46875 -12.6875,8.5 -12,9.4375 -11.21875,10.375 -10.34375,11.21875 -9.46875,12 -8.46875,12.6875 -7.46875,13.3125 -6.40625,13.875 -5.28125,14.34375 -4.125,14.6875 -3,14.96875 -1.78125,15.1875 -0.59375,15.25 0.59375,15.25 1.78125,15.1875 3,14.96875 4.125,14.6875 5.28125,14.34375 6.40625,13.875 L 234.53125,402 243,414.6875 l 9.46875,12 10.34375,11.21875 11.21875,10.375 12,9.4375 12.6875,8.5 13.34375,7.4375 13.875,6.40625 14.3125,5.28125 14.6875,4.15625 15,2.96875 15.15625,1.8125 15.25,0.59375 15.28125,-0.59375 15.15625,-1.8125 L 445.75,489.5 l 14.71875,-4.15625 14.3125,-5.28125 13.875,-6.40625 13.3125,-7.4375 12.71875,-8.5 11.96875,-9.4375 11.21875,-10.375 10.375,-11.21875 9.46875,-12 8.46875,-12.6875 7.46875,-13.3125 6.375,-13.875 5.3125,-14.34375 4.125,-14.6875 3,-14.96875 1.78125,-15.1875 0.59375,-15.25 -0.59375,-15.25 -1.78125,-15.1875 -3,-14.96875 -4.125,-14.6875 -5.3125,-14.34375 -6.375,-13.875 -7.46875,-13.3125 -8.46875,-12.6875 -9.46875,-12 -10.375,-11.21875 -11.21875,-10.375 -11.96875,-9.4375 -12.71875,-8.5 -13.3125,-7.46875 -13.875,-6.375 -14.3125,-5.28125 L 445.75,111.25 430.78125,108.28125 415.625,106.46875 400.34375,105.875 z"
       inkscape:connector-curvature="0"
       id="path24688" /></g><g
     transform="translate(-196.125,-96.15625)"
     clip-path="url(#clipId0)"
     id="g24690"
     style="fill:#000000;stroke:none"><path
       d="m 399.96875,96.15625 -15.625,0.625 -15.9375,1.875 -15.71875,3.125 -15.4375,4.375 -15.0625,5.53125 -14.5625,6.71875 -13.96875,7.84375 -13.34375,8.90625 -12.59375,9.90625 -11.78125,10.90625 -10.875,11.78125 -9.9375,12.59375 -8.90625,13.3125 -7.84375,14 -6.6875,14.5625 -5.5625,15.03125 -4.34375,15.4375 -3.125,15.75 -1.90625,15.90625 -0.625,16.03125 0.625,16.03125 1.90625,15.90625 3.125,15.75 4.34375,15.40625 5.5625,15.0625 6.6875,14.5625 7.84375,14 8.90625,13.3125 9.9375,12.59375 10.875,11.78125 11.78125,10.875 12.59375,9.9375 13.34375,8.90625 13.96875,7.84375 14.5625,6.71875 15.0625,5.53125 15.4375,4.375 15.71875,3.125 15.9375,1.875 16,0.625 16.03125,-0.625 15.9375,-1.875 15.71875,-3.125 15.4375,-4.375 15.03125,-5.53125 14.5625,-6.71875 14,-7.84375 13.34375,-8.90625 12.59375,-9.9375 11.78125,-10.875 10.875,-11.78125 9.9375,-12.59375 8.90625,-13.3125 7.8125,-14 6.71875,-14.5625 5.5625,-15.0625 4.34375,-15.40625 3.125,-15.75 1.875,-15.90625 0.65625,-16.03125 -0.65625,-16.03125 -1.875,-15.90625 -3.125,-15.75 -4.34375,-15.4375 -5.5625,-15.03125 -6.71875,-14.5625 -7.8125,-14 -8.90625,-13.3125 -9.9375,-12.59375 -10.875,-11.78125 L 533,145.0625 520.40625,135.15625 507.0625,126.25 l -14,-7.84375 -14.5625,-6.71875 -15.03125,-5.53125 -15.4375,-4.375 -15.71875,-3.125 -15.9375,-1.875 -16.40625,-0.46875 0,-0.15625 z m 0.375,19.4375 14.5,0.59375 14.40625,1.6875 14.25,2.84375 13.9375,3.9375 13.625,5.03125 13.1875,6.0625 12.65625,7.09375 12.0625,8.0625 11.375,8.96875 10.65625,9.84375 9.84375,10.65625 9,11.40625 8.0625,12.0625 7.0625,12.65625 6.09375,13.15625 5,13.625 L 580,257.25 l 2.84375,14.21875 1.71875,14.40625 0.5625,14.5 -0.5625,14.5 -1.71875,14.40625 L 580,343.5 l -3.9375,13.96875 -5,13.59375 -6.09375,13.1875 -7.0625,12.65625 -8.0625,12.0625 -9,11.40625 -9.84375,10.65625 -10.65625,9.84375 -11.375,8.96875 -12.0625,8.0625 L 484.25,465 l -13.1875,6.0625 -13.625,5.03125 -13.9375,3.9375 -14.25,2.84375 -14.40625,1.6875 -14.5,0.5625 -14.5,-0.5625 L 371.4375,482.875 357.21875,480.03125 343.25,476.09375 329.65625,471.0625 316.46875,465 303.8125,457.90625 291.75,449.84375 280.375,440.875 269.71875,431.03125 259.875,420.375 l -9,-11.40625 -8.0625,-12.0625 L 235.71875,384.25 229.65625,371.0625 224.625,357.46875 220.6875,343.5 217.875,329.28125 216.15625,314.875 l -0.5625,-14.5 0.5625,-14.5 1.71875,-14.40625 2.8125,-14.21875 3.9375,-13.96875 5.03125,-13.625 6.0625,-13.15625 7.09375,-12.65625 8.0625,-12.0625 9,-11.40625 9.84375,-10.65625 10.65625,-9.84375 11.375,-8.96875 12.0625,-8.0625 12.65625,-7.09375 13.1875,-6.0625 13.59375,-5.03125 13.96875,-3.9375 14.21875,-2.84375 14.40625,-1.6875 14.5,-0.59375 z M 404.4375,143.9375 346.5625,322.09375 437.5,266.9375 402.25,375.5 373.34375,366.09375 356.75,360.6875 360.84375,377.375 381,472.3125 465.65625,396.09375 420.71875,381.5 472.1875,223.15625 l -90.96875,55.15625 41.71875,-128.375 -18.5,-6 z"
       inkscape:connector-curvature="0"
       id="path24850" /></g><g
     transform="translate(-196.125,-96.15625)"
     clip-path="url(#clipId0)"
     id="g24852"
     style="fill:none;stroke:#000000;stroke-width:0.25"><polyline
       points="400.356,105.878 400.356,105.878 "
       id="polyline24854" /></g><g
     transform="translate(-196.125,-96.15625)"
     clip-path="url(#clipId0)"
     id="g24856"
     style="fill:#000000;stroke:none" /></svg>