<?xml version="1.0" encoding="UTF-8" standalone="no"?>
<svg
   xmlns:dc="http://purl.org/dc/elements/1.1/"
   xmlns:cc="http://creativecommons.org/ns#"
   xmlns:rdf="http://www.w3.org/1999/02/22-rdf-syntax-ns#"
   xmlns:svg="http://www.w3.org/2000/svg"
   xmlns="http://www.w3.org/2000/svg"
   xmlns:sodipodi="http://sodipodi.sourceforge.net/DTD/sodipodi-0.dtd"
   xmlns:inkscape="http://www.inkscape.org/namespaces/inkscape"
   viewBox="0 0 782.54898 130.59876"
   version="1.1"
   xml:space="preserve"
   id="svg67410"
   inkscape:version="0.48.3.1 r9886"
   width="100%"
   height="100%"
   sodipodi:docname="alkis3413.svg"
   style="fill-rule:evenodd;stroke-linecap:round;stroke-linejoin:round"><metadata
   id="metadata67741"><rdf:RDF><cc:Work
       rdf:about=""><dc:format>image/svg+xml</dc:format><dc:type
         rdf:resource="http://purl.org/dc/dcmitype/StillImage" /></cc:Work></rdf:RDF></metadata><sodipodi:namedview
   pagecolor="#ffffff"
   bordercolor="#666666"
   borderopacity="1"
   objecttolerance="10"
   gridtolerance="10"
   guidetolerance="10"
   inkscape:pageopacity="0"
   inkscape:pageshadow="2"
   inkscape:window-width="1855"
   inkscape:window-height="1025"
   id="namedview67739"
   showgrid="false"
   inkscape:zoom="0.39333333"
   inkscape:cx="399.98425"
   inkscape:cy="64.482114"
   inkscape:window-x="0"
   inkscape:window-y="33"
   inkscape:window-maximized="1"
   inkscape:current-layer="svg67410" />
<defs
   id="defs67412">
<clipPath
   id="clipId0">
<path
   d="M 0,600 800,600 800,0 0,0 z"
   id="path67415"
   inkscape:connector-curvature="0" />
</clipPath>
</defs>
<g
   clip-path="url(#clipId0)"
   id="g67417"
   style="fill:none;stroke:#000000;stroke-width:0.1"
   transform="translate(-10.185236,-233.88336)" />
<g
   clip-path="url(#clipId0)"
   id="g67419"
   style="fill:#00ff00;stroke:none"
   transform="translate(-10.185236,-233.88336)">



























































































































































<path
   d="m 75.53125,233.90625 c -37.887317,-1.07652 -70.6327416,35.99203 -64.632709,73.46347 3.602089,37.87895 44.945107,65.65186 81.378766,54.70225 37.087273,-8.61675 59.045843,-53.21403 43.472693,-87.91572 -9.76436,-24.02905 -34.27944,-40.39849 -60.21875,-40.25 z m 651.90625,0 c -37.88181,-1.07296 -70.62579,35.99886 -64.61366,73.46119 3.58578,37.88385 44.93188,65.64679 81.36042,54.70704 37.08911,-8.61789 59.06987,-53.21198 43.47199,-87.91823 -9.70891,-24.02195 -34.32287,-40.4068 -60.21875,-40.25 z"
   id="path67731"
   inkscape:connector-curvature="0" />
</g>

</svg>