<?xml version="1.0" standalone="no"?>
<!DOCTYPE svg PUBLIC "-//W3C//DTD SVG 1.1//EN"
 "http://www.w3.org/Graphics/SVG/1.1/DTD/svg11.dtd">
<!-- Created with svg_stack (http://github.com/astraw/svg_stack) -->
<svg xmlns:sodipodi="http://sodipodi.sourceforge.net/DTD/sodipodi-0.dtd" xmlns="http://www.w3.org/2000/svg" version="1.1" width="1596.25" height="1596.25">
  <defs/>
  <g id="id0:id0" transform="matrix(1.25,0,0,1.25,0.0,0.0)"><g transform="translate(0.000000,1277.000000) scale(0.100000,-0.100000)" fill="#00ffff" stroke="none">
<path d="M5985 12760 c-558 -31 -1307 -190 -1820 -388 -655 -253 -1206 -562 -1740 -976 -477 -370 -981 -917 -1344 -1461 -381 -569 -641 -1132 -841 -1820 -142 -487 -205 -896 -230 -1476 -21 -485 23 -1075 111 -1504 241 -1172 765 -2195 1578 -3084 352 -384 689 -673 1135 -970 418 -279 842 -495 1351 -689 418 -160 935 -283 1455 -349 l285 -36 455 0 455 0 285 36 c522 66 1053 192 1465 349 653 248 1269 592 1750 978 1079 863 1809 1960 2185 3280 327 1149 327 2341 0 3465 -393 1350 -1105 2421 -2185 3286 -478 382 -1079 719 -1730 970 -409 158 -967 292 -1480 355 -260 32 -306 34 -635 38 -195 2 -422 1 -505 -4z m545 -2002 c95 -23 220 -116 280 -210 61 -94 83 -179 78 -300 -4 -88 -9 -115 -37 -183 -28 -67 -45 -91 -103 -147 -89 -86 -150 -120 -270 -148 -97 -24 -98 -24 -175 -6 -223 51 -353 173 -412 387 -27 96 -26 134 2 240 78 293 334 440 637 367z m-2533 -860 c42 -77 64 -129 68 -163 3 -27 20 -109 36 -181 l30 -130 112 -48 c193 -83 260 -131 389 -275 62 -69 161 -175 219 -236 84 -86 139 -158 258 -335 175 -261 218 -321 226 -321 3 0 184 236 401 523 323 427 418 546 517 646 82 82 143 135 185 159 l63 35 102 -7 c94 -6 110 -11 209 -57 l107 -51 75 -113 c42 -64 83 -141 95 -176 11 -35 79 -247 151 -473 72 -225 164 -509 205 -630 81 -245 80 -238 99 -388 7 -59 16 -111 20 -114 3 -3 61 6 128 20 115 25 140 27 375 27 l252 0 78 -29 c43 -16 94 -32 113 -36 57 -12 248 -138 355 -234 89 -80 105 -91 148 -96 56 -8 139 1 206 21 25 7 63 14 83 14 55 0 314 -38 383 -57 90 -24 229 -106 322 -190 76 -70 87 -85 156 -217 74 -141 75 -143 100 -297 35 -208 126 -461 226 -629 38 -63 76 -131 86 -150 38 -76 199 -268 302 -361 96 -87 115 -100 220 -145 l115 -49 -340 -3 -340 -2 -129 58 c-70 33 -159 74 -197 93 l-68 34 -113 170 c-62 94 -124 194 -139 223 -31 61 -57 178 -86 392 -33 250 -47 313 -91 407 -22 48 -49 111 -60 138 -17 45 -33 63 -145 153 l-127 102 -143 0 -144 0 6 -27 c3 -16 15 -62 25 -103 13 -52 22 -140 29 -285 6 -115 12 -225 14 -243 3 -20 -12 -91 -40 -190 -25 -86 -58 -200 -73 -253 -15 -52 -57 -158 -93 -235 -91 -191 -98 -221 -98 -401 1 -138 3 -159 39 -303 51 -203 125 -370 210 -473 l60 -73 -25 -79 c-14 -44 -66 -210 -115 -369 l-89 -289 36 -141 c19 -78 53 -186 75 -242 l41 -101 -52 -102 -51 -103 25 -76 c20 -60 26 -97 26 -167 l0 -91 -67 -66 -68 -67 -171 -7 -170 -7 -108 49 -107 48 116 115 115 116 -180 15 -181 15 58 70 c33 39 114 142 181 231 l122 160 0 175 0 175 -85 419 c-68 330 -97 452 -137 570 -73 216 -165 390 -291 550 -56 72 -136 174 -177 227 -89 113 -319 372 -335 376 -6 1 -68 -26 -138 -62 -159 -82 -345 -138 -777 -237 -296 -67 -329 -73 -545 -90 -126 -10 -326 -18 -442 -18 l-213 -1 -25 -51 c-22 -43 -32 -95 -65 -352 -40 -306 -59 -575 -81 -1102 -13 -323 -10 -378 23 -470 46 -125 45 -133 -11 -216 l-50 -74 28 -50 c15 -27 44 -79 64 -115 l36 -65 -46 -60 c-25 -33 -58 -81 -74 -106 l-29 -47 -139 -7 -138 -7 -59 -119 -58 -119 -279 0 c-262 0 -277 1 -268 18 6 9 44 64 86 122 42 58 91 128 110 156 18 28 79 94 135 147 l103 98 34 112 c31 99 36 132 44 277 4 91 11 185 14 209 7 43 -8 511 -25 821 -5 93 -22 244 -39 345 -17 99 -39 297 -51 440 -37 470 -31 436 -81 515 -24 38 -80 122 -124 187 -62 91 -96 155 -148 280 l-67 162 16 167 c9 97 14 230 12 318 l-3 151 -47 100 c-40 87 -132 313 -221 550 -30 78 -116 374 -172 595 -21 80 -41 149 -45 153 -10 11 -189 -61 -220 -88 -14 -12 -41 -32 -60 -45 -19 -13 -79 -62 -133 -109 -81 -71 -107 -101 -148 -173 -62 -106 -156 -194 -254 -238 -93 -42 -136 -40 -203 9 -121 87 -166 197 -139 339 11 58 24 86 74 160 34 49 71 109 83 133 13 24 31 54 41 67 10 13 32 60 49 105 17 45 51 127 75 182 37 87 45 118 58 230 10 84 28 169 50 240 31 99 40 115 87 165 29 30 71 77 92 104 l39 49 -44 46 c-25 25 -59 75 -77 110 l-31 63 21 72 c22 74 99 246 110 246 3 0 16 -21 29 -47 40 -85 140 -228 171 -247 17 -10 60 -40 94 -66 43 -33 85 -55 133 -69 86 -26 85 -26 73 2 -5 12 -16 50 -25 85 -18 72 -15 89 46 247 37 95 41 102 81 122 24 12 48 22 53 22 6 1 38 -50 72 -111z"/>
<path d="M5940 8118 c-113 -155 -208 -286 -212 -293 -5 -7 79 -58 243 -148 137 -75 254 -137 259 -137 5 0 92 39 194 87 179 84 185 88 171 107 -8 12 -110 166 -227 343 -117 178 -215 323 -218 323 -3 -1 -97 -127 -210 -282z"/>
</g>
</g>
  <g id="id1:id1" transform="matrix(1.25,0,0,1.25,0.0,0.0)"><g transform="translate(0.000000,1277.000000) scale(0.100000,-0.100000)" fill="#ffffff" stroke="none">
<path d="M6286 10769 c-188 -29 -338 -174 -393 -378 -28 -106 -29 -144 -2 -240 59 -214 189 -336 412 -387 77 -18 78 -18 175 6 120 28 181 62 270 148 58 56 75 80 103 147 28 68 33 95 37 183 4 87 1 113 -18 173 -41 127 -128 232 -250 301 -80 45 -221 65 -334 47z"/>
<path d="M3872 9987 c-40 -20 -44 -27 -81 -122 -61 -158 -64 -175 -46 -247 9 -35 20 -73 25 -85 12 -28 13 -28 -73 -2 -48 14 -90 36 -133 69 -34 26 -77 56 -94 66 -31 19 -131 162 -171 247 -13 26 -26 47 -29 47 -11 0 -88 -172 -110 -246 l-21 -72 31 -63 c18 -35 52 -85 77 -110 l44 -46 -39 -49 c-21 -27 -63 -74 -92 -104 -47 -50 -56 -66 -87 -165 -22 -71 -40 -156 -50 -240 -13 -112 -21 -143 -58 -230 -24 -55 -58 -137 -75 -182 -17 -45 -39 -92 -49 -105 -10 -13 -28 -43 -41 -67 -12 -24 -49 -84 -83 -133 -50 -74 -63 -102 -74 -160 -27 -142 18 -252 139 -339 67 -49 110 -51 203 -9 98 44 192 132 254 238 41 72 67 102 148 173 54 47 114 96 133 109 19 13 46 33 60 45 31 27 210 99 220 88 4 -4 24 -73 45 -153 56 -221 142 -517 172 -595 89 -237 181 -463 221 -550 l47 -100 3 -151 c2 -88 -3 -221 -12 -318 l-16 -167 67 -162 c52 -125 86 -189 148 -280 44 -65 100 -149 124 -187 50 -79 44 -45 81 -515 12 -143 34 -341 51 -440 17 -101 34 -252 39 -345 17 -310 32 -778 25 -821 -3 -24 -10 -118 -14 -209 -8 -145 -13 -178 -44 -277 l-34 -112 -103 -98 c-56 -53 -117 -119 -135 -147 -19 -28 -68 -98 -110 -156 -42 -58 -80 -113 -86 -122 -9 -17 6 -18 268 -18 l279 0 58 119 59 119 138 7 139 7 29 47 c16 25 49 73 74 106 l46 60 -36 65 c-20 36 -49 88 -64 115 l-28 50 50 74 c56 83 57 91 11 216 -33 92 -36 147 -23 470 22 527 41 796 81 1102 33 257 43 309 65 352 l25 51 213 1 c116 0 316 8 442 18 216 17 249 23 545 90 432 99 618 155 777 237 70 36 132 63 138 62 16 -4 246 -263 335 -376 41 -53 121 -155 177 -227 126 -160 218 -334 291 -550 40 -118 69 -240 137 -570 l85 -419 0 -175 0 -175 -122 -160 c-67 -89 -148 -192 -181 -231 l-58 -70 181 -15 180 -15 -115 -116 -116 -115 107 -48 108 -49 170 7 171 7 68 67 67 66 0 91 c0 70 -6 107 -26 167 l-25 76 51 103 52 102 -41 101 c-22 56 -56 164 -75 242 l-36 141 89 289 c49 159 101 325 115 369 l25 79 -60 73 c-85 103 -159 270 -210 473 -36 144 -38 165 -39 303 0 180 7 210 98 401 36 77 78 183 93 235 15 53 48 167 73 253 28 99 43 170 40 190 -2 18 -8 128 -14 243 -7 145 -16 233 -29 285 -10 41 -22 87 -25 103 l-6 27 144 0 143 0 127 -102 c112 -90 128 -108 145 -153 11 -27 38 -90 60 -138 44 -94 58 -157 91 -407 29 -214 55 -331 86 -392 15 -29 77 -129 139 -223 l113 -170 68 -34 c38 -19 127 -60 197 -93 l129 -58 340 2 340 3 -115 49 c-105 45 -124 58 -220 145 -103 93 -264 285 -302 361 -10 19 -48 87 -86 150 -100 168 -191 421 -226 629 -25 154 -26 156 -100 297 -69 132 -80 147 -156 217 -93 84 -232 166 -322 190 -69 19 -328 57 -383 57 -20 0 -58 -7 -83 -14 -67 -20 -150 -29 -206 -21 -43 5 -59 16 -148 96 -107 96 -298 222 -355 234 -19 4 -70 20 -113 36 l-78 29 -252 0 c-235 0 -260 -2 -375 -27 -67 -14 -125 -23 -128 -20 -4 3 -13 55 -20 114 -19 150 -18 143 -99 388 -41 121 -133 405 -205 630 -72 226 -140 438 -151 473 -12 35 -53 112 -95 176 l-75 113 -107 51 c-99 46 -115 51 -209 57 l-102 7 -63 -35 c-42 -24 -103 -77 -185 -159 -99 -100 -194 -219 -517 -646 -217 -287 -398 -523 -401 -523 -8 0 -51 60 -226 321 -119 177 -174 249 -258 335 -58 61 -157 167 -219 236 -129 144 -196 192 -389 275 l-112 48 -30 130 c-16 72 -33 154 -36 181 -7 53 -120 276 -140 274 -5 0 -29 -10 -53 -22z m2496 -1910 c117 -177 219 -331 227 -343 14 -19 8 -23 -171 -107 -102 -48 -189 -87 -194 -87 -5 0 -122 62 -259 137 -164 90 -248 141 -243 148 19 32 418 574 422 575 3 0 101 -145 218 -323z"/>
</g>
</g>
</svg>
