<?xml version="1.0" standalone="no"?>
<!DOCTYPE svg PUBLIC "-//W3C//DTD SVG 1.1//EN"
 "http://www.w3.org/Graphics/SVG/1.1/DTD/svg11.dtd">
<!-- Created with svg_stack (http://github.com/astraw/svg_stack) -->
<svg xmlns:sodipodi="http://sodipodi.sourceforge.net/DTD/sodipodi-0.dtd" xmlns="http://www.w3.org/2000/svg" version="1.1" width="1581.25" height="1581.25">
  <defs/>
  <g id="id0:id0" transform="matrix(1.25,0,0,1.25,0.0,0.0)"><g transform="translate(0.000000,1265.000000) scale(0.100000,-0.100000)" fill="#000000" stroke="none">
<path d="M5935 12640 c-529 -29 -1275 -186 -1765 -371 -545 -206 -915 -395 -1375 -702 -801 -535 -1510 -1304 -1984 -2154 -325 -583 -578 -1267 -685 -1850 -161 -876 -161 -1604 0 -2478 136 -738 506 -1633 937 -2265 295 -433 673 -875 976 -1144 559 -495 1047 -822 1631 -1094 568 -264 1265 -458 1955 -543 257 -32 266 -33 700 -33 435 0 443 1 705 33 676 82 1381 279 1950 543 585 273 1072 599 1633 1096 332 294 649 666 974 1142 431 632 801 1527 937 2265 161 874 161 1602 0 2478 -53 288 -133 570 -271 952 -208 577 -548 1185 -963 1725 -355 463 -913 979 -1435 1327 -457 304 -770 467 -1305 674 -439 171 -970 301 -1485 365 -259 31 -306 34 -630 38 -192 2 -417 1 -500 -4z m970 -1384 c763 -84 1534 -368 2190 -806 400 -268 866 -700 1147 -1065 214 -279 362 -522 578 -955 150 -300 310 -785 375 -1133 80 -433 113 -839 95 -1166 -53 -960 -323 -1788 -842 -2576 -286 -434 -608 -780 -1068 -1147 -469 -373 -1088 -688 -1715 -871 -210 -61 -424 -102 -757 -147 -211 -29 -239 -30 -578 -30 -337 0 -367 2 -580 30 -472 62 -779 136 -1145 275 -636 243 -1117 536 -1646 1007 -321 285 -731 804 -961 1218 -333 597 -510 1142 -605 1855 -24 186 -26 226 -26 580 0 354 2 394 27 582 58 443 124 716 276 1148 106 300 339 751 531 1030 323 469 634 807 1044 1135 495 397 1149 730 1735 884 401 106 741 162 1095 180 188 10 617 -5 830 -28z"/>
</g>
</g>
  <g id="id1:id1" transform="matrix(1.25,0,0,1.25,0.0,0.0)"><g transform="translate(0.000000,1265.000000) scale(0.100000,-0.100000)" fill="#ffffff" stroke="none">
<path d="M6075 11284 c-759 -39 -1531 -261 -2177 -625 -449 -254 -877 -592 -1225 -971 -239 -260 -527 -657 -670 -923 -171 -318 -265 -519 -333 -710 -152 -432 -218 -705 -276 -1148 -25 -188 -27 -228 -27 -582 0 -354 2 -394 26 -580 95 -713 272 -1258 605 -1855 230 -414 640 -933 961 -1218 529 -471 1010 -764 1646 -1007 366 -139 673 -213 1145 -275 213 -28 243 -30 580 -30 339 0 367 1 578 30 333 45 547 86 757 147 627 183 1246 498 1715 871 460 367 782 713 1068 1147 519 788 789 1616 842 2576 18 327 -15 733 -95 1166 -65 348 -225 833 -375 1133 -216 433 -364 676 -578 955 -281 365 -747 797 -1147 1065 -656 438 -1427 722 -2190 806 -213 23 -642 38 -830 28z"/>
</g>
</g>
</svg>
