<?xml version="1.0" standalone="no"?>
<!DOCTYPE svg PUBLIC "-//W3C//DTD SVG 1.1//EN"
 "http://www.w3.org/Graphics/SVG/1.1/DTD/svg11.dtd">
<!-- Created with svg_stack (http://github.com/astraw/svg_stack) -->
<svg xmlns:sodipodi="http://sodipodi.sourceforge.net/DTD/sodipodi-0.dtd" xmlns="http://www.w3.org/2000/svg" version="1.1" width="1593.75" height="1593.75">
  <defs/>
  <g id="id0:id0" transform="matrix(1.25,0,0,1.25,0.0,0.0)"><g transform="translate(0.000000,1275.000000) scale(0.100000,-0.100000)" fill="#000000" stroke="none">
<path d="M5975 12740 c-545 -30 -1318 -195 -1820 -389 -650 -250 -1185 -551 -1723 -969 -485 -377 -987 -922 -1351 -1467 -404 -605 -662 -1164 -836 -1810 -322 -1195 -321 -2265 0 -3460 252 -935 751 -1825 1454 -2594 567 -620 1220 -1095 2006 -1461 575 -268 1289 -468 1960 -551 257 -32 265 -33 705 -33 440 0 448 1 710 33 840 102 1688 376 2410 779 863 482 1625 1187 2179 2017 354 530 683 1241 836 1810 321 1195 322 2266 0 3460 -77 286 -202 619 -357 956 -416 900 -1029 1676 -1833 2320 -490 391 -1063 713 -1730 971 -416 160 -958 291 -1470 354 -260 32 -305 34 -635 38 -195 2 -422 1 -505 -4z m1090 -505 c679 -90 1252 -251 1774 -499 737 -350 1413 -842 1869 -1360 376 -426 634 -781 811 -1113 276 -520 425 -883 536 -1302 111 -423 195 -930 211 -1268 l7 -153 -2517 0 c-2005 0 -2517 3 -2520 13 -2 6 -15 50 -28 97 -36 133 -156 306 -281 406 -101 80 -290 170 -387 185 -95 15 -339 6 -400 -14 -77 -26 -222 -100 -291 -149 -142 -102 -267 -281 -313 -448 -10 -36 -20 -71 -22 -77 -3 -10 -515 -13 -2520 -13 l-2517 0 7 153 c34 740 229 1516 545 2170 305 632 521 955 1012 1513 283 320 709 684 1079 920 849 541 1567 805 2555 939 239 33 241 33 685 34 l445 1 260 -35z m-550 -5344 c39 -10 93 -29 120 -43 73 -38 183 -157 229 -250 37 -72 40 -85 44 -184 6 -130 -7 -192 -60 -290 -43 -80 -150 -189 -223 -227 -47 -24 -207 -67 -250 -67 -41 0 -202 43 -245 65 -86 44 -160 113 -206 192 -65 110 -76 146 -82 268 -4 101 -2 117 23 190 15 44 35 89 45 100 10 11 25 34 33 51 21 41 101 112 167 148 116 63 273 82 405 47z m-981 -763 c28 -109 95 -234 173 -323 122 -139 255 -220 463 -281 81 -24 112 -28 210 -27 100 0 129 4 218 32 252 77 389 182 539 413 37 57 56 100 74 167 l24 91 2519 0 2519 0 -7 -147 c-17 -339 -103 -854 -211 -1258 -120 -446 -278 -831 -536 -1303 -344 -628 -912 -1295 -1487 -1747 -858 -674 -1931 -1113 -3007 -1231 -231 -26 -281 -28 -650 -28 -369 0 -419 2 -650 28 -611 67 -1197 230 -1821 507 -365 161 -858 460 -1167 706 -600 478 -1161 1135 -1505 1765 -246 450 -396 808 -537 1283 -111 376 -191 857 -211 1278 l-7 147 2519 0 2520 0 18 -72z"/>
</g>
</g>
  <g id="id1:id1" transform="matrix(1.25,0,0,1.25,0.0,0.0)"><g transform="translate(0.000000,1275.000000) scale(0.100000,-0.100000)" fill="#ffffff" stroke="none">
</g>
</g>
</svg>
