<?xml version="1.0" encoding="UTF-8" standalone="no"?>
<!-- Created with Inkscape (http://www.inkscape.org/) -->

<svg
   xmlns:dc="http://purl.org/dc/elements/1.1/"
   xmlns:cc="http://creativecommons.org/ns#"
   xmlns:rdf="http://www.w3.org/1999/02/22-rdf-syntax-ns#"
   xmlns:svg="http://www.w3.org/2000/svg"
   xmlns="http://www.w3.org/2000/svg"
   xmlns:inkscape="http://www.inkscape.org/namespaces/inkscape"
   version="1.1"
   width="100%"
   height="100%"
   viewBox="0 0 668.24365 348.27995"
   id="svg85614"
   xml:space="preserve"
   style="fill-rule:evenodd;stroke-linecap:round;stroke-linejoin:round"><metadata
     id="metadata86277"><rdf:RDF><cc:Work
         rdf:about=""><dc:format>image/svg+xml</dc:format><dc:type
           rdf:resource="http://purl.org/dc/dcmitype/StillImage" /></cc:Work></rdf:RDF></metadata><defs
     id="defs85616"><clipPath
       id="clipId0"><path
         d="M 0,600 800,600 800,0 0,0 z"
         inkscape:connector-curvature="0"
         id="path85619" /></clipPath></defs><g
     transform="translate(-65.350101,-125.5)"
     clip-path="url(#clipId0)"
     id="g85621"
     style="fill:none;stroke:#000000;stroke-width:0.1" /><g
     transform="translate(-65.350101,-125.5)"
     clip-path="url(#clipId0)"
     id="g85623"
     style="fill:#000000;fill-rule:nonzero;stroke:none"><path
       d="m 733.59375,125.5 c 0,116.03125 0,232.0625 0,348.09375 -667.602364,-0.43095 1.83963,0.54013 -667.510979,0.0381 -1.929821,-10.89125 0.626673,-39.75177 0.07348,-52.01965 0,-98.70406 0,-197.40812 0,-296.11218 222.479169,0 444.958329,0 667.437499,0 z M 94.875,444.875 c 203.32292,0 406.64583,0 609.96875,0 0,-96.875 0,-193.75 0,-290.625 -203.32292,0 -406.64583,0 -609.96875,0 0,96.875 0,193.75 0,290.625 z M 252.88931,238.62545 c 35.84196,6.2358 59.15244,47.71142 46.02906,81.60023 -10.99835,34.6823 -55.10696,52.25672 -87.01212,34.83682 -32.17657,-15.33087 -44.27001,-59.95474 -23.97517,-89.31368 13.94865,-18.86845 40.5362,-32.52423 64.95823,-27.12337 z m 319.34375,0 c 35.82163,6.23548 59.20611,47.7194 46.02906,81.60023 -10.98505,34.66628 -55.09028,52.26316 -86.98087,34.83682 -32.73525,-15.50202 -44.50498,-61.26583 -23.16909,-90.56486 23.27294,-26.37671 43.29744,-28.02092 64.1209,-25.87219 z"
       inkscape:connector-curvature="0"
       id="path85947"
       style="fill-rule:nonzero" /></g><g
     transform="translate(-65.350101,-125.5)"
     clip-path="url(#clipId0)"
     id="g85949"
     style="fill:none;stroke:#000000;stroke-width:0.25"><polyline
       points="240.195,251.654 240.195,251.654 "
       id="polyline85951" /></g><g
     transform="translate(-65.350101,-125.5)"
     clip-path="url(#clipId0)"
     id="g85953"
     style="fill:#000000;fill-rule:nonzero;stroke:none" /><g
     transform="translate(-65.350101,-125.5)"
     clip-path="url(#clipId0)"
     id="g86271"
     style="fill:none;stroke:#000000;stroke-width:0.25"><polyline
       points="559.55,251.654 559.55,251.654 "
       id="polyline86273" /></g></svg>