<?xml version="1.0" encoding="UTF-8" standalone="no"?>
<svg
   xmlns:dc="http://purl.org/dc/elements/1.1/"
   xmlns:cc="http://creativecommons.org/ns#"
   xmlns:rdf="http://www.w3.org/1999/02/22-rdf-syntax-ns#"
   xmlns:svg="http://www.w3.org/2000/svg"
   xmlns="http://www.w3.org/2000/svg"
   xmlns:sodipodi="http://sodipodi.sourceforge.net/DTD/sodipodi-0.dtd"
   xmlns:inkscape="http://www.inkscape.org/namespaces/inkscape"
   viewBox="0 0 794.51693 210.462"
   version="1.1"
   xml:space="preserve"
   id="svg2"
   inkscape:version="0.48.3.1 r9886"
   width="100%"
   height="100%"
   sodipodi:docname="alkis3617.svg"
   style="fill-rule:evenodd;stroke-linecap:round;stroke-linejoin:round"><metadata
   id="metadata41"><rdf:RDF><cc:Work
       rdf:about=""><dc:format>image/svg+xml</dc:format><dc:type
         rdf:resource="http://purl.org/dc/dcmitype/StillImage" /></cc:Work></rdf:RDF></metadata><sodipodi:namedview
   pagecolor="#ffffff"
   bordercolor="#666666"
   borderopacity="1"
   objecttolerance="10"
   gridtolerance="10"
   guidetolerance="10"
   inkscape:pageopacity="0"
   inkscape:pageshadow="2"
   inkscape:window-width="640"
   inkscape:window-height="480"
   id="namedview39"
   showgrid="false"
   inkscape:zoom="0.39333333"
   inkscape:cx="397.42993"
   inkscape:cy="104.866"
   inkscape:window-x="0"
   inkscape:window-y="33"
   inkscape:window-maximized="0"
   inkscape:current-layer="svg2" />
<defs
   id="defs4">
<clipPath
   id="clipId0">
<path
   d="M 0,600 800,600 800,0 0,0 z"
   id="path7"
   inkscape:connector-curvature="0" />
</clipPath>
</defs>
<g
   clip-path="url(#clipId0)"
   id="g9"
   style="fill:none;stroke:#000000;stroke-width:0.1"
   transform="translate(-2.57007,-194.404)" />
<g
   clip-path="url(#clipId0)"
   id="g11"
   style="fill:#00cccc;stroke:none"
   transform="translate(-2.57007,-194.404)">
<path
   d="m 2.57007,303.439 0,-7.607 118.33193,0 0,7.607 z"
   id="path13"
   inkscape:connector-curvature="0" />
<path
   d="m 171.616,252.725 0,-7.607 118.332,0 0,7.607 z"
   id="path15"
   inkscape:connector-curvature="0" />
<path
   d="m 171.616,303.439 0,-7.607 118.332,0 0,7.607 z"
   id="path17"
   inkscape:connector-curvature="0" />
<path
   d="m 171.616,354.153 0,-7.608 118.332,0 0,7.608 z"
   id="path19"
   inkscape:connector-curvature="0" />
<path
   d="m 340.662,202.011 0,-7.607 118.333,0 0,7.607 z"
   id="path21"
   inkscape:connector-curvature="0" />
<path
   d="m 340.662,252.725 0,-7.607 118.333,0 0,7.607 z"
   id="path23"
   inkscape:connector-curvature="0" />
<path
   d="m 340.662,303.439 0,-7.607 118.333,0 0,7.607 z"
   id="path25"
   inkscape:connector-curvature="0" />
<path
   d="m 340.662,354.153 0,-7.608 118.333,0 0,7.608 z"
   id="path27"
   inkscape:connector-curvature="0" />
<path
   d="m 340.662,404.866 0,-7.607 118.333,0 0,7.607 z"
   id="path29"
   inkscape:connector-curvature="0" />
<path
   d="m 509.708,252.725 0,-7.607 118.333,0 0,7.607 z"
   id="path31"
   inkscape:connector-curvature="0" />
<path
   d="m 509.708,303.439 0,-7.607 118.333,0 0,7.607 z"
   id="path33"
   inkscape:connector-curvature="0" />
<path
   d="m 509.708,354.153 0,-7.608 118.333,0 0,7.608 z"
   id="path35"
   inkscape:connector-curvature="0" />
<path
   d="m 678.755,303.439 0,-7.607 118.332,0 0,7.607 z"
   id="path37"
   inkscape:connector-curvature="0" />
</g>
</svg>