<?xml version="1.0" standalone="no"?>
<!DOCTYPE svg PUBLIC "-//W3C//DTD SVG 1.1//EN"
 "http://www.w3.org/Graphics/SVG/1.1/DTD/svg11.dtd">
<!-- Created with svg_stack (http://github.com/astraw/svg_stack) -->
<svg xmlns:sodipodi="http://sodipodi.sourceforge.net/DTD/sodipodi-0.dtd" xmlns="http://www.w3.org/2000/svg" version="1.1" width="861.25" height="1591.25">
  <defs/>
  <g id="id0:id0" transform="matrix(1.25,0,0,1.25,0.0,0.0)"><g transform="translate(0.000000,1273.000000) scale(0.100000,-0.100000)" fill="#000000" stroke="none">
<path d="M2710 12621 l-675 -108 -695 -342 c-382 -189 -696 -344 -698 -346 -1 -1 -135 -440 -297 -975 l-294 -973 -26 -737 -25 -736 25 -1021 26 -1020 289 -1048 c159 -576 291 -1049 292 -1050 2 -2 320 -158 708 -347 l705 -344 435 -68 c239 -37 443 -70 453 -73 16 -4 17 -71 17 -1229 l0 -1224 -870 0 -870 0 0 -490 0 -490 2230 0 2230 0 0 490 0 490 -870 0 -870 0 0 1224 c0 1158 1 1225 18 1230 9 2 215 35 457 72 l440 68 700 344 c385 189 701 345 703 347 1 1 133 474 292 1050 l289 1048 31 1022 30 1023 -30 734 -30 735 -295 973 c-162 535 -296 974 -297 976 -2 2 -316 158 -698 347 l-695 343 -690 107 c-379 59 -708 107 -730 106 -22 0 -344 -49 -715 -108z m1310 -965 l535 -83 435 -217 c239 -120 436 -219 438 -221 2 -1 99 -321 217 -710 l214 -708 26 -654 25 -653 -25 -948 -25 -949 -220 -783 c-121 -430 -221 -784 -223 -786 -1 -2 -198 -99 -437 -216 l-435 -214 -548 -84 -548 -84 -557 84 -557 84 -435 213 c-239 118 -436 215 -437 217 -2 2 -100 356 -218 786 l-215 783 -30 945 -30 944 30 657 30 657 210 708 c115 390 211 710 212 711 2 2 199 101 438 221 l435 217 525 82 c289 46 550 83 580 83 30 1 296 -36 590 -82z"/>
<path d="M4289 10579 c-206 -160 -377 -294 -381 -298 -4 -3 40 -67 98 -141 128 -166 214 -321 254 -462 29 -100 30 -107 55 -688 l26 -587 -26 -958 -26 -957 -51 -101 c-43 -87 -67 -120 -164 -223 l-113 -120 345 -345 344 -344 165 165 166 165 144 281 145 281 25 1081 25 1080 -25 659 -26 658 -63 211 c-58 195 -72 228 -169 415 -97 186 -117 218 -232 359 -70 85 -130 156 -134 158 -4 1 -176 -129 -382 -289z"/>
</g>
</g>
  <g id="id1:id1" transform="matrix(1.25,0,0,1.25,0.0,0.0)"><g transform="translate(0.000000,1273.000000) scale(0.100000,-0.100000)" fill="#ffffff" stroke="none">
</g>
</g>
</svg>
