<?xml version="1.0" standalone="no"?>
<!DOCTYPE svg PUBLIC "-//W3C//DTD SVG 1.1//EN"
 "http://www.w3.org/Graphics/SVG/1.1/DTD/svg11.dtd">
<!-- Created with svg_stack (http://github.com/astraw/svg_stack) -->
<svg xmlns:sodipodi="http://sodipodi.sourceforge.net/DTD/sodipodi-0.dtd" xmlns="http://www.w3.org/2000/svg" version="1.1" width="370.0" height="1597.5">
  <defs/>
  <g id="id0:id0" transform="matrix(1.25,0,0,1.25,0.0,0.0)"><g transform="translate(0.000000,1278.000000) scale(0.100000,-0.100000)" fill="#000000" stroke="none">
<path d="M860 7807 l0 -4973 -142 -85 c-122 -72 -158 -99 -248 -189 -155 -155 -237 -269 -313 -435 -101 -219 -124 -297 -143 -478 -15 -145 -15 -169 0 -314 14 -129 24 -180 55 -274 71 -210 180 -404 320 -567 109 -127 317 -280 479 -353 171 -77 445 -139 616 -139 109 0 345 41 466 80 252 82 533 281 694 490 40 51 155 238 189 305 66 133 127 427 127 615 0 239 -61 481 -172 687 -139 258 -309 434 -556 578 l-121 70 -1 4978 0 4977 -625 0 -625 0 0 -4973z m860 -5322 c117 -30 238 -79 306 -125 232 -159 381 -361 451 -615 25 -89 28 -117 28 -255 0 -170 -13 -241 -68 -380 -45 -114 -61 -142 -147 -253 -142 -184 -327 -310 -528 -361 -118 -30 -273 -40 -394 -27 -141 16 -183 26 -281 67 -149 64 -329 202 -418 322 -101 137 -177 317 -198 465 -34 245 8 471 125 678 65 114 114 172 222 262 142 118 257 179 422 223 128 34 344 33 480 -1z"/>
</g>
</g>
  <g id="id1:id1" transform="matrix(1.25,0,0,1.25,0.0,0.0)"><g transform="translate(0.000000,1278.000000) scale(0.100000,-0.100000)" fill="#ffffff" stroke="none">
</g>
</g>
</svg>
