<?xml version="1.0" encoding="UTF-8" standalone="no"?>
<!-- Created with Inkscape (http://www.inkscape.org/) -->

<svg
   xmlns:dc="http://purl.org/dc/elements/1.1/"
   xmlns:cc="http://creativecommons.org/ns#"
   xmlns:rdf="http://www.w3.org/1999/02/22-rdf-syntax-ns#"
   xmlns:svg="http://www.w3.org/2000/svg"
   xmlns="http://www.w3.org/2000/svg"
   xmlns:inkscape="http://www.inkscape.org/namespaces/inkscape"
   version="1.1"
   width="100%"
   height="100%"
   viewBox="0 0 465.375 356.89989"
   id="svg2"
   xml:space="preserve"
   style="fill-rule:evenodd;stroke-linecap:round;stroke-linejoin:round"><metadata
     id="metadata39"><rdf:RDF><cc:Work
         rdf:about=""><dc:format>image/svg+xml</dc:format><dc:type
           rdf:resource="http://purl.org/dc/dcmitype/StillImage" /></cc:Work></rdf:RDF></metadata><defs
     id="defs4"><clipPath
       id="clipId0"><path
         d="M 0,600 800,600 800,0 0,0 z"
         inkscape:connector-curvature="0"
         id="path7" /></clipPath></defs><g
     transform="translate(-167.59375,-118.63136)"
     clip-path="url(#clipId0)"
     id="g9"
     style="fill:none;stroke:#000000;stroke-width:0.1" /><path
     d="M 158.5625,5.49364 145.05456,0 l -0.0233,14.93114 3.46875,118 96.46875,43.71875 57.375,-113.4375 z m 6.625,23.9375 L 275,73.52489 l -39.125,77.34375 -68,-30.84375 z"
     inkscape:connector-curvature="0"
     id="path13"
     style="fill:#999999;stroke:none" /><path
     d="M 135.125,199.27489 7.40625,253.36864 0,256.18114 l 1.625,8.34375 19.96875,92.375 198.46875,-75.375 -84.9375,-82.25 z m -4.34375,23.28125 53.25,51.53125 -148,56.1875 -13.40625,-61.9375 108.15625,-45.78125 z"
     inkscape:connector-curvature="0"
     id="path21"
     style="fill:#999999;stroke:none" /><path
     d="m 309.46875,178.74364 -23.875,113.46875 -2.40625,10.4375 11,1.40625 L 465.375,322.27489 413,196.61864 309.46875,178.74364 z m 15.40625,22.6875 74.09375,12.8125 35.375,84.875 -127.1875,-13.53125 17.71875,-84.15625 z"
     inkscape:connector-curvature="0"
     id="path29"
     style="fill:#999999;stroke:none" /></svg>