<?xml version="1.0" standalone="no"?>
<!DOCTYPE svg PUBLIC "-//W3C//DTD SVG 1.1//EN"
 "http://www.w3.org/Graphics/SVG/1.1/DTD/svg11.dtd">
<!-- Created with svg_stack (http://github.com/astraw/svg_stack) -->
<svg xmlns:sodipodi="http://sodipodi.sourceforge.net/DTD/sodipodi-0.dtd" xmlns="http://www.w3.org/2000/svg" version="1.1" width="1596.25" height="1597.5">
  <defs/>
  <g id="id0:id0" transform="matrix(1.25,0,0,1.25,0.0,0.0)"><g transform="translate(0.000000,1278.000000) scale(0.100000,-0.100000)" fill="#000000" stroke="none">
<path d="M2550 6390 l0 -4600 510 0 510 0 0 4600 0 4600 -510 0 -510 0 0 -4600z"/>
<path d="M6520 8355 l-325 -72 -287 -179 -288 -179 -244 -229 -244 -228 -178 -262 -178 -261 -118 -289 -118 -290 -61 -360 c-33 -199 -78 -480 -100 -624 l-39 -264 0 -1664 0 -1664 2935 0 2935 0 0 1663 0 1663 -35 269 c-19 149 -64 431 -100 628 l-66 357 -117 288 -118 287 -178 262 -179 262 -239 228 -239 228 -292 179 -292 179 -335 73 -335 74 -420 -1 -420 -1 -325 -73z"/>
</g>
</g>
  <g id="id1:id1" transform="matrix(1.25,0,0,1.25,0.0,0.0)"><g transform="translate(0.000000,1278.000000) scale(0.100000,-0.100000)" fill="#ffffff" stroke="none">
<path d="M0 6390 l0 -6390 6385 0 6385 0 0 6390 0 6390 -6385 0 -6385 0 0 -6390z m3570 0 l0 -4600 -510 0 -510 0 0 4600 0 4600 510 0 510 0 0 -4600z m4450 1966 l335 -73 292 -179 292 -179 239 -228 239 -228 179 -262 178 -262 118 -287 117 -288 66 -357 c36 -197 81 -479 100 -628 l35 -269 0 -1663 0 -1663 -2935 0 -2935 0 0 1664 0 1664 39 264 c22 144 67 425 100 624 l61 360 118 290 118 289 178 261 178 262 244 228 244 229 288 179 287 179 325 72 325 73 420 1 420 1 335 -74z"/>
</g>
</g>
</svg>
