<?xml version="1.0" encoding="UTF-8" standalone="no"?>
<svg
   xmlns:dc="http://purl.org/dc/elements/1.1/"
   xmlns:cc="http://creativecommons.org/ns#"
   xmlns:rdf="http://www.w3.org/1999/02/22-rdf-syntax-ns#"
   xmlns:svg="http://www.w3.org/2000/svg"
   xmlns="http://www.w3.org/2000/svg"
   xmlns:sodipodi="http://sodipodi.sourceforge.net/DTD/sodipodi-0.dtd"
   xmlns:inkscape="http://www.inkscape.org/namespaces/inkscape"
   viewBox="0 0 351.2785 351.49946"
   version="1.1"
   xml:space="preserve"
   id="svg36155"
   inkscape:version="0.48.3.1 r9886"
   width="100%"
   height="100%"
   sodipodi:docname="alkis3554.svg"
   style="fill-rule:evenodd;stroke-linecap:round;stroke-linejoin:round"><metadata
   id="metadata36494"><rdf:RDF><cc:Work
       rdf:about=""><dc:format>image/svg+xml</dc:format><dc:type
         rdf:resource="http://purl.org/dc/dcmitype/StillImage" /></cc:Work></rdf:RDF></metadata><sodipodi:namedview
   pagecolor="#ffffff"
   bordercolor="#666666"
   borderopacity="1"
   objecttolerance="10"
   gridtolerance="10"
   guidetolerance="10"
   inkscape:pageopacity="0"
   inkscape:pageshadow="2"
   inkscape:window-width="1855"
   inkscape:window-height="1025"
   id="namedview36492"
   showgrid="false"
   inkscape:zoom="2.2250293"
   inkscape:cx="177.06421"
   inkscape:cy="175.53071"
   inkscape:window-x="0"
   inkscape:window-y="33"
   inkscape:window-maximized="1"
   inkscape:current-layer="svg36155" />
<defs
   id="defs36157">
<clipPath
   id="clipId0">
<path
   d="M 0,600 800,600 800,0 0,0 z"
   id="path36160"
   inkscape:connector-curvature="0" />
</clipPath>

















































































</defs>
<g
   clip-path="url(#clipId0)"
   id="g36162"
   style="fill:none;stroke:#000000;stroke-width:0.1"
   transform="translate(-224.73352,-124.03125)" />
<g
   clip-path="url(#clipId0)"
   id="g36164"
   style="fill:#ffffb2;stroke:none"
   transform="translate(-224.73352,-124.03125)">













































































<path
   d="m 400.34375,146.375 c -50.92573,-0.22733 -101.00886,26.7351 -128.42561,69.71654 -29.35828,44.09167 -32.96696,103.67196 -9.2839,151.03914 22.48669,46.9774 70.46008,80.38944 122.32732,85.16311 52.36994,5.76824 106.65342,-18.03154 137.94638,-60.41541 31.82654,-41.59225 39.68862,-99.91019 20.02863,-148.45459 -18.8336,-48.88876 -64.46736,-86.06934 -116.14261,-94.68764 -8.72417,-1.59353 -17.5931,-2.15495 -26.45021,-2.36115 z"
   id="path36320"
   inkscape:connector-curvature="0" />
</g>
<path
   style="fill:#00ff00;stroke:none"
   d="M 174.23523,0 C 116.06085,0.13255 58.978822,31.36978 27.886702,80.66524 -5.2488977,131.12676 -9.1591977,198.9261 17.785682,252.9311 c 25.92429,54.14284 81.37768,92.5129 141.185708,97.69912 59.70908,6.18577 121.41834,-21.0292 157.08898,-69.31975 36.45902,-47.68897 45.50012,-114.51887 22.946,-170.16319 C 317.53491,55.45634 265.72754,12.96321 206.88917,2.87555 196.14297,0.73583 185.11559,0.2158 174.23523,0 z m 1.375,44.71875 c 47.81002,-0.34467 94.33245,27.7755 116.09682,70.36689 22.73027,42.5701 18.98778,97.47154 -9.34808,136.5433 -28.964,41.64562 -83.51081,63.24217 -133.09997,52.33308 C 98.437802,294.2424 56.116232,251.41877 47.075722,200.46058 36.581352,149.78207 59.967692,94.3148 103.57119,66.43666 124.74351,52.25471 150.17358,44.86893 175.61023,44.71875 z"
   id="path36324"
   inkscape:connector-curvature="0" />
<g
   clip-path="url(#clipId0)"
   id="g36484"
   style="fill:none;stroke:#00ff00;stroke-width:0.25"
   transform="translate(-224.73352,-124.03125)">
<polyline
   points="400.352,146.371 400.352,146.371 "
   id="polyline36486" />
</g>
<g
   clip-path="url(#clipId0)"
   id="g36488"
   style="fill:#00ff00;stroke:none"
   transform="translate(-224.73352,-124.03125)">
<text
   transform="matrix(127.828,0,0,127.828,332.854,363.841)"
   font-weight="bold"
   font-size="1.39636"
   id="text36490"
   style="font-size:1.39636004px;font-weight:bold;font-family:'Arial,\'sans-serif\''">H</text>



</g>
</svg>