<?xml version="1.0" encoding="UTF-8" standalone="no"?>
<!-- Created with Inkscape (http://www.inkscape.org/) -->

<svg
   xmlns:dc="http://purl.org/dc/elements/1.1/"
   xmlns:cc="http://creativecommons.org/ns#"
   xmlns:rdf="http://www.w3.org/1999/02/22-rdf-syntax-ns#"
   xmlns:svg="http://www.w3.org/2000/svg"
   xmlns="http://www.w3.org/2000/svg"
   xmlns:inkscape="http://www.inkscape.org/namespaces/inkscape"
   version="1.1"
   width="100%"
   height="100%"
   viewBox="0 0 351.53963 351.76367"
   id="svg113510"
   xml:space="preserve"
   style="fill-rule:evenodd;stroke-linecap:round;stroke-linejoin:round"><metadata
     id="metadata114247"><rdf:RDF><cc:Work
         rdf:about=""><dc:format>image/svg+xml</dc:format><dc:type
           rdf:resource="http://purl.org/dc/dcmitype/StillImage" /></cc:Work></rdf:RDF></metadata><defs
     id="defs113512"><clipPath
       id="clipId0"><path
         d="M 0,600 800,600 800,0 0,0 z"
         inkscape:connector-curvature="0"
         id="path113515" /></clipPath></defs><g
     transform="translate(-224.32863,-124.09285)"
     clip-path="url(#clipId0)"
     id="g113517"
     style="fill:none;stroke:#000000;stroke-width:0.1" /><g
     transform="translate(-224.32863,-124.09285)"
     clip-path="url(#clipId0)"
     id="g113519"
     style="fill:#ffffff;stroke:none"><path
       d="m 400.09375,131.09375 c -52.58184,-0.11743 -104.39289,25.76655 -135.51071,68.21413 -34.30161,45.52311 -42.93732,108.84247 -21.77352,161.80885 20.47934,54.25127 70.96667,95.56836 128.15098,105.09542 56.71718,10.41852 117.8726,-10.98601 155.66642,-54.55798 C 564.89444,368.97392 578.7207,306.13205 561.6957,251.36695 545.49345,195.69453 498.45683,150.48172 442.16615,136.5309 c -13.72599,-3.60554 -27.89576,-5.21504 -42.0724,-5.43715 z"
       inkscape:connector-curvature="0"
       id="path113675" /></g><g
     transform="translate(-224.32863,-124.09285)"
     clip-path="url(#clipId0)"
     id="g113677"
     style="fill:#000000;stroke:none"><path
       d="m 399.8125,124.09375 c -58.30848,-0.19286 -115.59741,30.72355 -147.00808,79.91377 -33.67578,50.56225 -37.80938,118.88656 -10.65675,173.21239 25.94446,54.17254 81.44061,92.58209 141.28706,97.7619 59.75327,6.21399 121.46471,-21.0727 157.19205,-69.35324 36.23375,-47.46394 45.47202,-113.85463 23.30626,-169.33961 -21.33229,-56.53238 -73.94409,-99.5381 -133.50864,-109.50277 -9.90952,-1.81267 -19.98724,-2.44781 -30.0494,-2.69244 -0.31842,4.77949 -0.14614,12.57765 -0.5625,0 z m 0.28125,14.03125 c 53.62766,-0.15018 106.37631,28.09763 135.33084,73.33605 32.97321,49.20301 35.16667,116.81429 5.45082,168.05219 -27.33505,49.59519 -82.43083,82.03895 -139.03102,82.19902 -55.25239,1.01948 -109.72422,-28.66891 -138.7407,-75.7173 -31.38413,-49.02297 -33.02695,-115.19037 -3.7916,-165.5707 27.30354,-49.62789 82.41652,-81.98896 138.99873,-82.22479 l 0.99416,-0.0415 0.78877,-0.0329 z"
       inkscape:connector-curvature="0"
       id="path113837" /></g><g
     transform="translate(-224.32863,-124.09285)"
     clip-path="url(#clipId0)"
     id="g113839"
     style="fill:none;stroke:#000000;stroke-width:0.25"><polyline
       points="400.086,131.109 400.086,131.109 "
       id="polyline113841" /></g><g
     transform="translate(-224.32863,-124.09285)"
     clip-path="url(#clipId0)"
     id="g113843"
     style="fill:#000000;stroke:none"><path
       d="m 273.4375,224.6875 c 0.91953,2.98399 -2.03621,9.84326 1.86682,9.84375 35.26314,0 70.52629,0 105.78943,0 0,7.73958 0,15.47917 0,23.21875 2.99309,-0.91043 9.82572,2.01867 9.84375,-1.86682 0,-7.11731 0,-14.23462 0,-21.35193 35.88542,0 71.77083,0 107.65625,0 -0.91953,-2.98399 2.03621,-9.84326 -1.86682,-9.84375 -74.42981,0 -148.85962,0 -223.28943,0 z M 386,257.75 c -20.60055,-0.39283 -39.6546,16.36607 -41.82881,36.8615 -3.05655,20.37225 11.15795,41.41066 31.19177,46.19421 19.88846,5.63603 42.65146,-5.87925 49.85161,-25.26482 0.54244,-4.6442 6.43554,-1.6226 9.62226,-2.47839 8.12779,0.31225 16.19049,-0.0732 24.10067,-2.09375 5.12598,-5.68745 10.89246,-11.28441 12.41835,-19.09609 2.1893,-2.39336 7.50474,-0.4124 10.94155,-1.06016 8.69254,0 17.38507,0 26.0776,0 2.74162,11.9273 18.08206,18.04283 28.28125,11.28125 10.7483,-6.04633 12.17372,-22.70214 2.59448,-30.47878 -3.36975,-2.97029 -7.81671,-4.6842 -12.31323,-4.70872 -0.83964,7.38394 1.18631,1.90518 -1.6875,0.0625 -7.83278,0.47066 -14.94441,6.38832 -16.84375,14 C 480.1812,280.86443 451.67371,281.17729 423.625,280.8125 416.61806,266.84387 401.63214,257.65008 386,257.75 z m 140.53125,19 c 7.57999,-0.54788 12.37642,9.57394 7.15625,15.09365 -4.61323,5.92611 -15.19659,2.94766 -16,-4.53115 -0.9003,-5.32461 3.41718,-10.54968 8.84375,-10.5625 z M 327.6875,350.90625 c -1.31729,2.83356 -8.10235,5.94561 -5.20921,8.56473 4.81388,4.9046 10.24525,8.93931 16.51237,11.79665 4.92223,1.968 10.34082,3.45656 15.62616,3.98237 34.95064,0 69.90129,0 104.85193,0 -0.91953,-2.98399 2.03621,-9.84326 -1.86682,-9.84375 -34.72846,-0.1029 -69.50867,0.20568 -104.20482,-0.15409 -8.20556,-1.52645 -16.21931,-4.87971 -22.04068,-11.02311 -1.22298,-1.1076 -2.44595,-2.2152 -3.66893,-3.3228 z"
       inkscape:connector-curvature="0"
       id="path113999" /></g><g
     transform="translate(-224.32863,-124.09285)"
     clip-path="url(#clipId0)"
     id="g114001"
     style="fill:#ffffff;stroke:none"><path
       d="m 386,267.59375 -8.5625,1.15625 -7.96875,3.40625 -6.8125,5.40625 -5.09375,7 -2.375,6.25 -0.6875,1.84375 -0.8125,8.625 0.8125,4.59375 0.6875,3.9375 2.375,0 5.09375,0 6.8125,0 7.96875,0 8.5625,0 0,-42.21875 z"
       inkscape:connector-curvature="0"
       id="path114027" /></g><g
     transform="translate(-224.32863,-124.09285)"
     clip-path="url(#clipId0)"
     id="g114029"
     style="fill:#000000;fill-rule:nonzero;stroke:none" /><g
     transform="translate(-224.32863,-124.09285)"
     clip-path="url(#clipId0)"
     id="g114197"
     style="fill:none;stroke:#000000;stroke-width:0.25"><polyline
       points="526.73,271.825 526.73,271.825 "
       id="polyline114199" /></g><g
     transform="translate(-224.32863,-124.09285)"
     clip-path="url(#clipId0)"
     id="g114201"
     style="fill:#000000;stroke:none" /></svg>