<?xml version="1.0" standalone="no"?>
<!DOCTYPE svg PUBLIC "-//W3C//DTD SVG 1.1//EN"
 "http://www.w3.org/Graphics/SVG/1.1/DTD/svg11.dtd">
<!-- Created with svg_stack (http://github.com/astraw/svg_stack) -->
<svg xmlns:sodipodi="http://sodipodi.sourceforge.net/DTD/sodipodi-0.dtd" xmlns="http://www.w3.org/2000/svg" version="1.1" width="1593.75" height="1593.75">
  <defs/>
  <g id="id0:id0" transform="matrix(1.25,0,0,1.25,0.0,0.0)"><g transform="translate(0.000000,1275.000000) scale(0.100000,-0.100000)" fill="#000000" stroke="none">
<path d="M5985 12740 c-558 -31 -1307 -190 -1820 -388 -315 -122 -653 -278 -900 -417 -1166 -654 -2107 -1669 -2663 -2874 -155 -337 -280 -670 -357 -956 -322 -1194 -321 -2265 0 -3460 77 -286 202 -619 358 -957 556 -1204 1495 -2218 2662 -2873 412 -231 975 -465 1385 -575 335 -91 662 -156 990 -197 l285 -36 455 0 455 0 285 36 c328 41 655 106 990 197 559 150 1297 491 1820 840 673 450 1334 1114 1745 1755 415 647 634 1120 835 1809 169 580 258 1344 230 1982 -21 503 -108 1061 -230 1479 -199 684 -417 1158 -828 1800 -416 648 -1072 1310 -1752 1765 -368 246 -867 501 -1335 681 -416 161 -958 292 -1470 355 -260 32 -305 34 -635 38 -195 2 -422 1 -505 -4z m1050 -789 c1016 -120 2029 -541 2815 -1170 510 -408 879 -810 1196 -1301 268 -413 413 -697 590 -1150 91 -231 161 -486 243 -880 81 -389 121 -896 101 -1297 -22 -455 -71 -769 -200 -1283 -66 -263 -157 -509 -317 -861 -151 -331 -423 -777 -670 -1099 -329 -428 -814 -876 -1301 -1202 -730 -488 -1581 -803 -2462 -910 -246 -30 -270 -31 -650 -31 -380 0 -404 1 -650 31 -1033 126 -1981 519 -2823 1170 -903 698 -1619 1769 -1927 2882 -67 243 -123 525 -171 865 l-32 230 0 430 0 430 32 228 c118 841 300 1399 681 2092 184 335 498 767 767 1057 507 544 1074 956 1773 1288 587 278 1338 470 2000 510 74 5 275 7 445 4 262 -3 349 -9 560 -33z"/>
</g>
</g>
  <g id="id1:id1" transform="matrix(1.25,0,0,1.25,0.0,0.0)"><g transform="translate(0.000000,1275.000000) scale(0.100000,-0.100000)" fill="#ffffff" stroke="none">
</g>
</g>
</svg>
