<?xml version="1.0" encoding="UTF-8" standalone="no"?>
<!-- Generator: Adobe Illustrator 15.0.2, SVG Export Plug-In . SVG Version: 6.00 Build 0)  -->

<svg
   xmlns:dc="http://purl.org/dc/elements/1.1/"
   xmlns:cc="http://creativecommons.org/ns#"
   xmlns:rdf="http://www.w3.org/1999/02/22-rdf-syntax-ns#"
   xmlns:svg="http://www.w3.org/2000/svg"
   xmlns="http://www.w3.org/2000/svg"
   xmlns:sodipodi="http://sodipodi.sourceforge.net/DTD/sodipodi-0.dtd"
   xmlns:inkscape="http://www.inkscape.org/namespaces/inkscape"
   version="1.0"
   x="0px"
   y="0px"
   width="24px"
   height="24px"
   viewBox="0 0 24 24"
   enable-background="new 0 0 24 24"
   xml:space="preserve"
   id="svg14267"
   inkscape:version="0.48.2 r9819"
   sodipodi:docname="clear.svg"><metadata
   id="metadata14282"><rdf:RDF><cc:Work
       rdf:about=""><dc:format>image/svg+xml</dc:format><dc:type
         rdf:resource="http://purl.org/dc/dcmitype/StillImage" /><dc:title /></cc:Work></rdf:RDF></metadata><defs
   id="defs14280">
	

			
				
			
				
			
			
				
		</defs><sodipodi:namedview
   pagecolor="#ffffff"
   bordercolor="#666666"
   borderopacity="1"
   objecttolerance="10"
   gridtolerance="10"
   guidetolerance="10"
   inkscape:pageopacity="0"
   inkscape:pageshadow="2"
   inkscape:window-width="640"
   inkscape:window-height="704"
   id="namedview14278"
   showgrid="false"
   inkscape:snap-global="false"
   showguides="false"
   inkscape:zoom="9.8333333"
   inkscape:cx="12"
   inkscape:cy="12"
   inkscape:window-x="2636"
   inkscape:window-y="221"
   inkscape:window-maximized="0"
   inkscape:current-layer="layer4"><inkscape:grid
     type="xygrid"
     id="grid14288" /></sodipodi:namedview>
<rect
   style="fill:#00ff00;fill-opacity:1;fill-rule:nonzero;stroke:none"
   id="rect14290"
   width="24.305084"
   height="24.305084"
   x="0"
   y="0" /><g
   inkscape:label="1"
   inkscape:groupmode="layer"
   transform="translate(-1.9322034,-9.220339)"
   id="layer4">
		
			<path
   style="fill:#fce94f;stroke:#c4a000;stroke-width:1.25;stroke-linecap:round;stroke-linejoin:round;stroke-dasharray:1, 2"
   inkscape:connector-curvature="0"
   d="m 4.5,11.5 h 11.999 c 0.553,0 1.001,0.447 1.001,1 v 11.999 c 0,0.553 -0.448,1.001 -1.001,1.001 H 4.5 c -0.552,0 -1,-0.448 -1,-1.001 V 12.5 c 0,-0.552 0.448,-1 1,-1 z"
   id="rect2902" />
		<path
   id="rect15022-0-4-8-5-6-4-4-4"
   enable-background="new    "
   d="m 14.56039,21.805085 h 8.285 c 0.474,0 0.857,0.384 0.857,0.857 v 8.285 c 0,0.474 -0.384,0.857 -0.857,0.857 h -8.285 c -0.474,0 -0.857,-0.384 -0.857,-0.857 v -8.285 c 0,-0.473 0.384,-0.857 0.857,-0.857 z"
   inkscape:connector-curvature="0"
   style="opacity:0.9;fill:#cc0000;stroke:#cc0000;stroke-linecap:square;stroke-linejoin:round"
   inkscape:transform-center-x="0.88423932"
   inkscape:transform-center-y="-0.78254439" /><path
   id="path15024-9-6-7-7-2-9-8-9"
   sodipodi:nodetypes="ccssssc"
   inkscape:connector-curvature="0"
   enable-background="new    "
   d="m 13.70339,26.805085 h 10 v -3.334 c 0,-1.666 0,-1.666 -2.5,-1.666 -0.582,0 -5.061,0 -5.834,0 -1.666,0 -1.666,0 -1.666,1.666 0,0.834 0,1.668 0,3.334 z"
   style="opacity:0.5;fill:#fcffff"
   inkscape:transform-center-x="0.88373932"
   inkscape:transform-center-y="-3.2820444" /><path
   id="path4019-83"
   d="m 16.003141,29.630029 5.095413,-5.040718"
   inkscape:connector-curvature="0"
   style="fill:none;stroke:#eeeeec;stroke-width:1.77723038;stroke-linecap:round"
   inkscape:transform-center-x="1.0585373"
   inkscape:transform-center-y="-0.91713232" /><path
   id="path2982"
   sodipodi:ry="4.5"
   sodipodi:rx="4.5"
   sodipodi:cy="19"
   sodipodi:cx="19"
   sodipodi:type="arc"
   d="m 23.5,19 a 4.5,4.5 0 1 1 -9,0 4.5,4.5 0 1 1 9,0 z"
   style="fill:none;stroke:#eeeeec;stroke-width:1.6875;stroke-linecap:round"
   transform="matrix(0.96664905,0,0,0.87219284,0.34428566,10.360616)"
   inkscape:transform-center-x="0.37094124"
   inkscape:transform-center-y="-0.24599755" />
	</g>
<g
   id="Isolation_Mode">
</g>
</svg>