<?xml version="1.0" encoding="UTF-8" standalone="no"?>
<!-- Created with Inkscape (http://www.inkscape.org/) -->

<svg
   xmlns:dc="http://purl.org/dc/elements/1.1/"
   xmlns:cc="http://creativecommons.org/ns#"
   xmlns:rdf="http://www.w3.org/1999/02/22-rdf-syntax-ns#"
   xmlns:svg="http://www.w3.org/2000/svg"
   xmlns="http://www.w3.org/2000/svg"
   xmlns:sodipodi="http://sodipodi.sourceforge.net/DTD/sodipodi-0.dtd"
   xmlns:inkscape="http://www.inkscape.org/namespaces/inkscape"
   width="24"
   height="24"
   id="svg2"
   version="1.1"
   inkscape:version="0.48.2 r9819"
   sodipodi:docname="mActionSelectPolygon.svg">
  <defs
     id="defs4" />
  <sodipodi:namedview
     id="base"
     pagecolor="#ffffff"
     bordercolor="#666666"
     borderopacity="1.0"
     inkscape:pageopacity="0.0"
     inkscape:pageshadow="2"
     inkscape:zoom="15.839192"
     inkscape:cx="-15.018152"
     inkscape:cy="18.513361"
     inkscape:document-units="px"
     inkscape:current-layer="layer1"
     showgrid="true"
     inkscape:window-width="1920"
     inkscape:window-height="1032"
     inkscape:window-x="1916"
     inkscape:window-y="-4"
     inkscape:window-maximized="1">
    <inkscape:grid
       type="xygrid"
       id="grid7000" />
  </sodipodi:namedview>
  <metadata
     id="metadata7">
    <rdf:RDF>
      <cc:Work
         rdf:about="">
        <dc:format>image/svg+xml</dc:format>
        <dc:type
           rdf:resource="http://purl.org/dc/dcmitype/StillImage" />
        <dc:title></dc:title>
      </cc:Work>
    </rdf:RDF>
  </metadata>
  <g
     inkscape:label="Layer 1"
     inkscape:groupmode="layer"
     id="layer1"
     transform="translate(0,-1028.3622)">
    <rect
       style="fill:#00ff00;fill-opacity:1;fill-rule:nonzero;stroke:none"
       id="rect7002"
       width="24"
       height="24"
       x="0"
       y="0"
       transform="translate(0,1028.3622)" />
    <path
       style="fill:#e5e5e5;fill-opacity:1;stroke:#000000;stroke-width:1;stroke-linecap:butt;stroke-linejoin:miter;stroke-miterlimit:4;stroke-opacity:1;stroke-dasharray:4, 1;stroke-dashoffset:0"
       d="M 0.7576144,0.64022256 4.9876282,11.499362 0.63134534,23.242386 5.8083771,16.676394 21.970817,21.727156 18.750957,10.678613 22.791567,0.95589522 11.87236,4.2141515 z"
       id="path4357"
       inkscape:connector-curvature="0"
       transform="translate(0,1028.3622)"
       sodipodi:nodetypes="ccccccccc" />
    <rect
       style="fill:#fce94f;fill-opacity:1;fill-rule:nonzero;stroke:#262626;stroke-width:0.4;stroke-linecap:round;stroke-linejoin:miter;stroke-miterlimit:4;stroke-opacity:1;stroke-dasharray:none;stroke-dashoffset:0"
       id="rect2998"
       width="7.9310994"
       height="8.2807293"
       x="7.4128275"
       y="1034.6134" />
    <rect
       style="fill:#e5e5e5;fill-opacity:1;fill-rule:nonzero;stroke:#262626;stroke-width:0.4;stroke-linecap:round;stroke-linejoin:miter;stroke-miterlimit:4;stroke-opacity:1;stroke-dasharray:none;stroke-dashoffset:0"
       id="rect2998-8"
       width="4.7230945"
       height="3.4348443"
       x="5.5934043"
       y="1047.8984" />
    <path
       d="m 22.760675,1044.2696 -12.756464,-6.9791 5.477553,13.6014 2.180887,-3.5312 4.312159,4.7134 1.633122,-1.5913 -4.408599,-4.6683 3.561343,-1.5449 z"
       id="path827"
       inkscape:connector-curvature="0"
       style="fill:#ffffff;fill-rule:evenodd;stroke:#000000;stroke-width:1;stroke-linecap:round;stroke-linejoin:round;stroke-miterlimit:4;stroke-dasharray:none" />
    <path
       style="fill:#00ff00;fill-opacity:1;fill-rule:nonzero;stroke:none"
       d="m 2.4827407,19.847542 c 0,-0.03246 0.027042,-0.130149 0.060092,-0.217079 0.05482,-0.144189 0.040974,-0.164363 -0.1578364,-0.229977 -0.1198606,-0.03956 -0.2179284,-0.09261 -0.2179284,-0.117902 0,-0.02529 0.060246,-0.224377 0.1338796,-0.442419 0.1190581,-0.35255 0.1487635,-0.391737 0.2683218,-0.353963 0.3646879,0.115223 0.3312603,0.170215 1.0170996,-1.673228 0.3552672,-0.954909 0.6658237,-1.79908 0.6901256,-1.875934 0.037249,-0.117799 0.0089,-0.15448 -0.1806051,-0.233659 l -0.2247904,-0.09392 0.1498681,-0.397686 c 0.1549591,-0.411197 0.2087015,-0.446978 0.5179762,-0.344866 0.1199859,0.03962 0.1657359,-0.05226 0.5629496,-1.130479 C 5.3396856,12.090947 5.5336026,11.52956 5.5328196,11.4889 5.5311131,11.400284 4.9411209,9.8576296 4.8822328,9.7878085 c -0.022637,-0.02684 -0.139775,-0.0076 -0.2603064,0.042766 L 4.4027784,9.9221405 4.2375372,9.4810934 4.072296,9.0400463 4.2286464,8.9806019 c 0.085993,-0.032694 0.1829114,-0.059444 0.2153749,-0.059444 0.032463,0 0.059024,-0.033065 0.059024,-0.073479 0,-0.065041 -1.3608094,-3.6119154 -1.430996,-3.7298126 -0.015319,-0.025733 -0.1271536,-0.0053 -0.2485206,0.045414 L 2.6028618,5.2554804 2.4793993,4.967454 C 2.2550381,4.4440407 2.2546926,4.3823743 2.4756888,4.3053345 2.5837392,4.2676679 2.6728348,4.2041159 2.6736791,4.1641078 2.6745237,4.1240997 2.4570539,3.5299134 2.1904131,2.8436936 1.9237723,2.157474 1.7213716,1.5802616 1.7406337,1.5609995 1.7598959,1.5417373 2.4839879,1.7551607 3.3497271,2.0352736 4.2154664,2.3153865 4.940568,2.5445697 4.961064,2.5445697 c 0.020496,0 0.070083,-0.099437 0.1101926,-0.2209708 0.04011,-0.121534 0.081936,-0.2209709 0.092948,-0.2209709 0.011012,0 0.2100078,0.058681 0.4422142,0.1304022 0.3241051,0.100106 0.413596,0.1528068 0.3851882,0.2268362 -0.020353,0.053039 -0.05348,0.1620743 -0.073616,0.2423015 -0.038969,0.1552656 -0.1766523,0.1046954 3.4607788,1.2711245 0.3458907,0.1109181 0.4028583,0.090235 0.4593031,-0.166756 0.022792,-0.1037737 0.046286,-0.1882991 0.052209,-0.1878342 0.00592,4.672e-4 0.2122395,0.065141 0.4584825,0.1437252 l 0.447716,0.1428799 -0.08045,0.2323626 -0.08045,0.2323625 0.613148,0.2009756 0.613147,0.2009755 1.48183,-0.4414586 c 1.048034,-0.3122248 1.476053,-0.4661391 1.4621,-0.5257665 -0.1003,-0.4285981 -0.1185,-0.4012362 0.360769,-0.542376 l 0.445854,-0.131299 0.03987,0.2125167 c 0.02193,0.1168843 0.05846,0.2240044 0.08117,0.2380448 0.02272,0.01404 0.793684,-0.199441 1.713258,-0.4744031 0.919575,-0.2749621 1.778875,-0.5294507 1.909555,-0.5655302 0.229919,-0.063478 0.237063,-0.074017 0.220971,-0.3259714 l -0.01663,-0.2603724 0.378807,-0.1149159 c 0.481341,-0.1460207 0.456234,-0.1496032 0.504917,0.072049 0.02279,0.1037738 0.06684,0.2043762 0.09788,0.2235609 0.03104,0.019185 0.29312,-0.037311 0.582396,-0.125545 0.670761,-0.2045947 0.696872,-0.2039689 0.648658,0.015547 -0.0345,0.1570606 -0.01514,0.1844748 0.180106,0.2550763 l 0.218755,0.079103 -0.09042,0.2184326 c -0.04973,0.120138 -0.131667,0.3180628 -0.18208,0.4398329 l -0.09166,0.2214002 -0.22322,-0.1064464 c -0.122771,-0.058545 -0.232698,-0.094252 -0.244281,-0.079347 -0.01579,0.020314 -1.3707,3.2769754 -1.538069,3.696896 -0.01559,0.039121 0.03727,0.088588 0.117468,0.1099274 0.313545,0.083427 0.322356,0.1181393 0.143432,0.5650831 l -0.167535,0.4184947 -0.224622,-0.093853 c -0.123542,-0.05162 -0.232605,-0.08587 -0.242363,-0.076113 -0.0098,0.00976 -0.293137,0.6813174 -0.629734,1.4923556 l -0.611995,1.4746154 0.150136,0.536697 c 0.08257,0.295183 0.185294,0.550241 0.228264,0.566796 0.04297,0.01656 0.160179,0.0015 0.260463,-0.03346 l 0.182335,-0.06356 0.12402,0.451701 0.124021,0.451701 -0.226647,0.07135 c -0.124656,0.03924 -0.221735,0.09659 -0.215733,0.127447 0.006,0.03085 0.03132,0.137398 0.05626,0.236769 0.02956,0.11777 0.02203,0.172313 -0.02162,0.156659 -0.03683,-0.01321 -0.79348,-0.421762 -1.681434,-0.907898 l -1.614462,-0.883884 -5.68e-4,-2.6674339 -5.16e-4,-2.667434 -4.198879,0 -4.1988782,0 0.016216,4.3720669 0.016216,4.372066 2.3044105,0.01781 2.30441,0.01781 0.67601,1.68682 c 0.371805,0.927751 0.694463,1.736538 0.717018,1.797305 0.0278,0.0749 0.0099,0.110486 -0.05543,0.110486 -0.05574,0 -0.113929,0.07963 -0.13788,0.188679 -0.02279,0.103774 -0.06834,0.205304 -0.101213,0.225621 -0.03288,0.02032 -0.245676,-0.02492 -0.47289,-0.100536 -0.309226,-0.102903 -0.404046,-0.161118 -0.377044,-0.231486 0.149413,-0.389363 0.269583,-0.324274 -1.775608,-0.961741 -1.0352238,-0.32267 -1.9069388,-0.590616 -1.9371436,-0.595436 -0.030205,-0.0048 -0.087026,0.09445 -0.1262691,0.220606 L 8.1332815,17.366414 7.701451,17.236433 C 7.2378356,17.096885 7.2530785,17.120946 7.3559375,16.691058 7.3692739,16.63532 7.0905634,16.519363 6.4958177,16.333207 6.0119006,16.181741 5.609544,16.064365 5.6016919,16.072371 c -0.00785,0.008 -0.4170058,0.52581 -0.9092306,1.150675 L 3.7975071,18.359164 3.9895036,18.51945 4.1815002,18.679736 3.8961621,19.039421 3.610824,19.399106 3.4282294,19.264108 C 3.2137769,19.105556 3.1797489,19.124141 2.8194471,19.596599 2.5935373,19.892832 2.4827407,19.975407 2.4827407,19.847542 z"
       id="path7004"
       inkscape:connector-curvature="0"
       transform="translate(0,1028.3622)" />
    <path
       style="fill:#00ff00;fill-opacity:1;fill-rule:nonzero;stroke:none"
       d="m 5.828871,21.263959 0,-1.483662 2.1150069,0 2.1150071,0 0,1.483662 0,1.483661 -2.1150071,0 -2.1150069,0 0,-1.483661 z"
       id="path7006"
       inkscape:connector-curvature="0"
       transform="translate(0,1028.3622)" />
  </g>
</svg>
